<?xml version="1.0" encoding="utf-8" standalone="yes"?>
<!DOCTYPE svg PUBLIC "-//W3C//DTD SVG 1.1//EN" "http://www.w3.org/Graphics/SVG/1.1/DTD/svg11.dtd">
<svg style="fill:none;stroke:none;fill-rule:evenodd;clip-rule:evenodd;stroke-linecap:round;stroke-linejoin:round;stroke-miterlimit:1.5;" version="1.1" xmlns="http://www.w3.org/2000/svg" xmlns:xlink="http://www.w3.org/1999/xlink" width="960" height="604" viewBox="0 0 960 604"><style class="text-font-style fontImports" data-font-family="Montserrat">@import url(https://fonts.googleapis.com/css2?family=Montserrat:wght@400;700&amp;amp;display=block);</style><g id="items" style="isolation: isolate"><g id="blend" style="mix-blend-mode: normal"><g id="g-root-cp_0r_g-0r_ddkjdfxxihot-fill" data-item-order="-463286" transform="translate(14, 199.53076171875)"><g id="cp_0r_g-0r_ddkjdfxxihot-fill-merged" stroke="none" fill="#fff2e5" fill-opacity="1"><g><path d="M817.81 11.009C814.429 22.388 812.41 28.148 808.045 36.049C805.467 40.718 796.585 47.522 786.67 50.523C802.614 55.971 811.147 63.796 825.945 84.053C825.932 84.053 889.248 90.09 910 104.923C878.093 98.472 855.461 96.943 840.434 95.929C829.63 95.199 822.757 94.735 819.194 92.898C796.623 69.136 775.746 57.795 755.492 58.623C737.244 60.235 720.709 61.262 705.657 61.816C707.851 55.913 708.43 51.943 707.568 49.382C717.563 49.077 728.224 48.508 739.635 47.63C739.906 47.602 740.198 47.571 740.508 47.539C750.087 46.542 777.684 43.67 797.158 31.429C797.158 31.429 806.706 25.314 817.043 10.001C817.295 10.339 817.551 10.675 817.81 11.009 M77.956 98.857C71.585 100.735 64.953 102.246 58 103.291C22.5 106.031 10 103.291 10 103.291 V157.031C10 157.031 22 151.03 58 151.03C95.763 151.199 125.432 128.061 154.953 105.038C186.117 80.733 217.117 56.557 257.301 60.063C260.685 60.358 263.967 60.651 267.155 60.938C267.81 59.678 268.537 58.406 269.33 57.171C272.65 52.011 279.26 43.344 284.74 43.344C290.24 43.344 296.65 48.271 299.12 50.961C302.54 52.091 306.42 53.721 310.86 57.811C312.05 58.641 313.22 59.712 314.27 61.242C315.225 62.629 316.077 63.989 316.79 65.416C361.521 68.954 387.848 67.694 449.023 51.618C452.436 47.284 456.8 43.031 460.615 43.031C463.583 43.031 466.816 44.484 469.549 46.247C510.919 36.464 532.753 41.584 562.457 48.549C570.14 50.351 578.35 52.276 587.56 54.098C590.632 50.597 594.228 47.586 597.43 47.586C602.823 47.586 609.109 52.404 611.531 55.034C614.055 55.865 616.835 56.976 619.912 59.179C626.985 60 634.594 60.699 642.843 61.229C647.311 59.19 651.832 57.318 656.286 55.632C662.855 53.147 669.281 51.063 675.176 49.447C629.047 48.106 599.374 40.612 572.863 33.916C537.826 25.068 508.31 17.613 453.625 27.601C370.968 42.703 319.263 36.796 258.015 29.799 H257.787C219.7 25.42 191.155 37.848 163.93 53.784C164.003 54.861 163.758 55.861 162.915 56.535C161.778 57.441 160.304 57.276 158.942 56.747C155.73 58.681 152.53 60.654 149.327 62.641C150.169 64.641 151.311 68.301 149.136 69.745C146.966 71.182 144.048 69.131 142.53 67.813C141.478 68.347 140.435 68.727 139.45 68.887C139.45 69.806 138.78 71.247 137.554 72.851L137.326 73.148C136.673 74.002 135.935 74.967 135.081 75.958L135.167 76.135C135.837 78.179 137.048 83.013 134.719 84.29C132.489 85.508 129.468 83.247 128.355 81.528C127.421 82.021 126.413 82.455 125.321 82.804C124.94 83.908 123.6 85.356 121.704 86.807C120.603 87.652 119.283 88.529 117.87 89.297C117.953 91.473 117.726 95.182 115.232 95.785C112.914 96.347 111.017 93.956 109.966 92.199C108.984 92.379 107.973 92.479 107.008 92.498C106.019 93.397 104.103 94.27 101.856 94.975C101.424 95.112 100.948 95.251 100.495 95.375C100.361 97.582 99.743 100.944 97.321 101.311C94.707 101.709 92.925 98.53 92.13 96.71C91.135 96.729 90.265 96.668 89.593 96.51C88.614 97.205 86.656 97.787 84.378 98.196C82.348 98.563 80.054 98.798 77.956 98.857"></path></g></g></g><g id="g-root-cp_0q_g-0q_8ydic3xxifba-fill" data-item-order="-463280" transform="translate(96.12677001953125, 227.77294921875)"><g id="cp_0q_g-0q_8ydic3xxifba-fill-merged" stroke="none" fill="#f5f5f5" fill-opacity="1"><g><path d="M86.558 14.966C87.98 16.417 90.649 18.603 92.885 17.387C95.297 16.069 94.266 11.982 93.596 10C91.401 11.982 88.774 13.883 86.558 14.966 M73.749 26.719C75.275 27.884 78.634 30.009 80.788 28.292C82.859 26.637 81.324 23.01 80.304 21.109C78.469 23.163 76.078 25.288 73.749 26.719 M60.393 39.561C61.908 40.88 64.835 42.943 67.009 41.503C69.225 40.031 67.998 36.261 67.153 34.289C65.226 36.353 62.794 38.356 60.403 39.561 M46.079 53.037C47.043 54.775 50.253 57.325 52.592 56.048C54.921 54.771 53.71 49.937 53.04 47.893C51.113 49.558 48.995 51.76 46.079 53.037 M27.839 63.957C28.89 65.714 30.787 68.105 33.105 67.543C35.599 66.94 35.826 63.231 35.743 61.055C33.332 62.362 30.591 63.446 27.839 63.957 M10 68.461C10.793 70.28 12.576 73.468 15.194 73.069C17.616 72.701 18.234 69.34 18.368 67.133C15.534 67.909 12.411 68.42 10 68.461"></path></g></g></g><g id="g-root-cp_0p_g-0p_2qi37xxig3z-fill" data-item-order="-463276" transform="translate(71.01199340820312, 194.98388671875)"><g id="cp_0p_g-0p_2qi37xxig3z-fill-merged" stroke="none" fill="#f4ffdc" fill-opacity="1"><g><path d="M10.105 97.031C9.209 91.687 14.145 85.23 20.771 81.929C22.255 81.194 23.811 80.611 25.409 80.233C26.748 78.057 30.819 75.972 35.054 74.961C36.477 74.613 37.929 74.392 39.3 74.331C40.072 72.318 44.68 69.307 48.822 67.692C50.337 67.1 51.801 66.692 52.975 66.61C53.346 64.536 56.912 59.292 61.188 56.615C62.415 55.849 63.693 55.277 64.981 55.062C64.27 52.467 69.113 45.889 73.493 42.558C74.823 41.557 76.101 40.841 77.173 40.626C76.832 37.52 82.242 30.972 86.808 27.999C88.25 27.059 89.611 26.476 90.672 26.476C90.672 23.626 97.741 18.775 102.739 16.976C104.481 16.353 105.965 16.105 106.82 16.432C106.769 12.355 119.538 8.602 129.369 10.513C139.829 12.546 141.818 17.655 141.972 19.903C142.76 30.928 126.955 35.429 123.286 36.474 H123.206C123.381 37.344 122.525 38.791 121.114 40.385C117.826 44.104 111.602 48.692 108.603 48.672C108.634 49.479 107.851 50.897 106.614 52.48C104.069 55.74 99.586 59.744 95.99 60.899C96.015 61.86 95.243 63.367 94.001 65.017C91.311 68.583 86.406 72.79 82.438 73.434C82.438 74.353 81.768 75.794 80.542 77.398C80.467 77.495 80.391 77.595 80.314 77.695C77.937 80.804 74.429 85.391 68.31 87.351C67.928 88.454 66.588 89.903 64.692 91.354C61.033 94.164 55.242 96.943 49.996 97.045C49.007 97.944 47.091 98.817 44.845 99.522C40.589 100.861 35.147 101.66 32.581 101.057C31.602 101.751 29.644 102.334 27.367 102.743C23.585 103.427 18.885 103.652 16.247 103.131C12.764 102.436 10.517 99.473 10.105 97.031 M95.99 60.889C95.99 60.89 95.99 60.892 95.99 60.894 M129.616 17.864C129.616 18.993 128.693 19.907 127.555 19.907C126.417 19.907 125.494 18.993 125.494 17.864C125.494 16.735 126.417 15.82 127.555 15.82C128.693 15.82 129.616 16.735 129.616 17.864"></path></g></g></g><g id="g-root-cp_0o_g-0o_1uo11xvxxigp4-fill" data-item-order="-463270" transform="translate(169.99598693847656, 170.875)"><g id="cp_0o_g-0o_1uo11xvxxigp4-fill-merged" stroke="none" fill="#f5f5f5" fill-opacity="1"><g><path d="M28.571 44.017C29.709 44.017 30.632 43.102 30.632 41.973C30.632 40.845 29.709 39.93 28.571 39.93C27.433 39.93 26.51 40.845 26.51 41.973C26.51 43.102 27.433 44.017 28.571 44.017"></path></g></g></g><g id="g-root-cp_0k_g-0k_1q87jtfxxihhd-fill" data-item-order="-463264" transform="translate(266.04296875, 232.875)"><g id="cp_0k_g-0k_1q87jtfxxihhd-fill-merged" stroke="none" fill="#f4ffdc" fill-opacity="1"><g><path d="M20.347 153.911C33.507 153.571 45.897 150.651 55.197 143.761C64.327 136.991 68.487 126.991 68.487 112.361C68.487 108.921 67.667 102.898 67.667 102.898C70.417 96.118 69.247 91.6 69.557 84.77C69.737 80.9 69.877 76.89 69.947 72.95C70.027 68.52 70.027 64.19 69.917 60.25C69.807 56.1 69.567 52.363 69.187 49.423C68.717 45.863 68.017 43.446 67.057 42.786C67.107 39.476 66.637 36.799 65.757 34.409C64.907 32.079 63.687 30.019 62.227 27.899C61.177 26.369 60.007 25.297 58.817 24.467C54.377 20.377 50.497 18.747 47.077 17.617C44.607 14.927 38.197 10 32.697 10C27.217 10 20.607 18.667 17.287 23.827C15.207 27.067 13.577 30.557 12.527 33.447C9.177 43.207 11.717 50.673 11.717 50.673C9.777 57.953 8.557 85.823 13.297 121.583C13.787 125.263 14.247 128.513 14.677 131.413C15.197 134.853 15.677 137.783 16.127 140.263C17.347 147.013 18.297 150.482 18.987 152.242C19.897 154.572 20.347 153.911 20.347 153.911"></path></g></g></g><g id="g-root-cp_0j_g-0j_1q87jtfxxihhe-fill" data-item-order="-463258" transform="translate(444.510009765625, 232.56201171875)"><g id="cp_0j_g-0j_1q87jtfxxihhe-fill-merged" stroke="none" fill="#f4ffdc" fill-opacity="1"><g><path d="M60.485 88.712C62.15 93.482 63.585 98.452 64.781 103.423C64.791 103.453 64.801 103.463 64.801 103.463C67.542 96.641 66.526 92.083 66.835 85.211C67.014 81.317 67.163 77.305 67.233 73.341C67.312 68.884 67.313 64.501 67.204 60.537C67.094 56.361 66.855 52.618 66.476 49.66C66.007 46.078 65.32 43.633 64.363 42.969C64.413 39.638 63.924 36.967 63.047 34.563C62.2 32.218 61.004 30.147 59.549 28.014C58.502 26.474 57.326 25.398 56.14 24.563C51.715 20.447 47.846 18.801 44.437 17.664C41.975 14.957 35.587 10 30.105 10C24.643 10 18.054 18.721 14.745 23.913C12.671 27.173 11.047 30.684 10 33.592C10.469 34.367 11.038 35.107 11.696 35.822C15.075 39.524 20.875 42.553 27.982 45.773C28.869 46.175 29.766 46.586 30.693 46.989C34.441 48.649 37.012 49.947 38.846 51.144C41.677 52.996 42.754 54.59 43.651 56.864C44.04 57.85 44.408 58.987 44.867 60.305C44.867 60.305 47.777 62.922 48.355 67.097C48.385 67.318 48.404 67.576 48.424 67.807C48.424 67.807 52.62 69.819 57.355 80.686C58.481 83.272 59.519 85.945 60.485 88.712"></path></g></g></g><g id="g-root-cp_0i_g-0i_1hd70nnxxif4b-fill" data-item-order="-463252" transform="translate(460.238037109375, 290.3671875)"><g id="cp_0i_g-0i_1hd70nnxxif4b-fill-merged" stroke="none" fill="#e8f9ff" fill-opacity="1"><g><path d="M53.727 83.097C53.956 75.862 53.039 65.499 50.956 54.461C48.953 43.836 45.853 32.589 41.627 22.889C36.893 12.012 32.696 10 32.696 10C32.696 10 34.569 22.265 27.513 32.709C20.366 43.285 14.465 52.692 10 61.054C13.249 64.173 17.227 66.638 18.403 67.946C19.251 68.882 19.968 69.787 20.596 70.693C25.49 77.686 24.931 83.781 37.191 91.619C51.026 100.453 53.328 95.885 53.727 83.097"></path></g></g></g><g id="g-root-cp_0h_g-0h_1cxdij7xxifwk-fill" data-item-order="-463246" transform="translate(442, 256.15576171875)"><g id="cp_0h_g-0h_1cxdij7xxifwk-fill-merged" stroke="none" fill="#f4ffdc" fill-opacity="1"><g><path d="M10.656 71.528C11.723 75.1 13.198 78.473 15.63 82.035C18.351 86.02 22.278 90.236 28.239 95.267C32.704 86.905 38.605 77.497 45.751 66.922C52.808 56.478 50.934 44.213 50.934 44.213C50.605 39.635 47.376 36.727 47.376 36.727C45.153 30.388 45.283 28.758 33.212 23.405C32.285 22.993 31.378 22.59 30.481 22.188C21.999 18.344 15.381 14.759 12.52 10C9.181 19.82 11.713 27.326 11.713 27.326C10.297 32.669 9.271 49.07 10.656 71.528"></path></g></g></g><g id="g-root-cp_0g_g-0g_141qiabxxigp9-fill" data-item-order="-463240" transform="translate(579.9530029296875, 237.1171875)"><g id="cp_0g_g-0g_141qiabxxigp9-fill-merged" stroke="none" fill="#f4ffdc" fill-opacity="1"><g><path d="M45.911 97.67C44.195 93.946 42.793 90.077 41.675 86.148C40.224 81.037 39.292 75.886 38.783 71.028C36.9 86.305 33.87 91.671 33.87 91.671C33.87 91.671 33.968 78.711 31.409 67.256C29.222 57.482 27.064 49.658 29.368 44.752C30.79 41.741 35.801 40.139 38.468 43.823C39.4 45.113 40.038 47.047 40.146 49.803C40.401 49.119 41.626 46.343 46.117 42.219C48.039 40.459 50.549 38.448 53.844 36.258C56.619 34.411 59.541 32.632 62.542 30.931C61.914 29.778 61.218 28.635 60.433 27.501C59.404 26.006 58.257 24.959 57.091 24.148C52.737 20.151 48.931 18.552 45.578 17.448C43.156 14.818 36.87 10 31.477 10C26.104 10 19.622 18.479 16.367 23.523C14.327 26.689 12.728 30.105 11.699 32.93C8.414 42.469 10.905 49.76 10.905 49.76C9.228 74.557 25.486 104.678 29.467 106.789C34.556 106.115 40.744 101.941 45.902 97.67"></path></g></g></g><g id="g-root-cp_0f_g-0f_zlx05vxxihhi-fill" data-item-order="-463234" transform="translate(586.427978515625, 245.23388671875)"><g id="cp_0f_g-0f_zlx05vxxihhi-fill-merged" stroke="none" fill="#f5f5f5" fill-opacity="1"><g><path d="M32.319 62.919C31.426 54.328 31.936 46.675 33.623 41.857C33.623 41.857 33.643 41.896 33.692 41.964C33.437 31.027 24.827 32.542 22.905 36.637C20.601 41.544 22.758 49.363 24.945 59.137C27.504 70.592 27.406 83.552 27.406 83.552C27.406 83.552 30.446 78.196 32.319 62.919"></path></g></g></g><g id="g-root-cp_0d_g-0d_zlx05vxxihhj-fill" data-item-order="-463228" transform="translate(608.3049926757812, 234.875)"><g id="cp_0d_g-0d_zlx05vxxihhj-fill-merged" stroke="none" fill="#e8f9ff" fill-opacity="1"><g><path d="M67.336 89.836C52.941 110.019 37.849 128.335 24.317 111.212L23.66 110.393C10.481 92.526 7.637 63.967 11.736 52.219C11.736 52.219 13.266 46.641 25.494 38.499C36.408 31.237 49.459 25.029 61.981 20.288C74.974 15.372 87.408 12.03 96.282 10.759C111.952 8.501 118.051 10.358 110.275 29.212C103.382 45.925 95.812 46.551 88.35 54.057C87.398 55.025 86.418 56.087 85.467 57.329C83.28 60.173 78.926 72.898 71.758 75.948C67.729 77.662 62.838 76.552 55.882 74.169C62.433 78.694 70.415 85.516 67.336 89.836"></path></g></g></g><g id="g-root-cp_0c_g-0c_v6pz4jxxif40-fill" data-item-order="-463222" transform="translate(789.5590209960938, 118.5)"><g id="cp_0c_g-0c_v6pz4jxxif40-fill-merged" stroke="none" fill="#f5f5f5" fill-opacity="1"><g><path d="M27.442 58.047C27.479 56.897 28.013 52.171 33.144 44.374C32.864 41.383 30.611 38.055 27.442 38.055C24.273 38.055 22.03 41.383 21.74 44.374C26.872 52.162 27.405 56.888 27.442 58.047 M27.442 58.047C27.386 61.936 26.058 67.218 23.675 72.968C25.376 83.635 27.442 92.628 27.442 92.628C27.442 92.628 29.508 83.635 31.209 72.968C28.835 67.218 27.498 61.936 27.442 58.047"></path></g></g></g><g id="g-root-cp_0b_g-0b_mb2yvnxxifwp-fill" data-item-order="-463216" transform="translate(726.9999389648438, 98)"><g id="cp_0b_g-0b_mb2yvnxxifwp-fill-merged" stroke="none" fill="#e8f9ff" fill-opacity="1"><g><path d="M120.268 127.072C137.823 137.945 145.264 116.76 151.499 94.145C152.835 89.302 143.534 85.824 136.262 83.908C143.311 83.791 147.865 83.218 150.909 80.365C156.284 75.335 156.022 62.602 157.041 59.367C157.49 57.956 157.995 56.694 158.537 55.525C162.725 46.438 169.24 43.437 169.932 26.338C170.717 7.042 164.734 7.36 151.564 14.428C144.104 18.429 134.158 25.411 124.222 33.984C114.65 42.239 105.087 51.98 97.758 61.965C90.911 71.302 90.082 76.649 89.996 78.164C90.012 78.465 90 78.615 90 78.615C89.99 78.615 89.978 78.465 89.996 78.164C89.911 76.65 89.09 71.302 82.241 61.965C74.913 51.98 65.35 42.239 55.778 33.984C45.842 25.411 35.896 18.429 28.436 14.428C15.266 7.36 9.283 7.042 10.068 26.338C10.76 43.437 17.257 46.436 21.444 55.523C21.987 56.692 22.5 57.956 22.949 59.367C23.968 62.602 23.706 75.335 29.081 80.365C32.098 83.193 36.783 83.784 43.729 83.908C36.457 85.824 27.156 89.302 28.493 94.145C34.728 116.76 42.178 137.935 59.733 127.062C60.022 126.894 60.293 126.736 60.583 126.539C78.054 114.9 89.832 90.397 90 78.617C90.168 90.397 101.946 114.9 119.417 126.539C119.52 126.609 120.268 126.984 120.268 127.072"></path></g></g></g><g id="g-root-tx_studysoc_9lq1fxxifb6-fill" data-item-order="0" transform="translate(566, 498)"><g id="tx_studysoc_9lq1fxxifb6-fill-merged" stroke="none" fill="#484848" fill-opacity="1"><g><text style="font: 15px Montserrat, sans-serif; white-space: pre;" font-size="15px" font-family="Montserrat, sans-serif"><tspan x="15.79" y="28" dominant-baseline="ideographic">Study, social, and </tspan><tspan x="34.42" y="46" dominant-baseline="ideographic">cultural hub</tspan></text></g></g></g><g id="g-root-tx_scobyspo_hv9gr7xxigoy-fill" data-item-order="0" transform="translate(338, 38)"><g id="tx_scobyspo_hv9gr7xxigoy-fill-merged" stroke="none" fill="#484848" fill-opacity="1"><g><text style="font: bold 25px Montserrat, sans-serif; white-space: pre;" font-weight="bold" font-size="25px" font-family="Montserrat, sans-serif"><tspan x="15.22" y="43" dominant-baseline="ideographic">Community Impact</tspan></text></g></g></g><g id="g-root-tx_retailsp_znsff7xxighv-fill" data-item-order="0" transform="translate(68, 414)"><g id="tx_retailsp_znsff7xxighv-fill-merged" stroke="none" fill="#969696" fill-opacity="1"><g><text style="font: 20px Montserrat, sans-serif; white-space: pre;" font-size="20px" font-family="Montserrat, sans-serif"><tspan x="14.59" y="34" dominant-baseline="ideographic">Retail Space</tspan></text></g></g></g><g id="g-root-tx_wellness_1lz99n7xxigoz-fill" data-item-order="0" transform="translate(752, 414)"><g id="tx_wellness_1lz99n7xxigoz-fill-merged" stroke="none" fill="#969696" fill-opacity="1"><g><text style="font: 20px Montserrat, sans-serif; white-space: pre;" font-size="20px" font-family="Montserrat, sans-serif"><tspan x="16.83" y="34" dominant-baseline="ideographic">Wellness </tspan><tspan x="21.75" y="58" dominant-baseline="ideographic">Catalyst</tspan></text></g></g></g><g id="g-root-tx_traditio_5uvirxxihak-fill" data-item-order="0" transform="translate(68, 450)"><g id="tx_traditio_5uvirxxihak-fill-merged" stroke="none" fill="#484848" fill-opacity="1"><g><text style="font: 15px Montserrat, sans-serif; white-space: pre;" font-size="15px" font-family="Montserrat, sans-serif"><tspan x="13.63" y="28" dominant-baseline="ideographic">Traditional retail </tspan><tspan x="32.74" y="46" dominant-baseline="ideographic">experience</tspan></text></g></g></g><g id="g-root-tx_teacultu_18kodubxxih3h-fill" data-item-order="0" transform="translate(242, 438)"><g id="tx_teacultu_18kodubxxih3h-fill-merged" stroke="none" fill="#969696" fill-opacity="1"><g><text style="font: 20px Montserrat, sans-serif; white-space: pre;" font-size="20px" font-family="Montserrat, sans-serif"><tspan x="13.46" y="34" dominant-baseline="ideographic">Tea Culture</tspan></text></g></g></g><g id="g-root-tx_restorat_1qd7cibxxigwf-fill" data-item-order="0" transform="translate(398, 450)"><g id="tx_restorat_1qd7cibxxigwf-fill-merged" stroke="none" fill="#969696" fill-opacity="1"><g><text style="font: 20px Montserrat, sans-serif; white-space: pre;" font-size="20px" font-family="Montserrat, sans-serif"><tspan x="26.14" y="34" dominant-baseline="ideographic">Restorative </tspan><tspan x="16.16" y="58" dominant-baseline="ideographic">Environment</tspan></text></g></g></g><g id="g-root-tx_flexible_i099g3xxig3t-fill" data-item-order="0" transform="translate(590, 438)"><g id="tx_flexible_i099g3xxig3t-fill-merged" stroke="none" fill="#969696" fill-opacity="1"><g><text style="font: 20px Montserrat, sans-serif; white-space: pre;" font-size="20px" font-family="Montserrat, sans-serif"><tspan x="16.92" y="34" dominant-baseline="ideographic">Flexible </tspan><tspan x="24.99" y="58" dominant-baseline="ideographic">Space</tspan></text></g></g></g><g id="g-root-tx_kombucha_hydu6rxxih3i-fill" data-item-order="0" transform="translate(230, 474)"><g id="tx_kombucha_hydu6rxxih3i-fill-merged" stroke="none" fill="#484848" fill-opacity="1"><g><text style="font: 15px Montserrat, sans-serif; white-space: pre;" font-size="15px" font-family="Montserrat, sans-serif"><tspan x="37.53" y="28" dominant-baseline="ideographic">Kombucha-</tspan><tspan x="13.6" y="46" dominant-baseline="ideographic">focused tea house</tspan></text></g></g></g><g id="g-root-tx_retailas_m7c4czxxjw24-fill" data-item-order="0" transform="translate(740, 474)"><g id="tx_retailas_m7c4czxxjw24-fill-merged" stroke="none" fill="#484848" fill-opacity="1"><g><text style="font: 15px Montserrat, sans-serif; white-space: pre;" font-size="15px" font-family="Montserrat, sans-serif"><tspan x="44.64" y="31" dominant-baseline="ideographic">Retail as </tspan><tspan x="12.44" y="49" dominant-baseline="ideographic">community well-</tspan><tspan x="54.16" y="67" dominant-baseline="ideographic">being</tspan></text></g></g></g><g id="g-root-tx_attracts_146qaz7xxigw0-fill" data-item-order="0" transform="translate(398, 510)"><g id="tx_attracts_146qaz7xxigw0-fill-merged" stroke="none" fill="#484848" fill-opacity="1"><g><text style="font: 15px Montserrat, sans-serif; white-space: pre;" font-size="15px" font-family="Montserrat, sans-serif"><tspan x="14.13" y="28" dominant-baseline="ideographic">Attracts residents </tspan><tspan x="37.53" y="46" dominant-baseline="ideographic">and visitors</tspan></text></g></g></g><g id="g-root-cp_0r_g-0r_ddkjdfxxihot-stroke" data-item-order="-463286" transform="translate(14, 199.53076171875)"><g id="cp_0r_g-0r_ddkjdfxxihot-stroke" fill="none" stroke-linecap="round" stroke-linejoin="round" stroke-miterlimit="4" stroke="#de8431" stroke-width="2" stroke-opacity="1"><g><path d="M 817.8096 11.0076C 814.4294 22.3867 812.4096 28.1465 808.0451 36.0483C 805.4667 40.7167 796.5853 47.5212 786.67 50.5214C 802.6141 55.9698 811.1467 63.7944 825.9448 84.052L 825.9324 84.052C 825.9324 84.052 889.2478 90.0885 910.0001 104.9216C 878.0933 98.4705 855.4612 96.9422 840.4337 95.9274C 829.6302 95.1978 822.757 94.7337 819.1935 92.8967C 796.6227 69.1348 775.7458 57.794 755.4919 58.622C 737.2436 60.2337 720.7092 61.2612 705.6567 61.8152C 707.8512 55.9115 708.4297 51.9417 707.5676 49.3813C 717.5629 49.0756 728.2237 48.5064 739.6349 47.6292C 739.9064 47.6006 740.1975 47.5703 740.5075 47.538C 750.0869 46.541 777.684 43.6688 797.1583 31.4279C 797.1583 31.4279 806.7062 25.3131 817.0427 10C 817.2954 10.3376 817.5511 10.6735 817.8096 11.0076ZM 77.9563 98.8555C 71.5846 100.7342 64.9526 102.2446 58 103.2895C 22.5 106.0301 10 103.2895 10 103.2895M 149.3271 62.6403C 152.5298 60.6524 155.7303 58.6803 158.9422 56.7461M 163.9296 53.7828C 191.1552 37.8465 219.7003 25.4188 257.787 29.7718L 258.015 29.7979C 319.2626 36.795 370.968 42.7021 453.6252 27.5996C 508.3102 17.6123 537.8256 25.0665 572.8632 33.9153C 599.3741 40.6108 629.0466 48.1046 675.1758 49.4456C 669.2806 51.0622 662.8548 53.1455 656.2861 55.6309C 651.832 57.3171 647.3109 59.189 642.8428 61.228C 634.5942 60.6982 626.9846 59.9986 619.9119 59.1779M 587.5601 54.0973C 578.3497 52.2746 570.14 50.3495 562.4568 48.5478C 532.7528 41.5824 510.9185 36.4624 469.5488 46.2456M 449.0234 51.6169C 387.8477 67.6931 361.5215 68.9527 316.7897 65.4151M 267.1548 60.9372C 263.9668 60.6494 260.6848 60.3573 257.3012 60.0621C 217.1166 56.5554 186.1168 80.732 154.9527 105.0367C 125.4316 128.0601 95.763 151.1984 58 151.0291C 22 151.0291 10 157.0301 10 157.0301"></path></g></g></g><g id="g-root-cp_0q_g-0q_8ydic3xxifba-stroke" data-item-order="-463280" transform="translate(96.12677001953125, 227.77294921875)"><g id="cp_0q_g-0q_8ydic3xxifba-stroke" fill="none" stroke-linecap="round" stroke-linejoin="round" stroke-miterlimit="4" stroke="#a3a3a3" stroke-width="2" stroke-opacity="1"><g><path d="M 86.5581 14.9658C 87.9802 16.4167 90.6492 18.6033 92.8855 17.3874C 95.2969 16.0693 94.2664 11.9822 93.5965 10C 91.4015 11.9822 88.7737 13.8827 86.5581 14.9658ZM 73.7495 26.7189C 75.2746 27.8837 78.6342 30.009 80.788 28.2924C 82.8593 26.6371 81.3238 23.0099 80.3036 21.1094C 78.4693 23.1631 76.0785 25.2884 73.7495 26.7189ZM 60.393 39.5614C 61.9079 40.8795 64.8346 42.9434 67.009 41.5027C 69.2246 40.0314 67.9983 36.2611 67.1533 34.2891C 65.2262 36.353 62.7941 38.3557 60.4033 39.5614L 60.393 39.5614ZM 46.0787 53.0374C 47.0426 54.7746 50.2527 57.325 52.592 56.0478C 54.921 54.7706 53.7099 49.9365 53.0401 47.8929C 51.113 49.5584 48.9951 51.7602 46.0787 53.0374ZM 27.8393 63.9565C 28.8904 65.7139 30.7866 68.1049 33.1053 67.5429C 35.5992 66.9401 35.8259 63.2311 35.7434 61.0547C 33.332 62.3626 30.5908 63.4456 27.8393 63.9565ZM 10 68.4611C 10.7935 70.2799 12.5763 73.4678 15.1939 73.0693C 17.6156 72.7014 18.2339 69.3398 18.3679 67.1328C 15.5339 67.9094 12.4114 68.4202 10 68.4611Z"></path></g></g></g><g id="g-root-cp_0p_g-0p_2qi37xxig3z-stroke" data-item-order="-463276" transform="translate(71.01199340820312, 194.98388671875)"><g id="cp_0p_g-0p_2qi37xxig3z-stroke" fill="none" stroke-linecap="round" stroke-linejoin="round" stroke-miterlimit="4" stroke="#92bd39" stroke-width="2" stroke-opacity="1"><g><path d="M 20.7713 81.9294C 14.145 85.2297 9.2088 91.6873 10.1053 97.0312C 10.5175 99.4732 12.7641 102.4363 16.2473 103.1311C 18.8854 103.6522 23.5846 103.4274 27.3667 102.7428C 29.6441 102.3341 31.6021 101.7515 32.5811 101.0566C 35.1471 101.6595 40.5887 100.8608 44.8448 99.5223C 47.0913 98.8173 49.0072 97.9442 49.9965 97.0451C 55.2419 96.9429 61.0334 94.1637 64.6918 91.3538C 66.588 89.9029 67.9283 88.4545 68.3095 87.351C 74.6267 85.3279 78.1613 80.5043 80.5418 77.3981C 81.7681 75.7939 82.438 74.3532 82.438 73.4336C 86.4055 72.7899 91.311 68.5827 94.0007 65.0167C 95.2432 63.3673 96.0148 61.86 95.9896 60.899L 95.9896 60.8888C 95.9897 60.8922 95.9895 60.8956 95.9896 60.899C 99.5861 59.7444 104.069 55.7397 106.6144 52.4803C 107.851 50.8966 108.634 49.4787 108.6031 48.6715C 111.6019 48.692 117.8263 44.1042 121.1137 40.385C 122.5255 38.791 123.3814 37.3444 123.2062 36.4963L 123.2855 36.4737C 126.9547 35.4289 142.7598 30.928 141.9721 19.9028C 141.8176 17.6549 139.8287 12.5461 129.3688 10.5128C 119.5376 8.602 106.7686 12.3548 106.8201 16.4316C 105.9648 16.1047 104.4809 16.353 102.7393 16.9763C 97.7413 18.7746 90.6721 23.6256 90.6721 26.4763C 89.6107 26.4763 88.2404 27.0678 86.7976 28.0079C 82.2324 30.9812 76.8324 37.5202 77.1725 40.6264C 76.1008 40.841 74.8225 41.557 73.4932 42.5583C 69.1134 45.8893 64.2698 52.4669 64.9808 55.0622C 63.6927 55.2768 62.4148 55.849 61.1885 56.6153C 56.9118 59.2924 53.3464 64.5356 52.9754 66.6098C 51.8006 66.6916 50.3371 67.0996 48.8223 67.6922C 44.6795 69.3066 40.0725 72.3183 39.2996 74.3311C 37.929 74.3924 36.4765 74.6133 35.0543 74.9607C 30.8189 75.9722 26.7485 78.0578 25.4088 80.2341C 23.8115 80.6122 22.2552 81.1938 20.7713 81.9294ZM 27.3667 102.7428C 25.9033 101.435 24.44 99.4735 23.2033 96.5206C 24.44 99.4633 25.9136 101.435 27.3667 102.7428ZM 20.7713 81.9294C 20.2869 86.507 21.6266 92.7707 23.2033 96.5206M 25.4088 80.2341C 23.5229 83.3096 25.8414 99.4831 32.5811 101.0566M 35.0543 74.9607C 34.6937 80.1819 37.2494 90.2977 41.1963 95.8664C 42.3917 97.5523 43.6391 98.7253 44.8448 99.5223M 39.2996 74.3311C 38.1454 77.3249 42.32 97.2032 50.0077 97.0499M 48.8223 67.6922C 49.0387 73.6593 54.0877 83.8543 59.3949 88.4523L 59.3949 88.4421C 61.3014 90.0973 63.0842 90.9553 64.6918 91.3538M 52.9754 66.6098C 52.1407 71.2282 60.694 89.7828 68.3095 87.351M 61.1885 56.6153C 62.7137 60.1404 71.5556 75.6917 80.5418 77.3981M 82.438 73.4336C 76.1724 74.4554 65.5476 57.1569 64.9808 55.0622M 73.4932 42.5583C 74.6371 45.5521 77.7802 50.1197 79.2641 52.1939C 82.1496 56.2196 85.4267 60.5519 89.6106 63.2392C 91.1358 64.2201 92.5991 64.8022 94.0007 65.0167C 95.2476 63.3615 96.0205 61.8493 95.9896 60.8888M 77.1725 40.6264C 77.4198 42.9254 89.8686 62.8604 95.9796 60.9088M 106.6144 52.4803C 104.306 51.7957 101.3381 50.3553 94.7839 41.5681L 94.7942 41.5579C 93.0835 39.2794 87.9827 32.2175 86.7976 28.0079C 87.9827 32.2175 93.0839 39.278 94.7842 41.5667M 108.6031 48.6715C 103.131 48.6307 90.6721 29.327 90.6721 26.4763M 102.7393 16.9763C 103.234 24.5578 111.7874 34.3773 116.9606 38.1885C 118.0736 39.0059 119.5163 39.9456 121.1137 40.385M 106.8201 16.4316C 106.9026 23.4103 119.7024 37.4976 123.2062 36.4963C 123.232 36.489 123.2584 36.4814 123.2855 36.4737"></path></g></g></g><g id="g-root-cp_0o_g-0o_1uo11xvxxigp4-stroke" data-item-order="-463270" transform="translate(169.99598693847656, 170.875)"><g id="cp_0o_g-0o_1uo11xvxxigp4-stroke" fill="none" stroke-linecap="round" stroke-linejoin="round" stroke-miterlimit="4" stroke="#a3a3a3" stroke-width="2" stroke-opacity="1"><g><path d="M 28.570881 44.016788C 29.709081 44.016788 30.631881 43.101788 30.631881 41.973188C 30.631881 40.844588 29.709081 39.929688 28.570881 39.929688C 27.432581 39.929688 26.509781 40.844588 26.509781 41.973188C 26.509781 43.101788 27.432581 44.016788 28.570881 44.016788ZM 29.281115 11.1447C 21.737615 9.5098 15.595715 15.8448 15.595715 35.289M 18.068715 10C 10.587115 11.0013 6.990515 18.685 13.091315 36.0755"></path></g></g></g><g id="g-root-cp_0k_g-0k_1q87jtfxxihhd-stroke" data-item-order="-463264" transform="translate(266.04296875, 232.875)"><g id="cp_0k_g-0k_1q87jtfxxihhd-stroke" fill="none" stroke-linecap="round" stroke-linejoin="round" stroke-miterlimit="4" stroke="#92bd39" stroke-width="2" stroke-opacity="1"><g><path d="M 20.346931 153.9106C 33.506931 153.5706 45.896931 150.6506 55.196931 143.7606C 64.326931 136.9906 68.486931 126.9906 68.486931 112.3606C 68.486931 108.9206 67.666531 102.8978 67.666531 102.8978C 70.416531 96.1178 69.246831 91.6 69.556831 84.77C 69.736831 80.9 69.876831 76.89 69.946831 72.95C 70.026831 68.52 70.026831 64.19 69.916831 60.25C 69.806831 56.1 69.566631 52.3632 69.186631 49.4232C 68.716631 45.8632 68.016931 43.4462 67.056931 42.7862C 67.106931 39.4762 66.637031 36.7988 65.757031 34.4088C 64.907031 32.0788 63.687031 30.0187 62.227031 27.8987C 61.177031 26.3687 60.007431 25.2972 58.817431 24.4672C 54.377431 20.3772 50.497331 18.7472 47.077331 17.6172C 44.607331 14.9272 38.197131 10 32.697131 10C 27.217131 10 20.607431 18.6672 17.287431 23.8272C 15.207431 27.0672 13.577331 30.5572 12.527331 33.4472C 9.177331 43.2072 11.716831 50.6731 11.716831 50.6731C 9.776831 57.9531 8.556831 85.8231 13.296831 121.5831C 13.786831 125.2631 14.247031 128.5125 14.677031 131.4125C 15.197031 134.8525 15.677031 137.7825 16.127031 140.2625C 17.347031 147.0125 18.297031 150.4825 18.987031 152.2425C 19.897031 154.5725 20.346931 153.9106 20.346931 153.9106ZM 20.346931 153.9106C 33.506931 153.5706 45.896931 150.6506 55.196931 143.7606C 64.326931 136.9906 68.486931 126.9906 68.486931 112.3606C 68.486931 108.9206 67.656931 102.8906 67.656931 102.8906C 59.066931 126.9506 28.916931 135.9106 20.336931 153.9106L 20.346931 153.9106ZM 20.346331 153.9131C 28.926331 135.9131 59.066331 126.9531 67.666331 102.8931C 67.666331 102.8931 68.396331 100.6031 62.806331 91.3331C 61.666331 89.4431 58.076331 83.0731 58.076331 83.0731C 56.686331 72.8131 51.076331 67.4531 51.076331 67.4531C 51.076331 67.4531 52.956331 79.6431 45.876331 90.0331C 26.536331 118.3831 16.236331 138.2731 18.986331 152.2531C 19.896331 154.5831 20.356331 153.9131 20.356331 153.9131L 20.346331 153.9131ZM 45.877031 90.0225C 52.957031 79.6425 51.076331 67.4531 51.076331 67.4531C 50.746331 62.9031 47.507031 60.0125 47.507031 60.0125C 45.277031 53.7125 45.407031 52.0925 33.297031 46.7725C 32.367031 46.3625 31.457031 45.9625 30.557031 45.5625C 18.897031 65.0425 13.797031 108.6525 14.677031 131.4125C 15.197031 134.8525 15.677031 137.7825 16.127031 140.2625C 17.347031 147.0125 18.297031 150.4825 18.987031 152.2425C 16.237031 138.2625 26.537031 118.3725 45.877031 90.0225ZM 14.677031 131.4125C 13.797031 108.6525 18.896831 65.0431 30.556831 45.5531C 22.046831 41.7331 15.396831 38.1831 12.526831 33.4531C 9.176831 43.2131 11.716831 50.6731 11.716831 50.6731C 9.776831 57.9531 8.556831 85.8231 13.296831 121.5831C 13.786831 125.2631 14.247031 128.5125 14.677031 131.4125ZM 41.466931 50.9063C 45.656931 48.3263 66.026931 42.0862 67.056931 42.7862C 67.106931 39.4762 66.626931 36.7963 65.746931 34.4063C 63.806931 36.4662 60.556931 38.6762 55.476931 40.5262C 49.056931 42.8662 40.036931 45.1862 30.546931 45.5462C 31.436931 45.9462 32.356931 46.3562 33.286931 46.7562C 37.046931 48.4062 39.626931 49.6962 41.466931 50.8862L 41.466931 50.9063ZM 14.217031 35.6588C 17.607031 39.3388 23.427031 42.3488 30.557031 45.5488C 40.057031 45.1788 49.067031 42.8687 55.487031 40.5287C 60.557031 38.6787 63.817031 36.4688 65.757031 34.4088C 64.907031 32.0788 63.687031 30.0187 62.227031 27.8987C 61.177031 26.3687 59.997031 25.2987 58.807031 24.4688C 53.597031 27.5988 45.027031 32.0687 35.577031 34.2487C 26.227031 36.3987 19.527031 36.2788 14.207031 35.6588M 47.077331 17.6172C 43.607331 19.4772 38.817331 21.5472 32.917331 22.8872C 25.787331 24.5072 21.047431 24.5372 17.287431 23.8272C 15.207431 27.0672 13.577331 30.5572 12.527331 33.4472C 12.997331 34.2172 13.557331 34.9472 14.217331 35.6572C 19.537331 36.2772 26.237331 36.3972 35.587331 34.2472C 45.037331 32.0672 53.607431 27.5972 58.817431 24.4672C 54.377431 20.3772 50.507331 18.7472 47.087331 17.6172L 47.077331 17.6172ZM 32.697131 10C 27.217131 10 20.607131 18.67 17.287131 23.83C 21.047131 24.53 25.787131 24.51 32.917131 22.89C 38.817131 21.55 43.607131 19.48 47.077131 17.62C 44.607131 14.93 38.197131 10 32.697131 10ZM 69.546531 84.7578C 68.616531 85.6878 66.106531 87.1878 61.396531 88.9178C 61.966531 89.9178 62.486531 90.7978 62.806531 91.3378C 68.396531 100.6078 67.666531 102.8978 67.666531 102.8978C 70.416531 96.1178 69.236531 91.5878 69.546531 84.7578ZM 58.076831 83.07C 56.686831 72.81 51.076831 67.45 51.076831 67.45C 51.056831 67.22 51.036831 66.99 51.006831 66.77C 57.326831 65.82 66.126831 62.63 69.916831 60.25C 70.026831 64.19 70.026831 68.52 69.946831 72.95C 69.876831 76.89 69.736831 80.9 69.556831 84.77C 68.636831 85.69 66.116831 87.2 61.406831 88.93C 59.936831 86.38 58.086831 83.08 58.086831 83.08L 58.076831 83.07ZM 46.286631 56.5932C 46.676631 57.5732 47.046631 58.6932 47.506631 60.0032C 47.506631 60.0032 50.426631 62.6032 51.006631 66.7532C 57.326631 65.8032 66.126631 62.6132 69.916631 60.2332C 69.806631 56.0832 69.566631 52.3632 69.186631 49.4232C 68.716631 45.8632 68.026631 43.4332 67.066631 42.7732C 66.036631 42.0732 45.666631 48.3032 41.476631 50.8932C 44.316631 52.7332 45.386631 54.3232 46.286631 56.5832"></path></g></g></g><g id="g-root-cp_0j_g-0j_1q87jtfxxihhe-stroke" data-item-order="-463258" transform="translate(444.510009765625, 232.56201171875)"><g id="cp_0j_g-0j_1q87jtfxxihhe-stroke" fill="none" stroke-linecap="round" stroke-linejoin="round" stroke-miterlimit="4" stroke="#92bd39" stroke-width="2" stroke-opacity="1"><g><path d="M 60.4854 88.7024C 62.1499 93.4717 63.5852 98.4523 64.7813 103.4228C 64.7912 103.453 64.8012 103.4631 64.8012 103.4631C 67.5423 96.6412 66.5256 92.0832 66.8346 85.2109C 67.014 81.317 67.1629 77.3054 67.2327 73.341C 67.3124 68.8836 67.3132 64.5012 67.2036 60.5368C 67.094 56.3612 66.8547 52.6182 66.476 49.66C 66.0075 46.078 65.3198 43.633 64.3629 42.9689C 64.4127 39.6384 63.9241 36.9673 63.047 34.5625C 62.1998 32.2181 61.004 30.1468 59.5488 28.0137C 58.5022 26.4742 57.3261 25.3976 56.14 24.5625C 51.7145 20.4472 47.8461 18.801 44.4372 17.6641C 41.9753 14.9574 35.5869 10 30.1048 10C 24.6427 10 18.0536 18.7206 14.7445 23.9125C 12.6713 27.1725 11.0466 30.6841 10 33.5919C 10.4685 34.3667 11.0377 35.1073 11.6955 35.8217C 15.0745 39.5244 20.8755 42.553 27.9822 45.7728C 28.8693 46.1753 29.766 46.5864 30.693 46.9888C 34.4407 48.649 37.0225 49.9417 38.8564 51.1391C 41.6872 52.9904 42.7537 54.5903 43.6507 56.8643C 44.0395 57.8503 44.4083 58.9873 44.8668 60.3054C 44.8668 60.3054 47.7764 62.9472 48.3545 67.1228C 48.3844 67.3442 48.4043 67.5756 48.4243 67.807C 48.4243 67.807 52.6205 69.8194 57.355 80.6861C 58.4813 83.272 59.5185 85.9354 60.4854 88.7024ZM 60.4854 88.7024C 64.0437 87.2635 66.0372 86.0159 66.8346 85.2109M 67.2036 60.5368C 63.426 62.9315 54.6539 66.1669 48.3545 67.1228M 64.3629 42.9689C 63.3363 42.2645 43.0328 48.5331 38.8564 51.1391M 63.047 34.5625C 61.1133 36.6352 57.8739 38.8589 52.8105 40.7203C 46.4115 43.0748 37.4412 45.4106 27.9822 45.7728M 11.6955 35.8217C 16.9982 36.4455 23.6652 36.5602 32.9847 34.3969C 42.4039 32.2034 50.947 27.7119 56.14 24.5625M 44.4372 17.6641C 40.9786 19.5356 36.2042 21.6184 30.3235 22.9666C 23.2167 24.5967 18.4922 24.6268 14.7445 23.9125"></path></g></g></g><g id="g-root-cp_0i_g-0i_1hd70nnxxif4b-stroke" data-item-order="-463252" transform="translate(460.238037109375, 290.3671875)"><g id="cp_0i_g-0i_1hd70nnxxif4b-stroke" fill="none" stroke-linecap="round" stroke-linejoin="round" stroke-miterlimit="4" stroke="#1eabda" stroke-width="2" stroke-opacity="1"><g><path d="M 53.7272 83.0969C 53.9564 75.8624 53.0394 65.4988 50.9563 54.4609C 53.4481 73.1659 48.0059 83.8515 44.8363 85.5822C 41.9458 87.1518 28.4599 79.6356 20.5957 70.6806C 25.4897 77.6736 24.9315 83.7811 37.1913 91.6193C 51.026 100.4535 53.3285 95.8855 53.7272 83.0969ZM 32.6963 10C 49.4614 46.9873 32.4172 71.8299 36.5238 83.1897C 40.3911 85.2624 43.5906 86.2686 44.8365 85.5945C 48.0161 83.8638 53.4483 73.1782 50.9565 54.4733C 48.953 43.848 45.8532 32.5888 41.627 22.8892C 36.8925 12.0124 32.6963 10.0101 32.6963 10.0101L 32.6963 10ZM 36.5238 83.1897C 32.4172 71.8299 49.4614 46.9873 32.6963 10C 39.6336 37.4889 20.7157 62.3819 18.4033 67.946C 19.2505 68.8818 19.9682 69.7874 20.5962 70.6929C 25.0815 75.8043 31.3906 80.4428 36.5238 83.1897ZM 32.6963 10C 32.6963 10 34.5695 22.2654 27.5127 32.7095C 20.3661 43.2845 14.4654 52.6923 10 61.0537C 13.2494 64.1729 17.2272 66.638 18.4033 67.946C 20.7058 62.3819 39.6336 37.4889 32.6963 10Z"></path></g></g></g><g id="g-root-cp_0h_g-0h_1cxdij7xxifwk-stroke" data-item-order="-463246" transform="translate(442, 256.15576171875)"><g id="cp_0h_g-0h_1cxdij7xxifwk-stroke" fill="none" stroke-linecap="round" stroke-linejoin="round" stroke-miterlimit="4" stroke="#92bd39" stroke-width="2" stroke-opacity="1"><g><path d="M 10.6564 71.5281C 11.7229 75.1 13.198 78.4707 15.6301 82.0326C 17.6435 60.3796 22.5375 35.5973 30.4914 22.1748C 22.0092 18.3312 15.3809 14.7592 12.5203 10C 9.1812 19.8203 11.7129 27.3265 11.7129 27.3265C 10.2975 32.6693 9.2709 49.0701 10.6564 71.5281ZM 28.2386 95.2665C 32.704 86.9052 38.6046 77.4974 45.7512 66.9224C 52.8081 56.4782 50.9343 44.2128 50.9343 44.2128C 50.6053 39.6347 47.3759 36.7268 47.3759 36.7268C 45.1532 30.3879 45.2828 28.7579 33.2123 23.405C 32.2853 22.9925 31.3783 22.59 30.4812 22.1875C 22.5273 35.5999 17.6433 60.3822 15.6299 82.0352C 18.351 86.0197 22.2781 90.2356 28.2386 95.2665Z"></path></g></g></g><g id="g-root-cp_0g_g-0g_141qiabxxigp9-stroke" data-item-order="-463240" transform="translate(579.9530029296875, 237.1171875)"><g id="cp_0g_g-0g_141qiabxxigp9-stroke" fill="none" stroke-linecap="round" stroke-linejoin="round" stroke-miterlimit="4" stroke="#92bd39" stroke-width="2" stroke-opacity="1"><g><path d="M 45.9113 97.6699C 44.1952 93.946 42.7932 90.0775 41.6753 86.1484C 40.224 81.0367 39.2925 75.8858 38.7826 71.0282C 36.8998 86.3048 33.8698 91.6706 33.8698 91.6706C 33.8698 91.6706 33.9679 78.7105 31.4086 67.2555C 29.2219 57.4817 27.0641 49.6582 29.3685 44.7517C 30.7903 41.7414 35.8011 40.1385 38.4683 43.8232C 39.3999 45.1134 40.0377 47.047 40.1455 49.8033C 40.4005 49.1191 41.6262 46.3433 46.1173 42.2188C 48.0393 40.4595 50.5492 38.4476 53.8439 36.2583C 56.619 34.411 59.5412 32.6322 62.5418 30.9315C 61.9142 29.7782 61.218 28.6346 60.4335 27.5009C 59.4039 26.0055 58.2575 24.9595 57.0906 24.1482C 52.7368 20.1507 48.9315 18.5521 45.5779 17.4477C 43.1559 14.8185 36.8703 10 31.4771 10C 26.1035 10 19.6224 18.4794 16.3668 23.5227C 14.3272 26.6894 12.7284 30.105 11.6987 32.9297C 8.4138 42.469 10.9045 49.7603 10.9045 49.7603C 9.2277 74.5566 25.4856 104.6778 29.4668 106.7889C 34.556 106.1145 40.7436 101.9411 45.9015 97.6699L 45.9113 97.6699ZM 45.9113 97.6699C 44.1952 93.946 42.8028 90.0463 41.6849 86.1172C 41.6849 86.1563 41.6947 86.1856 41.7045 86.2247C 38.3411 95.4317 34.6639 96.9564 29.4668 106.7889C 34.556 106.1145 40.7436 101.9411 45.9015 97.6699L 45.9113 97.6699ZM 38.7826 71.0282C 36.8998 86.3048 33.8698 91.6706 33.8698 91.6706C 33.8698 91.6706 33.9679 78.7105 31.4086 67.2555C 29.2219 57.4817 27.0646 49.6626 29.369 44.7561C 21.0241 41.0225 14.513 37.5527 11.6987 32.9297C 8.4138 42.469 10.9045 49.7603 10.9045 49.7603C 9.2277 74.5566 25.476 104.6894 29.4572 106.8006C 34.6543 96.9583 38.3315 95.4433 41.6949 86.2266C 41.6949 86.207 41.6949 86.1777 41.6753 86.1484C 40.224 81.0367 39.2729 75.8761 38.763 71.0184L 38.7826 71.0282ZM 38.4688 43.8217C 39.4003 45.1118 40.0377 47.047 40.1455 49.8033C 40.4005 49.1191 41.6262 46.3433 46.1173 42.2188C 43.7149 42.8345 41.1458 43.3916 38.4688 43.8217ZM 60.4335 27.5009C 59.4039 26.0055 58.2468 24.9597 57.0799 24.1484C 51.971 27.2077 43.5674 31.5766 34.3008 33.7073C 25.1421 35.8087 18.5722 35.6914 13.3555 35.0854C 16.6797 38.6822 22.3769 41.6241 29.3685 44.7517C 30.7903 41.7414 35.8011 40.1385 38.4683 43.8232C 41.1453 43.3932 43.7145 42.8361 46.1169 42.2203C 48.0389 40.461 50.5492 38.4476 53.8439 36.2583C 56.619 34.411 59.5412 32.6322 62.5418 30.9315C 61.9142 29.7782 61.2082 28.6444 60.4237 27.5106L 60.4335 27.5009ZM 45.5785 17.4531C 42.1759 19.2711 37.4789 21.2943 31.6934 22.604C 24.7018 24.1873 20.0538 24.2166 16.3668 23.5227C 14.3272 26.6894 12.7288 30.1005 11.6992 32.9252C 12.1601 33.6777 12.7083 34.3915 13.3555 35.0854C 18.5722 35.6914 25.1431 35.8085 34.3116 33.7071C 43.5781 31.5764 51.9818 27.2074 57.0906 24.1482C 52.7368 20.1507 48.9419 18.5576 45.5883 17.4531L 45.5785 17.4531ZM 31.4771 10C 26.1035 10 19.6218 18.4739 16.3662 23.5173C 20.0532 24.2014 24.7012 24.1819 31.6928 22.5985C 37.4783 21.2888 42.1753 19.2656 45.5779 17.4477C 43.1559 14.8185 36.8703 10 31.4771 10Z"></path></g></g></g><g id="g-root-cp_0f_g-0f_zlx05vxxihhi-stroke" data-item-order="-463234" transform="translate(586.427978515625, 245.23388671875)"><g id="cp_0f_g-0f_zlx05vxxihhi-stroke" fill="none" stroke-linecap="round" stroke-linejoin="round" stroke-miterlimit="4" stroke="#a3a3a3" stroke-width="2" stroke-opacity="1"><g><path d="M 32.318816 62.919213C 31.426416 54.328013 31.936416 46.675113 33.623016 41.856513C 33.623016 41.856513 33.642616 41.895613 33.691616 41.964113C 33.436616 31.027113 24.827116 32.542113 22.905116 36.637313C 20.600716 41.543813 22.758116 49.362913 24.944816 59.136713C 27.504116 70.591713 27.406016 83.551913 27.406016 83.551913C 27.406016 83.551913 30.445916 78.195813 32.318816 62.919213ZM 24.7277 58.5625C 24.7277 58.5625 19.4423 59.1392 17.5498 59.3835C 16.0103 60.6737 14.461 61.9736 12.3135 63.0585M 24.051 55.2698C 24.051 55.2698 19.2264 53.0902 17.3535 52.6797C 15.461 53.3639 13.6959 54.3803 11.166 54.3412M 22.9038 50.7134C 22.9038 50.7134 19.3443 46.6866 17.5008 45.9927C 15.4906 45.9927 13.4804 46.3445 11.1172 45.4453M 10 12.9294C 16.8053 10.1536 23.6106 15.0992 26.8465 33.4154M 20.3154 10.0087C 27.4933 9.7252 32.1413 16.3715 29.327 33.7592"></path></g></g></g><g id="g-root-cp_0d_g-0d_zlx05vxxihhj-stroke" data-item-order="-463228" transform="translate(608.3049926757812, 234.875)"><g id="cp_0d_g-0d_zlx05vxxihhj-stroke" fill="none" stroke-linecap="round" stroke-linejoin="round" stroke-miterlimit="4" stroke="#1eabda" stroke-width="2" stroke-opacity="1"><g><path d="M 55.8825 74.1686C 51.6856 72.7221 46.665 70.8064 40.5657 68.7344C 55.6374 80.5119 59.1675 85.2327 52.3622 93.7457C 44.7626 103.2557 35.0842 119.2555 24.3174 111.2116C 37.8495 128.3354 52.9408 110.0192 67.3358 89.8361C 70.4148 85.5161 62.423 78.6939 55.8727 74.1686L 55.8825 74.1686ZM 24.3169 111.2138C 35.0837 119.2479 44.7719 103.2579 52.3617 93.7479C 59.1572 85.2349 55.6369 80.5141 40.5652 68.7366C 40.5652 68.7366 37.0057 67.5344 35.0739 66.9284C 17.3547 61.3182 11.736 52.2188 11.736 52.2188C 7.6371 63.9669 10.4808 92.5262 23.6599 110.3928C 23.8756 110.686 24.0913 110.9401 24.3169 111.2236L 24.3169 111.2138ZM 85.4667 57.3286C 78.181 55.6964 43.7329 37.82 11.7363 52.2169C 11.7363 52.2169 17.3551 61.3163 35.0743 66.9265C 55.0881 73.26 64.59 78.9973 71.7581 75.9478C 78.9262 72.8984 83.28 60.1728 85.4667 57.3286ZM 100.1167 31.8438C 87.1631 39.311 53.1858 23.7314 11.7363 52.2223C 43.7427 37.8253 78.181 55.7018 85.4667 57.334C 86.4179 56.0927 87.3788 55.0274 88.33 54.0597C 93.586 47.4624 97.8711 38.7246 100.1069 31.8438L 100.1167 31.8438ZM 11.7363 52.2118C 53.1858 23.7308 87.1631 39.311 100.1167 31.8438C 101.8033 26.6538 102.3426 22.509 101.2443 21.1309C 98.4399 17.6025 84.241 13.2239 61.9718 20.2904C 49.4497 25.0307 36.4079 31.2371 25.494 38.4991C 13.266 46.6407 11.7363 52.2118 11.7363 52.2118ZM 96.2824 10.7589C 87.4081 12.0295 74.9742 15.3721 61.9814 20.2884C 84.2408 13.2219 98.4495 17.6103 101.254 21.1289C 103.8035 24.3348 97.567 42.4848 88.3495 54.0571C 95.8117 46.5508 103.3819 45.9252 110.2754 29.2119C 118.0515 10.3581 111.9718 8.5011 96.302 10.7589L 96.2824 10.7589Z"></path></g></g></g><g id="g-root-cp_0c_g-0c_v6pz4jxxif40-stroke" data-item-order="-463222" transform="translate(789.5590209960938, 118.5)"><g id="cp_0c_g-0c_v6pz4jxxif40-stroke" fill="none" stroke-linecap="round" stroke-linejoin="round" stroke-miterlimit="4" stroke="#a3a3a3" stroke-width="2" stroke-opacity="1"><g><path d="M 27.441834 58.046888C 27.479234 56.896988 28.012534 52.171388 33.144334 44.374488C 32.863934 41.382888 30.611134 38.054688 27.442234 38.054688C 24.273434 38.054688 22.030034 41.382888 21.740234 44.374488C 26.872134 52.162088 27.404534 56.887587 27.441834 58.046888ZM 27.441834 58.046888C 27.385834 61.935987 26.058434 67.218087 23.674834 72.967588C 25.376034 83.634588 27.441834 92.628188 27.441834 92.628188C 27.441834 92.628188 29.507734 83.634588 31.209034 72.967588C 28.834734 67.218087 27.497934 61.935987 27.441834 58.046888ZM 44.885 10.283C 36.2758 8.4039 29.2744 15.6866 29.2744 38.0583M 10 10.283C 18.6092 8.4039 25.6106 15.6866 25.6106 38.0583"></path></g></g></g><g id="g-root-cp_0b_g-0b_mb2yvnxxifwp-stroke" data-item-order="-463216" transform="translate(726.9999389648438, 98)"><g id="cp_0b_g-0b_mb2yvnxxifwp-stroke" fill="none" stroke-linecap="round" stroke-linejoin="round" stroke-miterlimit="4" stroke="#1eabda" stroke-width="2" stroke-opacity="1"><g><path d="M 136.262061 83.9078C 132.074261 83.9826 126.998461 83.8891 120.913161 84.0106C 138.094161 89.6293 142.749261 92.6863 139.477661 102.4558C 135.822661 113.3753 132.410761 130.736 120.258861 127.0619C 137.813761 137.9346 145.263761 116.7595 151.498661 94.1447C 152.835361 89.3021 143.534461 85.8149 136.262061 83.8984L 136.262061 83.9078ZM 120.267761 127.0721C 132.419761 130.7462 135.831561 113.3854 139.486561 102.466C 142.758261 92.6965 138.103061 89.6301 120.922161 84.0208C 120.922161 84.0208 117.379361 84.1049 115.463161 84.1797C 97.936261 84.9089 90.000061 78.6172 90.000061 78.6172C 90.168361 90.3967 101.946361 114.9 119.417161 126.5392C 119.706961 126.7356 119.977961 126.8945 120.267761 127.0628L 120.267761 127.0721ZM 157.050361 59.3672C 150.058261 60.2647 113.714661 55.4781 89.990261 78.6164C 89.990261 78.6164 97.926461 84.9082 115.453261 84.1789C 135.260961 83.3563 145.543361 85.3943 150.908961 80.3646C 156.283861 75.335 156.022061 62.6019 157.040961 59.3672L 157.050361 59.3672ZM 161.790061 31.9453C 152.722861 42.7712 117.538261 39.8825 90.000061 78.6146C 113.724361 55.4669 150.068161 60.2535 157.060161 59.3654C 157.508861 57.9537 158.004261 56.6916 158.546461 55.523C 161.070261 47.9598 162.042461 38.798 161.799361 31.9453L 161.790061 31.9453ZM 90.000061 78.6146C 117.538261 39.8825 152.722861 42.7712 161.790061 31.9453C 161.612461 26.7848 160.733561 22.9241 159.322061 22.0546C 155.695161 19.8202 141.683061 20.5121 124.221561 33.9837C 114.649561 42.2387 105.086961 51.9802 97.758361 61.9647C 89.551161 73.1553 89.990461 78.615 89.990461 78.615L 90.000061 78.6146ZM 151.563661 14.4277C 144.104161 18.429 134.158261 25.4126 124.221761 33.9854C 141.683161 20.5138 155.695261 19.822 159.322161 22.0563C 162.621861 24.085 162.967761 42.2591 158.536961 55.5251C 162.724661 46.438 169.239961 43.4371 169.931761 26.3381C 170.716961 7.0421 164.734461 7.36 151.563661 14.4277ZM 43.729361 83.9078C 43.912261 83.9111 43.542961 83.9051 43.729361 83.9078C 47.808561 83.966 53.258761 83.8944 59.078161 84.0106C 41.897261 89.6293 37.242061 92.6863 40.513761 102.4558C 44.168661 113.3753 47.580561 130.736 59.732561 127.0619C 42.177661 137.9346 34.727561 116.7595 28.492661 94.1447C 27.155961 89.3021 36.456861 85.8243 43.729361 83.9078ZM 59.732561 127.0721C 47.580561 130.7462 44.168661 113.3854 40.513761 102.466C 37.242061 92.6965 41.897261 89.6301 59.078161 84.0208C 59.078161 84.0208 62.620961 84.1049 64.537161 84.1797C 82.064061 84.9089 90.000061 78.6172 90.000061 78.6172C 89.831761 90.3967 78.053961 114.9 60.583161 126.5392C 60.293361 126.7356 60.022361 126.8936 59.732561 127.0619L 59.732561 127.0721ZM 18.200761 31.9453C 27.267961 42.7712 62.452361 39.8828 89.990461 78.615C 66.266161 55.4673 29.922761 60.2535 22.930661 59.3654C 22.481961 57.9537 21.986561 56.6916 21.444461 55.523C 18.920561 47.9598 17.948461 38.798 18.191461 31.9453L 18.200761 31.9453ZM 90.000061 78.6146C 62.461861 39.8825 27.277261 42.7716 18.210061 31.9457C 18.387661 26.7851 19.266361 22.9241 20.677861 22.0546C 24.304661 19.8202 38.316861 20.5121 55.778261 33.9837C 65.350261 42.2387 74.912861 51.9802 82.241461 61.9647C 90.448661 73.1553 90.009361 78.615 90.009361 78.615L 90.000061 78.6146ZM 28.436361 14.4277C 35.895861 18.429 45.841761 25.4126 55.778261 33.9854C 38.316861 20.5138 24.304761 19.822 20.677861 22.0563C 17.378161 24.085 17.032261 42.2591 21.463061 55.5251C 17.275361 46.438 10.760061 43.4371 10.068261 26.3381C 9.283061 7.0421 15.265561 7.36 28.436361 14.4277ZM 43.729361 83.9078C 36.782561 83.7839 32.098261 83.1931 29.080961 80.3646C 23.706061 75.335 23.967761 62.6019 22.948861 59.3672L 22.939561 59.3672C 29.931561 60.2647 66.275761 55.4789 90.000061 78.6172C 90.000061 78.6172 82.063461 84.9082 64.536561 84.1789"></path></g></g></g><g id="g-root-tx_studysoc_9lq1fxxifb6-stroke" data-item-order="0" transform="translate(566, 498)"></g><g id="g-root-tx_scobyspo_hv9gr7xxigoy-stroke" data-item-order="0" transform="translate(338, 38)"></g><g id="g-root-tx_retailsp_znsff7xxighv-stroke" data-item-order="0" transform="translate(68, 414)"></g><g id="g-root-tx_wellness_1lz99n7xxigoz-stroke" data-item-order="0" transform="translate(752, 414)"></g><g id="g-root-tx_traditio_5uvirxxihak-stroke" data-item-order="0" transform="translate(68, 450)"></g><g id="g-root-tx_teacultu_18kodubxxih3h-stroke" data-item-order="0" transform="translate(242, 438)"></g><g id="g-root-tx_restorat_1qd7cibxxigwf-stroke" data-item-order="0" transform="translate(398, 450)"></g><g id="g-root-tx_flexible_i099g3xxig3t-stroke" data-item-order="0" transform="translate(590, 438)"></g><g id="g-root-tx_kombucha_hydu6rxxih3i-stroke" data-item-order="0" transform="translate(230, 474)"></g><g id="g-root-tx_retailas_m7c4czxxjw24-stroke" data-item-order="0" transform="translate(740, 474)"></g><g id="g-root-tx_attracts_146qaz7xxigw0-stroke" data-item-order="0" transform="translate(398, 510)"></g></g></g></svg>