<?xml version="1.0" encoding="utf-8" standalone="yes"?>
<!DOCTYPE svg PUBLIC "-//W3C//DTD SVG 1.1//EN" "http://www.w3.org/Graphics/SVG/1.1/DTD/svg11.dtd">
<svg style="fill:none;stroke:none;fill-rule:evenodd;clip-rule:evenodd;stroke-linecap:round;stroke-linejoin:round;stroke-miterlimit:1.5;" version="1.1" xmlns="http://www.w3.org/2000/svg" xmlns:xlink="http://www.w3.org/1999/xlink" width="600" height="577" viewBox="0 0 600 577"><style class="text-font-style fontImports" data-font-family="Montserrat">@import url(https://fonts.googleapis.com/css2?family=Montserrat:wght@400;700&amp;amp;display=block);</style><g id="items" style="isolation: isolate"><g id="blend" style="mix-blend-mode: normal"><g id="g-root-sy_-1_cu-1_3zmkjzb3tam-fill" data-item-order="-264954" transform="translate(14, 38)"><g id="sy_-1_cu-1_3zmkjzb3tam-fill-merged" stroke="none" fill="#ebebeb" fill-opacity="1"><g><path d="M286 10L562 130L550 154 H22L10 130L286 10 M562 490 H10L22 466 H550L562 490"></path></g></g></g><g id="g-root-sy_6_cu_1upwnibzb3qpz-fill" data-item-order="-264950" transform="translate(374, 338.000244140625)"><g id="sy_6_cu_1upwnibzb3qpz-fill-merged" stroke="none" fill="#ffd9d8" fill-opacity="1"><g><path d="M10 166 H178 V10 H10 V166"></path></g></g></g><g id="g-root-sy_5_cu_1upwnibzb3qq0-fill" data-item-order="-264946" transform="translate(206, 338.000244140625)"><g id="sy_5_cu_1upwnibzb3qq0-fill-merged" stroke="none" fill="#dce9ff" fill-opacity="1"><g><path d="M10 166 H178 V10 H10 V166"></path></g></g></g><g id="g-root-sy_4_cu_1qa35dvzb3ri9-fill" data-item-order="-264942" transform="translate(38, 338.000244140625)"><g id="sy_4_cu_1qa35dvzb3ri9-fill-merged" stroke="none" fill="#d1f4ff" fill-opacity="1"><g><path d="M10 166 H178 V10 H10 V166"></path></g></g></g><g id="g-root-sy_3_cu_1qa35dvzb3ria-fill" data-item-order="-264938" transform="translate(374, 182.000244140625)"><g id="sy_3_cu_1qa35dvzb3ria-fill-merged" stroke="none" fill="#ffe4cb" fill-opacity="1"><g><path d="M10 166 H178 V10 H10 V166"></path></g></g></g><g id="g-root-sy_2_cu_1heg54zzb3saz-fill" data-item-order="-264934" transform="translate(206, 182.000244140625)"><g id="sy_2_cu_1heg54zzb3saz-fill-merged" stroke="none" fill="#fff8b6" fill-opacity="1"><g><path d="M10 166 H178 V10 H10 V166"></path></g></g></g><g id="g-root-sy_1_cu_1heg54zzb3sb0-fill" data-item-order="-264930" transform="translate(38, 182.000244140625)"><g id="sy_1_cu_1heg54zzb3sb0-fill-merged" stroke="none" fill="#e9ffb9" fill-opacity="1"><g><path d="M10 166 H178 V10 H10 V166"></path></g></g></g><g id="g-root-ic_3_1hhkikjzb3thf-fill" data-item-order="0" transform="translate(266, 62)"></g><g id="g-root-tx_biophili_6hm2rzb3qiu-fill" data-item-order="0" transform="translate(206, 134)"><g id="tx_biophili_6hm2rzb3qiu-fill-merged" stroke="none" fill="#969696" fill-opacity="1"><g><text style="font: 20px Montserrat, sans-serif; white-space: pre;" font-size="20px" font-family="Montserrat, sans-serif"><tspan x="12.16" y="34" dominant-baseline="ideographic">Biophilic Design</tspan></text></g></g></g><g id="g-root-ic_tree_1upa6f7zbatj9-fill" data-item-order="0" transform="translate(98, 194)"></g><g id="g-root-ic_open_1cymn0jzbc6wx-fill" data-item-order="0" transform="translate(266, 194)"></g><g id="g-root-ic_1_3d5hfzbgg0a-fill" data-item-order="0" transform="translate(434, 194)"></g><g id="g-root-tx_organicb_1heg54zzb3sb1-fill" data-item-order="0" transform="translate(62, 254)"><g id="tx_organicb_1heg54zzb3sb1-fill-merged" stroke="none" fill="#92bd39" fill-opacity="1"><g><text style="font: 20px Montserrat, sans-serif; white-space: pre;" font-size="20px" font-family="Montserrat, sans-serif"><tspan x="27.27" y="34" dominant-baseline="ideographic">Organic </tspan><tspan x="14.96" y="58" dominant-baseline="ideographic">Branching </tspan><tspan x="25.03" y="82" dominant-baseline="ideographic">Patterns</tspan></text></g></g></g><g id="g-root-tx_hexagona_91i22rzb3rie-fill" data-item-order="0" transform="translate(230, 254)"><g id="tx_hexagona_91i22rzb3rie-fill-merged" stroke="none" fill="#e0cb15" fill-opacity="1"><g><text style="font: 20px Montserrat, sans-serif; white-space: pre;" font-size="20px" font-family="Montserrat, sans-serif"><tspan x="15.48" y="34" dominant-baseline="ideographic">Hexagonal </tspan><tspan x="26.43" y="58" dominant-baseline="ideographic">Wooden </tspan><tspan x="12.01" y="82" dominant-baseline="ideographic">Framework</tspan></text></g></g></g><g id="g-root-tx_elevated_qu10qrzb3rbc-fill" data-item-order="0" transform="translate(386, 254)"><g id="tx_elevated_qu10qrzb3rbc-fill-merged" stroke="none" fill="#de8431" fill-opacity="1"><g><text style="font: 20px Montserrat, sans-serif; white-space: pre;" font-size="20px" font-family="Montserrat, sans-serif"><tspan x="14.07" y="34" dominant-baseline="ideographic">Elevated Pod </tspan><tspan x="41.63" y="58" dominant-baseline="ideographic">Seating</tspan></text></g></g></g><g id="g-root-ic_morn_detnurzbf092-fill" data-item-order="0" transform="translate(98, 350.000244140625)"></g><g id="g-root-ic_1_14147ibzbhsll-fill" data-item-order="0" transform="translate(266, 350.000244140625)"></g><g id="g-root-ic_toy_qss5qbzb3qir-fill" data-item-order="0" transform="translate(434, 350.000244140625)"></g><g id="g-root-tx_softnatu_18kok5fzb3s3z-fill" data-item-order="0" transform="translate(56, 410.000244140625)"><g id="tx_softnatu_18kok5fzb3s3z-fill-merged" stroke="none" fill="#1eabda" fill-opacity="1"><g><text style="font: 20px Montserrat, sans-serif; white-space: pre;" font-size="20px" font-family="Montserrat, sans-serif"><tspan x="13.88" y="34" dominant-baseline="ideographic">Soft Natural </tspan><tspan x="30.83" y="58" dominant-baseline="ideographic">Lighting</tspan></text></g></g></g><g id="g-root-tx_largegla_93dhc3zb3qip-fill" data-item-order="0" transform="translate(224, 410.000244140625)"><g id="tx_largegla_93dhc3zb3qip-fill-merged" stroke="none" fill="#4e88e7" fill-opacity="1"><g><text style="font: 20px Montserrat, sans-serif; white-space: pre;" font-size="20px" font-family="Montserrat, sans-serif"><tspan x="16.11" y="34" dominant-baseline="ideographic">Large Glass </tspan><tspan x="26.48" y="58" dominant-baseline="ideographic">Windows</tspan></text></g></g></g><g id="g-root-tx_warmwood_1ut10xvzb3rwi-fill" data-item-order="0" transform="translate(410, 410.000244140625)"><g id="tx_warmwood_1ut10xvzb3rwi-fill-merged" stroke="none" fill="#e55753" fill-opacity="1"><g><text style="font: 20px Montserrat, sans-serif; white-space: pre;" font-size="20px" font-family="Montserrat, sans-serif"><tspan x="24.37" y="34" dominant-baseline="ideographic">Warm </tspan><tspan x="12.69" y="58" dominant-baseline="ideographic">Wooden </tspan><tspan x="13.37" y="82" dominant-baseline="ideographic">Textures</tspan></text></g></g></g><g id="g-root-sy_-1_cu-1_3zmkjzb3tam-stroke" data-item-order="-264954" transform="translate(14, 38)"><g id="sy_-1_cu-1_3zmkjzb3tam-stroke" fill="none" stroke-linecap="round" stroke-linejoin="round" stroke-miterlimit="4" stroke="#ffffff" stroke-width="2" stroke-opacity="1"><g><path d="M 286 10L 562 130L 550 154L 22 154L 10 130L 286 10ZM 562 490L 10 490L 22 466L 550 466L 562 490Z"></path></g></g></g><g id="g-root-sy_6_cu_1upwnibzb3qpz-stroke" data-item-order="-264950" transform="translate(374, 338.000244140625)"><g id="sy_6_cu_1upwnibzb3qpz-stroke" fill="none" stroke-linecap="round" stroke-linejoin="round" stroke-miterlimit="4" stroke="#ffffff" stroke-width="2" stroke-opacity="1"><g><path d="M 10 10L 178 10L 178 166L 10 166L 10 10Z"></path></g></g></g><g id="g-root-sy_5_cu_1upwnibzb3qq0-stroke" data-item-order="-264946" transform="translate(206, 338.000244140625)"><g id="sy_5_cu_1upwnibzb3qq0-stroke" fill="none" stroke-linecap="round" stroke-linejoin="round" stroke-miterlimit="4" stroke="#ffffff" stroke-width="2" stroke-opacity="1"><g><path d="M 10 10L 178 10L 178 166L 10 166L 10 10Z"></path></g></g></g><g id="g-root-sy_4_cu_1qa35dvzb3ri9-stroke" data-item-order="-264942" transform="translate(38, 338.000244140625)"><g id="sy_4_cu_1qa35dvzb3ri9-stroke" fill="none" stroke-linecap="round" stroke-linejoin="round" stroke-miterlimit="4" stroke="#ffffff" stroke-width="2" stroke-opacity="1"><g><path d="M 10 10L 178 10L 178 166L 10 166L 10 10Z"></path></g></g></g><g id="g-root-sy_3_cu_1qa35dvzb3ria-stroke" data-item-order="-264938" transform="translate(374, 182.000244140625)"><g id="sy_3_cu_1qa35dvzb3ria-stroke" fill="none" stroke-linecap="round" stroke-linejoin="round" stroke-miterlimit="4" stroke="#ffffff" stroke-width="2" stroke-opacity="1"><g><path d="M 10 10L 178 10L 178 166L 10 166L 10 10Z"></path></g></g></g><g id="g-root-sy_2_cu_1heg54zzb3saz-stroke" data-item-order="-264934" transform="translate(206, 182.000244140625)"><g id="sy_2_cu_1heg54zzb3saz-stroke" fill="none" stroke-linecap="round" stroke-linejoin="round" stroke-miterlimit="4" stroke="#ffffff" stroke-width="2" stroke-opacity="1"><g><path d="M 10 10L 178 10L 178 166L 10 166L 10 10Z"></path></g></g></g><g id="g-root-sy_1_cu_1heg54zzb3sb0-stroke" data-item-order="-264930" transform="translate(38, 182.000244140625)"><g id="sy_1_cu_1heg54zzb3sb0-stroke" fill="none" stroke-linecap="round" stroke-linejoin="round" stroke-miterlimit="4" stroke="#ffffff" stroke-width="2" stroke-opacity="1"><g><path d="M 10 10L 178 10L 178 166L 10 166L 10 10Z"></path></g></g></g><g id="g-root-ic_3_1hhkikjzb3thf-stroke" data-item-order="0" transform="translate(266, 62)"><g id="ic_3_1hhkikjzb3thf-stroke" fill="none" stroke-linecap="round" stroke-linejoin="round" stroke-miterlimit="4" stroke="#969696" stroke-width="2" stroke-opacity="1"><g><path d="M 27.936001 21.826C 27.511587 21.824894 27.166739 22.168249 27.166002 22.592663C 27.165264 23.017078 27.508917 23.361629 27.933332 23.361998C 28.357746 23.362366 28.702 23.018415 28.702002 22.594002C 28.702002 22.170626 28.359375 21.827103 27.936001 21.826M 20.880001 11C 18.67086 11 16.880001 12.790861 16.880001 15C 16.880001 17.209139 18.67086 19 20.880001 19C 23.089138 19 24.880001 17.209139 24.880001 15C 24.880001 12.790861 23.089138 11 20.880001 11M 29.322001 11.476C 38.851151 9.496477 48.594707 13.729071 53.651619 22.044771C 58.708534 30.360472 57.983967 40.9589 51.842381 48.50901C 45.700794 56.05912 35.471859 58.926285 26.300772 55.668312C 17.129684 52.410339 11.002013 43.732586 11 34C 10.995258 29.753475 12.17252 25.589432 14.4 21.974001M 15.954 48.259998C 28.554001 38.278 41.225998 48.285999 52.026001 48.285999M 24.132 30.546C 23.622 34.279999 27.228001 37.066002 27.188 43.868M 39.472 23.124001C 36.753998 29.323999 45.243999 39.124001 41.337997 46.248001M 33.854 27.038C 35.854 32.591999 43.689999 31.238001 44.236 25.15M 19.959999 35.450001C 22.112 40.944 29.91 39.374001 30.282 33.267998M 35.928001 36.627998C 38.167999 42.088001 45.939999 40.391998 46.216 34.279999"></path></g></g></g><g id="g-root-tx_biophili_6hm2rzb3qiu-stroke" data-item-order="0" transform="translate(206, 134)"></g><g id="g-root-ic_tree_1upa6f7zbatj9-stroke" data-item-order="0" transform="translate(98, 194)"><g id="ic_tree_1upa6f7zbatj9-stroke" fill="none" stroke-linecap="round" stroke-linejoin="round" stroke-miterlimit="4" stroke="#92bd39" stroke-width="2" stroke-opacity="1"><g><path d="M 11 11L 11 13.5C 11 17.642136 14.357864 21 18.5 21L 20.5 21M 19 16C 18.994675 18.388577 19.941175 20.680859 21.630157 22.369841C 23.319141 24.058823 25.611423 25.005325 28 25L 29 25M 57 17C 57 21.418278 53.418278 25 49 25L 47 25M 37 31L 25 31M 26.98 17L 30 17C 32.209137 17 34 15.209139 34 13L 34 13.5C 34 15.709139 35.790863 17.5 38 17.5C 40.209137 17.5 42 15.709139 42 13.5L 42 13C 42 15.209139 43.790859 17 46 17L 50 17M 34 21L 34 25M 39 21L 39 25M 40 35C 40 36.656853 38.656853 38 37 38C 35.343147 38 34 36.656853 34 35ZM 17 57L 22 57C 25.865993 57.000004 29.000002 53.865993 29 50L 29 17M 57 57L 54 57C 50.13401 57.000004 47 53.865993 47 50L 47 17"></path></g></g></g><g id="g-root-ic_open_1cymn0jzbc6wx-stroke" data-item-order="0" transform="translate(266, 194)"><g id="ic_open_1cymn0jzbc6wx-stroke" fill="none" stroke-linecap="round" stroke-linejoin="round" stroke-miterlimit="4" stroke="#e0cb15" stroke-width="2" stroke-opacity="1"><g><path d="M 53.919998 22.5L 53.919998 45.5L 34 57L 14.08 45.5L 14.08 22.5L 34 11L 53.919998 22.5ZM 34 34L 34 11M 34 34L 14.08 45.5M 34 18.66L 14.08 30.16M 34 26.34L 14.08 37.84M 20.720001 41.66L 40.639999 53.16M 27.360001 37.84L 47.279999 49.34M 47.279999 41.66L 47.279999 18.66M 40.639999 37.84L 40.639999 14.84M 34 34L 53.919998 45.5"></path></g></g></g><g id="g-root-ic_1_3d5hfzbgg0a-stroke" data-item-order="0" transform="translate(434, 194)"><g id="ic_1_3d5hfzbgg0a-stroke" fill="none" stroke-linecap="round" stroke-linejoin="round" stroke-miterlimit="4" stroke="#de8431" stroke-width="2" stroke-opacity="1"><g><path d="M 38 11.5L 38 35.5M 47 11.5L 47 35.5M 16.834 40.290001L 16.834 56.5M 24.316 50.116001L 24.316 56.5M 34.068001 45.790001L 34.068001 56.5M 32 15.6C 20.398956 16.6353 11.50566 26.352854 11.5 38L 11.5 56.5L 56.5 56.5L 56.5 38C 56.506306 33.729874 55.291943 29.546917 53 25.944M 38 15L 47 15M 38 23.5L 47 23.5M 38 32L 47 32M 16.834 47.200001L 24.316 47.200001L 24.316 51.116001L 16.834 51.116001ZM 29.119999 42.585999L 38.882 42.585999C 38.882 42.585999 40.484001 42.585999 40.484001 44.188L 40.484001 44.188C 40.484001 44.188 40.484001 45.789997 38.882 45.789997L 29.119999 45.789997C 29.119999 45.789997 27.518 45.789997 27.518 44.188L 27.518 44.188C 27.518 44.188 27.518 42.585999 29.119999 42.585999M 51.166 40.290001L 51.166 56.5M 43.683998 50.116001L 43.683998 56.5M 51.166 51.116001L 43.684002 51.116001L 43.684002 47.200001L 51.166 47.200001Z"></path></g></g></g><g id="g-root-tx_organicb_1heg54zzb3sb1-stroke" data-item-order="0" transform="translate(62, 254)"></g><g id="g-root-tx_hexagona_91i22rzb3rie-stroke" data-item-order="0" transform="translate(230, 254)"></g><g id="g-root-tx_elevated_qu10qrzb3rbc-stroke" data-item-order="0" transform="translate(386, 254)"></g><g id="g-root-ic_morn_detnurzbf092-stroke" data-item-order="0" transform="translate(98, 350.000244140625)"><g id="ic_morn_detnurzbf092-stroke" fill="none" stroke-linecap="round" stroke-linejoin="round" stroke-miterlimit="4" stroke="#1eabda" stroke-width="2" stroke-opacity="1"><g><path d="M 11 50.5L 57 50.5M 52.860001 42.82C 53.729607 45.283054 54.116657 47.890549 54 50.5M 14 50.5C 13.725884 45.024628 15.711377 39.676773 19.492226 35.706879C 23.273073 31.73699 28.517775 29.493143 34 29.5M 34 43.5L 34 39.5M 34 33.5L 34 29.5M 34 21.5L 34 17.5M 45 32.5C 45 34.156853 46.343147 35.5 48 35.5C 49.656857 35.5 51 34.156853 51 32.5C 51 30.843147 49.656857 29.5 48 29.5C 46.343147 29.5 45 30.843147 45 32.5M 48 26.5L 48 24.5M 54 32.5L 56 32.5M 48 38.5L 48 40.5M 42 32.5L 40 32.5M 43.759998 28.26L 42.34 26.84M 52.240002 28.26L 53.66 26.84M 52.240002 36.739998L 53.66 38.16M 43.759998 36.739998L 42.34 38.16"></path></g></g></g><g id="g-root-ic_1_14147ibzbhsll-stroke" data-item-order="0" transform="translate(266, 350.000244140625)"><g id="ic_1_14147ibzbhsll-stroke" fill="none" stroke-linecap="round" stroke-linejoin="round" stroke-miterlimit="4" stroke="#4e88e7" stroke-width="2" stroke-opacity="1"><g><path d="M 16 31L 52 31M 16 43L 52 43M 28 31L 28 57M 40 31L 40 57M 34 11L 34 31L 21.341999 16.202M 34 31L 46.658001 16.202M 52 55C 52 56.104568 51.104568 57 50 57L 18 57C 16.895432 57 16 56.104568 16 55L 16 29C 16 19.058876 24.058876 11 34 11C 43.941124 11 52 19.058876 52 29Z"></path></g></g></g><g id="g-root-ic_toy_qss5qbzb3qir-stroke" data-item-order="0" transform="translate(434, 350.000244140625)"><g id="ic_toy_qss5qbzb3qir-stroke" fill="none" stroke-linecap="round" stroke-linejoin="round" stroke-miterlimit="4" stroke="#e55753" stroke-width="2" stroke-opacity="1"><g><path d="M 13 51L 13 15C 13 12.790861 14.790861 11 17 11L 51 11C 53.209141 11 55 12.790861 55 15L 55 51M 12 51L 56 51C 56.552284 51 57 51.447716 57 52L 57 53C 57 55.209141 55.209141 57 53 57L 15 57C 12.790861 57 11 55.209141 11 53L 11 52C 11 51.447716 11.447716 51 12 51ZM 31 29L 41 39L 26 51M 31 29L 13 29L 13 26.337999C 12.920025 21.983974 15.897331 18.167685 20.139999 17.186001C 22.79565 16.628851 25.560972 17.298216 27.667856 19.008167C 29.77474 20.718119 30.998787 23.286535 31 26ZM 37 11L 37 30M 43 11L 43 35M 49 11L 49 35M 19 33L 19 51M 25 33L 25 51M 31 34L 31 42M 31 11L 31 15.992001M 37 47.02L 37 51M 43 43L 43 51M 49 43L 49 51M 41 39L 55 39M 25 24C 25 22.343147 23.656855 21 22 21C 20.343147 21 19 22.343147 19 24L 19 29L 25 29Z"></path></g></g></g><g id="g-root-tx_softnatu_18kok5fzb3s3z-stroke" data-item-order="0" transform="translate(56, 410.000244140625)"></g><g id="g-root-tx_largegla_93dhc3zb3qip-stroke" data-item-order="0" transform="translate(224, 410.000244140625)"></g><g id="g-root-tx_warmwood_1ut10xvzb3rwi-stroke" data-item-order="0" transform="translate(410, 410.000244140625)"></g></g></g></svg>