<?xml version="1.0" encoding="utf-8" standalone="yes"?>
<!DOCTYPE svg PUBLIC "-//W3C//DTD SVG 1.1//EN" "http://www.w3.org/Graphics/SVG/1.1/DTD/svg11.dtd">
<svg style="fill:none;stroke:none;fill-rule:evenodd;clip-rule:evenodd;stroke-linecap:round;stroke-linejoin:round;stroke-miterlimit:1.5;" version="1.1" xmlns="http://www.w3.org/2000/svg" xmlns:xlink="http://www.w3.org/1999/xlink" width="744" height="660" viewBox="0 0 744 660"><style class="text-font-style fontImports" data-font-family="Montserrat">@import url(https://fonts.googleapis.com/css2?family=Montserrat:wght@400;700&amp;amp;display=block);</style><g id="items" style="isolation: isolate"><g id="blend" style="mix-blend-mode: normal"><g id="g-root-cp_4_g-4_959lw3vzla8a-fill" data-item-order="-392536" transform="translate(576, 198.9609375)"><g id="cp_4_g-4_959lw3vzla8a-fill-merged" stroke="none" fill="#ffd7ef" fill-opacity="1"><g><path d="M13.5 134.538C15 133.038 19.4 130.038 25 130.038C32 130.038 37 128.538 41.5 127.038C43.279 126.446 45.838 126.165 48.5 126.074C52.572 125.934 56.883 126.236 59 126.538C60.815 126.798 63.167 127.595 65.5 128.302C67.666 128.959 69.815 129.538 71.5 129.538C75 129.538 83 131.038 83.5 134.538 H13.5 M52.5 39.039C54.333 40.372 58.3 42.939 59.5 42.539C60.7 42.139 58.667 37.039 57.5 34.539C60.833 35.039 67.8 35.739 69 34.539C70.5 33.039 63 28.539 59.5 27.539C61.333 25.872 64.8 21.939 64 19.539C63.2 18.339 57.667 20.372 55 21.539C55.5 18.039 56.1 10.838 54.5 10.038C53 9.538 49 14.038 48 20.038C46.5 18.205 43 14.639 41 15.039C39 15.439 40.833 20.539 42 23.039C38.833 22.706 32.3 22.539 31.5 24.539C30.5 27.039 39 29.539 41 30.039C39.333 31.872 36.1 36.139 36.5 38.539C37.3 39.739 43.167 36.706 46 35.039C45.5 38.539 44.9 46.039 46.5 48.039C48.1 50.039 51.167 42.872 52.5 39.039 M54.388 73.539C56.092 69.206 61.3 60.439 68.5 60.039C77.5 59.539 80.5 62.539 81.5 65.539C82.5 68.539 80 77.039 72.5 77.539C66.5 77.939 57.925 75.039 54.388 73.539 M54.921 61.039C52.78 57.039 46.8 49.039 40 49.039C33.2 49.039 29.5 54.706 28.5 57.539C28 60.85 29.1 67.687 37.5 68.539C45.9 69.392 52.62 64.894 54.93 62.539C54.93 62.035 54.927 61.535 54.921 61.039 M51.337 90.876C49.891 85.597 45.3 75.039 38.5 75.039C30 75.039 27 76.04 25 82.539C23 89.039 31.5 93.539 34 93.539C36.5 93.539 41.674 95.213 51.337 90.876 M49.843 102.539C52.062 98.039 58 89.039 64 89.039C71.5 89.039 75.518 92.539 77 97.539C78.482 102.539 72.27 108.039 66.635 108.039C62.127 108.039 53.562 104.372 49.843 102.539"></path></g></g><g id="cp_4_g-4_959lw3vzla8a-fill-merged" stroke="none" fill="#ffd7ef" fill-opacity="1"><g><path d="M18 197.039C17.833 199.872 18.2 206.239 21 209.039 H75C78 206.539 78 200.639 78 197.039 H75L79 169.289L79.613 165.039L83 141.539 H85L86 134.539 H10L11 141.539 H13L16.387 165.039L17 169.289L21 197.039 H18"></path></g></g></g><g id="g-root-cp_3_g-3_4pg3rnvzlb0j-fill" data-item-order="-392526" transform="translate(408, 246.65576171875)"><g id="cp_3_g-3_4pg3rnvzlb0j-fill-merged" stroke="none" fill="#ffd9d8" fill-opacity="1"><g><path d="M13.5 86.841C15 85.341 20.6 82.241 31 81.841C44 81.341 41.5 77.841 45.5 77.841C46.684 77.841 48.043 77.841 49.5 77.893C52.964 78.016 56.98 78.433 60.5 79.841C65.5 81.841 70.5 81.341 75.5 81.841C79.5 82.241 82.833 85.341 84 86.841 H13.5 M48.5 36.841C51.167 35.508 57.3 31.641 60.5 26.841C64.5 20.841 62.5 11.841 56 10.341C49.5 8.841 44.212 12.491 43 17.342C41.5 23.343 41 32.341 48.5 36.841 M62.5 50.341C61.667 48.008 61.2 42.041 66 36.841C70.8 31.641 77 32.008 79.5 32.841C82 34.508 86.3 39.141 83.5 44.341C80 50.841 75.5 51.841 71.5 51.841C68.3 51.841 64.167 50.841 62.5 50.341 M37 52.476C34.167 51.931 27.3 50.841 22.5 50.841C16.5 50.841 12.5 45.341 12 40.841C11.5 36.341 12 31.341 19.5 28.841C27 26.341 33.5 33.841 36 39.341C37.849 43.41 37.561 49.008 37.112 51.841C37.075 52.072 37.038 52.284 37 52.476"></path></g></g><g id="cp_3_g-3_4pg3rnvzlb0j-fill-merged" stroke="none" fill="#ffd9d8" fill-opacity="1"><g><path d="M18 149.344C17.833 152.177 18.2 158.544 21 161.344 H75C78 158.844 78 152.944 78 149.344 H75L79 121.594L79.613 117.344L83 93.844 H85L86 86.844 H10L11 93.844 H13L16.387 117.344L17 121.594L21 149.344 H18"></path></g></g></g><g id="g-root-cp_2_g-2_1uux5hvvzlbm4-fill" data-item-order="-392516" transform="translate(240, 278.35888671875)"><g id="cp_2_g-2_1uux5hvvzlbm4-fill-merged" stroke="none" fill="#ffe4cb" fill-opacity="1"><g><path d="M13.5 55.14C14.667 53.64 19.4 50.64 29 50.64C41 50.64 39.5 47.64 42.5 47.14C44.415 46.82 48.573 46.297 52.5 46.221C54.723 46.178 56.873 46.278 58.5 46.64C63 47.64 67 50.64 72 50.64C76 50.64 81 53.306 83 54.64L13.5 55.14 M54 35.64C55.5 32.14 64.5 30.14 66 23.14C67.5 16.14 65 11.14 60 10.14C55 9.14 48.962 13.637 48.5 19.64C48 26.141 49.5 31.639 54 35.64"></path></g></g><g id="cp_2_g-2_1uux5hvvzlbm4-fill-merged" stroke="none" fill="#ffe4cb" fill-opacity="1"><g><path d="M18 117.641C17.833 120.474 18.2 126.841 21 129.641 H75C78 127.141 78 121.241 78 117.641 H75L79 89.891L79.613 85.641L83 62.141 H85L86 55.141 H10L11 62.141 H13L16.387 85.641L17 89.891L21 117.641 H18"></path></g></g></g><g id="g-root-cp_1_g-1_1uux5hvvzlbm5-fill" data-item-order="-392506" transform="translate(27, 214.5)"><g id="cp_1_g-1_1uux5hvvzlbm5-fill-merged" stroke="none" fill="#fff8b6" fill-opacity="1"><g><path d="M57.5 119C59 117.166 64.3 113.6 73.5 114C82.7 114.4 89.333 117.5 91.5 119C90.833 115 90.5 106.6 94.5 105C95.386 104.646 96.223 104.546 97 104.628C99.731 104.916 101.721 107.443 102.5 109C103.5 111 105.7 115.8 106.5 119C107.667 117 112 113.2 120 114C128 114.8 130.333 117.666 130.5 119 H57.5 M89.5 101C91.667 101 96.1 99.6 96.5 94C97 87 98.5 86 98.5 83.5C98.5 81.871 97.651 79.818 95.125 79C93.773 78.562 91.94 78.477 89.5 79C83.9 80.2 82.5 89.5 82.5 94C82.5 96 83.9 100.2 89.5 101 M10 38.5C17.5 39.333 41.5 44 51 51C60.5 58 71 56 80.5 56.5C81.075 56.569 81.751 56.655 82.5 56.757C86 65.013 87.5 67 90 69.5C92 71.5 94.25 71.333 95.125 71C95.583 72.167 97.5 74.5 101.5 74.5C104.592 74.5 105.892 71.511 106.322 69C106.449 68.263 106.5 67.567 106.5 67C106.5 62.5 106.5 51.9 106.5 45.5C106.5 39.1 103.167 34.833 101.5 33.5C97.5 29 88.3 19.2 83.5 16C77.5 12 73.5 15 54.5 17C39.3 18.6 18 13 10 10 V38.5"></path></g></g><g id="cp_1_g-1_1uux5hvvzlbm5-fill-merged" stroke="none" fill="#fff8b6" fill-opacity="1"><g><path d="M63 181.5C62.833 184.333 63.2 190.7 66 193.5 H120C123 191 123 185.1 123 181.5 H120L124 153.75L124.613 149.5L128 126 H130L131 119 H55L56 126 H58L61.387 149.5L62 153.75L66 181.5 H63"></path></g></g></g><g id="g-root-cp_0_g-0_1q5qj2rvzmnt2-fill" data-item-order="-392496" transform="translate(258.0000305175781, 124)"><g id="cp_0_g-0_1q5qj2rvzmnt2-fill-merged" stroke="none" fill="#ebebeb" fill-opacity="1"><g><path d="M13.227 182.945C17.226 187.745 17.727 193.445 16.227 195.445C15.227 196.945 12.227 197.444 10.727 195.445C8.69 192.73 11.393 186.112 13.227 182.945 M13.227 155.945C17.226 160.745 17.727 166.445 16.227 168.445C15.227 169.945 12.227 170.444 10.727 168.445C8.69 165.73 11.393 159.112 13.227 155.945 M21.727 134.445C25.726 139.245 26.226 144.945 24.726 146.945C23.726 148.444 20.727 148.944 19.227 146.945C17.19 144.23 19.893 137.612 21.727 134.445 M56.227 51.945C60.227 43.145 64.56 42.612 66.227 43.445L69.947 44.42C69.965 44.447 69.982 44.475 70 44.502L131 60.502L134.727 61.425L146.227 64.445L123.727 126.445L117.727 123.945L20.727 125.945L22.727 119.945L85.227 108.945L40.227 88.445C35.727 85.945 35.727 76.445 42.727 71.945C49.727 67.445 51.227 62.945 56.227 51.945"></path></g></g></g><g id="g-root-cp_0_g-0_1_1ha3itvvzmolr-fill" data-item-order="-392489" transform="translate(142, 278)"></g><g id="g-root-tx_fromreta_1cua0pfvzmpe0-fill" data-item-order="0" transform="translate(170, 38)"><g id="tx_fromreta_1cua0pfvzmpe0-fill-merged" stroke="none" fill="#484848" fill-opacity="1"><g><text style="font: bold 25px Montserrat, sans-serif; white-space: pre;" font-weight="bold" font-size="25px" font-family="Montserrat, sans-serif"><tspan x="13.38" y="43" dominant-baseline="ideographic">Human Centered Experience</tspan></text></g></g></g><g id="g-root-tx_retailde_1umszdfvzmp6x-fill" data-item-order="0" transform="translate(44, 446)"><g id="tx_retailde_1umszdfvzmp6x-fill-merged" stroke="none" fill="#e0cb15" fill-opacity="1"><g><text style="font: bold 20px Montserrat, sans-serif; white-space: pre;" font-weight="bold" font-size="20px" font-family="Montserrat, sans-serif"><tspan x="45.98" y="34" dominant-baseline="ideographic">Retail </tspan><tspan x="14.86" y="58" dominant-baseline="ideographic">Destination</tspan></text></g></g></g><g id="g-root-tx_introduc_3dus3vzmnm3-fill" data-item-order="0" transform="translate(212, 446)"><g id="tx_introduc_3dus3vzmnm3-fill-merged" stroke="none" fill="#de8431" fill-opacity="1"><g><text style="font: bold 20px Montserrat, sans-serif; white-space: pre;" font-weight="bold" font-size="20px" font-family="Montserrat, sans-serif"><tspan x="24.74" y="34" dominant-baseline="ideographic">Introduce </tspan><tspan x="16.47" y="58" dominant-baseline="ideographic">Tea Culture</tspan></text></g></g></g><g id="g-root-tx_createco_4kgb2rvzmozx-fill" data-item-order="0" transform="translate(374, 446)"><g id="tx_createco_4kgb2rvzmozx-fill-merged" stroke="none" fill="#e55753" fill-opacity="1"><g><text style="font: bold 20px Montserrat, sans-serif; white-space: pre;" font-weight="bold" font-size="20px" font-family="Montserrat, sans-serif"><tspan x="17.19" y="34" dominant-baseline="ideographic">Create Cozy </tspan><tspan x="42.31" y="58" dominant-baseline="ideographic">Spaces</tspan></text></g></g></g><g id="g-root-tx_wellness_mcz9qrvzmosv-fill" data-item-order="0" transform="translate(560, 446)"><g id="tx_wellness_mcz9qrvzmosv-fill-merged" stroke="none" fill="#de58a9" fill-opacity="1"><g><text style="font: bold 20px Montserrat, sans-serif; white-space: pre;" font-weight="bold" font-size="20px" font-family="Montserrat, sans-serif"><tspan x="13.88" y="34" dominant-baseline="ideographic">Wellness </tspan><tspan x="39.31" y="58" dominant-baseline="ideographic">Hub</tspan></text></g></g></g><g id="g-root-tx_traditio_qpoefnvzmnm2-fill" data-item-order="0" transform="translate(50, 506)"><g id="tx_traditio_qpoefnvzmnm2-fill-merged" stroke="none" fill="#484848" fill-opacity="1"><g><text style="font: 20px Montserrat, sans-serif; white-space: pre;" font-size="20px" font-family="Montserrat, sans-serif"><tspan x="15.61" y="34" dominant-baseline="ideographic">Traditional </tspan><tspan x="20.71" y="58" dominant-baseline="ideographic">shopping </tspan><tspan x="13.42" y="82" dominant-baseline="ideographic">experience</tspan></text></g></g></g><g id="g-root-tx_newferme_v6quqbvzmozw-fill" data-item-order="0" transform="translate(218, 506)"><g id="tx_newferme_v6quqbvzmozw-fill-merged" stroke="none" fill="#484848" fill-opacity="1"><g><text style="font: 20px Montserrat, sans-serif; white-space: pre;" font-size="20px" font-family="Montserrat, sans-serif"><tspan x="44.52" y="34" dominant-baseline="ideographic">New </tspan><tspan x="13.99" y="58" dominant-baseline="ideographic">fermented </tspan><tspan x="19.47" y="82" dominant-baseline="ideographic">tea to the </tspan><tspan x="41.84" y="106" dominant-baseline="ideographic">town</tspan></text></g></g></g><g id="g-root-tx_restrefl_1cz9tebvzmosu-fill" data-item-order="0" transform="translate(386, 506)"><g id="tx_restrefl_1cz9tebvzmosu-fill-merged" stroke="none" fill="#484848" fill-opacity="1"><g><text style="font: 20px Montserrat, sans-serif; white-space: pre;" font-size="20px" font-family="Montserrat, sans-serif"><tspan x="45.56" y="34" dominant-baseline="ideographic">Rest, </tspan><tspan x="20.35" y="58" dominant-baseline="ideographic">reflection, </tspan><tspan x="11.76" y="82" dominant-baseline="ideographic">community</tspan></text></g></g></g><g id="g-root-tx_restorat_1lw5rtfvzmq68-fill" data-item-order="0" transform="translate(548, 506)"><g id="tx_restorat_1lw5rtfvzmq68-fill-merged" stroke="none" fill="#484848" fill-opacity="1"><g><text style="font: 20px Montserrat, sans-serif; white-space: pre;" font-size="20px" font-family="Montserrat, sans-serif"><tspan x="18.19" y="34" dominant-baseline="ideographic">Restorative </tspan><tspan x="17.21" y="58" dominant-baseline="ideographic">connection </tspan><tspan x="15.85" y="82" dominant-baseline="ideographic">with nature</tspan></text></g></g></g><g id="g-root-cp_4_g-4_959lw3vzla8a-stroke" data-item-order="-392536" transform="translate(576, 198.9609375)"><g id="cp_4_g-4_959lw3vzla8a-stroke" fill="none" stroke-linecap="round" stroke-linejoin="round" stroke-miterlimit="4" stroke="#ffffff" stroke-width="2" stroke-opacity="1"><g><path d="M 48.5 126.0736C 45.8384 126.1651 43.2786 126.4455 41.5 127.0384C 37 128.5384 32 130.0384 25 130.0384C 19.4 130.0384 15 133.0384 13.5 134.5384L 83.5 134.5384C 83 131.0384 75 129.5384 71.5 129.5384C 69.8148 129.5384 67.666 128.9588 65.5 128.302C 63.1674 127.5947 60.8148 126.7977 59 126.5384C 56.8834 126.236 52.5724 125.9337 48.5 126.0736ZM 48.5 126.0736C 48.0157 116.6217 48.5 108.0391 49.8432 102.5386M 52.5 39.0391C 54.3333 40.3724 58.3 42.9391 59.5 42.5391C 60.7 42.1391 58.6667 37.0391 57.5 34.5391M 52.5 39.0391C 51.1667 42.8724 48.1 50.0391 46.5 48.0391C 44.9 46.0391 45.5 38.5391 46 35.0391M 52.5 39.0391C 53.5346 43.2716 54.8029 51.3898 54.9206 61.0391M 52.5 39.0391C 52.5 35.8391 50.8333 31.0391 50 29.0391M 57.5 34.5391C 60.8333 35.0391 67.8 35.7391 69 34.5391C 70.5 33.0391 63 28.5391 59.5 27.5391M 57.5 34.5391C 56.968 33.3391 52.2783 30.3724 50 29.0391M 59.5 27.5391C 61.3333 25.8724 64.8 21.9391 64 19.5391C 63.2 18.3391 57.6667 20.3724 55 21.5391M 59.5 27.5391C 58.3116 28.7391 52.6715 29.0391 50 29.0391M 55 21.5391C 55.5 18.0387 56.1 10.8379 54.5 10.0379C 53 9.5379 49 14.0379 48 20.0379M 55 21.5391C 54.8028 23.1391 51.5845 27.2057 50 29.0391M 48 20.0379C 46.5 18.205 43 14.6391 41 15.0391C 39 15.4391 40.8333 20.5391 42 23.0391M 48 20.0379C 48 21.2371 49.3333 26.5383 50 29.0391M 42 23.0391C 38.8333 22.7057 32.3 22.5391 31.5 24.5391C 30.5 27.0391 39 29.5391 41 30.0391M 42 23.0391C 43.6 23.0391 48 27.0391 50 29.0391M 41 30.0391C 39.3333 31.8724 36.1 36.1391 36.5 38.5391C 37.3 39.7391 43.1667 36.7057 46 35.0391M 41 30.0391C 43.4 28.8391 48 28.8724 50 29.0391M 46 35.0391C 47.1667 33.8724 49.6 31.0391 50 29.0391M 54.3877 73.5391C 54.0045 77.3358 53.3971 81.2061 52.5 85.0391C 52.0692 86.8797 51.6829 88.8346 51.337 90.8759M 54.3877 73.5391C 56.0918 69.2057 61.3 60.4391 68.5 60.0391C 77.5 59.5391 80.5 62.539 81.5 65.5391C 82.5 68.5391 80 77.0391 72.5 77.5391C 66.5 77.9391 57.9251 75.0391 54.3877 73.5391ZM 54.3877 73.5391C 56.1941 72.5178 59.1316 70.9488 62 69.6046M 54.3877 73.5391C 54.7688 69.7632 54.9279 66.0601 54.9295 62.5391M 69 67.0391C 67.819 67.1867 66.0014 67.8382 64 68.7022M 62 69.6046C 63.5 70.5828 67 72.5391 69 72.5391M 62 69.6046C 62.6757 69.288 63.3476 68.9838 64 68.7022M 64 68.7022C 64.8333 67.3145 66.6 64.4391 67 64.0391M 54.9206 61.0391C 52.7804 57.0391 46.8 49.0391 40 49.0391C 33.2 49.0391 29.5 54.7057 28.5 57.5391C 28 60.8505 29.1 67.6866 37.5 68.5391C 45.9 69.3915 52.6196 64.8943 54.9295 62.5391M 54.9206 61.0391C 54.9267 61.5351 54.9297 62.0352 54.9295 62.5391M 54.9295 62.5391C 53.309 61.7701 50.4215 60.5577 47.5 59.6691M 41.5 58.5391C 43.1932 58.5391 45.3557 59.0169 47.5 59.6691M 47.5 59.6691C 47.1667 58.1258 46 54.9391 44 54.5391M 47.5 59.6691C 47 60.9591 45.4 63.6391 43 64.0391M 51.337 90.8759C 49.8913 85.597 45.3 75.0391 38.5 75.0391C 30 75.0391 27 76.0396 25 82.5391C 23 89.0386 31.5 93.5386 34 93.5386C 36.5 93.5386 41.674 95.2128 51.337 90.8759ZM 51.337 90.8759C 49.5787 89.9136 46.3434 88.3055 43 86.9953M 51.337 90.8759C 50.7164 94.5386 50.226 98.4797 49.8432 102.5386M 36.5 85.0391C 38.4349 85.3616 40.7421 86.1105 43 86.9953M 43 86.9953C 43 85.1762 42.4 81.4382 40 81.0386M 43 86.9953C 42.1667 88.2889 40.1 90.8759 38.5 90.8759M 49.8432 102.5386C 52.0621 98.0386 58 89.0386 64 89.0386C 71.5 89.0386 75.5183 92.5386 77 97.5386C 78.4817 102.5386 72.2696 108.0391 66.6348 108.0391C 62.127 108.0391 53.5621 104.3721 49.8432 102.5386ZM 49.8432 102.5386C 51.6976 101.8951 54.6246 100.9179 57.5 100.034M 65.1858 98.0386C 63.8891 98.2086 61.6178 98.8059 59.1394 99.5391M 59.1394 99.5391C 59.4263 98.0392 60.3 94.8395 61.5 94.0391M 59.1394 99.5391C 58.6001 99.6986 58.051 99.8646 57.5 100.034M 57.5 100.034C 59.4572 101.3689 63.7344 104.0388 65.1858 104.0388"></path></g></g><g id="cp_4_g-4_959lw3vzla8a-stroke" fill="none" stroke-linecap="round" stroke-linejoin="round" stroke-miterlimit="4" stroke="#ffffff" stroke-width="2" stroke-opacity="1"><g><path d="M 21 197.039063L 18 197.039063C 17.8333 199.872363 18.2 206.239063 21 209.039063L 75 209.039063C 78 206.539063 78 200.639063 78 197.039063L 75 197.039063M 21 197.039063L 75 197.039063M 21 197.039063L 17 169.289063M 13 141.539063L 11 141.539063L 10 134.539063L 86 134.539063L 85 141.539063L 83 141.539063M 13 141.539063L 83 141.539063M 13 141.539063L 16.3874 165.039063M 75 197.039063L 79 169.289063M 83 141.539063L 79.6126 165.039063M 17 169.289063L 79 169.289063M 17 169.289063L 16.3874 165.039063M 79 169.289063L 79.6126 165.039063M 79.6126 165.039063L 16.3874 165.039063"></path></g></g></g><g id="g-root-cp_3_g-3_4pg3rnvzlb0j-stroke" data-item-order="-392526" transform="translate(408, 246.65576171875)"><g id="cp_3_g-3_4pg3rnvzlb0j-stroke" fill="none" stroke-linecap="round" stroke-linejoin="round" stroke-miterlimit="4" stroke="#ffffff" stroke-width="2" stroke-opacity="1"><g><path d="M 49.499984 77.893C 48.043284 77.8411 46.683984 77.8411 45.499984 77.8411C 41.499984 77.8411 43.999984 81.3411 30.999984 81.8411C 20.599984 82.2411 14.999984 85.3411 13.499984 86.8411L 83.999984 86.8411C 82.833284 85.3411 79.499984 82.2411 75.499984 81.8411C 70.499984 81.3411 65.499984 81.8411 60.499984 79.8411C 56.979984 78.4331 52.964484 78.0164 49.499984 77.893ZM 49.499984 77.893C 49.412884 76.4081 49.303084 74.3851 49.188284 72.0496M 48.499984 36.8411C 48.499984 37.5078 48.499984 41.0411 48.499984 49.8411C 48.499984 56.3421 48.863784 65.4453 49.188284 72.0496M 48.499984 36.8411C 51.166684 35.5078 57.299984 31.6411 60.499984 26.8411C 64.499984 20.8411 62.499984 11.8411 55.999984 10.3411C 49.499984 8.8411 44.212484 12.491 42.999984 17.3418C 41.499984 23.3426 40.999984 32.3412 48.499984 36.8411ZM 48.499984 36.8411C 48.406484 35.2515 48.512284 32.3925 49.188284 29.3411M 51.999984 22.3411C 50.841784 24.0784 50.041584 26.0864 49.499984 28.076M 49.188284 29.3411C 51.458884 28.6744 55.999984 27.0411 55.999984 25.8411M 49.188284 29.3411C 49.281084 28.9221 49.384684 28.4995 49.499984 28.076M 49.499984 28.076C 48.666684 26.9977 46.999984 24.3411 46.999984 22.3411M 49.188284 72.0496C 49.292184 69.6467 50.599984 63.6411 54.999984 58.8411C 59.399984 54.0411 61.833284 51.1744 62.499984 50.3411M 49.188284 72.0496C 48.458884 69.6467 45.899984 63.4411 41.499984 57.8411C 39.099984 54.6411 37.499984 52.9311 36.999984 52.4762M 62.499984 50.3411C 61.666684 48.0078 61.199984 42.0412 65.999984 36.8411C 70.799984 31.6411 76.999984 32.0077 79.499984 32.8411C 81.999984 34.5077 86.299984 39.1411 83.499984 44.3411C 79.999984 50.8411 75.499984 51.8411 71.499984 51.8411C 68.299984 51.8411 64.166684 50.8411 62.499984 50.3411ZM 62.499984 50.3411C 63.171684 49.2663 64.244084 47.7584 65.494584 46.3411M 71.499984 42.3411C 70.237184 42.3411 68.829084 43.1716 67.484484 44.3411M 65.494584 46.3411C 66.662984 46.6744 69.499984 47.1411 71.499984 46.3411M 65.494584 46.3411C 66.122384 45.6295 66.795084 44.9407 67.484484 44.3411M 67.484484 44.3411C 67.156284 43.0077 66.799984 39.9411 67.999984 38.3411M 36.999984 52.4762C 34.166684 51.9311 27.299984 50.8411 22.499984 50.8411C 16.499984 50.8411 12.499984 45.3411 11.999984 40.8411C 11.499984 36.3411 11.999984 31.3411 19.499984 28.8411C 26.999984 26.3411 33.499984 33.8411 35.999984 39.3411C 37.849284 43.4095 37.561084 49.0084 37.111984 51.8411M 36.999984 52.4762C 37.037684 52.2844 37.075284 52.0719 37.111984 51.8411M 37.111984 51.8411C 36.044584 50.182 34.143484 47.5714 31.999984 45.2891M 25.999984 40.8411C 27.269584 41.2219 28.647384 42.1501 30.001884 43.3411M 31.999984 45.2891C 31.166684 45.6051 28.799984 46.0475 25.999984 45.2891M 31.999984 45.2891C 31.350684 44.5977 30.679184 43.9365 30.001884 43.3411M 30.001884 43.3411C 30.334584 41.6744 30.599984 38.0412 28.999984 36.8411"></path></g></g><g id="cp_3_g-3_4pg3rnvzlb0j-stroke" fill="none" stroke-linecap="round" stroke-linejoin="round" stroke-miterlimit="4" stroke="#ffffff" stroke-width="2" stroke-opacity="1"><g><path d="M 18 149.34375C 17.8333 152.17705 18.2 158.54375 21 161.34375L 75 161.34375C 78 158.84375 78 152.94375 78 149.34375L 75 149.34375L 79 121.59375L 79.6126 117.34375L 83 93.84375L 85 93.84375L 86 86.84375L 10 86.84375L 11 93.84375L 13 93.84375L 16.3874 117.34375L 17 121.59375L 21 149.34375L 18 149.34375ZM 21 149.34375L 18 149.34375C 17.8333 152.17705 18.2 158.54375 21 161.34375L 75 161.34375C 78 158.84375 78 152.94375 78 149.34375L 75 149.34375M 21 149.34375L 75 149.34375M 21 149.34375L 17 121.59375M 13 93.84375L 11 93.84375L 10 86.84375L 86 86.84375L 85 93.84375L 83 93.84375M 13 93.84375L 83 93.84375M 13 93.84375L 16.3874 117.34375M 75 149.34375L 79 121.59375M 83 93.84375L 79.6126 117.34375M 17 121.59375L 79 121.59375M 17 121.59375L 16.3874 117.34375M 79 121.59375L 79.6126 117.34375M 79.6126 117.34375L 16.3874 117.34375"></path></g></g></g><g id="g-root-cp_2_g-2_1uux5hvvzlbm4-stroke" data-item-order="-392516" transform="translate(240, 278.35888671875)"><g id="cp_2_g-2_1uux5hvvzlbm4-stroke" fill="none" stroke-linecap="round" stroke-linejoin="round" stroke-miterlimit="4" stroke="#ffffff" stroke-width="2" stroke-opacity="1"><g><path d="M 52.5 46.2212C 48.573 46.2974 44.4154 46.8205 42.5 47.1398C 39.5 47.6398 41 50.6398 29 50.6398C 19.4 50.6398 14.6667 53.6398 13.5 55.1398L 83 54.6396C 81 53.3063 76 50.6398 72 50.6398C 67 50.6398 63 47.6398 58.5 46.6398C 56.8732 46.2782 54.7235 46.1781 52.5 46.2212ZM 52.5 46.2212C 52.5 43.8607 52.8 38.4396 54 35.6396M 54 35.6396C 55.5 32.1396 64.5 30.1396 66 23.1396C 67.5 16.1396 65 11.1396 60 10.1396C 55 9.1396 48.9617 13.6365 48.5 19.6396C 48 26.1406 49.5 31.6385 54 35.6396ZM 54 35.6396C 53.8149 33.9738 53.7429 31.0747 54.1949 28.1406M 56.5 21.6406C 55.7 22.7835 55.1258 24.1713 54.7215 25.6406M 54.1949 28.1406C 55.7966 27.6406 59 26.2406 59 24.6406M 54.1949 28.1406C 54.3243 27.3008 54.4966 26.4581 54.7215 25.6406M 54.7215 25.6406C 54.1477 24.9743 53 23.2414 53 21.6406"></path></g></g><g id="cp_2_g-2_1uux5hvvzlbm4-stroke" fill="none" stroke-linecap="round" stroke-linejoin="round" stroke-miterlimit="4" stroke="#ffffff" stroke-width="2" stroke-opacity="1"><g><path d="M 21 117.640625L 18 117.640625C 17.8333 120.473925 18.2 126.840625 21 129.640625L 75 129.640625C 78 127.140625 78 121.240625 78 117.640625L 75 117.640625M 21 117.640625L 75 117.640625M 21 117.640625L 17 89.890625M 13 62.140625L 11 62.140625L 10 55.140625L 86 55.140625L 85 62.140625L 83 62.140625M 13 62.140625L 83 62.140625M 13 62.140625L 16.3874 85.640625M 75 117.640625L 79 89.890625M 83 62.140625L 79.6126 85.640625M 17 89.890625L 79 89.890625M 17 89.890625L 16.3874 85.640625M 79 89.890625L 79.6126 85.640625M 79.6126 85.640625L 16.3874 85.640625"></path></g></g></g><g id="g-root-cp_1_g-1_1uux5hvvzlbm5-stroke" data-item-order="-392506" transform="translate(27, 214.5)"><g id="cp_1_g-1_1uux5hvvzlbm5-stroke" fill="none" stroke-linecap="round" stroke-linejoin="round" stroke-miterlimit="4" stroke="#ffffff" stroke-width="2" stroke-opacity="1"><g><path d="M 97 104.6283C 96.223 104.5464 95.386 104.6457 94.5 105.0001C 90.5 106.6001 90.8333 114.9999 91.5 118.9998C 89.3333 117.4998 82.7 114.3998 73.5 113.9998C 64.3 113.5998 59 117.1665 57.5 118.9998L 130.5 118.9998C 130.3333 117.6665 128 114.7998 120 113.9998C 112 113.1999 107.6667 116.9999 106.5 118.9998C 105.7 115.7999 103.5 111 102.5 109.0001C 101.7215 107.4431 99.7309 104.9164 97 104.6283ZM 97 104.6283C 96.6667 106.7522 96.5 111.5999 98.5 113.9998M 95.125 78.9998C 97.6514 79.8185 98.5 81.8713 98.5 83.4998C 98.5 85.9998 97 86.9998 96.5 93.9998C 96.1 99.5998 91.6667 100.9998 89.5 100.9998C 83.9 100.1996 82.5 95.9997 82.5 93.9998C 82.5 89.4998 83.9 80.1998 89.5 78.9998C 91.9403 78.4769 93.7729 78.5616 95.125 78.9998ZM 95.125 78.9998C 93.5833 79.9999 90.4 83.7 90 90.5M 75 31C 71 32.5 70.5 37.5 73.5 40.5C 76.5 43.5 77.5 42.5 82.5 45.5C 84.8515 46.9109 86.5394 47.8794 88.5 48.7176M 95.125 71C 95.5833 72.1667 97.5 74.5 101.5 74.5C 104.5925 74.5 105.8918 71.5114 106.3222 69M 95.125 71C 94.25 71.3333 92 71.5 90 69.5C 87.5 67 86 65.0135 82.5 56.7567M 95.125 71C 94.9167 70.5 94.4 69 94 67C 93.8502 66.4942 93.7508 65.9923 93.6928 65.5M 82.5 56.7567C 81.751 56.6552 81.0753 56.569 80.5 56.5C 71 56 60.5 58 51 51C 41.5 44 17.5 39.3333 10 38.5L 10 10C 18 13 39.3 18.6 54.5 17C 73.5 15 77.5 12 83.5 16C 88.3 19.2 97.5 29 101.5 33.5C 103.1667 34.8333 106.5 39.1 106.5 45.5C 106.5 51.9 106.5 62.5 106.5 67C 106.5 67.5672 106.4485 68.263 106.3222 69M 82.5 56.7567C 84.7502 57.0617 87.6619 57.5049 90.5 58.0364M 81 30L 92 39C 93.5 40.1667 96.5 43.4 96.5 47C 96.5 48.6 96.5 50.4981 96.5 51.2472M 96.5 51.2472C 96.8227 51.3297 97.1558 51.4139 97.5 51.5C 105.5 53.5 106.5 55.5 106.5 57.5C 106.5 58.7396 105.5397 60.1712 103.5 60.6045M 96.5 51.2472C 92.8497 50.313 90.5289 49.5851 88.5 48.7176M 80 38.5L 85.5 43C 86.3333 43.8118 88.1 46.0918 88.5 48.7176M 95.125 59.017C 96.4105 59.3313 97.5681 59.6611 98.5 60C 99.0274 60.1918 99.5273 60.3422 100 60.4556M 95.125 59.017C 93.6965 58.6678 92.1101 58.3379 90.5 58.0364M 95.125 59.017C 94.4381 60.0533 93.3521 62.6095 93.6928 65.5M 90.5 58.0364C 90.9619 59.8576 92.247 63.9 93.6928 65.5M 100 60.4556C 99.6667 61.4704 99.2 64.2 100 67M 100 60.4556C 101.4015 60.792 102.5643 60.8033 103.5 60.6045M 106.3222 69C 105.0482 67.2363 102.7 63.0881 103.5 60.6045"></path></g></g><g id="cp_1_g-1_1uux5hvvzlbm5-stroke" fill="none" stroke-linecap="round" stroke-linejoin="round" stroke-miterlimit="4" stroke="#ffffff" stroke-width="2" stroke-opacity="1"><g><path d="M 66 181.5L 63 181.5C 62.8333 184.3333 63.2 190.7 66 193.5L 120 193.5C 123 191 123 185.1 123 181.5L 120 181.5M 66 181.5L 120 181.5M 66 181.5L 62 153.75M 58 126L 56 126L 55 119L 131 119L 130 126L 128 126M 58 126L 128 126M 58 126L 61.3874 149.5M 120 181.5L 124 153.75M 128 126L 124.6126 149.5M 62 153.75L 124 153.75M 62 153.75L 61.3874 149.5M 124 153.75L 124.6126 149.5M 124.6126 149.5L 61.3874 149.5"></path></g></g></g><g id="g-root-cp_0_g-0_1q5qj2rvzmnt2-stroke" data-item-order="-392496" transform="translate(258.0000305175781, 124)"><g id="cp_0_g-0_1q5qj2rvzmnt2-stroke" fill="none" stroke-linecap="round" stroke-linejoin="round" stroke-miterlimit="4" stroke="#ffffff" stroke-width="2" stroke-opacity="1"><g><path d="M 10.726369 168.442C 8.689969 165.7266 11.392969 159.1086 13.226369 155.942C 17.226369 160.742 17.726269 166.442 16.226269 168.442C 15.226269 169.942 12.226269 170.442 10.726369 168.442ZM 10.726369 195.442C 8.689969 192.7266 11.392969 186.1086 13.226369 182.942C 17.226369 187.742 17.726269 193.442 16.226269 195.442C 15.226269 196.942 12.226269 197.442 10.726369 195.442ZM 19.226269 146.942C 17.189869 144.2266 19.892969 137.6086 21.726269 134.442C 25.726269 139.242 26.226269 144.942 24.726269 146.942C 23.726269 148.442 20.726169 148.942 19.226269 146.942ZM 146.226469 64.442L 123.726469 126.442L 117.726469 123.9424L 20.726469 125.9424L 22.726469 119.9424L 85.226469 108.9424L 59.226469 97.0979L 55.226469 95.2757L 47.726469 91.8591L 40.226469 88.4424C 35.726469 85.9424 35.726469 76.4424 42.726469 71.9424C 49.726469 67.4424 51.226469 62.942 56.226469 51.942C 60.226469 43.142 64.559769 42.6086 66.226469 43.442L 70.226469 44.492C 65.893169 39.1421 60.726469 22.7002 74.226469 13.4424C 78.893169 10.2757 90.826469 6.4424 101.226469 16.4424C 114.226469 28.9424 113.726469 38.4434 119.726469 46.4424C 125.726469 54.4414 127.226469 58.4045 134.726469 61.4232L 146.226469 64.442ZM 66.226469 43.442L 47.726469 91.8591M 85.226469 108.9424L 117.726469 123.9424M 59.226469 97.0979L 77.656569 46.4424M 77.656569 46.4424L 74.226469 45.542M 77.656569 46.4424L 134.726469 61.4232M 74.226469 45.542L 55.226469 95.2757M 74.226469 45.542L 70.226469 44.492M 84.226469 57.9424L 97.726469 60.9424"></path></g></g></g><g id="g-root-cp_0_g-0_1_1ha3itvvzmolr-stroke" data-item-order="-392489" transform="translate(142, 278)"><g id="cp_0_g-0_1_1ha3itvvzmolr-stroke" fill="none" stroke-linecap="round" stroke-linejoin="round" stroke-miterlimit="4" stroke="#484848" stroke-width="2" stroke-dasharray="5.0, 7.0" stroke-opacity="1"><g><path d="M 10 43.3351C 12.7138 36.7835 16.6914 30.8306 21.7057 25.8162C 26.7201 20.8019 32.673 16.8242 39.2246 14.1105C 45.7762 11.3967 52.7981 10 59.8895 10C 66.9809 10 74.0028 11.3968 80.5544 14.1105C 87.106 16.8243 93.0589 20.8019 98.0733 25.8163C 103.0876 30.8306 107.0653 36.7836 109.779 43.3351M 178 43.3351C 180.7138 36.7835 184.6914 30.8306 189.7057 25.8162C 194.7201 20.8019 200.673 16.8242 207.2246 14.1105C 213.7762 11.3967 220.7981 10 227.8895 10C 234.9809 10 242.0028 11.3968 248.5544 14.1105C 255.106 16.8243 261.0589 20.8019 266.0733 25.8163C 271.0876 30.8306 275.0653 36.7836 277.779 43.3351M 346 43.3351C 348.7138 36.7835 352.6914 30.8306 357.7057 25.8162C 362.7201 20.8019 368.673 16.8242 375.2246 14.1105C 381.7762 11.3967 388.7981 10 395.8895 10C 402.9809 10 410.0028 11.3968 416.5544 14.1105C 423.106 16.8243 429.0589 20.8019 434.0733 25.8163C 439.0876 30.8306 443.0653 36.7836 445.779 43.3351"></path></g></g></g><g id="g-root-tx_fromreta_1cua0pfvzmpe0-stroke" data-item-order="0" transform="translate(170, 38)"></g><g id="g-root-tx_retailde_1umszdfvzmp6x-stroke" data-item-order="0" transform="translate(44, 446)"></g><g id="g-root-tx_introduc_3dus3vzmnm3-stroke" data-item-order="0" transform="translate(212, 446)"></g><g id="g-root-tx_createco_4kgb2rvzmozx-stroke" data-item-order="0" transform="translate(374, 446)"></g><g id="g-root-tx_wellness_mcz9qrvzmosv-stroke" data-item-order="0" transform="translate(560, 446)"></g><g id="g-root-tx_traditio_qpoefnvzmnm2-stroke" data-item-order="0" transform="translate(50, 506)"></g><g id="g-root-tx_newferme_v6quqbvzmozw-stroke" data-item-order="0" transform="translate(218, 506)"></g><g id="g-root-tx_restrefl_1cz9tebvzmosu-stroke" data-item-order="0" transform="translate(386, 506)"></g><g id="g-root-tx_restorat_1lw5rtfvzmq68-stroke" data-item-order="0" transform="translate(548, 506)"></g></g></g></svg>