<?xml version="1.0" encoding="utf-8" standalone="yes"?>
<!DOCTYPE svg PUBLIC "-//W3C//DTD SVG 1.1//EN" "http://www.w3.org/Graphics/SVG/1.1/DTD/svg11.dtd">
<svg style="fill:none;stroke:none;fill-rule:evenodd;clip-rule:evenodd;stroke-linecap:round;stroke-linejoin:round;stroke-miterlimit:1.5;" version="1.1" xmlns="http://www.w3.org/2000/svg" xmlns:xlink="http://www.w3.org/1999/xlink" width="888" height="954" viewBox="0 0 888 954"><style class="text-font-style fontImports" data-font-family="Montserrat">@import url(https://fonts.googleapis.com/css2?family=Montserrat:wght@400;700&amp;amp;display=block);</style><g id="items" style="isolation: isolate"><g id="blend" style="mix-blend-mode: normal"><g id="g-root-cp_5_g-5_1q9gi27sdxkb3-fill" data-item-order="-720712" transform="translate(434, 746)"><g id="cp_5_g-5_1q9gi27sdxkb3-fill-merged" stroke="none" fill="#f5e0ff" fill-opacity="1"><g><path d="M346.789 130C379.523 130 406 103.137 406 70C406 36.863 379.523 10 346.789 10 H106L106.987 10.5C127.809 21.97 141.941 44.314 141.941 70C141.941 95.686 127.809 118.03 106.987 129.5L106 130 H346.789"></path></g></g><g id="cp_5_g-5_1q9gi27sdxkb3-fill-merged" stroke="none" fill="#f5e0ff" fill-opacity="1"><g><path d="M130 70C130 103.137 103.137 130 70 130C36.863 130 10 103.137 10 70C10 36.863 36.863 10 70 10C103.137 10 130 36.863 130 70 M25.08 70C25.08 94.808 45.192 114.92 70 114.92C94.808 114.92 114.92 94.808 114.92 70C114.92 45.192 94.808 25.08 70 25.08C45.192 25.08 25.08 45.192 25.08 70"></path></g></g></g><g id="g-root-cp_4_g-4_1ltmzxrsdxl3c-fill" data-item-order="-720696" transform="translate(434, 590)"><g id="cp_4_g-4_1ltmzxrsdxl3c-fill-merged" stroke="none" fill="#e7e1ff" fill-opacity="1"><g><path d="M346.789 130C379.523 130 406 103.137 406 70C406 36.863 379.523 10 346.789 10 H106L106.987 10.5C127.809 21.97 141.941 44.314 141.941 70C141.941 95.686 127.809 118.03 106.987 129.5L106 130 H346.789"></path></g></g><g id="cp_4_g-4_1ltmzxrsdxl3c-fill-merged" stroke="none" fill="#e7e1ff" fill-opacity="1"><g><path d="M130 70C130 103.137 103.137 130 70 130C36.863 130 10 103.137 10 70C10 36.863 36.863 10 70 10C103.137 10 130 36.863 130 70 M25.08 70C25.08 94.808 45.192 114.92 70 114.92C94.808 114.92 114.92 94.808 114.92 70C114.92 45.192 94.808 25.08 70 25.08C45.192 25.08 25.08 45.192 25.08 70"></path></g></g></g><g id="g-root-cp_3_g-3_1hdthtbsdxlvl-fill" data-item-order="-720680" transform="translate(434, 434)"><g id="cp_3_g-3_1hdthtbsdxlvl-fill-merged" stroke="none" fill="#dce9ff" fill-opacity="1"><g><path d="M346.789 130C379.523 130 406 103.137 406 70C406 36.863 379.523 10 346.789 10 H106L106.987 10.5C127.809 21.97 141.941 44.314 141.941 70C141.941 95.686 127.809 118.03 106.987 129.5L106 130 H346.789"></path></g></g><g id="cp_3_g-3_1hdthtbsdxlvl-fill-merged" stroke="none" fill="#dce9ff" fill-opacity="1"><g><path d="M130 70C130 103.137 103.137 130 70 130C36.863 130 10 103.137 10 70C10 36.863 36.863 10 70 10C103.137 10 130 36.863 130 70 M25.08 70C25.08 94.808 45.192 114.92 70 114.92C94.808 114.92 114.92 94.808 114.92 70C114.92 45.192 94.808 25.08 70 25.08C45.192 25.08 25.08 45.192 25.08 70"></path></g></g></g><g id="g-root-cp_2_g-2_18i6hkfsdxmoa-fill" data-item-order="-720664" transform="translate(434, 278)"><g id="cp_2_g-2_18i6hkfsdxmoa-fill-merged" stroke="none" fill="#d1f4ff" fill-opacity="1"><g><path d="M346.789 130C379.523 130 406 103.137 406 70C406 36.863 379.523 10 346.789 10 H106L106.987 10.5C127.809 21.97 141.941 44.314 141.941 70C141.941 95.686 127.809 118.03 106.987 129.5L106 130 H346.789"></path></g></g><g id="cp_2_g-2_18i6hkfsdxmoa-fill-merged" stroke="none" fill="#d1f4ff" fill-opacity="1"><g><path d="M130 70C130 103.137 103.137 130 70 130C36.863 130 10 103.137 10 70C10 36.863 36.863 10 70 10C103.137 10 130 36.863 130 70 M25.08 70C25.08 94.808 45.192 114.92 70 114.92C94.808 114.92 114.92 94.808 114.92 70C114.92 45.192 94.808 25.08 70 25.08C45.192 25.08 25.08 45.192 25.08 70"></path></g></g></g><g id="g-root-cp_1_g-1_142zgj3sdxkar-fill" data-item-order="-720648" transform="translate(434, 122)"><g id="cp_1_g-1_142zgj3sdxkar-fill-merged" stroke="none" fill="#e9ffb9" fill-opacity="1"><g><path d="M346.789 130C379.523 130 406 103.137 406 70C406 36.863 379.523 10 346.789 10 H106L106.987 10.5C127.809 21.97 141.941 44.314 141.941 70C141.941 95.686 127.809 118.03 106.987 129.5L106 130 H346.789"></path></g></g><g id="cp_1_g-1_142zgj3sdxkar-fill-merged" stroke="none" fill="#e9ffb9" fill-opacity="1"><g><path d="M130 70C130 103.137 103.137 130 70 130C36.863 130 10 103.137 10 70C10 36.863 36.863 10 70 10C103.137 10 130 36.863 130 70 M25.08 70C25.08 94.808 45.192 114.92 70 114.92C94.808 114.92 114.92 94.808 114.92 70C114.92 45.192 94.808 25.08 70 25.08C45.192 25.08 25.08 45.192 25.08 70"></path></g></g></g><g id="g-root-cp_0_g-0_v7cga7sdxl3g-fill" data-item-order="-720630" transform="translate(38, 386)"><g id="cp_0_g-0_v7cga7sdxl3g-fill-merged" stroke="none" fill="#fff8b6" fill-opacity="1"><g><path d="M226 118C226 177.647 177.647 226 118 226C58.353 226 10 177.647 10 118C10 58.353 58.353 10 118 10C177.647 10 226 58.353 226 118 M31.461 118C31.461 165.794 70.206 204.539 118 204.539C165.794 204.539 204.539 165.794 204.539 118C204.539 70.206 165.794 31.461 118 31.461C70.206 31.461 31.461 70.206 31.461 118"></path></g></g></g><g id="g-root-cp_1_g-1_1_qriy5rsdxlvp-fill" data-item-order="-720618" transform="translate(211.10000610351562, 176)"><g id="cp_1_g-1_1_qriy5rsdxlvp-fill-merged" stroke="none" fill="#f4ffdc" fill-opacity="1"><g><path d="M226.9 16C226.9 19.314 224.214 22 220.9 22C217.587 22 214.9 19.314 214.9 16C214.9 12.686 217.587 10 220.9 10C224.214 10 226.9 12.686 226.9 16 M22.002 224C22.002 227.314 19.315 230 16.002 230C12.688 230 10.002 227.314 10.002 224C10.002 220.686 12.688 218 16.002 218C19.315 218 22.002 220.686 22.002 224"></path></g></g></g><g id="g-root-cp_2_g-2_1_qriy5rsdxlvq-fill" data-item-order="-720612" transform="translate(250, 332)"><g id="cp_2_g-2_1_qriy5rsdxlvq-fill-merged" stroke="none" fill="#e8f9ff" fill-opacity="1"><g><path d="M188 16C188 19.314 185.314 22 182 22C178.686 22 176 19.314 176 16C176 12.686 178.686 10 182 10C185.314 10 188 12.686 188 16 M22 110.5C22 113.814 19.314 116.5 16 116.5C12.686 116.5 10 113.814 10 110.5C10 107.186 12.686 104.5 16 104.5C19.314 104.5 22 107.186 22 110.5"></path></g></g></g><g id="g-root-cp_3_g-3_1_hvvxwvsdxmof-fill" data-item-order="-720606" transform="translate(266, 488)"><g id="cp_3_g-3_1_hvvxwvsdxmof-fill-merged" stroke="none" fill="#edf4ff" fill-opacity="1"><g><path d="M172 16C172 19.314 169.314 22 166 22C162.686 22 160 19.314 160 16C160 12.686 162.686 10 166 10C169.314 10 172 12.686 172 16 M22 16C22 19.314 19.314 22 16 22C12.686 22 10 19.314 10 16C10 12.686 12.686 10 16 10C19.314 10 22 12.686 22 16"></path></g></g></g><g id="g-root-cp_4_g-4_1_mbpg1bsdxmo0-fill" data-item-order="-720600" transform="translate(252.8984375, 544)"><g id="cp_4_g-4_1_mbpg1bsdxmo0-fill-merged" stroke="none" fill="#f3f0ff" fill-opacity="1"><g><path d="M185.102 116C185.102 119.314 182.415 122 179.102 122C175.788 122 173.102 119.314 173.102 116C173.102 112.686 175.788 110 179.102 110C182.415 110 185.102 112.686 185.102 116 M22 16C22 19.314 19.314 22 16 22C12.686 22 10 19.314 10 16C10 12.686 12.686 10 16 10C19.314 10 22 12.686 22 16"></path></g></g></g><g id="g-root-cp_5_g-5_1_dgowvjsdxkax-fill" data-item-order="-720594" transform="translate(210, 592.7999877929688)"><g id="cp_5_g-5_1_dgowvjsdxkax-fill-merged" stroke="none" fill="#faf0ff" fill-opacity="1"><g><path d="M228 223.2C228 226.514 225.314 229.2 222 229.2C218.686 229.2 216 226.514 216 223.2C216 219.887 218.686 217.2 222 217.2C225.314 217.2 228 219.887 228 223.2 M22 16.001C22 19.314 19.314 22.001 16 22.001C12.686 22.001 10 19.314 10 16.001C10 12.687 12.686 10.001 16 10.001C19.314 10.001 22 12.687 22 16.001"></path></g></g></g><g id="g-root-tx_flavored_1ltn33jsdi60w-fill" data-item-order="0" transform="translate(578, 326)"><g id="tx_flavored_1ltn33jsdi60w-fill-merged" stroke="none" fill="#484848" fill-opacity="1"><g><text style="font: 15px Montserrat, sans-serif; white-space: pre;" font-size="15px" font-family="Montserrat, sans-serif"><tspan x="12" y="31" dominant-baseline="ideographic">Flavored pastries </tspan><tspan x="12" y="49" dominant-baseline="ideographic">complementing </tspan><tspan x="12" y="67" dominant-baseline="ideographic">kombucha tea offerings.</tspan></text></g></g></g><g id="g-root-ic_dish_v7cjfzsdgrur-fill" data-item-order="0" transform="translate(470, 314)"></g><g id="g-root-ic_pain_73wxbsdi51q-fill" data-item-order="0" transform="translate(117, 422)"></g><g id="g-root-tx_pastries_1upa3cfsdi4gf-fill" data-item-order="0" transform="translate(578, 290)"><g id="tx_pastries_1upa3cfsdi4gf-fill-merged" stroke="none" fill="#484848" fill-opacity="1"><g><text style="font: 20px Montserrat, sans-serif; white-space: pre;" font-size="20px" font-family="Montserrat, sans-serif"><tspan x="12" y="34" dominant-baseline="ideographic">Pastries</tspan></text></g></g></g><g id="g-root-tx_brewings_1cymjxrsdgphl-fill" data-item-order="0" transform="translate(578, 446)"><g id="tx_brewings_1cymjxrsdgphl-fill-merged" stroke="none" fill="#484848" fill-opacity="1"><g><text style="font: 20px Montserrat, sans-serif; white-space: pre;" font-size="20px" font-family="Montserrat, sans-serif"><tspan x="12" y="34" dominant-baseline="ideographic">Brewing Services</tspan></text></g></g></g><g id="g-root-ic_orde_90vhwvsdfcw3-fill" data-item-order="0" transform="translate(470, 470)"></g><g id="g-root-tx_scobyspo_92qx67sdi491-fill" data-item-order="0" transform="translate(80, 494)"><g id="tx_scobyspo_92qx67sdi491-fill-merged" stroke="none" fill="#e0cb15" fill-opacity="1"><g><text style="font: bold 20px Montserrat, sans-serif; white-space: pre;" font-weight="bold" font-size="20px" font-family="Montserrat, sans-serif"><tspan x="15.16" y="34" dominant-baseline="ideographic">The SCOBY </tspan><tspan x="48.98" y="58" dominant-baseline="ideographic">Spot</tspan></text></g></g></g><g id="g-root-tx_interact_zn61kfsdgr2i-fill" data-item-order="0" transform="translate(578, 482)"><g id="tx_interact_zn61kfsdgr2i-fill-merged" stroke="none" fill="#484848" fill-opacity="1"><g><text style="font: 15px Montserrat, sans-serif; white-space: pre;" font-size="15px" font-family="Montserrat, sans-serif"><tspan x="12" y="31" dominant-baseline="ideographic">Interactive brewing </tspan><tspan x="12" y="49" dominant-baseline="ideographic">experiences for kombucha </tspan><tspan x="12" y="67" dominant-baseline="ideographic">enthusiasts.</tspan></text></g></g></g><g id="g-root-tx_diversek_mdkygfsdi5tw-fill" data-item-order="0" transform="translate(578, 170)"><g id="tx_diversek_mdkygfsdi5tw-fill-merged" stroke="none" fill="#484848" fill-opacity="1"><g><text style="font: 15px Montserrat, sans-serif; white-space: pre;" font-size="15px" font-family="Montserrat, sans-serif"><tspan x="12" y="31" dominant-baseline="ideographic">Diverse kombucha tea </tspan><tspan x="12" y="49" dominant-baseline="ideographic">flavors and brewing </tspan><tspan x="12" y="67" dominant-baseline="ideographic">services.</tspan></text></g></g></g><g id="g-root-ic_fill_18it1tbsdi4g1-fill" data-item-order="0" transform="translate(470, 158)"></g><g id="g-root-tx_socialen_58hnzsddyq0-fill" data-item-order="0" transform="translate(578, 794)"><g id="tx_socialen_58hnzsddyq0-fill-merged" stroke="none" fill="#484848" fill-opacity="1"><g><text style="font: 15px Montserrat, sans-serif; white-space: pre;" font-size="15px" font-family="Montserrat, sans-serif"><tspan x="12" y="31" dominant-baseline="ideographic">Social engagement </tspan><tspan x="12" y="49" dominant-baseline="ideographic">through cultural and </tspan><tspan x="12" y="67" dominant-baseline="ideographic">wellness activities.</tspan></text></g></g></g><g id="g-root-tx_relaxand_142zjovsdfc3r-fill" data-item-order="0" transform="translate(578, 590)"><g id="tx_relaxand_142zjovsdfc3r-fill-merged" stroke="none" fill="#484848" fill-opacity="1"><g><text style="font: 20px Montserrat, sans-serif; white-space: pre;" font-size="20px" font-family="Montserrat, sans-serif"><tspan x="12" y="34" dominant-baseline="ideographic">Relax and Study </tspan><tspan x="12" y="58" dominant-baseline="ideographic">Space</tspan></text></g></g></g><g id="g-root-ic_desk_1lviicvsddwy1-fill" data-item-order="0" transform="translate(470, 626)"></g><g id="g-root-tx_relaxand_mcc0a7sdfbb5-fill" data-item-order="0" transform="translate(578, 650)"><g id="tx_relaxand_mcc0a7sdfbb5-fill-merged" stroke="none" fill="#484848" fill-opacity="1"><g><text style="font: 15px Montserrat, sans-serif; white-space: pre;" font-size="15px" font-family="Montserrat, sans-serif"><tspan x="12" y="31" dominant-baseline="ideographic">Relax and study space </tspan><tspan x="12" y="49" dominant-baseline="ideographic">promoting individual </tspan><tspan x="12" y="67" dominant-baseline="ideographic">retreat.</tspan></text></g></g></g><g id="g-root-tx_explorin_90ver3sdxl36-fill" data-item-order="0" transform="translate(170, 38)"><g id="tx_explorin_90ver3sdxl36-fill-merged" stroke="none" fill="#484848" fill-opacity="1"><g><text style="font: bold 25px Montserrat, sans-serif; white-space: pre;" font-weight="bold" font-size="25px" font-family="Montserrat, sans-serif"><tspan x="17.16" y="43" dominant-baseline="ideographic">Exploring the Multifaceted SCOBY Spot</tspan></text></g></g></g><g id="g-root-tx_socialen_4l1zsfsddxxr-fill" data-item-order="0" transform="translate(578, 758)"><g id="tx_socialen_4l1zsfsddxxr-fill-merged" stroke="none" fill="#484848" fill-opacity="1"><g><text style="font: 20px Montserrat, sans-serif; white-space: pre;" font-size="20px" font-family="Montserrat, sans-serif"><tspan x="12" y="34" dominant-baseline="ideographic">Social Engagement</tspan></text></g></g></g><g id="g-root-ic_2_58ei7sdxlvv-fill" data-item-order="0" transform="translate(470, 782)"></g><g id="g-root-tx_kombucha_qtegkvsdi51n-fill" data-item-order="0" transform="translate(578, 134)"><g id="tx_kombucha_qtegkvsdi51n-fill-merged" stroke="none" fill="#484848" fill-opacity="1"><g><text style="font: 20px Montserrat, sans-serif; white-space: pre;" font-size="20px" font-family="Montserrat, sans-serif"><tspan x="12" y="34" dominant-baseline="ideographic">Kombucha Tea</tspan></text></g></g></g><g id="g-root-cp_5_g-5_1q9gi27sdxkb3-stroke" data-item-order="-720712" transform="translate(434, 746)"><g id="cp_5_g-5_1q9gi27sdxkb3-stroke" fill="none" stroke-linecap="round" stroke-linejoin="round" stroke-miterlimit="4" stroke="#ffffff" stroke-width="2" stroke-opacity="1"><g><path d="M 346.7895 130C 379.5233 130 406 103.1371 406 70C 406 36.8629 379.5233 10 346.7895 10L 106 10L 106.9868 10.5003C 127.809 21.97 141.9408 44.3143 141.9408 70C 141.9408 95.6856 127.809 118.0299 106.9868 129.4996L 106 130L 346.7895 130Z"></path></g></g><g id="cp_5_g-5_1q9gi27sdxkb3-stroke" fill="none" stroke-linecap="round" stroke-linejoin="round" stroke-miterlimit="4" stroke="#ffffff" stroke-width="2" stroke-opacity="1"><g><path d="M 130 70C 130 103.1371 103.1371 130 70 130C 36.8629 130 10 103.1371 10 70C 10 36.8629 36.8629 10 70 10C 103.1371 10 130 36.8629 130 70ZM 25.0804 70C 25.0804 94.8084 45.1916 114.9196 70 114.9196C 94.8084 114.9196 114.9196 94.8084 114.9196 70C 114.9196 45.1916 94.8084 25.0804 70 25.0804C 45.1916 25.0804 25.0804 45.1916 25.0804 70Z"></path></g></g></g><g id="g-root-cp_4_g-4_1ltmzxrsdxl3c-stroke" data-item-order="-720696" transform="translate(434, 590)"><g id="cp_4_g-4_1ltmzxrsdxl3c-stroke" fill="none" stroke-linecap="round" stroke-linejoin="round" stroke-miterlimit="4" stroke="#ffffff" stroke-width="2" stroke-opacity="1"><g><path d="M 346.7895 130C 379.5233 130 406 103.1371 406 70C 406 36.8629 379.5233 10 346.7895 10L 106 10L 106.9868 10.5003C 127.809 21.97 141.9408 44.3143 141.9408 70C 141.9408 95.6856 127.809 118.0299 106.9868 129.4996L 106 130L 346.7895 130Z"></path></g></g><g id="cp_4_g-4_1ltmzxrsdxl3c-stroke" fill="none" stroke-linecap="round" stroke-linejoin="round" stroke-miterlimit="4" stroke="#ffffff" stroke-width="2" stroke-opacity="1"><g><path d="M 130 70C 130 103.1371 103.1371 130 70 130C 36.8629 130 10 103.1371 10 70C 10 36.8629 36.8629 10 70 10C 103.1371 10 130 36.8629 130 70ZM 25.0804 70C 25.0804 94.8084 45.1916 114.9196 70 114.9196C 94.8084 114.9196 114.9196 94.8084 114.9196 70C 114.9196 45.1916 94.8084 25.0804 70 25.0804C 45.1916 25.0804 25.0804 45.1916 25.0804 70Z"></path></g></g></g><g id="g-root-cp_3_g-3_1hdthtbsdxlvl-stroke" data-item-order="-720680" transform="translate(434, 434)"><g id="cp_3_g-3_1hdthtbsdxlvl-stroke" fill="none" stroke-linecap="round" stroke-linejoin="round" stroke-miterlimit="4" stroke="#ffffff" stroke-width="2" stroke-opacity="1"><g><path d="M 346.7895 130C 379.5233 130 406 103.1371 406 70C 406 36.8629 379.5233 10 346.7895 10L 106 10L 106.9868 10.5003C 127.809 21.97 141.9408 44.3143 141.9408 70C 141.9408 95.6856 127.809 118.0299 106.9868 129.4996L 106 130L 346.7895 130Z"></path></g></g><g id="cp_3_g-3_1hdthtbsdxlvl-stroke" fill="none" stroke-linecap="round" stroke-linejoin="round" stroke-miterlimit="4" stroke="#ffffff" stroke-width="2" stroke-opacity="1"><g><path d="M 130 70C 130 103.1371 103.1371 130 70 130C 36.8629 130 10 103.1371 10 70C 10 36.8629 36.8629 10 70 10C 103.1371 10 130 36.8629 130 70ZM 25.0804 70C 25.0804 94.8084 45.1916 114.9196 70 114.9196C 94.8084 114.9196 114.9196 94.8084 114.9196 70C 114.9196 45.1916 94.8084 25.0804 70 25.0804C 45.1916 25.0804 25.0804 45.1916 25.0804 70Z"></path></g></g></g><g id="g-root-cp_2_g-2_18i6hkfsdxmoa-stroke" data-item-order="-720664" transform="translate(434, 278)"><g id="cp_2_g-2_18i6hkfsdxmoa-stroke" fill="none" stroke-linecap="round" stroke-linejoin="round" stroke-miterlimit="4" stroke="#ffffff" stroke-width="2" stroke-opacity="1"><g><path d="M 346.7895 130C 379.5233 130 406 103.1371 406 70C 406 36.8629 379.5233 10 346.7895 10L 106 10L 106.9868 10.5003C 127.809 21.97 141.9408 44.3143 141.9408 70C 141.9408 95.6856 127.809 118.0299 106.9868 129.4996L 106 130L 346.7895 130Z"></path></g></g><g id="cp_2_g-2_18i6hkfsdxmoa-stroke" fill="none" stroke-linecap="round" stroke-linejoin="round" stroke-miterlimit="4" stroke="#ffffff" stroke-width="2" stroke-opacity="1"><g><path d="M 130 70C 130 103.1371 103.1371 130 70 130C 36.8629 130 10 103.1371 10 70C 10 36.8629 36.8629 10 70 10C 103.1371 10 130 36.8629 130 70ZM 25.0804 70C 25.0804 94.8084 45.1916 114.9196 70 114.9196C 94.8084 114.9196 114.9196 94.8084 114.9196 70C 114.9196 45.1916 94.8084 25.0804 70 25.0804C 45.1916 25.0804 25.0804 45.1916 25.0804 70Z"></path></g></g></g><g id="g-root-cp_1_g-1_142zgj3sdxkar-stroke" data-item-order="-720648" transform="translate(434, 122)"><g id="cp_1_g-1_142zgj3sdxkar-stroke" fill="none" stroke-linecap="round" stroke-linejoin="round" stroke-miterlimit="4" stroke="#ffffff" stroke-width="2" stroke-opacity="1"><g><path d="M 346.7895 130C 379.5233 130 406 103.1371 406 70C 406 36.8629 379.5233 10 346.7895 10L 106 10L 106.9868 10.5003C 127.809 21.97 141.9408 44.3143 141.9408 70C 141.9408 95.6856 127.809 118.0299 106.9868 129.4996L 106 130L 346.7895 130Z"></path></g></g><g id="cp_1_g-1_142zgj3sdxkar-stroke" fill="none" stroke-linecap="round" stroke-linejoin="round" stroke-miterlimit="4" stroke="#ffffff" stroke-width="2" stroke-opacity="1"><g><path d="M 130 70C 130 103.1371 103.1371 130 70 130C 36.8629 130 10 103.1371 10 70C 10 36.8629 36.8629 10 70 10C 103.1371 10 130 36.8629 130 70ZM 25.0804 70C 25.0804 94.8084 45.1916 114.9196 70 114.9196C 94.8084 114.9196 114.9196 94.8084 114.9196 70C 114.9196 45.1916 94.8084 25.0804 70 25.0804C 45.1916 25.0804 25.0804 45.1916 25.0804 70Z"></path></g></g></g><g id="g-root-cp_0_g-0_v7cga7sdxl3g-stroke" data-item-order="-720630" transform="translate(38, 386)"><g id="cp_0_g-0_v7cga7sdxl3g-stroke" fill="none" stroke-linecap="round" stroke-linejoin="round" stroke-miterlimit="4" stroke="#ffffff" stroke-width="2" stroke-opacity="1"><g><path d="M 226 118C 226 177.6468 177.6468 226 118 226C 58.3532 226 10 177.6468 10 118C 10 58.3532 58.3532 10 118 10C 177.6468 10 226 58.3532 226 118ZM 31.4608 118C 31.4608 165.7943 70.2057 204.5392 118 204.5392C 165.7943 204.5392 204.5392 165.7943 204.5392 118C 204.5392 70.2057 165.7943 31.4608 118 31.4608C 70.2057 31.4608 31.4608 70.2057 31.4608 118Z"></path></g></g></g><g id="g-root-cp_1_g-1_1_qriy5rsdxlvp-stroke" data-item-order="-720618" transform="translate(211.10000610351562, 176)"><g id="cp_1_g-1_1_qriy5rsdxlvp-stroke" fill="none" stroke-linecap="round" stroke-linejoin="round" stroke-miterlimit="4" stroke="#484848" stroke-width="2" stroke-opacity="1"><g><path d="M 226.899994 16C 226.899994 19.3137 224.213694 22 220.899994 22C 217.586294 22 214.899994 19.3137 214.899994 16C 214.899994 12.6863 217.586294 10 220.899994 10C 224.213694 10 226.899994 12.6863 226.899994 16ZM 21.999994 224C 21.999994 227.3137 19.313694 230 15.999994 230C 12.686294 230 9.999994 227.3137 9.999994 224C 9.999994 220.6863 12.686294 218 15.999994 218C 19.313694 218 21.999994 220.6863 21.999994 224ZM 214.899994 16L 109.196294 16L 18.299994 218.5"></path></g></g></g><g id="g-root-cp_2_g-2_1_qriy5rsdxlvq-stroke" data-item-order="-720612" transform="translate(250, 332)"><g id="cp_2_g-2_1_qriy5rsdxlvq-stroke" fill="none" stroke-linecap="round" stroke-linejoin="round" stroke-miterlimit="4" stroke="#484848" stroke-width="2" stroke-opacity="1"><g><path d="M 188 16C 188 19.3137 185.3137 22 182 22C 178.6863 22 176 19.3137 176 16C 176 12.6863 178.6863 10 182 10C 185.3137 10 188 12.6863 188 16ZM 22 110.5C 22 113.8137 19.3137 116.5 16 116.5C 12.6863 116.5 10 113.8137 10 110.5C 10 107.1863 12.6863 104.5 16 104.5C 19.3137 104.5 22 107.1863 22 110.5ZM 176 16L 74 16L 19.5 105.62"></path></g></g></g><g id="g-root-cp_3_g-3_1_hvvxwvsdxmof-stroke" data-item-order="-720606" transform="translate(266, 488)"><g id="cp_3_g-3_1_hvvxwvsdxmof-stroke" fill="none" stroke-linecap="round" stroke-linejoin="round" stroke-miterlimit="4" stroke="#484848" stroke-width="2" stroke-opacity="1"><g><path d="M 172 16C 172 19.3137 169.3137 22 166 22C 162.6863 22 160 19.3137 160 16C 160 12.6863 162.6863 10 166 10C 169.3137 10 172 12.6863 172 16ZM 22 16C 22 19.3137 19.3137 22 16 22C 12.6863 22 10 19.3137 10 16C 10 12.6863 12.6863 10 16 10C 19.3137 10 22 12.6863 22 16ZM 160 16L 22 16"></path></g></g></g><g id="g-root-cp_4_g-4_1_mbpg1bsdxmo0-stroke" data-item-order="-720600" transform="translate(252.8984375, 544)"><g id="cp_4_g-4_1_mbpg1bsdxmo0-stroke" fill="none" stroke-linecap="round" stroke-linejoin="round" stroke-miterlimit="4" stroke="#484848" stroke-width="2" stroke-opacity="1"><g><path d="M 185.101563 116C 185.101563 119.3137 182.415263 122 179.101563 122C 175.787863 122 173.101563 119.3137 173.101563 116C 173.101563 112.6863 175.787863 110 179.101563 110C 182.415263 110 185.101563 112.6863 185.101563 116ZM 22.001563 16C 22.001563 19.3137 19.315263 22 16.001562 22C 12.687863 22 10.001563 19.3137 10.001563 16C 10.001563 12.6863 12.687863 10 16.001562 10C 19.315263 10 22.001563 12.6863 22.001563 16ZM 173.101563 116L 74.925763 116L 19.101563 21.1"></path></g></g></g><g id="g-root-cp_5_g-5_1_dgowvjsdxkax-stroke" data-item-order="-720594" transform="translate(210, 592.7999877929688)"><g id="cp_5_g-5_1_dgowvjsdxkax-stroke" fill="none" stroke-linecap="round" stroke-linejoin="round" stroke-miterlimit="4" stroke="#484848" stroke-width="2" stroke-opacity="1"><g><path d="M 228 223.200012C 228 226.513712 225.3137 229.200012 222 229.200012C 218.6863 229.200012 216 226.513712 216 223.200012C 216 219.886312 218.6863 217.200012 222 217.200012C 225.3137 217.200012 228 219.886312 228 223.200012ZM 22 16.000012C 22 19.313712 19.3137 22.000012 16 22.000012C 12.6863 22.000012 10 19.313712 10 16.000012C 10 12.686312 12.6863 10.000012 16 10.000012C 19.3137 10.000012 22 12.686312 22 16.000012ZM 216 223.200012L 114 223.200012L 18.5 21.430012"></path></g></g></g><g id="g-root-tx_flavored_1ltn33jsdi60w-stroke" data-item-order="0" transform="translate(578, 326)"></g><g id="g-root-ic_dish_v7cjfzsdgrur-stroke" data-item-order="0" transform="translate(470, 314)"><g id="ic_dish_v7cjfzsdgrur-stroke" fill="none" stroke-linecap="round" stroke-linejoin="round" stroke-miterlimit="4" stroke="#1eabda" stroke-width="2" stroke-opacity="1"><g><path d="M 13.374001 15.908C 13.373312 18.222294 17.530998 20.098562 22.66 20.098562C 27.789003 20.098562 31.946688 18.222294 31.946001 15.908C 31.946688 13.593707 27.789003 11.717438 22.66 11.717438C 17.530998 11.717438 13.373312 13.593707 13.374001 15.908M 15.624001 24.557999C 14.213022 23.245399 13.40012 21.412937 13.374 19.486L 13.374001 15.908M 31.945999 15.908L 31.945999 19.486M 51.285999 34.709999C 54.376221 35.975361 56.491966 38.871361 56.757999 42.200001C 56.757999 49.972 46.557999 56.273998 34 56.273998C 21.442001 56.273998 11.242 49.98 11.242 42.200001C 11.377896 39.748505 12.689741 37.51368 14.764 36.200001M 23.944 42.599998C 22.862 42.762001 23.6 42.639999 22.487999 42.470001C 16.812 41.608002 11.322001 34.922001 16.688 30.086C 19.391659 27.575035 23.081627 26.413841 26.736 26.924C 28.975595 27.500555 31.173342 28.228905 33.313999 29.104M 32.085999 32.417999C 32.500397 30.192799 33.630379 28.163889 35.304001 26.639999C 38.279999 23.959999 43.276001 22 47.066002 24.181999C 47.89801 24.721519 48.644894 25.38212 49.282001 26.142C 51.27301 28.210386 52.084751 31.144388 51.440002 33.942001C 51.151348 36.582371 48.928066 38.58625 46.271999 38.599998M 33.664001 51.054001C 26.66 50 19.886 41.739998 26.507999 35.774002C 30.18 32.468002 36.344002 30.042 41.017998 32.742001C 42.044899 33.407017 42.967018 34.221283 43.753998 35.157997C 46.335999 37.945999 48.153999 40.958 46.416 44.773998C 44.074486 49.510101 38.845711 52.085125 33.664001 51.053997ZM 30.586 40.470001C 30.586 41.298428 31.257574 41.970001 32.085999 41.970001C 32.914429 41.970001 33.585999 41.298428 33.585999 40.470001C 33.585999 39.641571 32.914429 38.970001 32.085999 38.970001C 31.257574 38.970001 30.586 39.641571 30.586 40.470001M 38.386002 39.09C 38.386002 39.918427 39.057571 40.59 39.886002 40.59C 40.714428 40.59 41.386002 39.918427 41.386002 39.09C 41.386002 38.261574 40.714428 37.59 39.886002 37.59C 39.057571 37.59 38.386002 38.261574 38.386002 39.09M 44.099998 30.916C 44.100002 31.744429 44.771572 32.416 45.600002 32.416C 46.428429 32.416 47.100002 31.744429 47.100002 30.916C 47.100002 30.087574 46.428429 29.416 45.600002 29.416C 44.771572 29.416 44.100002 30.087574 44.100002 30.916M 39.886002 27.916C 39.886002 28.744427 40.557571 29.416 41.386002 29.416C 42.214428 29.416 42.886002 28.744427 42.886002 27.916C 42.886002 27.087574 42.214428 26.416 41.386002 26.416C 40.557571 26.416 39.886002 27.087574 39.886002 27.916M 23.709999 30.916C 23.709999 31.744429 24.381573 32.416 25.209999 32.416C 26.038427 32.416 26.710001 31.744429 26.710001 30.916C 26.710001 30.087574 26.038427 29.416 25.209999 29.416C 24.381573 29.416 23.709999 30.087574 23.709999 30.916M 18.804001 34.709999C 18.804001 35.538429 19.475574 36.209999 20.304001 36.209999C 21.132427 36.209999 21.804001 35.538429 21.804001 34.709999C 21.804001 33.881573 21.132427 33.209999 20.304001 33.209999C 19.475574 33.209999 18.804001 33.881573 18.804001 34.709999M 35.059998 45.074001C 35.060001 45.902428 35.731575 46.574001 36.560001 46.574001C 37.388428 46.574001 38.060001 45.902428 38.060001 45.074001C 38.060001 44.245575 37.388428 43.574001 36.560001 43.574001C 35.731575 43.574001 35.060001 44.245575 35.060001 45.074001"></path></g></g></g><g id="g-root-ic_pain_73wxbsdi51q-stroke" data-item-order="0" transform="translate(117, 422)"><g id="ic_pain_73wxbsdi51q-stroke" fill="none" stroke-linecap="round" stroke-linejoin="round" stroke-miterlimit="4" stroke="#ffe60a" stroke-width="2" stroke-opacity="1"><g><path d="M 40 11.4225C 45.410477 11.414555 50.711044 12.949569 55.279999 15.8475C 67.154999 23.375 68.029999 38.922501 58.567501 50.289997C 53.15332 56.792465 47.192387 62.819473 40.75 68.304993C 40.315041 68.665665 39.684959 68.665665 39.25 68.305C 32.806728 62.820431 26.845716 56.793343 21.432501 50.290001C 11.9725 38.922501 12.845 23.375 24.719999 15.8475C 29.288952 12.949569 34.58952 11.414555 40 11.4225ZM 30 28.925001L 32.25 49.200001C 32.390179 50.466618 33.460648 51.425087 34.735001 51.424999L 45.260002 51.424999C 46.534351 51.425087 47.60482 50.466618 47.744999 49.200001L 49.172501 36.357502M 45 21.425001L 30 21.425001C 27.928932 21.425001 26.25 23.103931 26.25 25.175001C 26.25 27.246069 27.928932 28.925001 30 28.925001L 40 28.925001C 40.000206 30.363392 40.619873 31.732023 41.700649 32.681175C 42.781429 33.630329 44.218628 34.068054 45.645 33.8825C 46.531685 35.453602 48.195957 36.42522 50 36.424999L 50 37.674999C 50 39.055714 51.119289 40.174999 52.5 40.174999C 53.880711 40.174999 55 39.055714 55 37.674999L 55 31.424999C 55 25.902153 50.522846 21.425001 45 21.425001Z"></path></g></g></g><g id="g-root-tx_pastries_1upa3cfsdi4gf-stroke" data-item-order="0" transform="translate(578, 290)"></g><g id="g-root-tx_brewings_1cymjxrsdgphl-stroke" data-item-order="0" transform="translate(578, 446)"></g><g id="g-root-ic_orde_90vhwvsdfcw3-stroke" data-item-order="0" transform="translate(470, 470)"><g id="ic_orde_90vhwvsdfcw3-stroke" fill="none" stroke-linecap="round" stroke-linejoin="round" stroke-miterlimit="4" stroke="#4e88e7" stroke-width="2" stroke-opacity="1"><g><path d="M 20.674 33.585999L 20.674 39.085999M 20.674 45.085999L 20.674 46.585999C 20.674 48.242855 22.017147 49.586002 23.674 49.586002L 25.174 49.585999M 31.174 49.585999L 36.674 49.585999M 44.753998 32.351997L 53.753998 32.351997C 53.753998 32.351997 56.753998 32.351997 56.753998 35.351997L 56.753998 53.351997C 56.753998 53.351997 56.753998 56.351997 53.753998 56.351997L 44.753998 56.351997C 44.753998 56.351997 41.753998 56.351997 41.753998 53.351997L 41.753998 35.351997C 41.753998 35.351997 41.753998 32.351997 44.753998 32.351997M 41.945999 50.75L 56.754002 50.75M 12.384 24.313999L 13.68 26.846001C 14.279093 28.017784 15.48395 28.755373 16.799999 28.756001L 31.832001 28.756001C 33.14949 28.756876 34.356255 28.019066 34.956001 26.846001L 36.251999 24.313999M 11.246 24.313999L 37.393997 24.313999M 14.087999 24.313999C 14.088175 18.663147 18.669147 14.082315 24.32 14.082315C 29.970856 14.082315 34.551826 18.663147 34.552002 24.313999M 24.32 14.082L 24.32 11.648"></path></g></g></g><g id="g-root-tx_scobyspo_92qx67sdi491-stroke" data-item-order="0" transform="translate(80, 494)"></g><g id="g-root-tx_interact_zn61kfsdgr2i-stroke" data-item-order="0" transform="translate(578, 482)"></g><g id="g-root-tx_diversek_mdkygfsdi5tw-stroke" data-item-order="0" transform="translate(578, 170)"></g><g id="g-root-ic_fill_18it1tbsdi4g1-stroke" data-item-order="0" transform="translate(470, 158)"><g id="ic_fill_18it1tbsdi4g1-stroke" fill="none" stroke-linecap="round" stroke-linejoin="round" stroke-miterlimit="4" stroke="#92bd39" stroke-width="2" stroke-opacity="1"><g><path d="M 13.5 38.370003L 13.5 41.370003L 11.5 46.869999L 11.5 54.369999C 11.5 55.474571 12.395431 56.369999 13.5 56.369999L 19.5 56.369999C 20.604568 56.369999 21.5 55.474571 21.5 54.369999L 21.5 46.869999L 19.5 41.370003L 19.5 38.370003M 54.5 38.370003L 54.5 41.370003L 56.5 46.869999L 56.5 54.369999C 56.5 55.474571 55.604568 56.369999 54.5 56.369999L 48.5 56.369999C 47.395432 56.369999 46.5 55.474571 46.5 54.369999L 46.5 46.869999L 48.5 41.370003L 48.5 38.370003M 31 38.370003L 31 41.370003L 29 46.869999L 29 54.369999C 29 55.474571 29.89543 56.369999 31 56.369999L 37 56.369999C 38.104568 56.369999 39 55.474571 39 54.369999L 39 46.869999L 37 41.370003L 37 38.370003M 25.5 11.63L 25.5 16.959999C 25.5 18.064569 26.39543 18.959999 27.5 18.959999L 29.318001 18.959999L 31 22.959999L 37 22.959999L 38.681999 18.959999L 40.5 18.959999C 41.604568 18.959999 42.5 18.064569 42.5 16.959999L 42.5 11.63M 30.636 42.369999L 37.363998 42.369999M 36.534 31.054001C 36.533997 32.453491 35.39949 33.587997 34 33.587997C 32.60051 33.587997 31.466 32.453491 31.466 31.053999C 32.013382 29.256922 32.870979 27.569477 34 26.067999C 35.129021 27.569477 35.986618 29.256922 36.534 31.053999Z"></path></g></g></g><g id="g-root-tx_socialen_58hnzsddyq0-stroke" data-item-order="0" transform="translate(578, 794)"></g><g id="g-root-tx_relaxand_142zjovsdfc3r-stroke" data-item-order="0" transform="translate(578, 590)"></g><g id="g-root-ic_desk_1lviicvsddwy1-stroke" data-item-order="0" transform="translate(470, 626)"><g id="ic_desk_1lviicvsddwy1-stroke" fill="none" stroke-linecap="round" stroke-linejoin="round" stroke-miterlimit="4" stroke="#7f64ea" stroke-width="2" stroke-opacity="1"><g><path d="M 55.228001 40.32C 55.091351 40.727402 54.709709 41.001961 54.279999 41.001999L 13.72 41.001999C 13.290291 41.001961 12.908648 40.727402 12.772 40.32L 11.438 36.32C 11.335568 36.01461 11.386513 35.678577 11.57486 35.417274C 11.763206 35.155968 12.06589 35.001385 12.388 35.001999L 55.612 35.001999C 55.934109 35.001385 56.236794 35.155968 56.42514 35.417274C 56.613487 35.678577 56.664433 36.01461 56.562 36.32ZM 16 41.001999L 13 57.001999M 52 41.001999L 55 57.001999M 31.757999 12.76C 34.106827 10.449644 37.879211 10.465441 40.208607 12.795387C 42.538002 15.125334 42.55291 18.897717 40.242001 21.246ZM 40.472 13C 43.52581 13 46.001102 15.476189 46 18.529999L 46 31M 29 29L 19 29C 17.343145 29 16 30.343147 16 32C 16 33.656853 17.343145 35 19 35L 29 35ZM 31 23.001999L 29 23.001999M 31 29.002001L 29 29.002001M 29 23L 19 23C 17.343145 23 16 24.343147 16 26C 16 27.656855 17.343145 29 19 29L 29 29ZM 50 35L 42 35C 42 32.790863 43.790859 31 46 31C 48.209141 31 50 32.790863 50 35Z"></path></g></g></g><g id="g-root-tx_relaxand_mcc0a7sdfbb5-stroke" data-item-order="0" transform="translate(578, 650)"></g><g id="g-root-tx_explorin_90ver3sdxl36-stroke" data-item-order="0" transform="translate(170, 38)"></g><g id="g-root-tx_socialen_4l1zsfsddxxr-stroke" data-item-order="0" transform="translate(578, 758)"></g><g id="g-root-ic_2_58ei7sdxlvv-stroke" data-item-order="0" transform="translate(470, 782)"><g id="ic_2_58ei7sdxlvv-stroke" fill="none" stroke-linecap="round" stroke-linejoin="round" stroke-miterlimit="4" stroke="#ba5de5" stroke-width="2" stroke-opacity="1"><g><path d="M 46.123402 35.306198C 47.6082 35.306198 48.812 34.1026 48.812 32.617599C 48.812 31.132799 47.6082 29.92898 46.123402 29.92898C 44.638401 29.92898 43.434601 31.132799 43.434601 32.617599C 43.434601 34.1026 44.638401 35.306198 46.123402 35.306198ZM 34.000198 25.92572C 35.485001 25.92572 36.688801 24.72196 36.688801 23.237061C 36.688801 21.752159 35.485001 20.54842 34.000198 20.54842C 32.515198 20.54842 31.311399 21.752159 31.311399 23.237061C 31.311399 24.72196 32.515198 25.92572 34.000198 25.92572ZM 21.87616 35.306198C 20.39126 35.306198 19.187519 34.1026 19.187519 32.617599C 19.187519 31.132799 20.39126 29.92898 21.87616 29.92898C 23.361061 29.92898 24.564819 31.132799 24.564819 32.617599C 24.564819 34.1026 23.361061 35.306198 21.87616 35.306198ZM 50.828602 40.011398C 50.828602 38.763599 50.332802 37.566799 49.450401 36.684402C 48.568001 35.802002 47.371201 35.306198 46.123402 35.306198C 44.875599 35.306198 43.678799 35.802002 42.796398 36.684402C 41.914001 37.566799 41.418198 38.763599 41.418198 40.011398L 41.418198 42.027802L 43.434799 42.027802L 44.106998 47.405201L 48.139801 47.405201L 48.812 42.027802L 50.828602 42.027802L 50.828602 40.011398ZM 38.7052 30.6308C 38.7052 29.382999 38.2094 28.186239 37.327 27.30386C 36.444801 26.421459 35.248001 25.92576 34 25.92576C 32.752197 25.92576 31.555401 26.421459 30.673 27.30386C 29.79064 28.186239 29.29492 29.382999 29.29492 30.6308L 29.29492 32.6474L 31.311399 32.6474L 31.983601 38.024597L 36.016602 38.024597L 36.688801 32.6474L 38.7052 32.6474L 38.7052 30.6308ZM 17.17108 40.011398C 17.17108 38.763599 17.6668 37.566799 18.549179 36.684402C 19.43158 35.802002 20.62834 35.306198 21.876221 35.306198C 23.1241 35.306198 24.320881 35.802002 25.20326 36.684402C 26.08564 37.566799 26.58136 38.763599 26.58136 40.011398L 26.58136 42.027802L 24.56488 42.027802L 23.8927 47.405201L 19.859741 47.405201L 19.18758 42.027802L 17.17108 42.027802L 17.17108 40.011398ZM 13.12868 46.061199C 12.26102 46.839199 11.787598 47.679199 11.787598 48.555599C 11.787598 52.571602 21.732239 55.8274 33.999599 55.8274C 46.266998 55.8274 56.211601 52.571602 56.211601 48.555599C 56.211601 47.715 55.776001 46.908001 54.974998 46.157001M 55.514198 39.927601C 55.969398 38.155602 56.211601 36.298203 56.211601 34.384201C 56.211601 22.11706 46.266998 12.1726 34 12.1726C 21.732899 12.1726 11.788452 22.11706 11.788452 34.384201C 11.788452 36.298203 12.03054 38.155602 12.48578 39.927601"></path></g></g></g><g id="g-root-tx_kombucha_qtegkvsdi51n-stroke" data-item-order="0" transform="translate(578, 134)"></g></g></g></svg>