<?xml version="1.0" encoding="utf-8" standalone="yes"?>
<!DOCTYPE svg PUBLIC "-//W3C//DTD SVG 1.1//EN" "http://www.w3.org/Graphics/SVG/1.1/DTD/svg11.dtd">
<svg style="fill:none;stroke:none;fill-rule:evenodd;clip-rule:evenodd;stroke-linecap:round;stroke-linejoin:round;stroke-miterlimit:1.5;" version="1.1" xmlns="http://www.w3.org/2000/svg" xmlns:xlink="http://www.w3.org/1999/xlink" width="756" height="480" viewBox="0 0 756 480"><style class="text-font-style fontImports" data-font-family="Montserrat">@import url(https://fonts.googleapis.com/css2?family=Montserrat:wght@400;700&amp;amp;display=block);</style><g id="items" style="isolation: isolate"><g id="blend" style="mix-blend-mode: normal"><g id="g-root-sy_3_cu_qv9vtrulhq13-fill" data-item-order="-92154" transform="translate(362, 182)"><g id="sy_3_cu_qv9vtrulhq13-fill-merged" stroke="none" fill="#fff8b6" fill-opacity="1"><g><path d="M10 226.009C39.147 204.116 58 169.26 58 130C58 90.74 39.147 55.884 10 33.991C30.056 18.927 54.985 10 82 10C148.274 10 202 63.726 202 130C202 196.274 148.274 250 82 250C54.985 250 30.056 241.073 10 226.009"></path></g></g></g><g id="g-root-sy_1_cu_mfgdpbulhqtc-fill" data-item-order="-92150" transform="translate(170, 182)"><g id="sy_1_cu_mfgdpbulhqtc-fill-merged" stroke="none" fill="#fff8b6" fill-opacity="1"><g><path d="M202 33.991C172.853 55.884 154 90.74 154 130C154 169.26 172.853 204.116 202 226.009C181.944 241.073 157.015 250 130 250C63.726 250 10 196.274 10 130C10 63.726 63.726 10 130 10C157.015 10 181.944 18.927 202 33.991"></path></g></g></g><g id="g-root-sy_2_cu_mfgdpbulhqtd-fill" data-item-order="-92146" transform="translate(314, 206)"><g id="sy_2_cu_mfgdpbulhqtd-fill-merged" stroke="none" fill="#ffe60a" fill-opacity="1"><g><path d="M58 202.018C87.147 180.125 106 145.268 106 106.009C106 66.749 87.147 31.893 58 10C28.853 31.893 10 66.749 10 106.009C10 145.268 28.853 180.125 58 202.018"></path></g></g></g><g id="g-root-tx_theheart_94mcf3ulhp8k-fill" data-item-order="0" transform="translate(110, 38)"><g id="tx_theheart_94mcf3ulhp8k-fill-merged" stroke="none" fill="#484848" fill-opacity="1"><g><text style="font: bold 25px Montserrat, sans-serif; white-space: pre;" font-weight="bold" font-size="25px" font-family="Montserrat, sans-serif"><tspan x="15.18" y="38.67" dominant-baseline="ideographic">The SCOBY Spot: Where Wellness Meets </tspan><tspan x="68.94" y="68.67" dominant-baseline="ideographic">Community in Downtown Ithaca</tspan></text></g></g></g><g id="g-root-tx_communit_1cymjxbullyix-fill" data-item-order="0" transform="translate(248, 122)"><g id="tx_communit_1cymjxbullyix-fill-merged" stroke="none" fill="#484848" fill-opacity="1"><g><text style="font: 20px Montserrat, sans-serif; white-space: pre;" font-size="20px" font-family="Montserrat, sans-serif"><tspan x="14.65" y="34" dominant-baseline="ideographic">Community Wellness </tspan><tspan x="99.74" y="58" dominant-baseline="ideographic">Hub</tspan></text></g></g></g><g id="g-root-tx_kombucha_dkfujjulhogb-fill" data-item-order="0" transform="translate(14, 266)"><g id="tx_kombucha_dkfujjulhogb-fill-merged" stroke="none" fill="#484848" fill-opacity="1"><g><text style="font: 20px Montserrat, sans-serif; white-space: pre;" font-size="20px" font-family="Montserrat, sans-serif"><tspan x="22.45" y="34" dominant-baseline="ideographic">Kombucha &amp; </tspan><tspan x="89.52" y="58" dominant-baseline="ideographic">Pastry </tspan><tspan x="59.48" y="82" dominant-baseline="ideographic">Offerings</tspan></text></g></g></g><g id="g-root-ic_rest_v4un33ullwjr-fill" data-item-order="0" transform="translate(230, 278)"></g><g id="g-root-ic_drin_1lr56qnullwjp-fill" data-item-order="0" transform="translate(338, 278)"></g><g id="g-root-ic_lapt_8zc67ulhq19-fill" data-item-order="0" transform="translate(446, 278)"></g><g id="g-root-tx_relaxstu_dkfujjulhoga-fill" data-item-order="0" transform="translate(566, 278)"><g id="tx_relaxstu_dkfujjulhoga-fill-merged" stroke="none" fill="#484848" fill-opacity="1"><g><text style="font: 20px Montserrat, sans-serif; white-space: pre;" font-size="20px" font-family="Montserrat, sans-serif"><tspan x="12" y="34" dominant-baseline="ideographic">Relax &amp; Study </tspan><tspan x="12" y="58" dominant-baseline="ideographic">Space</tspan></text></g></g></g><g id="g-root-sy_3_cu_qv9vtrulhq13-stroke" data-item-order="-92154" transform="translate(362, 182)"><g id="sy_3_cu_qv9vtrulhq13-stroke" fill="none" stroke-linecap="round" stroke-linejoin="round" stroke-miterlimit="4" stroke="#ffffff" stroke-width="2" stroke-opacity="1"><g><path d="M 10 226.009C 39.147 204.116 58 169.26 58 130C 58 90.74 39.147 55.884 10 33.991C 30.056 18.927 54.985 10 82 10C 148.274 10 202 63.726 202 130C 202 196.274 148.274 250 82 250C 54.985 250 30.056 241.073 10 226.009Z"></path></g></g></g><g id="g-root-sy_1_cu_mfgdpbulhqtc-stroke" data-item-order="-92150" transform="translate(170, 182)"><g id="sy_1_cu_mfgdpbulhqtc-stroke" fill="none" stroke-linecap="round" stroke-linejoin="round" stroke-miterlimit="4" stroke="#ffffff" stroke-width="2" stroke-opacity="1"><g><path d="M 202 33.991C 172.853 55.884 154 90.74 154 130C 154 169.26 172.853 204.116 202 226.009C 181.944 241.073 157.015 250 130 250C 63.726 250 10 196.274 10 130C 10 63.726 63.726 10 130 10C 157.015 10 181.944 18.927 202 33.991Z"></path></g></g></g><g id="g-root-sy_2_cu_mfgdpbulhqtd-stroke" data-item-order="-92146" transform="translate(314, 206)"><g id="sy_2_cu_mfgdpbulhqtd-stroke" fill="none" stroke-linecap="round" stroke-linejoin="round" stroke-miterlimit="4" stroke="#ffffff" stroke-width="2" stroke-opacity="1"><g><path d="M 58 202.018C 87.147 180.125 106 145.268 106 106.009C 106 66.749 87.147 31.893 58 10C 28.853 31.893 10 66.749 10 106.009C 10 145.268 28.853 180.125 58 202.018Z"></path></g></g></g><g id="g-root-tx_theheart_94mcf3ulhp8k-stroke" data-item-order="0" transform="translate(110, 38)"></g><g id="g-root-tx_communit_1cymjxbullyix-stroke" data-item-order="0" transform="translate(248, 122)"></g><g id="g-root-tx_kombucha_dkfujjulhogb-stroke" data-item-order="0" transform="translate(14, 266)"></g><g id="g-root-ic_rest_v4un33ullwjr-stroke" data-item-order="0" transform="translate(230, 278)"><g id="ic_rest_v4un33ullwjr-stroke" fill="none" stroke-linecap="round" stroke-linejoin="round" stroke-miterlimit="4" stroke="#e0cb15" stroke-width="2" stroke-opacity="1"><g><path d="M 25.004 38.5L 25.004 32.375999M 48.835999 27.5C 50.52882 27.496737 52.036293 26.428211 52.599998 24.832001C 53.517021 22.358669 52.950356 19.579205 51.138268 17.662273C 49.326183 15.74534 46.582947 15.023399 44.062 15.8C 42.584515 12.930399 39.517303 11.24037 36.302193 11.524353C 33.087086 11.808336 30.363607 14.009844 29.412001 17.094C 27.202501 15.276592 24.107502 14.991979 21.603605 16.375946C 19.099709 17.759912 17.69425 20.532043 18.057762 23.369774C 18.421276 26.207504 20.480106 28.535862 23.251999 29.243999C 24.134747 32.645542 27.406893 34.861877 30.893171 34.419628C 34.379448 33.977375 36.994553 31.014214 37 27.5ZM 48.754002 34.893997L 51.153999 34.893997C 52.004517 34.893997 52.694 35.583481 52.694 36.433998L 52.694 40.284C 52.694 41.134518 52.004517 41.823997 51.153999 41.823997L 48.754002 41.823997ZM 38 56.5C 39.656853 56.5 41 55.156857 41 53.5C 41 48.174 34.284 43.858002 26 43.858002C 17.716 43.858002 11 48.174 11 53.5C 11 55.156857 12.343145 56.5 14 56.5ZM 21.504 44.298L 21.504 50M 30.504 44.298L 30.504 50M 24.254 22.284C 24.254002 22.698214 24.589787 23.034 25.004002 23.034C 25.418213 23.034 25.754002 22.698214 25.754002 22.284C 25.754002 21.869787 25.418213 21.534 25.004002 21.534C 24.589787 21.534 24.254002 21.869787 24.254002 22.284M 30.754 26.108C 30.754 26.522215 31.089787 26.858 31.504 26.858C 31.918215 26.858 32.253998 26.522215 32.253998 26.108C 32.253998 25.693787 31.918215 25.358002 31.504 25.358002C 31.089787 25.358002 30.754 25.693787 30.754 26.108M 35.753998 19.014C 35.754002 19.428215 36.089787 19.764 36.504002 19.764C 36.918213 19.764 37.254002 19.428215 37.254002 19.014C 37.254002 18.599787 36.918213 18.264 36.504002 18.264C 36.089787 18.264 35.754002 18.599787 35.754002 19.014M 44.209999 55.751999L 45.346001 55.751999C 47.364697 55.74979 49 54.112698 49 52.093998L 49 46.127998L 53 46.127998C 55.209141 46.127998 57 44.337139 57 42.127998L 57 34.587997C 57 32.37886 55.209141 30.587999 53 30.587999L 49 30.587999L 49 27.496"></path></g></g></g><g id="g-root-ic_drin_1lr56qnullwjp-stroke" data-item-order="0" transform="translate(338, 278)"><g id="ic_drin_1lr56qnullwjp-stroke" fill="none" stroke-linecap="round" stroke-linejoin="round" stroke-miterlimit="4" stroke="#ab9e2b" stroke-width="2" stroke-opacity="1"><g><path d="M 11.916 34C 11.916 46.196655 21.803345 56.084 34 56.084C 46.196655 56.084 56.084 46.196655 56.084 34C 56.084 21.803345 46.196655 11.916 34 11.916C 21.803345 11.916 11.916 21.803345 11.916 34M 30.360001 21.194C 30.360003 23.204317 31.989685 24.834 34 24.834C 36.010319 24.834 37.639999 23.204317 37.639999 21.194C 37.639999 19.183685 36.010319 17.554001 34 17.554001C 31.989685 17.554001 30.360003 19.183685 30.360003 21.194M 39.082001 39.595001L 39.082001 33.913002C 41.364403 33.7854 43.812599 33.689598 46.1078 33.199402C 47.388802 32.9258 48.012402 31.551001 47.552601 30.3246C 47.092602 29.09812 45.723 28.48468 44.441002 28.75256C 41.070999 29.456579 37.230801 29.30822 34 29.30822C 30.769199 29.30822 26.928921 29.45664 23.55904 28.752621C 22.27688 28.48476 20.90736 29.0982 20.447441 30.3246C 19.98752 31.551201 20.611141 32.926003 21.89212 33.199402C 24.18722 33.689598 26.635139 33.7854 28.91754 33.913002L 28.91754 39.595001C 28.91754 39.751801 28.930861 39.905602 28.95644 40.055L 27.334061 47.644402C 27.025841 49.086201 28.125099 50.4454 29.59952 50.4454C 30.693399 50.4454 31.638 49.680199 31.865601 48.610401L 33.205799 42.305401L 34.793999 42.305401L 36.134201 48.610401C 36.361603 49.680199 37.3064 50.4454 38.4002 50.4454C 39.874599 50.4454 40.973801 49.086201 40.6656 47.644402L 39.043198 40.0546C 39.0686 39.905197 39.082001 39.751602 39.082001 39.595001Z"></path></g></g></g><g id="g-root-ic_lapt_8zc67ulhq19-stroke" data-item-order="0" transform="translate(446, 278)"><g id="ic_lapt_8zc67ulhq19-stroke" fill="none" stroke-linecap="round" stroke-linejoin="round" stroke-miterlimit="4" stroke="#e0cb15" stroke-width="2" stroke-opacity="1"><g><path d="M 53.6796 37.099998C 52.080399 37.099998 50.681 38.5 50.681 40.099998L 50.681 43.099998C 50.681 43.900002 50.081402 44.700001 49.081799 44.700001L 19.09634 44.700001C 18.296719 44.700001 17.497101 44.099998 17.497101 43.099998L 17.497101 40.099998C 17.497101 38.5 16.09778 37.099998 14.49856 37.099998C 12.89932 37.099998 11.5 38.5 11.5 40.099998L 11.5 47.099998C 11.5 50.5 14.09874 53.099998 17.497101 53.099998L 50.481201 53.099998C 53.879601 53.099998 56.478199 50.5 56.478199 47.099998L 56.478199 40.099998C 56.6782 38.299999 55.478802 37.099998 53.6796 37.099998ZM 17.5 53.099998L 17.5 56.500198M 50.5 53.099998L 50.5 56.500198M 14.7002 37.099998C 14.7002 32.099998 18.700199 28.1001 23.700199 28.1001L 26.700199 28.1001M 34 44.671799L 34 38.099998M 54.216999 23.5L 54.216999 13.09998C 54.216999 12.29998 53.417 11.5 52.617001 11.5L 36.617001 11.5C 35.817001 11.5 35.016998 12.29998 35.016998 13.09998L 35.016998 23.5L 54.216999 23.5ZM 56.217201 30.1C 55.8172 30.700001 55.417198 30.9 54.8172 30.9L 34.417198 30.9C 33.8172 30.9 33.417198 30.700001 33.0172 30.1C 32.8172 29.69998 32.617203 29.1 32.8172 28.5L 35.0172 23.5L 54.217201 23.5L 56.417198 28.5C 56.617199 29.1 56.417198 29.69998 56.217201 30.1Z"></path></g></g></g><g id="g-root-tx_relaxstu_dkfujjulhoga-stroke" data-item-order="0" transform="translate(566, 278)"></g></g></g></svg>