<?xml version="1.0" encoding="utf-8" standalone="yes"?>
<!DOCTYPE svg PUBLIC "-//W3C//DTD SVG 1.1//EN" "http://www.w3.org/Graphics/SVG/1.1/DTD/svg11.dtd">
<svg style="fill:none;stroke:none;fill-rule:evenodd;clip-rule:evenodd;stroke-linecap:round;stroke-linejoin:round;stroke-miterlimit:1.5;" version="1.1" xmlns="http://www.w3.org/2000/svg" xmlns:xlink="http://www.w3.org/1999/xlink" width="936" height="812" viewBox="0 0 936 812"><style class="text-font-style fontImports" data-font-family="Montserrat">@import url(https://fonts.googleapis.com/css2?family=Montserrat:wght@400;700&amp;amp;display=block);</style><g id="items" style="isolation: isolate"><g id="blend" style="mix-blend-mode: normal"><g id="g-root-cp_5_g-5_18k2p9xwj998m-fill" data-item-order="-635798" transform="translate(541.3447265625, 237.3828125)"><g id="cp_5_g-5_18k2p9xwj998m-fill-merged" stroke="none" fill="#c8ffe5" fill-opacity="1"><g><path d="M174.655 78.938 V61.853C174.655 60.798 176.078 60.462 176.55 61.406L210.432 117.17C210.572 117.451 210.572 117.783 210.432 118.064L176.55 173.828C176.078 174.772 174.655 174.436 174.655 173.381 V156.614C137.458 156.398 101.323 144.127 71.677 121.63C41.766 98.93 20.104 67.066 10 30.902L84.809 10C90.35 29.833 102.229 47.307 118.633 59.756C134.771 72.003 154.415 78.723 174.655 78.938"></path></g></g></g><g id="g-root-cp_4_g-4_zofp11wj9a1b-fill" data-item-order="-635794" transform="translate(450, 110)"><g id="cp_4_g-4_zofp11wj9a1b-fill-merged" stroke="none" fill="#dce9ff" fill-opacity="1"><g><path d="M115.186 45.912C85.065 22.631 48.07 10 10 10 V87.674C30.878 87.674 51.166 94.601 67.685 107.368C84.204 120.136 96.02 138.024 101.282 158.228L105.199 157.208L176.115 137.393C166.361 101.068 144.964 68.928 115.186 45.912"></path></g></g></g><g id="g-root-cp_3_g-3_144975hwj9a0w-fill" data-item-order="-635790" transform="translate(278, 110)"><g id="cp_3_g-3_144975hwj9a0w-fill-merged" stroke="none" fill="#d1f4ff" fill-opacity="1"><g><path d="M10 182C10 136.383 28.121 92.634 60.378 60.378C92.634 28.121 136.383 10 182 10 V87.674C156.983 87.674 132.991 97.612 115.301 115.301C97.612 132.991 87.674 156.983 87.674 182 H10"></path></g></g></g><g id="g-root-cp_2_g-2_v98nzpwj97nt-fill" data-item-order="-635786" transform="translate(278, 282)"><g id="cp_2_g-2_v98nzpwj97nt-fill-merged" stroke="none" fill="#e9ffb9" fill-opacity="1"><g><path d="M182 182C159.413 182 137.046 177.551 116.178 168.907C95.31 160.263 76.349 147.594 60.378 131.622C44.406 115.651 31.736 96.69 23.093 75.822C14.449 54.954 10 32.587 10 10 H87.674C87.674 22.387 90.114 34.653 94.854 46.097C99.594 57.541 106.542 67.94 115.301 76.699C124.06 85.458 134.459 92.406 145.903 97.146C157.347 101.886 169.613 104.326 182 104.326 V182"></path></g></g></g><g id="g-root-cp_1_g-1_qtf5v9wj98g2-fill" data-item-order="-635782" transform="translate(450.00201416015625, 258.28515625)"><g id="cp_1_g-1_qtf5v9wj98g2-fill-merged" stroke="none" fill="#ebebeb" fill-opacity="1"><g><path d="M101.343 10C104.981 23.948 105.301 38.456 102.419 52.579C99.536 66.703 93.454 79.979 84.641 91.385C75.827 102.793 64.517 112.028 51.577 118.382C38.638 124.736 24.415 128.04 10 128.041 V205.715C36.287 205.714 62.223 199.689 85.816 188.102C109.41 176.516 130.035 159.675 146.105 138.875C154.506 128.003 161.545 116.2 167.102 103.731C165.728 102.751 164.367 101.75 163.02 100.727C133.109 78.027 111.447 46.164 101.343 10"></path></g></g></g><g id="g-root-ic_1_408s5wjc0ej-fill" data-item-order="0" transform="translate(522, 165)"></g><g id="g-root-ic_jeng_1414tpxwjdfdb-fill" data-item-order="0" transform="translate(330, 165)"></g><g id="g-root-tx_iterativ_hxs5mdwj998r-fill" data-item-order="0" transform="translate(290, 38)"><g id="tx_iterativ_hxs5mdwj998r-fill-merged" stroke="none" fill="#484848" fill-opacity="1"><g><text style="font: bold 25px Montserrat, sans-serif; white-space: pre;" font-weight="bold" font-size="25px" font-family="Montserrat, sans-serif"><tspan x="16.39" y="43" dominant-baseline="ideographic">Reflection for the Future</tspan></text></g></g></g><g id="g-root-ic_refr_1q5qfzpwjaosr-fill" data-item-order="0" transform="translate(606, 296)"></g><g id="g-root-tx_investig_1qeh379wj9823-fill" data-item-order="0" transform="translate(386, 634)"><g id="tx_investig_1qeh379wj9823-fill-merged" stroke="none" fill="#484848" fill-opacity="1"><g><text style="font: 20px Montserrat, sans-serif; white-space: pre;" font-size="20px" font-family="Montserrat, sans-serif"><tspan x="12" y="34" dominant-baseline="ideographic">Investigate </tspan><tspan x="12" y="58" dominant-baseline="ideographic">modular </tspan><tspan x="12" y="82" dominant-baseline="ideographic">methods for </tspan><tspan x="12" y="106" dominant-baseline="ideographic">scalability.</tspan></text></g></g></g><g id="g-root-ic_buil_1d30ktxwjdg5j-fill" data-item-order="0" transform="translate(521, 350)"></g><g id="g-root-tx_1_18ly4j9wj9892-fill" data-item-order="0" transform="translate(98, 490)"><g id="tx_1_18ly4j9wj9892-fill-merged" stroke="none" fill="#969696" fill-opacity="1"><g><text style="font: bold 25px Montserrat, sans-serif; white-space: pre;" font-weight="bold" font-size="25px" font-family="Montserrat, sans-serif"><tspan x="17.1" y="43" dominant-baseline="ideographic">1</tspan></text></g></g></g><g id="g-root-tx_2_dju2r9wj991d-fill" data-item-order="0" transform="translate(266, 490)"><g id="tx_2_dju2r9wj991d-fill-merged" stroke="none" fill="#92bd39" fill-opacity="1"><g><text style="font: bold 25px Montserrat, sans-serif; white-space: pre;" font-weight="bold" font-size="25px" font-family="Montserrat, sans-serif"><tspan x="14.63" y="43" dominant-baseline="ideographic">2</tspan></text></g></g></g><g id="g-root-tx_3_1lynl2twj98uc-fill" data-item-order="0" transform="translate(434, 490)"><g id="tx_3_1lynl2twj98uc-fill-merged" stroke="none" fill="#1eabda" fill-opacity="1"><g><text style="font: bold 25px Montserrat, sans-serif; white-space: pre;" font-weight="bold" font-size="25px" font-family="Montserrat, sans-serif"><tspan x="14.6" y="43" dominant-baseline="ideographic">3</tspan></text></g></g></g><g id="g-root-tx_4_vcd1f9wj98uf-fill" data-item-order="0" transform="translate(602, 490)"><g id="tx_4_vcd1f9wj98uf-fill-merged" stroke="none" fill="#4e88e7" fill-opacity="1"><g><text style="font: bold 25px Montserrat, sans-serif; white-space: pre;" font-weight="bold" font-size="25px" font-family="Montserrat, sans-serif"><tspan x="13.39" y="43" dominant-baseline="ideographic">4</tspan></text></g></g></g><g id="g-root-tx_5_9e9hwjao76-fill" data-item-order="0" transform="translate(770, 490)"><g id="tx_5_9e9hwjao76-fill-merged" stroke="none" fill="#3cc583" fill-opacity="1"><g><text style="font: bold 25px Montserrat, sans-serif; white-space: pre;" font-weight="bold" font-size="25px" font-family="Montserrat, sans-serif"><tspan x="14.56" y="43" dominant-baseline="ideographic">5</tspan></text></g></g></g><g id="g-root-tx_reflecto_4my4c5wj97nw-fill" data-item-order="0" transform="translate(50, 550)"><g id="tx_reflecto_4my4c5wj97nw-fill-merged" stroke="none" fill="#969696" fill-opacity="1"><g><text style="font: bold 20px Montserrat, sans-serif; white-space: pre;" font-weight="bold" font-size="20px" font-family="Montserrat, sans-serif"><tspan x="12" y="34" dominant-baseline="ideographic">Reflect on </tspan><tspan x="12" y="58" dominant-baseline="ideographic">Past Designs</tspan></text></g></g></g><g id="g-root-tx_deepenbi_zqb4adwj991r-fill" data-item-order="0" transform="translate(218, 550)"><g id="tx_deepenbi_zqb4adwj991r-fill-merged" stroke="none" fill="#92bd39" fill-opacity="1"><g><text style="font: bold 20px Montserrat, sans-serif; white-space: pre;" font-weight="bold" font-size="20px" font-family="Montserrat, sans-serif"><tspan x="12" y="34" dominant-baseline="ideographic">Deepen </tspan><tspan x="12" y="58" dominant-baseline="ideographic">Biophilic </tspan><tspan x="12" y="82" dominant-baseline="ideographic">Understanding</tspan></text></g></g></g><g id="g-root-tx_explorem_4o72idwj99u2-fill" data-item-order="0" transform="translate(386, 550)"><g id="tx_explorem_4o72idwj99u2-fill-merged" stroke="none" fill="#1eabda" fill-opacity="1"><g><text style="font: bold 20px Montserrat, sans-serif; white-space: pre;" font-weight="bold" font-size="20px" font-family="Montserrat, sans-serif"><tspan x="12" y="34" dominant-baseline="ideographic">Explore </tspan><tspan x="12" y="58" dominant-baseline="ideographic">Modular </tspan><tspan x="12" y="82" dominant-baseline="ideographic">Construction</tspan></text></g></g></g><g id="g-root-tx_enhances_1d30ktxwj99n1-fill" data-item-order="0" transform="translate(554, 550)"><g id="tx_enhances_1d30ktxwj99n1-fill-merged" stroke="none" fill="#4e88e7" fill-opacity="1"><g><text style="font: bold 20px Montserrat, sans-serif; white-space: pre;" font-weight="bold" font-size="20px" font-family="Montserrat, sans-serif"><tspan x="12" y="34" dominant-baseline="ideographic">Enhance </tspan><tspan x="12" y="58" dominant-baseline="ideographic">Scalability</tspan></text></g></g></g><g id="g-root-tx_improves_hrjer9wjalu0-fill" data-item-order="0" transform="translate(722, 550)"><g id="tx_improves_hrjer9wjalu0-fill-merged" stroke="none" fill="#3cc583" fill-opacity="1"><g><text style="font: bold 20px Montserrat, sans-serif; white-space: pre;" font-weight="bold" font-size="20px" font-family="Montserrat, sans-serif"><tspan x="12" y="34" dominant-baseline="ideographic">Improve </tspan><tspan x="12" y="58" dominant-baseline="ideographic">Sustainability</tspan></text></g></g></g><g id="g-root-tx_reviewpr_1qclnxxwj991p-fill" data-item-order="0" transform="translate(50, 610)"><g id="tx_reviewpr_1qclnxxwj991p-fill-merged" stroke="none" fill="#484848" fill-opacity="1"><g><text style="font: 20px Montserrat, sans-serif; white-space: pre;" font-size="20px" font-family="Montserrat, sans-serif"><tspan x="12" y="34" dominant-baseline="ideographic">Review </tspan><tspan x="12" y="58" dominant-baseline="ideographic">previous </tspan><tspan x="12" y="82" dominant-baseline="ideographic">projects to </tspan><tspan x="12" y="106" dominant-baseline="ideographic">identify areas </tspan><tspan x="12" y="130" dominant-baseline="ideographic">for </tspan><tspan x="12" y="154" dominant-baseline="ideographic">improvement.</tspan></text></g></g></g><g id="g-root-tx_implemen_18ntjslwj979i-fill" data-item-order="0" transform="translate(554, 610)"><g id="tx_implemen_18ntjslwj979i-fill-merged" stroke="none" fill="#484848" fill-opacity="1"><g><text style="font: 20px Montserrat, sans-serif; white-space: pre;" font-size="20px" font-family="Montserrat, sans-serif"><tspan x="12" y="34" dominant-baseline="ideographic">Implement </tspan><tspan x="12" y="58" dominant-baseline="ideographic">modular </tspan><tspan x="12" y="82" dominant-baseline="ideographic">designs to </tspan><tspan x="12" y="106" dominant-baseline="ideographic">expand </tspan><tspan x="12" y="130" dominant-baseline="ideographic">reach.</tspan></text></g></g></g><g id="g-root-tx_integrat_dbpwmtwjamm9-fill" data-item-order="0" transform="translate(722, 610)"><g id="tx_integrat_dbpwmtwjamm9-fill-merged" stroke="none" fill="#484848" fill-opacity="1"><g><text style="font: 20px Montserrat, sans-serif; white-space: pre;" font-size="20px" font-family="Montserrat, sans-serif"><tspan x="12" y="34" dominant-baseline="ideographic">Integrate </tspan><tspan x="12" y="58" dominant-baseline="ideographic">sustainable </tspan><tspan x="12" y="82" dominant-baseline="ideographic">practices into </tspan><tspan x="12" y="106" dominant-baseline="ideographic">design.</tspan></text></g></g></g><g id="g-root-tx_enhancek_qval4lwj97gg-fill" data-item-order="0" transform="translate(218, 634)"><g id="tx_enhancek_qval4lwj97gg-fill-merged" stroke="none" fill="#484848" fill-opacity="1"><g><text style="font: 20px Montserrat, sans-serif; white-space: pre;" font-size="20px" font-family="Montserrat, sans-serif"><tspan x="12" y="34" dominant-baseline="ideographic">Enhance </tspan><tspan x="12" y="58" dominant-baseline="ideographic">knowledge of </tspan><tspan x="12" y="82" dominant-baseline="ideographic">biophilic </tspan><tspan x="12" y="106" dominant-baseline="ideographic">design </tspan><tspan x="12" y="130" dominant-baseline="ideographic">principles.</tspan></text></g></g></g><g id="g-root-ic_bulb_hz13slwjdhxf-fill" data-item-order="0" transform="translate(330, 350)"></g><g id="g-root-cp_5_g-5_18k2p9xwj998m-stroke" data-item-order="-635798" transform="translate(541.3447265625, 237.3828125)"><g id="cp_5_g-5_18k2p9xwj998m-stroke" fill="none" stroke-linecap="round" stroke-linejoin="round" stroke-miterlimit="4" stroke="#ffffff" stroke-width="2" stroke-opacity="1"><g><path d="M 174.6553 78.937601L 174.6553 61.853301C 174.6553 60.798001 176.0778 60.462201 176.5497 61.406001L 210.4317 117.170001C 210.5724 117.451501 210.5724 117.782901 210.4317 118.064401L 176.5497 173.828301C 176.0778 174.772201 174.6553 174.436301 174.6553 173.381101L 174.6553 156.613801C 137.458 156.397701 101.3227 144.127501 71.6771 121.629601C 41.7659 98.930201 20.1045 67.066201 10 30.902101L 84.8086 10.000001C 90.35 29.832701 102.2292 47.307201 118.6328 59.755701C 134.7707 72.002701 154.4153 78.723101 174.6553 78.937601Z"></path></g></g></g><g id="g-root-cp_4_g-4_zofp11wj9a1b-stroke" data-item-order="-635794" transform="translate(450, 110)"><g id="cp_4_g-4_zofp11wj9a1b-stroke" fill="none" stroke-linecap="round" stroke-linejoin="round" stroke-miterlimit="4" stroke="#ffffff" stroke-width="2" stroke-opacity="1"><g><path d="M 115.1863 45.9124C 85.0648 22.6306 48.0703 10 10 10L 10 87.6738C 30.8781 87.6738 51.1662 94.6005 67.685 107.3685C 84.2039 120.1364 96.02 138.024 101.2816 158.2282L 105.1993 157.2079L 176.1152 137.3935C 166.3611 101.0684 144.9641 68.9285 115.1863 45.9124Z"></path></g></g></g><g id="g-root-cp_3_g-3_144975hwj9a0w-stroke" data-item-order="-635790" transform="translate(278, 110)"><g id="cp_3_g-3_144975hwj9a0w-stroke" fill="none" stroke-linecap="round" stroke-linejoin="round" stroke-miterlimit="4" stroke="#ffffff" stroke-width="2" stroke-opacity="1"><g><path d="M 10 182C 10 136.3828 28.1214 92.6339 60.3776 60.3776C 92.6339 28.1214 136.3828 9.999999 182 10L 182 87.6738C 156.9831 87.6738 132.9909 97.6117 115.3013 115.3013C 97.6117 132.9909 87.6738 156.9831 87.6738 182L 10 182Z"></path></g></g></g><g id="g-root-cp_2_g-2_v98nzpwj97nt-stroke" data-item-order="-635786" transform="translate(278, 282)"><g id="cp_2_g-2_v98nzpwj97nt-stroke" fill="none" stroke-linecap="round" stroke-linejoin="round" stroke-miterlimit="4" stroke="#ffffff" stroke-width="2" stroke-opacity="1"><g><path d="M 182 182C 159.4126 182 137.0464 177.5511 116.1784 168.9073C 95.3104 160.2635 76.3493 147.5941 60.3776 131.6224C 44.4059 115.6507 31.7365 96.6896 23.0927 75.8216C 14.4489 54.9536 10 32.5874 10 10L 87.6738 10C 87.6738 22.3871 90.1136 34.6529 94.854 46.0971C 99.5943 57.5413 106.5423 67.9397 115.3013 76.6987C 124.0603 85.4577 134.4587 92.4057 145.9029 97.1461C 157.3471 101.8864 169.6129 104.3262 182 104.3262L 182 182Z"></path></g></g></g><g id="g-root-cp_1_g-1_qtf5v9wj98g2-stroke" data-item-order="-635782" transform="translate(450.00201416015625, 258.28515625)"><g id="cp_1_g-1_qtf5v9wj98g2-stroke" fill="none" stroke-linecap="round" stroke-linejoin="round" stroke-miterlimit="4" stroke="#ffffff" stroke-width="2" stroke-opacity="1"><g><path d="M 101.3428 10C 104.9806 23.9485 105.3015 38.4555 102.4186 52.5794C 99.5356 66.7033 93.4539 79.9785 84.6405 91.3855C 75.8271 102.7925 64.5165 112.0278 51.5775 118.3821C 38.6384 124.7363 24.4151 128.0405 10 128.0408L 10.0016 205.7146C 36.287 205.7141 62.2226 199.6891 85.8164 188.1023C 109.4103 176.5156 130.0346 159.6755 146.1055 138.8753C 154.5058 128.0029 161.5452 116.1997 167.1021 103.7312C 165.7283 102.7511 164.3674 101.7496 163.0199 100.727C 133.1087 78.0276 111.4473 46.1641 101.3428 10Z"></path></g></g></g><g id="g-root-ic_1_408s5wjc0ej-stroke" data-item-order="0" transform="translate(522, 165)"><g id="ic_1_408s5wjc0ej-stroke" fill="none" stroke-linecap="round" stroke-linejoin="round" stroke-miterlimit="4" stroke="#4e88e7" stroke-width="2" stroke-opacity="1"><g><path d="M 27 43L 51 43M 27 51L 55 51M 27 35L 45 35M 27 27L 39 27M 19 11L 19 57M 13 17L 19 11L 25 17"></path></g></g></g><g id="g-root-ic_jeng_1414tpxwjdfdb-stroke" data-item-order="0" transform="translate(330, 165)"><g id="ic_jeng_1414tpxwjdfdb-stroke" fill="none" stroke-linecap="round" stroke-linejoin="round" stroke-miterlimit="4" stroke="#1eabda" stroke-width="2" stroke-opacity="1"><g><path d="M 13.166 46L 17.166 46C 17.166 46 19.166 46 19.166 48L 19.166 52C 19.166 52 19.166 54 17.166 54L 13.166 54C 13.166 54 11.166 54 11.166 52L 11.166 48C 11.166 48 11.166 46 13.166 46M 31.166 46L 37.166 46C 37.166 46 39.166 46 39.166 48L 39.166 52C 39.166 52 39.166 54 37.166 54L 31.166 54C 31.166 54 29.166 54 29.166 52L 29.166 48C 29.166 48 29.166 46 31.166 46M 21.166 30L 27.166 30C 27.166 30 29.166 30 29.166 32L 29.166 36C 29.166 36 29.166 38 27.166 38L 21.166 38C 21.166 38 19.166 38 19.166 36L 19.166 32C 19.166 32 19.166 30 21.166 30M 21.166 14L 27.166 14C 27.166 14 29.166 14 29.166 16L 29.166 20C 29.166 20 29.166 22 27.166 22L 21.166 22C 21.166 22 19.166 22 19.166 20L 19.166 16C 19.166 16 19.166 14 21.166 14M 31.166 14L 37.166 14C 37.166 14 39.166 14 39.166 16L 39.166 20C 39.166 20 39.166 22 37.166 22L 31.166 22C 31.166 22 29.166 22 29.166 20L 29.166 16C 29.166 16 29.166 14 31.166 14M 13.166 38L 37.166 38C 37.166 38 39.166 38 39.166 40L 39.166 44C 39.166 44 39.166 46 37.166 46L 13.166 46C 13.166 46 11.166 46 11.166 44L 11.166 40C 11.166 40 11.166 38 13.166 38M 39.166 29.32L 39.166 24C 39.166 22.895432 38.270569 22 37.166 22L 13.166 22C 12.06143 22 11.166 22.895432 11.166 24L 11.166 28C 11.166 29.10457 12.06143 30 13.166 30L 38.166 30M 56.021999 50.439999C 56.449768 50.125031 56.734657 49.652824 56.813828 49.127541C 56.892994 48.602253 56.759933 48.067055 56.444 47.639999L 42.799999 29.129999C 42.485031 28.702232 42.012821 28.417341 41.487541 28.338175C 40.962257 28.259007 40.427055 28.392065 40 28.708L 36.779999 31.082001C 36.352234 31.396969 36.067341 31.869177 35.988174 32.394463C 35.909004 32.919746 36.042065 33.454945 36.358002 33.882L 50 52.400002C 50.314968 52.827766 50.787178 53.112659 51.312462 53.191826C 51.837746 53.270992 52.372944 53.137936 52.799999 52.821999Z"></path></g></g></g><g id="g-root-tx_iterativ_hxs5mdwj998r-stroke" data-item-order="0" transform="translate(290, 38)"></g><g id="g-root-ic_refr_1q5qfzpwjaosr-stroke" data-item-order="0" transform="translate(606, 296)"><g id="ic_refr_1q5qfzpwjaosr-stroke" fill="none" stroke-linecap="round" stroke-linejoin="round" stroke-miterlimit="4" stroke="#3cc583" stroke-width="2" stroke-opacity="1"><g><path d="M 26.888 35.711998C 26.073999 39.122002 27.166 42.088001 32.888 40.753998C 37.389999 44.535999 39.622002 42.742001 40.524002 38.975998C 41.341999 35.554001 39.18 29.073999 35.891998 25.868C 35.66925 25.650404 35.357849 25.548992 35.049683 25.593689C 34.741512 25.638384 34.471752 25.824085 34.32 26.096001C 32.043999 30.17 27.83 31.784 26.888 35.711998ZM 33 45C 32.655998 40.587997 32.718002 34.914001 34.742001 31.700001M 46.953999 23C 42.339603 17.570263 34.828621 15.594461 28.13975 18.050816C 21.450874 20.50717 17.003691 26.874363 17 34L 17 39M 23 31L 17 39L 11 31M 21.046 45.009998C 25.661585 50.441132 33.175072 52.416409 39.864944 49.957458C 46.554813 47.498505 51.0005 41.127468 51 34L 51 29M 45 37L 51 29L 57 37"></path></g></g></g><g id="g-root-tx_investig_1qeh379wj9823-stroke" data-item-order="0" transform="translate(386, 634)"></g><g id="g-root-ic_buil_1d30ktxwjdg5j-stroke" data-item-order="0" transform="translate(521, 350)"><g id="ic_buil_1d30ktxwjdg5j-stroke" fill="none" stroke-linecap="round" stroke-linejoin="round" stroke-miterlimit="4" stroke="#969696" stroke-width="2" stroke-opacity="1"><g><path d="M 10 10M 45.125999 45.104L 57.037998 57.014M 10.962 30.986C 10.962 42.031696 19.916306 50.986 30.962 50.986C 42.007694 50.986 50.962002 42.031696 50.962002 30.986C 50.962002 19.940306 42.007694 10.986 30.962 10.986C 19.916306 10.986 10.962 19.940306 10.962 30.986ZM 30.962 40.986L 21.962 40.986C 21.409716 40.986 20.962 40.538284 20.962 39.986L 20.962 22.6C 20.964392 22.256493 21.142933 21.938255 21.434849 21.757177C 21.726765 21.576099 22.09119 21.557531 22.4 21.708L 30.954 25.986ZM 30.962 28.986L 39.961998 28.986C 40.514282 28.986 40.961998 29.433716 40.961998 29.986L 40.961998 39.986C 40.961998 40.538284 40.514282 40.986 39.961998 40.986L 30.962 40.986M 20.962 28.986L 25.962 28.986M 20.962 32.986L 25.962 32.986M 30.962 25.986L 30.962 20.986M 38.961998 28.986L 38.961998 23.986M 30.962 32.986L 35.961998 32.986M 30.962 36.986L 35.961998 36.986"></path></g></g></g><g id="g-root-tx_1_18ly4j9wj9892-stroke" data-item-order="0" transform="translate(98, 490)"></g><g id="g-root-tx_2_dju2r9wj991d-stroke" data-item-order="0" transform="translate(266, 490)"></g><g id="g-root-tx_3_1lynl2twj98uc-stroke" data-item-order="0" transform="translate(434, 490)"></g><g id="g-root-tx_4_vcd1f9wj98uf-stroke" data-item-order="0" transform="translate(602, 490)"></g><g id="g-root-tx_5_9e9hwjao76-stroke" data-item-order="0" transform="translate(770, 490)"></g><g id="g-root-tx_reflecto_4my4c5wj97nw-stroke" data-item-order="0" transform="translate(50, 550)"></g><g id="g-root-tx_deepenbi_zqb4adwj991r-stroke" data-item-order="0" transform="translate(218, 550)"></g><g id="g-root-tx_explorem_4o72idwj99u2-stroke" data-item-order="0" transform="translate(386, 550)"></g><g id="g-root-tx_enhances_1d30ktxwj99n1-stroke" data-item-order="0" transform="translate(554, 550)"></g><g id="g-root-tx_improves_hrjer9wjalu0-stroke" data-item-order="0" transform="translate(722, 550)"></g><g id="g-root-tx_reviewpr_1qclnxxwj991p-stroke" data-item-order="0" transform="translate(50, 610)"></g><g id="g-root-tx_implemen_18ntjslwj979i-stroke" data-item-order="0" transform="translate(554, 610)"></g><g id="g-root-tx_integrat_dbpwmtwjamm9-stroke" data-item-order="0" transform="translate(722, 610)"></g><g id="g-root-tx_enhancek_qval4lwj97gg-stroke" data-item-order="0" transform="translate(218, 634)"></g><g id="g-root-ic_bulb_hz13slwjdhxf-stroke" data-item-order="0" transform="translate(330, 350)"><g id="ic_bulb_hz13slwjdhxf-stroke" fill="none" stroke-linecap="round" stroke-linejoin="round" stroke-miterlimit="4" stroke="#92bd39" stroke-width="2" stroke-opacity="1"><g><path d="M 26.1 29.24C 25.16 33.239998 26.42 36.52 32.940002 35C 38.080002 39.299999 40.620003 37.260002 41.66 33C 42.599998 29 40.059998 21.52 36.220001 17.92C 36.000294 17.69964 35.685776 17.602289 35.379997 17.66C 35.075844 17.706993 34.810272 17.891418 34.66 18.16C 32 22.880001 27.18 24.720001 26.1 29.24ZM 29 51L 39 51M 29 55L 39 55M 34 55L 34 57M 34 47C 34 47 30.9 31.280001 35.059998 24.66M 52 28C 51.716854 18.338158 43.662247 10.73103 34 11C 24.337753 10.73103 16.283148 18.338158 16 28C 16.155478 35.749779 21.481201 42.435612 29 44.32L 29 46C 29 46.552284 29.447716 47 30 47L 38 47C 38.552284 47 39 46.552284 39 46L 39 44.32C 46.518799 42.435612 51.844524 35.749779 52 28Z"></path></g></g></g></g></g></svg>