<?xml version="1.0" encoding="utf-8" standalone="yes"?>
<!DOCTYPE svg PUBLIC "-//W3C//DTD SVG 1.1//EN" "http://www.w3.org/Graphics/SVG/1.1/DTD/svg11.dtd">
<svg style="fill:none;stroke:none;fill-rule:evenodd;clip-rule:evenodd;stroke-linecap:round;stroke-linejoin:round;stroke-miterlimit:1.5;" version="1.1" xmlns="http://www.w3.org/2000/svg" xmlns:xlink="http://www.w3.org/1999/xlink" width="756" height="702" viewBox="0 0 756 702"><style class="text-font-style fontImports" data-font-family="Montserrat">@import url(https://fonts.googleapis.com/css2?family=Montserrat:wght@400;700&amp;amp;display=block);</style><g id="items" style="isolation: isolate"><g id="blend" style="mix-blend-mode: normal"><g id="g-root-ro_1unexnmyhc1e5-fill" data-item-order="-23400" transform="translate(266, 290)"><g id="ro_1unexnmyhc1e5-fill-merged" stroke="none" fill="#fff27c" fill-opacity="1"><g><path d="M34 10 H142C142 10 166 10 166 34 V136C166 136 166 160 142 160 H34C34 160 10 160 10 136 V34C10 34 10 10 34 10"></path></g></g></g><g id="g-root-ro_hxrw82yhon4e-fill" data-item-order="-12960" transform="translate(394, 122)"><g id="ro_hxrw82yhon4e-fill-merged" stroke="none" fill="#ffd9d8" fill-opacity="1"><g><path d="M22 10 H238C238 10 250 10 250 22 V52C250 52 250 64 238 64 H22C22 64 10 64 10 52 V22C10 22 10 10 22 10"></path></g></g></g><g id="g-root-ro_qrje1uyh7toj-fill" data-item-order="-9720" transform="translate(394, 482)"><g id="ro_qrje1uyh7toj-fill-merged" stroke="none" fill="#c8ffe5" fill-opacity="1"><g><path d="M22 10 H178C178 10 190 10 190 22 V52C190 52 190 64 178 64 H22C22 64 10 64 10 52 V22C10 22 10 10 22 10"></path></g></g></g><g id="g-root-ro_mdlhiayhdedp-fill" data-item-order="-9072" transform="translate(50, 272)"><g id="ro_mdlhiayhdedp-fill-merged" stroke="none" fill="#d1f4ff" fill-opacity="1"><g><path d="M22 10 H166C166 10 178 10 178 22 V52C178 52 178 64 166 64 H22C22 64 10 64 10 52 V22C10 22 10 10 22 10"></path></g></g></g><g id="g-root-ro_v98hr6yhamte-fill" data-item-order="-8424" transform="translate(138, 122)"><g id="ro_v98hr6yhamte-fill-merged" stroke="none" fill="#f5e0ff" fill-opacity="1"><g><path d="M22 10 H154C154 10 166 10 166 22 V52C166 52 166 64 154 64 H22C22 64 10 64 10 52 V22C10 22 10 10 22 10"></path></g></g></g><g id="g-root-ro_18lxv4yyhn8qr-fill" data-item-order="-8424" transform="translate(470, 272)"><g id="ro_18lxv4yyhn8qr-fill-merged" stroke="none" fill="#dce9ff" fill-opacity="1"><g><path d="M22 10 H154C154 10 166 10 166 22 V52C166 52 166 64 154 64 H22C22 64 10 64 10 52 V22C10 22 10 10 22 10"></path></g></g></g><g id="g-root-ro_dl2uoyyhetqg-fill" data-item-order="-6480" transform="translate(174, 482)"><g id="ro_dl2uoyyhetqg-fill-merged" stroke="none" fill="#e9ffb9" fill-opacity="1"><g><path d="M22 10 H118C118 10 130 10 130 22 V52C130 52 130 64 118 64 H22C22 64 10 64 10 52 V22C10 22 10 10 22 10"></path></g></g></g><g id="g-root-cu_1umsq1uyhg9hh-fill" data-item-order="0" transform="translate(370, 149)"></g><g id="g-root-tx_heavyfoo_18fp7fmyh7ua3-fill" data-item-order="0" transform="translate(102, 188)"><g id="tx_heavyfoo_18fp7fmyh7ua3-fill-merged" stroke="none" fill="#484848" fill-opacity="1"><g><text style="font: 15px Montserrat, sans-serif; white-space: pre;" font-size="15px" font-family="Montserrat, sans-serif"><tspan x="17.95" y="31" dominant-baseline="ideographic">Ithaca Downtown</tspan></text></g></g></g><g id="g-root-cu_1lrs6w2yhg7wg-fill" data-item-order="0" transform="translate(252, 176)"></g><g id="g-root-cu_1cw56n6yhg8p7-fill" data-item-order="0" transform="translate(252, 176)"></g><g id="g-root-cu_qpo542yhg8p7-fill" data-item-order="0" transform="translate(419.26318359375, 176)"></g><g id="g-root-cu_m9umzmyhg9hi-fill" data-item-order="0" transform="translate(419.26318359375, 176)"></g><g id="g-root-tx_forestin_1lua38iyh7tvn-fill" data-item-order="0" transform="translate(442, 188)"><g id="tx_forestin_1lua38iyh7tvn-fill-merged" stroke="none" fill="#484848" fill-opacity="1"><g><text style="font: 15px Montserrat, sans-serif; white-space: pre;" font-size="15px" font-family="Montserrat, sans-serif"><tspan x="12" y="31" dominant-baseline="ideographic">Forest Inspiration</tspan></text></g></g></g><g id="g-root-tx_cultural_v4v65eyh7sp8-fill" data-item-order="0" transform="translate(54, 224)"><g id="tx_cultural_v4v65eyh7sp8-fill-merged" stroke="none" fill="#484848" fill-opacity="1"><g><text style="font: 15px Montserrat, sans-serif; white-space: pre;" font-size="15px" font-family="Montserrat, sans-serif"><tspan x="12.83" y="31" dominant-baseline="ideographic">First kombucha tea store</tspan></text></g></g></g><g id="g-root-tx_naturall_v7zjkyyh7tvo-fill" data-item-order="0" transform="translate(442, 224)"><g id="tx_naturall_v7zjkyyh7tvo-fill-merged" stroke="none" fill="#484848" fill-opacity="1"><g><text style="font: 15px Montserrat, sans-serif; white-space: pre;" font-size="15px" font-family="Montserrat, sans-serif"><tspan x="12" y="31" dominant-baseline="ideographic">Tree branches and texture</tspan></text></g></g></g><g id="g-root-cu_1q7lp0iyhg743-fill" data-item-order="0" transform="translate(419.71429443359375, 536)"></g><g id="g-root-cu_4hbobmyhg83w-fill" data-item-order="0" transform="translate(294, 149)"></g><g id="g-root-cu_1i676yhg8w7-fill" data-item-order="0" transform="translate(218, 299)"></g><g id="g-root-cu_1hbyormyhg7wu-fill" data-item-order="0" transform="translate(419.71429443359375, 536)"></g><g id="g-root-cu_1i676yhg8wa-fill" data-item-order="0" transform="translate(422, 299)"></g><g id="g-root-tx_ithacare_htens2yh7ua5-fill" data-item-order="0" transform="translate(38, 338)"><g id="tx_ithacare_htens2yh7ua5-fill-merged" stroke="none" fill="#484848" fill-opacity="1"><g><text style="font: 15px Montserrat, sans-serif; white-space: pre;" font-size="15px" font-family="Montserrat, sans-serif"><tspan x="15.13" y="31" dominant-baseline="ideographic">Ithaca Residents</tspan></text></g></g></g><g id="g-root-cu_18gboiqyhg9hh-fill" data-item-order="0" transform="translate(176, 326)"></g><g id="g-root-cu_18gboiqyhg9hk-fill" data-item-order="0" transform="translate(176, 326)"></g><g id="g-root-cu_1414nheyhg742-fill" data-item-order="0" transform="translate(176, 326)"></g><g id="g-root-tx_kombucha_m7z7qayh7s3l-fill" data-item-order="0" transform="translate(442, 548)"><g id="tx_kombucha_m7z7qayh7s3l-fill-merged" stroke="none" fill="#484848" fill-opacity="1"><g><text style="font: 15px Montserrat, sans-serif; white-space: pre;" font-size="15px" font-family="Montserrat, sans-serif"><tspan x="12" y="31" dominant-baseline="ideographic">Tea shop</tspan></text></g></g></g><g id="g-root-cu_1414nheyhg744-fill" data-item-order="0" transform="translate(496, 326)"></g><g id="g-root-cu_v5hn8iyhg7wv-fill" data-item-order="0" transform="translate(496, 326)"></g><g id="g-root-cu_qpo542yhg8p5-fill" data-item-order="0" transform="translate(496, 326)"></g><g id="g-root-tx_kombucha_v6qleqyh7rpk-fill" data-item-order="0" transform="translate(518, 338)"><g id="tx_kombucha_v6qleqyh7rpk-fill-merged" stroke="none" fill="#484848" fill-opacity="1"><g><text style="font: 15px Montserrat, sans-serif; white-space: pre;" font-size="15px" font-family="Montserrat, sans-serif"><tspan x="12" y="31" dominant-baseline="ideographic">Kombucha, pastries</tspan></text></g></g></g><g id="g-root-tx_universi_2r4deyh7thi-fill" data-item-order="0" transform="translate(14, 374)"><g id="tx_universi_2r4deyh7thi-fill-merged" stroke="none" fill="#484848" fill-opacity="1"><g><text style="font: 15px Montserrat, sans-serif; white-space: pre;" font-size="15px" font-family="Montserrat, sans-serif"><tspan x="17.98" y="31" dominant-baseline="ideographic">University Students</tspan></text></g></g></g><g id="g-root-tx_promotew_1hgc0deyh7swe-fill" data-item-order="0" transform="translate(102, 584)"><g id="tx_promotew_1hgc0deyh7swe-fill-merged" stroke="none" fill="#484848" fill-opacity="1"><g><text style="font: 15px Montserrat, sans-serif; white-space: pre;" font-size="15px" font-family="Montserrat, sans-serif"><tspan x="15.41" y="31" dominant-baseline="ideographic">Promote Wellness</tspan></text></g></g></g><g id="g-root-tx_specialt_dfgkwyyh7u2p-fill" data-item-order="0" transform="translate(518, 374)"><g id="tx_specialt_dfgkwyyh7u2p-fill-merged" stroke="none" fill="#484848" fill-opacity="1"><g><text style="font: 15px Montserrat, sans-serif; white-space: pre;" font-size="15px" font-family="Montserrat, sans-serif"><tspan x="12" y="31" dominant-baseline="ideographic">Specialty tea</tspan></text></g></g></g><g id="g-root-tx_wellness_1cxe4teyh7si7-fill" data-item-order="0" transform="translate(38, 410)"><g id="tx_wellness_1cxe4teyh7si7-fill-merged" stroke="none" fill="#484848" fill-opacity="1"><g><text style="font: 15px Montserrat, sans-serif; white-space: pre;" font-size="15px" font-family="Montserrat, sans-serif"><tspan x="15.27" y="31" dominant-baseline="ideographic">Wellness Visitors</tspan></text></g></g></g><g id="g-root-cu_1umsq1uyhg9hk-fill" data-item-order="0" transform="translate(294, 440)"></g><g id="g-root-cu_dcyokiyhg7b5-fill" data-item-order="0" transform="translate(370, 440)"></g><g id="g-root-tx_teaflavo_1umsq1uyh7rwi-fill" data-item-order="0" transform="translate(442, 584)"><g id="tx_teaflavo_1umsq1uyh7rwi-fill-merged" stroke="none" fill="#484848" fill-opacity="1"><g><text style="font: 15px Montserrat, sans-serif; white-space: pre;" font-size="15px" font-family="Montserrat, sans-serif"><tspan x="12" y="31" dominant-baseline="ideographic">Rest/study lounge</tspan></text></g></g></g><g id="g-root-tx_provider_144vi02yh7uhb-fill" data-item-order="0" transform="translate(30, 620)"><g id="tx_provider_144vi02yh7uhb-fill-merged" stroke="none" fill="#484848" fill-opacity="1"><g><text style="font: 15px Montserrat, sans-serif; white-space: pre;" font-size="15px" font-family="Montserrat, sans-serif"><tspan x="19.93" y="31" dominant-baseline="ideographic">Provide Restorative Retreat</tspan></text></g></g></g><g id="g-root-tx_teashopc_8z0lpeyhg7wv-fill" data-item-order="0" transform="translate(20, 38)"><g id="tx_teashopc_8z0lpeyhg7wv-fill-merged" stroke="none" fill="#484848" fill-opacity="1"><g><text style="font: bold 25px Montserrat, sans-serif; white-space: pre;" font-weight="bold" font-size="25px" font-family="Montserrat, sans-serif"><tspan x="12.97" y="46" dominant-baseline="ideographic">Tea Shop Concept: Blending Retail with Community</tspan></text></g></g></g><g id="g-root-tx_selfbrew_4mjmqyh7shu-fill" data-item-order="0" transform="translate(518, 410)"><g id="tx_selfbrew_4mjmqyh7shu-fill-merged" stroke="none" fill="#484848" fill-opacity="1"><g><text style="font: 15px Montserrat, sans-serif; white-space: pre;" font-size="15px" font-family="Montserrat, sans-serif"><tspan x="12" y="31" dominant-baseline="ideographic">Self-Brewing Experiences</tspan></text></g></g></g><g id="g-root-tx_introduc_91ii1uyh7t3h-fill" data-item-order="0" transform="translate(18, 548)"><g id="tx_introduc_91ii1uyh7t3h-fill-merged" stroke="none" fill="#484848" fill-opacity="1"><g><text style="font: 15px Montserrat, sans-serif; white-space: pre;" font-size="15px" font-family="Montserrat, sans-serif"><tspan x="15.92" y="31" dominant-baseline="ideographic">Introduce Kombucha Culture</tspan></text></g></g></g><g id="g-root-cu_m9umzmyhg9hk-fill" data-item-order="0" transform="translate(252, 536)"></g><g id="g-root-cu_hunlyayhg743-fill" data-item-order="0" transform="translate(252, 536)"></g><g id="g-root-cu_8z0lpeyhg7wt-fill" data-item-order="0" transform="translate(252, 536)"></g><g id="g-root-tx_designco_1hfpg4iyhombo-fill" data-item-order="1000000000" transform="translate(442, 137)"><g id="tx_designco_1hfpg4iyhombo-fill-merged" stroke="none" fill="#e55753" fill-opacity="1"><g><text style="font: 20px Montserrat, sans-serif; white-space: pre;" font-size="20px" font-family="Montserrat, sans-serif"><tspan x="12" y="34" dominant-baseline="ideographic">Design Concepts</tspan></text></g></g></g><g id="g-root-tx_customer_qrjkdeyhdfcz-fill" data-item-order="1000000000" transform="translate(62, 287)"><g id="tx_customer_qrjkdeyhdfcz-fill-merged" stroke="none" fill="#1eabda" fill-opacity="1"><g><text style="font: 20px Montserrat, sans-serif; white-space: pre;" font-size="20px" font-family="Montserrat, sans-serif"><tspan x="17.36" y="34" dominant-baseline="ideographic">Customer</tspan></text></g></g></g><g id="g-root-ic_wome_zofisiyhdfyk-fill" data-item-order="1000000000" transform="translate(176, 284)"></g><g id="g-root-ic_floa_qtewgyyhombp-fill" data-item-order="1000000000" transform="translate(406, 134)"></g><g id="g-root-ic_serv_1d1rd9eyhn7yi-fill" data-item-order="1000000000" transform="translate(482, 284)"></g><g id="g-root-tx_services_dhye3myhnaip-fill" data-item-order="1000000000" transform="translate(518, 287)"><g id="tx_services_dhye3myhnaip-fill-merged" stroke="none" fill="#4e88e7" fill-opacity="1"><g><text style="font: 20px Montserrat, sans-serif; white-space: pre;" font-size="20px" font-family="Montserrat, sans-serif"><tspan x="12" y="34" dominant-baseline="ideographic">Services</tspan></text></g></g></g><g id="g-root-ic_2_4hxvxeyhc0sk-fill" data-item-order="1000000000" transform="translate(320, 314)"></g><g id="g-root-tx_teashopc_v48fkyyhc0sj-fill" data-item-order="1000000000" transform="translate(290, 368)"><g id="tx_teashopc_v48fkyyhc0sj-fill-merged" stroke="none" fill="#ab9e2b" fill-opacity="1"><g><text style="font: 20px Montserrat, sans-serif; white-space: pre;" font-size="20px" font-family="Montserrat, sans-serif"><tspan x="15.81" y="34" dominant-baseline="ideographic">Tea Shop </tspan><tspan x="19.05" y="58" dominant-baseline="ideographic">Concept</tspan></text></g></g></g><g id="g-root-ic_1_zp1zvmyham15-fill" data-item-order="1000000000" transform="translate(252, 134)"></g><g id="g-root-tx_goals_1utny02yhetqe-fill" data-item-order="1000000000" transform="translate(186, 497)"><g id="tx_goals_1utny02yhetqe-fill-merged" stroke="none" fill="#92bd39" fill-opacity="1"><g><text style="font: 20px Montserrat, sans-serif; white-space: pre;" font-size="20px" font-family="Montserrat, sans-serif"><tspan x="13.13" y="34" dominant-baseline="ideographic">Goals</tspan></text></g></g></g><g id="g-root-ic_wait_qvwvz6yhevbb-fill" data-item-order="1000000000" transform="translate(252, 494)"></g><g id="g-root-tx_location_5vhsyyhalfk-fill" data-item-order="1000000000" transform="translate(150, 137)"><g id="tx_location_5vhsyyhalfk-fill-merged" stroke="none" fill="#ba5de5" fill-opacity="1"><g><text style="font: 20px Montserrat, sans-serif; white-space: pre;" font-size="20px" font-family="Montserrat, sans-serif"><tspan x="17.21" y="34" dominant-baseline="ideographic">Location</tspan></text></g></g></g><g id="g-root-ic_kios_qrje1uyh7toi-fill" data-item-order="1000000000" transform="translate(406, 494)"></g><g id="g-root-tx_storetyp_1hdtxpeyh7toh-fill" data-item-order="1000000000" transform="translate(442, 497)"><g id="tx_storetyp_1hdtxpeyh7toh-fill-merged" stroke="none" fill="#3cc583" fill-opacity="1"><g><text style="font: 20px Montserrat, sans-serif; white-space: pre;" font-size="20px" font-family="Montserrat, sans-serif"><tspan x="12" y="34" dominant-baseline="ideographic">Store Type</tspan></text></g></g></g><g id="g-root-ro_1unexnmyhc1e5-stroke" data-item-order="-23400" transform="translate(266, 290)"></g><g id="g-root-ro_hxrw82yhon4e-stroke" data-item-order="-12960" transform="translate(394, 122)"></g><g id="g-root-ro_qrje1uyh7toj-stroke" data-item-order="-9720" transform="translate(394, 482)"></g><g id="g-root-ro_mdlhiayhdedp-stroke" data-item-order="-9072" transform="translate(50, 272)"></g><g id="g-root-ro_v98hr6yhamte-stroke" data-item-order="-8424" transform="translate(138, 122)"></g><g id="g-root-ro_18lxv4yyhn8qr-stroke" data-item-order="-8424" transform="translate(470, 272)"></g><g id="g-root-ro_dl2uoyyhetqg-stroke" data-item-order="-6480" transform="translate(174, 482)"></g><g id="g-root-cu_1umsq1uyhg9hh-stroke" data-item-order="0" transform="translate(370, 149)"><g id="cu_1umsq1uyhg9hh-stroke" fill="none" stroke-linecap="round" stroke-linejoin="round" stroke-miterlimit="4" stroke="#969696" stroke-width="2" stroke-dasharray="0.1, 6.0" stroke-opacity="1"><g><path d="M 10 151L 10 133.4L 10 30.9C 10 19.357248 19.357248 10 30.899998 10L 31 10L 34 10"></path></g></g></g><g id="g-root-tx_heavyfoo_18fp7fmyh7ua3-stroke" data-item-order="0" transform="translate(102, 188)"></g><g id="g-root-cu_1lrs6w2yhg7wg-stroke" data-item-order="0" transform="translate(252, 176)"><g id="cu_1lrs6w2yhg7wg-stroke" fill="none" stroke-linecap="round" stroke-linejoin="round" stroke-miterlimit="4" stroke="#969696" stroke-width="2" stroke-dasharray="0.1, 6.0" stroke-opacity="1"><g><path d="M 28 10L 28 22L 28 34L 19 34L 10 34"></path></g></g></g><g id="g-root-cu_1cw56n6yhg8p7-stroke" data-item-order="0" transform="translate(252, 176)"><g id="cu_1cw56n6yhg8p7-stroke" fill="none" stroke-linecap="round" stroke-linejoin="round" stroke-miterlimit="4" stroke="#969696" stroke-width="2" stroke-dasharray="0.1, 6.0" stroke-opacity="1"><g><path d="M 28 10L 28 17.5L 28 58C 27.999999 64.627415 22.627416 69.999998 16 69.999998L 15.9 70L 10 70"></path></g></g></g><g id="g-root-cu_qpo542yhg8p7-stroke" data-item-order="0" transform="translate(419.26318359375, 176)"><g id="cu_qpo542yhg8p7-stroke" fill="none" stroke-linecap="round" stroke-linejoin="round" stroke-miterlimit="4" stroke="#969696" stroke-width="2" stroke-dasharray="0.1, 6.0" stroke-opacity="1"><g><path d="M 10 10L 10 22L 10 34L 18.4 34L 26.7 34"></path></g></g></g><g id="g-root-cu_m9umzmyhg9hi-stroke" data-item-order="0" transform="translate(419.26318359375, 176)"><g id="cu_m9umzmyhg9hi-stroke" fill="none" stroke-linecap="round" stroke-linejoin="round" stroke-miterlimit="4" stroke="#969696" stroke-width="2" stroke-dasharray="0.1, 6.0" stroke-opacity="1"><g><path d="M 10 10L 10 17.5L 10 58C 10.000002 64.627417 15.372585 70 22.000002 69.999999L 22.1 70L 26.7 70"></path></g></g></g><g id="g-root-tx_forestin_1lua38iyh7tvn-stroke" data-item-order="0" transform="translate(442, 188)"></g><g id="g-root-tx_cultural_v4v65eyh7sp8-stroke" data-item-order="0" transform="translate(54, 224)"></g><g id="g-root-tx_naturall_v7zjkyyh7tvo-stroke" data-item-order="0" transform="translate(442, 224)"></g><g id="g-root-cu_1q7lp0iyhg743-stroke" data-item-order="0" transform="translate(419.71429443359375, 536)"><g id="cu_1q7lp0iyhg743-stroke" fill="none" stroke-linecap="round" stroke-linejoin="round" stroke-miterlimit="4" stroke="#969696" stroke-width="2" stroke-dasharray="0.1, 6.0" stroke-opacity="1"><g><path d="M 10 10L 10 22L 10 34L 18.1 34L 26.3 34"></path></g></g></g><g id="g-root-cu_4hbobmyhg83w-stroke" data-item-order="0" transform="translate(294, 149)"><g id="cu_4hbobmyhg83w-stroke" fill="none" stroke-linecap="round" stroke-linejoin="round" stroke-miterlimit="4" stroke="#969696" stroke-width="2" stroke-dasharray="0.1, 6.0" stroke-opacity="1"><g><path d="M 34 151L 34 133.4L 34 30.9C 33.999998 19.357248 24.64275 10 13.1 10L 13 10L 10 10"></path></g></g></g><g id="g-root-cu_1i676yhg8w7-stroke" data-item-order="0" transform="translate(218, 299)"><g id="cu_1i676yhg8w7-stroke" fill="none" stroke-linecap="round" stroke-linejoin="round" stroke-miterlimit="4" stroke="#969696" stroke-width="2" stroke-dasharray="0.1, 6.0" stroke-opacity="1"><g><path d="M 58 51L 55 51L 54.9 51C 50.002505 50.98626 44.8084 48.851696 40.3 45.000001C 37.565326 42.702645 35.249193 37.371862 33.999999 30.5C 32.750804 23.628139 30.434671 18.297356 27.699999 16C 23.1916 12.148306 17.997495 10.013742 13.1 10L 13 10L 10 10"></path></g></g></g><g id="g-root-cu_1hbyormyhg7wu-stroke" data-item-order="0" transform="translate(419.71429443359375, 536)"><g id="cu_1hbyormyhg7wu-stroke" fill="none" stroke-linecap="round" stroke-linejoin="round" stroke-miterlimit="4" stroke="#969696" stroke-width="2" stroke-dasharray="0.1, 6.0" stroke-opacity="1"><g><path d="M 10 10L 10 17.5L 10 58C 10.000002 64.627417 15.372585 70 22.000002 69.999999L 22.1 70L 26.3 70"></path></g></g></g><g id="g-root-cu_1i676yhg8wa-stroke" data-item-order="0" transform="translate(422, 299)"><g id="cu_1i676yhg8wa-stroke" fill="none" stroke-linecap="round" stroke-linejoin="round" stroke-miterlimit="4" stroke="#969696" stroke-width="2" stroke-dasharray="0.1, 6.0" stroke-opacity="1"><g><path d="M 10 51L 13 51L 13.1 51C 17.997497 50.986259 23.191603 48.851695 27.700003 45C 30.434671 42.702644 32.750804 37.371862 33.999999 30.5C 35.249193 23.628138 37.565326 18.297356 40.299998 16C 44.808402 12.148305 50.002508 10.013741 54.900003 9.999999L 55 10L 58 10"></path></g></g></g><g id="g-root-tx_ithacare_htens2yh7ua5-stroke" data-item-order="0" transform="translate(38, 338)"></g><g id="g-root-cu_18gboiqyhg9hh-stroke" data-item-order="0" transform="translate(176, 326)"><g id="cu_18gboiqyhg9hh-stroke" fill="none" stroke-linecap="round" stroke-linejoin="round" stroke-miterlimit="4" stroke="#969696" stroke-width="2" stroke-dasharray="0.1, 6.0" stroke-opacity="1"><g><path d="M 26.2 10L 26.2 22L 26.2 34L 18.1 34L 10 34"></path></g></g></g><g id="g-root-cu_18gboiqyhg9hk-stroke" data-item-order="0" transform="translate(176, 326)"><g id="cu_18gboiqyhg9hk-stroke" fill="none" stroke-linecap="round" stroke-linejoin="round" stroke-miterlimit="4" stroke="#969696" stroke-width="2" stroke-dasharray="0.1, 6.0" stroke-opacity="1"><g><path d="M 26.2 10L 26.2 40L 26.2 70L 18.1 70L 10 70"></path></g></g></g><g id="g-root-cu_1414nheyhg742-stroke" data-item-order="0" transform="translate(176, 326)"><g id="cu_1414nheyhg742-stroke" fill="none" stroke-linecap="round" stroke-linejoin="round" stroke-miterlimit="4" stroke="#969696" stroke-width="2" stroke-dasharray="0.1, 6.0" stroke-opacity="1"><g><path d="M 26.2 10L 26.2 22L 26.2 94C 26.200002 100.627415 20.827419 105.999998 14.200002 105.999998L 14.1 106L 10 106"></path></g></g></g><g id="g-root-tx_kombucha_m7z7qayh7s3l-stroke" data-item-order="0" transform="translate(442, 548)"></g><g id="g-root-cu_1414nheyhg744-stroke" data-item-order="0" transform="translate(496, 326)"><g id="cu_1414nheyhg744-stroke" fill="none" stroke-linecap="round" stroke-linejoin="round" stroke-miterlimit="4" stroke="#969696" stroke-width="2" stroke-dasharray="0.1, 6.0" stroke-opacity="1"><g><path d="M 10 10L 10 22L 10 34L 18 34L 26 34"></path></g></g></g><g id="g-root-cu_v5hn8iyhg7wv-stroke" data-item-order="0" transform="translate(496, 326)"><g id="cu_v5hn8iyhg7wv-stroke" fill="none" stroke-linecap="round" stroke-linejoin="round" stroke-miterlimit="4" stroke="#969696" stroke-width="2" stroke-dasharray="0.1, 6.0" stroke-opacity="1"><g><path d="M 10 10L 10 40L 10 70L 18 70L 26 70"></path></g></g></g><g id="g-root-cu_qpo542yhg8p5-stroke" data-item-order="0" transform="translate(496, 326)"><g id="cu_qpo542yhg8p5-stroke" fill="none" stroke-linecap="round" stroke-linejoin="round" stroke-miterlimit="4" stroke="#969696" stroke-width="2" stroke-dasharray="0.1, 6.0" stroke-opacity="1"><g><path d="M 10 10L 10 22L 10 94C 10.000004 100.627423 15.372587 106.000006 22.000005 106.000005L 22.1 106L 26 106"></path></g></g></g><g id="g-root-tx_kombucha_v6qleqyh7rpk-stroke" data-item-order="0" transform="translate(518, 338)"></g><g id="g-root-tx_universi_2r4deyh7thi-stroke" data-item-order="0" transform="translate(14, 374)"></g><g id="g-root-tx_promotew_1hgc0deyh7swe-stroke" data-item-order="0" transform="translate(102, 584)"></g><g id="g-root-tx_specialt_dfgkwyyh7u2p-stroke" data-item-order="0" transform="translate(518, 374)"></g><g id="g-root-tx_wellness_1cxe4teyh7si7-stroke" data-item-order="0" transform="translate(38, 410)"></g><g id="g-root-cu_1umsq1uyhg9hk-stroke" data-item-order="0" transform="translate(294, 440)"><g id="cu_1umsq1uyhg9hk-stroke" fill="none" stroke-linecap="round" stroke-linejoin="round" stroke-miterlimit="4" stroke="#969696" stroke-width="2" stroke-dasharray="0.1, 6.0" stroke-opacity="1"><g><path d="M 34 10L 34 18.6L 34 58.1C 34.000002 69.642751 24.642753 79 13.100002 79L 13 79L 10 79"></path></g></g></g><g id="g-root-cu_dcyokiyhg7b5-stroke" data-item-order="0" transform="translate(370, 440)"><g id="cu_dcyokiyhg7b5-stroke" fill="none" stroke-linecap="round" stroke-linejoin="round" stroke-miterlimit="4" stroke="#969696" stroke-width="2" stroke-dasharray="0.1, 6.0" stroke-opacity="1"><g><path d="M 10 10L 10 18.6L 10 58.1C 9.999998 69.64275 19.357246 78.999999 30.899997 78.999999L 31 79L 34 79"></path></g></g></g><g id="g-root-tx_teaflavo_1umsq1uyh7rwi-stroke" data-item-order="0" transform="translate(442, 584)"></g><g id="g-root-tx_provider_144vi02yh7uhb-stroke" data-item-order="0" transform="translate(30, 620)"></g><g id="g-root-tx_teashopc_8z0lpeyhg7wv-stroke" data-item-order="0" transform="translate(20, 38)"></g><g id="g-root-tx_selfbrew_4mjmqyh7shu-stroke" data-item-order="0" transform="translate(518, 410)"></g><g id="g-root-tx_introduc_91ii1uyh7t3h-stroke" data-item-order="0" transform="translate(18, 548)"></g><g id="g-root-cu_m9umzmyhg9hk-stroke" data-item-order="0" transform="translate(252, 536)"><g id="cu_m9umzmyhg9hk-stroke" fill="none" stroke-linecap="round" stroke-linejoin="round" stroke-miterlimit="4" stroke="#969696" stroke-width="2" stroke-dasharray="0.1, 6.0" stroke-opacity="1"><g><path d="M 28 10L 28 22L 28 34L 19 34L 10 34"></path></g></g></g><g id="g-root-cu_hunlyayhg743-stroke" data-item-order="0" transform="translate(252, 536)"><g id="cu_hunlyayhg743-stroke" fill="none" stroke-linecap="round" stroke-linejoin="round" stroke-miterlimit="4" stroke="#969696" stroke-width="2" stroke-dasharray="0.1, 6.0" stroke-opacity="1"><g><path d="M 28 10L 28 40L 28 70L 19 70L 10 70"></path></g></g></g><g id="g-root-cu_8z0lpeyhg7wt-stroke" data-item-order="0" transform="translate(252, 536)"><g id="cu_8z0lpeyhg7wt-stroke" fill="none" stroke-linecap="round" stroke-linejoin="round" stroke-miterlimit="4" stroke="#969696" stroke-width="2" stroke-dasharray="0.1, 6.0" stroke-opacity="1"><g><path d="M 28 10L 28 22L 28 94C 28.000002 100.627415 22.627419 105.999998 16.000002 105.999998L 15.9 106L 10 106"></path></g></g></g><g id="g-root-tx_designco_1hfpg4iyhombo-stroke" data-item-order="1000000000" transform="translate(442, 137)"></g><g id="g-root-tx_customer_qrjkdeyhdfcz-stroke" data-item-order="1000000000" transform="translate(62, 287)"></g><g id="g-root-ic_wome_zofisiyhdfyk-stroke" data-item-order="1000000000" transform="translate(176, 284)"><g id="ic_wome_zofisiyhdfyk-stroke" fill="none" stroke-linecap="round" stroke-linejoin="round" stroke-miterlimit="4" stroke="#1eabda" stroke-width="2" stroke-opacity="1"><g><path d="M 25.625 16.235001C 25.625 19.361622 28.159628 21.89625 31.286249 21.89625C 34.412872 21.89625 36.947498 19.361622 36.947498 16.235001C 36.947498 13.108378 34.412872 10.57375 31.286249 10.57375C 28.159628 10.57375 25.625 13.108378 25.625 16.235001ZM 39.375 24.3225L 35.315002 20.26375M 31.92625 30.548748C 33.703617 30.747633 35.489391 30.255316 36.91375 29.17375C 36.127502 28.38875 35.587498 27.895 35.380001 24.845001M 33.75 39.322502L 39.375 39.322502C 39.322037 38.07592 39.007298 36.854446 38.451248 35.737499C 37.799999 34.435001 35.916248 33.532501 32.5 32.267498C 32.132381 32.135315 31.883995 31.790554 31.875 31.399998L 31.875 29.713749C 31.883326 29.451401 32.000107 29.204258 32.197498 29.03125C 32.841972 28.485598 33.186691 27.664684 33.124996 26.822498L 33.125 26.1975M 23.125 18.97625C 22.517315 18.790722 21.885376 18.696774 21.250002 18.6975C 18.6175 18.6975 15.5525 20.296251 15.25 24.84C 15.0425 27.889999 14.5 28.383749 13.71625 29.168751C 15.149476 30.255714 16.946623 30.748205 18.733749 30.543749M 23.80125 30.548748C 25.578615 30.747633 27.364389 30.255316 28.78875 29.17375C 28.002501 28.38875 27.4625 27.895 27.254999 24.845001C 27.229752 24.460762 27.18133 24.0784 27.110001 23.700001M 24.375 32.267498C 24.007381 32.135315 23.758995 31.790554 23.749998 31.399998L 23.75 29.713749C 23.758324 29.451401 23.875105 29.204258 24.0725 29.03125C 24.716972 28.485598 25.061691 27.664684 24.999998 26.822498L 25 24.3225C 23.530539 24.070572 22.200068 23.30023 21.25 22.151249C 20.299932 23.30023 18.969461 24.070572 17.5 24.3225L 17.5 26.8225C 17.438612 27.664898 17.783812 28.485849 18.428749 29.03125C 18.625803 29.20439 18.742144 29.451557 18.75 29.713749L 18.75 31.400002C 18.741003 31.790554 18.492617 32.135315 18.125 32.267498C 14.70875 33.532501 12.2 34.435001 11.54875 35.737499C 10.992704 36.854446 10.677966 38.07592 10.625 39.322502L 31.875 39.322502C 31.822035 38.07592 31.507298 36.854446 30.95125 35.737499C 30.299999 34.435001 27.79125 33.532501 24.375 32.267498Z"></path></g></g></g><g id="g-root-ic_floa_qtewgyyhombp-stroke" data-item-order="1000000000" transform="translate(406, 134)"><g id="ic_floa_qtewgyyhombp-stroke" fill="none" stroke-linecap="round" stroke-linejoin="round" stroke-miterlimit="4" stroke="#e55753" stroke-width="2" stroke-opacity="1"><g><path d="M 10.625 25C 10.625 32.939095 17.060907 39.375 25 39.375C 32.939095 39.375 39.375 32.939095 39.375 25C 39.375 17.060907 32.939095 10.625 25 10.625C 17.060907 10.625 10.625 17.060907 10.625 25ZM 20 25C 20 27.761423 22.238577 30 25 30C 27.761423 30 30 27.761423 30 25C 30 22.238577 27.761423 20 25 20C 22.238577 20 20 22.238577 20 25ZM 26.875 17.737499C 29.516102 18.421438 31.57856 20.483896 32.262501 23.124998L 36.72625 23.1175C 35.91177 18.057381 31.944912 14.089514 26.884998 13.27375ZM 23.125 13.27125C 18.058294 14.085527 14.085527 18.058294 13.27125 23.124998L 17.73625 23.125C 18.427483 20.488651 20.48785 18.430672 23.125002 17.7425ZM 26.875 36.727501C 31.941883 35.914471 35.915077 31.94178 36.728752 26.875002L 32.262501 26.875C 31.580441 29.508106 29.52837 31.56687 26.897499 32.2575ZM 23.125 32.262501C 20.484446 31.577602 18.422401 29.515554 17.737499 26.875002L 13.27625 26.883751C 14.090916 31.946535 18.061802 35.915405 23.125 36.727501Z"></path></g></g></g><g id="g-root-ic_serv_1d1rd9eyhn7yi-stroke" data-item-order="1000000000" transform="translate(482, 284)"><g id="ic_serv_1d1rd9eyhn7yi-stroke" fill="none" stroke-linecap="round" stroke-linejoin="round" stroke-miterlimit="4" stroke="#4e88e7" stroke-width="2" stroke-opacity="1"><g><path d="M 10.625 16.940001L 23.125 21.0825L 23.125 39.314999L 10.7075 35ZM 26.875 39.375L 39.375 35L 39.375 17.05625L 26.875 21.022499ZM 24.987499 18.168751L 38.16375 14.54875L 24.987499 10.80125L 11.99 14.35375L 24.987499 18.168751Z"></path></g></g></g><g id="g-root-tx_services_dhye3myhnaip-stroke" data-item-order="1000000000" transform="translate(518, 287)"></g><g id="g-root-ic_2_4hxvxeyhc0sk-stroke" data-item-order="1000000000" transform="translate(320, 314)"><g id="ic_2_4hxvxeyhc0sk-stroke" fill="none" stroke-linecap="round" stroke-linejoin="round" stroke-miterlimit="4" stroke="#ab9e2b" stroke-width="2" stroke-opacity="1"><g><path d="M 22.014 44.473999L 17.903999 42.759998C 13.364 40.868 9.678 35.653999 11.57 31.114L 17.218 32.827999C 21.759148 34.718765 23.906727 39.93367 22.014 44.474003ZM 23.4 44.473999L 27.5 42.759998C 32.040001 40.868 35.725998 35.653999 33.834 31.114L 28.184 32.827999C 23.647533 34.723442 21.50589 39.936981 23.400002 44.474003ZM 22.014 34.454002L 17.903999 32.742001C 13.364 30.85 9.678 25.636 11.57 21.096001L 17.218 22.799999C 19.400675 23.707897 21.132721 25.446499 22.032368 27.632587C 22.932014 29.818676 22.925406 32.272789 22.014 34.454002ZM 23.4 34.454002L 27.51 32.742001C 32.049999 30.85 35.736 25.636 33.844002 21.096001L 28.184 22.799999C 23.643955 24.696285 21.501749 29.914776 23.400002 34.454002ZM 22.702 26.662001L 22.702 50.040001M 27.153999 18.868C 27.153999 21.942001 22.702 26.667999 22.702 26.667999C 22.702 26.667999 18.248001 21.948 18.248001 18.868C 18.248001 15.788 22.702 11.076 22.702 11.076C 22.702 11.076 27.153999 15.8 27.153999 18.868ZM 32.938 47.924L 55.938 47.924L 55.938 56.924L 32.938 56.924ZM 34.938 45.431999L 34.938 47.613998M 53.938 41.264L 53.938 47.613998M 38.599998 40.686001C 39.726723 39.914856 40.40028 38.637344 40.400002 37.272003C 40.367023 38.77169 41.148239 40.171795 42.441792 40.931324C 43.735348 41.690849 45.338654 41.690849 46.632206 40.931324C 47.925762 40.171795 48.706978 38.77169 48.674 37.271999C 48.674332 39.557121 50.526882 41.409397 52.812 41.409397C 55.097118 41.409397 56.949669 39.557121 56.950001 37.271999L 54.880001 30.924L 40.400002 30.924M 48.661999 37.271999L 47.764 31.114M 40.388 37.271999L 40.388 30.924"></path></g></g></g><g id="g-root-tx_teashopc_v48fkyyhc0sj-stroke" data-item-order="1000000000" transform="translate(290, 368)"></g><g id="g-root-ic_1_zp1zvmyham15-stroke" data-item-order="1000000000" transform="translate(252, 134)"><g id="ic_1_zp1zvmyham15-stroke" fill="none" stroke-linecap="round" stroke-linejoin="round" stroke-miterlimit="4" stroke="#ba5de5" stroke-width="2" stroke-opacity="1"><g><path d="M 25 10.7125C 27.70439 10.709002 30.353739 11.476491 32.637497 12.925C 38.575001 16.674999 39.012497 24.4625 34.287498 30.150002C 31.588156 33.395103 28.614698 36.40202 25.4 39.137501C 25.168262 39.330521 24.831738 39.330521 24.6 39.137501C 21.385302 36.40202 18.411842 33.395103 15.712501 30.150002C 10.9875 24.4625 11.425 16.700001 17.362499 12.925C 19.646259 11.476491 22.29561 10.709002 25 10.7125ZM 18.75 27.5875L 31.25 27.5875M 21.25 22.5875L 21.25 27.5875M 25 22.5875L 25 27.5875M 28.75 22.5875L 28.75 27.5875M 18.75 20.0875L 31.25 20.0875M 30.299999 20.0875L 30.299999 18.8375C 29.502676 16.594866 27.380154 15.09681 25 15.09681C 22.619846 15.09681 20.497324 16.594866 19.700001 18.8375L 19.700001 20.0875"></path></g></g></g><g id="g-root-tx_goals_1utny02yhetqe-stroke" data-item-order="1000000000" transform="translate(186, 497)"></g><g id="g-root-ic_wait_qvwvz6yhevbb-stroke" data-item-order="1000000000" transform="translate(252, 494)"><g id="ic_wait_qvwvz6yhevbb-stroke" fill="none" stroke-linecap="round" stroke-linejoin="round" stroke-miterlimit="4" stroke="#92bd39" stroke-width="2" stroke-opacity="1"><g><path d="M 20.625 29.487499L 20.625 26.512501C 20.625088 26.308868 20.724369 26.118048 20.891073 26.001106C 21.057777 25.884163 21.271 25.855766 21.4625 25.924999L 29.375 28.75L 29.375 39.375L 21.0375 36.400002C 20.790033 36.310532 20.625113 36.075645 20.625 35.8125L 20.625 33.025002M 38.125 29.487499L 38.125 26.512501C 38.124916 26.308868 38.025631 26.118048 37.858929 26.001106C 37.692223 25.884163 37.479 25.855766 37.287498 25.924999L 29.375 28.75L 29.375 39.375L 37.712502 36.400002C 37.959969 36.310532 38.124889 36.075645 38.125 35.8125L 38.125 33.025002M 26.25 17.5C 26.25 19.225889 27.649111 20.625 29.375 20.625C 31.100891 20.625 32.5 19.225889 32.5 17.5C 32.5 15.774111 31.100891 14.375 29.375 14.375C 27.649111 14.375 26.25 15.774111 26.25 17.5M 21.25 33.125C 20.214466 33.125 19.375 32.285534 19.375 31.25C 19.375 30.214466 20.214466 29.375002 21.25 29.375002L 22.5 29.375C 22.845177 29.375 23.125 29.654823 23.125 30L 23.125 32.5C 23.125 32.845177 22.845177 33.125 22.5 33.125ZM 37.5 33.125C 38.535534 33.125 39.375 32.285534 39.375 31.25C 39.375 30.214466 38.535534 29.375002 37.5 29.375002L 36.25 29.375C 35.904823 29.375 35.625 29.654823 35.625 30L 35.625 32.5C 35.625 32.845177 35.904823 33.125 36.25 33.125ZM 26.25 17.5C 26.25 19.225889 27.649111 20.625 29.375 20.625C 31.100891 20.625 32.5 19.225889 32.5 17.5C 32.5 15.774111 31.100891 14.375 29.375 14.375C 27.649111 14.375 26.25 15.774111 26.25 17.5M 21.875 15.625C 21.875 14.934644 21.315357 14.375 20.625 14.375L 18.125 14.375L 18.125 11.875C 18.125 11.184644 17.565355 10.625 16.875 10.625L 15.625 10.625C 14.934644 10.625 14.375 11.184644 14.375 11.875L 14.375 14.375L 11.875 14.375C 11.184644 14.375 10.625 14.934644 10.625 15.625L 10.625 16.875C 10.625 17.565355 11.184644 18.125 11.875 18.125L 14.375 18.125L 14.375 20.625C 14.375 21.315357 14.934644 21.875 15.625 21.875L 16.875 21.875C 17.565355 21.875 18.125 21.315357 18.125 20.625L 18.125 18.125L 20.625 18.125C 21.315357 18.125 21.875 17.565355 21.875 16.875ZM 35 26.725C 33.97258 24.525867 31.764801 23.120485 29.3375 23.120485C 26.9102 23.120485 24.702423 24.525867 23.675001 26.725"></path></g></g></g><g id="g-root-tx_location_5vhsyyhalfk-stroke" data-item-order="1000000000" transform="translate(150, 137)"></g><g id="g-root-ic_kios_qrje1uyh7toi-stroke" data-item-order="1000000000" transform="translate(406, 494)"><g id="ic_kios_qrje1uyh7toi-stroke" fill="none" stroke-linecap="round" stroke-linejoin="round" stroke-miterlimit="4" stroke="#3cc583" stroke-width="2" stroke-opacity="1"><g><path d="M 13.125 39.375L 13.125 20.422501M 36.875 20.422501L 36.875 39.375M 36.102501 10.625L 13.8975 10.625C 13.424168 10.625253 12.991579 10.892838 12.78 11.31625L 10.625 15.625L 39.375 15.625L 37.219997 11.31625C 37.008423 10.892838 36.575832 10.625253 36.102501 10.625ZM 39.375 16.875C 39.428825 18.383045 38.530289 19.7626 37.129211 20.32303C 35.728138 20.883461 34.126053 20.504154 33.125 19.375C 32.30405 20.7633 30.870445 21.677065 29.265341 21.835106C 27.660238 21.993147 26.075947 21.376528 25 20.175001C 23.924051 21.376528 22.339762 21.993147 20.734657 21.835106C 19.129555 21.677065 17.69595 20.7633 16.875 19.375C 15.872749 20.501097 14.272291 20.878378 12.872599 20.318502C 11.472907 19.758625 10.574149 18.381657 10.625 16.875L 10.625 15.625L 39.375 15.625ZM 16.875 19.375L 16.875 15.625L 18.125 10.625M 25 20.182499L 25 15.625L 25 10.625M 33.125 19.375L 33.125 15.625L 31.875 10.625M 13.125 34.375L 36.875 34.375M 15.625 31.875C 15.625 33.255714 16.744287 34.375 18.125 34.375C 19.505713 34.375 20.625 33.255714 20.625 31.875C 20.625 30.494287 19.505713 29.375 18.125 29.375C 16.744287 29.375 15.625 30.494287 15.625 31.875ZM 18.125 29.375L 18.125 27.98875M 16.875 28.125L 17.352501 28.125C 18.209076 28.125282 18.992195 27.641279 19.375 26.875M 21.875 31.875C 21.875 33.255714 22.994287 34.375 24.375 34.375C 25.755713 34.375 26.875 33.255714 26.875 31.875C 26.875 30.494287 25.755713 29.375 24.375 29.375C 22.994287 29.375 21.875 30.494287 21.875 31.875ZM 24.375 29.375L 24.375 27.98875M 23.125 28.125L 23.602501 28.125C 24.459076 28.125282 25.242193 27.641279 25.625 26.875M 29.375 31.875C 29.375 33.255714 30.494287 34.375 31.875 34.375C 33.255714 34.375 34.375 33.255714 34.375 31.875C 34.375 30.494287 33.255714 29.375 31.875 29.375C 30.494287 29.375 29.375 30.494287 29.375 31.875ZM 31.875 29.375L 31.875 27.98875M 30.625 28.125L 31.102501 28.125C 31.959076 28.125282 32.742195 27.641279 33.125 26.875"></path></g></g></g><g id="g-root-tx_storetyp_1hdtxpeyh7toh-stroke" data-item-order="1000000000" transform="translate(442, 497)"></g></g></g></svg>