<?xml version="1.0" encoding="utf-8" standalone="yes"?>
<!DOCTYPE svg PUBLIC "-//W3C//DTD SVG 1.1//EN" "http://www.w3.org/Graphics/SVG/1.1/DTD/svg11.dtd">
<svg style="fill:none;stroke:none;fill-rule:evenodd;clip-rule:evenodd;stroke-linecap:round;stroke-linejoin:round;stroke-miterlimit:1.5;" version="1.1" xmlns="http://www.w3.org/2000/svg" xmlns:xlink="http://www.w3.org/1999/xlink" width="924" height="1032" viewBox="0 0 924 1032"><style class="text-font-style fontImports" data-font-family="Roboto">@import url(https://fonts.googleapis.com/css2?family=Roboto:wght@400;700&amp;amp;display=block);</style><g id="items" style="isolation: isolate"><g id="blend" style="mix-blend-mode: normal"><g id="g-root-cp_5_g-5_4o6jqqqfusy0-fill" data-item-order="-819926" transform="translate(44, 326)"><g id="cp_5_g-5_4o6jqqqfusy0-fill-merged" stroke="none" fill="#de8431" fill-opacity="1"><g><path d="M174.627 26.054C225.407 57.328 241.221 123.847 209.947 174.627C178.672 225.408 112.154 241.221 61.373 209.947C10.593 178.673 -5.22 112.154 26.054 61.374C57.328 10.593 123.846 -5.22 174.627 26.054"></path></g></g></g><g id="g-root-sy_5_ar-5_1qdu3ciqfuubt-fill" data-item-order="-819917" transform="translate(206.79876708984375, 236.6298828125)"></g><g id="g-root-cp_4_g-4_1lyn2b6qfurya-fill" data-item-order="-819916" transform="translate(154.00335693359375, 683)"><g id="cp_4_g-4_1lyn2b6qfurya-fill-merged" stroke="none" fill="#e0cb15" fill-opacity="1"><g><path d="M48.044 35.722C93.485 -2.914 161.642 2.603 200.278 48.044C238.914 93.485 233.397 161.642 187.956 200.278C142.515 238.914 74.358 233.397 35.722 187.956C-2.914 142.515 2.603 74.358 48.044 35.722"></path></g></g></g><g id="g-root-sy_4_ar-4_1d3022aqfusqz-fill" data-item-order="-819907" transform="translate(134.1868896484375, 547)"></g><g id="g-root-cp_3_g-3_18n6jxuqfutj8-fill" data-item-order="-819906" transform="translate(528, 688)"><g id="cp_3_g-3_18n6jxuqfutj8-fill-merged" stroke="none" fill="#1eabda" fill-opacity="1"><g><path d="M18.156 159.097C-4.542 103.954 21.761 40.853 76.903 18.156C132.046 -4.542 195.147 21.761 217.844 76.903C240.542 132.046 214.239 195.147 159.097 217.844C103.954 240.542 40.853 214.239 18.156 159.097"></path></g></g></g><g id="g-root-sy_3_ar-3_zrjjoyqfuubx-fill" data-item-order="-819897" transform="translate(364.5, 841.810546875)"></g><g id="g-root-cp_2_g-2_vccinmqfurye-fill" data-item-order="-819896" transform="translate(648, 334)"><g id="cp_2_g-2_vccinmqfurye-fill-merged" stroke="none" fill="#92bd39" fill-opacity="1"><g><path d="M126.233 225.68C66.763 230.228 14.867 185.704 10.319 126.233C5.772 66.763 50.296 14.867 109.767 10.319C169.237 5.772 221.133 50.296 225.68 109.767C230.228 169.237 185.704 221.133 126.233 225.68"></path></g></g></g><g id="g-root-sy_2_ar-2_mgpieqqfusr3-fill" data-item-order="-819887" transform="translate(715.5531616210938, 555.5)"></g><g id="g-root-cp_1_g-1_qwj0j6qfusqo-fill" data-item-order="-819886" transform="translate(348.93798828125, 110.494140625)"><g id="cp_1_g-1_qwj0j6qfusqo-fill-merged" stroke="none" fill="#4e88e7" fill-opacity="1"><g><path d="M222.938 143.441C208.888 201.396 150.516 236.988 92.561 222.938C34.606 208.888 -0.985 150.516 13.065 92.561C27.115 34.606 85.487 -0.985 143.441 13.065C201.396 27.115 236.988 85.487 222.938 143.441"></path></g></g></g><g id="g-root-sy_1_ar-1_i0w0aaqfutjd-fill" data-item-order="-819877" transform="translate(569, 240.2158203125)"></g><g id="g-root-ic_1_1d14pyqqffdvs-fill" data-item-order="-5184" transform="translate(416, 866)"><g id="ic_1_1d14pyqqffdvs-fill-merged" stroke="none" fill="#484848" fill-opacity="1"><g><path d="M82 43C82 41.343 80.657 40 79 40 H73C72.325 39.996 71.736 39.542 71.56 38.89C71.157 37.225 70.636 35.591 70 34C69.786 33.432 69.914 32.792 70.33 32.35L74.65 28C75.212 27.434 75.525 26.667 75.52 25.87C75.517 25.083 75.204 24.329 74.65 23.77L68.26 17.35C67.09 16.187 65.2 16.187 64.03 17.35L59.71 21.67C59.264 22.125 58.583 22.257 58 22C56.382 21.33 54.718 20.778 53.02 20.35C52.429 20.16 52.021 19.62 52 19 V13C52 11.343 50.657 10 49 10 H43C41.343 10 40 11.343 40 13 V19C39.996 19.675 39.542 20.264 38.89 20.44C37.225 20.843 35.591 21.364 34 22C33.432 22.214 32.792 22.086 32.35 21.67L28 17.35C26.83 16.187 24.94 16.187 23.77 17.35L17.35 23.74C16.796 24.299 16.483 25.053 16.48 25.84C16.467 26.648 16.781 27.427 17.35 28L21.67 32.26C22.123 32.719 22.253 33.407 22 34C21.33 35.618 20.778 37.282 20.35 38.98C20.153 39.566 19.617 39.97 19 40 H13C11.343 40 10 41.343 10 43 V49C10 50.657 11.343 52 13 52 H19C19.675 52.004 20.264 52.458 20.44 53.11C20.843 54.775 21.364 56.409 22 58C22.214 58.568 22.086 59.208 21.67 59.65L17.35 64C16.788 64.566 16.475 65.333 16.48 66.13C16.483 66.917 16.796 67.671 17.35 68.23L23.74 74.62C24.299 75.174 25.053 75.487 25.84 75.49C26.642 75.487 27.409 75.163 27.97 74.59L32.26 70.3C32.718 69.842 33.415 69.721 34 70C35.618 70.67 37.282 71.222 38.98 71.65C39.566 71.847 39.97 72.383 40 73 V79C40 80.657 41.343 82 43 82 H49C50.657 82 52 80.657 52 79 V73C52.004 72.325 52.458 71.736 53.11 71.56C54.775 71.157 56.409 70.636 58 70C58.558 69.784 59.191 69.913 59.62 70.33L64 74.65C65.17 75.813 67.06 75.813 68.23 74.65L74.62 68.26C75.783 67.09 75.783 65.2 74.62 64.03L70.3 59.74C69.858 59.274 69.739 58.587 70 58C70.67 56.382 71.222 54.718 71.65 53.02C71.847 52.434 72.383 52.03 73 52 H79C80.657 52 82 50.657 82 49 V43 M59.5 62.5C59.5 63.328 58.828 64 58 64 H53.5C52.672 64 52 63.328 52 62.5 V56.5C52 55.672 51.328 55 50.5 55 H41.5C40.672 55 40 55.672 40 56.5 V62.5C40 63.328 39.328 64 38.5 64 H34C33.172 64 32.5 63.328 32.5 62.5 V35.5C32.502 34.983 32.775 34.504 33.22 34.24L45.22 26.74C45.687 26.409 46.313 26.409 46.78 26.74L58.78 34.24C59.225 34.504 59.498 34.983 59.5 35.5 V62.5 M50.5 37 H41.5C40.257 37 39.25 38.007 39.25 39.25C39.25 40.493 40.257 41.5 41.5 41.5 H50.5C51.743 41.5 52.75 40.493 52.75 39.25C52.75 38.007 51.743 37 50.5 37 M50.5 46 H41.5C40.257 46 39.25 47.007 39.25 48.25C39.25 49.493 40.257 50.5 41.5 50.5 H50.5C51.743 50.5 52.75 49.493 52.75 48.25C52.75 47.007 51.743 46 50.5 46"></path></g></g></g><g id="g-root-ic_home_18n6n3mqffdog-fill" data-item-order="-5184" transform="translate(170, 194)"><g id="ic_home_18n6n3mqffdog-fill-merged" stroke="none" fill="#484848" fill-opacity="1"><g><path d="M56.14 41.77C58.936 39.403 63.034 39.403 65.83 41.77C66.216 42.11 66.794 42.11 67.18 41.77C67.534 41.39 67.534 40.8 67.18 40.42C61.997 34.251 53.345 32.278 46 35.59C45.585 35.792 45.279 36.164 45.16 36.61C45.054 37.063 45.165 37.54 45.46 37.9C47.133 39.976 48.423 42.332 49.27 44.86C49.429 45.333 49.813 45.697 50.294 45.829C50.776 45.961 51.291 45.846 51.67 45.52L56.14 41.77 M41.5 20.5C41.499 26.3 46.214 31.002 52.03 31.002C57.846 31.002 62.561 26.3 62.56 20.5C62.561 14.7 57.846 9.998 52.03 9.998C46.214 9.998 41.499 14.7 41.5 20.5 M28 34C18.794 33.942 11.028 40.841 10 49.99C9.948 50.502 10.111 51.012 10.45 51.4C10.796 51.781 11.286 51.999 11.8 52 H43.51C43.873 52.004 44.224 51.876 44.5 51.64L45.34 50.92C45.739 50.594 45.934 50.079 45.85 49.57C44.634 40.645 37.008 33.993 28 34 M31.36 29.77C34.824 27.976 37 24.401 37 20.5C37.05 15.177 33.131 10.649 27.856 9.936C22.581 9.223 17.599 12.547 16.234 17.692C14.868 22.837 17.546 28.194 22.48 30.19C23.765 30.72 25.14 30.995 26.53 31C28.216 30.988 29.874 30.566 31.36 29.77 M61.96 46.36C61.408 45.884 60.592 45.884 60.04 46.36L40.54 62.86C40.065 63.266 39.891 63.925 40.105 64.513C40.319 65.1 40.875 65.494 41.5 65.5 H45.25C45.664 65.5 46 65.836 46 66.25 V80.5C46 81.328 46.672 82 47.5 82 H74.5C75.328 82 76 81.328 76 80.5 V66.25C76 65.836 76.336 65.5 76.75 65.5 H80.5C81.125 65.494 81.681 65.1 81.895 64.513C82.109 63.925 81.935 63.266 81.46 62.86L61.96 46.36"></path></g></g></g><g id="g-root-ic_mark_1414e42qffc3t-fill" data-item-order="-5184" transform="translate(770, 626)"><g id="ic_mark_1414e42qffc3t-fill-merged" stroke="none" fill="#484848" fill-opacity="1"><g><path d="M41.581 48.52C45.541 40.831 51.523 32.773 58.126 28.372C59.16 27.682 59.439 26.284 58.749 25.251C58.058 24.217 56.661 23.938 55.627 24.628C48.931 29.092 43.051 36.628 38.887 44.032C37.53 41.019 36.89 37.734 37.015 34.432C37.225 29.071 39.454 23.956 43.303 20.011C50.455 11.905 69.109 10.315 76.15 10C76.887 9.955 77.609 10.216 78.148 10.721C78.686 11.225 78.993 11.929 78.997 12.667C79.054 18.199 78.388 30.946 71.776 40.171C65.17 49.39 55.759 53.68 46.933 51.259C44.203 56.563 42.295 62.704 41.02 67.99C40.185 71.461 39.516 74.97 39.016 78.505L38.935 79.135 V79.288C38.777 80.53 37.939 81.53 36.785 81.874C35.631 82.217 34.383 81.837 33.616 80.908L13.69 56.8C12.635 55.523 12.815 53.631 14.092 52.576C15.369 51.521 17.261 51.701 18.316 52.978L34.021 71.983C34.33 70.375 34.717 68.548 35.191 66.586C36.505 61.141 38.539 54.478 41.593 48.532"></path></g></g></g><g id="g-root-ic_chai_924mluqfw83m-fill" data-item-order="-5184" transform="translate(662, 206)"><g id="ic_chai_924mluqfw83m-fill-merged" stroke="none" fill="#484848" fill-opacity="1"><g><path d="M82 24.4C82 26.32 80.719 27.601 78.799 27.601 H76.36 V37.201 H78.799C80.719 37.201 82 38.479 82 40.399 V51.601C82 53.521 80.719 54.799 78.799 54.799 H67.6C65.68 54.799 64.399 53.521 64.399 51.601 V49.159 H54.799 V51.601C54.799 53.521 53.521 54.799 51.601 54.799 H40.399C38.479 54.799 37.201 53.521 37.201 51.601 V49.159 H27.601 V51.601C27.601 53.521 26.32 54.799 24.4 54.799 H21.961 V64.399 H24.4C26.32 64.399 27.601 65.68 27.601 67.6 V70.36 H37.201 V67.6C37.201 65.68 38.479 64.399 40.399 64.399 H51.601C53.521 64.399 54.799 65.68 54.799 67.6 V78.799C54.799 80.719 53.521 82 51.601 82 H40.399C38.479 82 37.201 80.719 37.201 78.799 V76.36 H27.601 V78.799C27.601 80.719 26.32 82 24.4 82 H13.201C11.281 82 10 80.719 10 78.799 V67.6C10 65.68 11.281 64.399 13.201 64.399 H15.961 V54.799 H13.201C11.281 54.799 10 53.521 10 51.601 V40.399C10 38.479 11.281 37.201 13.201 37.201 H24.4C26.32 37.201 27.601 38.479 27.601 40.399 V43.159 H37.201 V40.399C37.201 38.479 38.479 37.201 40.399 37.201 H51.601C53.521 37.201 54.799 38.479 54.799 40.399 V43.159 H64.399 V40.399C64.399 38.479 65.68 37.201 67.6 37.201 H70.36 V27.601 H67.6C65.68 27.601 64.399 26.32 64.399 24.4 V21.961 H54.799 V24.4C54.799 26.32 53.521 27.601 51.601 27.601 H40.399C38.479 27.601 37.201 26.32 37.201 24.4 V13.201C37.201 11.281 38.479 10 40.399 10 H51.601C53.521 10 54.799 11.281 54.799 13.201 V15.961 H64.399 V13.201C64.399 11.281 65.68 10 67.6 10 H78.799C80.719 10 82 11.281 82 13.201 V24.4"></path></g></g></g><g id="g-root-ic_poin_meu6b6qffdvv-fill" data-item-order="-5184" transform="translate(62, 626)"><g id="ic_poin_meu6b6qffdvv-fill-merged" stroke="none" fill="#484848" fill-opacity="1"><g><path d="M49 13.183C49 11.526 47.657 10.183 46 10.183C44.343 10.183 43 11.526 43 13.183 V19.132 H38.989C37.766 19.133 36.666 19.877 36.209 21.011C35.752 22.145 36.03 23.443 36.91 24.292L43.921 31.036C45.082 32.152 46.918 32.152 48.079 31.036L55.09 24.295C55.973 23.447 56.251 22.147 55.794 21.011C55.337 19.876 54.235 19.132 53.011 19.132 H49 V13.18 M30.25 40.249C30.25 38.592 31.593 37.249 33.25 37.249 H58.75C60.407 37.249 61.75 38.592 61.75 40.249 V78.709C61.75 80.366 60.407 81.709 58.75 81.709C57.093 81.709 55.75 80.366 55.75 78.709 V43.249 H36.25 V78.709C36.25 80.366 34.907 81.709 33.25 81.709C31.593 81.709 30.25 80.366 30.25 78.709 V40.249 M65.5 48.934C65.5 47.277 66.843 45.934 68.5 45.934 H78.298C79.955 45.934 81.298 47.277 81.298 48.934 V78.709C81.298 80.366 79.955 81.709 78.298 81.709C76.641 81.709 75.298 80.366 75.298 78.709 V51.934 H68.5C66.843 51.934 65.5 50.591 65.5 48.934 M23.5 45.934C25.157 45.934 26.5 47.277 26.5 48.934C26.5 50.591 25.157 51.934 23.5 51.934 H16.702 V78.709C16.702 80.366 15.359 81.709 13.702 81.709C12.045 81.709 10.702 80.366 10.702 78.709 V48.934C10.702 47.277 12.045 45.934 13.702 45.934 H23.5"></path></g></g></g><g id="g-root-tx_balancec_1448oduqfw7bc-fill" data-item-order="0" transform="translate(80, 459)"><g id="tx_balancec_1448oduqfw7bc-fill-merged" stroke="none" fill="#ffffff" fill-opacity="1"><g><text style="font: 15px Roboto, sans-serif; white-space: pre;" transform="translate(82, 28)" font-size="15px" font-family="Roboto, sans-serif"><tspan x="-67.61" y="0" dominant-baseline="ideographic">Balance commerce, </tspan><tspan x="-58.84" y="18" dominant-baseline="ideographic">culture, and calm</tspan></text></g></g></g><g id="g-root-tx_environm_140htv6qfw9an-fill" data-item-order="0" transform="translate(672, 467)"><g id="tx_environm_140htv6qfw9an-fill-merged" stroke="none" fill="#ffffff" fill-opacity="1"><g><text style="font: 15px Roboto, sans-serif; white-space: pre;" transform="translate(94, 28)" font-size="15px" font-family="Roboto, sans-serif"><tspan x="-80.86" y="0" dominant-baseline="ideographic">Environmentally friendly </tspan><tspan x="-32.36" y="18" dominant-baseline="ideographic">materials</tspan></text></g></g></g><g id="g-root-tx_uselower_1q7lcheqfw6x2-fill" data-item-order="0" transform="translate(678, 407)"><g id="tx_uselower_1q7lcheqfw6x2-fill-merged" stroke="none" fill="#ffffff" fill-opacity="1"><g><text style="font: bold 20px Roboto, sans-serif; white-space: pre;" transform="translate(88, 34)" font-weight="bold" font-size="20px" font-family="Roboto, sans-serif"><tspan x="-51.02" y="-0" dominant-baseline="ideographic">Use Lower-</tspan><tspan x="-72.58" y="24" dominant-baseline="ideographic">Carbon Finishes</tspan></text></g></g></g><g id="g-root-tx_fosterth_1hf2po2qfw8w7-fill" data-item-order="0" transform="translate(74, 399)"><g id="tx_fosterth_1hf2po2qfw8w7-fill-merged" stroke="none" fill="#ffffff" fill-opacity="1"><g><text style="font: bold 20px Roboto, sans-serif; white-space: pre;" transform="translate(88, 34)" font-weight="bold" font-size="20px" font-family="Roboto, sans-serif"><tspan x="-70.46" y="-0" dominant-baseline="ideographic">Foster Thriving </tspan><tspan x="-54.28" y="24" dominant-baseline="ideographic">Community</tspan></text></g></g></g><g id="g-root-tx_2_m9uagiqfw8i0-fill" data-item-order="0" transform="translate(738, 358.99609375)"><g id="tx_2_m9uagiqfw8i0-fill-merged" stroke="none" fill="#ffffff" fill-opacity="1"><g><text style="font: bold 25px Roboto, sans-serif; white-space: pre;" transform="translate(22, 28)" font-weight="bold" font-size="25px" font-family="Roboto, sans-serif"><tspan x="-7.17" y="15" dominant-baseline="ideographic">2</tspan></text></g></g></g><g id="g-root-tx_5_mdl4z6qfw6ip-fill" data-item-order="0" transform="translate(134, 350.99609375)"><g id="tx_5_mdl4z6qfw6ip-fill-merged" stroke="none" fill="#ffffff" fill-opacity="1"><g><text style="font: bold 25px Roboto, sans-serif; white-space: pre;" transform="translate(22, 28)" font-weight="bold" font-size="25px" font-family="Roboto, sans-serif"><tspan x="-7.17" y="15" dominant-baseline="ideographic">5</tspan></text></g></g></g><g id="g-root-tx_fasterco_m7yv76qfw9ho-fill" data-item-order="0" transform="translate(373, 243)"><g id="tx_fasterco_m7yv76qfw9ho-fill-merged" stroke="none" fill="#ffffff" fill-opacity="1"><g><text style="font: 15px Roboto, sans-serif; white-space: pre;" transform="translate(94, 28)" font-size="15px" font-family="Roboto, sans-serif"><tspan x="-81.84" y="0" dominant-baseline="ideographic">Faster construction with </tspan><tspan x="-72.55" y="18" dominant-baseline="ideographic">modular components</tspan></text></g></g></g><g id="g-root-tx_implemen_1cu9euqqfw9hn-fill" data-item-order="0" transform="translate(373, 183)"><g id="tx_implemen_1cu9euqqfw9hn-fill-merged" stroke="none" fill="#ffffff" fill-opacity="1"><g><text style="font: bold 20px Roboto, sans-serif; white-space: pre;" transform="translate(94, 34)" font-weight="bold" font-size="20px" font-family="Roboto, sans-serif"><tspan x="-48.31" y="-0" dominant-baseline="ideographic">Implement </tspan><tspan x="-77.44" y="24" dominant-baseline="ideographic">Modular Pod Kits</tspan></text></g></g></g><g id="g-root-tx_1_4hbbsiqfw8p1-fill" data-item-order="0" transform="translate(439, 134.99609375)"><g id="tx_1_4hbbsiqfw8p1-fill-merged" stroke="none" fill="#ffffff" fill-opacity="1"><g><text style="font: bold 25px Roboto, sans-serif; white-space: pre;" transform="translate(22, 28)" font-weight="bold" font-size="25px" font-family="Roboto, sans-serif"><tspan x="-7.17" y="15" dominant-baseline="ideographic">1</tspan></text></g></g></g><g id="g-root-tx_3_142d94iqfw8az-fill" data-item-order="0" transform="translate(618, 712.99609375)"><g id="tx_3_142d94iqfw8az-fill-merged" stroke="none" fill="#ffffff" fill-opacity="1"><g><text style="font: bold 25px Roboto, sans-serif; white-space: pre;" transform="translate(22, 28)" font-weight="bold" font-size="25px" font-family="Roboto, sans-serif"><tspan x="-7.17" y="15" dominant-baseline="ideographic">3</tspan></text></g></g></g><g id="g-root-tx_achieves_qrj7uaqfw6q4-fill" data-item-order="0" transform="translate(178, 744)"><g id="tx_achieves_qrj7uaqfw6q4-fill-merged" stroke="none" fill="#ffffff" fill-opacity="1"><g><text style="font: bold 20px Roboto, sans-serif; white-space: pre;" transform="translate(94, 34)" font-weight="bold" font-size="20px" font-family="Roboto, sans-serif"><tspan x="-79.28" y="-0" dominant-baseline="ideographic">Achieve Scalable </tspan><tspan x="-30.57" y="24" dominant-baseline="ideographic">Model</tspan></text></g></g></g><g id="g-root-tx_refinewo_8z096aqfw6x5-fill" data-item-order="0" transform="translate(552, 761)"><g id="tx_refinewo_8z096aqfw6x5-fill-merged" stroke="none" fill="#ffffff" fill-opacity="1"><g><text style="font: bold 20px Roboto, sans-serif; white-space: pre;" transform="translate(94, 34)" font-weight="bold" font-size="20px" font-family="Roboto, sans-serif"><tspan x="-79.14" y="-0" dominant-baseline="ideographic">Refine Workshop </tspan><tspan x="-43.42" y="24" dominant-baseline="ideographic">Logistics</tspan></text></g></g></g><g id="g-root-tx_replicab_dg2pgyqfw8b1-fill" data-item-order="0" transform="translate(196, 804)"><g id="tx_replicab_dg2pgyqfw8b1-fill-merged" stroke="none" fill="#ffffff" fill-opacity="1"><g><text style="font: 15px Roboto, sans-serif; white-space: pre;" transform="translate(76, 40)" font-size="15px" font-family="Roboto, sans-serif"><tspan x="-50.66" y="-9" dominant-baseline="ideographic">Replicable and </tspan><tspan x="-63.3" y="9" dominant-baseline="ideographic">adaptable brewery </tspan><tspan x="-24.13" y="27" dominant-baseline="ideographic">design</tspan></text></g></g></g><g id="g-root-tx_sustaina_4g2dmaqfw6iy-fill" data-item-order="0" transform="translate(302, 38)"><g id="tx_sustaina_4g2dmaqfw6iy-fill-merged" stroke="none" fill="#484848" fill-opacity="1"><g><text style="font: bold 25px Roboto, sans-serif; white-space: pre;" transform="translate(160, 28)" font-weight="bold" font-size="25px" font-family="Roboto, sans-serif"><tspan x="-147.35" y="15" dominant-baseline="ideographic">Future Development Cycle</tspan></text></g></g></g><g id="g-root-tx_efficien_1q8uanmqfw936-fill" data-item-order="0" transform="translate(564, 821)"><g id="tx_efficien_1q8uanmqfw936-fill-merged" stroke="none" fill="#ffffff" fill-opacity="1"><g><text style="font: 15px Roboto, sans-serif; white-space: pre;" transform="translate(82, 28)" font-size="15px" font-family="Roboto, sans-serif"><tspan x="-67.89" y="0" dominant-baseline="ideographic">Efficient support for </tspan><tspan x="-63.25" y="18" dominant-baseline="ideographic">brewing education</tspan></text></g></g></g><g id="g-root-tx_4_1uqj81eqfw7ba-fill" data-item-order="0" transform="translate(244, 695.99609375)"><g id="tx_4_1uqj81eqfw7ba-fill-merged" stroke="none" fill="#ffffff" fill-opacity="1"><g><text style="font: bold 25px Roboto, sans-serif; white-space: pre;" transform="translate(22, 28)" font-weight="bold" font-size="25px" font-family="Roboto, sans-serif"><tspan x="-7.17" y="15" dominant-baseline="ideographic">4</tspan></text></g></g></g><g id="g-root-cp_5_g-5_4o6jqqqfusy0-stroke" data-item-order="-819926" transform="translate(44, 326)"><g id="cp_5_g-5_4o6jqqqfusy0-stroke" fill="none" stroke-linecap="round" stroke-linejoin="round" stroke-miterlimit="4" stroke="#ffffff" stroke-width="2" stroke-opacity="1"><g><path d="M 174.6267 26.054088C 225.4073 57.328088 241.2205 123.846588 209.9465 174.627188C 178.6724 225.407788 112.1539 241.220988 61.3733 209.946888C 10.5927 178.672888 -5.2205 112.154388 26.0536 61.373788C 57.3276 10.593188 123.8461 -5.220012 174.6267 26.054088Z"></path></g></g></g><g id="g-root-sy_5_ar-5_1qdu3ciqfuubt-stroke" data-item-order="-819917" transform="translate(206.79876708984375, 236.6298828125)"><g id="sy_5_ar-5_1qdu3ciqfuubt-stroke" fill="none" stroke-linecap="round" stroke-linejoin="round" stroke-miterlimit="4" stroke="#de8431" stroke-width="2" stroke-opacity="1"><g><path d="M 10 106.87C 45.62 63.78 92.39 30.24 145.88 10.66"></path><path d="M 142.5 18.9L 146.3 10.5L 137.9 6.8" stroke-dasharray="none"></path></g></g></g><g id="g-root-cp_4_g-4_1lyn2b6qfurya-stroke" data-item-order="-819916" transform="translate(154.00335693359375, 683)"><g id="cp_4_g-4_1lyn2b6qfurya-stroke" fill="none" stroke-linecap="round" stroke-linejoin="round" stroke-miterlimit="4" stroke="#ffffff" stroke-width="2" stroke-opacity="1"><g><path d="M 48.04387 35.7219C 93.48487 -2.9137 161.64237 2.603 200.27807 48.0439C 238.91377 93.4849 233.39697 161.6424 187.95597 200.2781C 142.51507 238.9138 74.35757 233.397 35.72187 187.9561C -2.91373 142.5151 2.60297 74.3576 48.04387 35.7219Z"></path></g></g></g><g id="g-root-sy_4_ar-4_1d3022aqfusqz-stroke" data-item-order="-819907" transform="translate(134.1868896484375, 547)"><g id="sy_4_ar-4_1d3022aqfusqz-stroke" fill="none" stroke-linecap="round" stroke-linejoin="round" stroke-miterlimit="4" stroke="#e0cb15" stroke-width="2" stroke-opacity="1"><g><path d="M 59.66 170C 30.28 124.03 12.4 70.01 10.07 11.98"></path><path d="M 16.9 17.6L 10.1 11.5L 3.9 18.3" stroke-dasharray="none"></path></g></g></g><g id="g-root-cp_3_g-3_18n6jxuqfutj8-stroke" data-item-order="-819906" transform="translate(528, 688)"><g id="cp_3_g-3_18n6jxuqfutj8-stroke" fill="none" stroke-linecap="round" stroke-linejoin="round" stroke-miterlimit="4" stroke="#ffffff" stroke-width="2" stroke-opacity="1"><g><path d="M 18.1555 159.0968C -4.5417 103.9542 21.7606 40.8526 76.9032 18.1555C 132.0458 -4.5417 195.1474 21.7606 217.8445 76.9032C 240.5417 132.0458 214.2394 195.1474 159.0968 217.8445C 103.9542 240.5417 40.8526 214.2394 18.1555 159.0968Z"></path></g></g></g><g id="g-root-sy_3_ar-3_zrjjoyqfuubx-stroke" data-item-order="-819897" transform="translate(364.5, 841.810546875)"><g id="sy_3_ar-3_zrjjoyqfuubx-stroke" fill="none" stroke-linecap="round" stroke-linejoin="round" stroke-miterlimit="4" stroke="#1eabda" stroke-width="2" stroke-opacity="1"><g><path d="M 178 11.91C 152.29 18.62 125.31 22.19 97.5 22.19C 67.83 22.19 39.12 18.13 11.88 10.53"></path><path d="M 19.4 5.8L 11.4 10.4L 16.1 18.3" stroke-dasharray="none"></path></g></g></g><g id="g-root-cp_2_g-2_vccinmqfurye-stroke" data-item-order="-819896" transform="translate(648, 334)"><g id="cp_2_g-2_vccinmqfurye-stroke" fill="none" stroke-linecap="round" stroke-linejoin="round" stroke-miterlimit="4" stroke="#ffffff" stroke-width="2" stroke-opacity="1"><g><path d="M 126.2335 225.6805C 66.7633 230.2277 14.8668 185.7038 10.3195 126.2335C 5.7723 66.7633 50.2962 14.8668 109.7665 10.3195C 169.2368 5.7723 221.1332 50.2962 225.6805 109.7665C 230.2277 169.2367 185.7038 221.1332 126.2335 225.6805Z"></path></g></g></g><g id="g-root-sy_2_ar-2_mgpieqqfusr3-stroke" data-item-order="-819887" transform="translate(715.5531616210938, 555.5)"><g id="sy_2_ar-2_mgpieqqfusr3-stroke" fill="none" stroke-linecap="round" stroke-linejoin="round" stroke-miterlimit="4" stroke="#92bd39" stroke-width="2" stroke-opacity="1"><g><path d="M 63.86 10C 60.36 67.8 41.43 121.43 11.13 166.82"></path><path d="M 8.9 158.3L 10.8 167.2L 19.8 165.3" stroke-dasharray="none"></path></g></g></g><g id="g-root-cp_1_g-1_qwj0j6qfusqo-stroke" data-item-order="-819886" transform="translate(348.93798828125, 110.494140625)"><g id="cp_1_g-1_qwj0j6qfusqo-stroke" fill="none" stroke-linecap="round" stroke-linejoin="round" stroke-miterlimit="4" stroke="#ffffff" stroke-width="2" stroke-opacity="1"><g><path d="M 222.9379 143.4415C 208.8876 201.3963 150.516 236.9881 92.5611 222.9379C 34.6062 208.8876 -0.9855 150.516 13.0647 92.5611C 27.1149 34.6062 85.4866 -0.9855 143.4415 13.0647C 201.3963 27.1149 236.9881 85.4866 222.9379 143.4415Z"></path></g></g></g><g id="g-root-sy_1_ar-1_i0w0aaqfutjd-stroke" data-item-order="-819877" transform="translate(569, 240.2158203125)"><g id="sy_1_ar-1_i0w0aaqfutjd-stroke" fill="none" stroke-linecap="round" stroke-linejoin="round" stroke-miterlimit="4" stroke="#4e88e7" stroke-width="2" stroke-opacity="1"><g><path d="M 10 10C 62.56 30.81 108.25 65.22 142.73 108.89"></path><path d="M 133.9 108.4L 143.1 109.3L 144 100.2" stroke-dasharray="none"></path></g></g></g><g id="g-root-ic_1_1d14pyqqffdvs-stroke" data-item-order="-5184" transform="translate(416, 866)"></g><g id="g-root-ic_home_18n6n3mqffdog-stroke" data-item-order="-5184" transform="translate(170, 194)"></g><g id="g-root-ic_mark_1414e42qffc3t-stroke" data-item-order="-5184" transform="translate(770, 626)"></g><g id="g-root-ic_chai_924mluqfw83m-stroke" data-item-order="-5184" transform="translate(662, 206)"></g><g id="g-root-ic_poin_meu6b6qffdvv-stroke" data-item-order="-5184" transform="translate(62, 626)"></g><g id="g-root-tx_balancec_1448oduqfw7bc-stroke" data-item-order="0" transform="translate(80, 459)"></g><g id="g-root-tx_environm_140htv6qfw9an-stroke" data-item-order="0" transform="translate(672, 467)"></g><g id="g-root-tx_uselower_1q7lcheqfw6x2-stroke" data-item-order="0" transform="translate(678, 407)"></g><g id="g-root-tx_fosterth_1hf2po2qfw8w7-stroke" data-item-order="0" transform="translate(74, 399)"></g><g id="g-root-tx_2_m9uagiqfw8i0-stroke" data-item-order="0" transform="translate(738, 358.99609375)"></g><g id="g-root-tx_5_mdl4z6qfw6ip-stroke" data-item-order="0" transform="translate(134, 350.99609375)"></g><g id="g-root-tx_fasterco_m7yv76qfw9ho-stroke" data-item-order="0" transform="translate(373, 243)"></g><g id="g-root-tx_implemen_1cu9euqqfw9hn-stroke" data-item-order="0" transform="translate(373, 183)"></g><g id="g-root-tx_1_4hbbsiqfw8p1-stroke" data-item-order="0" transform="translate(439, 134.99609375)"></g><g id="g-root-tx_3_142d94iqfw8az-stroke" data-item-order="0" transform="translate(618, 712.99609375)"></g><g id="g-root-tx_achieves_qrj7uaqfw6q4-stroke" data-item-order="0" transform="translate(178, 744)"></g><g id="g-root-tx_refinewo_8z096aqfw6x5-stroke" data-item-order="0" transform="translate(552, 761)"></g><g id="g-root-tx_replicab_dg2pgyqfw8b1-stroke" data-item-order="0" transform="translate(196, 804)"></g><g id="g-root-tx_sustaina_4g2dmaqfw6iy-stroke" data-item-order="0" transform="translate(302, 38)"></g><g id="g-root-tx_efficien_1q8uanmqfw936-stroke" data-item-order="0" transform="translate(564, 821)"></g><g id="g-root-tx_4_1uqj81eqfw7ba-stroke" data-item-order="0" transform="translate(244, 695.99609375)"></g></g></g></svg>