<?xml version="1.0" encoding="utf-8" standalone="yes"?>
<!DOCTYPE svg PUBLIC "-//W3C//DTD SVG 1.1//EN" "http://www.w3.org/Graphics/SVG/1.1/DTD/svg11.dtd">
<svg style="fill:none;stroke:none;fill-rule:evenodd;clip-rule:evenodd;stroke-linecap:round;stroke-linejoin:round;stroke-miterlimit:1.5;" version="1.1" xmlns="http://www.w3.org/2000/svg" xmlns:xlink="http://www.w3.org/1999/xlink" width="926" height="1022" viewBox="0 0 926 1022"><style class="text-font-style fontImports" data-font-family="Roboto">@import url(https://fonts.googleapis.com/css2?family=Roboto:wght@400;700&amp;amp;display=block);</style><g id="items" style="isolation: isolate"><g id="blend" style="mix-blend-mode: normal"><g id="g-root-cp_5_g-5_140he4diy07bg-fill" data-item-order="-809414" transform="translate(44, 314)"><g id="cp_5_g-5_140he4diy07bg-fill-merged" stroke="none" fill="#1eabda" fill-opacity="1"><g><path d="M174.627 26.054C225.407 57.328 241.221 123.847 209.947 174.627C178.672 225.408 112.154 241.221 61.373 209.947C10.593 178.673 -5.22 112.154 26.054 61.374C57.328 10.593 123.846 -5.22 174.627 26.054"></path></g></g></g><g id="g-root-sy_5_ar-5_zlad31iy04xx-fill" data-item-order="-809405" transform="translate(206.79876708984375, 224.6298828125)"></g><g id="g-root-cp_4_g-4_zlad31iy04xy-fill" data-item-order="-809404" transform="translate(154.00033569335938, 671)"><g id="cp_4_g-4_zlad31iy04xy-fill-merged" stroke="none" fill="#4e88e7" fill-opacity="1"><g><path d="M48.044 35.722C93.485 -2.914 161.642 2.603 200.278 48.044C238.914 93.485 233.397 161.642 187.956 200.278C142.515 238.914 74.358 233.397 35.722 187.956C-2.914 142.515 2.603 74.358 48.044 35.722"></path></g></g></g><g id="g-root-sy_4_ar-4_qpncu5iy05qn-fill" data-item-order="-809395" transform="translate(134.1868896484375, 535)"></g><g id="g-root-cp_3_g-3_v5guyliy05q8-fill" data-item-order="-809394" transform="translate(528, 676)"><g id="cp_3_g-3_v5guyliy05q8-fill-merged" stroke="none" fill="#de8431" fill-opacity="1"><g><path d="M18.156 159.097C-4.542 103.954 21.761 40.853 76.903 18.156C132.046 -4.542 195.147 21.761 217.844 76.903C240.542 132.046 214.239 195.147 159.097 217.844C103.954 240.542 40.853 214.239 18.156 159.097"></path></g></g></g><g id="g-root-sy_3_ar-3_m9tuppiy06ix-fill" data-item-order="-809385" transform="translate(364.5, 829.810546875)"></g><g id="g-root-cp_2_g-2_hu0cl9iy07b6-fill" data-item-order="-809384" transform="translate(648, 322)"><g id="cp_2_g-2_hu0cl9iy07b6-fill-merged" stroke="none" fill="#e0cb15" fill-opacity="1"><g><path d="M126.233 225.68C66.763 230.228 14.867 185.704 10.319 126.233C5.772 66.763 50.296 14.867 109.767 10.319C169.237 5.772 221.133 50.296 225.68 109.767C230.228 169.237 185.704 221.133 126.233 225.68"></path></g></g></g><g id="g-root-sy_2_ar-2_hu0cl9iy07b7-fill" data-item-order="-809375" transform="translate(715.5531616210938, 543.5)"></g><g id="g-root-cp_1_g-1_8yztfhiy04y4-fill" data-item-order="-809374" transform="translate(348.93798828125, 98.494140625)"><g id="cp_1_g-1_8yztfhiy04y4-fill-merged" stroke="none" fill="#92bd39" fill-opacity="1"><g><path d="M222.938 143.441C208.888 201.396 150.516 236.988 92.561 222.938C34.606 208.888 -0.985 150.516 13.065 92.561C27.115 34.606 85.487 -0.985 143.441 13.065C201.396 27.115 236.988 85.487 222.938 143.441"></path></g></g></g><g id="g-root-sy_1_ar-1_8yztfhiy04y5-fill" data-item-order="-809365" transform="translate(569, 228.2158203125)"></g><g id="g-root-ic_fill_hxr73xiy05c6-fill" data-item-order="-5184" transform="translate(662, 194)"><g id="ic_fill_hxr73xiy05c6-fill-merged" stroke="none" fill="#484848" fill-opacity="1"><g><path d="M33.25 11.5 V17.98C33.25 19.637 34.593 20.98 36.25 20.98 H38.98L40.72 25.15C41.189 26.259 42.276 26.979 43.48 26.98 H48.52C49.724 26.979 50.811 26.259 51.28 25.15L53.02 20.98 H55.75C57.407 20.98 58.75 19.637 58.75 17.98 V11.5C58.75 10.672 58.078 10 57.25 10 H34.75C33.922 10 33.25 10.672 33.25 11.5 M51.04 40C51.04 42.783 48.783 45.039 46 45.039C43.217 45.039 40.96 42.783 40.96 40C41.567 37.337 42.71 34.826 44.32 32.62C44.682 32.04 45.317 31.688 46 31.688C46.683 31.688 47.318 32.04 47.68 32.62C49.29 34.826 50.433 37.337 51.04 40 M55.63 64.72L52.63 56.86 V52.75C52.63 51.507 51.623 50.5 50.38 50.5C49.137 50.5 48.13 51.507 48.13 52.75 V57.25C48.101 57.509 48.101 57.771 48.13 58.03L48.67 59.5 H43L43.54 58.03C43.569 57.771 43.569 57.509 43.54 57.25 V52.75C43.54 51.507 42.533 50.5 41.29 50.5C40.047 50.5 39.04 51.507 39.04 52.75 V56.86L36.04 64.72C36.011 64.979 36.011 65.241 36.04 65.5 V76.75C36.047 78.177 36.632 79.54 37.66 80.529C38.689 81.518 40.074 82.049 41.5 82 H50.5C53.393 81.984 55.734 79.643 55.75 76.75 V65.5C55.739 65.236 55.699 64.975 55.63 64.72 M29.38 64.72L26.38 56.86 V52.75C26.38 51.507 25.373 50.5 24.13 50.5C22.887 50.5 21.88 51.507 21.88 52.75 V57.25C21.893 57.504 21.933 57.755 22 58L25 65.86 V76.72C25 77.134 24.664 77.47 24.25 77.47 H15.25C14.836 77.47 14.5 77.134 14.5 76.72 V65.89L17.5 58.03C17.529 57.771 17.529 57.509 17.5 57.25 V52.75C17.5 51.507 16.493 50.5 15.25 50.5C14.007 50.5 13 51.507 13 52.75 V56.86L10 64.72C9.971 64.979 9.971 65.241 10 65.5 V76.75C10.016 79.643 12.357 81.984 15.25 82 H24.25C27.143 81.984 29.484 79.643 29.5 76.75 V65.5C29.489 65.236 29.449 64.975 29.38 64.72 M82 64.72L79 56.86 V52.75C79 51.507 77.993 50.5 76.75 50.5C75.507 50.5 74.5 51.507 74.5 52.75 V57.25C74.471 57.509 74.471 57.771 74.5 58.03L77.5 65.89 V76.75C77.5 77.164 77.164 77.5 76.75 77.5 H67.75C67.336 77.5 67 77.164 67 76.75 V65.89L70 58C70.029 57.741 70.029 57.479 70 57.22 V52.72C70 51.477 68.993 50.47 67.75 50.47C66.507 50.47 65.5 51.477 65.5 52.72 V56.83L62.5 64.69C62.471 64.949 62.471 65.211 62.5 65.47 V76.72C62.5 79.624 64.846 81.983 67.75 82 H76.75C79.643 81.984 81.984 79.643 82 76.75 V65.5C82.029 65.241 82.029 64.979 82 64.72"></path></g></g></g><g id="g-root-ic_stov_v5guyliy1jwq-fill" data-item-order="-5184" transform="translate(416, 854)"><g id="ic_stov_v5guyliy1jwq-fill-merged" stroke="none" fill="#484848" fill-opacity="1"><g><path d="M19 62.86 H16C15.172 62.86 14.5 63.532 14.5 64.36 V77.86C14.5 79.517 15.843 80.86 17.5 80.86C19.157 80.86 20.5 79.517 20.5 77.86 V64.36C20.5 63.532 19.828 62.86 19 62.86 M76 62.86 H73C72.172 62.86 71.5 63.532 71.5 64.36 V77.86C71.5 79.517 72.843 80.86 74.5 80.86C76.157 80.86 77.5 79.517 77.5 77.86 V64.36C77.5 63.532 76.828 62.86 76 62.86 M40 71.86 H28C25.515 71.86 23.5 73.875 23.5 76.36C23.5 78.845 25.515 80.86 28 80.86 H40C42.485 80.86 44.5 78.845 44.5 76.36C44.5 73.875 42.485 71.86 40 71.86 M64 71.86 H52C49.515 71.86 47.5 73.875 47.5 76.36C47.5 78.845 49.515 80.86 52 80.86 H64C66.485 80.86 68.5 78.845 68.5 76.36C68.5 73.875 66.485 71.86 64 71.86 M14.5 49.36 H77.5C77.5 49.36 82 49.36 82 53.86 V55.36C82 55.36 82 59.86 77.5 59.86 H14.5C14.5 59.86 10 59.86 10 55.36 V53.86C10 53.86 10 49.36 14.5 49.36 M70.75 32.86C70.75 31.203 69.407 29.86 67.75 29.86 H58.75C57.093 29.86 55.75 31.203 55.75 32.86 V37C55.751 39.436 56.316 41.839 57.4 44.02C57.658 44.53 58.178 44.854 58.75 44.86 H67.75C68.322 44.854 68.842 44.53 69.1 44.02C70.184 41.839 70.749 39.436 70.75 37 V32.86 M43.39 17.95C43.628 17.96 43.855 17.847 43.99 17.65C44.079 17.449 44.079 17.221 43.99 17.02C43.635 15.57 42.863 14.256 41.77 13.24C40.248 11.89 38.285 11.143 36.25 11.14C32.554 11.069 29.296 13.556 28.39 17.14C28.271 17.333 28.271 17.577 28.39 17.77C28.525 17.967 28.752 18.08 28.99 18.07L43.39 17.95 M59.86 20.86C59.86 19.203 58.517 17.86 56.86 17.86 H55.45C52.909 17.872 50.59 19.31 49.45 21.58L47.74 25C47.611 25.262 47.342 25.426 47.05 25.42 H45.58C45.22 25.42 44.89 22.24 44.86 21.88 V21.61C44.802 21.238 44.487 20.96 44.11 20.95 H28.42C28.043 20.96 27.728 21.238 27.67 21.61 V21.82C27.67 22.18 27.31 25.36 26.95 25.36 H21.25C17.522 25.36 14.5 28.382 14.5 32.11C14.5 35.838 17.522 38.86 21.25 38.86C22.907 38.86 24.25 37.517 24.25 35.86C24.25 34.203 22.907 32.86 21.25 32.86C20.836 32.86 20.5 32.524 20.5 32.11C20.5 31.696 20.836 31.36 21.25 31.36 H25.84C26.054 31.361 26.259 31.448 26.41 31.6C26.54 31.772 26.604 31.985 26.59 32.2L25 43.15C24.951 43.582 25.081 44.016 25.36 44.35C25.648 44.678 26.064 44.864 26.5 44.86 H46C46.436 44.864 46.852 44.678 47.14 44.35C47.419 44.016 47.549 43.582 47.5 43.15L46 32.2C45.931 32.006 45.931 31.794 46 31.6C46.151 31.448 46.356 31.361 46.57 31.36 H46.96C49.507 31.342 51.828 29.892 52.96 27.61L54.61 24.28C54.739 24.018 55.008 23.854 55.3 23.86 H56.71C57.531 23.901 58.333 23.603 58.929 23.036C59.524 22.469 59.861 21.682 59.86 20.86"></path></g></g></g><g id="g-root-ic_mane_qun5j1iy2xhn-fill" data-item-order="-5184" transform="translate(62, 614)"><g id="ic_mane_qun5j1iy2xhn-fill-merged" stroke="none" fill="#484848" fill-opacity="1"><g><path d="M59.95 64.75 H34.45C33.622 64.75 32.95 64.078 32.95 63.25C32.95 62.422 33.622 61.75 34.45 61.75 H46.45C46.848 61.755 47.229 61.591 47.5 61.3C47.78 61.021 47.941 60.645 47.95 60.25C47.95 55.279 43.921 51.25 38.95 51.25 H20.95C20.536 51.25 20.2 50.914 20.2 50.5C20.2 48.843 18.857 47.5 17.2 47.5C15.543 47.5 14.2 48.843 14.2 50.5 V79C14.2 80.657 15.543 82 17.2 82C18.857 82 20.2 80.657 20.2 79C20.2 78.586 20.536 78.25 20.95 78.25 H70.45C71.278 78.25 71.95 77.578 71.95 76.75C71.95 70.123 66.577 64.75 59.95 64.75 M76.51 25.66C76.321 25.247 75.958 24.939 75.52 24.82C75.072 24.696 74.591 24.797 74.23 25.09C71.958 26.72 69.357 27.836 66.61 28.36C64.214 28.839 61.919 29.732 59.83 31C57.444 32.376 55.902 34.852 55.72 37.6C55.731 38.868 56.129 40.103 56.86 41.14C57.144 41.632 57.144 42.238 56.86 42.73C56.5 43.36 56.14 43.96 55.84 44.56C55.696 44.822 55.419 44.984 55.12 44.98C54.82 44.952 54.563 44.753 54.46 44.47C53.521 41.96 52.419 39.515 51.16 37.15C50.843 36.515 51.004 35.744 51.55 35.29C53.124 34.105 54.255 32.425 54.76 30.52C55.26 26.885 53.976 23.232 51.31 20.71C48.469 17.844 44.831 15.9 40.87 15.13C37.201 14.272 33.755 12.646 30.76 10.36C30.412 10.061 29.946 9.938 29.496 10.026C29.046 10.113 28.66 10.402 28.45 10.81C24.31 18.61 26.26 32.86 30.79 38.2C32.972 41.304 36.38 43.324 40.15 43.75C41.558 43.745 42.931 43.305 44.08 42.49C44.706 42.081 44.925 41.268 44.59 40.6C42.377 36.209 39.734 32.049 36.7 28.18C36.453 27.865 36.346 27.462 36.402 27.066C36.459 26.67 36.675 26.314 37 26.08C37.647 25.569 38.585 25.677 39.1 26.32C44.92 33.7 51.1 45.25 52.51 53.62C52.67 54.66 53.53 55.45 54.58 55.522C55.63 55.594 56.589 54.929 56.89 53.92C58.81 47.71 63.43 38.92 69.4 35.92C70.146 35.556 71.045 35.865 71.41 36.61C71.774 37.356 71.465 38.255 70.72 38.62C67.571 40.588 65.02 43.378 63.34 46.69C63.161 47.07 63.161 47.51 63.34 47.89C63.377 48.342 63.621 48.752 64 49C64.787 49.337 65.634 49.51 66.49 49.51C69.263 49.334 71.848 48.047 73.66 45.94C77.892 40.062 78.958 32.477 76.51 25.66"></path></g></g></g><g id="g-root-ic_dish_1ha2h8diy1lon-fill" data-item-order="-5184" transform="translate(770, 614)"><g id="ic_dish_1ha2h8diy1lon-fill-merged" stroke="none" fill="#484848" fill-opacity="1"><g><path d="M32.44 26.92C33.639 26.919 34.835 27.04 36.01 27.28L37.36 27.61C38.253 25.993 38.728 24.178 38.74 22.33 V17.5C38.08 7.99 10.87 7.99 10.24 17.47 V22.33C10.361 26.904 13.072 31.011 17.23 32.92C21.432 29.186 26.82 27.06 32.44 26.92 M34.24 17.92C34.24 18.73 30.88 20.92 24.49 20.92C18.1 20.92 14.74 18.67 14.74 17.92C14.74 17.17 18.1 14.92 24.49 14.92C30.88 14.92 34.24 17.02 34.24 17.8 V17.92 M75.16 47.38C74.002 49.501 72.193 51.194 70 52.21C70.349 54.991 69.891 57.813 68.68 60.34C65.014 68.051 57.145 72.873 48.61 72.64C47.335 72.63 46.061 72.529 44.8 72.34C37.239 71.133 30.762 66.272 27.49 59.35C21.902 58.274 17.036 54.871 14.11 49.99C11.783 52.176 10.422 55.199 10.33 58.39C10.33 70.87 26.32 81.01 45.97 81.01C65.62 81.01 81.61 70.87 81.61 58.39C81.358 53.896 78.957 49.798 75.16 47.38 M26.26 54.4C25.96 49.511 27.997 44.769 31.75 41.62C34.008 39.607 36.544 37.93 39.28 36.64C39.648 35.499 40.12 34.394 40.69 33.34C38.861 32.689 36.999 32.138 35.11 31.69C34.231 31.51 33.337 31.419 32.44 31.42C27.838 31.569 23.437 33.344 20.02 36.43C12.76 43 18.76 51.79 26.26 54.4 M60.1 26.17C55.629 26.423 51.385 28.227 48.1 31.27C47.013 32.281 46.065 33.431 45.28 34.69C46.798 34.361 48.347 34.19 49.9 34.18C53.055 34.147 56.161 34.954 58.9 36.52C60.82 37.738 62.54 39.246 64 40.99C65.956 42.987 67.576 45.287 68.8 47.8C70.737 46.565 71.999 44.507 72.22 42.22C73.185 38.023 71.967 33.623 68.98 30.52C68.021 29.364 66.899 28.353 65.65 27.52C63.955 26.579 62.038 26.112 60.1 26.17 M60.64 44.05C59.454 42.647 58.069 41.424 56.53 40.42C54.468 39.24 52.125 38.639 49.75 38.68C44.165 38.952 38.854 41.182 34.75 44.98C24.82 53.98 34.99 66.28 45.49 67.9C46.533 68.054 47.586 68.135 48.64 68.14C55.415 68.381 61.691 64.59 64.63 58.48C67.24 52.75 64.51 48.22 60.64 44.05 M43 54.25C41.757 54.25 40.75 53.243 40.75 52C40.75 50.757 41.757 49.75 43 49.75C44.243 49.75 45.25 50.757 45.25 52C45.25 53.243 44.243 54.25 43 54.25 M49.72 61.18C48.477 61.18 47.47 60.173 47.47 58.93C47.47 57.687 48.477 56.68 49.72 56.68C50.963 56.68 51.97 57.687 51.97 58.93C51.957 60.121 51.029 61.102 49.84 61.18 H49.72 M54.7 52.18C53.457 52.18 52.45 51.173 52.45 49.93C52.45 48.687 53.457 47.68 54.7 47.68C55.943 47.68 56.95 48.687 56.95 49.93C56.952 51.127 56.016 52.116 54.82 52.18 H54.7"></path></g></g></g><g id="g-root-ic_watc_147cm2liy2y2z-fill" data-item-order="-5184" transform="translate(170, 182)"><g id="ic_watc_147cm2liy2y2z-fill-merged" stroke="none" fill="#484848" fill-opacity="1"><g><path d="M28.81 71.38C28.991 70.979 28.991 70.521 28.81 70.12C28.642 69.719 28.316 69.405 27.91 69.25C26.481 68.759 24.981 68.505 23.47 68.5C16.697 68.551 11.006 73.602 10.15 80.32C10.102 80.743 10.232 81.167 10.51 81.49C10.798 81.818 11.214 82.004 11.65 82 H25C25.828 82 26.5 81.328 26.5 80.5C26.521 77.318 27.314 74.189 28.81 71.38 M58 41.5C57.01 41.491 56.088 40.994 55.537 40.173C54.985 39.351 54.874 38.31 55.24 37.39C56.923 33.18 59.551 29.414 62.92 26.38C64.196 25.254 66.143 25.374 67.27 26.65C68.396 27.926 68.276 29.873 67 31C64.371 33.435 62.321 36.429 61 39.76C60.471 40.918 59.268 41.615 58 41.5 M34 41.5C32.771 41.501 31.665 40.752 31.21 39.61C29.852 36.327 27.782 33.386 25.15 31C23.874 29.898 23.733 27.971 24.835 26.695C25.937 25.419 27.864 25.278 29.14 26.38C32.509 29.414 35.137 33.18 36.82 37.39C37.19 38.32 37.073 39.372 36.507 40.197C35.941 41.022 35 41.511 34 41.5 M61.06 58C61.06 62.142 64.418 65.5 68.56 65.5C72.702 65.5 76.06 62.142 76.06 58C76.06 53.858 72.702 50.5 68.56 50.5C64.418 50.5 61.06 53.858 61.06 58 M65.56 80.5C65.56 81.328 66.232 82 67.06 82 H80.44C80.876 82.004 81.292 81.818 81.58 81.49C81.858 81.167 81.988 80.743 81.94 80.32C81.441 76.25 79.119 72.628 75.63 70.475C72.14 68.322 67.861 67.871 64 69.25C63.58 69.395 63.242 69.711 63.07 70.12C62.889 70.521 62.889 70.979 63.07 71.38C64.632 74.171 65.487 77.302 65.56 80.5 M16.06 58C16.06 62.142 19.418 65.5 23.56 65.5C27.702 65.5 31.06 62.142 31.06 58C31.06 53.858 27.702 50.5 23.56 50.5C19.418 50.5 16.06 53.858 16.06 58 M52 66.7C51.749 66.585 51.578 66.345 51.55 66.07C51.544 65.794 51.68 65.534 51.91 65.38C56.238 62.773 58.297 57.599 56.944 52.731C55.591 47.862 51.158 44.493 46.105 44.493C41.052 44.493 36.619 47.862 35.266 52.731C33.913 57.599 35.972 62.773 40.3 65.38C40.539 65.525 40.678 65.791 40.66 66.07C40.632 66.345 40.461 66.585 40.21 66.7C34.746 69.085 31.213 74.478 31.21 80.44C31.18 80.854 31.334 81.26 31.63 81.55C31.916 81.837 32.305 81.999 32.71 82 H59.71C60.115 81.999 60.504 81.837 60.79 81.55C61.086 81.26 61.24 80.854 61.21 80.44C61.219 74.413 57.578 68.981 52 66.7 M46 62.5C42.272 62.5 39.25 59.478 39.25 55.75C39.253 55.027 39.364 54.309 39.58 53.62C39.648 53.395 39.831 53.224 40.06 53.17C40.268 53.068 40.512 53.068 40.72 53.17C43.166 54.819 46.05 55.696 49 55.69C49.947 55.692 50.891 55.602 51.82 55.42C52.056 55.37 52.302 55.437 52.48 55.6C52.632 55.763 52.717 55.977 52.72 56.2C52.484 59.74 49.547 62.492 46 62.5 M26.77 17.5 H25.75C23.077 17.1 21.002 14.963 20.68 12.28L20.53 11.29C20.423 10.533 19.764 9.977 19 10C18.252 10.005 17.617 10.551 17.5 11.29 V12.28C17.119 14.945 15.009 17.03 12.34 17.38 H11.35C10.54 17.474 9.947 18.187 10 19C9.99 19.743 10.526 20.381 11.26 20.5 H12.28C14.914 20.887 16.979 22.963 17.35 25.6 V26.59C17.381 26.996 17.572 27.374 17.882 27.638C18.191 27.903 18.594 28.033 19 28C19.742 27.992 20.366 27.444 20.47 26.71L20.62 25.72C20.994 23.074 23.074 20.994 25.72 20.62 H26.71C27.496 20.497 28.056 19.793 28 19C27.988 18.275 27.479 17.653 26.77 17.5 M52.27 16 H51.46C49.458 15.683 47.905 14.081 47.65 12.07 V11.29C47.65 10.462 46.978 9.79 46.15 9.79C45.322 9.79 44.65 10.462 44.65 11.29 V12.1C44.37 14.172 42.709 15.783 40.63 16 H39.82C39.106 16.144 38.591 16.771 38.591 17.5C38.591 18.229 39.106 18.856 39.82 19 H40.63C42.609 19.298 44.158 20.859 44.44 22.84 V23.62C44.44 24.448 45.112 25.12 45.94 25.12C46.768 25.12 47.44 24.448 47.44 23.62 V22.84C47.755 20.797 49.404 19.221 51.46 19 H52.27C52.984 18.856 53.499 18.229 53.499 17.5C53.499 16.771 52.984 16.144 52.27 16 M46 40C44.343 40 43 38.657 43 37 V31C43 29.343 44.343 28 46 28C47.657 28 49 29.343 49 31 V37C49 38.657 47.657 40 46 40"></path></g></g></g><g id="g-root-tx_attractc_zoeqiliy064r-fill" data-item-order="0" transform="translate(98, 393)"><g id="tx_attractc_zoeqiliy064r-fill-merged" stroke="none" fill="#ffffff" fill-opacity="1"><g><text style="font: bold 20px Roboto, sans-serif; white-space: pre;" transform="translate(64, 34)" font-weight="bold" font-size="20px" font-family="Roboto, sans-serif"><tspan x="-30.85" y="-0" dominant-baseline="ideographic">Attract </tspan><tspan x="-51.79" y="24" dominant-baseline="ideographic">Community</tspan></text></g></g></g><g id="g-root-tx_servetea_v7ca7xiy04qq-fill" data-item-order="0" transform="translate(672, 395)"><g id="tx_servetea_v7ca7xiy04qq-fill-merged" stroke="none" fill="#ffffff" fill-opacity="1"><g><text style="font: bold 20px Roboto, sans-serif; white-space: pre;" transform="translate(94, 34)" font-weight="bold" font-size="20px" font-family="Roboto, sans-serif"><tspan x="-48.37" y="-0" dominant-baseline="ideographic">Serve Tea-</tspan><tspan x="-78.24" y="24" dominant-baseline="ideographic">Flavored Pastries</tspan></text></g></g></g><g id="g-root-tx_drawloca_v8l8e5iy06x0-fill" data-item-order="0" transform="translate(74, 453)"><g id="tx_drawloca_v8l8e5iy06x0-fill-merged" stroke="none" fill="#ffffff" fill-opacity="1"><g><text style="font: 15px Roboto, sans-serif; white-space: pre;" transform="translate(88, 22)" font-size="15px" font-family="Roboto, sans-serif"><tspan x="-73.97" y="9" dominant-baseline="ideographic">Draw locals to the hub</tspan></text></g></g></g><g id="g-root-tx_offeruni_mbp9z1iy05jf-fill" data-item-order="0" transform="translate(678, 455)"><g id="tx_offeruni_mbp9z1iy05jf-fill-merged" stroke="none" fill="#ffffff" fill-opacity="1"><g><text style="font: 15px Roboto, sans-serif; white-space: pre;" transform="translate(88, 28)" font-size="15px" font-family="Roboto, sans-serif"><tspan x="-71.7" y="0" dominant-baseline="ideographic">Offer unique pastries </tspan><tspan x="-54.93" y="18" dominant-baseline="ideographic">infused with tea</tspan></text></g></g></g><g id="g-root-tx_providea_1ltmtvhiy04qo-fill" data-item-order="0" transform="translate(385, 231)"><g id="tx_providea_1ltmtvhiy04qo-fill-merged" stroke="none" fill="#ffffff" fill-opacity="1"><g><text style="font: 15px Roboto, sans-serif; white-space: pre;" transform="translate(82, 28)" font-size="15px" font-family="Roboto, sans-serif"><tspan x="-65.5" y="0" dominant-baseline="ideographic">Provide a variety of </tspan><tspan x="-61.42" y="18" dominant-baseline="ideographic">kombucha flavors</tspan></text></g></g></g><g id="g-root-tx_ithacanr_4j6bb1iy05qe-fill" data-item-order="0" transform="translate(285, 498)"><g id="tx_ithacanr_4j6bb1iy05qe-fill-merged" stroke="none" fill="#484848" fill-opacity="1"><g><text style="font: bold 25px Roboto, sans-serif; white-space: pre;" transform="translate(178, 40)" font-weight="bold" font-size="25px" font-family="Roboto, sans-serif"><tspan x="-164.88" y="0" dominant-baseline="ideographic">SCOBY Spot's Relaxation and </tspan><tspan x="-100.43" y="30" dominant-baseline="ideographic">Community Cycle</tspan></text></g></g></g><g id="g-root-tx_createca_1luvs1piy06ww-fill" data-item-order="0" transform="translate(202, 732)"><g id="tx_createca_1luvs1piy06ww-fill-merged" stroke="none" fill="#ffffff" fill-opacity="1"><g><text style="font: bold 20px Roboto, sans-serif; white-space: pre;" transform="translate(70, 34)" font-weight="bold" font-size="20px" font-family="Roboto, sans-serif"><tspan x="-57.83" y="-0" dominant-baseline="ideographic">Create Calm </tspan><tspan x="-57.55" y="24" dominant-baseline="ideographic">Atmosphere</tspan></text></g></g></g><g id="g-root-tx_provideb_908rlpiy074d-fill" data-item-order="0" transform="translate(558, 749)"><g id="tx_provideb_908rlpiy074d-fill-merged" stroke="none" fill="#ffffff" fill-opacity="1"><g><text style="font: bold 20px Roboto, sans-serif; white-space: pre;" transform="translate(88, 34)" font-weight="bold" font-size="20px" font-family="Roboto, sans-serif"><tspan x="-75.91" y="-0" dominant-baseline="ideographic">Provide Brewing </tspan><tspan x="-41.26" y="24" dominant-baseline="ideographic">Services</tspan></text></g></g></g><g id="g-root-tx_fosterap_1czv8vxiy04jt-fill" data-item-order="0" transform="translate(196, 792)"><g id="tx_fosterap_1czv8vxiy04jt-fill-merged" stroke="none" fill="#ffffff" fill-opacity="1"><g><text style="font: 15px Roboto, sans-serif; white-space: pre;" transform="translate(76, 40)" font-size="15px" font-family="Roboto, sans-serif"><tspan x="-61.07" y="-9" dominant-baseline="ideographic">Foster a peaceful, </tspan><tspan x="-51.74" y="9" dominant-baseline="ideographic">nature-inspired </tspan><tspan x="-43.47" y="27" dominant-baseline="ideographic">environment</tspan></text></g></g></g><g id="g-root-tx_offerhan_4l1qkdiy04qu-fill" data-item-order="0" transform="translate(552, 809)"><g id="tx_offerhan_4l1qkdiy04qu-fill-merged" stroke="none" fill="#ffffff" fill-opacity="1"><g><text style="font: 15px Roboto, sans-serif; white-space: pre;" transform="translate(94, 28)" font-size="15px" font-family="Roboto, sans-serif"><tspan x="-79.81" y="0" dominant-baseline="ideographic">Offer hands-on brewing </tspan><tspan x="-42.01" y="18" dominant-baseline="ideographic">experiences</tspan></text></g></g></g><g id="g-root-tx_offerkom_1q8tuwtiy0747-fill" data-item-order="0" transform="translate(379, 171)"><g id="tx_offerkom_1q8tuwtiy0747-fill-merged" stroke="none" fill="#ffffff" fill-opacity="1"><g><text style="font: bold 20px Roboto, sans-serif; white-space: pre;" transform="translate(88, 34)" font-weight="bold" font-size="20px" font-family="Roboto, sans-serif"><tspan x="-75.9" y="-0" dominant-baseline="ideographic">Offer Kombucha </tspan><tspan x="-33.11" y="24" dominant-baseline="ideographic">Flights</tspan></text></g></g></g><g id="g-root-sy_1_ar-1_qvaokdm02ozs-fill" data-item-order="1000000002" transform="translate(556.635009765625, 246.888671875)"></g><g id="g-root-sy_4_ar-4_v97vtpk29s79-fill" data-item-order="1000000002" transform="translate(154.135009765625, 533.34375)"></g><g id="g-root-sy_2_ar-2_v3lm1pl5vjeu-fill" data-item-order="1000000002" transform="translate(697.5050048828125, 536.923828125)"></g><g id="g-root-sy_5_ar-5_hwjavxji4ydk-fill" data-item-order="1000000002" transform="translate(217.05999755859375, 242.568359375)"></g><g id="g-root-sy_3_ar-3_18lxvbxklxpu3-fill" data-item-order="1000000002" transform="translate(366.05999755859375, 811.9736328125)"></g><g id="g-root-cp_5_g-5_140he4diy07bg-stroke" data-item-order="-809414" transform="translate(44, 314)"><g id="cp_5_g-5_140he4diy07bg-stroke" fill="none" stroke-linecap="round" stroke-linejoin="round" stroke-miterlimit="4" stroke="#ffffff" stroke-width="2" stroke-opacity="1"><g><path d="M 174.6267 26.054088C 225.4073 57.328088 241.2205 123.846588 209.9465 174.627188C 178.6724 225.407788 112.1539 241.220988 61.3733 209.946888C 10.5927 178.672888 -5.2205 112.154388 26.0536 61.373788C 57.3276 10.593188 123.8461 -5.220012 174.6267 26.054088Z"></path></g></g></g><g id="g-root-sy_5_ar-5_zlad31iy04xx-stroke" data-item-order="-809405" transform="translate(206.79876708984375, 224.6298828125)"><g id="sy_5_ar-5_zlad31iy04xx-stroke" fill="none" stroke-linecap="round" stroke-linejoin="round" stroke-miterlimit="4" stroke="#1eabda" stroke-width="2" stroke-opacity="1"><g><path d="M 10 106.87C 45.62 63.78 92.39 30.24 145.88 10.66"></path><path d="M 142.5 18.9L 146.3 10.5L 137.9 6.8" stroke-dasharray="none"></path></g></g></g><g id="g-root-cp_4_g-4_zlad31iy04xy-stroke" data-item-order="-809404" transform="translate(154.00033569335938, 671)"><g id="cp_4_g-4_zlad31iy04xy-stroke" fill="none" stroke-linecap="round" stroke-linejoin="round" stroke-miterlimit="4" stroke="#ffffff" stroke-width="2" stroke-opacity="1"><g><path d="M 48.04387 35.7219C 93.48487 -2.9137 161.64237 2.603 200.27807 48.0439C 238.91377 93.4849 233.39697 161.6424 187.95597 200.2781C 142.51507 238.9138 74.35757 233.397 35.72187 187.9561C -2.91373 142.5151 2.60297 74.3576 48.04387 35.7219Z"></path></g></g></g><g id="g-root-sy_4_ar-4_qpncu5iy05qn-stroke" data-item-order="-809395" transform="translate(134.1868896484375, 535)"><g id="sy_4_ar-4_qpncu5iy05qn-stroke" fill="none" stroke-linecap="round" stroke-linejoin="round" stroke-miterlimit="4" stroke="#4e88e7" stroke-width="2" stroke-opacity="1"><g><path d="M 59.66 170C 30.28 124.03 12.4 70.01 10.07 11.98"></path><path d="M 16.9 17.6L 10.1 11.5L 3.9 18.3" stroke-dasharray="none"></path></g></g></g><g id="g-root-cp_3_g-3_v5guyliy05q8-stroke" data-item-order="-809394" transform="translate(528, 676)"><g id="cp_3_g-3_v5guyliy05q8-stroke" fill="none" stroke-linecap="round" stroke-linejoin="round" stroke-miterlimit="4" stroke="#ffffff" stroke-width="2" stroke-opacity="1"><g><path d="M 18.1555 159.0968C -4.5417 103.9542 21.7606 40.8526 76.9032 18.1555C 132.0458 -4.5417 195.1474 21.7606 217.8445 76.9032C 240.5417 132.0458 214.2394 195.1474 159.0968 217.8445C 103.9542 240.5417 40.8526 214.2394 18.1555 159.0968Z"></path></g></g></g><g id="g-root-sy_3_ar-3_m9tuppiy06ix-stroke" data-item-order="-809385" transform="translate(364.5, 829.810546875)"><g id="sy_3_ar-3_m9tuppiy06ix-stroke" fill="none" stroke-linecap="round" stroke-linejoin="round" stroke-miterlimit="4" stroke="#de8431" stroke-width="2" stroke-opacity="1"><g><path d="M 178 11.91C 152.29 18.62 125.31 22.19 97.5 22.19C 67.83 22.19 39.12 18.13 11.88 10.53"></path><path d="M 19.4 5.8L 11.4 10.4L 16.1 18.3" stroke-dasharray="none"></path></g></g></g><g id="g-root-cp_2_g-2_hu0cl9iy07b6-stroke" data-item-order="-809384" transform="translate(648, 322)"><g id="cp_2_g-2_hu0cl9iy07b6-stroke" fill="none" stroke-linecap="round" stroke-linejoin="round" stroke-miterlimit="4" stroke="#ffffff" stroke-width="2" stroke-opacity="1"><g><path d="M 126.2335 225.6805C 66.7633 230.2277 14.8668 185.7038 10.3195 126.2335C 5.7723 66.7633 50.2962 14.8668 109.7665 10.3195C 169.2368 5.7723 221.1332 50.2962 225.6805 109.7665C 230.2277 169.2367 185.7038 221.1332 126.2335 225.6805Z"></path></g></g></g><g id="g-root-sy_2_ar-2_hu0cl9iy07b7-stroke" data-item-order="-809375" transform="translate(715.5531616210938, 543.5)"><g id="sy_2_ar-2_hu0cl9iy07b7-stroke" fill="none" stroke-linecap="round" stroke-linejoin="round" stroke-miterlimit="4" stroke="#e0cb15" stroke-width="2" stroke-opacity="1"><g><path d="M 63.86 10C 60.36 67.8 41.43 121.43 11.13 166.82"></path><path d="M 8.9 158.3L 10.8 167.2L 19.8 165.3" stroke-dasharray="none"></path></g></g></g><g id="g-root-cp_1_g-1_8yztfhiy04y4-stroke" data-item-order="-809374" transform="translate(348.93798828125, 98.494140625)"><g id="cp_1_g-1_8yztfhiy04y4-stroke" fill="none" stroke-linecap="round" stroke-linejoin="round" stroke-miterlimit="4" stroke="#ffffff" stroke-width="2" stroke-opacity="1"><g><path d="M 222.9379 143.4415C 208.8876 201.3963 150.516 236.9881 92.5611 222.9379C 34.6062 208.8876 -0.9855 150.516 13.0647 92.5611C 27.1149 34.6062 85.4866 -0.9855 143.4415 13.0647C 201.3963 27.1149 236.9881 85.4866 222.9379 143.4415Z"></path></g></g></g><g id="g-root-sy_1_ar-1_8yztfhiy04y5-stroke" data-item-order="-809365" transform="translate(569, 228.2158203125)"><g id="sy_1_ar-1_8yztfhiy04y5-stroke" fill="none" stroke-linecap="round" stroke-linejoin="round" stroke-miterlimit="4" stroke="#92bd39" stroke-width="2" stroke-opacity="1"><g><path d="M 10 10C 62.56 30.81 108.25 65.22 142.73 108.89"></path><path d="M 133.9 108.4L 143.1 109.3L 144 100.2" stroke-dasharray="none"></path></g></g></g><g id="g-root-ic_fill_hxr73xiy05c6-stroke" data-item-order="-5184" transform="translate(662, 194)"></g><g id="g-root-ic_stov_v5guyliy1jwq-stroke" data-item-order="-5184" transform="translate(416, 854)"></g><g id="g-root-ic_mane_qun5j1iy2xhn-stroke" data-item-order="-5184" transform="translate(62, 614)"></g><g id="g-root-ic_dish_1ha2h8diy1lon-stroke" data-item-order="-5184" transform="translate(770, 614)"></g><g id="g-root-ic_watc_147cm2liy2y2z-stroke" data-item-order="-5184" transform="translate(170, 182)"></g><g id="g-root-tx_attractc_zoeqiliy064r-stroke" data-item-order="0" transform="translate(98, 393)"></g><g id="g-root-tx_servetea_v7ca7xiy04qq-stroke" data-item-order="0" transform="translate(672, 395)"></g><g id="g-root-tx_drawloca_v8l8e5iy06x0-stroke" data-item-order="0" transform="translate(74, 453)"></g><g id="g-root-tx_offeruni_mbp9z1iy05jf-stroke" data-item-order="0" transform="translate(678, 455)"></g><g id="g-root-tx_providea_1ltmtvhiy04qo-stroke" data-item-order="0" transform="translate(385, 231)"></g><g id="g-root-tx_ithacanr_4j6bb1iy05qe-stroke" data-item-order="0" transform="translate(285, 498)"></g><g id="g-root-tx_createca_1luvs1piy06ww-stroke" data-item-order="0" transform="translate(202, 732)"></g><g id="g-root-tx_provideb_908rlpiy074d-stroke" data-item-order="0" transform="translate(558, 749)"></g><g id="g-root-tx_fosterap_1czv8vxiy04jt-stroke" data-item-order="0" transform="translate(196, 792)"></g><g id="g-root-tx_offerhan_4l1qkdiy04qu-stroke" data-item-order="0" transform="translate(552, 809)"></g><g id="g-root-tx_offerkom_1q8tuwtiy0747-stroke" data-item-order="0" transform="translate(379, 171)"></g><g id="g-root-sy_1_ar-1_qvaokdm02ozs-stroke" data-item-order="1000000002" transform="translate(556.635009765625, 246.888671875)"><g id="sy_1_ar-1_qvaokdm02ozs-stroke" fill="none" stroke-linecap="round" stroke-linejoin="round" stroke-miterlimit="4" stroke="#a8dd38" stroke-width="2" stroke-opacity="1"><g><path d="M 11.79 10.71C 64.24 31.85 109.76 66.57 144 110.51"></path><path d="M 19.9 7.1L 11.4 10.6L 14.9 19.1" stroke-dasharray="none"></path></g></g></g><g id="g-root-sy_4_ar-4_v97vtpk29s79-stroke" data-item-order="1000000002" transform="translate(154.135009765625, 533.34375)"><g id="sy_4_ar-4_v97vtpk29s79-stroke" fill="none" stroke-linecap="round" stroke-linejoin="round" stroke-miterlimit="4" stroke="#4f92ff" stroke-width="2" stroke-opacity="1"><g><path d="M 58.57 168.29C 29.51 122.17 11.97 68.06 10 10"></path><path d="M 49.9 166.6L 58.9 168.7L 61 159.8" stroke-dasharray="none"></path></g></g></g><g id="g-root-sy_2_ar-2_v3lm1pl5vjeu-stroke" data-item-order="1000000002" transform="translate(697.5050048828125, 536.923828125)"><g id="sy_2_ar-2_v3lm1pl5vjeu-stroke" fill="none" stroke-linecap="round" stroke-linejoin="round" stroke-miterlimit="4" stroke="#ffe60a" stroke-width="2" stroke-opacity="1"><g><path d="M 63.73 11.97C 59.88 69.73 40.61 123.26 10 168.5"></path><path d="M 69.7 18.5L 63.7 11.5L 56.7 17.5" stroke-dasharray="none"></path></g></g></g><g id="g-root-sy_5_ar-5_hwjavxji4ydk-stroke" data-item-order="1000000002" transform="translate(217.05999755859375, 242.568359375)"><g id="sy_5_ar-5_hwjavxji4ydk-stroke" fill="none" stroke-linecap="round" stroke-linejoin="round" stroke-miterlimit="4" stroke="#1ac6ff" stroke-width="2" stroke-opacity="1"><g><path d="M 11.32 105.28C 47.19 62.47 94.11 29.25 147.7 10"></path><path d="M 10.3 96.6L 11 105.7L 20.1 105" stroke-dasharray="none"></path></g></g></g><g id="g-root-sy_3_ar-3_18lxvbxklxpu3-stroke" data-item-order="1000000002" transform="translate(366.05999755859375, 811.9736328125)"><g id="sy_3_ar-3_18lxvbxklxpu3-stroke" fill="none" stroke-linecap="round" stroke-linejoin="round" stroke-miterlimit="4" stroke="#f99539" stroke-width="2" stroke-opacity="1"><g><path d="M 176.11 12.4C 150.97 18.79 124.63 22.19 97.5 22.19C 67.15 22.19 37.8 17.94 10 10"></path><path d="M 171.7 20.1L 176.5 12.3L 168.7 7.5" stroke-dasharray="none"></path></g></g></g></g></g></svg>