<?xml version="1.0" encoding="utf-8" standalone="yes"?>
<!DOCTYPE svg PUBLIC "-//W3C//DTD SVG 1.1//EN" "http://www.w3.org/Graphics/SVG/1.1/DTD/svg11.dtd">
<svg style="fill:none;stroke:none;fill-rule:evenodd;clip-rule:evenodd;stroke-linecap:round;stroke-linejoin:round;stroke-miterlimit:1.5;" version="1.1" xmlns="http://www.w3.org/2000/svg" xmlns:xlink="http://www.w3.org/1999/xlink" width="826" height="924" viewBox="0 0 826 924"><style class="text-font-style fontImports" data-font-family="Montserrat">@import url(https://fonts.googleapis.com/css2?family=Montserrat:wght@400;700&amp;amp;display=block);</style><g id="items" style="isolation: isolate"><g id="blend" style="mix-blend-mode: normal"><g id="g-root-cp_0b_g-0b_1hf2mj6mtklqn-fill" data-item-order="3999433658" transform="translate(61.991943359375, 410)"><g id="cp_0b_g-0b_1hf2mj6mtklqn-fill-merged" stroke="none" fill="#666666" fill-opacity="1"><g><path d="M650.8 157.6L578.8 103.6C570.85 97.64 559.57 99.25 553.6 107.2C547.64 115.15 549.25 126.44 557.2 132.4L586 154 H502C488.77 154 478 143.23 478 130 V70C478 36.92 451.08 10 418 10C384.92 10 358 36.92 358 70 V214C358 227.23 347.23 238 334 238C320.77 238 310 227.23 310 214 V94C310 60.92 283.08 34 250 34C216.92 34 190 60.92 190 94 V142C190 155.23 179.23 166 166 166 H10 V202 H166C199.08 202 226 175.08 226 142 V94C226 80.77 236.77 70 250 70C263.23 70 274 80.77 274 94 V214C274 247.08 300.92 274 334 274C367.08 274 394 247.08 394 214 V70C394 56.77 404.77 46 418 46C431.23 46 442 56.77 442 70 V130C442 163.08 468.92 190 502 190 H586L557.2 211.6C549.25 217.56 547.64 228.85 553.6 236.8C557.14 241.52 562.54 244 568.01 244C571.77 244 575.56 242.83 578.8 240.4L650.8 186.4C655.33 183 658 177.67 658 172C658 166.33 655.33 161 650.8 157.6"></path></g></g></g><g id="g-root-cp_0a_g-0a_1luw4nmmtklq8-fill" data-item-order="3999433663" transform="translate(61.991943359375, 428)"></g><g id="g-root-cp_3_g-3_1hf2mj6mtklql-fill" data-item-order="3999433666" transform="translate(453.991943359375, 363)"><g id="cp_3_g-3_1hf2mj6mtklql-fill-merged" stroke="none" fill="#ac7358" fill-opacity="1"><g><path d="M26.95 21.34C23.86 21.34 21.35 23.85 21.35 26.95C21.35 30.05 23.86 32.56 26.95 32.56C30.04 32.56 32.56 30.05 32.56 26.95C32.56 23.85 30.05 21.34 26.95 21.34 M43.91 26.95C43.91 17.59 36.32 10 26.95 10C17.58 10 10 17.59 10 26.95C10 33.93 14.22 39.92 20.24 42.52L26.96 54.79L33.68 42.51C39.7 39.91 43.92 33.92 43.92 26.94 M26.95 37.49C21.14 37.49 16.42 32.77 16.42 26.95C16.42 21.13 21.14 16.42 26.95 16.42C32.76 16.42 37.49 21.13 37.49 26.95C37.49 32.77 32.77 37.49 26.95 37.49"></path></g></g></g><g id="g-root-cp_2_g-2_1luw4nmmtklq9-fill" data-item-order="3999433670" transform="translate(369.991943359375, 591)"><g id="cp_2_g-2_1luw4nmmtklq9-fill-merged" stroke="none" fill="#64822a" fill-opacity="1"><g><path d="M26.95 21.34C23.86 21.34 21.35 23.85 21.35 26.95C21.35 30.05 23.86 32.56 26.95 32.56C30.04 32.56 32.56 30.05 32.56 26.95C32.56 23.85 30.05 21.34 26.95 21.34 M43.91 26.95C43.91 17.59 36.32 10 26.95 10C17.58 10 10 17.59 10 26.95C10 33.93 14.22 39.92 20.24 42.52L26.96 54.79L33.68 42.51C39.7 39.91 43.92 33.92 43.92 26.94 M26.95 37.49C21.14 37.49 16.42 32.77 16.42 26.95C16.42 21.13 21.14 16.42 26.95 16.42C32.76 16.42 37.49 21.13 37.49 26.95C37.49 32.77 32.77 37.49 26.95 37.49"></path></g></g></g><g id="g-root-cp_1_g-1_1hf2mj6mtklqm-fill" data-item-order="3999433674" transform="translate(285.991943359375, 387)"><g id="cp_1_g-1_1hf2mj6mtklqm-fill-merged" stroke="none" fill="#e0cb15" fill-opacity="1"><g><path d="M26.95 21.34C23.86 21.34 21.35 23.85 21.35 26.95C21.35 30.05 23.86 32.56 26.95 32.56C30.04 32.56 32.56 30.05 32.56 26.95C32.56 23.85 30.05 21.34 26.95 21.34 M43.91 26.95C43.91 17.59 36.32 10 26.95 10C17.58 10 10 17.59 10 26.95C10 33.93 14.22 39.92 20.24 42.52L26.96 54.79L33.68 42.51C39.7 39.91 43.92 33.92 43.92 26.94 M26.95 37.49C21.14 37.49 16.42 32.77 16.42 26.95C16.42 21.13 21.14 16.42 26.95 16.42C32.76 16.42 37.49 21.13 37.49 26.95C37.49 32.77 32.77 37.49 26.95 37.49"></path></g></g></g><g id="g-root-tx_achievin_1hf2mj6mtklqg-fill" data-item-order="4000000000" transform="translate(139.991943359375, 38)"><g id="tx_achievin_1hf2mj6mtklqg-fill-merged" stroke="none" fill="#484848" fill-opacity="1"><g><text style="font: bold 25px Montserrat, sans-serif; white-space: pre;" transform="translate(274, 64)" font-weight="bold" font-size="25px" font-family="Montserrat, sans-serif"><tspan x="-258.85" y="0" dominant-baseline="ideographic">SCOBY Spot's Goal for Community Well </tspan><tspan x="-41.8" y="30" dominant-baseline="ideographic">Being</tspan></text></g></g></g><g id="g-root-tx_introduc_1hf2mj6mtklqh-fill" data-item-order="4000000000" transform="translate(241.991943359375, 182)"><g id="tx_introduc_1hf2mj6mtklqh-fill-merged" stroke="none" fill="#e0cb15" fill-opacity="1"><g><text style="font: bold 20px Montserrat, sans-serif; white-space: pre;" transform="translate(70, 40)" font-weight="bold" font-size="20px" font-family="Montserrat, sans-serif"><tspan x="-51.26" y="-0" dominant-baseline="ideographic">Introduce </tspan><tspan x="-56.95" y="24" dominant-baseline="ideographic">Kombucha</tspan></text></g></g></g><g id="g-root-tx_createre_1hf2mj6mtklqi-fill" data-item-order="4000000000" transform="translate(427.991943359375, 170)"><g id="tx_createre_1hf2mj6mtklqi-fill-merged" stroke="none" fill="#ac7358" fill-opacity="1"><g><text style="font: bold 20px Montserrat, sans-serif; white-space: pre;" transform="translate(52, 40)" font-weight="bold" font-size="20px" font-family="Montserrat, sans-serif"><tspan x="-34.81" y="-0" dominant-baseline="ideographic">Create </tspan><tspan x="-39.43" y="24" dominant-baseline="ideographic">Retreat</tspan></text></g></g></g><g id="g-root-tx_offerare_1hf2mj6mtklqk-fill" data-item-order="4000000000" transform="translate(397.991943359375, 242)"><g id="tx_offerare_1hf2mj6mtklqk-fill-merged" stroke="none" fill="#484848" fill-opacity="1"><g><text style="font: 15px Montserrat, sans-serif; white-space: pre;" transform="translate(82, 58)" font-size="15px" font-family="Montserrat, sans-serif"><tspan x="-68.3" y="-27" dominant-baseline="ideographic">Offer a restorative </tspan><tspan x="-61.99" y="-9" dominant-baseline="ideographic">retreat from city </tspan><tspan x="-49.75" y="9" dominant-baseline="ideographic">life, fostering </tspan><tspan x="-53.9" y="27" dominant-baseline="ideographic">reflection and </tspan><tspan x="-40.36" y="45" dominant-baseline="ideographic">relaxation.</tspan></text></g></g></g><g id="g-root-tx_engageth_1hf2mj6mtklqj-fill" data-item-order="4000000000" transform="translate(223.991943359375, 254)"><g id="tx_engageth_1hf2mj6mtklqj-fill-merged" stroke="none" fill="#484848" fill-opacity="1"><g><text style="font: 15px Montserrat, sans-serif; white-space: pre;" transform="translate(88, 64)" font-size="15px" font-family="Montserrat, sans-serif"><tspan x="-44.15" y="-36" dominant-baseline="ideographic">Engage the </tspan><tspan x="-62.52" y="-18" dominant-baseline="ideographic">community with </tspan><tspan x="-69.69" y="0" dominant-baseline="ideographic">kombucha culture </tspan><tspan x="-71.29" y="18" dominant-baseline="ideographic">through education </tspan><tspan x="-38.61" y="36" dominant-baseline="ideographic">and direct </tspan><tspan x="-42.55" y="54" dominant-baseline="ideographic">interaction.</tspan></text></g></g></g><g id="g-root-tx_promotew_1luw4nmmtklqa-fill" data-item-order="4000000000" transform="translate(331.991943359375, 698)"><g id="tx_promotew_1luw4nmmtklqa-fill-merged" stroke="none" fill="#64822a" fill-opacity="1"><g><text style="font: bold 20px Montserrat, sans-serif; white-space: pre;" transform="translate(64, 40)" font-weight="bold" font-size="20px" font-family="Montserrat, sans-serif"><tspan x="-47.54" y="-0" dominant-baseline="ideographic">Promote </tspan><tspan x="-49.26" y="24" dominant-baseline="ideographic">Wellness</tspan></text></g></g></g><g id="g-root-tx_encourag_1luw4nmmtklqb-fill" data-item-order="4000000000" transform="translate(307.991943359375, 770)"><g id="tx_encourag_1luw4nmmtklqb-fill-merged" stroke="none" fill="#484848" fill-opacity="1"><g><text style="font: 15px Montserrat, sans-serif; white-space: pre;" transform="translate(88, 58)" font-size="15px" font-family="Montserrat, sans-serif"><tspan x="-41.91" y="-27" dominant-baseline="ideographic">Encourage </tspan><tspan x="-49.64" y="-9" dominant-baseline="ideographic">wellness and </tspan><tspan x="-66.25" y="9" dominant-baseline="ideographic">sustainable living </tspan><tspan x="-70.88" y="27" dominant-baseline="ideographic">through tea rituals </tspan><tspan x="-53.16" y="45" dominant-baseline="ideographic">and practices.</tspan></text></g></g></g><g id="g-root-cp_0b_g-0b_1hf2mj6mtklqn-stroke" data-item-order="3999433658" transform="translate(61.991943359375, 410)"><g id="cp_0b_g-0b_1hf2mj6mtklqn-stroke" fill="none" stroke-linecap="round" stroke-linejoin="round" stroke-miterlimit="4" stroke="#ffffff" stroke-width="2" stroke-opacity="1"><g><path d="M 650.8 157.6L 578.8 103.6C 570.85 97.64 559.57 99.25 553.6 107.2C 547.64 115.15 549.25 126.44 557.2 132.4L 586 154L 502 154C 488.77 154 478 143.23 478 130L 478 70C 478 36.92 451.08 10 418 10C 384.92 10 358 36.92 358 70L 358 214C 358 227.23 347.23 238 334 238C 320.77 238 310 227.23 310 214L 310 94C 310 60.92 283.08 34 250 34C 216.92 34 190 60.92 190 94L 190 142C 190 155.23 179.23 166 166 166L 10 166L 10 202L 166 202C 199.08 202 226 175.08 226 142L 226 94C 226 80.77 236.77 70 250 70C 263.23 70 274 80.77 274 94L 274 214C 274 247.08 300.92 274 334 274C 367.08 274 394 247.08 394 214L 394 70C 394 56.77 404.77 46 418 46C 431.23 46 442 56.77 442 70L 442 130C 442 163.08 468.92 190 502 190L 586 190L 557.2 211.6C 549.25 217.56 547.64 228.85 553.6 236.8C 557.14 241.52 562.54 244 568.01 244C 571.77 244 575.56 242.83 578.8 240.4L 650.8 186.4C 655.33 183 658 177.67 658 172C 658 166.33 655.33 161 650.8 157.6Z"></path></g></g></g><g id="g-root-cp_0a_g-0a_1luw4nmmtklq8-stroke" data-item-order="3999433663" transform="translate(61.991943359375, 428)"><g id="cp_0a_g-0a_1luw4nmmtklq8-stroke" fill="none" stroke-linecap="round" stroke-linejoin="round" stroke-miterlimit="4" stroke="#484848" stroke-width="2" stroke-dasharray="5.0, 7.0" stroke-opacity="1"><g><path d="M 10 166L 166 166C 189.196 166 208 147.196 208 124L 208 76C 208 52.804 226.804 34 250 34C 273.196 34 292 52.804 292 76L 292 196C 292 219.196 310.804 238 334 238C 357.196 238 376 219.196 376 196L 376 52C 376 28.804 394.804 10 418 10C 441.196 10 460 28.804 460 52L 460 112C 460 135.196 478.804 154 502 154L 586 154"></path></g></g></g><g id="g-root-cp_3_g-3_1hf2mj6mtklql-stroke" data-item-order="3999433666" transform="translate(453.991943359375, 363)"><g id="cp_3_g-3_1hf2mj6mtklql-stroke" fill="none" stroke-linecap="round" stroke-linejoin="round" stroke-miterlimit="4" stroke="#ffffff" stroke-width="2" stroke-opacity="1"><g><path d="M 26.95 21.34C 23.86 21.34 21.35 23.85 21.35 26.95C 21.35 30.05 23.86 32.56 26.95 32.56C 30.04 32.56 32.56 30.05 32.56 26.95C 32.56 23.85 30.05 21.34 26.95 21.34ZM 43.91 26.95C 43.91 17.59 36.32 10 26.95 10C 17.58 10 10 17.59 10 26.95C 10 33.93 14.22 39.92 20.24 42.52L 26.96 54.79L 33.68 42.51C 39.7 39.91 43.92 33.92 43.92 26.94L 43.91 26.95ZM 26.95 37.49C 21.14 37.49 16.42 32.77 16.42 26.95C 16.42 21.13 21.14 16.42 26.95 16.42C 32.76 16.42 37.49 21.13 37.49 26.95C 37.49 32.77 32.77 37.49 26.95 37.49Z"></path></g></g></g><g id="g-root-cp_2_g-2_1luw4nmmtklq9-stroke" data-item-order="3999433670" transform="translate(369.991943359375, 591)"><g id="cp_2_g-2_1luw4nmmtklq9-stroke" fill="none" stroke-linecap="round" stroke-linejoin="round" stroke-miterlimit="4" stroke="#ffffff" stroke-width="2" stroke-opacity="1"><g><path d="M 26.95 21.34C 23.86 21.34 21.35 23.85 21.35 26.95C 21.35 30.05 23.86 32.56 26.95 32.56C 30.04 32.56 32.56 30.05 32.56 26.95C 32.56 23.85 30.05 21.34 26.95 21.34ZM 43.91 26.95C 43.91 17.59 36.32 10 26.95 10C 17.58 10 10 17.59 10 26.95C 10 33.93 14.22 39.92 20.24 42.52L 26.96 54.79L 33.68 42.51C 39.7 39.91 43.92 33.92 43.92 26.94L 43.91 26.95ZM 26.95 37.49C 21.14 37.49 16.42 32.77 16.42 26.95C 16.42 21.13 21.14 16.42 26.95 16.42C 32.76 16.42 37.49 21.13 37.49 26.95C 37.49 32.77 32.77 37.49 26.95 37.49Z"></path></g></g></g><g id="g-root-cp_1_g-1_1hf2mj6mtklqm-stroke" data-item-order="3999433674" transform="translate(285.991943359375, 387)"><g id="cp_1_g-1_1hf2mj6mtklqm-stroke" fill="none" stroke-linecap="round" stroke-linejoin="round" stroke-miterlimit="4" stroke="#ffffff" stroke-width="2" stroke-opacity="1"><g><path d="M 26.95 21.34C 23.86 21.34 21.35 23.85 21.35 26.95C 21.35 30.05 23.86 32.56 26.95 32.56C 30.04 32.56 32.56 30.05 32.56 26.95C 32.56 23.85 30.05 21.34 26.95 21.34ZM 43.91 26.95C 43.91 17.59 36.32 10 26.95 10C 17.58 10 10 17.59 10 26.95C 10 33.93 14.22 39.92 20.24 42.52L 26.96 54.79L 33.68 42.51C 39.7 39.91 43.92 33.92 43.92 26.94L 43.91 26.95ZM 26.95 37.49C 21.14 37.49 16.42 32.77 16.42 26.95C 16.42 21.13 21.14 16.42 26.95 16.42C 32.76 16.42 37.49 21.13 37.49 26.95C 37.49 32.77 32.77 37.49 26.95 37.49Z"></path></g></g></g><g id="g-root-tx_achievin_1hf2mj6mtklqg-stroke" data-item-order="4000000000" transform="translate(139.991943359375, 38)"></g><g id="g-root-tx_introduc_1hf2mj6mtklqh-stroke" data-item-order="4000000000" transform="translate(241.991943359375, 182)"></g><g id="g-root-tx_createre_1hf2mj6mtklqi-stroke" data-item-order="4000000000" transform="translate(427.991943359375, 170)"></g><g id="g-root-tx_offerare_1hf2mj6mtklqk-stroke" data-item-order="4000000000" transform="translate(397.991943359375, 242)"></g><g id="g-root-tx_engageth_1hf2mj6mtklqj-stroke" data-item-order="4000000000" transform="translate(223.991943359375, 254)"></g><g id="g-root-tx_promotew_1luw4nmmtklqa-stroke" data-item-order="4000000000" transform="translate(331.991943359375, 698)"></g><g id="g-root-tx_encourag_1luw4nmmtklqb-stroke" data-item-order="4000000000" transform="translate(307.991943359375, 770)"></g></g></g></svg>