<?xml version="1.0" encoding="utf-8" standalone="yes"?>
<!DOCTYPE svg PUBLIC "-//W3C//DTD SVG 1.1//EN" "http://www.w3.org/Graphics/SVG/1.1/DTD/svg11.dtd">
<svg style="fill:none;stroke:none;fill-rule:evenodd;clip-rule:evenodd;stroke-linecap:round;stroke-linejoin:round;stroke-miterlimit:1.5;" version="1.1" xmlns="http://www.w3.org/2000/svg" xmlns:xlink="http://www.w3.org/1999/xlink" width="852" height="828" viewBox="0 0 852 828"><style class="text-font-style fontImports" data-font-family="Montserrat">@import url(https://fonts.googleapis.com/css2?family=Montserrat:wght@400;700&amp;amp;display=block);</style><g id="items" style="isolation: isolate"><g id="blend" style="mix-blend-mode: normal"><g id="g-root-cp_0_g-0_v7cw9undxv65-fill" data-item-order="-588520" transform="translate(331.9899597167969, 277.990234375)"><g id="cp_0_g-0_v7cw9undxv65-fill-merged" stroke="none" fill="#666666" fill-opacity="1"><g><path d="M100.884 177.74L94.722 171.788L88.563 177.856C76.078 177.053 63.582 173.439 52.014 166.76C13.527 144.54 -0.724 96.461 18.537 57.138L26.464 55.014L24.34 47.088C48.764 10.745 97.527 -0.953 136.014 21.268C148.02 28.2 157.668 37.648 164.675 48.561L162.338 56.673L170.199 58.617C181.309 82.582 180.971 111.399 166.76 136.014C152.447 160.805 127.404 175.54 100.884 177.74"></path></g></g></g><g id="g-root-cp_1_g-1_qrje5endxvye-fill" data-item-order="-588514" transform="translate(416.4193115234375, 122)"><g id="cp_1_g-1_qrje5endxvye-fill-merged" stroke="none" fill="#bad38b" fill-opacity="1"><g><path d="M249.582 250.159C249.554 292.234 238.466 333.561 217.429 369.999L145.252 328.328C158.984 304.544 166.222 277.567 166.24 250.104C166.253 231.245 162.861 212.612 156.298 195.08L122.284 214.719L128.284 225.111L77.907 212.658L92.284 162.757L98.284 173.149L132.781 153.232C120.549 137.659 105.43 124.49 88.182 114.486C64.426 100.707 37.464 93.415 10 93.342L10.222 10C52.297 10.112 93.602 21.283 129.998 42.393C166.393 63.503 196.6 93.811 217.588 130.276C238.577 166.742 249.61 208.085 249.582 250.159"></path></g></g></g><g id="g-root-cp_2_g-2_hvwdwindxwr3-fill" data-item-order="-588504" transform="translate(209.02001953125, 439.77001953125)"><g id="cp_2_g-2_hvwdwindxwr3-fill-merged" stroke="none" fill="#bfaf41" fill-opacity="1"><g><path d="M98.144 140.737C61.653 119.94 31.26 89.929 10 53.706L81.877 11.521C95.754 35.166 115.594 54.754 139.413 68.33C156.355 77.987 174.89 84.36 194.046 87.196 V45.118 H182.046L217.693 10L254.046 45.118 H242.046 V86.867C260.865 83.817 279.039 77.346 295.644 67.704C319.354 53.939 339.036 34.192 352.723 10.437L424.936 52.044C403.967 88.437 373.814 118.69 337.491 139.779C301.168 160.868 259.947 172.056 217.946 172.224C175.945 172.393 134.635 161.535 98.144 140.737"></path></g></g></g><g id="g-root-cp_3_g-3_dgpcv6ndxudk-fill" data-item-order="-588496" transform="translate(176, 122)"><g id="cp_3_g-3_dgpcv6ndxudk-fill-merged" stroke="none" fill="#eecf00" fill-opacity="1"><g><path d="M130.087 42.103C166.769 20.946 208.395 9.87 250.74 10.001L250.483 93.343C222.843 93.258 195.672 100.487 171.728 114.297C154.873 124.019 140.04 136.759 127.932 151.811L163.273 172.215L169.273 161.823L182.45 211L133.273 224.177L139.273 213.785L103.932 193.38C96.865 211.613 93.247 231.075 93.344 250.769C93.48 278.409 100.926 305.522 114.927 329.354L43.068 371.57C21.618 335.059 10.211 293.523 10.003 251.178C9.795 208.833 20.795 167.186 41.885 130.467C62.976 93.747 93.406 63.261 130.087 42.103"></path></g></g></g><g id="g-root-ic_3_1hgyb8indzaj0-fill" data-item-order="-2304" transform="translate(220.52801513671875, 239)"><g id="ic_3_1hgyb8indzaj0-fill-merged" stroke="none" fill="#ffffff" fill-opacity="1"><g><path d="M50 39C50 37.895 49.105 37 48 37 H46.82C46.305 37.003 45.872 36.613 45.82 36.1L44.1 18.9C44.056 18.455 44.308 18.033 44.72 17.86C45.611 17.508 46.127 16.574 45.951 15.633C45.776 14.692 44.957 14.007 44 14 H38.9C38.455 13.964 38.088 13.638 38 13.2C38 10.991 36.209 9.2 34 9.2C31.791 9.2 30 10.991 30 13.2C29.905 13.666 29.495 14 29.02 14 H24C23.043 14.007 22.224 14.692 22.049 15.633C21.873 16.574 22.389 17.508 23.28 17.86C23.732 17.998 24.03 18.428 24 18.9L22.28 36.1C22.228 36.613 21.795 37.003 21.28 37 H20C18.895 37 18 37.895 18 39C18 40.105 18.895 41 20 41 H21.18C21.327 41.001 21.466 41.067 21.56 41.18C21.628 41.312 21.628 41.468 21.56 41.6L18.94 55.6C18.824 56.146 18.941 56.717 19.264 57.173C19.587 57.628 20.086 57.928 20.64 58 H21C21.978 58.016 22.824 57.322 23 56.36L24 50.82C24.088 50.339 24.511 49.992 25 50 H43C43.489 49.992 43.912 50.339 44 50.82L45.04 56.36C45.216 57.322 46.062 58.016 47.04 58 H47.4C48.48 57.798 49.195 56.762 49 55.68L46.38 41.68C46.312 41.548 46.312 41.392 46.38 41.26C46.474 41.147 46.613 41.081 46.76 41.08 H48C48.545 41.08 49.066 40.859 49.443 40.466C49.821 40.074 50.022 39.544 50 39 M39.3 18C39.69 17.998 40.019 18.292 40.06 18.68L41.78 36C41.804 36.285 41.71 36.567 41.52 36.78C41.328 36.984 41.06 37.099 40.78 37.1 H40.4C39.874 37.091 39.441 36.684 39.4 36.16L38.54 18.8C38.531 18.591 38.611 18.387 38.76 18.24C38.897 18.086 39.094 17.999 39.3 18 M33.48 18.5C33.48 18.213 33.713 17.98 34 17.98C34.287 17.98 34.52 18.213 34.52 18.5L35.4 36C35.415 36.275 35.313 36.544 35.12 36.74C34.937 36.945 34.675 37.061 34.4 37.06 H33.6C33.325 37.061 33.063 36.945 32.88 36.74C32.695 36.539 32.594 36.274 32.6 36L33.48 18.5 M28 18.68C28.038 18.314 28.333 18.027 28.7 18C28.906 17.999 29.103 18.086 29.24 18.24C29.389 18.387 29.469 18.591 29.46 18.8L28.6 36C28.559 36.524 28.126 36.931 27.6 36.94 H27.22C26.94 36.939 26.672 36.824 26.48 36.62C26.327 36.448 26.236 36.23 26.22 36L28 18.68 M25.52 46C25.366 46.005 25.218 45.938 25.12 45.82C25.069 45.685 25.069 45.535 25.12 45.4L25.8 41.82C25.879 41.342 26.296 40.994 26.78 41 H41.42C41.904 40.994 42.321 41.342 42.4 41.82L43.08 45.4C43.131 45.535 43.131 45.685 43.08 45.82C42.982 45.938 42.834 46.005 42.68 46 H25.52"></path></g></g></g><g id="g-root-ic_herb_18k2ctendxvre-fill" data-item-order="-2304" transform="translate(560, 235.9990234375)"><g id="ic_herb_18k2ctendxvre-fill-merged" stroke="none" fill="#ffffff" fill-opacity="1"><g><path d="M13.64 27 H33.12C33.4 26.997 33.666 26.882 33.86 26.68L41.06 18.68C41.16 18.536 41.16 18.344 41.06 18.2C40.994 18.039 40.834 17.935 40.66 17.94 H19.26C18.956 17.944 18.67 18.084 18.48 18.32L12.86 25.38C12.624 25.683 12.577 26.092 12.74 26.44C12.908 26.783 13.258 27.001 13.64 27 M33 50 V30C33 29.448 32.552 29 32 29 H10.86C10.385 29 10 29.385 10 29.86 V48.34C10 49.809 11.191 51 12.66 51 H32C32.552 51 33 50.552 33 50 M28 40C28 41.105 27.105 42 26 42 H16C14.895 42 14 41.105 14 40 V36C14 34.895 14.895 34 16 34 H26C27.105 34 28 34.895 28 36 V40 M19.84 16 H40.16C40.386 16 40.603 15.909 40.761 15.747C40.919 15.585 41.005 15.366 41 15.14 V14.28C40.757 11.74 38.547 9.848 36 10 H24C21.453 9.848 19.243 11.74 19 14.28 V15.14C18.995 15.366 19.081 15.585 19.239 15.747C19.397 15.909 19.614 16 19.84 16 M35 28.78 V40.2C34.993 40.516 35.143 40.816 35.4 41C35.648 41.196 35.975 41.263 36.28 41.18C36.675 41.057 37.086 40.997 37.5 41 H38C38.285 41.024 38.567 40.93 38.78 40.74C38.947 40.532 39.026 40.266 39 40 V39.48C39 36.995 41.015 34.98 43.5 34.98 H44C44.285 35.004 44.567 34.91 44.78 34.72C44.942 34.517 45.021 34.259 45 34 V33.48C45.006 31.193 46.727 29.274 49 29.02C49.229 28.991 49.419 28.829 49.484 28.608C49.549 28.387 49.477 28.148 49.3 28L43.46 20.8C43.286 20.565 43.012 20.425 42.72 20.42C42.428 20.419 42.147 20.534 41.94 20.74L35.26 28.1C35.093 28.287 35 28.529 35 28.78 M56.5 39 H54.32C54.121 39.001 53.94 38.883 53.86 38.7C53.784 38.506 53.832 38.286 53.98 38.14L54.56 37.56C55.111 36.969 55.094 36.048 54.523 35.477C53.952 34.906 53.031 34.889 52.44 35.44L51.86 36.02C51.714 36.168 51.494 36.216 51.3 36.14C51.117 36.06 50.999 35.879 51 35.68 V33.5C51 32.672 50.328 32 49.5 32C48.672 32 48 32.672 48 33.5 V39.5C47.999 39.77 47.891 40.029 47.7 40.22L45.86 42.06C45.714 42.208 45.494 42.256 45.3 42.18C45.117 42.1 44.999 41.919 45 41.72 V39.5C45 38.672 44.328 38 43.5 38C42.672 38 42 38.672 42 39.5 V45.5C41.999 45.77 41.891 46.029 41.7 46.22L39.86 48.06C39.714 48.208 39.494 48.256 39.3 48.18C39.117 48.1 38.999 47.919 39 47.72 V45.5C39 44.672 38.328 44 37.5 44C36.672 44 36 44.672 36 45.5 V51.5C35.999 51.77 35.891 52.029 35.7 52.22L32.44 55.48C31.855 56.066 31.855 57.014 32.44 57.6C33.026 58.185 33.974 58.185 34.56 57.6L37.82 54.34C38.011 54.149 38.27 54.041 38.54 54.04 H44.54C45.368 54.04 46.04 53.368 46.04 52.54C46.04 51.712 45.368 51.04 44.54 51.04 H42.32C42.121 51.041 41.94 50.923 41.86 50.74C41.784 50.546 41.832 50.326 41.98 50.18L43.82 48.34C44.011 48.149 44.27 48.041 44.54 48.04 H50.54C51.368 48.04 52.04 47.368 52.04 46.54C52.04 45.712 51.368 45.04 50.54 45.04 H48.32C48.121 45.041 47.94 44.923 47.86 44.74C47.784 44.546 47.832 44.326 47.98 44.18L49.82 42.34C50.011 42.149 50.27 42.041 50.54 42.04 H56.54C57.368 42.04 58.04 41.368 58.04 40.54C58.04 39.712 57.368 39.04 56.54 39.04"></path></g></g></g><g id="g-root-ic_sit_mgpopundxw5i-fill" data-item-order="-2304" transform="translate(392, 535.99951171875)"><g id="ic_sit_mgpopundxw5i-fill-merged" stroke="none" fill="#ffffff" fill-opacity="1"><g><path d="M24 15.74C24 18.501 26.239 20.74 29 20.74C31.761 20.74 34 18.501 34 15.74C34 12.979 31.761 10.74 29 10.74C26.239 10.74 24 12.979 24 15.74 M58 33.24C58 32.135 57.105 31.24 56 31.24 H44C44.01 31.407 44.01 31.573 44 31.74C44.004 33.652 42.917 35.399 41.2 36.24L36.56 54.76C36.289 55.831 36.939 56.919 38.01 57.19C39.081 57.461 40.169 56.811 40.44 55.74L42.1 49.12C42.148 48.894 42.35 48.735 42.58 48.74 H50.42C50.65 48.735 50.852 48.894 50.9 49.12L52.56 55.74C52.831 56.811 53.919 57.461 54.99 57.19C56.061 56.919 56.711 55.831 56.44 54.76L51.56 35.24 H56C57.105 35.24 58 34.345 58 33.24 M49.66 44.12C49.728 44.259 49.728 44.421 49.66 44.56C49.57 44.678 49.428 44.745 49.28 44.74 H43.82C43.672 44.745 43.53 44.678 43.44 44.56C43.372 44.421 43.372 44.259 43.44 44.12L45.66 35.24 H47.54L49.66 44.12 M22 45.24C22 44.964 22.224 44.74 22.5 44.74 H26.88C27.145 44.749 27.36 44.956 27.38 45.22L28 54.12C28.205 55.777 29.713 56.954 31.37 56.749C33.026 56.545 34.204 55.037 34 53.38L33 41.38C32.808 39.87 31.523 38.738 30 38.74 H23.04C22.883 38.737 22.736 38.664 22.64 38.54C22.562 38.397 22.562 38.223 22.64 38.08L25.22 31.18C25.273 31.027 25.402 30.913 25.56 30.88C25.696 30.801 25.864 30.801 26 30.88L29.2 33.26C30.408 34.175 31.884 34.667 33.4 34.66 H39C40.657 34.66 42 33.317 42 31.66C42 30.003 40.657 28.66 39 28.66 H33.34C33.122 28.668 32.909 28.597 32.74 28.46L25.8 23.34C25.043 22.777 24.065 22.604 23.16 22.871C22.256 23.139 21.53 23.816 21.2 24.7C21.2 24.7 15.08 41.06 15.04 41.24 H12C10.895 41.24 10 42.135 10 43.24C10 44.345 10.895 45.24 12 45.24 H17.5C17.776 45.24 18 45.464 18 45.74 V55.24C18 56.345 18.895 57.24 20 57.24C21.105 57.24 22 56.345 22 55.24 V45.24"></path></g></g></g><g id="g-root-tx_impactof_58uhundxvyh-fill" data-item-order="0" transform="translate(200, 38)"><g id="tx_impactof_58uhundxvyh-fill-merged" stroke="none" fill="#484848" fill-opacity="1"><g><text style="font: bold 25px Montserrat, sans-serif; white-space: pre;" transform="translate(226, 28)" font-weight="bold" font-size="25px" font-family="Montserrat, sans-serif"><tspan x="-208.62" y="15" dominant-baseline="ideographic">Impact of Kombucha Tea House</tspan></text></g></g></g><g id="g-root-tx_flexible_1qdu9nmne0pam-fill" data-item-order="0" transform="translate(86, 98)"><g id="tx_flexible_1qdu9nmne0pam-fill-merged" stroke="none" fill="#eecf00" fill-opacity="1"><g><text style="font: bold 20px Montserrat, sans-serif; white-space: pre;" transform="translate(106, 40)" font-weight="bold" font-size="20px" font-family="Montserrat, sans-serif"><tspan x="-83.49" y="-0" dominant-baseline="ideographic">Flexible </tspan><tspan x="-65.1" y="24" dominant-baseline="ideographic">Space</tspan></text></g></g></g><g id="g-root-tx_kombucha_qunrkyne0op0-fill" data-item-order="0" transform="translate(650, 110)"><g id="tx_kombucha_qunrkyne0op0-fill-merged" stroke="none" fill="#bad38b" fill-opacity="1"><g><text style="font: bold 20px Montserrat, sans-serif; white-space: pre;" transform="translate(10, 46)" font-weight="bold" font-size="20px" font-family="Montserrat, sans-serif"><tspan x="2" y="-12" dominant-baseline="ideographic">First </tspan><tspan x="2" y="12" dominant-baseline="ideographic">Kombucha </tspan><tspan x="2" y="36" dominant-baseline="ideographic">Tea House</tspan></text></g></g></g><g id="g-root-tx_accommod_1ly0rj6ne0q2v-fill" data-item-order="0" transform="translate(50, 170)"><g id="tx_accommod_1ly0rj6ne0q2v-fill-merged" stroke="none" fill="#484848" fill-opacity="1"><g><text style="font: 15px Montserrat, sans-serif; white-space: pre;" transform="translate(142, 46)" font-size="15px" font-family="Montserrat, sans-serif"><tspan x="-121.16" y="-18" dominant-baseline="ideographic">Accommodates </tspan><tspan x="-92.3" y="0" dominant-baseline="ideographic">study, social </tspan><tspan x="-120.35" y="18" dominant-baseline="ideographic">gatherings, and </tspan><tspan x="-112.25" y="36" dominant-baseline="ideographic">cultural events</tspan></text></g></g></g><g id="g-root-tx_thefirst_hz0rc2ne0php-fill" data-item-order="0" transform="translate(650, 194)"><g id="tx_thefirst_hz0rc2ne0php-fill-merged" stroke="none" fill="#484848" fill-opacity="1"><g><text style="font: 15px Montserrat, sans-serif; white-space: pre;" transform="translate(10, 34)" font-size="15px" font-family="Montserrat, sans-serif"><tspan x="2" y="-0" dominant-baseline="ideographic">The first of its kind </tspan><tspan x="2" y="18" dominant-baseline="ideographic">in Ithaca Commons</tspan></text></g></g></g><g id="g-root-tx_enhanced_vah9pene0nwr-fill" data-item-order="0" transform="translate(344, 326)"><g id="tx_enhanced_vah9pene0nwr-fill-merged" stroke="none" fill="#ffffff" fill-opacity="1"><g><text style="font: bold 20px Montserrat, sans-serif; white-space: pre;" transform="translate(82, 46)" font-weight="bold" font-size="20px" font-family="Montserrat, sans-serif"><tspan x="-52.73" y="-12" dominant-baseline="ideographic">Enhanced </tspan><tspan x="-61.47" y="12" dominant-baseline="ideographic">Community </tspan><tspan x="-68.28" y="36" dominant-baseline="ideographic">Engagement</tspan></text></g></g></g><g id="g-root-tx_restorat_1hitqhune0npc-fill" data-item-order="0" transform="translate(344, 626)"><g id="tx_restorat_1hitqhune0npc-fill-merged" stroke="none" fill="#bfaf41" fill-opacity="1"><g><text style="font: bold 20px Montserrat, sans-serif; white-space: pre;" transform="translate(82, 40)" font-weight="bold" font-size="20px" font-family="Montserrat, sans-serif"><tspan x="-59.29" y="-0" dominant-baseline="ideographic">Restorative </tspan><tspan x="-68.3" y="24" dominant-baseline="ideographic">Environment</tspan></text></g></g></g><g id="g-root-tx_attracts_18n6q8yne0oi1-fill" data-item-order="0" transform="translate(350, 698)"><g id="tx_attracts_18n6q8yne0oi1-fill-merged" stroke="none" fill="#484848" fill-opacity="1"><g><text style="font: 15px Montserrat, sans-serif; white-space: pre;" transform="translate(76, 46)" font-size="15px" font-family="Montserrat, sans-serif"><tspan x="-59.31" y="-18" dominant-baseline="ideographic">Attracts people </tspan><tspan x="-31.4" y="0" dominant-baseline="ideographic">seeking </tspan><tspan x="-59.39" y="18" dominant-baseline="ideographic">alternative café </tspan><tspan x="-46.92" y="36" dominant-baseline="ideographic">experiences</tspan></text></g></g></g><g id="g-root-cp_0_g-0_v7cw9undxv65-stroke" data-item-order="-588520" transform="translate(331.9899597167969, 277.990234375)"><g id="cp_0_g-0_v7cw9undxv65-stroke" fill="none" stroke-linecap="round" stroke-linejoin="round" stroke-miterlimit="4" stroke="#ffffff" stroke-width="2" stroke-opacity="1"><g><path d="M 100.884231 177.7402L 94.722231 171.7876L 88.562831 177.8557C 76.078231 177.0535 63.582031 173.4389 52.014031 166.7601C 13.526731 144.5395 -0.723769 96.461 18.537231 57.1384L 26.463831 55.0144L 24.339831 47.0878C 48.763631 10.7454 97.526531 -0.9529 136.014031 21.2679C 148.020231 28.1997 157.667831 37.6477 164.675231 48.5614L 162.338131 56.6734L 170.199331 58.6165C 181.309031 82.582 180.971431 111.3994 166.760131 136.014C 152.446831 160.8055 127.404431 175.5405 100.884231 177.7402Z"></path></g></g></g><g id="g-root-cp_1_g-1_qrje5endxvye-stroke" data-item-order="-588514" transform="translate(416.4193115234375, 122)"><g id="cp_1_g-1_qrje5endxvye-stroke" fill="none" stroke-linecap="round" stroke-linejoin="round" stroke-miterlimit="4" stroke="#ffffff" stroke-width="2" stroke-opacity="1"><g><path d="M 249.582461 250.159003C 249.554461 292.233603 238.465861 333.561503 217.428661 369.999103L 145.252161 328.328003C 158.984061 304.543703 166.222061 277.567303 166.240261 250.103503C 166.252861 231.245103 162.861061 212.611903 156.298461 195.080003L 122.283661 214.718503L 128.283661 225.110803L 77.906561 212.658403L 92.283661 162.757003L 98.283661 173.149303L 132.780961 153.232303C 120.548561 137.658603 105.430261 124.490303 88.182461 114.486303C 64.425661 100.706903 37.463761 93.415103 10.000061 93.341903L 10.222161 10.000003C 52.296561 10.112103 93.602261 21.283303 129.997761 42.393303C 166.393261 63.503403 196.599661 93.810603 217.588361 130.276203C 238.577061 166.741903 249.610461 208.084503 249.582461 250.159003Z"></path></g></g></g><g id="g-root-cp_2_g-2_hvwdwindxwr3-stroke" data-item-order="-588504" transform="translate(209.02001953125, 439.77001953125)"><g id="cp_2_g-2_hvwdwindxwr3-stroke" fill="none" stroke-linecap="round" stroke-linejoin="round" stroke-miterlimit="4" stroke="#ffffff" stroke-width="2" stroke-opacity="1"><g><path d="M 98.144069 140.7374C 61.653369 119.9396 31.259669 89.9295 9.999969 53.7059L 81.877269 11.521C 95.754369 35.1656 115.593569 54.7544 139.412569 68.33C 156.355369 77.9866 174.889869 84.3601 194.046169 87.1957L 194.046169 45.1176L 182.046169 45.1176L 217.692769 10L 254.046169 45.1176L 242.046169 45.1176L 242.046169 86.8666C 260.864869 83.8167 279.038769 77.3458 295.644269 67.7045C 319.353769 53.9386 339.035569 34.1916 352.722869 10.4366L 424.935669 52.0445C 403.966769 88.4372 373.814369 118.6897 337.491369 139.7791C 301.168369 160.8685 259.946769 172.0562 217.945669 172.2244C 175.944569 172.3925 134.634769 161.5352 98.144069 140.7374Z"></path></g></g></g><g id="g-root-cp_3_g-3_dgpcv6ndxudk-stroke" data-item-order="-588496" transform="translate(176, 122)"><g id="cp_3_g-3_dgpcv6ndxudk-stroke" fill="none" stroke-linecap="round" stroke-linejoin="round" stroke-miterlimit="4" stroke="#ffffff" stroke-width="2" stroke-opacity="1"><g><path d="M 130.0875 42.1034C 166.7688 20.946 208.395 9.8705 250.7404 10.0011L 250.4833 93.3429C 222.8427 93.2576 195.6716 100.4871 171.7282 114.2974C 154.8729 124.0193 140.0397 136.7588 127.9318 151.8111L 163.2731 172.2154L 169.2731 161.8231L 182.45 211L 133.2731 224.1769L 139.2731 213.7846L 103.9318 193.3803C 96.8645 211.6128 93.2474 231.075 93.3441 250.7687C 93.4797 278.4091 100.9261 305.5216 114.9273 329.3538L 43.0684 371.5702C 21.6185 335.0592 10.2107 293.5229 10.0029 251.1777C 9.7951 208.8326 20.7947 167.1863 41.8853 130.4665C 62.9758 93.7467 93.4062 63.2608 130.0875 42.1034Z"></path></g></g></g><g id="g-root-ic_3_1hgyb8indzaj0-stroke" data-item-order="-2304" transform="translate(220.52801513671875, 239)"></g><g id="g-root-ic_herb_18k2ctendxvre-stroke" data-item-order="-2304" transform="translate(560, 235.9990234375)"></g><g id="g-root-ic_sit_mgpopundxw5i-stroke" data-item-order="-2304" transform="translate(392, 535.99951171875)"></g><g id="g-root-tx_impactof_58uhundxvyh-stroke" data-item-order="0" transform="translate(200, 38)"></g><g id="g-root-tx_flexible_1qdu9nmne0pam-stroke" data-item-order="0" transform="translate(86, 98)"></g><g id="g-root-tx_kombucha_qunrkyne0op0-stroke" data-item-order="0" transform="translate(650, 110)"></g><g id="g-root-tx_accommod_1ly0rj6ne0q2v-stroke" data-item-order="0" transform="translate(50, 170)"></g><g id="g-root-tx_thefirst_hz0rc2ne0php-stroke" data-item-order="0" transform="translate(650, 194)"></g><g id="g-root-tx_enhanced_vah9pene0nwr-stroke" data-item-order="0" transform="translate(344, 326)"></g><g id="g-root-tx_restorat_1hitqhune0npc-stroke" data-item-order="0" transform="translate(344, 626)"></g><g id="g-root-tx_attracts_18n6q8yne0oi1-stroke" data-item-order="0" transform="translate(350, 698)"></g></g></g></svg>