<?xml version="1.0" encoding="utf-8" standalone="yes"?>
<!DOCTYPE svg PUBLIC "-//W3C//DTD SVG 1.1//EN" "http://www.w3.org/Graphics/SVG/1.1/DTD/svg11.dtd">
<svg style="fill:none;stroke:none;fill-rule:evenodd;clip-rule:evenodd;stroke-linecap:round;stroke-linejoin:round;stroke-miterlimit:1.5;" version="1.1" xmlns="http://www.w3.org/2000/svg" xmlns:xlink="http://www.w3.org/1999/xlink" width="913" height="744" viewBox="0 0 913 744"><style class="text-font-style fontImports" data-font-family="Roboto">@import url(https://fonts.googleapis.com/css2?family=Roboto:wght@400;700&amp;amp;display=block);</style><g id="items" style="isolation: isolate"><g id="blend" style="mix-blend-mode: normal"><g id="g-root-cp_0_g-0_1luacw2m9tuyq-fill" data-item-order="-560510" transform="translate(302, 253.9990234375)"><g id="cp_0_g-0_1luacw2m9tuyq-fill-merged" stroke="none" fill="#666666" fill-opacity="1"><g><path d="M298 154C298 74.471 233.529 10 154 10C74.471 10 10 74.471 10 154C10 233.529 74.471 298 154 298C233.529 298 298 233.529 298 154"></path></g></g></g><g id="g-root-cp_6_g-6_1cyncn6m9tvrf-fill" data-item-order="-560506" transform="translate(272, 157.9990234375)"><g id="cp_6_g-6_1cyncn6m9tvrf-fill-merged" stroke="none" fill="#7f64ea" fill-opacity="1"><g><path d="M178 94C178 47.608 140.392 10 94 10C47.608 10 10 47.608 10 94C10 129.404 31.903 159.693 62.899 172.054C87.369 134.115 129.181 108.414 177.126 106.161C177.702 102.191 178 98.13 178 94"></path></g></g></g><g id="g-root-cp_5_g-5_zn6u9um9txcc-fill" data-item-order="-560500" transform="translate(182, 313.9990234375)"><g id="cp_5_g-5_zn6u9um9txcc-fill-merged" stroke="none" fill="#de58a9" fill-opacity="1"><g><path d="M94 10C113.625 10 131.678 16.73 145.978 28.008C135.766 47.778 130 70.215 130 94C130 117.785 135.766 140.223 145.978 159.992C131.678 171.27 113.625 178 94 178C47.608 178 10 140.392 10 94C10 47.608 47.608 10 94 10"></path></g></g></g><g id="g-root-cp_4_g-4_v7zt8im9tuyt-fill" data-item-order="-560494" transform="translate(272, 469.9990234375)"><g id="cp_4_g-4_v7zt8im9tuyt-fill-merged" stroke="none" fill="#eecf00" fill-opacity="1"><g><path d="M10 94C10 58.595 31.903 28.306 62.899 15.945C87.368 53.885 129.181 79.585 177.126 81.839C177.702 85.809 178 89.87 178 94C178 140.392 140.392 178 94 178C47.608 178 10 140.392 10 94"></path></g></g></g><g id="g-root-cp_3_g-3_hwjav6m9twjq-fill" data-item-order="-560488" transform="translate(455, 469.9990234375)"><g id="cp_3_g-3_hwjav6m9twjq-fill-merged" stroke="none" fill="#de8431" fill-opacity="1"><g><path d="M10 94.001C10 89.81 10.307 85.692 10.899 81.666C57.959 78.471 98.815 52.666 122.689 15.027C154.954 26.751 178 57.685 178 94.001C178 140.393 140.392 178.001 94 178.001C47.608 178.001 10 140.393 10 94.001"></path></g></g></g><g id="g-root-cp_2_g-2_90wamam9txcf-fill" data-item-order="-560482" transform="translate(542, 313.9990234375)"><g id="cp_2_g-2_90wamam9txcf-fill-merged" stroke="none" fill="#e55753" fill-opacity="1"><g><path d="M178 94C178 47.608 140.392 10 94 10C74.375 10 56.322 16.73 42.022 28.008C52.234 47.778 58 70.215 58 94C58 117.785 52.234 140.223 42.022 159.992C56.322 171.27 74.375 178 94 178C140.392 178 178 140.392 178 94"></path></g></g></g><g id="g-root-cp_1_g-1_5vrgim9tvr4-fill" data-item-order="-560476" transform="translate(452, 157.9990234375)"><g id="cp_1_g-1_5vrgim9tvr4-fill-merged" stroke="none" fill="#92bd39" fill-opacity="1"><g><path d="M178 94C178 129.404 156.096 159.693 125.101 172.054C100.632 134.115 58.819 108.414 10.874 106.161C10.298 102.191 10 98.13 10 94C10 47.608 47.608 10 94 10C140.392 10 178 47.608 178 94"></path></g></g></g><g id="g-root-ic_chil_v6r4jmm9lgjm-fill" data-item-order="-2304" transform="translate(524, 548)"><g id="ic_chil_v6r4jmm9lgjm-fill-merged" stroke="none" fill="#ffffff" fill-opacity="1"><g><path d="M42.48 19.56C44.179 17.854 44.598 15.253 43.52 13.1C42.758 11.445 41.219 10.282 39.42 10C37.643 9.709 35.835 10.289 34.56 11.56C34.413 11.712 34.211 11.797 34 11.797C33.789 11.797 33.587 11.712 33.44 11.56C32.169 10.283 30.357 9.702 28.58 10C26.835 10.296 25.343 11.422 24.58 13.02C23.5 15.163 23.911 17.756 25.6 19.46L32.22 26.36C32.711 26.874 33.39 27.164 34.1 27.164C34.81 27.164 35.489 26.874 35.98 26.36L42.48 19.56 M21.14 51.12C20.542 50.936 19.999 50.606 19.56 50.16C18.804 49.408 18.379 48.386 18.38 47.32 V43.8C18.382 41.492 19.295 39.279 20.92 37.64C21.23 37.317 21.288 36.826 21.06 36.44C20.629 35.687 20.344 34.859 20.22 34C20.151 33.575 19.823 33.239 19.4 33.16C18.939 33.066 18.47 33.012 18 33C13.582 33 10 36.582 10 41 V45.34C10.008 45.591 10.116 45.829 10.3 46C10.481 46.194 10.735 46.303 11 46.3 H12.68C13.199 46.288 13.638 46.682 13.68 47.2L14.68 57.06C14.722 57.57 15.149 57.962 15.66 57.96 H20.34C20.851 57.962 21.278 57.57 21.32 57.06L21.82 52.14C21.846 51.687 21.568 51.271 21.14 51.12 M18 32C18.625 32.004 19.244 31.882 19.82 31.64C20.111 31.536 20.335 31.298 20.42 31C20.792 29.701 21.527 28.535 22.54 27.64C22.774 27.443 22.901 27.146 22.88 26.84C22.728 24.187 20.48 22.143 17.824 22.243C15.168 22.344 13.081 24.551 13.129 27.208C13.177 29.865 15.342 31.996 18 32 M31.24 32.94C31.24 30.731 29.449 28.94 27.24 28.94C25.031 28.94 23.24 30.731 23.24 32.94C23.24 35.149 25.031 36.94 27.24 36.94C29.449 36.94 31.24 35.149 31.24 32.94 M27.2 38C25.658 37.995 24.178 38.603 23.086 39.692C21.994 40.78 21.38 42.258 21.38 43.8 V47.32C21.389 47.589 21.495 47.845 21.68 48.04C21.868 48.221 22.119 48.322 22.38 48.32 H23.38C23.892 48.326 24.32 48.712 24.38 49.22L25.16 57.1C25.212 57.613 25.645 58.003 26.16 58 H28.16C28.675 58.003 29.108 57.613 29.16 57.1L30 49.22C30.06 48.712 30.488 48.326 31 48.32 H32C32.261 48.322 32.512 48.221 32.7 48.04C32.891 47.849 32.999 47.59 33 47.32 V43.8C33 40.597 30.403 38 27.2 38 M50 33C49.531 32.999 49.062 33.039 48.6 33.12C48.177 33.199 47.849 33.535 47.78 33.96C47.661 34.833 47.376 35.675 46.94 36.44C46.712 36.826 46.77 37.317 47.08 37.64C48.705 39.279 49.618 41.492 49.62 43.8 V47.32C49.621 48.386 49.196 49.408 48.44 50.16C48.001 50.606 47.458 50.936 46.86 51.12C46.416 51.275 46.135 51.712 46.18 52.18L46.68 57.1C46.722 57.61 47.149 58.002 47.66 58 H52.34C52.851 58.002 53.278 57.61 53.32 57.1L54.32 47.24C54.362 46.722 54.801 46.328 55.32 46.34 H57C57.548 46.329 57.989 45.888 58 45.34 V41C58 36.582 54.418 33 50 33 M47.58 31C47.665 31.298 47.889 31.536 48.18 31.64C48.756 31.882 49.375 32.004 50 32C52.674 32.007 54.86 29.869 54.912 27.195C54.964 24.522 52.863 22.3 50.191 22.203C47.519 22.106 45.262 24.17 45.12 26.84C45.099 27.146 45.226 27.443 45.46 27.64C46.473 28.535 47.208 29.701 47.58 31 M40.8 28.9C38.591 28.9 36.8 30.691 36.8 32.9C36.8 35.109 38.591 36.9 40.8 36.9C43.009 36.9 44.8 35.109 44.8 32.9C44.8 30.691 43.009 28.9 40.8 28.9 M46.62 47.32 V43.8C46.439 40.723 43.892 38.321 40.81 38.321C37.728 38.321 35.181 40.723 35 43.8 V47.32C35.001 47.59 35.109 47.849 35.3 48.04C35.488 48.221 35.739 48.322 36 48.32 H37C37.512 48.326 37.94 48.712 38 49.22L38.78 57.1C38.832 57.613 39.265 58.003 39.78 58 H41.78C42.295 58.003 42.728 57.613 42.78 57.1L43.56 49.22C43.62 48.712 44.048 48.326 44.56 48.32 H45.56C45.821 48.322 46.072 48.221 46.26 48.04C46.467 47.854 46.595 47.597 46.62 47.32"></path></g></g></g><g id="g-root-ic_cook_40fdem9va4h-fill" data-item-order="-2304" transform="translate(320, 548)"><g id="ic_cook_40fdem9va4h-fill-merged" stroke="none" fill="#ffffff" fill-opacity="1"><g><path d="M47 22.76C47 21.655 46.105 20.76 45 20.76 H34C33.686 20.763 33.391 20.911 33.2 21.16L29.26 26.28C29.081 26.582 29.081 26.958 29.26 27.26C29.421 27.564 29.736 27.756 30.08 27.76 H45.08C46.185 27.76 47.08 26.865 47.08 25.76L47 22.76 M50 13.76C50 12.655 49.105 11.76 48 11.76 H38.36C38.065 11.76 37.786 11.892 37.6 12.12C37.4 12.343 37.319 12.647 37.38 12.94C37.657 14.346 37.314 15.804 36.44 16.94L35.58 18C35.491 18.162 35.491 18.358 35.58 18.52C35.659 18.692 35.831 18.801 36.02 18.8 H48.02C49.125 18.8 50.02 17.905 50.02 16.8 V13.76 M19.4 22.746L28.462 10.794C28.462 10.794 29.67 9.2 31.262 10.41L33.654 12.222C33.654 12.222 35.246 13.43 34.038 15.024L24.976 26.976C24.976 26.976 23.766 28.57 22.174 27.36L19.784 25.548C19.784 25.548 18.19 24.338 19.398 22.746 M30.2 40.44C30.2 50.62 35.5 58 42.82 58 H45.38C52.7 58 58 50.62 58 40.44C58 30.84 30.2 30.84 30.2 40.44 M44.2 37.52C50.44 37.52 53.72 39.7 53.72 40.44C53.72 41.18 50.44 43.38 44.2 43.38C37.96 43.38 34.6 41.2 34.6 40.44C34.6 39.68 37.86 37.52 44.1 37.52 H44.2 M31.38 34.58C31.552 34.459 31.625 34.24 31.56 34.04C31.514 33.833 31.332 33.684 31.12 33.68C20.44 33.1 14 29.46 14 26.76C14.16 25.76 14.724 24.871 15.56 24.3C16.405 23.601 16.53 22.352 15.84 21.5C15.504 21.088 15.017 20.827 14.488 20.774C13.959 20.722 13.431 20.882 13.02 21.22C11.208 22.498 10.092 24.545 10 26.76C10 32.76 18.8 36.46 28.54 37.48C28.739 37.502 28.93 37.398 29.02 37.22C29.606 36.179 30.411 35.278 31.38 34.58 M54 26.76C54 28.06 52.52 29.56 49.8 30.76C49.608 30.858 49.496 31.065 49.52 31.28C49.537 31.497 49.704 31.672 49.92 31.7C51.237 31.959 52.529 32.334 53.78 32.82C53.923 32.898 54.097 32.898 54.24 32.82C56.408 31.564 57.815 29.318 58 26.82C57.908 24.605 56.792 22.558 54.98 21.28C54.569 20.942 54.041 20.782 53.512 20.834C52.983 20.887 52.496 21.148 52.16 21.56C51.47 22.412 51.595 23.661 52.44 24.36C53.263 24.917 53.825 25.782 54 26.76"></path></g></g></g><g id="g-root-ic_bott_18i7mwym9wo3o-fill" data-item-order="-2304" transform="translate(626, 375)"><g id="ic_bott_18i7mwym9wo3o-fill-merged" stroke="none" fill="#ffffff" fill-opacity="1"><g><path d="M34 47C34.225 46.997 34.443 46.92 34.62 46.78C35.22 46.3 49 35.12 49 27C49 18.716 42.284 12 34 12C25.716 12 19 18.716 19 27C19 35.12 32.78 46.3 33.38 46.78C33.557 46.92 33.775 46.997 34 47 M34 21C36.761 21 39 23.239 39 26C39 28.761 36.761 31 34 31C31.239 31 29 28.761 29 26C29 23.239 31.239 21 34 21 M15 53C15 54.657 16.343 56 18 56 H50C51.657 56 53 54.657 53 53C53 51.343 51.657 50 50 50 H18C16.343 50 15 51.343 15 53"></path></g></g></g><g id="g-root-ic_road_1lw61mqm9o8i7-fill" data-item-order="-2304" transform="translate(218, 374)"><g id="ic_road_1lw61mqm9o8i7-fill-merged" stroke="none" fill="#ffffff" fill-opacity="1"><g><path d="M14.62 36.32C15.104 38.381 16.886 39.879 19 40 V42C19.011 42.824 19.676 43.489 20.5 43.5 H22.5C23.324 43.489 23.989 42.824 24 42 V40C25.511 39.96 26.898 39.153 27.68 37.86C27.909 37.522 27.909 37.078 27.68 36.74C27.171 36.018 26.748 35.24 26.42 34.42C26.355 34.253 26.244 34.107 26.1 34C23.817 32.199 22.49 29.448 22.5 26.54C22.499 25.472 22.674 24.411 23.02 23.4C23.149 23.142 23.149 22.838 23.02 22.58C22.899 22.257 22.604 22.032 22.26 22C22.008 21.969 21.752 21.969 21.5 22C19.376 22.02 17.588 23.595 17.3 25.7C15.825 26.109 14.728 27.347 14.5 28.86C13.227 29.685 12.469 31.107 12.493 32.623C12.518 34.14 13.321 35.537 14.62 36.32 M28.52 32C28.74 32.125 28.899 32.334 28.96 32.58C29.716 35.601 32.333 37.79 35.44 38 H36C36.279 37.978 36.554 38.073 36.759 38.263C36.965 38.453 37.081 38.72 37.08 39 V42C37.091 42.824 37.756 43.489 38.58 43.5 H40.58C41.373 43.448 41.991 42.794 42 42 V38.98C41.999 38.7 42.115 38.433 42.321 38.243C42.526 38.053 42.801 37.958 43.08 37.98 H43.56C46.635 37.761 49.226 35.604 50 32.62C50.061 32.374 50.22 32.165 50.44 32.04C52.287 30.854 53.418 28.823 53.455 26.628C53.491 24.434 52.427 22.366 50.62 21.12C50.4 20.967 50.244 20.74 50.18 20.48C49.819 18.408 48.365 16.694 46.38 16C46.013 15.902 45.738 15.596 45.68 15.22C45.19 12.187 42.572 9.958 39.5 9.958C36.428 9.958 33.81 12.187 33.32 15.22C33.262 15.596 32.987 15.902 32.62 16C30.619 16.682 29.148 18.399 28.78 20.48C28.716 20.74 28.56 20.967 28.34 21.12C26.551 22.369 25.499 24.426 25.535 26.608C25.571 28.79 26.69 30.811 28.52 32 M12 50 H56C57.105 50 58 49.105 58 48C58 46.895 57.105 46 56 46 H12C10.895 46 10 46.895 10 48C10 49.105 10.895 50 12 50 M56 54 H12C10.895 54 10 54.895 10 56C10 57.105 10.895 58 12 58 H56C57.105 58 58 57.105 58 56C58 54.895 57.105 54 56 54"></path></g></g></g><g id="g-root-ic_medi_1hbcqtem9pn9n-fill" data-item-order="-2304" transform="translate(320, 201)"><g id="ic_medi_1hbcqtem9pn9n-fill-merged" stroke="none" fill="#ffffff" fill-opacity="1"><g><path d="M57.8 15.4C57.609 15.151 57.314 15.003 57 15 H53.5C53.224 15 53 14.776 53 14.5 V11C52.997 10.686 52.849 10.391 52.6 10.2C52.352 9.988 52.015 9.913 51.7 10C50.435 10.434 49.199 10.948 48 11.54 V17.68C47.996 17.807 47.947 17.927 47.86 18.02L46.86 19.02C46.714 19.168 46.494 19.216 46.3 19.14C46.117 19.06 45.999 18.879 46 18.68 V12.68C43.493 13.909 41.559 16.058 40.6 18.68C40.212 20.443 40.638 22.286 41.76 23.7C41.907 23.888 41.907 24.152 41.76 24.34L40 26C39.805 26.169 39.515 26.169 39.32 26C32.2 20.255 21.902 20.764 15.385 27.185C8.867 33.606 8.202 43.894 13.84 51.1C13.977 51.284 13.977 51.536 13.84 51.72L11.44 54.76C10.922 55.309 10.757 56.103 11.014 56.814C11.271 57.524 11.906 58.028 12.656 58.119C13.405 58.209 14.142 57.869 14.56 57.24L16.68 54.58C16.756 54.475 16.871 54.405 16.999 54.387C17.127 54.368 17.257 54.401 17.36 54.48C23.851 59.252 32.723 59.13 39.08 54.18C39.272 54.002 39.568 54.002 39.76 54.18C40.54 55.06 42.5 57.26 42.5 57.28C42.854 57.681 43.353 57.923 43.887 57.953C44.42 57.983 44.944 57.798 45.34 57.44C46.161 56.705 46.233 55.443 45.5 54.62L42.5 51.24C42.349 51.061 42.349 50.799 42.5 50.62C46.849 44.76 47.205 36.847 43.4 30.62C43.306 30.494 43.157 30.42 43 30.42C42.843 30.42 42.694 30.494 42.6 30.62L40 33.12C39.882 33.295 39.882 33.525 40 33.7C43.203 39.744 41.364 47.229 35.724 51.1C30.084 54.971 22.438 53.997 17.95 48.835C13.461 43.673 13.558 35.966 18.175 30.918C22.791 25.871 30.459 25.089 36 29.1C36.116 29.194 36.189 29.331 36.2 29.48C36.207 29.62 36.156 29.757 36.06 29.86L34.6 31.32C34.418 31.483 34.142 31.483 33.96 31.32C31.55 29.624 28.528 29.041 25.66 29.72C20.768 30.845 17.356 35.276 17.519 40.294C17.682 45.311 21.374 49.511 26.329 50.317C31.284 51.122 36.116 48.308 37.86 43.6C38.782 41.233 38.782 38.607 37.86 36.24C37.796 36.084 37.658 35.971 37.493 35.939C37.328 35.907 37.158 35.96 37.04 36.08L34.62 38.5C34.507 38.617 34.455 38.78 34.48 38.94C34.647 40.083 34.48 41.25 34 42.3C33.127 44.511 31.149 46.094 28.8 46.46C25.348 46.9 22.162 44.543 21.573 41.113C20.983 37.684 23.199 34.398 26.6 33.66C28.016 33.341 29.499 33.517 30.8 34.16C30.943 34.227 31.041 34.363 31.06 34.52C31.096 34.681 31.042 34.849 30.92 34.96L29.16 36.72C28.791 36.574 28.397 36.5 28 36.5C26.067 36.5 24.5 38.067 24.5 40C24.5 41.933 26.067 43.5 28 43.5C29.933 43.5 31.5 41.933 31.5 40C31.498 39.603 31.424 39.21 31.28 38.84L43.84 26.28C44.028 26.133 44.292 26.133 44.48 26.28C45.55 27.101 46.852 27.563 48.2 27.6C48.639 27.606 49.076 27.552 49.5 27.44C54.86 26 57.84 16.7 58 16.3C58.077 15.985 58.003 15.652 57.8 15.4"></path></g></g></g><g id="g-root-ic_pers_92rpvmm9twcr-fill" data-item-order="-2304" transform="translate(524, 201)"><g id="ic_pers_92rpvmm9twcr-fill-merged" stroke="none" fill="#ffffff" fill-opacity="1"><g><path d="M43 30 V12C43 10.895 42.105 10 41 10 H27C25.895 10 25 10.895 25 12 V30C25 31.105 25.895 32 27 32 H41C42.105 32 43 31.105 43 30 M39 26C39 27.105 38.105 28 37 28 H31C29.895 28 29 27.105 29 26 V16C29 14.895 29.895 14 31 14 H37C38.105 14 39 14.895 39 16 V26 M12 30C12 32.761 14.239 35 17 35C19.761 35 22 32.761 22 30C22 27.239 19.761 25 17 25C14.239 25 12 27.239 12 30 M17 36C13.134 36 10 39.134 10 43 V47C9.997 47.265 10.106 47.519 10.3 47.7C10.481 47.894 10.735 48.003 11 48 H12.18C12.699 47.988 13.138 48.382 13.18 48.9L14 57.1C14.052 57.613 14.485 58.003 15 58 H19C19.515 58.003 19.948 57.613 20 57.1L20.82 48.9C20.862 48.382 21.301 47.988 21.82 48 H23C23.548 47.989 23.989 47.548 24 47 V43C24 39.134 20.866 36 17 36 M53.5 36.5C51.696 36.501 50.067 37.579 49.362 39.239C48.656 40.899 49.009 42.82 50.26 44.12C50.451 44.314 50.451 44.626 50.26 44.82C45.973 49.065 39.067 49.065 34.78 44.82C34.589 44.626 34.589 44.314 34.78 44.12C36.098 42.755 36.419 40.71 35.581 39.007C34.743 37.304 32.927 36.31 31.041 36.522C29.155 36.734 27.605 38.106 27.165 39.952C26.726 41.798 27.492 43.721 29.08 44.76C29.369 44.941 29.543 45.259 29.54 45.6 V56C29.54 57.105 30.435 58 31.54 58C32.645 58 33.54 57.105 33.54 56 V50C33.544 49.818 33.642 49.651 33.8 49.56C33.962 49.471 34.158 49.471 34.32 49.56C39.317 52.815 45.763 52.815 50.76 49.56C50.918 49.458 51.122 49.458 51.28 49.56C51.444 49.644 51.545 49.816 51.54 50 V56C51.54 57.105 52.435 58 53.54 58C54.645 58 55.54 57.105 55.54 56 V45.6C55.548 45.262 55.719 44.949 56 44.76C57.659 43.669 58.407 41.619 57.84 39.716C57.274 37.812 55.526 36.505 53.54 36.5"></path></g></g></g><g id="g-root-tx_location_18egseam9y498-fill" data-item-order="0" transform="translate(734, 332)"><g id="tx_location_18egseam9y498-fill-merged" stroke="none" fill="#e55753" fill-opacity="1"><g><text style="font: bold 20px Roboto, sans-serif; white-space: pre;" transform="translate(10, 22)" font-weight="bold" font-size="20px" font-family="Roboto, sans-serif"><tspan x="2" y="12" dominant-baseline="ideographic">Location</tspan></text></g></g></g><g id="g-root-tx_design_qvxf42m9wpvq-fill" data-item-order="0" transform="translate(86, 332)"><g id="tx_design_qvxf42m9wpvq-fill-merged" stroke="none" fill="#de58a9" fill-opacity="1"><g><text style="font: bold 20px Roboto, sans-serif; white-space: pre;" transform="translate(82, 22)" font-weight="bold" font-size="20px" font-family="Roboto, sans-serif"><tspan x="-64.01" y="12" dominant-baseline="ideographic">Design</tspan></text></g></g></g><g id="g-root-tx_auniqueb_hs68qqm9y49b-fill" data-item-order="0" transform="translate(650, 134)"><g id="tx_auniqueb_hs68qqm9y49b-fill-merged" stroke="none" fill="#484848" fill-opacity="1"><g><text style="font: 15px Roboto, sans-serif; white-space: pre;" transform="translate(10, 64)" font-size="15px" font-family="Roboto, sans-serif"><tspan x="2" y="-36.4" dominant-baseline="ideographic">A unique blend of </tspan><tspan x="2" y="-18.4" dominant-baseline="ideographic">retail and </tspan><tspan x="2" y="-0.4" dominant-baseline="ideographic">community space </tspan><tspan x="2" y="17.6" dominant-baseline="ideographic">offering kombucha </tspan><tspan x="2" y="35.6" dominant-baseline="ideographic">and tea-flavored </tspan><tspan x="2" y="53.6" dominant-baseline="ideographic">pastries.</tspan></text></g></g></g><g id="g-root-tx_ithacask_v98reqm9tx4y-fill" data-item-order="0" transform="translate(374, 362)"><g id="tx_ithacask_v98reqm9tx4y-fill-merged" stroke="none" fill="#ffffff" fill-opacity="1"><g><text style="font: bold 20px Roboto, sans-serif; white-space: pre;" transform="translate(82, 46)" font-weight="bold" font-size="20px" font-family="Roboto, sans-serif"><tspan x="-35.66" y="-12" dominant-baseline="ideographic">Ithaca's </tspan><tspan x="-68.32" y="12" dominant-baseline="ideographic">Kombucha Tea </tspan><tspan x="-30.52" y="36" dominant-baseline="ideographic">House</tspan></text></g></g></g><g id="g-root-tx_inspired_dl3dtum9woav-fill" data-item-order="0" transform="translate(26, 368)"><g id="tx_inspired_dl3dtum9woav-fill-merged" stroke="none" fill="#484848" fill-opacity="1"><g><text style="font: 15px Roboto, sans-serif; white-space: pre;" transform="translate(142, 58)" font-size="15px" font-family="Roboto, sans-serif"><tspan x="-123.87" y="-27.4" dominant-baseline="ideographic">Inspired by nature, </tspan><tspan x="-130.13" y="-9.4" dominant-baseline="ideographic">creating a soothing </tspan><tspan x="-117.02" y="8.6" dominant-baseline="ideographic">environment with </tspan><tspan x="-109.29" y="26.6" dominant-baseline="ideographic">warm tones and </tspan><tspan x="-105.12" y="44.6" dominant-baseline="ideographic">natural lighting.</tspan></text></g></g></g><g id="g-root-tx_situated_v3mr42m9y2od-fill" data-item-order="0" transform="translate(734, 368)"><g id="tx_situated_v3mr42m9y2od-fill-merged" stroke="none" fill="#484848" fill-opacity="1"><g><text style="font: 15px Roboto, sans-serif; white-space: pre;" transform="translate(10, 58)" font-size="15px" font-family="Roboto, sans-serif"><tspan x="2" y="-27.4" dominant-baseline="ideographic">Situated in the heart </tspan><tspan x="2" y="-9.4" dominant-baseline="ideographic">of Ithaca Commons, </tspan><tspan x="2" y="8.6" dominant-baseline="ideographic">leveraging high foot </tspan><tspan x="2" y="26.6" dominant-baseline="ideographic">traffic and cultural </tspan><tspan x="2" y="44.6" dominant-baseline="ideographic">vibrancy.</tspan></text></g></g></g><g id="g-root-tx_introduc_vbqx8im9wp3h-fill" data-item-order="0" transform="translate(98, 146)"><g id="tx_introduc_vbqx8im9wp3h-fill-merged" stroke="none" fill="#484848" fill-opacity="1"><g><text style="font: 15px Roboto, sans-serif; white-space: pre;" transform="translate(154, 58)" font-size="15px" font-family="Roboto, sans-serif"><tspan x="-77.68" y="-27.4" dominant-baseline="ideographic">Introducing </tspan><tspan x="-124.78" y="-9.4" dominant-baseline="ideographic">kombucha culture, </tspan><tspan x="-135.77" y="8.6" dominant-baseline="ideographic">promoting wellness, </tspan><tspan x="-104.02" y="26.6" dominant-baseline="ideographic">and providing a </tspan><tspan x="-124.01" y="44.6" dominant-baseline="ideographic">restorative retreat.</tspan></text></g></g></g><g id="g-root-tx_storecon_qnt8zmm9y3gm-fill" data-item-order="0" transform="translate(650, 98)"><g id="tx_storecon_qnt8zmm9y3gm-fill-merged" stroke="none" fill="#92bd39" fill-opacity="1"><g><text style="font: bold 20px Roboto, sans-serif; white-space: pre;" transform="translate(10, 22)" font-weight="bold" font-size="20px" font-family="Roboto, sans-serif"><tspan x="2" y="12" dominant-baseline="ideographic">Store Concept</tspan></text></g></g></g><g id="g-root-tx_goals_1hi7yrmm9wpvo-fill" data-item-order="0" transform="translate(182, 110)"><g id="tx_goals_1hi7yrmm9wpvo-fill-merged" stroke="none" fill="#7f64ea" fill-opacity="1"><g><text style="font: bold 20px Roboto, sans-serif; white-space: pre;" transform="translate(70, 22)" font-weight="bold" font-size="20px" font-family="Roboto, sans-serif"><tspan x="-53.19" y="12" dominant-baseline="ideographic">Goals</tspan></text></g></g></g><g id="g-root-tx_theessen_1d0irwim9turt-fill" data-item-order="0" transform="translate(182.5, 38)"><g id="tx_theessen_1d0irwim9turt-fill-merged" stroke="none" fill="#484848" fill-opacity="1"><g><text style="font: bold 25px Roboto, sans-serif; white-space: pre;" transform="translate(274, 28)" font-weight="bold" font-size="25px" font-family="Roboto, sans-serif"><tspan x="-257.25" y="14.87" dominant-baseline="ideographic">The Essence of Ithaca's Kombucha Tea House</tspan></text></g></g></g><g id="g-root-tx_services_959vpem9wp34-fill" data-item-order="0" transform="translate(158, 554)"><g id="tx_services_959vpem9wp34-fill-merged" stroke="none" fill="#c5ab00" fill-opacity="1"><g><text style="font: bold 20px Roboto, sans-serif; white-space: pre;" transform="translate(94, 22)" font-weight="bold" font-size="20px" font-family="Roboto, sans-serif"><tspan x="-79.53" y="12" dominant-baseline="ideographic">Services</tspan></text></g></g></g><g id="g-root-tx_targetin_1ha3sn6m9y3gj-fill" data-item-order="0" transform="translate(650, 590)"><g id="tx_targetin_1ha3sn6m9y3gj-fill-merged" stroke="none" fill="#484848" fill-opacity="1"><g><text style="font: 15px Roboto, sans-serif; white-space: pre;" transform="translate(10, 58)" font-size="15px" font-family="Roboto, sans-serif"><tspan x="2" y="-27.4" dominant-baseline="ideographic">Targeting diverse </tspan><tspan x="2" y="-9.4" dominant-baseline="ideographic">groups including </tspan><tspan x="2" y="8.6" dominant-baseline="ideographic">residents, students, </tspan><tspan x="2" y="26.6" dominant-baseline="ideographic">and wellness-</tspan><tspan x="2" y="44.6" dominant-baseline="ideographic">oriented visitors.</tspan></text></g></g></g><g id="g-root-tx_offering_9mvgim9wpvt-fill" data-item-order="0" transform="translate(98, 590)"><g id="tx_offering_9mvgim9wpvt-fill-merged" stroke="none" fill="#484848" fill-opacity="1"><g><text style="font: 15px Roboto, sans-serif; white-space: pre;" transform="translate(154, 58)" font-size="15px" font-family="Roboto, sans-serif"><tspan x="-110.06" y="-27.4" dominant-baseline="ideographic">Offering curated </tspan><tspan x="-135.71" y="-9.4" dominant-baseline="ideographic">menus, self-brewing </tspan><tspan x="-113.85" y="8.6" dominant-baseline="ideographic">experiences, and </tspan><tspan x="-141.84" y="26.6" dominant-baseline="ideographic">spaces for relaxation </tspan><tspan x="-70.26" y="44.6" dominant-baseline="ideographic">and study.</tspan></text></g></g></g><g id="g-root-tx_customer_1lpxarmm9y2oa-fill" data-item-order="0" transform="translate(650, 554)"><g id="tx_customer_1lpxarmm9y2oa-fill-merged" stroke="none" fill="#de8431" fill-opacity="1"><g><text style="font: bold 20px Roboto, sans-serif; white-space: pre;" transform="translate(10, 22)" font-weight="bold" font-size="20px" font-family="Roboto, sans-serif"><tspan x="2" y="12" dominant-baseline="ideographic">Customer Base</tspan></text></g></g></g><g id="g-root-cp_0_g-0_1luacw2m9tuyq-stroke" data-item-order="-560510" transform="translate(302, 253.9990234375)"><g id="cp_0_g-0_1luacw2m9tuyq-stroke" fill="none" stroke-linecap="round" stroke-linejoin="round" stroke-miterlimit="4" stroke="#ffffff" stroke-width="2" stroke-opacity="1"><g><path d="M 298 154C 298 74.471 233.529 10 154 10C 74.471 10 10 74.471 10 154C 10 233.529 74.471 298 154 298C 233.529 298 298 233.529 298 154Z"></path></g></g></g><g id="g-root-cp_6_g-6_1cyncn6m9tvrf-stroke" data-item-order="-560506" transform="translate(272, 157.9990234375)"><g id="cp_6_g-6_1cyncn6m9tvrf-stroke" fill="none" stroke-linecap="round" stroke-linejoin="round" stroke-miterlimit="4" stroke="#ffffff" stroke-width="2" stroke-opacity="1"><g><path d="M 178 94C 178 47.6081 140.3919 10 94 10C 47.6081 10 10 47.6081 10 94C 10 129.4045 31.9035 159.6932 62.8989 172.0543C 87.3686 134.1152 129.1807 108.4144 177.1261 106.1612C 177.7019 102.1906 178 98.1301 178 94ZM 177.125637 106.161133C 171.233738 146.790033 136.261338 177.999933 93.999538 177.999933C 83.012138 177.999933 72.517538 175.890433 62.898438 172.054233C 87.368138 134.115133 129.180238 108.414333 177.125637 106.161133Z"></path></g></g></g><g id="g-root-cp_5_g-5_zn6u9um9txcc-stroke" data-item-order="-560500" transform="translate(182, 313.9990234375)"><g id="cp_5_g-5_zn6u9um9txcc-stroke" fill="none" stroke-linecap="round" stroke-linejoin="round" stroke-miterlimit="4" stroke="#ffffff" stroke-width="2" stroke-opacity="1"><g><path d="M 94 10C 113.6251 10 131.6783 16.7301 145.9776 28.0082C 135.7664 47.7775 130 70.2153 130 94C 130 117.7847 135.7664 140.2226 145.9776 159.9918C 131.6783 171.2699 113.6251 178 94 178C 47.6081 178 10 140.3919 10 94C 10 47.6081 47.6081 10 94 10ZM 130 93.999613C 130 70.214913 135.7665 47.777113 145.9776 28.007813C 165.4804 43.390113 178 67.232813 178 93.999613C 178 120.766413 165.4804 144.609112 145.9776 159.991413C 135.7665 140.222213 130 117.784313 130 93.999613Z"></path></g></g></g><g id="g-root-cp_4_g-4_v7zt8im9tuyt-stroke" data-item-order="-560494" transform="translate(272, 469.9990234375)"><g id="cp_4_g-4_v7zt8im9tuyt-stroke" fill="none" stroke-linecap="round" stroke-linejoin="round" stroke-miterlimit="4" stroke="#ffffff" stroke-width="2" stroke-opacity="1"><g><path d="M 10 93.999613C 10 58.595113 31.9035 28.306413 62.8989 15.945313C 87.3685 53.884513 129.1807 79.585213 177.1261 81.838513C 177.7019 85.809013 178 89.869513 178 93.999613C 178 140.391513 140.3919 177.999613 94 177.999613C 47.6081 177.999613 10 140.391513 10 93.999613ZM 62.898438 15.9457C 72.517538 12.1095 83.012138 10 93.999538 10C 136.261338 10 171.233738 41.2099 177.125738 81.8388C 129.180238 79.5856 87.368138 53.8849 62.898438 15.9457Z"></path></g></g></g><g id="g-root-cp_3_g-3_hwjav6m9twjq-stroke" data-item-order="-560488" transform="translate(455, 469.9990234375)"><g id="cp_3_g-3_hwjav6m9twjq-stroke" fill="none" stroke-linecap="round" stroke-linejoin="round" stroke-miterlimit="4" stroke="#ffffff" stroke-width="2" stroke-opacity="1"><g><path d="M 10 94.000644C 10 89.810244 10.3068 85.691544 10.8993 81.665744C 57.9594 78.470644 98.8147 52.665744 122.6889 15.027344C 154.9539 26.751044 178 57.684544 178 94.000644C 178 140.392544 140.3919 178.000644 94 178.000644C 47.6081 178.000644 10 140.392544 10 94.000644ZM 10.899414 81.6651C 16.865814 41.121 51.798614 10 94.000114 10C 104.075914 10 113.737314 11.774 122.689114 15.0267C 98.814814 52.665 57.959514 78.47 10.899414 81.6651Z"></path></g></g></g><g id="g-root-cp_2_g-2_90wamam9txcf-stroke" data-item-order="-560482" transform="translate(542, 313.9990234375)"><g id="cp_2_g-2_90wamam9txcf-stroke" fill="none" stroke-linecap="round" stroke-linejoin="round" stroke-miterlimit="4" stroke="#ffffff" stroke-width="2" stroke-opacity="1"><g><path d="M 178.000061 94C 178.000061 47.6081 140.391961 10 94.000061 10C 74.374961 10 56.321761 16.7301 42.022461 28.0082C 52.233561 47.7775 58.000061 70.2153 58.000061 94C 58.000061 117.7847 52.233561 140.2225 42.022461 159.9918C 56.321761 171.2699 74.374961 178 94.000061 178C 140.391961 178 178.000061 140.3919 178.000061 94ZM 58 93.999613C 58 117.784313 52.2335 140.222112 42.0224 159.991413C 22.5196 144.609112 10 120.766413 10 93.999613C 10 67.232813 22.5196 43.390113 42.0224 28.007813C 52.2335 47.777113 58 70.214913 58 93.999613Z"></path></g></g></g><g id="g-root-cp_1_g-1_5vrgim9tvr4-stroke" data-item-order="-560476" transform="translate(452, 157.9990234375)"><g id="cp_1_g-1_5vrgim9tvr4-stroke" fill="none" stroke-linecap="round" stroke-linejoin="round" stroke-miterlimit="4" stroke="#ffffff" stroke-width="2" stroke-opacity="1"><g><path d="M 178 94C 178 129.4045 156.0965 159.6932 125.1011 172.0543C 100.6315 134.1152 58.8193 108.4144 10.8739 106.1612C 10.2981 102.1906 10 98.1301 10 94C 10 47.6081 47.6081 10 94 10C 140.3919 10 178 47.6081 178 94ZM 125.101323 172.054333C 100.631623 134.115133 58.819523 108.414333 10.874023 106.161133C 16.766023 146.790033 51.738323 177.999933 94.000123 177.999933C 104.987523 177.999933 115.482223 175.890433 125.101323 172.054333Z"></path></g></g></g><g id="g-root-ic_chil_v6r4jmm9lgjm-stroke" data-item-order="-2304" transform="translate(524, 548)"></g><g id="g-root-ic_cook_40fdem9va4h-stroke" data-item-order="-2304" transform="translate(320, 548)"></g><g id="g-root-ic_bott_18i7mwym9wo3o-stroke" data-item-order="-2304" transform="translate(626, 375)"></g><g id="g-root-ic_road_1lw61mqm9o8i7-stroke" data-item-order="-2304" transform="translate(218, 374)"></g><g id="g-root-ic_medi_1hbcqtem9pn9n-stroke" data-item-order="-2304" transform="translate(320, 201)"></g><g id="g-root-ic_pers_92rpvmm9twcr-stroke" data-item-order="-2304" transform="translate(524, 201)"></g><g id="g-root-tx_location_18egseam9y498-stroke" data-item-order="0" transform="translate(734, 332)"></g><g id="g-root-tx_design_qvxf42m9wpvq-stroke" data-item-order="0" transform="translate(86, 332)"></g><g id="g-root-tx_auniqueb_hs68qqm9y49b-stroke" data-item-order="0" transform="translate(650, 134)"></g><g id="g-root-tx_ithacask_v98reqm9tx4y-stroke" data-item-order="0" transform="translate(374, 362)"></g><g id="g-root-tx_inspired_dl3dtum9woav-stroke" data-item-order="0" transform="translate(26, 368)"></g><g id="g-root-tx_situated_v3mr42m9y2od-stroke" data-item-order="0" transform="translate(734, 368)"></g><g id="g-root-tx_introduc_vbqx8im9wp3h-stroke" data-item-order="0" transform="translate(98, 146)"></g><g id="g-root-tx_storecon_qnt8zmm9y3gm-stroke" data-item-order="0" transform="translate(650, 98)"></g><g id="g-root-tx_goals_1hi7yrmm9wpvo-stroke" data-item-order="0" transform="translate(182, 110)"></g><g id="g-root-tx_theessen_1d0irwim9turt-stroke" data-item-order="0" transform="translate(182.5, 38)"></g><g id="g-root-tx_services_959vpem9wp34-stroke" data-item-order="0" transform="translate(158, 554)"></g><g id="g-root-tx_targetin_1ha3sn6m9y3gj-stroke" data-item-order="0" transform="translate(650, 590)"></g><g id="g-root-tx_offering_9mvgim9wpvt-stroke" data-item-order="0" transform="translate(98, 590)"></g><g id="g-root-tx_customer_1lpxarmm9y2oa-stroke" data-item-order="0" transform="translate(650, 554)"></g></g></g></svg>