<?xml version="1.0" encoding="utf-8" standalone="yes"?>
<!DOCTYPE svg PUBLIC "-//W3C//DTD SVG 1.1//EN" "http://www.w3.org/Graphics/SVG/1.1/DTD/svg11.dtd">
<svg style="fill:none;stroke:none;fill-rule:evenodd;clip-rule:evenodd;stroke-linecap:round;stroke-linejoin:round;stroke-miterlimit:1.5;" version="1.1" xmlns="http://www.w3.org/2000/svg" xmlns:xlink="http://www.w3.org/1999/xlink" width="816" height="744" viewBox="0 0 816 744"><style class="text-font-style fontImports" data-font-family="Montserrat">@import url(https://fonts.googleapis.com/css2?family=Montserrat:wght@400;700&amp;amp;display=block);</style><g id="items" style="isolation: isolate"><g id="blend" style="mix-blend-mode: normal"><g id="g-root-cp_0_g-0_1lua6l6w9dwct-fill" data-item-order="-479197" transform="translate(230, 230)"></g><g id="g-root-cp_1_g-1_18jg5ayw9dury-fill" data-item-order="-479194" transform="translate(230, 230)"><g id="cp_1_g-1_18jg5ayw9dury-fill-merged" stroke="none" fill="#ffde00" fill-opacity="1"><g><path d="M141.78 122.142C149.497 110.673 154 96.862 154 82C154 42.236 121.765 10 82 10C42.236 10 10 42.236 10 82C10 121.765 42.236 154 82 154C96.301 154 109.628 149.831 120.832 142.641L154 154L141.78 122.142"></path></g></g></g><g id="g-root-cp_3_g-3_143mn6iw9dvk7-fill" data-item-order="-479190" transform="translate(230, 422)"><g id="cp_3_g-3_143mn6iw9dvk7-fill-merged" stroke="none" fill="#e0cb15" fill-opacity="1"><g><path d="M141.78 41.858C149.497 53.327 154 67.138 154 82C154 121.765 121.765 154 82 154C42.236 154 10 121.765 10 82C10 42.236 42.236 10 82 10C96.301 10 109.628 14.169 120.832 21.359L154 10L141.78 41.858"></path></g></g></g><g id="g-root-cp_2_g-2_znt522w9dwcg-fill" data-item-order="-479186" transform="translate(422, 230)"><g id="cp_2_g-2_znt522w9dwcg-fill-merged" stroke="none" fill="#bad38b" fill-opacity="1"><g><path d="M22.22 122.142C14.503 110.673 10 96.862 10 82C10 42.236 42.236 10 82 10C121.765 10 154 42.236 154 82C154 121.765 121.765 154 82 154C67.699 154 54.372 149.831 43.168 142.641L10 154L22.22 122.142"></path></g></g></g><g id="g-root-cp_4_g-4_qsslwaw9dtzd-fill" data-item-order="-479182" transform="translate(422, 422)"><g id="cp_4_g-4_qsslwaw9dtzd-fill-merged" stroke="none" fill="#ac7358" fill-opacity="1"><g><path d="M22.22 41.858C14.503 53.327 10 67.138 10 82C10 121.765 42.236 154 82 154C121.765 154 154 121.765 154 82C154 42.236 121.765 10 82 10C67.699 10 54.372 14.169 43.168 21.359L10 10L22.22 41.858"></path></g></g></g><g id="g-root-ic_1_hva6e2w9f9xo-fill" data-item-order="-5184" transform="translate(458, 266)"><g id="ic_1_hva6e2w9f9xo-fill-merged" stroke="none" fill="#ffffff" fill-opacity="1"><g><path d="M26.23 34.81C29.242 34.883 31.999 33.125 33.203 30.363C34.407 27.6 33.818 24.384 31.714 22.227C29.609 20.071 26.409 19.403 23.617 20.539C20.826 21.674 19.001 24.387 19 27.4C18.999 31.423 22.208 34.712 26.23 34.81 M11.02 55.57C10.28 56.476 9.936 57.642 10.065 58.805C10.195 59.968 10.788 61.03 11.71 61.75C12.486 62.392 13.463 62.742 14.47 62.74C15.828 62.726 17.102 62.083 17.92 61L24.31 52.99C24.492 52.811 24.75 52.733 25 52.78C25.264 52.818 25.49 52.987 25.6 53.23L28.93 61C29.399 62.109 30.486 62.829 31.69 62.83 H33.55C35.207 62.83 36.55 64.173 36.55 65.83 V74.5C36.55 76.936 38.524 78.911 40.96 78.911C43.396 78.911 45.37 76.936 45.37 74.5 V67.78C45.363 67.402 45.629 67.073 46 67C46.33 66.904 46.682 67.055 46.84 67.36L51.88 76.57C52.647 77.989 54.137 78.866 55.75 78.85C56.486 78.864 57.212 78.678 57.85 78.31C58.889 77.758 59.662 76.81 59.995 75.682C60.328 74.553 60.193 73.338 59.62 72.31L52 58.51C50.471 55.659 47.495 53.883 44.26 53.89 H36.01C35.711 53.891 35.44 53.714 35.32 53.44L30.28 41.83C29.67 40.413 28.359 39.422 26.83 39.22 H26.23C24.89 39.221 23.622 39.828 22.78 40.87L11.02 55.57 M30.61 81.73C31.438 81.73 32.11 81.058 32.11 80.23C32.11 80.23 32.11 68.77 32.11 68.62C32.11 67.792 31.438 67.12 30.61 67.12 H11.53C10.702 67.12 10.03 67.792 10.03 68.62 V80.23C10.03 81.058 10.702 81.73 11.53 81.73 H30.61 M75.34 18.52C76.313 19.828 76.186 21.65 75.04 22.81C71.69 26.15 71.392 31.478 74.35 35.17L75.16 36.16C76.198 37.46 76.095 39.332 74.92 40.51C73.744 41.678 73.737 43.579 74.905 44.755C76.073 45.931 77.974 45.938 79.15 44.77C82.514 41.436 82.812 36.098 79.84 32.41L79 31.42C77.966 30.103 78.082 28.22 79.27 27.04C82.435 23.779 82.79 18.711 80.11 15.04L77.56 11.47C77.082 10.825 76.365 10.398 75.571 10.285C74.776 10.172 73.968 10.383 73.33 10.87C72.014 11.873 71.759 13.752 72.76 15.07L75.34 18.52 M61.54 18.52C62.501 19.832 62.374 21.645 61.24 22.81C57.876 26.144 57.578 31.482 60.55 35.17L61.36 36.16C62.353 37.494 62.199 39.358 61 40.51C59.824 41.678 59.817 43.579 60.985 44.755C62.153 45.931 64.054 45.938 65.23 44.77C68.58 41.43 68.878 36.102 65.92 32.41L65.11 31.42C64.068 30.11 64.171 28.228 65.35 27.04C68.525 23.786 68.892 18.718 66.22 15.04L63.73 11.47C62.736 10.145 60.855 9.876 59.53 10.87C58.205 11.864 57.936 13.745 58.93 15.07L61.54 18.52 M47.74 18.52C48.706 19.835 48.565 21.658 47.41 22.81C44.073 26.148 43.788 31.465 46.75 35.14L47.53 36.16C48.582 37.455 48.478 39.338 47.29 40.51C46.722 41.073 46.403 41.84 46.403 42.64C46.403 43.44 46.722 44.207 47.29 44.77C47.853 45.338 48.62 45.657 49.42 45.657C50.22 45.657 50.987 45.338 51.55 44.77C54.887 41.424 55.184 36.107 52.24 32.41L51.43 31.42C50.388 30.11 50.491 28.228 51.67 27.04C54.845 23.786 55.212 18.718 52.54 15.04L49.93 11.47C48.936 10.145 47.055 9.876 45.73 10.87C44.405 11.864 44.136 13.745 45.13 15.07L47.74 18.52"></path></g></g></g><g id="g-root-ic_turk_v647oaw9i328-fill" data-item-order="-5184" transform="translate(458, 458)"><g id="ic_turk_v647oaw9i328-fill-merged" stroke="none" fill="#ffffff" fill-opacity="1"><g><path d="M73.75 50.11 H50.5C48.843 50.11 47.5 51.453 47.5 53.11 V60.61C47.5 67.21 52.9 71.11 59.5 71.11C62.971 71.068 66.253 69.525 68.5 66.88C68.641 66.711 68.85 66.612 69.07 66.61 H73.69C78.246 66.61 81.94 62.916 81.94 58.36C81.94 53.804 78.246 50.11 73.69 50.11 M73.75 62.11 H73C72.569 62.113 72.157 61.931 71.87 61.609C71.583 61.288 71.448 60.858 71.5 60.43C71.602 58.992 71.602 57.548 71.5 56.11C71.5 55.282 72.172 54.61 73 54.61 H73.75C75.821 54.61 77.5 56.289 77.5 58.36C77.5 60.431 75.821 62.11 73.75 62.11 M76 75.61 H43C41.343 75.61 40 76.953 40 78.61C40 80.267 41.343 81.61 43 81.61 H76C77.657 81.61 79 80.267 79 78.61C79 76.953 77.657 75.61 76 75.61 M40.96 41.26C41.073 41.319 41.207 41.319 41.32 41.26L70.93 25.81C71.961 25.365 72.658 24.381 72.735 23.26C72.811 22.139 72.255 21.07 71.294 20.488C70.332 19.907 69.127 19.912 68.17 20.5L43.21 33.49C42.772 33.717 42.47 34.142 42.4 34.63C42.29 35.629 41.962 36.592 41.44 37.45C40.832 38.525 40.57 39.761 40.69 40.99C40.739 41.113 40.837 41.211 40.96 41.26 M36.43 42.43C35.861 39.953 36.27 37.353 37.57 35.17C38.106 34.242 38.106 33.098 37.57 32.17C37.04 31.227 36.042 30.642 34.96 30.64 H13.96C12.878 30.642 11.88 31.227 11.35 32.17C10.814 33.098 10.814 34.242 11.35 35.17C12.649 37.364 13.057 39.974 12.49 42.46L10.45 49C9.657 51.323 9.92 53.877 11.17 55.99C12.465 58.179 14.661 59.683 17.17 60.1C19.645 60.545 22.155 60.766 24.67 60.76C27.185 60.766 29.695 60.545 32.17 60.1C34.679 59.683 36.875 58.179 38.17 55.99C39.34 53.841 39.516 51.289 38.65 49L36.43 42.43 M18.34 21.64L17.11 23.26C16.462 24.226 16.657 25.527 17.56 26.26C17.945 26.637 18.461 26.852 19 26.86C19.702 26.863 20.366 26.542 20.8 25.99L22 24.34C23.743 22.053 23.401 18.804 21.22 16.93C21.011 16.786 20.872 16.561 20.838 16.31C20.804 16.058 20.877 15.804 21.04 15.61L22.27 13.99C23.024 12.979 22.816 11.549 21.805 10.795C20.794 10.041 19.364 10.249 18.61 11.26L17.38 13C15.637 15.287 15.979 18.536 18.16 20.41C18.539 20.706 18.618 21.248 18.34 21.64 M28 21.64L26.77 23.26C26.122 24.226 26.317 25.527 27.22 26.26C27.601 26.567 28.081 26.727 28.57 26.71C29.272 26.713 29.936 26.392 30.37 25.84L31.6 24.19C33.294 21.975 33.034 18.837 31 16.93C30.791 16.786 30.652 16.561 30.618 16.31C30.584 16.058 30.657 15.804 30.82 15.61L32.05 13.99C32.804 12.979 32.596 11.549 31.585 10.795C30.574 10.041 29.144 10.249 28.39 11.26L27.16 13C25.488 15.286 25.854 18.472 28 20.32C28.176 20.495 28.275 20.732 28.275 20.98C28.275 21.228 28.176 21.465 28 21.64"></path></g></g></g><g id="g-root-ic_cabi_qvwzbuw9dv5t-fill" data-item-order="-5184" transform="translate(266, 266)"><g id="ic_cabi_qvwzbuw9dv5t-fill-merged" stroke="none" fill="#ffffff" fill-opacity="1"><g><path d="M30.25 10.75C30.25 10.336 29.914 10 29.5 10 H14.5C12.015 10 10 12.015 10 14.5 V29.5C10 31.985 12.015 34 14.5 34 H29.5C29.914 34 30.25 33.664 30.25 33.25 V10.75 M16 20.5 V17.5C16 16.672 16.672 16 17.5 16C18.328 16 19 16.672 19 17.5 V20.5C19 21.328 18.328 22 17.5 22C16.672 22 16 21.328 16 20.5 M58.75 58C58.336 58 58 58.336 58 58.75 V79C58 80.38 60.43 82 62.5 82 H77.5C79.57 82 82 80.38 82 79 V58.75C82 58.336 81.664 58 81.25 58 H58.75 M64 64C64 63.172 64.672 62.5 65.5 62.5C66.328 62.5 67 63.172 67 64 V67C67 67.828 66.328 68.5 65.5 68.5C64.672 68.5 64 67.828 64 67 V64 M55 10.75C55 10.336 54.664 10 54.25 10 H34C33.586 10 33.25 10.336 33.25 10.75 V33.25C33.25 33.664 33.586 34 34 34 H54.25C54.664 34 55 33.664 55 33.25 V10.75 M40.75 22C39.922 22 39.25 21.328 39.25 20.5 V17.5C39.25 16.672 39.922 16 40.75 16C41.578 16 42.25 16.672 42.25 17.5 V20.5C42.25 21.328 41.578 22 40.75 22 M33.25 50.5C33.25 48.843 31.907 47.5 30.25 47.5 H16C12.686 47.5 10 50.186 10 53.5 V79C10 80.657 11.343 82 13 82C14.657 82 16 80.657 16 79 V55C16 54.172 16.672 53.5 17.5 53.5 H30.25C31.907 53.5 33.25 52.157 33.25 50.5 M41.5 41.5C39.843 41.5 38.5 42.843 38.5 44.5 V59.5C38.5 61.157 37.157 62.5 35.5 62.5 H23.5C21.843 62.5 20.5 63.843 20.5 65.5C20.5 67.157 21.843 68.5 23.5 68.5 H28.75C29.164 68.5 29.5 68.836 29.5 69.25 V72.25C29.496 72.516 29.361 72.762 29.14 72.91L23.47 76.42C22.426 76.892 21.742 77.916 21.707 79.061C21.671 80.205 22.291 81.27 23.303 81.806C24.315 82.341 25.544 82.254 26.47 81.58L32.05 78.22C32.296 78.101 32.584 78.101 32.83 78.22L38.41 81.58C39.336 82.254 40.565 82.341 41.577 81.806C42.589 81.27 43.209 80.205 43.173 79.061C43.138 77.916 42.454 76.892 41.41 76.42L35.86 73C35.639 72.852 35.504 72.606 35.5 72.34 V69.22C35.499 68.828 35.799 68.501 36.19 68.47C40.889 68.109 44.514 64.183 44.5 59.47 V44.47C44.484 42.825 43.145 41.5 41.5 41.5 M81.25 53.5C81.664 53.5 82 53.164 82 52.75 V16C82 11.56 79.69 10 77.5 10 H58.75C58.336 10 58 10.336 58 10.75 V46.75C58 47.164 57.664 47.5 57.25 47.5 H50.5C48.843 47.5 47.5 48.843 47.5 50.5C47.5 52.157 48.843 53.5 50.5 53.5 H81.25 M67 20.5C67 21.328 66.328 22 65.5 22C64.672 22 64 21.328 64 20.5 V17.5C64 16.672 64.672 16 65.5 16C66.328 16 67 16.672 67 17.5 V20.5"></path></g></g></g><g id="g-root-ic_cafe_qvwzbuw9f8jq-fill" data-item-order="-5184" transform="translate(266, 458)"><g id="ic_cafe_qvwzbuw9f8jq-fill-merged" stroke="none" fill="#ffffff" fill-opacity="1"><g><path d="M72.25 76 H13.75C12.093 76 10.75 77.343 10.75 79C10.75 80.657 12.093 82 13.75 82 H72.25C73.907 82 75.25 80.657 75.25 79C75.25 77.343 73.907 76 72.25 76 M25 30.13C25.559 30.684 26.313 30.997 27.1 31C27.897 31.005 28.664 30.692 29.23 30.13C29.798 29.567 30.117 28.8 30.117 28C30.117 27.2 29.798 26.433 29.23 25.87C28.79 25.446 28.541 24.861 28.541 24.25C28.541 23.639 28.79 23.054 29.23 22.63C32.464 19.377 32.464 14.123 29.23 10.87C28.06 9.707 26.17 9.707 25 10.87C24.432 11.433 24.113 12.2 24.113 13C24.113 13.8 24.432 14.567 25 15.13C25.884 16.029 25.884 17.471 25 18.37C21.766 21.623 21.766 26.877 25 30.13 M38.59 30.13C39.149 30.684 39.903 30.997 40.69 31C41.487 31.005 42.254 30.692 42.82 30.13C43.388 29.567 43.707 28.8 43.707 28C43.707 27.2 43.388 26.433 42.82 25.87C42.38 25.446 42.131 24.861 42.131 24.25C42.131 23.639 42.38 23.054 42.82 22.63C46.054 19.377 46.054 14.123 42.82 10.87C41.65 9.707 39.76 9.707 38.59 10.87C38.022 11.433 37.703 12.2 37.703 13C37.703 13.8 38.022 14.567 38.59 15.13C39.474 16.029 39.474 17.471 38.59 18.37C35.356 21.623 35.356 26.877 38.59 30.13 M52 30.13C52.559 30.684 53.313 30.997 54.1 31C54.897 31.005 55.664 30.692 56.23 30.13C56.798 29.567 57.117 28.8 57.117 28C57.117 27.2 56.798 26.433 56.23 25.87C55.79 25.446 55.541 24.861 55.541 24.25C55.541 23.639 55.79 23.054 56.23 22.63C59.464 19.377 59.464 14.123 56.23 10.87C55.06 9.707 53.17 9.707 52 10.87C51.432 11.433 51.113 12.2 51.113 13C51.113 13.8 51.432 14.567 52 15.13C52.884 16.029 52.884 17.471 52 18.37C48.766 21.623 48.766 26.877 52 30.13 M66.25 34 H37.75C37.336 34 37 34.336 37 34.75 V40C36.998 40.284 37.162 40.542 37.42 40.66C39.449 41.668 40.737 43.734 40.75 46 V53.5C40.75 54.328 40.078 55 39.25 55 H30.25C29.422 55 28.75 54.328 28.75 53.5 V46C28.751 43.723 30.041 41.643 32.08 40.63C32.328 40.517 32.491 40.273 32.5 40 V34.75C32.5 34.336 32.164 34 31.75 34 H19.75C18.093 34 16.75 35.343 16.75 37 V47.5C16.735 54.151 19.481 60.509 24.332 65.058C29.183 69.608 35.704 71.941 42.34 71.5C48.171 71.101 53.64 68.532 57.67 64.3C57.81 64.149 58.005 64.063 58.21 64.06 H66.25C74.534 64.06 81.25 57.344 81.25 49.06C81.25 40.776 74.534 34.06 66.25 34.06 V34 M66.25 58 H63.25C62.999 57.998 62.765 57.875 62.62 57.67C62.516 57.441 62.516 57.179 62.62 56.95C64.063 53.722 64.809 50.226 64.81 46.69 V41.5C64.81 40.672 65.482 40 66.31 40C71.281 40 75.31 44.029 75.31 49C75.31 53.971 71.281 58 66.31 58"></path></g></g></g><g id="g-root-tx_basicstu_6i28qw9dtzf-fill" data-item-order="0" transform="translate(50, 206)"><g id="tx_basicstu_6i28qw9dtzf-fill-merged" stroke="none" fill="#eecf00" fill-opacity="1"><g><text style="font: bold 20px Montserrat, sans-serif; white-space: pre;" transform="translate(142, 40)" font-weight="bold" font-size="20px" font-family="Montserrat, sans-serif"><tspan x="-124.76" y="-0" dominant-baseline="ideographic">Basic Study </tspan><tspan x="-50.44" y="24" dominant-baseline="ideographic">Area</tspan></text></g></g></g><g id="g-root-tx_2_147dhp6w9dtkw-fill" data-item-order="0" transform="translate(614, 146)"><g id="tx_2_147dhp6w9dtkw-fill-merged" stroke="none" fill="#bad38b" fill-opacity="1"><g><text style="font: bold 25px Montserrat, sans-serif; white-space: pre;" transform="translate(22, 28)" font-weight="bold" font-size="25px" font-family="Montserrat, sans-serif"><tspan x="-7.38" y="15" dominant-baseline="ideographic">2</tspan></text></g></g></g><g id="g-root-tx_tearitua_dj7isaw9dukm-fill" data-item-order="0" transform="translate(614, 206)"><g id="tx_tearitua_dj7isaw9dukm-fill-merged" stroke="none" fill="#bad38b" fill-opacity="1"><g><text style="font: bold 20px Montserrat, sans-serif; white-space: pre;" transform="translate(10, 46)" font-weight="bold" font-size="20px" font-family="Montserrat, sans-serif"><tspan x="2" y="-12" dominant-baseline="ideographic">Tea Rituals </tspan><tspan x="2" y="12" dominant-baseline="ideographic">with Retreat </tspan><tspan x="2" y="36" dominant-baseline="ideographic">Seating</tspan></text></g></g></g><g id="g-root-tx_focuseso_hznhzuw9m9s5-fill" data-item-order="0" transform="translate(614, 530)"><g id="tx_focuseso_hznhzuw9m9s5-fill-merged" stroke="none" fill="#484848" fill-opacity="1"><g><text style="font: 15px Montserrat, sans-serif; white-space: pre;" transform="translate(10, 46)" font-size="15px" font-family="Montserrat, sans-serif"><tspan x="2" y="-18" dominant-baseline="ideographic">Offers spaces for </tspan><tspan x="2" y="0" dominant-baseline="ideographic">coffee-chats, </tspan><tspan x="2" y="18" dominant-baseline="ideographic">social group </tspan><tspan x="2" y="36" dominant-baseline="ideographic">gathers</tspan></text></g></g></g><g id="g-root-tx_offersco_18lbkkaw9dtsc-fill" data-item-order="0" transform="translate(38, 278)"><g id="tx_offersco_18lbkkaw9dtsc-fill-merged" stroke="none" fill="#484848" fill-opacity="1"><g><text style="font: 15px Montserrat, sans-serif; white-space: pre;" transform="translate(154, 40)" font-size="15px" font-family="Montserrat, sans-serif"><tspan x="-111.27" y="-9" dominant-baseline="ideographic">Offers comfort </tspan><tspan x="-130.31" y="9" dominant-baseline="ideographic">while supporting </tspan><tspan x="-93.41" y="27" dominant-baseline="ideographic">study needs</tspan></text></g></g></g><g id="g-root-tx_combines_1qduj8aw9dtlb-fill" data-item-order="0" transform="translate(614, 290)"><g id="tx_combines_1qduj8aw9dtlb-fill-merged" stroke="none" fill="#484848" fill-opacity="1"><g><text style="font: 15px Montserrat, sans-serif; white-space: pre;" transform="translate(10, 40)" font-size="15px" font-family="Montserrat, sans-serif"><tspan x="2" y="-9" dominant-baseline="ideographic">Combines tea </tspan><tspan x="2" y="9" dominant-baseline="ideographic">experience with </tspan><tspan x="2" y="27" dominant-baseline="ideographic">comfort</tspan></text></g></g></g><g id="g-root-tx_1_qu1k2iw9dw5h-fill" data-item-order="0" transform="translate(134, 146)"><g id="tx_1_qu1k2iw9dw5h-fill-merged" stroke="none" fill="#eecf00" fill-opacity="1"><g><text style="font: bold 25px Montserrat, sans-serif; white-space: pre;" transform="translate(22, 28)" font-weight="bold" font-size="25px" font-family="Montserrat, sans-serif"><tspan x="-4.9" y="15" dominant-baseline="ideographic">1</tspan></text></g></g></g><g id="g-root-tx_wellness_dhc3iyw9dvka-fill" data-item-order="0" transform="translate(242, 38)"><g id="tx_wellness_dhc3iyw9dvka-fill-merged" stroke="none" fill="#484848" fill-opacity="1"><g><text style="font: bold 25px Montserrat, sans-serif; white-space: pre;" transform="translate(166, 28)" font-weight="bold" font-size="25px" font-family="Montserrat, sans-serif"><tspan x="-151.58" y="15" dominant-baseline="ideographic">User Interview Insights</tspan></text></g></g></g><g id="g-root-tx_3_vahja2w9mbcz-fill" data-item-order="0" transform="translate(134, 434)"><g id="tx_3_vahja2w9mbcz-fill-merged" stroke="none" fill="#e0cb15" fill-opacity="1"><g><text style="font: bold 25px Montserrat, sans-serif; white-space: pre;" transform="translate(22, 28)" font-weight="bold" font-size="25px" font-family="Montserrat, sans-serif"><tspan x="-7.4" y="15" dominant-baseline="ideographic">3</tspan></text></g></g></g><g id="g-root-tx_4_4o6zmiw9mbd2-fill" data-item-order="0" transform="translate(614, 434)"><g id="tx_4_4o6zmiw9mbd2-fill-merged" stroke="none" fill="#ac7358" fill-opacity="1"><g><text style="font: bold 25px Montserrat, sans-serif; white-space: pre;" transform="translate(22, 28)" font-weight="bold" font-size="25px" font-family="Montserrat, sans-serif"><tspan x="-8.61" y="15" dominant-baseline="ideographic">4</tspan></text></g></g></g><g id="g-root-tx_minimali_1qcll22w9makp-fill" data-item-order="0" transform="translate(74, 494)"><g id="tx_minimali_1qcll22w9makp-fill-merged" stroke="none" fill="#e0cb15" fill-opacity="1"><g><text style="font: bold 20px Montserrat, sans-serif; white-space: pre;" transform="translate(118, 22)" font-weight="bold" font-size="20px" font-family="Montserrat, sans-serif"><tspan x="-94.71" y="12" dominant-baseline="ideographic">Fun Cafe</tspan></text></g></g></g><g id="g-root-tx_sensoryr_mfh04aw9m8zw-fill" data-item-order="0" transform="translate(614, 494)"><g id="tx_sensoryr_mfh04aw9m8zw-fill-merged" stroke="none" fill="#ac7358" fill-opacity="1"><g><text style="font: bold 20px Montserrat, sans-serif; white-space: pre;" transform="translate(10, 22)" font-weight="bold" font-size="20px" font-family="Montserrat, sans-serif"><tspan x="2" y="12" dominant-baseline="ideographic">Social Chats</tspan></text></g></g></g><g id="g-root-tx_provides_1d1rjruw9m8zu-fill" data-item-order="0" transform="translate(26, 530)"><g id="tx_provides_1d1rjruw9m8zu-fill-merged" stroke="none" fill="#484848" fill-opacity="1"><g><text style="font: 15px Montserrat, sans-serif; white-space: pre;" transform="translate(166, 40)" font-size="15px" font-family="Montserrat, sans-serif"><tspan x="-128.86" y="-9" dominant-baseline="ideographic">A cafe that offers </tspan><tspan x="-124.79" y="9" dominant-baseline="ideographic">aesthetic visuals </tspan><tspan x="-142.16" y="27" dominant-baseline="ideographic">and seating space </tspan></text></g></g></g><g id="g-root-cp_0_g-0_1lua6l6w9dwct-stroke" data-item-order="-479197" transform="translate(230, 230)"><g id="cp_0_g-0_1lua6l6w9dwct-stroke" fill="none" stroke-linecap="round" stroke-linejoin="round" stroke-miterlimit="4" stroke="#484848" stroke-width="2" stroke-opacity="1"><g><path d="M 178 10L 178 346M 10 177.9999L 346 178"></path></g></g></g><g id="g-root-cp_1_g-1_18jg5ayw9dury-stroke" data-item-order="-479194" transform="translate(230, 230)"><g id="cp_1_g-1_18jg5ayw9dury-stroke" fill="none" stroke-linecap="round" stroke-linejoin="round" stroke-miterlimit="4" stroke="#ffffff" stroke-width="2" stroke-opacity="1"><g><path d="M 141.7804 122.1418C 149.4968 110.673 154 96.8624 154 82C 154 42.2355 121.7645 10 82 10C 42.2355 10 10 42.2355 10 82C 10 121.7645 42.2355 154 82 154C 96.3009 154 109.628 149.8306 120.8321 142.6411L 154 154L 141.7804 122.1418Z"></path></g></g></g><g id="g-root-cp_3_g-3_143mn6iw9dvk7-stroke" data-item-order="-479190" transform="translate(230, 422)"><g id="cp_3_g-3_143mn6iw9dvk7-stroke" fill="none" stroke-linecap="round" stroke-linejoin="round" stroke-miterlimit="4" stroke="#ffffff" stroke-width="2" stroke-opacity="1"><g><path d="M 141.7804 41.8582C 149.4968 53.327 154 67.1376 154 82C 154 121.7645 121.7645 154 82 154C 42.2355 154 10 121.7645 10 82C 10 42.2355 42.2355 10 82 10C 96.3009 10 109.628 14.1694 120.8321 21.3589L 154 10L 141.7804 41.8582Z"></path></g></g></g><g id="g-root-cp_2_g-2_znt522w9dwcg-stroke" data-item-order="-479186" transform="translate(422, 230)"><g id="cp_2_g-2_znt522w9dwcg-stroke" fill="none" stroke-linecap="round" stroke-linejoin="round" stroke-miterlimit="4" stroke="#ffffff" stroke-width="2" stroke-opacity="1"><g><path d="M 22.2196 122.1418C 14.5032 110.673 10 96.8624 10 82C 10 42.2355 42.2355 10 82 10C 121.7645 10 154 42.2355 154 82C 154 121.7645 121.7645 154 82 154C 67.6991 154 54.372 149.8306 43.1679 142.6411L 10 154L 22.2196 122.1418Z"></path></g></g></g><g id="g-root-cp_4_g-4_qsslwaw9dtzd-stroke" data-item-order="-479182" transform="translate(422, 422)"><g id="cp_4_g-4_qsslwaw9dtzd-stroke" fill="none" stroke-linecap="round" stroke-linejoin="round" stroke-miterlimit="4" stroke="#ffffff" stroke-width="2" stroke-opacity="1"><g><path d="M 22.2196 41.8582C 14.5032 53.327 10 67.1376 10 82C 10 121.7645 42.2355 154 82 154C 121.7645 154 154 121.7645 154 82C 154 42.2355 121.7645 10 82 10C 67.6991 10 54.372 14.1694 43.1679 21.3589L 10 10L 22.2196 41.8582Z"></path></g></g></g><g id="g-root-ic_1_hva6e2w9f9xo-stroke" data-item-order="-5184" transform="translate(458, 266)"></g><g id="g-root-ic_turk_v647oaw9i328-stroke" data-item-order="-5184" transform="translate(458, 458)"></g><g id="g-root-ic_cabi_qvwzbuw9dv5t-stroke" data-item-order="-5184" transform="translate(266, 266)"></g><g id="g-root-ic_cafe_qvwzbuw9f8jq-stroke" data-item-order="-5184" transform="translate(266, 458)"></g><g id="g-root-tx_basicstu_6i28qw9dtzf-stroke" data-item-order="0" transform="translate(50, 206)"></g><g id="g-root-tx_2_147dhp6w9dtkw-stroke" data-item-order="0" transform="translate(614, 146)"></g><g id="g-root-tx_tearitua_dj7isaw9dukm-stroke" data-item-order="0" transform="translate(614, 206)"></g><g id="g-root-tx_focuseso_hznhzuw9m9s5-stroke" data-item-order="0" transform="translate(614, 530)"></g><g id="g-root-tx_offersco_18lbkkaw9dtsc-stroke" data-item-order="0" transform="translate(38, 278)"></g><g id="g-root-tx_combines_1qduj8aw9dtlb-stroke" data-item-order="0" transform="translate(614, 290)"></g><g id="g-root-tx_1_qu1k2iw9dw5h-stroke" data-item-order="0" transform="translate(134, 146)"></g><g id="g-root-tx_wellness_dhc3iyw9dvka-stroke" data-item-order="0" transform="translate(242, 38)"></g><g id="g-root-tx_3_vahja2w9mbcz-stroke" data-item-order="0" transform="translate(134, 434)"></g><g id="g-root-tx_4_4o6zmiw9mbd2-stroke" data-item-order="0" transform="translate(614, 434)"></g><g id="g-root-tx_minimali_1qcll22w9makp-stroke" data-item-order="0" transform="translate(74, 494)"></g><g id="g-root-tx_sensoryr_mfh04aw9m8zw-stroke" data-item-order="0" transform="translate(614, 494)"></g><g id="g-root-tx_provides_1d1rjruw9m8zu-stroke" data-item-order="0" transform="translate(26, 530)"></g></g></g></svg>