<?xml version="1.0" encoding="utf-8" standalone="yes"?>
<!DOCTYPE svg PUBLIC "-//W3C//DTD SVG 1.1//EN" "http://www.w3.org/Graphics/SVG/1.1/DTD/svg11.dtd">
<svg style="fill:none;stroke:none;fill-rule:evenodd;clip-rule:evenodd;stroke-linecap:round;stroke-linejoin:round;stroke-miterlimit:1.5;" version="1.1" xmlns="http://www.w3.org/2000/svg" xmlns:xlink="http://www.w3.org/1999/xlink" width="600" height="576" viewBox="0 0 600 576"><style class="text-font-style fontImports" data-font-family="Montserrat">@import url(https://fonts.googleapis.com/css2?family=Montserrat:wght@400;700&amp;amp;display=block);</style><g id="items" style="isolation: isolate"><g id="blend" style="mix-blend-mode: normal"><g id="g-root-sy_-1_cu-1_3zmkjzb3tam-fill" data-item-order="-264954" transform="translate(14, 38)"><g id="sy_-1_cu-1_3zmkjzb3tam-fill-merged" stroke="none" fill="#fff6b8" fill-opacity="1"><g><path d="M286 10L562 130L550 154 H22L10 130L286 10 M562 490 H10L22 466 H550L562 490"></path></g></g></g><g id="g-root-sy_6_cu_1upwnibzb3qpz-fill" data-item-order="-264950" transform="translate(374, 338)"><g id="sy_6_cu_1upwnibzb3qpz-fill-merged" stroke="none" fill="#bad38b" fill-opacity="1"><g><path d="M10 166 H178 V10 H10 V166"></path></g></g></g><g id="g-root-sy_5_cu_1upwnibzb3qq0-fill" data-item-order="-264946" transform="translate(206, 338)"><g id="sy_5_cu_1upwnibzb3qq0-fill-merged" stroke="none" fill="#f7e35b" fill-opacity="1"><g><path d="M10 166 H178 V10 H10 V166"></path></g></g></g><g id="g-root-sy_4_cu_1qa35dvzb3ri9-fill" data-item-order="-264942" transform="translate(38, 338)"><g id="sy_4_cu_1qa35dvzb3ri9-fill-merged" stroke="none" fill="#bfaf41" fill-opacity="1"><g><path d="M10 166 H178 V10 H10 V166"></path></g></g></g><g id="g-root-sy_3_cu_1qa35dvzb3ria-fill" data-item-order="-264938" transform="translate(374, 182)"><g id="sy_3_cu_1qa35dvzb3ria-fill-merged" stroke="none" fill="#ac7358" fill-opacity="1"><g><path d="M10 166 H178 V10 H10 V166"></path></g></g></g><g id="g-root-sy_2_cu_1heg54zzb3saz-fill" data-item-order="-264934" transform="translate(206, 182)"><g id="sy_2_cu_1heg54zzb3saz-fill-merged" stroke="none" fill="#eecf00" fill-opacity="1"><g><path d="M10 166 H178 V10 H10 V166"></path></g></g></g><g id="g-root-sy_1_cu_1heg54zzb3sb0-fill" data-item-order="-264930" transform="translate(38, 182)"><g id="sy_1_cu_1heg54zzb3sb0-fill-merged" stroke="none" fill="#64822a" fill-opacity="1"><g><path d="M10 166 H178 V10 H10 V166"></path></g></g></g><g id="g-root-ic_3_1hhkikjzb3thf-fill" data-item-order="-2304" transform="translate(266, 62)"><g id="ic_3_1hhkikjzb3thf-fill-merged" stroke="none" fill="#bfaf41" fill-opacity="1"><g><path d="M28 24.36C28.722 24.36 29.372 23.924 29.646 23.256C29.921 22.589 29.765 21.822 29.251 21.314C28.738 20.807 27.969 20.659 27.305 20.941C26.64 21.223 26.212 21.878 26.22 22.6C26.231 23.575 27.025 24.36 28 24.36 M16.88 15C16.88 17.209 18.671 19 20.88 19C23.089 19 24.88 17.209 24.88 15C24.88 12.791 23.089 11 20.88 11C18.671 11 16.88 12.791 16.88 15 M34 10C32.36 9.996 30.725 10.164 29.12 10.5C28.037 10.721 27.339 11.777 27.56 12.86C27.665 13.397 27.985 13.868 28.446 14.163C28.907 14.458 29.469 14.55 30 14.42C31.315 14.143 32.656 14.002 34 14C42.063 13.977 49.352 18.798 52.485 26.228C55.619 33.657 53.984 42.242 48.34 48C46.7 47.72 45.02 47.3 43.32 46.84C44.175 45.012 44.534 42.991 44.36 40.98C46.704 39.627 48.169 37.146 48.22 34.44C48.22 33.335 47.325 32.44 46.22 32.44C45.115 32.44 44.22 33.335 44.22 34.44C44.202 35.216 43.967 35.971 43.54 36.62C43.22 35.42 42.84 34.26 42.48 33.12L42.12 31.92C44.511 30.67 46.069 28.254 46.22 25.56C46.313 24.469 45.51 23.506 44.42 23.4C43.889 23.35 43.36 23.514 42.951 23.856C42.542 24.198 42.286 24.689 42.24 25.22C42.18 26.202 41.76 27.128 41.06 27.82C40.764 26.551 40.848 25.222 41.3 24C41.674 23.004 41.203 21.89 40.229 21.464C39.254 21.038 38.117 21.449 37.64 22.4C36.909 24.242 36.722 26.255 37.1 28.2C36.446 27.8 35.962 27.174 35.74 26.44C35.282 25.566 34.255 25.158 33.321 25.477C32.388 25.796 31.827 26.749 32 27.72C32.893 30.436 35.347 32.336 38.2 32.52C38.36 33.06 38.54 33.58 38.7 34.1C39.1 35.36 39.5 36.6 39.8 37.8C38.845 37.503 38.097 36.755 37.8 35.8C37.38 34.778 36.212 34.291 35.19 34.71C34.169 35.13 33.681 36.298 34.1 37.32C35.061 40.001 37.536 41.845 40.38 42C40.403 43.17 40.128 44.326 39.58 45.36C39.518 45.497 39.465 45.637 39.42 45.78C36.093 44.753 32.655 44.129 29.18 43.92C29.197 42.502 29.057 41.087 28.76 39.7C30.88 38.327 32.195 36.004 32.28 33.48C32.313 32.949 32.133 32.427 31.78 32.03C31.427 31.632 30.931 31.391 30.4 31.36C29.302 31.291 28.355 32.122 28.28 33.22C28.249 34.084 27.948 34.916 27.42 35.6L27.12 34.88C26.443 33.657 26.098 32.278 26.12 30.88C26.212 30.343 26.08 29.791 25.755 29.353C25.43 28.915 24.941 28.629 24.4 28.56C23.307 28.418 22.305 29.187 22.16 30.28C22.016 32.36 22.459 34.44 23.44 36.28C23.435 36.367 23.435 36.453 23.44 36.54C22.624 36.189 21.997 35.504 21.72 34.66C21.481 33.965 20.88 33.456 20.155 33.336C19.43 33.216 18.697 33.504 18.247 34.085C17.797 34.666 17.702 35.448 18 36.12C19.013 38.895 21.646 40.746 24.6 40.76 H24.82C25.005 41.763 25.092 42.781 25.08 43.8C25.08 43.8 25.08 43.94 25.08 44.02C22.691 44.403 20.396 45.237 18.32 46.48C13.008 39.901 12.408 30.693 16.82 23.48C17.378 22.589 17.151 21.418 16.3 20.8C15.849 20.518 15.305 20.427 14.787 20.547C14.269 20.667 13.821 20.988 13.54 21.44C7.824 30.747 9.113 42.74 16.677 50.62C24.24 58.499 36.171 60.278 45.704 54.948C55.237 49.617 59.969 38.522 57.217 27.952C54.464 17.382 44.922 10.004 34 10"></path></g></g></g><g id="g-root-ic_tree_1upa6f7zbatj9-fill" data-item-order="-2304" transform="translate(98, 194)"><g id="ic_tree_1upa6f7zbatj9-fill-merged" stroke="none" fill="#ffffff" fill-opacity="1"><g><path d="M23.24 11.68C22.942 10.692 22.032 10.017 21 10.017C19.968 10.017 19.058 10.692 18.76 11.68L10.14 41.36C9.827 42.455 10.045 43.633 10.728 44.544C11.411 45.455 12.481 45.994 13.62 46 H18C18.552 46 19 46.448 19 47 V56C19 57.105 19.895 58 21 58C22.105 58 23 57.105 23 56 V47C23 46.448 23.448 46 24 46 H28.38C29.519 45.994 30.589 45.455 31.272 44.544C31.955 43.633 32.173 42.455 31.86 41.36L23.24 11.68 M45 16C38.36 15.998 32.786 21.001 32.072 27.602C31.358 34.203 35.733 40.282 42.22 41.7C42.682 41.796 43.01 42.208 43 42.68 V56C43 57.105 43.895 58 45 58C46.105 58 47 57.105 47 56 V42.68C46.99 42.208 47.318 41.796 47.78 41.7C54.267 40.282 58.642 34.203 57.928 27.602C57.214 21.001 51.64 15.998 45 16"></path></g></g></g><g id="g-root-ic_open_1cymn0jzbc6wx-fill" data-item-order="-2304" transform="translate(266, 194)"><g id="ic_open_1cymn0jzbc6wx-fill-merged" stroke="none" fill="#ffffff" fill-opacity="1"><g><path d="M56.78 22.76C56.779 22.216 56.479 21.717 56 21.46L36.56 10.2C36.468 10.181 36.372 10.181 36.28 10.2C36.195 10.122 36.101 10.055 36 10 H35.32L15.56 21.46C15.096 21.728 14.813 22.225 14.82 22.76 V29.18L34.3 18 V20.8L14.82 32 V37.62L34.3 26.36 V29.3L14.82 40.56 V45.24C14.82 45.478 14.882 45.713 15 45.92C15.126 46.147 15.313 46.334 15.54 46.46L35.02 57.7C35.243 57.835 35.499 57.905 35.76 57.9C36.027 57.902 36.289 57.833 36.52 57.7L41.82 54.64L22.38 43.48L24.88 42L44.36 53.24L49.72 50.16L30.24 38.9L32.74 37.46L52.22 48.7L56 46.56C56.155 46.465 56.285 46.335 56.38 46.18L56.48 45.9C56.49 45.8 56.49 45.7 56.48 45.6C56.489 45.567 56.489 45.533 56.48 45.5L56.78 22.76 M43.8 36.88 V17.84L47.3 19.84 V38.88L43.8 36.88 M40.8 35.16L37.3 33.16 V14.1L40.8 16.1 V35.16 M53.78 42.66L50.3 40.66 V21.6L53.78 23.6 V42.66"></path></g></g></g><g id="g-root-ic_1_3d5hfzbgg0a-fill" data-item-order="-2304" transform="translate(434, 194)"><g id="ic_1_3d5hfzbgg0a-fill-merged" stroke="none" fill="#ffffff" fill-opacity="1"><g><path d="M38 37.46C39.105 37.46 40 36.565 40 35.46 V34 H44.8 V35.42C44.8 36.525 45.695 37.42 46.8 37.42C47.905 37.42 48.8 36.525 48.8 35.42 V12C48.8 10.895 47.905 10 46.8 10C45.695 10 44.8 10.895 44.8 12 V13.42 H40 V12C40 10.895 39.105 10 38 10C36.895 10 36 10.895 36 12 V35.46C36 36.565 36.895 37.46 38 37.46 M40 30 V25.74 H44.8 V30 H40 M44.8 17.4 V21.74 H40 V17.44 H44.8 M54.24 25.06C53.65 24.139 52.429 23.862 51.5 24.44C50.567 25.031 50.289 26.267 50.88 27.2C52.931 30.428 54.014 34.176 54 38 V54 H51.6 V40.14C51.6 39.035 50.705 38.14 49.6 38.14C48.495 38.14 47.6 39.035 47.6 40.14 V46.9 H42.82C41.955 46.901 41.188 47.457 40.92 48.28C40.506 48.653 40.267 49.183 40.26 49.74 V54 H36 V47.52 H38.7C40.039 47.62 41.322 46.963 42.022 45.817C42.722 44.671 42.722 43.229 42.022 42.083C41.322 40.937 40.039 40.28 38.7 40.38 H29.24C27.901 40.28 26.618 40.937 25.918 42.083C25.218 43.229 25.218 44.671 25.918 45.817C26.618 46.963 27.901 47.62 29.24 47.52 H32 V54 H27.74 V49.74C27.733 49.183 27.494 48.653 27.08 48.28C26.812 47.457 26.045 46.901 25.18 46.9 H20.42 V40.14C20.42 39.035 19.525 38.14 18.42 38.14C17.315 38.14 16.42 39.035 16.42 40.14 V54 H14 V38C14.006 27.632 21.897 18.97 32.22 18C33.302 17.884 34.093 16.924 34 15.84C33.915 14.742 32.958 13.92 31.86 14C19.411 15.037 9.873 25.508 10 38 V56C10 57.105 10.895 58 12 58 H56C57.105 58 58 57.105 58 56 V38C58.023 33.414 56.717 28.92 54.24 25.06 M44.24 50.72 H47.56 V54 H44.26 V50.72 M20.4 50.72 H23.74 V54 H20.42 V50.72"></path></g></g></g><g id="g-root-ic_morn_detnurzbf092-fill" data-item-order="-2304" transform="translate(98, 350)"><g id="ic_morn_detnurzbf092-fill-merged" stroke="none" fill="#ffffff" fill-opacity="1"><g><path d="M26.5 34C26.5 38.142 29.858 41.5 34 41.5C38.142 41.5 41.5 38.142 41.5 34C41.5 29.858 38.142 26.5 34 26.5C29.858 26.5 26.5 29.858 26.5 34 M22.5 34C22.5 32.895 21.605 32 20.5 32 H12C10.895 32 10 32.895 10 34C10 35.105 10.895 36 12 36 H20.5C21.605 36 22.5 35.105 22.5 34 M23.58 26.42C24.364 27.204 25.636 27.204 26.42 26.42C27.204 25.636 27.204 24.364 26.42 23.58L23.42 20.58C22.636 19.796 21.364 19.796 20.58 20.58C19.796 21.364 19.796 22.636 20.58 23.42L23.58 26.42 M34 45.5C32.895 45.5 32 46.395 32 47.5 V56C32 57.105 32.895 58 34 58C35.105 58 36 57.105 36 56 V47.5C36 46.395 35.105 45.5 34 45.5 M23.58 41.58L20.58 44.58C19.796 45.364 19.796 46.636 20.58 47.42C21.364 48.204 22.636 48.204 23.42 47.42L26.42 44.42C27.204 43.636 27.204 42.364 26.42 41.58C25.636 40.796 24.364 40.796 23.58 41.58 M56 32 H47.5C46.395 32 45.5 32.895 45.5 34C45.5 35.105 46.395 36 47.5 36 H56C57.105 36 58 35.105 58 34C58 32.895 57.105 32 56 32 M44.42 41.58C43.636 40.796 42.364 40.796 41.58 41.58C40.796 42.364 40.796 43.636 41.58 44.42L44.58 47.42C45.364 48.204 46.636 48.204 47.42 47.42C48.204 46.636 48.204 45.364 47.42 44.58L44.42 41.58 M34 22.5C35.105 22.5 36 21.605 36 20.5 V12C36 10.895 35.105 10 34 10C32.895 10 32 10.895 32 12 V20.5C32 21.605 32.895 22.5 34 22.5 M44.42 26.42L47.42 23.42C48.204 22.636 48.204 21.364 47.42 20.58C46.636 19.796 45.364 19.796 44.58 20.58L41.58 23.58C40.796 24.364 40.796 25.636 41.58 26.42C42.364 27.204 43.636 27.204 44.42 26.42"></path></g></g></g><g id="g-root-ic_1_14147ibzbhsll-fill" data-item-order="-2304" transform="translate(266, 350)"><g id="ic_1_14147ibzbhsll-fill-merged" stroke="none" fill="#ffffff" fill-opacity="1"><g><path d="M34 10C22.954 10 14 18.954 14 30 V54C14 56.209 15.791 58 18 58 H50C52.209 58 54 56.209 54 54 V30C54 18.954 45.046 10 34 10 M32.5 25.88C32.497 26.083 32.372 26.264 32.184 26.338C31.995 26.413 31.781 26.366 31.64 26.22L24.14 18C24.042 17.906 23.987 17.776 23.987 17.64C23.987 17.504 24.042 17.374 24.14 17.28C26.427 15.54 29.144 14.454 32 14.14C32.139 14.117 32.28 14.162 32.38 14.26C32.493 14.354 32.559 14.493 32.56 14.64 V25.88 M35.5 14.64C35.501 14.493 35.567 14.354 35.68 14.26C35.766 14.179 35.882 14.135 36 14.14C38.843 14.488 41.539 15.601 43.8 17.36C43.898 17.454 43.953 17.584 43.953 17.72C43.953 17.856 43.898 17.986 43.8 18.08L36.36 26.22C36.219 26.366 36.005 26.413 35.816 26.338C35.628 26.264 35.503 26.083 35.5 25.88 V14.64 M21.28 20.28C21.363 20.139 21.5 20.037 21.66 20C21.809 19.998 21.953 20.055 22.06 20.16L30.26 29.08C30.366 29.245 30.366 29.455 30.26 29.62C30.24 29.781 30.143 29.923 30 30 H18.5C18.221 29.989 18 29.76 18 29.48C18.108 26.146 19.254 22.93 21.28 20.28 M26 53C26 53.552 25.552 54 25 54 H19C18.448 54 18 53.552 18 53 V46C18 45.448 18.448 45 19 45 H25C25.552 45 26 45.448 26 46 V53 M26 41C26 41.552 25.552 42 25 42 H19C18.448 42 18 41.552 18 41 V34C18 33.448 18.448 33 19 33 H25C25.552 33 26 33.448 26 34 V41 M39 53C39 53.552 38.552 54 38 54 H30C29.448 54 29 53.552 29 53 V46C29 45.448 29.448 45 30 45 H38C38.552 45 39 45.448 39 46 V53 M39 41C39 41.552 38.552 42 38 42 H30C29.448 42 29 41.552 29 41 V34C29 33.448 29.448 33 30 33 H38C38.552 33 39 33.448 39 34 V41 M50 53C50 53.552 49.552 54 49 54 H43C42.448 54 42 53.552 42 53 V46C42 45.448 42.448 45 43 45 H49C49.552 45 50 45.448 50 46 V53 M50 41C50 41.552 49.552 42 49 42 H43C42.448 42 42 41.552 42 41 V34C42 33.448 42.448 33 43 33 H49C49.552 33 50 33.448 50 34 V41 M38.1 30C37.901 30.001 37.72 29.883 37.64 29.7C37.534 29.535 37.534 29.325 37.64 29.16L46 20.24C46.107 20.135 46.251 20.078 46.4 20.08C46.547 20.098 46.682 20.169 46.78 20.28C48.784 22.937 49.91 26.153 50 29.48C50 29.76 49.779 29.989 49.5 30 H38.1"></path></g></g></g><g id="g-root-ic_toy_qss5qbzb3qir-fill" data-item-order="-2304" transform="translate(434, 350)"><g id="ic_toy_qss5qbzb3qir-fill-merged" stroke="none" fill="#ffffff" fill-opacity="1"><g><path d="M50 24.24C49.546 24 49.354 23.45 49.56 22.98L50.44 20.98C50.921 19.774 50.787 18.409 50.08 17.32C49.438 16.415 48.449 15.817 47.35 15.669C46.25 15.521 45.138 15.836 44.28 16.54L38 22C37.635 22.322 37.166 22.499 36.68 22.5 H25C16.716 22.5 10 29.216 10 37.5C10 45.784 16.716 52.5 25 52.5 H43C49.891 52.494 55.891 47.795 57.548 41.107C59.204 34.418 56.091 27.461 50 24.24 M25 49.48C18.373 49.48 13 44.107 13 37.48C13 30.853 18.373 25.48 25 25.48C31.627 25.48 37 30.853 37 37.48C37 44.107 31.627 49.48 25 49.48 M45 44.48 H40.5C39.672 44.48 39 43.808 39 42.98C39 42.152 39.672 41.48 40.5 41.48 H45C45.828 41.48 46.5 42.152 46.5 42.98C46.5 43.808 45.828 44.48 45 44.48 M51 35.48 H43.5C42.672 35.48 42 34.808 42 33.98C42 33.152 42.672 32.48 43.5 32.48 H51C51.828 32.48 52.5 33.152 52.5 33.98C52.5 34.808 51.828 35.48 51 35.48 M25 28.48C20.029 28.48 16 32.509 16 37.48C16 42.451 20.029 46.48 25 46.48C29.971 46.48 34 42.451 34 37.48C34 32.509 29.971 28.48 25 28.48 M25 43.48C21.686 43.48 19 40.794 19 37.48C19 34.166 21.686 31.48 25 31.48C28.314 31.48 31 34.166 31 37.48C31 40.794 28.314 43.48 25 43.48 M22 37.48C22 39.137 23.343 40.48 25 40.48C26.657 40.48 28 39.137 28 37.48C28 35.823 26.657 34.48 25 34.48C23.343 34.48 22 35.823 22 37.48"></path></g></g></g><g id="g-root-tx_biophili_6hm2rzb3qiu-fill" data-item-order="0" transform="translate(200, 134)"><g id="tx_biophili_6hm2rzb3qiu-fill-merged" stroke="none" fill="#bfaf41" fill-opacity="1"><g><text style="font: bold 20px Montserrat, sans-serif; white-space: pre;" transform="translate(100, 22)" font-weight="bold" font-size="20px" font-family="Montserrat, sans-serif"><tspan x="-85.59" y="12" dominant-baseline="ideographic">Biophilic Design</tspan></text></g></g></g><g id="g-root-tx_organicb_1heg54zzb3sb1-fill" data-item-order="0" transform="translate(74, 260)"><g id="tx_organicb_1heg54zzb3sb1-fill-merged" stroke="none" fill="#ffffff" fill-opacity="1"><g><text style="font: 15px Montserrat, sans-serif; white-space: pre;" transform="translate(58, 40)" font-size="15px" font-family="Montserrat, sans-serif"><tspan x="-32.05" y="-9" dominant-baseline="ideographic">Organic </tspan><tspan x="-41.28" y="9" dominant-baseline="ideographic">Branching </tspan><tspan x="-33.73" y="27" dominant-baseline="ideographic">Patterns</tspan></text></g></g></g><g id="g-root-tx_hexagona_91i22rzb3rie-fill" data-item-order="0" transform="translate(242, 260)"><g id="tx_hexagona_91i22rzb3rie-fill-merged" stroke="none" fill="#ffffff" fill-opacity="1"><g><text style="font: 15px Montserrat, sans-serif; white-space: pre;" transform="translate(58, 40)" font-size="15px" font-family="Montserrat, sans-serif"><tspan x="-40.89" y="-9" dominant-baseline="ideographic">Hexagonal </tspan><tspan x="-32.67" y="9" dominant-baseline="ideographic">Wooden </tspan><tspan x="-43.49" y="27" dominant-baseline="ideographic">Framework</tspan></text></g></g></g><g id="g-root-tx_elevated_qu10qrzb3rbc-fill" data-item-order="0" transform="translate(404, 254)"><g id="tx_elevated_qu10qrzb3rbc-fill-merged" stroke="none" fill="#ffffff" fill-opacity="1"><g><text style="font: 15px Montserrat, sans-serif; white-space: pre;" transform="translate(64, 46)" font-size="15px" font-family="Montserrat, sans-serif"><tspan x="-50.7" y="-0" dominant-baseline="ideographic">Elevated Pod </tspan><tspan x="-30.03" y="18" dominant-baseline="ideographic">Seating</tspan></text></g></g></g><g id="g-root-tx_softnatu_18kok5fzb3s3z-fill" data-item-order="0" transform="translate(68, 410)"><g id="tx_softnatu_18kok5fzb3s3z-fill-merged" stroke="none" fill="#ffffff" fill-opacity="1"><g><text style="font: 15px Montserrat, sans-serif; white-space: pre;" transform="translate(64, 34)" font-size="15px" font-family="Montserrat, sans-serif"><tspan x="-46.59" y="-0" dominant-baseline="ideographic">Soft Natural </tspan><tspan x="-33.89" y="18" dominant-baseline="ideographic">Lighting</tspan></text></g></g></g><g id="g-root-tx_largegla_93dhc3zb3qip-fill" data-item-order="0" transform="translate(242, 410)"><g id="tx_largegla_93dhc3zb3qip-fill-merged" stroke="none" fill="#ffffff" fill-opacity="1"><g><text style="font: 15px Montserrat, sans-serif; white-space: pre;" transform="translate(58, 34)" font-size="15px" font-family="Montserrat, sans-serif"><tspan x="-44.92" y="-0" dominant-baseline="ideographic">Large Glass </tspan><tspan x="-37.15" y="18" dominant-baseline="ideographic">Windows</tspan></text></g></g></g><g id="g-root-tx_warmwood_1ut10xvzb3rwi-fill" data-item-order="0" transform="translate(392, 398)"><g id="tx_warmwood_1ut10xvzb3rwi-fill-merged" stroke="none" fill="#ffffff" fill-opacity="1"><g><text style="font: 15px Montserrat, sans-serif; white-space: pre;" transform="translate(76, 46)" font-size="15px" font-family="Montserrat, sans-serif"><tspan x="-59.2" y="-0" dominant-baseline="ideographic">Warm Wooden </tspan><tspan x="-33.48" y="18" dominant-baseline="ideographic">Textures</tspan></text></g></g></g><g id="g-root-sy_-1_cu-1_3zmkjzb3tam-stroke" data-item-order="-264954" transform="translate(14, 38)"><g id="sy_-1_cu-1_3zmkjzb3tam-stroke" fill="none" stroke-linecap="round" stroke-linejoin="round" stroke-miterlimit="4" stroke="#ffffff" stroke-width="2" stroke-opacity="1"><g><path d="M 286 10L 562 130L 550 154L 22 154L 10 130L 286 10ZM 562 490L 10 490L 22 466L 550 466L 562 490Z"></path></g></g></g><g id="g-root-sy_6_cu_1upwnibzb3qpz-stroke" data-item-order="-264950" transform="translate(374, 338)"><g id="sy_6_cu_1upwnibzb3qpz-stroke" fill="none" stroke-linecap="round" stroke-linejoin="round" stroke-miterlimit="4" stroke="#ffffff" stroke-width="2" stroke-opacity="1"><g><path d="M 10 10L 178 10L 178 166L 10 166L 10 10Z"></path></g></g></g><g id="g-root-sy_5_cu_1upwnibzb3qq0-stroke" data-item-order="-264946" transform="translate(206, 338)"><g id="sy_5_cu_1upwnibzb3qq0-stroke" fill="none" stroke-linecap="round" stroke-linejoin="round" stroke-miterlimit="4" stroke="#ffffff" stroke-width="2" stroke-opacity="1"><g><path d="M 10 10L 178 10L 178 166L 10 166L 10 10Z"></path></g></g></g><g id="g-root-sy_4_cu_1qa35dvzb3ri9-stroke" data-item-order="-264942" transform="translate(38, 338)"><g id="sy_4_cu_1qa35dvzb3ri9-stroke" fill="none" stroke-linecap="round" stroke-linejoin="round" stroke-miterlimit="4" stroke="#ffffff" stroke-width="2" stroke-opacity="1"><g><path d="M 10 10L 178 10L 178 166L 10 166L 10 10Z"></path></g></g></g><g id="g-root-sy_3_cu_1qa35dvzb3ria-stroke" data-item-order="-264938" transform="translate(374, 182)"><g id="sy_3_cu_1qa35dvzb3ria-stroke" fill="none" stroke-linecap="round" stroke-linejoin="round" stroke-miterlimit="4" stroke="#ffffff" stroke-width="2" stroke-opacity="1"><g><path d="M 10 10L 178 10L 178 166L 10 166L 10 10Z"></path></g></g></g><g id="g-root-sy_2_cu_1heg54zzb3saz-stroke" data-item-order="-264934" transform="translate(206, 182)"><g id="sy_2_cu_1heg54zzb3saz-stroke" fill="none" stroke-linecap="round" stroke-linejoin="round" stroke-miterlimit="4" stroke="#ffffff" stroke-width="2" stroke-opacity="1"><g><path d="M 10 10L 178 10L 178 166L 10 166L 10 10Z"></path></g></g></g><g id="g-root-sy_1_cu_1heg54zzb3sb0-stroke" data-item-order="-264930" transform="translate(38, 182)"><g id="sy_1_cu_1heg54zzb3sb0-stroke" fill="none" stroke-linecap="round" stroke-linejoin="round" stroke-miterlimit="4" stroke="#ffffff" stroke-width="2" stroke-opacity="1"><g><path d="M 10 10L 178 10L 178 166L 10 166L 10 10Z"></path></g></g></g><g id="g-root-ic_3_1hhkikjzb3thf-stroke" data-item-order="-2304" transform="translate(266, 62)"></g><g id="g-root-ic_tree_1upa6f7zbatj9-stroke" data-item-order="-2304" transform="translate(98, 194)"></g><g id="g-root-ic_open_1cymn0jzbc6wx-stroke" data-item-order="-2304" transform="translate(266, 194)"></g><g id="g-root-ic_1_3d5hfzbgg0a-stroke" data-item-order="-2304" transform="translate(434, 194)"></g><g id="g-root-ic_morn_detnurzbf092-stroke" data-item-order="-2304" transform="translate(98, 350)"></g><g id="g-root-ic_1_14147ibzbhsll-stroke" data-item-order="-2304" transform="translate(266, 350)"></g><g id="g-root-ic_toy_qss5qbzb3qir-stroke" data-item-order="-2304" transform="translate(434, 350)"></g><g id="g-root-tx_biophili_6hm2rzb3qiu-stroke" data-item-order="0" transform="translate(200, 134)"></g><g id="g-root-tx_organicb_1heg54zzb3sb1-stroke" data-item-order="0" transform="translate(74, 260)"></g><g id="g-root-tx_hexagona_91i22rzb3rie-stroke" data-item-order="0" transform="translate(242, 260)"></g><g id="g-root-tx_elevated_qu10qrzb3rbc-stroke" data-item-order="0" transform="translate(404, 254)"></g><g id="g-root-tx_softnatu_18kok5fzb3s3z-stroke" data-item-order="0" transform="translate(68, 410)"></g><g id="g-root-tx_largegla_93dhc3zb3qip-stroke" data-item-order="0" transform="translate(242, 410)"></g><g id="g-root-tx_warmwood_1ut10xvzb3rwi-stroke" data-item-order="0" transform="translate(392, 398)"></g></g></g></svg>