<?xml version="1.0" encoding="utf-8" standalone="yes"?>
<!DOCTYPE svg PUBLIC "-//W3C//DTD SVG 1.1//EN" "http://www.w3.org/Graphics/SVG/1.1/DTD/svg11.dtd">
<svg style="fill:none;stroke:none;fill-rule:evenodd;clip-rule:evenodd;stroke-linecap:round;stroke-linejoin:round;stroke-miterlimit:1.5;" version="1.1" xmlns="http://www.w3.org/2000/svg" xmlns:xlink="http://www.w3.org/1999/xlink" width="732" height="480" viewBox="0 0 732 480"><style class="text-font-style fontImports" data-font-family="Montserrat">@import url(https://fonts.googleapis.com/css2?family=Montserrat:wght@400;700&amp;amp;display=block);</style><g id="items" style="isolation: isolate"><g id="blend" style="mix-blend-mode: normal"><g id="g-root-sy_3_cu_qp2402n3pury-fill" data-item-order="-92154" transform="translate(362, 182)"><g id="sy_3_cu_qp2402n3pury-fill-merged" stroke="none" fill="#ffee7c" fill-opacity="1"><g><path d="M10 226.009C39.147 204.116 58 169.26 58 130C58 90.74 39.147 55.884 10 33.991C30.056 18.927 54.985 10 82 10C148.274 10 202 63.726 202 130C202 196.274 148.274 250 82 250C54.985 250 30.056 241.073 10 226.009"></path></g></g></g><g id="g-root-sy_1_cu_qp2402n3purz-fill" data-item-order="-92150" transform="translate(170, 182)"><g id="sy_1_cu_qp2402n3purz-fill-merged" stroke="none" fill="#ffee7c" fill-opacity="1"><g><path d="M202 33.991C172.853 55.884 154 90.74 154 130C154 169.26 172.853 204.116 202 226.009C181.944 241.073 157.015 250 130 250C63.726 250 10 196.274 10 130C10 63.726 63.726 10 130 10C157.015 10 181.944 18.927 202 33.991"></path></g></g></g><g id="g-root-sy_2_cu_m98lvmn3pvk8-fill" data-item-order="-92146" transform="translate(314, 206)"><g id="sy_2_cu_m98lvmn3pvk8-fill-merged" stroke="none" fill="#ffde00" fill-opacity="1"><g><path d="M58 202.018C87.147 180.125 106 145.268 106 106.009C106 66.749 87.147 31.893 58 10C28.853 31.893 10 66.749 10 106.009C10 145.268 28.853 180.125 58 202.018"></path></g></g></g><g id="g-root-ic_brea_94nbgin3r8y6-fill" data-item-order="-2304" transform="translate(230, 278)"><g id="ic_brea_94nbgin3r8y6-fill-merged" stroke="none" fill="#ffffff" fill-opacity="1"><g><path d="M15.48 27.084L16.78 14.728 H25.38L26.68 27.084 H15.482 M16.284 10.728C15.412 10.728 14.598 11.118 14.022 11.622C13.307 12.234 12.876 13.114 12.832 14.054L11.272 28.866L10.514 36.072C10.152 40.048 11.964 43.656 15.174 45.796 H15.254C16.445 46.558 17.758 47.042 19.126 47.274 V53.274 H16.9C15.795 53.274 14.9 54.169 14.9 55.274C14.9 56.379 15.795 57.274 16.9 57.274 H25.352C26.457 57.274 27.352 56.379 27.352 55.274C27.352 54.169 26.457 53.274 25.352 53.274 H23.124 V47.258C23.454 47.198 23.782 47.126 24.104 47.038L21.36 45.6C19.892 44.832 19.325 43.02 20.092 41.552L30.192 22.24L29.33 14.056C29.314 13.178 28.961 12.34 28.346 11.714C27.688 11.069 26.799 10.714 25.878 10.728 H16.28 M31.036 27.102L33.532 22.328 H33.598L38.128 24.836C38.855 25.233 39.767 24.965 40.163 24.237C40.56 23.51 40.292 22.598 39.564 22.202L35.034 19.732C34.997 19.712 34.959 19.693 34.92 19.676L36.618 16.43C37.13 15.451 38.339 15.073 39.318 15.586L54.932 23.752C55.912 24.264 56.29 25.473 55.778 26.452L54.006 29.838C53.99 29.828 53.974 29.819 53.958 29.81L44.896 25.074C44.161 24.69 43.255 24.974 42.871 25.709C42.487 26.444 42.771 27.35 43.506 27.734L52.566 32.468C52.583 32.477 52.6 32.486 52.618 32.494L50.252 37.018L45.284 34.534C44.543 34.163 43.642 34.464 43.271 35.205C42.9 35.946 43.201 36.847 43.942 37.218L48.862 39.678L46.366 44.448L36.038 39.076C35.303 38.694 34.397 38.98 34.015 39.715C33.632 40.45 33.919 41.356 34.654 41.738L44.95 47.092L42.84 51.192C42.328 52.172 41.119 52.55 40.14 52.038L24.524 43.87C23.544 43.358 23.166 42.149 23.678 41.17L25.892 36.938 H25.994L29.494 38.85C30.226 39.237 31.134 38.958 31.522 38.226C31.909 37.494 31.63 36.586 30.898 36.198L27.398 34.344C27.359 34.324 27.319 34.305 27.278 34.288L29.648 29.758C29.672 29.772 29.696 29.785 29.72 29.798L38.576 34.328C39.055 34.587 39.636 34.567 40.096 34.275C40.555 33.983 40.82 33.465 40.788 32.921C40.756 32.378 40.432 31.894 39.942 31.658L31.086 27.128C31.069 27.119 31.053 27.11 31.036 27.102"></path></g></g></g><g id="g-root-ic_drin_18mkvcyn3puro-fill" data-item-order="-2304" transform="translate(338, 278)"><g id="ic_drin_18mkvcyn3puro-fill-merged" stroke="none" fill="#ffffff" fill-opacity="1"><g><path d="M18.16 34.44C18.129 34.188 17.914 33.998 17.66 34 H15C14.448 34 14 33.552 14 33 V15C14 14.448 14.448 14 15 14 H49C49.552 14 50 14.448 50 15 V27C49.998 27.168 50.081 27.326 50.22 27.42C50.362 27.502 50.538 27.502 50.68 27.42C51.594 27.073 52.563 26.897 53.54 26.9C53.76 26.905 53.952 26.754 54 26.54 V14C54 11.791 52.209 10 50 10 H14C11.791 10 10 11.791 10 14 V34C10 36.209 11.791 38 14 38 H18C18.143 37.999 18.279 37.941 18.38 37.84C18.459 37.721 18.5 37.582 18.5 37.44L18.16 34.44 M36 24.5C36 27.261 38.239 29.5 41 29.5C43.761 29.5 46 27.261 46 24.5C46 21.739 43.761 19.5 41 19.5C38.239 19.5 36 21.739 36 24.5 M21.18 53.6C20.13 54.241 19.748 55.58 20.303 56.678C20.857 57.776 22.161 58.264 23.3 57.8L28.54 54.5C28.71 54.395 28.798 54.196 28.76 54L27.32 49.66C27.266 49.504 27.139 49.384 26.98 49.34C26.834 49.271 26.666 49.271 26.52 49.34L21.18 53.6 M44.92 34.22C45.031 33.992 44.954 33.717 44.74 33.58C43.08 32.522 41.052 32.21 39.15 32.719C37.249 33.229 35.649 34.514 34.74 36.26C34.653 36.418 34.658 36.611 34.754 36.764C34.849 36.918 35.02 37.008 35.2 37 H43.2C43.389 37.001 43.561 36.892 43.64 36.72L44.92 34.22 M28.56 44C28.803 44 29 44.197 29 44.44C29.003 44.915 29.077 45.387 29.22 45.84L33.06 57.32C33.196 57.724 33.574 57.997 34 58 H50C50.439 58.003 50.828 57.719 50.96 57.3L57.8 35.82C57.927 35.378 57.994 34.92 58 34.46C58 31.997 56.003 30 53.54 30C51.606 29.991 49.836 31.086 48.98 32.82L45.52 39.72C45.441 39.892 45.269 40.001 45.08 40 H27.08L28 33.12C28.023 32.839 27.937 32.56 27.76 32.34C27.565 32.126 27.29 32.003 27 32 H26.44C26.283 31.997 26.136 31.924 26.04 31.8C25.972 31.668 25.972 31.512 26.04 31.38C26.158 30.912 26.578 30.583 27.06 30.58 H29.06C29.888 30.58 30.56 29.908 30.56 29.08C30.56 28.252 29.888 27.58 29.06 27.58 H27.06C25.165 27.529 23.495 28.815 23.06 30.66L22.8 31.7C22.739 31.917 22.546 32.071 22.32 32.08 H21C20.71 32.083 20.435 32.206 20.24 32.42C20.063 32.64 19.977 32.919 20 33.2L20.86 40 H20C19.608 40.003 19.225 40.121 18.9 40.34C18.341 40.708 18.003 41.331 18 42C18 43.105 18.895 44 20 44 H28.56"></path></g></g></g><g id="g-root-ic_lapt_mb414yn3pukk-fill" data-item-order="-2304" transform="translate(446, 278)"><g id="ic_lapt_mb414yn3pukk-fill-merged" stroke="none" fill="#ffffff" fill-opacity="1"><g><path d="M37 10C34.791 10 33 11.791 33 14 V23L30.874 27.78C30.461 28.708 30.546 29.783 31.099 30.635C31.653 31.487 32.6 32 33.616 32 H54.384C55.4 32 56.346 31.486 56.899 30.634C57.453 29.782 57.537 28.708 57.124 27.78L55 23 V14C55 11.791 53.209 10 51 10 H37 M37 14 H51 V21 H37 V14 M20 43 V41C20 38.239 17.761 36 15 36C12.239 36 10 38.239 10 41 V48C10 51.314 12.686 54 16 54 V56C16 57.105 16.895 58 18 58C19.105 58 20 57.105 20 56 V54 H48 V56C48 57.105 48.895 58 50 58C51.105 58 52 57.105 52 56 V54C55.314 54 58 51.314 58 48 V41C58 38.239 55.761 36 53 36C50.239 36 48 38.239 48 41 V43 H20 M47.708 35 H35.5 V40 H45.062C45.31 38.016 46.282 36.26 47.708 35 M32.5 34.9C28.946 34.24 26.71 30.498 27.96 27 H22C18.338 27.001 15.144 29.487 14.244 33.036C18.548 32.626 22.4 35.71 22.94 40 H32.5 V34.9"></path></g></g></g><g id="g-root-tx_theheart_1cxeksin3pukj-fill" data-item-order="0" transform="translate(104, 38)"><g id="tx_theheart_1cxeksin3pukj-fill-merged" stroke="none" fill="#484848" fill-opacity="1"><g><text style="font: bold 25px Montserrat, sans-serif; white-space: pre;" transform="translate(268, 40)" font-weight="bold" font-size="25px" font-family="Montserrat, sans-serif"><tspan x="-250.35" y="0" dominant-baseline="ideographic">The Heart of Ithaca Commons: Where </tspan><tspan x="-186.35" y="30" dominant-baseline="ideographic">Wellness Meets Community</tspan></text></g></g></g><g id="g-root-tx_communit_hrjohun3sow0-fill" data-item-order="0" transform="translate(248, 128)"><g id="tx_communit_hrjohun3sow0-fill-merged" stroke="none" fill="#000000" fill-opacity="1"><g><text style="font: 20px Montserrat, sans-serif; white-space: pre;" transform="translate(124, 40)" font-size="20px" font-family="Montserrat, sans-serif"><tspan x="-109.35" y="-0" dominant-baseline="ideographic">Community Wellness </tspan><tspan x="-24.26" y="24" dominant-baseline="ideographic">Hub</tspan></text></g></g></g><g id="g-root-tx_kombucha_1uo2476n3pvd6-fill" data-item-order="0" transform="translate(26, 266)"><g id="tx_kombucha_1uo2476n3pvd6-fill-merged" stroke="none" fill="#484848" fill-opacity="1"><g><text style="font: 20px Montserrat, sans-serif; white-space: pre;" transform="translate(142, 46)" font-size="20px" font-family="Montserrat, sans-serif"><tspan x="-112.94" y="-12" dominant-baseline="ideographic">Kombucha </tspan><tspan x="-122.29" y="12" dominant-baseline="ideographic">Tea &amp; Pastry </tspan><tspan x="-94.52" y="36" dominant-baseline="ideographic">Offerings</tspan></text></g></g></g><g id="g-root-tx_relaxstu_htf3r6n3pwch-fill" data-item-order="0" transform="translate(566, 272)"><g id="tx_relaxstu_htf3r6n3pwch-fill-merged" stroke="none" fill="#484848" fill-opacity="1"><g><text style="font: 20px Montserrat, sans-serif; white-space: pre;" transform="translate(10, 40)" font-size="20px" font-family="Montserrat, sans-serif"><tspan x="2" y="-0" dominant-baseline="ideographic">Relax &amp; Study </tspan><tspan x="2" y="24" dominant-baseline="ideographic">Space</tspan></text></g></g></g><g id="g-root-sy_3_cu_qp2402n3pury-stroke" data-item-order="-92154" transform="translate(362, 182)"><g id="sy_3_cu_qp2402n3pury-stroke" fill="none" stroke-linecap="round" stroke-linejoin="round" stroke-miterlimit="4" stroke="#ffffff" stroke-width="2" stroke-opacity="1"><g><path d="M 10 226.009C 39.147 204.116 58 169.26 58 130C 58 90.74 39.147 55.884 10 33.991C 30.056 18.927 54.985 10 82 10C 148.274 10 202 63.726 202 130C 202 196.274 148.274 250 82 250C 54.985 250 30.056 241.073 10 226.009Z"></path></g></g></g><g id="g-root-sy_1_cu_qp2402n3purz-stroke" data-item-order="-92150" transform="translate(170, 182)"><g id="sy_1_cu_qp2402n3purz-stroke" fill="none" stroke-linecap="round" stroke-linejoin="round" stroke-miterlimit="4" stroke="#ffffff" stroke-width="2" stroke-opacity="1"><g><path d="M 202 33.991C 172.853 55.884 154 90.74 154 130C 154 169.26 172.853 204.116 202 226.009C 181.944 241.073 157.015 250 130 250C 63.726 250 10 196.274 10 130C 10 63.726 63.726 10 130 10C 157.015 10 181.944 18.927 202 33.991Z"></path></g></g></g><g id="g-root-sy_2_cu_m98lvmn3pvk8-stroke" data-item-order="-92146" transform="translate(314, 206)"><g id="sy_2_cu_m98lvmn3pvk8-stroke" fill="none" stroke-linecap="round" stroke-linejoin="round" stroke-miterlimit="4" stroke="#ffffff" stroke-width="2" stroke-opacity="1"><g><path d="M 58 202.018C 87.147 180.125 106 145.268 106 106.009C 106 66.749 87.147 31.893 58 10C 28.853 31.893 10 66.749 10 106.009C 10 145.268 28.853 180.125 58 202.018Z"></path></g></g></g><g id="g-root-ic_brea_94nbgin3r8y6-stroke" data-item-order="-2304" transform="translate(230, 278)"></g><g id="g-root-ic_drin_18mkvcyn3puro-stroke" data-item-order="-2304" transform="translate(338, 278)"></g><g id="g-root-ic_lapt_mb414yn3pukk-stroke" data-item-order="-2304" transform="translate(446, 278)"></g><g id="g-root-tx_theheart_1cxeksin3pukj-stroke" data-item-order="0" transform="translate(104, 38)"></g><g id="g-root-tx_communit_hrjohun3sow0-stroke" data-item-order="0" transform="translate(248, 128)"></g><g id="g-root-tx_kombucha_1uo2476n3pvd6-stroke" data-item-order="0" transform="translate(26, 266)"></g><g id="g-root-tx_relaxstu_htf3r6n3pwch-stroke" data-item-order="0" transform="translate(566, 272)"></g></g></g></svg>