<?xml version="1.0" encoding="utf-8" standalone="yes"?>
<!DOCTYPE svg PUBLIC "-//W3C//DTD SVG 1.1//EN" "http://www.w3.org/Graphics/SVG/1.1/DTD/svg11.dtd">
<svg style="fill:none;stroke:none;fill-rule:evenodd;clip-rule:evenodd;stroke-linecap:round;stroke-linejoin:round;stroke-miterlimit:1.5;" version="1.1" xmlns="http://www.w3.org/2000/svg" xmlns:xlink="http://www.w3.org/1999/xlink" width="858" height="516" viewBox="0 0 858 516"><style class="text-font-style fontImports" data-font-family="Roboto">@import url(https://fonts.googleapis.com/css2?family=Roboto:wght@400;700&amp;amp;display=block);</style><g id="items" style="isolation: isolate"><g id="blend" style="mix-blend-mode: normal"><g id="g-root-cp_0-connector_g-0-connector_hv9trfw989vr-fill" data-item-order="-320749" transform="translate(314, 278)"></g><g id="g-root-cp_0-circle_g-0-circle_dg2sq3w987i8-fill" data-item-order="-320746" transform="translate(332, 110)"><g id="cp_0-circle_g-0-circle_dg2sq3w987i8-fill-merged" stroke="none" fill="#666666" fill-opacity="1"><g><path d="M178 94C178 140.392 140.392 178 94 178C47.608 178 10 140.392 10 94C10 47.608 47.608 10 94 10C140.392 10 178 47.608 178 94"></path></g></g></g><g id="g-root-cp_1_g-1_dg2sq3w987i9-fill" data-item-order="-320740" transform="translate(224, 158)"><g id="cp_1_g-1_dg2sq3w987i9-fill-merged" stroke="none" fill="#de8431" fill-opacity="1"><g><path d="M322 20C322 14.477 326.477 10 332 10 H384C389.523 10 394 14.477 394 20 V72C394 77.523 389.523 82 384 82 H332C326.477 82 322 77.523 322 72 V20"></path></g></g><g id="cp_1_g-1_dg2sq3w987i9-fill-merged" stroke="none" fill="#de8431" fill-opacity="1"><g><path d="M10 20C10 14.477 14.477 10 20 10 H72C77.523 10 82 14.477 82 20 V72C82 77.523 77.523 82 72 82 H20C14.477 82 10 77.523 10 72 V20"></path></g></g></g><g id="g-root-ic_3_8ydvcbw99ngi-fill" data-item-order="-2304" transform="translate(236, 170)"><g id="ic_3_8ydvcbw99ngi-fill-merged" stroke="none" fill="#ffffff" fill-opacity="1"><g><path d="M28 24.36C28.722 24.36 29.372 23.924 29.646 23.256C29.921 22.589 29.765 21.822 29.251 21.314C28.738 20.807 27.969 20.659 27.305 20.941C26.64 21.223 26.212 21.878 26.22 22.6C26.231 23.575 27.025 24.36 28 24.36 M16.88 15C16.88 17.209 18.671 19 20.88 19C23.089 19 24.88 17.209 24.88 15C24.88 12.791 23.089 11 20.88 11C18.671 11 16.88 12.791 16.88 15 M34 10C32.36 9.996 30.725 10.164 29.12 10.5C28.037 10.721 27.339 11.777 27.56 12.86C27.665 13.397 27.985 13.868 28.446 14.163C28.907 14.458 29.469 14.55 30 14.42C31.315 14.143 32.656 14.002 34 14C42.063 13.977 49.352 18.798 52.485 26.228C55.619 33.657 53.984 42.242 48.34 48C46.7 47.72 45.02 47.3 43.32 46.84C44.175 45.012 44.534 42.991 44.36 40.98C46.704 39.627 48.169 37.146 48.22 34.44C48.22 33.335 47.325 32.44 46.22 32.44C45.115 32.44 44.22 33.335 44.22 34.44C44.202 35.216 43.967 35.971 43.54 36.62C43.22 35.42 42.84 34.26 42.48 33.12L42.12 31.92C44.511 30.67 46.069 28.254 46.22 25.56C46.313 24.469 45.51 23.506 44.42 23.4C43.889 23.35 43.36 23.514 42.951 23.856C42.542 24.198 42.286 24.689 42.24 25.22C42.18 26.202 41.76 27.128 41.06 27.82C40.764 26.551 40.848 25.222 41.3 24C41.674 23.004 41.203 21.89 40.229 21.464C39.254 21.038 38.117 21.449 37.64 22.4C36.909 24.242 36.722 26.255 37.1 28.2C36.446 27.8 35.962 27.174 35.74 26.44C35.282 25.566 34.255 25.158 33.321 25.477C32.388 25.796 31.827 26.749 32 27.72C32.893 30.436 35.347 32.336 38.2 32.52C38.36 33.06 38.54 33.58 38.7 34.1C39.1 35.36 39.5 36.6 39.8 37.8C38.845 37.503 38.097 36.755 37.8 35.8C37.38 34.778 36.212 34.291 35.19 34.71C34.169 35.13 33.681 36.298 34.1 37.32C35.061 40.001 37.536 41.845 40.38 42C40.403 43.17 40.128 44.326 39.58 45.36C39.518 45.497 39.465 45.637 39.42 45.78C36.093 44.753 32.655 44.129 29.18 43.92C29.197 42.502 29.057 41.087 28.76 39.7C30.88 38.327 32.195 36.004 32.28 33.48C32.313 32.949 32.133 32.427 31.78 32.03C31.427 31.632 30.931 31.391 30.4 31.36C29.302 31.291 28.355 32.122 28.28 33.22C28.249 34.084 27.948 34.916 27.42 35.6L27.12 34.88C26.443 33.657 26.098 32.278 26.12 30.88C26.212 30.343 26.08 29.791 25.755 29.353C25.43 28.915 24.941 28.629 24.4 28.56C23.307 28.418 22.305 29.187 22.16 30.28C22.016 32.36 22.459 34.44 23.44 36.28C23.435 36.367 23.435 36.453 23.44 36.54C22.624 36.189 21.997 35.504 21.72 34.66C21.481 33.965 20.88 33.456 20.155 33.336C19.43 33.216 18.697 33.504 18.247 34.085C17.797 34.666 17.702 35.448 18 36.12C19.013 38.895 21.646 40.746 24.6 40.76 H24.82C25.005 41.763 25.092 42.781 25.08 43.8C25.08 43.8 25.08 43.94 25.08 44.02C22.691 44.403 20.396 45.237 18.32 46.48C13.008 39.901 12.408 30.693 16.82 23.48C17.378 22.589 17.151 21.418 16.3 20.8C15.849 20.518 15.305 20.427 14.787 20.547C14.269 20.667 13.821 20.988 13.54 21.44C7.824 30.747 9.113 42.74 16.677 50.62C24.24 58.499 36.171 60.278 45.704 54.948C55.237 49.617 59.969 38.522 57.217 27.952C54.464 17.382 44.922 10.004 34 10"></path></g></g></g><g id="g-root-ic_1_4mb7qjw987ba-fill" data-item-order="-2304" transform="translate(548, 170)"><g id="ic_1_4mb7qjw987ba-fill-merged" stroke="none" fill="#ffffff" fill-opacity="1"><g><path d="M11 37 H23C23 37 24 37 24 38 V41C24 41 24 42 23 42 H11C11 42 10 42 10 41 V38C10 38 10 37 11 37 M27 53 H41C41 53 42 53 42 54 V57C42 57 42 58 41 58 H27C27 58 26 58 26 57 V54C26 54 26 53 27 53 M11 53 H22C22 53 23 53 23 54 V57C23 57 23 58 22 58 H11C11 58 10 58 10 57 V54C10 54 10 53 11 53 M46 53 H57C57 53 58 53 58 54 V57C58 57 58 58 57 58 H46C46 58 45 58 45 57 V54C45 54 45 53 46 53 M22 45 H31C31 45 32 45 32 46 V49C32 49 32 50 31 50 H22C22 50 21 50 21 49 V46C21 46 21 45 22 45 M46.6 48.2L42.6 45.2C42.424 45.075 42.215 45.005 42 45 H37C36.448 45 36 45.448 36 46 V49C36 49.552 36.448 50 37 50 H46C46.428 50.003 46.809 49.728 46.94 49.32C47.08 48.912 46.943 48.461 46.6 48.2 M11 45 H17C17 45 18 45 18 46 V49C18 49 18 50 17 50 H11C11 50 10 50 10 49 V46C10 46 10 45 11 45 M57.52 45.14C57.22 44.98 56.86 44.98 56.56 45.14L50.56 48.14C50.14 48.344 49.916 48.811 50.022 49.266C50.127 49.72 50.533 50.042 51 50.04 H57C57.552 50.04 58 49.592 58 49.04 V46C57.994 45.651 57.814 45.328 57.52 45.14 M21.12 26.96C21.968 27.23 22.851 27.371 23.74 27.38C24.955 27.425 26.148 27.051 27.12 26.32C27.363 26.123 27.578 25.894 27.76 25.64C27.934 25.423 28.007 25.141 27.962 24.866C27.916 24.592 27.755 24.349 27.52 24.2C25.645 22.803 23.426 21.939 21.1 21.7C20.552 21.679 20.12 21.228 20.12 20.68C20.107 20.409 20.212 20.146 20.408 19.959C20.603 19.771 20.87 19.677 21.14 19.7C24.962 20.138 28.506 21.916 31.14 24.72C32.001 25.596 32.489 26.772 32.5 28C32.482 31 31.682 33.943 30.18 36.54C29.996 36.826 29.68 36.999 29.34 37 H28C27.448 37 27 37.448 27 38 V41C27 41.552 27.448 42 28 42 H40C40.552 42 41 41.552 41 41 V38C41 37.448 40.552 37 40 37 H38.66C38.32 36.999 38.004 36.826 37.82 36.54C36.318 33.943 35.518 31 35.5 28C35.499 26.781 35.964 25.608 36.8 24.72C39.434 21.916 42.978 20.138 46.8 19.7C47.07 19.677 47.337 19.771 47.532 19.959C47.728 20.146 47.833 20.409 47.82 20.68C47.82 21.228 47.388 21.679 46.84 21.7C44.535 21.949 42.338 22.813 40.48 24.2C40.245 24.349 40.084 24.592 40.038 24.866C39.993 25.141 40.066 25.423 40.24 25.64C40.422 25.894 40.637 26.123 40.88 26.32C41.852 27.051 43.045 27.425 44.26 27.38C45.149 27.371 46.032 27.23 46.88 26.96C51.227 24.868 54.265 20.768 55 16C55.017 15.699 54.9 15.406 54.68 15.2C54.461 14.993 54.156 14.904 53.86 14.96C52.004 15.178 50.123 15.001 48.34 14.44C46.772 14.008 45.14 13.859 43.52 14C41.693 14.034 40.004 14.98 39.02 16.52C38.632 17.271 38.465 18.118 38.54 18.96C38.527 19.318 38.32 19.64 38 19.8C36.773 20.573 35.644 21.493 34.64 22.54C34.242 22.937 33.598 22.937 33.2 22.54C32.246 21.503 31.171 20.583 30 19.8C29.678 19.602 29.499 19.236 29.54 18.86C29.615 18.018 29.448 17.171 29.06 16.42C28.038 14.894 26.317 13.985 24.48 14C22.85 13.911 21.218 14.115 19.66 14.6C17.877 15.161 15.996 15.338 14.14 15.12C13.844 15.064 13.539 15.153 13.32 15.36C13.14 15.528 13.026 15.755 13 16C13.735 20.768 16.773 24.868 21.12 26.96"></path></g></g></g><g id="g-root-tx_ecologic_4kfsh7w988ay-fill" data-item-order="0" transform="translate(143, 38)"><g id="tx_ecologic_4kfsh7w988ay-fill-merged" stroke="none" fill="#484848" fill-opacity="1"><g><text style="font: bold 25px Roboto, sans-serif; white-space: pre;" transform="translate(286, 28)" font-weight="bold" font-size="25px" font-family="Roboto, sans-serif"><tspan x="-270.87" y="15" dominant-baseline="ideographic">Next Steps of Hyphae Nest with Living Materials</tspan></text></g></g></g><g id="g-root-tx_environm_1hjg4izw99oua-fill" data-item-order="0" transform="translate(56, 158)"><g id="tx_environm_1hjg4izw99oua-fill-merged" stroke="none" fill="#484848" fill-opacity="1"><g><text style="font: bold 20px Roboto, sans-serif; white-space: pre;" transform="translate(154, 34)" font-weight="bold" font-size="20px" font-family="Roboto, sans-serif"><tspan x="-131.51" y="-0" dominant-baseline="ideographic">Environmental </tspan><tspan x="-111.46" y="24" dominant-baseline="ideographic">Degradation</tspan></text></g></g></g><g id="g-root-tx_biotechn_1cz9asrw9883v-fill" data-item-order="0" transform="translate(332, 170)"><g id="tx_biotechn_1cz9asrw9883v-fill-merged" stroke="none" fill="#ffffff" fill-opacity="1"><g><text style="font: bold 20px Roboto, sans-serif; white-space: pre;" transform="translate(94, 34)" font-weight="bold" font-size="20px" font-family="Roboto, sans-serif"><tspan x="-76.69" y="-0" dominant-baseline="ideographic">Biotechnological </tspan><tspan x="-53.82" y="24" dominant-baseline="ideographic">Prototyping</tspan></text></g></g></g><g id="g-root-tx_ecologic_znssffw989os-fill" data-item-order="0" transform="translate(632, 158)"><g id="tx_ecologic_znssffw989os-fill-merged" stroke="none" fill="#484848" fill-opacity="1"><g><text style="font: bold 20px Roboto, sans-serif; white-space: pre;" transform="translate(10, 34)" font-weight="bold" font-size="20px" font-family="Roboto, sans-serif"><tspan x="2" y="-0" dominant-baseline="ideographic">Ecological </tspan><tspan x="2" y="24" dominant-baseline="ideographic">Restoration</tspan></text></g></g></g><g id="g-root-tx_ecosyste_vfu3w9b3es-fill" data-item-order="0" transform="translate(44, 218)"><g id="tx_ecosyste_vfu3w9b3es-fill-merged" stroke="none" fill="#484848" fill-opacity="1"><g><text style="font: 15px Roboto, sans-serif; white-space: pre;" transform="translate(166, 28)" font-size="15px" font-family="Roboto, sans-serif"><tspan x="-153.22" y="0" dominant-baseline="ideographic">Ecosystems are facing </tspan><tspan x="-77.67" y="18" dominant-baseline="ideographic">destruction</tspan></text></g></g></g><g id="g-root-tx_activepa_hx590rw988w5-fill" data-item-order="0" transform="translate(632, 218)"><g id="tx_activepa_hx590rw988w5-fill-merged" stroke="none" fill="#484848" fill-opacity="1"><g><text style="font: 15px Roboto, sans-serif; white-space: pre;" transform="translate(10, 28)" font-size="15px" font-family="Roboto, sans-serif"><tspan x="2" y="0" dominant-baseline="ideographic">Active participant in </tspan><tspan x="2" y="18" dominant-baseline="ideographic">restoration</tspan></text></g></g></g><g id="g-root-tx_collabor_zkoezvw9b0um-fill" data-item-order="0" transform="translate(230, 362)"><g id="tx_collabor_zkoezvw9b0um-fill-merged" stroke="none" fill="#484848" fill-opacity="1"><g><text style="font: 15px Roboto, sans-serif; white-space: pre;" transform="translate(94, 28)" font-size="15px" font-family="Roboto, sans-serif"><tspan x="-54.18" y="0" dominant-baseline="ideographic">Collaborate with </tspan><tspan x="-81.59" y="18" dominant-baseline="ideographic">environmental scientists</tspan></text></g></g></g><g id="g-root-tx_explorel_de7dgrw9b0u8-fill" data-item-order="0" transform="translate(434, 362)"><g id="tx_explorel_de7dgrw9b0u8-fill-merged" stroke="none" fill="#484848" fill-opacity="1"><g><text style="font: 15px Roboto, sans-serif; white-space: pre;" transform="translate(94, 28)" font-size="15px" font-family="Roboto, sans-serif"><tspan x="-79.02" y="0" dominant-baseline="ideographic">Explore living materials </tspan><tspan x="-35.95" y="18" dominant-baseline="ideographic">practically</tspan></text></g></g></g><g id="g-root-cp_0-connector_g-0-connector_hv9trfw989vr-stroke" data-item-order="-320749" transform="translate(314, 278)"><g id="cp_0-connector_g-0-connector_hv9trfw989vr-stroke" fill="none" stroke-linecap="round" stroke-linejoin="round" stroke-miterlimit="4" stroke="#484848" stroke-width="2" stroke-opacity="1"><g><path d="M 112 10L 112 58M 112 58L 214 58L 214 82M 112 58L 10 58L 10 82"></path></g></g></g><g id="g-root-cp_0-circle_g-0-circle_dg2sq3w987i8-stroke" data-item-order="-320746" transform="translate(332, 110)"><g id="cp_0-circle_g-0-circle_dg2sq3w987i8-stroke" fill="none" stroke-linecap="round" stroke-linejoin="round" stroke-miterlimit="4" stroke="#ffffff" stroke-width="2" stroke-opacity="1"><g><path d="M 178 94C 178 140.3919 140.3919 178 94 178C 47.6081 178 10 140.3919 10 94C 10 47.6081 47.6081 10 94 10C 140.3919 10 178 47.6081 178 94Z"></path></g></g></g><g id="g-root-cp_1_g-1_dg2sq3w987i9-stroke" data-item-order="-320740" transform="translate(224, 158)"><g id="cp_1_g-1_dg2sq3w987i9-stroke" fill="none" stroke-linecap="round" stroke-linejoin="round" stroke-miterlimit="4" stroke="#ffffff" stroke-width="2" stroke-opacity="1"><g><path d="M 322 20C 322 14.4772 326.4772 10 332 10L 384 10C 389.5228 10 394 14.4772 394 20L 394 72C 394 77.5228 389.5228 82 384 82L 332 82C 326.4772 82 322 77.5228 322 72L 322 20Z"></path></g></g><g id="cp_1_g-1_dg2sq3w987i9-stroke" fill="none" stroke-linecap="round" stroke-linejoin="round" stroke-miterlimit="4" stroke="#ffffff" stroke-width="2" stroke-opacity="1"><g><path d="M 10 20C 10 14.4772 14.4772 10 20 10L 72 10C 77.5228 10 82 14.4772 82 20L 82 72C 82 77.5228 77.5228 82 72 82L 20 82C 14.4772 82 10 77.5228 10 72L 10 20Z"></path></g></g></g><g id="g-root-ic_3_8ydvcbw99ngi-stroke" data-item-order="-2304" transform="translate(236, 170)"></g><g id="g-root-ic_1_4mb7qjw987ba-stroke" data-item-order="-2304" transform="translate(548, 170)"></g><g id="g-root-tx_ecologic_4kfsh7w988ay-stroke" data-item-order="0" transform="translate(143, 38)"></g><g id="g-root-tx_environm_1hjg4izw99oua-stroke" data-item-order="0" transform="translate(56, 158)"></g><g id="g-root-tx_biotechn_1cz9asrw9883v-stroke" data-item-order="0" transform="translate(332, 170)"></g><g id="g-root-tx_ecologic_znssffw989os-stroke" data-item-order="0" transform="translate(632, 158)"></g><g id="g-root-tx_ecosyste_vfu3w9b3es-stroke" data-item-order="0" transform="translate(44, 218)"></g><g id="g-root-tx_activepa_hx590rw988w5-stroke" data-item-order="0" transform="translate(632, 218)"></g><g id="g-root-tx_collabor_zkoezvw9b0um-stroke" data-item-order="0" transform="translate(230, 362)"></g><g id="g-root-tx_explorel_de7dgrw9b0u8-stroke" data-item-order="0" transform="translate(434, 362)"></g></g></g></svg>