<?xml version="1.0" encoding="utf-8" standalone="yes"?>
<!DOCTYPE svg PUBLIC "-//W3C//DTD SVG 1.1//EN" "http://www.w3.org/Graphics/SVG/1.1/DTD/svg11.dtd">
<svg style="fill:none;stroke:none;fill-rule:evenodd;clip-rule:evenodd;stroke-linecap:round;stroke-linejoin:round;stroke-miterlimit:1.5;" version="1.1" xmlns="http://www.w3.org/2000/svg" xmlns:xlink="http://www.w3.org/1999/xlink" width="642" height="744" viewBox="0 0 642 744"><style class="text-font-style fontImports" data-font-family="Roboto">@import url(https://fonts.googleapis.com/css2?family=Roboto:wght@400;700&amp;amp;display=block);</style><g id="items" style="isolation: isolate"><g id="blend" style="mix-blend-mode: normal"><g id="g-root-cp_1_shape-1_147zizfzbdm9w-fill" data-item-order="-384900" transform="translate(31.999969482421875, 115.81640625)"><g id="cp_1_shape-1_147zizfzbdm9w-fill-merged" stroke="none" fill="#3cc583" fill-opacity="1"><g><path d="M10 160.184C10 140.302 26.118 124.505 46 124.505 H172C213.07 124.505 238 94.374 238 55.034 V28.374 H233.32C232.54 28.374 232.05 27.524 232.44 26.844L243.163 10.632C243.559 10.033 244.439 10.034 244.833 10.635L255.48 26.844C255.88 27.525 255.39 28.375 254.6 28.375 H250 V292.184C250 312.066 233.882 328.184 214 328.184 H46C26.118 328.184 10 312.081 10 292.199 V160.184"></path></g></g></g><g id="g-root-cp_3_shape-3_vcciqjzbdn2l-fill" data-item-order="-384886" transform="translate(284.302734375, 116)"><g id="cp_3_shape-3_vcciqjzbdn2l-fill-merged" stroke="none" fill="#7f64ea" fill-opacity="1"><g><path d="M15.697 28.191 H11.017C10.237 28.191 9.747 27.341 10.137 26.661L20.86 10.448C21.256 9.849 22.136 9.851 22.53 10.451L33.177 26.661C33.577 27.341 33.087 28.191 32.297 28.191 H27.697 V292 H15.697 V28.191"></path></g></g></g><g id="g-root-cp_3_shape-3_1_qn5wbfzbez9i-fill" data-item-order="-384876" transform="translate(32, 398.00048828125)"><g id="cp_3_shape-3_1_qn5wbfzbez9i-fill-merged" stroke="none" fill="#7f64ea" fill-opacity="1"><g><path d="M214 64.321C244 64.321 268 46 268 10 H280 V100.305 H10C10 80.423 26.118 64.321 46 64.321 H214"></path></g></g></g><g id="g-root-cp_3_shape-3_2_hriw2jzbf027-fill" data-item-order="-384858" transform="translate(32, 488)"><g id="cp_3_shape-3_2_hriw2jzbf027-fill-merged" stroke="none" fill="#7f64ea" fill-opacity="1"><g><path d="M280 118.008C280 137.89 263.882 154.008 244 154.008 H46C26.118 154.008 10 137.906 10 118.023 V10 H280 V117.982"></path></g></g></g><g id="g-root-cp_2_shape-2_m7ce6zzbf01s-fill" data-item-order="-384832" transform="translate(344.3775634765625, 115.81640625)"><g id="cp_2_shape-2_m7ce6zzbf01s-fill-merged" stroke="none" fill="#1eabda" fill-opacity="1"><g><path d="M255.622 160.184C255.622 140.302 239.505 124.505 219.623 124.505 H93.622C52.552 124.505 27.622 94.374 27.622 55.034 V28.374 H32.302C33.082 28.374 33.572 27.524 33.182 26.844L22.459 10.632C22.063 10.033 21.184 10.034 20.79 10.635L10.142 26.844C9.742 27.525 10.232 28.375 11.022 28.375 H15.622 V292.184C15.622 312.066 31.74 328.184 51.622 328.184 H219.622C239.504 328.184 255.622 312.081 255.622 292.199 V160.184"></path></g></g></g><g id="g-root-cp_4_shape-4_dbpdy3zbf0uh-fill" data-item-order="-384818" transform="translate(314.382568359375, 116)"><g id="cp_4_shape-4_dbpdy3zbf0uh-fill-merged" stroke="none" fill="#92bd39" fill-opacity="1"><g><path d="M27.622 28.191 H32.302C33.082 28.191 33.572 27.341 33.182 26.661L22.459 10.448C22.063 9.849 21.184 9.851 20.789 10.451L10.142 26.661C9.742 27.341 10.232 28.191 11.022 28.191 H15.622 V292 H27.623 V28.191"></path></g></g></g><g id="g-root-cp_4_shape-4_1_8vvvtnzbf1mq-fill" data-item-order="-384808" transform="translate(320, 398.00048828125)"><g id="cp_4_shape-4_1_8vvvtnzbf1mq-fill-merged" stroke="none" fill="#92bd39" fill-opacity="1"><g><path d="M76 64.321C46 64.321 22 46 22 10 H10 V100.305 H280C280 80.423 263.882 64.321 244 64.321 H76"></path></g></g></g><g id="g-root-cp_4_shape-4_2_8vvvtnzbf1mr-fill" data-item-order="-384790" transform="translate(320, 488)"><g id="cp_4_shape-4_2_8vvvtnzbf1mr-fill-merged" stroke="none" fill="#92bd39" fill-opacity="1"><g><path d="M10 142C10 161.882 26.118 178 46 178 H244C263.882 178 280 161.898 280 142.016 V10 H10 V142"></path></g></g></g><g id="g-root-ic_2_ddkt7fzbezuv-fill" data-item-order="-2304" transform="translate(128, 254)"><g id="ic_2_ddkt7fzbezuv-fill-merged" stroke="none" fill="#ffffff" fill-opacity="1"><g><path d="M34.1 11.2C31.339 11.2 29.1 13.439 29.1 16.2C29.1 18.961 31.339 21.2 34.1 21.2C36.861 21.2 39.1 18.961 39.1 16.2C39.1 13.439 36.861 11.2 34.1 11.2 M52.5 46.8C49.739 46.8 47.5 49.039 47.5 51.8C47.5 54.561 49.739 56.8 52.5 56.8C55.261 56.8 57.5 54.561 57.5 51.8C57.5 49.039 55.261 46.8 52.5 46.8 M15.5 46.8C12.739 46.8 10.5 49.039 10.5 51.8C10.5 54.561 12.739 56.8 15.5 56.8C18.261 56.8 20.5 54.561 20.5 51.8C20.5 49.039 18.261 46.8 15.5 46.8 M40.208 21.668C40.944 20.844 42.208 20.772 43.032 21.508C48.966 26.808 52.85 33.668 53.494 42.048C53.558 42.765 53.231 43.461 52.638 43.871C52.045 44.28 51.278 44.338 50.63 44.025C49.982 43.711 49.553 43.073 49.506 42.354C48.95 35.132 45.634 29.194 40.368 24.492C39.544 23.756 39.472 22.492 40.208 21.668 M27.632 24.492C28.456 23.756 28.527 22.492 27.792 21.668C27.056 20.844 25.792 20.772 24.968 21.508C19.034 26.808 15.15 33.668 14.506 42.048C14.435 43.141 15.257 44.088 16.349 44.172C17.441 44.255 18.397 43.445 18.494 42.354C19.05 35.132 22.366 29.194 27.632 24.492 M23.252 52.836C23.674 51.816 24.843 51.33 25.864 51.752C31.2 53.96 36.646 54.138 42.326 51.756C43.341 51.344 44.498 51.826 44.922 52.835C45.346 53.845 44.879 55.008 43.874 55.444C37.154 58.264 30.598 58.04 24.334 55.448C23.314 55.025 22.83 53.856 23.252 52.836 M32.136 44.52C32.655 43.993 33.361 43.692 34.1 43.684C34.839 43.692 35.545 43.993 36.064 44.52C36.591 45.039 36.892 45.745 36.9 46.484C36.892 47.223 36.591 47.929 36.064 48.448C35.545 48.975 34.839 49.276 34.1 49.284C33.361 49.276 32.655 48.975 32.136 48.448C31.609 47.929 31.308 47.223 31.3 46.484C31.308 45.745 31.609 45.039 32.136 44.52 M36.826 41.836C35.452 40.336 32.97 40.244 31.314 41.898C30.812 42.418 30.068 42.626 29.369 42.443C28.67 42.26 28.124 41.714 27.941 41.015C27.758 40.316 27.966 39.572 28.486 39.07C31.632 35.924 36.748 35.832 39.774 39.132C40.521 39.946 40.466 41.211 39.652 41.958C38.838 42.705 37.573 42.65 36.826 41.836 M27.014 36.698C30.818 32.896 37.174 32.854 41.216 36.728C42.014 37.492 43.28 37.465 44.044 36.668C44.808 35.871 44.782 34.604 43.984 33.84C38.428 28.514 29.584 28.472 24.184 33.87C23.403 34.651 23.404 35.918 24.185 36.699C24.966 37.48 26.233 37.479 27.014 36.698"></path></g></g></g><g id="g-root-ic_stca_djtk2jzbhukp-fill" data-item-order="-2304" transform="translate(446, 254)"><g id="ic_stca_djtk2jzbhukp-fill-merged" stroke="none" fill="#ffffff" fill-opacity="1"><g><path d="M54.84 22.68C53.906 22.677 53.028 23.123 52.48 23.88C52.288 24.184 51.936 24.348 51.58 24.3C51.235 24.261 50.934 24.05 50.78 23.74C50.092 22.257 48.605 21.307 46.97 21.307C45.335 21.307 43.848 22.257 43.16 23.74C43.047 23.991 42.838 24.186 42.58 24.28C42.322 24.378 42.038 24.378 41.78 24.28C40.41 23.625 38.767 24.129 38 25.44C37.698 25.855 37.132 25.974 36.689 25.716C36.245 25.459 36.069 24.907 36.28 24.44C37.41 22.495 39.716 21.564 41.88 22.18C43.029 20.426 44.983 19.366 47.08 19.36C48.967 19.358 50.75 20.22 51.92 21.7C52.781 21.04 53.835 20.681 54.92 20.68C55.792 20.687 56.646 20.922 57.4 21.36 V16C57.409 15.907 57.409 15.813 57.4 15.72C57.411 15.627 57.411 15.533 57.4 15.44C57.352 15.346 57.291 15.258 57.22 15.18C57.185 15.1 57.138 15.025 57.08 14.96C57.08 14.96 56.88 14.82 56.78 14.74L56.62 14.64C56.436 14.561 56.24 14.513 56.04 14.5C53.92 14.5 35.06 14.18 29.26 19.84C28.132 20.868 27.474 22.314 27.44 23.84C27.44 28.16 33.26 29.84 40 31.84C46.74 33.84 54.52 36.14 54.52 40.92C54.52 50.54 39.3 54.44 32.94 54.44C32.112 54.44 31.44 55.112 31.44 55.94C31.44 56.768 32.112 57.44 32.94 57.44 H55.82C56.644 57.429 57.309 56.764 57.32 55.94 V24C56.771 23.168 55.837 22.671 54.84 22.68 M35.28 41.02C35.28 35.2 29.18 32.86 23.28 30.58C18.12 28.58 13.28 26.72 13.28 22.98C13.28 16.42 31.28 13.46 35.82 13.46C36.613 13.429 37.249 12.793 37.28 12C37.269 11.176 36.604 10.511 35.78 10.5 H11.74C10.912 10.5 10.24 11.172 10.24 12 V34.28C11.926 34.336 13.521 35.054 14.68 36.28C16.178 34.604 18.442 33.83 20.652 34.239C22.863 34.648 24.7 36.179 25.5 38.28C27.11 38.02 28.746 38.548 29.9 39.7C30.089 39.888 30.196 40.143 30.196 40.41C30.196 40.677 30.089 40.932 29.9 41.12C29.717 41.31 29.464 41.418 29.2 41.42C28.935 41.423 28.681 41.314 28.5 41.12C27.631 40.245 26.323 39.977 25.18 40.44C24.904 40.546 24.596 40.525 24.338 40.382C24.079 40.239 23.897 39.99 23.84 39.7C23.483 37.853 21.999 36.431 20.138 36.152C18.277 35.874 16.443 36.798 15.56 38.46C15.385 38.783 15.048 38.985 14.68 38.985C14.312 38.985 13.975 38.783 13.8 38.46C13.05 37.186 11.716 36.369 10.24 36.28 V49.02C10.235 49.419 10.391 49.804 10.673 50.087C10.956 50.369 11.341 50.525 11.74 50.52C15.66 50.52 35.28 50 35.28 41.02"></path></g></g></g><g id="g-root-ic_pain_8xrb2zzbhts0-fill" data-item-order="-2304" transform="translate(143, 476)"><g id="ic_pain_8xrb2zzbhts0-fill-merged" stroke="none" fill="#ffffff" fill-opacity="1"><g><path d="M22 36C20.895 36 20 36.895 20 38C20 39.105 20.895 40 22 40 H46C47.105 40 48 39.105 48 38C48 36.895 47.105 36 46 36C45.448 36 45 35.552 45 35 V15C45 14.448 45.448 14 46 14C47.105 14 48 13.105 48 12C48 10.895 47.105 10 46 10 H22C20.895 10 20 10.895 20 12C20 13.105 20.895 14 22 14C22.552 14 23 14.448 23 15 V35C23 35.552 22.552 36 22 36 M27 15C27 14.448 27.448 14 28 14 H40C40.552 14 41 14.448 41 15 V35C41 35.552 40.552 36 40 36 H28C27.448 36 27 35.552 27 35 V15 M12.66 49.1C13.15 50.815 14.717 51.997 16.5 52 H20C21.105 52 22 51.105 22 50C22 48.895 21.105 48 20 48 H17.26C16.816 48 16.424 47.707 16.3 47.28L14.92 42.44C14.611 41.38 13.5 40.771 12.44 41.08C11.38 41.389 10.771 42.5 11.08 43.56L12.66 49.1 M46 50C46 51.105 46.895 52 48 52 H51.5C53.283 51.997 54.85 50.815 55.34 49.1L56.92 43.56C57.229 42.5 56.62 41.389 55.56 41.08C54.5 40.771 53.389 41.38 53.08 42.44L51.7 47.28C51.576 47.707 51.184 48 50.74 48 H48C46.895 48 46 48.895 46 50 M58 56C58 54.895 57.105 54 56 54 H44.6C44.139 53.997 43.737 53.686 43.62 53.24L42.52 48.82C42.431 48.47 42.529 48.099 42.78 47.84C43.562 47.103 44.004 46.075 44 45C44 43.895 43.105 43 42 43C41.153 43.003 40.4 43.54 40.12 44.34C39.977 44.736 39.601 45 39.18 45 H28.82C28.399 45 28.023 44.736 27.88 44.34C27.6 43.54 26.847 43.003 26 43C24.895 43 24 43.895 24 45C23.996 46.075 24.438 47.103 25.22 47.84C25.471 48.099 25.569 48.47 25.48 48.82L24.38 53.24C24.263 53.686 23.861 53.997 23.4 54 H12C10.895 54 10 54.895 10 56C10 57.105 10.895 58 12 58 H56C57.105 58 58 57.105 58 56 M29.38 49.76C29.483 49.313 29.882 48.998 30.34 49 H37.66C38.118 48.998 38.517 49.313 38.62 49.76L39.38 52.76C39.453 53.059 39.387 53.375 39.2 53.62C39.005 53.862 38.711 54.002 38.4 54 H29.6C29.289 54.002 28.995 53.862 28.8 53.62C28.613 53.375 28.547 53.059 28.62 52.76L29.38 49.76 M38 21.5 H36.5C35.948 21.5 35.5 21.052 35.5 20.5 V19C35.5 18.172 34.828 17.5 34 17.5C33.172 17.5 32.5 18.172 32.5 19 V20.5C32.5 21.052 32.052 21.5 31.5 21.5 H30C29.172 21.5 28.5 22.172 28.5 23C28.5 23.828 29.172 24.5 30 24.5 H31.5C32.052 24.5 32.5 24.948 32.5 25.5 V26C32.476 26.81 32.058 27.556 31.38 28L30.16 28.82C29.616 29.19 29.377 29.871 29.57 30.5C29.763 31.128 30.342 31.558 31 31.56C31.3 31.56 31.593 31.47 31.84 31.3L33.06 30.5C34.562 29.491 35.473 27.809 35.5 26 V25.5C35.5 24.948 35.948 24.5 36.5 24.5 H38C38.828 24.5 39.5 23.828 39.5 23C39.5 22.172 38.828 21.5 38 21.5"></path></g></g></g><g id="g-root-ic_road_6hmfvzbm232-fill" data-item-order="-2304" transform="translate(431, 476)"><g id="ic_road_6hmfvzbm232-fill-merged" stroke="none" fill="#ffffff" fill-opacity="1"><g><path d="M14.62 36.32C15.104 38.381 16.886 39.879 19 40 V42C19.011 42.824 19.676 43.489 20.5 43.5 H22.5C23.324 43.489 23.989 42.824 24 42 V40C25.511 39.96 26.898 39.153 27.68 37.86C27.909 37.522 27.909 37.078 27.68 36.74C27.171 36.018 26.748 35.24 26.42 34.42C26.355 34.253 26.244 34.107 26.1 34C23.817 32.199 22.49 29.448 22.5 26.54C22.499 25.472 22.674 24.411 23.02 23.4C23.149 23.142 23.149 22.838 23.02 22.58C22.899 22.257 22.604 22.032 22.26 22C22.008 21.969 21.752 21.969 21.5 22C19.376 22.02 17.588 23.595 17.3 25.7C15.825 26.109 14.728 27.347 14.5 28.86C13.227 29.685 12.469 31.107 12.493 32.623C12.518 34.14 13.321 35.537 14.62 36.32 M28.52 32C28.74 32.125 28.899 32.334 28.96 32.58C29.716 35.601 32.333 37.79 35.44 38 H36C36.279 37.978 36.554 38.073 36.759 38.263C36.965 38.453 37.081 38.72 37.08 39 V42C37.091 42.824 37.756 43.489 38.58 43.5 H40.58C41.373 43.448 41.991 42.794 42 42 V38.98C41.999 38.7 42.115 38.433 42.321 38.243C42.526 38.053 42.801 37.958 43.08 37.98 H43.56C46.635 37.761 49.226 35.604 50 32.62C50.061 32.374 50.22 32.165 50.44 32.04C52.287 30.854 53.418 28.823 53.455 26.628C53.491 24.434 52.427 22.366 50.62 21.12C50.4 20.967 50.244 20.74 50.18 20.48C49.819 18.408 48.365 16.694 46.38 16C46.013 15.902 45.738 15.596 45.68 15.22C45.19 12.187 42.572 9.958 39.5 9.958C36.428 9.958 33.81 12.187 33.32 15.22C33.262 15.596 32.987 15.902 32.62 16C30.619 16.682 29.148 18.399 28.78 20.48C28.716 20.74 28.56 20.967 28.34 21.12C26.551 22.369 25.499 24.426 25.535 26.608C25.571 28.79 26.69 30.811 28.52 32 M12 50 H56C57.105 50 58 49.105 58 48C58 46.895 57.105 46 56 46 H12C10.895 46 10 46.895 10 48C10 49.105 10.895 50 12 50 M56 54 H12C10.895 54 10 54.895 10 56C10 57.105 10.895 58 12 58 H56C57.105 58 58 57.105 58 56C58 54.895 57.105 54 56 54"></path></g></g></g><g id="g-root-tx_designin_vcnvzbez9o-fill" data-item-order="0" transform="translate(119, 38)"><g id="tx_designin_vcnvzbez9o-fill-merged" stroke="none" fill="#484848" fill-opacity="1"><g><text style="font: bold 25px Roboto, sans-serif; white-space: pre;" transform="translate(202, 28)" font-weight="bold" font-size="25px" font-family="Roboto, sans-serif"><tspan x="-186.1" y="15" dominant-baseline="ideographic">Designing for Human Connection</tspan></text></g></g></g><g id="g-root-tx_intercon_18fouzfzbez2l-fill" data-item-order="0" transform="translate(56, 314)"><g id="tx_intercon_18fouzfzbez2l-fill-merged" stroke="none" fill="#ffffff" fill-opacity="1"><g><text style="font: bold 20px Roboto, sans-serif; white-space: pre;" transform="translate(106, 22)" font-weight="bold" font-size="20px" font-family="Roboto, sans-serif"><tspan x="-89.26" y="12" dominant-baseline="ideographic">Interconnectedness</tspan></text></g></g></g><g id="g-root-tx_fluidcir_743izzbhtzj-fill" data-item-order="0" transform="translate(392, 314)"><g id="tx_fluidcir_743izzbhtzj-fill-merged" stroke="none" fill="#ffffff" fill-opacity="1"><g><text style="font: bold 20px Roboto, sans-serif; white-space: pre;" transform="translate(88, 22)" font-weight="bold" font-size="20px" font-family="Roboto, sans-serif"><tspan x="-73.35" y="12" dominant-baseline="ideographic">Fluid Circulation</tspan></text></g></g></g><g id="g-root-tx_promotes_qoeuhnzbf1fq-fill" data-item-order="0" transform="translate(62, 350)"><g id="tx_promotes_qoeuhnzbf1fq-fill-merged" stroke="none" fill="#ffffff" fill-opacity="1"><g><text style="font: 15px Roboto, sans-serif; white-space: pre;" transform="translate(100, 40)" font-size="15px" font-family="Roboto, sans-serif"><tspan x="-84.36" y="-9" dominant-baseline="ideographic">Promotes shared spaces </tspan><tspan x="-86.69" y="9" dominant-baseline="ideographic">for community and family </tspan><tspan x="-24.03" y="27" dominant-baseline="ideographic">bonds.</tspan></text></g></g></g><g id="g-root-tx_encourag_14643q3zbhuko-fill" data-item-order="0" transform="translate(380, 350)"><g id="tx_encourag_14643q3zbhuko-fill-merged" stroke="none" fill="#ffffff" fill-opacity="1"><g><text style="font: 15px Roboto, sans-serif; white-space: pre;" transform="translate(100, 40)" font-size="15px" font-family="Roboto, sans-serif"><tspan x="-86.29" y="-9" dominant-baseline="ideographic">Encourages spontaneous </tspan><tspan x="-77.06" y="9" dominant-baseline="ideographic">interactions and social </tspan><tspan x="-45.44" y="27" dominant-baseline="ideographic">engagement.</tspan></text></g></g></g><g id="g-root-tx_semipriv_1lqiw9nzbhtse-fill" data-item-order="0" transform="translate(65, 536)"><g id="tx_semipriv_1lqiw9nzbhtse-fill-merged" stroke="none" fill="#ffffff" fill-opacity="1"><g><text style="font: bold 20px Roboto, sans-serif; white-space: pre;" transform="translate(112, 22)" font-weight="bold" font-size="20px" font-family="Roboto, sans-serif"><tspan x="-96.86" y="12" dominant-baseline="ideographic">Semi-Private Alcoves</tspan></text></g></g></g><g id="g-root-tx_biophili_1uqj84bzbm0i4-fill" data-item-order="0" transform="translate(353, 536)"><g id="tx_biophili_1uqj84bzbm0i4-fill-merged" stroke="none" fill="#ffffff" fill-opacity="1"><g><text style="font: bold 20px Roboto, sans-serif; white-space: pre;" transform="translate(112, 22)" font-weight="bold" font-size="20px" font-family="Roboto, sans-serif"><tspan x="-96.59" y="12" dominant-baseline="ideographic">Biophilic Atmosphere</tspan></text></g></g></g><g id="g-root-tx_provides_v48cm3zbhtsf-fill" data-item-order="0" transform="translate(65, 572)"><g id="tx_provides_v48cm3zbhtsf-fill-merged" stroke="none" fill="#ffffff" fill-opacity="1"><g><text style="font: 15px Roboto, sans-serif; white-space: pre;" transform="translate(112, 28)" font-size="15px" font-family="Roboto, sans-serif"><tspan x="-98.69" y="0" dominant-baseline="ideographic">Provides spaces for personal </tspan><tspan x="-84.18" y="18" dominant-baseline="ideographic">reflection and relaxation.</tspan></text></g></g></g><g id="g-root-tx_createsa_zof6cbzbm1ad-fill" data-item-order="0" transform="translate(347, 572)"><g id="tx_createsa_zof6cbzbm1ad-fill-merged" stroke="none" fill="#ffffff" fill-opacity="1"><g><text style="font: 15px Roboto, sans-serif; white-space: pre;" transform="translate(118, 40)" font-size="15px" font-family="Roboto, sans-serif"><tspan x="-61.97" y="-9" dominant-baseline="ideographic">Creates a calming </tspan><tspan x="-100.66" y="9" dominant-baseline="ideographic">environment with natural light </tspan><tspan x="-48.96" y="27" dominant-baseline="ideographic">and elements.</tspan></text></g></g></g><g id="g-root-cp_1_shape-1_147zizfzbdm9w-stroke" data-item-order="-384900" transform="translate(31.999969482421875, 115.81640625)"><g id="cp_1_shape-1_147zizfzbdm9w-stroke" fill="none" stroke-linecap="round" stroke-linejoin="round" stroke-miterlimit="4" stroke="#ffffff" stroke-width="2" stroke-opacity="1"><g><path d="M 10.000031 160.1836C 10.000031 140.3014 26.117731 124.3209 45.999931 124.3209L 172.000031 124.3209C 213.070031 124.3209 238.000031 94.1909 238.000031 54.8509L 238.000031 28.1909L 233.320031 28.1909C 232.540031 28.1909 232.050031 27.3409 232.440031 26.6609L 243.163131 10.4483C 243.559231 9.8494 244.438731 9.8508 244.833031 10.451L 255.480031 26.6609C 255.880031 27.341 255.390031 28.191 254.600031 28.191L 250.000031 28.191L 250.000031 160.1836M 250.000131 292.183594C 250.000131 312.065794 233.882331 328.191394 214.000131 328.191394L 45.999931 328.191294C 26.117731 328.191294 10.000031 312.081294 10.000031 292.199194L 10.000031 292.183594M 250.000138 292.183594L 250.000138 160.183594M 10.000031 160.183594L 10.000031 292.183594"></path></g></g></g><g id="g-root-cp_3_shape-3_vcciqjzbdn2l-stroke" data-item-order="-384886" transform="translate(284.302734375, 116)"><g id="cp_3_shape-3_vcciqjzbdn2l-stroke" fill="none" stroke-linecap="round" stroke-linejoin="round" stroke-miterlimit="4" stroke="#ffffff" stroke-width="2" stroke-opacity="1"><g><path d="M 15.697266 160L 15.697266 292M 27.697266 292L 27.697266 160M 15.6969 160L 15.6969 28.1909L 11.0169 28.1909C 10.2369 28.1909 9.7469 27.3409 10.1369 26.6609L 20.8599 10.4483C 21.2561 9.8494 22.1356 9.8508 22.5298 10.451L 33.1769 26.6609C 33.5769 27.341 33.0869 28.191 32.2969 28.191L 27.6969 28.191L 27.6969 160"></path></g></g></g><g id="g-root-cp_3_shape-3_1_qn5wbfzbez9i-stroke" data-item-order="-384876" transform="translate(32, 398.00048828125)"><g id="cp_3_shape-3_1_qn5wbfzbez9i-stroke" fill="none" stroke-linecap="round" stroke-linejoin="round" stroke-miterlimit="4" stroke="#ffffff" stroke-width="2" stroke-opacity="1"><g><path d="M 268 10C 268 46 244 64.3209 214 64.3209L 45.9999 64.3209C 26.1177 64.3209 10 80.4233 10 100.3055M 280 100.3055L 280 10"></path></g></g></g><g id="g-root-cp_3_shape-3_2_hriw2jzbf027-stroke" data-item-order="-384858" transform="translate(32, 488)"><g id="cp_3_shape-3_2_hriw2jzbf027-stroke" fill="none" stroke-linecap="round" stroke-linejoin="round" stroke-miterlimit="4" stroke="#ffffff" stroke-width="2" stroke-opacity="1"><g><path d="M 280 117.982445L 280 10M 10 10L 10 118M 280.0001 118.007813C 280.0001 137.890013 263.8823 154.007813 244.0001 154.007813L 45.9999 154.007713C 26.1177 154.007713 10 137.905513 10 118.023413L 10 118.007813"></path></g></g></g><g id="g-root-cp_2_shape-2_m7ce6zzbf01s-stroke" data-item-order="-384832" transform="translate(344.3775634765625, 115.81640625)"><g id="cp_2_shape-2_m7ce6zzbf01s-stroke" fill="none" stroke-linecap="round" stroke-linejoin="round" stroke-miterlimit="4" stroke="#ffffff" stroke-width="2" stroke-opacity="1"><g><path d="M 255.622416 160.1836C 255.622416 140.3014 239.504716 124.3209 219.622616 124.3209L 93.622416 124.3209C 52.552416 124.3209 27.622416 94.1909 27.622416 54.8509L 27.622416 28.1909L 32.302416 28.1909C 33.082416 28.1909 33.572416 27.3409 33.182416 26.6609L 22.459416 10.4483C 22.063216 9.8494 21.183716 9.8508 20.789516 10.451L 10.142416 26.6609C 9.742416 27.341 10.232416 28.191 11.022416 28.191L 15.622416 28.191L 15.622416 160.1836M 15.622437 292.183594C 15.622437 312.065794 31.740137 328.183594 51.622437 328.183594L 219.622637 328.183494C 239.504737 328.183494 255.622437 312.081294 255.622437 292.199194L 255.622437 292.183594M 15.62233 292.183594L 15.62233 160.183594M 255.62233 160.183594L 255.62233 292.183594"></path></g></g></g><g id="g-root-cp_4_shape-4_dbpdy3zbf0uh-stroke" data-item-order="-384818" transform="translate(314.382568359375, 116)"><g id="cp_4_shape-4_dbpdy3zbf0uh-stroke" fill="none" stroke-linecap="round" stroke-linejoin="round" stroke-miterlimit="4" stroke="#ffffff" stroke-width="2" stroke-opacity="1"><g><path d="M 27.622071 160L 27.622071 292M 15.622071 292L 15.622071 160M 27.6224 160L 27.6224 28.1909L 32.3024 28.1909C 33.0824 28.1909 33.5724 27.3409 33.1824 26.6609L 22.4594 10.4483C 22.0632 9.8494 21.1837 9.8508 20.7895 10.451L 10.1424 26.6609C 9.7424 27.341 10.2324 28.191 11.0224 28.191L 15.6224 28.191L 15.6224 160"></path></g></g></g><g id="g-root-cp_4_shape-4_1_8vvvtnzbf1mq-stroke" data-item-order="-384808" transform="translate(320, 398.00048828125)"><g id="cp_4_shape-4_1_8vvvtnzbf1mq-stroke" fill="none" stroke-linecap="round" stroke-linejoin="round" stroke-miterlimit="4" stroke="#ffffff" stroke-width="2" stroke-opacity="1"><g><path d="M 22 10C 22 46 46 64.3209 76 64.3209L 244.0002 64.3209C 263.8824 64.3209 280 80.4233 280 100.3055M 10 100.3055L 10 10"></path></g></g></g><g id="g-root-cp_4_shape-4_2_8vvvtnzbf1mr-stroke" data-item-order="-384790" transform="translate(320, 488)"><g id="cp_4_shape-4_2_8vvvtnzbf1mr-stroke" fill="none" stroke-linecap="round" stroke-linejoin="round" stroke-miterlimit="4" stroke="#ffffff" stroke-width="2" stroke-opacity="1"><g><path d="M 10 142L 10 10M 280 10L 280 142M 10 142C 10 161.8822 26.1177 178.0078 45.9999 178.0078L 244.0001 178.0077C 263.8823 178.0077 280 161.8977 280.0001 142.0156L 280.0001 142"></path></g></g></g><g id="g-root-ic_2_ddkt7fzbezuv-stroke" data-item-order="-2304" transform="translate(128, 254)"></g><g id="g-root-ic_stca_djtk2jzbhukp-stroke" data-item-order="-2304" transform="translate(446, 254)"></g><g id="g-root-ic_pain_8xrb2zzbhts0-stroke" data-item-order="-2304" transform="translate(143, 476)"></g><g id="g-root-ic_road_6hmfvzbm232-stroke" data-item-order="-2304" transform="translate(431, 476)"></g><g id="g-root-tx_designin_vcnvzbez9o-stroke" data-item-order="0" transform="translate(119, 38)"></g><g id="g-root-tx_intercon_18fouzfzbez2l-stroke" data-item-order="0" transform="translate(56, 314)"></g><g id="g-root-tx_fluidcir_743izzbhtzj-stroke" data-item-order="0" transform="translate(392, 314)"></g><g id="g-root-tx_promotes_qoeuhnzbf1fq-stroke" data-item-order="0" transform="translate(62, 350)"></g><g id="g-root-tx_encourag_14643q3zbhuko-stroke" data-item-order="0" transform="translate(380, 350)"></g><g id="g-root-tx_semipriv_1lqiw9nzbhtse-stroke" data-item-order="0" transform="translate(65, 536)"></g><g id="g-root-tx_biophili_1uqj84bzbm0i4-stroke" data-item-order="0" transform="translate(353, 536)"></g><g id="g-root-tx_provides_v48cm3zbhtsf-stroke" data-item-order="0" transform="translate(65, 572)"></g><g id="g-root-tx_createsa_zof6cbzbm1ad-stroke" data-item-order="0" transform="translate(347, 572)"></g></g></g></svg>