<?xml version="1.0" encoding="utf-8" standalone="yes"?>
<!DOCTYPE svg PUBLIC "-//W3C//DTD SVG 1.1//EN" "http://www.w3.org/Graphics/SVG/1.1/DTD/svg11.dtd">
<svg style="fill:none;stroke:none;fill-rule:evenodd;clip-rule:evenodd;stroke-linecap:round;stroke-linejoin:round;stroke-miterlimit:1.5;" version="1.1" xmlns="http://www.w3.org/2000/svg" xmlns:xlink="http://www.w3.org/1999/xlink" width="672" height="456" viewBox="0 0 672 456"><style class="text-font-style fontImports" data-font-family="Roboto">@import url(https://fonts.googleapis.com/css2?family=Roboto:wght@400;700&amp;amp;display=block);</style><g id="items" style="isolation: isolate"><g id="blend" style="mix-blend-mode: normal"><g id="g-root-sy_3_cu_18mk623yhkfep-fill" data-item-order="-92154" transform="translate(314, 158)"><g id="sy_3_cu_18mk623yhkfep-fill-merged" stroke="none" fill="#de8431" fill-opacity="1"><g><path d="M10 226.009C39.147 204.116 58 169.26 58 130C58 90.74 39.147 55.884 10 33.991C30.056 18.927 54.985 10 82 10C148.274 10 202 63.726 202 130C202 196.274 148.274 250 82 250C54.985 250 30.056 241.073 10 226.009"></path></g></g></g><g id="g-root-sy_1_cu_zqx5t7yhkg7e-fill" data-item-order="-92150" transform="translate(122, 158)"><g id="sy_1_cu_zqx5t7yhkg7e-fill-merged" stroke="none" fill="#3cc583" fill-opacity="1"><g><path d="M202 33.991C172.853 55.884 154 90.74 154 130C154 169.26 172.853 204.116 202 226.009C181.944 241.073 157.015 250 130 250C63.726 250 10 196.274 10 130C10 63.726 63.726 10 130 10C157.015 10 181.944 18.927 202 33.991"></path></g></g></g><g id="g-root-sy_2_cu_zqx5t7yhkg7f-fill" data-item-order="-92146" transform="translate(266, 182)"><g id="sy_2_cu_zqx5t7yhkg7f-fill-merged" stroke="none" fill="#92bd39" fill-opacity="1"><g><path d="M58 202.018C87.147 180.125 106 145.268 106 106.009C106 66.749 87.147 31.893 58 10C28.853 31.893 10 66.749 10 106.009C10 145.268 28.853 180.125 58 202.018"></path></g></g></g><g id="g-root-tx_whereeco_4ot417yhkgzq-fill" data-item-order="0" transform="translate(122, 38)"><g id="tx_whereeco_4ot417yhkgzq-fill-merged" stroke="none" fill="#484848" fill-opacity="1"><g><text style="font: bold 25px Roboto, sans-serif; white-space: pre;" transform="translate(202, 28)" font-weight="bold" font-size="25px" font-family="Roboto, sans-serif"><tspan x="-189.31" y="14.87" dominant-baseline="ideographic">Where Ecology Meets Community</tspan></text></g></g></g><g id="g-root-tx_flourish_1usetnvyh6eiq-fill" data-item-order="0" transform="translate(224, 122)"><g id="tx_flourish_1usetnvyh6eiq-fill-merged" stroke="none" fill="#484848" fill-opacity="1"><g><text style="font: 20px Roboto, sans-serif; white-space: pre;" transform="translate(100, 22)" font-size="20px" font-family="Roboto, sans-serif"><tspan x="-84.32" y="12" dominant-baseline="ideographic">Flourishing Habitat</tspan></text></g></g></g><g id="g-root-ic_3_1hhksdnyh4yrw-fill" data-item-order="0" transform="translate(182, 254)"></g><g id="g-root-ic_hous_8vw23vyh3mdi-fill" data-item-order="0" transform="translate(290, 254)"></g><g id="g-root-ic_hear_1qf34q3yhkf7r-fill" data-item-order="0" transform="translate(398, 254)"></g><g id="g-root-tx_ecologic_i09mejyhkfet-fill" data-item-order="0" transform="translate(14, 254)"><g id="tx_ecologic_i09mejyhkfet-fill-merged" stroke="none" fill="#484848" fill-opacity="1"><g><text style="font: 20px Roboto, sans-serif; white-space: pre;" transform="translate(106, 34)" font-size="20px" font-family="Roboto, sans-serif"><tspan x="-93.63" y="0" dominant-baseline="ideographic">Ecological </tspan><tspan x="-83.38" y="24" dominant-baseline="ideographic">Harmony</tspan></text></g></g></g><g id="g-root-tx_familyco_vb3noryhkgzo-fill" data-item-order="0" transform="translate(518, 242)"><g id="tx_familyco_vb3noryhkgzo-fill-merged" stroke="none" fill="#484848" fill-opacity="1"><g><text style="font: 20px Roboto, sans-serif; white-space: pre;" transform="translate(10, 46)" font-size="20px" font-family="Roboto, sans-serif"><tspan x="2" y="-12" dominant-baseline="ideographic">Family &amp; </tspan><tspan x="2" y="12" dominant-baseline="ideographic">Community </tspan><tspan x="2" y="36" dominant-baseline="ideographic">Bonds</tspan></text></g></g></g><g id="g-root-sy_3_cu_18mk623yhkfep-stroke" data-item-order="-92154" transform="translate(314, 158)"><g id="sy_3_cu_18mk623yhkfep-stroke" fill="none" stroke-linecap="round" stroke-linejoin="round" stroke-miterlimit="4" stroke="#ffffff" stroke-width="2" stroke-opacity="1"><g><path d="M 10 226.009C 39.147 204.116 58 169.26 58 130C 58 90.74 39.147 55.884 10 33.991C 30.056 18.927 54.985 10 82 10C 148.274 10 202 63.726 202 130C 202 196.274 148.274 250 82 250C 54.985 250 30.056 241.073 10 226.009Z"></path></g></g></g><g id="g-root-sy_1_cu_zqx5t7yhkg7e-stroke" data-item-order="-92150" transform="translate(122, 158)"><g id="sy_1_cu_zqx5t7yhkg7e-stroke" fill="none" stroke-linecap="round" stroke-linejoin="round" stroke-miterlimit="4" stroke="#ffffff" stroke-width="2" stroke-opacity="1"><g><path d="M 202 33.991C 172.853 55.884 154 90.74 154 130C 154 169.26 172.853 204.116 202 226.009C 181.944 241.073 157.015 250 130 250C 63.726 250 10 196.274 10 130C 10 63.726 63.726 10 130 10C 157.015 10 181.944 18.927 202 33.991Z"></path></g></g></g><g id="g-root-sy_2_cu_zqx5t7yhkg7f-stroke" data-item-order="-92146" transform="translate(266, 182)"><g id="sy_2_cu_zqx5t7yhkg7f-stroke" fill="none" stroke-linecap="round" stroke-linejoin="round" stroke-miterlimit="4" stroke="#ffffff" stroke-width="2" stroke-opacity="1"><g><path d="M 58 202.018C 87.147 180.125 106 145.268 106 106.009C 106 66.749 87.147 31.893 58 10C 28.853 31.893 10 66.749 10 106.009C 10 145.268 28.853 180.125 58 202.018Z"></path></g></g></g><g id="g-root-tx_whereeco_4ot417yhkgzq-stroke" data-item-order="0" transform="translate(122, 38)"></g><g id="g-root-tx_flourish_1usetnvyh6eiq-stroke" data-item-order="0" transform="translate(224, 122)"></g><g id="g-root-ic_3_1hhksdnyh4yrw-stroke" data-item-order="0" transform="translate(182, 254)"><g id="ic_3_1hhksdnyh4yrw-stroke" fill="none" stroke-linecap="round" stroke-linejoin="round" stroke-miterlimit="4" stroke="#ffffff" stroke-width="2" stroke-opacity="1"><g><path d="M 27.936001 21.826C 27.511587 21.824894 27.166739 22.168249 27.166002 22.592663C 27.165264 23.017078 27.508917 23.361629 27.933332 23.361998C 28.357746 23.362366 28.702 23.018415 28.702002 22.594002C 28.702002 22.170626 28.359375 21.827103 27.936001 21.826M 20.880001 11C 18.67086 11 16.880001 12.790861 16.880001 15C 16.880001 17.209139 18.67086 19 20.880001 19C 23.089138 19 24.880001 17.209139 24.880001 15C 24.880001 12.790861 23.089138 11 20.880001 11M 29.322001 11.476C 38.851151 9.496477 48.594707 13.729071 53.651619 22.044771C 58.708534 30.360472 57.983967 40.9589 51.842381 48.50901C 45.700794 56.05912 35.471859 58.926285 26.300772 55.668312C 17.129684 52.410339 11.002013 43.732586 11 34C 10.995258 29.753475 12.17252 25.589432 14.4 21.974001M 15.954 48.259998C 28.554001 38.278 41.225998 48.285999 52.026001 48.285999M 24.132 30.546C 23.622 34.279999 27.228001 37.066002 27.188 43.868M 39.472 23.124001C 36.753998 29.323999 45.243999 39.124001 41.337997 46.248001M 33.854 27.038C 35.854 32.591999 43.689999 31.238001 44.236 25.15M 19.959999 35.450001C 22.112 40.944 29.91 39.374001 30.282 33.267998M 35.928001 36.627998C 38.167999 42.088001 45.939999 40.391998 46.216 34.279999"></path></g></g></g><g id="g-root-ic_hous_8vw23vyh3mdi-stroke" data-item-order="0" transform="translate(290, 254)"><g id="ic_hous_8vw23vyh3mdi-stroke" fill="none" stroke-linecap="round" stroke-linejoin="round" stroke-miterlimit="4" stroke="#ffffff" stroke-width="2" stroke-opacity="1"><g><path d="M 41.515999 43.200001C 36.838627 46.122128 33.997826 51.248871 34 56.763996M 27.573999 38.543999C 31.555914 40.878056 34.001678 45.148438 34 49.764M 15 36.264C 15 39.853851 17.910149 42.764 21.5 42.764C 25.089851 42.764 28 39.853851 28 36.264C 28 32.674149 25.089851 29.764002 21.5 29.764002C 17.910149 29.764002 15 32.674149 15 36.264ZM 41 40.764C 41 44.077709 43.686291 46.764 47 46.764C 50.313709 46.764 53 44.077709 53 40.764C 53 37.450294 50.313709 34.764 47 34.764C 43.686291 34.764 41 37.450294 41 40.764ZM 28 15.125999L 28 25.764C 28 26.316284 28.447716 26.764 29 26.764L 39 26.764C 39.552284 26.764 40 26.316284 40 25.764L 40 15.125999M 23 18.764L 32.823997 11.62C 33.525154 11.110296 34.474846 11.110296 35.176003 11.62L 45 18.764M 34 21.764L 34 56.764"></path></g></g></g><g id="g-root-ic_hear_1qf34q3yhkf7r-stroke" data-item-order="0" transform="translate(398, 254)"><g id="ic_hear_1qf34q3yhkf7r-stroke" fill="none" stroke-linecap="round" stroke-linejoin="round" stroke-miterlimit="4" stroke="#ffffff" stroke-width="2" stroke-opacity="1"><g><path d="M 34.900002 29.620001C 34.66584 29.867067 34.340401 30.007006 34 30.007006C 33.659599 30.007006 33.334164 29.867067 33.099998 29.620001L 24.42 20.619999C 22.695316 18.912029 22.267303 16.287422 23.360001 14.12C 24.177132 12.492611 25.724997 11.355679 27.522295 11.062727C 29.319592 10.769775 31.148378 11.356328 32.440002 12.639999L 34 14.2L 35.559998 12.64C 36.851624 11.356328 38.680405 10.769775 40.477707 11.062727C 42.275002 11.355679 43.822868 12.492611 44.639999 14.12C 45.732697 16.287422 45.304684 18.912029 43.580002 20.619999ZM 15 35C 15 38.313709 17.686291 41 21 41C 24.313709 41 27 38.313709 27 35C 27 31.686293 24.313709 29 21 29C 17.686291 29 15 31.686293 15 35M 15.82 32C 18.703669 34.980103 23.127432 35.871223 26.940001 34.239998M 54.279999 41.279999C 53.490047 39.965935 53.094345 38.452549 53.139999 36.919998L 53.139999 35.139999C 53.139069 31.749628 50.390369 29.00168 46.999996 29.00168C 43.609627 29.00168 40.860928 31.749628 40.860001 35.139999L 40.860001 36.919998C 40.905655 38.452549 40.509953 39.965935 39.720001 41.279999M 40.860001 36.139999C 43.219433 36.157795 45.466393 35.133125 47 33.34C 48.533607 35.133125 50.780567 36.157795 53.139999 36.139999M 41.620003 36.120003C 41.860966 38.91198 44.197639 41.055672 47 41.055672C 49.802357 41.055672 52.139034 38.91198 52.380001 36.119999M 25.52 44C 22.407257 42.422581 18.697351 42.581898 15.731298 44.420361C 12.765244 46.258823 10.972089 49.510498 11 53M 42.900002 43.860001C 44.194016 43.297665 45.589088 43.005039 47 43C 52.52285 43 57 47.477154 57 53M 29.5 45.5C 29.5 47.985283 31.514719 50 34 50C 36.485283 50 38.5 47.985283 38.5 45.5C 38.5 43.014717 36.485283 41 34 41C 31.514719 41 29.5 43.014717 29.5 45.5M 26 57C 27.52046 53.939751 30.642849 52.004547 34.059998 52.004547C 37.47715 52.004547 40.599541 53.939751 42.119999 57"></path></g></g></g><g id="g-root-tx_ecologic_i09mejyhkfet-stroke" data-item-order="0" transform="translate(14, 254)"></g><g id="g-root-tx_familyco_vb3noryhkgzo-stroke" data-item-order="0" transform="translate(518, 242)"></g></g></g></svg>