<?xml version="1.0" encoding="utf-8" standalone="yes"?>
<!DOCTYPE svg PUBLIC "-//W3C//DTD SVG 1.1//EN" "http://www.w3.org/Graphics/SVG/1.1/DTD/svg11.dtd">
<svg style="fill:none;stroke:none;fill-rule:evenodd;clip-rule:evenodd;stroke-linecap:round;stroke-linejoin:round;stroke-miterlimit:1.5;" version="1.1" xmlns="http://www.w3.org/2000/svg" xmlns:xlink="http://www.w3.org/1999/xlink" width="816" height="564" viewBox="0 0 816 564"><style class="text-font-style fontImports" data-font-family="Montserrat">@import url(https://fonts.googleapis.com/css2?family=Montserrat:wght@400;700&amp;amp;display=block);</style><g id="items" style="isolation: isolate"><g id="blend" style="mix-blend-mode: normal"><g id="g-root-cp_0_g-0_v6qrx7xxl8n4-fill" data-item-order="-336950" transform="translate(254, 176)"><g id="cp_0_g-0_v6qrx7xxl8n4-fill-merged" stroke="none" fill="#666666" fill-opacity="1"><g><path d="M250 130C250 196.274 196.274 250 130 250C63.726 250 10 196.274 10 130C10 63.726 63.726 10 130 10C196.274 10 250 63.726 250 130"></path></g></g></g><g id="g-root-cp_4_g-4_mb3robxxl9ft-fill" data-item-order="-336946" transform="translate(182, 104)"><g id="cp_4_g-4_mb3robxxl9ft-fill-merged" stroke="none" fill="#e0cb15" fill-opacity="1"><g><path d="M10 94C10 47.608 47.608 10 94 10C137.183 10 172.755 42.586 177.47 84.509C130.879 94.187 94.187 130.879 84.509 177.47C42.586 172.755 10 137.183 10 94"></path></g></g></g><g id="g-root-cp_3_g-3_hva9jvxxla82-fill" data-item-order="-336940" transform="translate(182, 320)"><g id="cp_3_g-3_hva9jvxxla82-fill-merged" stroke="none" fill="#b4a418" fill-opacity="1"><g><path d="M94 177.999C47.608 177.999 10 140.391 10 93.999C10 50.816 42.586 15.243 84.509 10.529C94.187 57.12 130.879 93.812 177.47 103.49C172.755 145.413 137.183 177.999 94 177.999"></path></g></g></g><g id="g-root-cp_2_g-2_4kg89nxxl8n7-fill" data-item-order="-336934" transform="translate(398, 320)"><g id="cp_2_g-2_4kg89nxxl8n7-fill-merged" stroke="none" fill="#ffbf00" fill-opacity="1"><g><path d="M178 93.999C178 140.391 140.392 177.999 94 177.999C50.817 177.999 15.244 145.413 10.53 103.49C57.121 93.812 93.813 57.12 103.491 10.529C145.414 15.243 178 50.816 178 93.999"></path></g></g></g><g id="g-root-cp_1_g-1_1upx9zvxxl98s-fill" data-item-order="-336928" transform="translate(398, 104)"><g id="cp_1_g-1_1upx9zvxxl98s-fill-merged" stroke="none" fill="#fff06b" fill-opacity="1"><g><path d="M178 94C178 47.608 140.392 10 94 10C50.817 10 15.244 42.586 10.53 84.509C57.121 94.187 93.813 130.879 103.491 177.47C145.414 172.755 178 137.183 178 94"></path></g></g></g><g id="g-root-ic_oyst_146r6xnxx4e16-fill" data-item-order="-2304" transform="translate(224, 146)"><g id="ic_oyst_146r6xnxx4e16-fill-merged" stroke="none" fill="#ffffff" fill-opacity="1"><g><path d="M41.84 28.4C32.48 28.4 25.84 31.48 25.84 35.88C25.851 37.146 26.874 38.169 28.14 38.18 H34C33.76 44.06 31.44 52.18 25.68 53.5 V53.24C24.84 43.74 23.68 28.58 17.88 21.8 H22.82C23.73 23.883 24.446 26.046 24.96 28.26C25.118 28.928 25.714 29.4 26.4 29.4 H26.76C27.55 29.194 28.03 28.394 27.84 27.6C27.354 25.629 26.739 23.691 26 21.8 H34C33.72 22.52 33.38 23.48 33.02 24.64C32.901 25.017 32.938 25.425 33.122 25.774C33.306 26.124 33.622 26.385 34 26.5C34.146 26.521 34.294 26.521 34.44 26.5C35.085 26.501 35.654 26.078 35.84 25.46C36.235 24.197 36.696 22.955 37.22 21.74 H42.14C41.48 22.529 40.897 23.379 40.4 24.28C40.009 24.988 40.258 25.878 40.96 26.28C41.183 26.415 41.439 26.485 41.7 26.48C42.228 26.479 42.716 26.197 42.98 25.74C43.727 24.203 44.892 22.907 46.34 22C46.472 21.923 46.593 21.829 46.7 21.72 H47.22C48.667 21.72 49.84 20.547 49.84 19.1C49.84 13.78 41.7 10 30 10C18.3 10 10.24 13.78 10.24 19.18C10.24 20.627 11.413 21.8 12.86 21.8 H13.4C13.505 21.881 13.619 21.948 13.74 22C20.5 26.14 21.88 44 22.62 53.6C22.695 54.471 23.013 55.303 23.54 56C24.436 57.197 25.845 57.902 27.34 57.9 H32.72C39.82 57.9 50.22 45.44 51.14 38.08 H55.46C56.722 38.069 57.74 37.042 57.74 35.78C57.76 31.48 51.22 28.4 41.84 28.4 M32.74 55.04 H29.52C34.9 51.56 36.68 43.4 36.88 38.18 H40.88C40.721 40.322 40.115 42.407 39.1 44.3C38.905 44.637 38.852 45.037 38.954 45.412C39.055 45.788 39.302 46.107 39.64 46.3C39.863 46.435 40.119 46.505 40.38 46.5C40.904 46.504 41.391 46.23 41.66 45.78C42.987 43.449 43.786 40.854 44 38.18 H48.26C47.18 44.4 37.68 55.04 32.74 55.04"></path></g></g></g><g id="g-root-ic_appr_dhc6orxxl98v-fill" data-item-order="-2304" transform="translate(476, 146)"><g id="ic_appr_dhc6orxxl98v-fill-merged" stroke="none" fill="#ffffff" fill-opacity="1"><g><path d="M33.86 20.38C33.66 19.885 33.271 19.49 32.779 19.284C32.287 19.077 31.733 19.076 31.24 19.28L16.48 25.28L14 13.7C13.886 13.175 13.565 12.717 13.109 12.431C12.654 12.145 12.103 12.055 11.58 12.18C11.052 12.281 10.587 12.59 10.29 13.038C9.993 13.486 9.888 14.034 10 14.56L15.64 40.56C15.841 41.498 16.681 42.161 17.64 42.14L18 42C19.076 41.761 19.756 40.697 19.52 39.62L17.34 29.3L32.76 22.98C33.78 22.564 34.272 21.402 33.86 20.38 M19.88 18.12C20.985 18.12 21.88 17.225 21.88 16.12 V12.96C21.88 11.855 20.985 10.96 19.88 10.96C18.775 10.96 17.88 11.855 17.88 12.96 V16.12C17.88 17.225 18.775 18.12 19.88 18.12 M27.88 16.12C28.985 16.12 29.88 15.225 29.88 14.12 V12C29.88 10.895 28.985 10 27.88 10C26.775 10 25.88 10.895 25.88 12 V14.12C25.88 15.225 26.775 16.12 27.88 16.12 M57.86 36.38C57.66 35.885 57.271 35.49 56.779 35.284C56.287 35.077 55.733 35.076 55.24 35.28L40.48 41.28L38 29.7C37.761 28.624 36.697 27.944 35.62 28.18C35.085 28.272 34.61 28.577 34.304 29.026C33.999 29.475 33.889 30.029 34 30.56L39.64 56.56C39.841 57.498 40.681 58.161 41.64 58.14L42 58C43.076 57.761 43.756 56.697 43.52 55.62L41.28 45.3L56.7 38.98C57.201 38.792 57.606 38.411 57.824 37.922C58.041 37.434 58.055 36.878 57.86 36.38 M43.88 34.12C44.985 34.12 45.88 33.225 45.88 32.12 V28.96C45.88 27.855 44.985 26.96 43.88 26.96C42.775 26.96 41.88 27.855 41.88 28.96 V32.12C41.88 33.225 42.775 34.12 43.88 34.12 M51.88 32.12C52.985 32.12 53.88 31.225 53.88 30.12 V28C53.88 26.895 52.985 26 51.88 26C50.775 26 49.88 26.895 49.88 28 V30.16C49.902 31.249 50.791 32.12 51.88 32.12"></path></g></g></g><g id="g-root-ic_plan_hx5ot7xxpfrh-fill" data-item-order="-2304" transform="translate(224, 398)"><g id="ic_plan_hx5ot7xxpfrh-fill-merged" stroke="none" fill="#ffffff" fill-opacity="1"><g><path d="M56 28C57.105 28 58 27.105 58 26 V19C58 17.343 56.657 16 55 16 H44C43.448 16 43 15.552 43 15 V13C43 11.343 41.657 10 40 10 H19C17.343 10 16 11.343 16 13 V28C16 28.552 15.552 29 15 29 H13C11.343 29 10 30.343 10 32 V55C10 56.657 11.343 58 13 58 H34C35.657 58 37 56.657 37 55 V52C37 51.448 37.448 51 38 51 H55C56.657 51 58 49.657 58 48 V34C58 32.895 57.105 32 56 32C54.216 32.001 52.568 31.047 51.68 29.5C51.488 29.193 51.48 28.806 51.66 28.492C51.84 28.178 52.178 27.989 52.54 28 H56 M21.5 47.5C21.5 48.052 21.052 48.5 20.5 48.5 H15C14.448 48.5 14 48.052 14 47.5 V46.5C14 45.948 14.448 45.5 15 45.5 H20.5C21.052 45.5 21.5 45.948 21.5 46.5 V47.5 M14 52.5C14 51.948 14.448 51.5 15 51.5 H20.5C21.052 51.5 21.5 51.948 21.5 52.5 V53C21.5 53.552 21.052 54 20.5 54 H15C14.448 54 14 53.552 14 53 V52.5 M33 53C33 53.552 32.552 54 32 54 H25.5C24.948 54 24.5 53.552 24.5 53 V44C24.489 43.176 23.824 42.511 23 42.5 H15C14.448 42.5 14 42.052 14 41.5 V34C14 33.448 14.448 33 15 33 H22.5C23.605 33 24.5 32.105 24.5 31C24.5 29.895 23.605 29 22.5 29 H21C20.448 29 20 28.552 20 28 V15C20 14.448 20.448 14 21 14 H38C38.552 14 39 14.448 39 15 V28C39 28.552 38.552 29 38 29 H29.5C28.395 29 27.5 29.895 27.5 31C27.5 32.105 28.395 33 29.5 33 H32C32.552 33 33 33.448 33 34 V36C33 37.105 33.895 38 35 38C36.139 38.002 37.223 38.489 37.98 39.34C38.239 39.63 38.302 40.046 38.14 40.4C37.983 40.759 37.632 40.994 37.24 41 H35C33.895 41 33 41.895 33 43 V53 M54 23C54 23.552 53.552 24 53 24 H49C47.895 24 47 24.895 47 26 V27C47.009 30.926 49.556 34.396 53.3 35.58C53.719 35.712 54.003 36.101 54 36.54 V46C54 46.552 53.552 47 53 47 H38C37.448 47 37 46.552 37 46C37 45.448 37.448 45 38 45 H41C42.105 45 43 44.105 43 43 V42C42.997 38.439 40.641 35.308 37.22 34.32C37.083 34.275 36.993 34.144 37 34C37 33.448 37.448 33 38 33 H41C42.105 33 43 32.105 43 31 V21C43 20.448 43.448 20 44 20 H53C53.552 20 54 20.448 54 21 V23"></path></g></g></g><g id="g-root-ic_shar_qvaokbxx5ts9-fill" data-item-order="-2304" transform="translate(476, 398)"><g id="ic_shar_qvaokbxx5ts9-fill-merged" stroke="none" fill="#ffffff" fill-opacity="1"><g><path d="M58 52.5C58.011 50.347 56.76 48.386 54.803 47.49C52.845 46.593 50.543 46.925 48.92 48.34C48.638 48.583 48.243 48.645 47.9 48.5L43.04 46.5C43.049 46.394 43.049 46.286 43.04 46.18C43.011 45.807 43.197 45.45 43.52 45.26L48.66 42.16C48.981 41.97 49.379 41.97 49.7 42.16C50.558 42.695 51.549 42.979 52.56 42.98C55.598 42.98 58.06 40.518 58.06 37.48C58.06 34.442 55.598 31.98 52.56 31.98C49.522 31.98 47.06 34.442 47.06 37.48C47.051 37.586 47.051 37.694 47.06 37.8C47.084 38.172 46.899 38.527 46.58 38.72L41.4 41.84C41.079 42.03 40.681 42.03 40.36 41.84C39.502 41.305 38.511 41.021 37.5 41.02C35.058 41.012 32.903 42.616 32.209 44.957C31.515 47.299 32.448 49.818 34.501 51.142C36.553 52.466 39.233 52.278 41.08 50.68C41.362 50.437 41.757 50.375 42.1 50.52L46.96 52.52C46.96 55.558 49.422 58.02 52.46 58.02C55.498 58.02 57.96 55.558 57.96 52.52 M42.46 53.86C42.186 53.741 41.874 53.741 41.6 53.86C40.349 54.566 38.937 54.938 37.5 54.94C36.185 54.921 34.891 54.599 33.72 54C33.589 53.933 33.447 53.892 33.3 53.88C30.523 53.776 27.799 53.095 25.3 51.88C25.121 51.798 25.01 51.616 25.02 51.42 V49.22C25.022 47.747 25.673 46.349 26.8 45.4C29.705 42.967 30.775 38.975 29.477 35.416C28.178 31.856 24.789 29.491 21 29.5 H15.16C15.009 29.497 14.868 29.423 14.78 29.3C14.679 29.185 14.641 29.028 14.68 28.88C16.265 22.907 20.523 18.003 26.213 15.594C31.904 13.185 38.388 13.542 43.78 16.56C43.978 16.671 44.076 16.901 44.02 17.12C43.959 17.337 43.766 17.491 43.54 17.5 H38.5C35.462 17.5 33 19.962 33 23C33 26.038 35.462 28.5 38.5 28.5C40.32 28.502 42.005 29.458 42.94 31.02L43.88 32.56C44.047 32.858 44.358 33.048 44.7 33.06C45.041 33.06 45.361 32.896 45.56 32.62C47.885 29.26 52.287 28.054 56 29.76C56.341 29.924 56.746 29.877 57.04 29.64C57.338 29.4 57.477 29.014 57.4 28.64C54.684 16.724 43.448 8.752 31.303 10.125C19.159 11.498 9.986 21.778 10 34C10 43.84 18 58 34 58C37.374 58.003 40.71 57.28 43.78 55.88C44.23 55.688 44.469 55.192 44.34 54.72C44.318 54.655 44.276 54.599 44.22 54.56L42.46 53.86"></path></g></g></g><g id="g-root-tx_architec_1qa3rvfxxla11-fill" data-item-order="0" transform="translate(212, 38)"><g id="tx_architec_1qa3rvfxxla11-fill-merged" stroke="none" fill="#484848" fill-opacity="1"><g><text style="font: bold 25px Montserrat, sans-serif; white-space: pre;" transform="translate(172, 28)" font-weight="bold" font-size="25px" font-family="Montserrat, sans-serif"><tspan x="-159.54" y="15" dominant-baseline="ideographic">Architectural Inspiration</tspan></text></g></g></g><g id="g-root-tx_fungalge_18kp9srxx76kt-fill" data-item-order="0" transform="translate(38, 104)"><g id="tx_fungalge_18kp9srxx76kt-fill-merged" stroke="none" fill="#e0cb15" fill-opacity="1"><g><text style="font: bold 20px Montserrat, sans-serif; white-space: pre;" transform="translate(130, 40)" font-weight="bold" font-size="20px" font-family="Montserrat, sans-serif"><tspan x="-74.51" y="-0" dominant-baseline="ideographic">Fungal </tspan><tspan x="-106.1" y="24" dominant-baseline="ideographic">Geometry</tspan></text></g></g></g><g id="g-root-tx_organice_vb46orxx7763-fill" data-item-order="0" transform="translate(590, 98)"><g id="tx_organice_vb46orxx7763-fill-merged" stroke="none" fill="#ffe60a" fill-opacity="1"><g><text style="font: bold 20px Montserrat, sans-serif; white-space: pre;" transform="translate(10, 40)" font-weight="bold" font-size="20px" font-family="Montserrat, sans-serif"><tspan x="2" y="-0" dominant-baseline="ideographic">Organic </tspan><tspan x="2" y="24" dominant-baseline="ideographic">Expansion</tspan></text></g></g></g><g id="g-root-tx_thedesig_qtf9azxx78xy-fill" data-item-order="0" transform="translate(14, 176)"><g id="tx_thedesig_qtf9azxx78xy-fill-merged" stroke="none" fill="#484848" fill-opacity="1"><g><text style="font: 15px Montserrat, sans-serif; white-space: pre;" transform="translate(154, 40)" font-size="15px" font-family="Montserrat, sans-serif"><tspan x="-133.36" y="-9" dominant-baseline="ideographic">The design draws </tspan><tspan x="-125.28" y="9" dominant-baseline="ideographic">from fungal root </tspan><tspan x="-65.97" y="27" dominant-baseline="ideographic">systems.</tspan></text></g></g></g><g id="g-root-tx_thearchi_qvaokbxx77yc-fill" data-item-order="0" transform="translate(590, 170)"><g id="tx_thearchi_qvaokbxx77yc-fill-merged" stroke="none" fill="#484848" fill-opacity="1"><g><text style="font: 15px Montserrat, sans-serif; white-space: pre;" transform="translate(10, 46)" font-size="15px" font-family="Montserrat, sans-serif"><tspan x="2" y="-18" dominant-baseline="ideographic">The architectural </tspan><tspan x="2" y="0" dominant-baseline="ideographic">form's growth </tspan><tspan x="2" y="18" dominant-baseline="ideographic">mirrors natural </tspan><tspan x="2" y="36" dominant-baseline="ideographic">processes.</tspan></text></g></g></g><g id="g-root-tx_architec_znt87vxxla12-fill" data-item-order="0" transform="translate(302, 266)"><g id="tx_architec_znt87vxxla12-fill-merged" stroke="none" fill="#ffffff" fill-opacity="1"><g><text style="font: bold 20px Montserrat, sans-serif; white-space: pre;" transform="translate(82, 40)" font-weight="bold" font-size="20px" font-family="Montserrat, sans-serif"><tspan x="-69.99" y="-0" dominant-baseline="ideographic">Architectural </tspan><tspan x="-29.08" y="24" dominant-baseline="ideographic">Form</tspan></text></g></g></g><g id="g-root-tx_intercon_1lxeqcbxx7761-fill" data-item-order="0" transform="translate(590, 338)"><g id="tx_intercon_1lxeqcbxx7761-fill-merged" stroke="none" fill="#ffbf00" fill-opacity="1"><g><text style="font: bold 20px Montserrat, sans-serif; white-space: pre;" transform="translate(10, 40)" font-weight="bold" font-size="20px" font-family="Montserrat, sans-serif"><tspan x="2" y="-0" dominant-baseline="ideographic">Inter-</tspan><tspan x="2" y="24" dominant-baseline="ideographic">connectivity</tspan></text></g></g></g><g id="g-root-tx_modulard_dil80rxx77d3-fill" data-item-order="0" transform="translate(62, 356)"><g id="tx_modulard_dil80rxx77d3-fill-merged" stroke="none" fill="#b4a418" fill-opacity="1"><g><text style="font: bold 20px Montserrat, sans-serif; white-space: pre;" transform="translate(106, 40)" font-weight="bold" font-size="20px" font-family="Montserrat, sans-serif"><tspan x="-88.76" y="-0" dominant-baseline="ideographic">Modular </tspan><tspan x="-75.6" y="24" dominant-baseline="ideographic">Design</tspan></text></g></g></g><g id="g-root-tx_thearchi_74pnfxx78y0-fill" data-item-order="0" transform="translate(14, 428)"><g id="tx_thearchi_74pnfxx78y0-fill-merged" stroke="none" fill="#484848" fill-opacity="1"><g><text style="font: 15px Montserrat, sans-serif; white-space: pre;" transform="translate(154, 40)" font-size="15px" font-family="Montserrat, sans-serif"><tspan x="-140.53" y="-9" dominant-baseline="ideographic">The architecture is </tspan><tspan x="-111.04" y="9" dominant-baseline="ideographic">adaptable and </tspan><tspan x="-39.07" y="27" dominant-baseline="ideographic">alive.</tspan></text></g></g></g><g id="g-root-tx_structur_18ly7yzxx78qy-fill" data-item-order="0" transform="translate(590, 410)"><g id="tx_structur_18ly7yzxx78qy-fill-merged" stroke="none" fill="#484848" fill-opacity="1"><g><text style="font: 15px Montserrat, sans-serif; white-space: pre;" transform="translate(10, 58)" font-size="15px" font-family="Montserrat, sans-serif"><tspan x="2" y="-27" dominant-baseline="ideographic">Structural </tspan><tspan x="2" y="-9" dominant-baseline="ideographic">components </tspan><tspan x="2" y="9" dominant-baseline="ideographic">function as a </tspan><tspan x="2" y="27" dominant-baseline="ideographic">branching </tspan><tspan x="2" y="45" dominant-baseline="ideographic">network.</tspan></text></g></g></g><g id="g-root-cp_0_g-0_v6qrx7xxl8n4-stroke" data-item-order="-336950" transform="translate(254, 176)"><g id="cp_0_g-0_v6qrx7xxl8n4-stroke" fill="none" stroke-linecap="round" stroke-linejoin="round" stroke-miterlimit="4" stroke="#ffffff" stroke-width="2" stroke-opacity="1"><g><path d="M 250 130C 250 196.2742 196.2742 250 130 250C 63.7258 250 10 196.2742 10 130C 10 63.7258 63.7258 10 130 10C 196.2742 10 250 63.7258 250 130Z"></path></g></g></g><g id="g-root-cp_4_g-4_mb3robxxl9ft-stroke" data-item-order="-336946" transform="translate(182, 104)"><g id="cp_4_g-4_mb3robxxl9ft-stroke" fill="none" stroke-linecap="round" stroke-linejoin="round" stroke-miterlimit="4" stroke="#ffffff" stroke-width="2" stroke-opacity="1"><g><path d="M 10 94C 10 47.6081 47.6081 10 94 10C 137.1832 10 172.7555 42.5856 177.4698 84.5093C 130.8792 94.1869 94.1869 130.8792 84.5093 177.4698C 42.5856 172.7555 10 137.1832 10 94ZM 177.999977 94.000466C 177.999977 140.392366 140.391877 178.000466 93.999977 178.000466C 90.791177 178.000466 87.624477 177.820566 84.509277 177.470266C 94.186877 130.879666 130.879177 94.187366 177.469777 84.509766C 177.820077 87.624966 177.999977 90.791666 177.999977 94.000466Z"></path></g></g></g><g id="g-root-cp_3_g-3_hva9jvxxla82-stroke" data-item-order="-336940" transform="translate(182, 320)"><g id="cp_3_g-3_hva9jvxxla82-stroke" fill="none" stroke-linecap="round" stroke-linejoin="round" stroke-miterlimit="4" stroke="#ffffff" stroke-width="2" stroke-opacity="1"><g><path d="M 94 177.999097C 47.6081 177.999097 10 140.390997 10 93.999097C 10 50.815897 42.5856 15.243497 84.5093 10.529297C 94.1869 57.119897 130.8792 93.812197 177.4698 103.489797C 172.7555 145.413497 137.1832 177.999097 94 177.999097ZM 178.000015 94C 178.000015 47.6081 140.391915 10 94.000015 10C 90.791215 10 87.624515 10.1799 84.509315 10.5302C 94.186915 57.1208 130.879215 93.8131 177.469815 103.4907C 177.820115 100.3755 178.000015 97.2088 178.000015 94Z"></path></g></g></g><g id="g-root-cp_2_g-2_4kg89nxxl8n7-stroke" data-item-order="-336934" transform="translate(398, 320)"><g id="cp_2_g-2_4kg89nxxl8n7-stroke" fill="none" stroke-linecap="round" stroke-linejoin="round" stroke-miterlimit="4" stroke="#ffffff" stroke-width="2" stroke-opacity="1"><g><path d="M 178.000073 93.999097C 178.000073 140.390997 140.391973 177.999097 94.000073 177.999097C 50.816873 177.999097 15.244473 145.413497 10.530273 103.489797C 57.120873 93.812197 93.813173 57.119897 103.490773 10.529297C 145.414473 15.243497 178.000073 50.815897 178.000073 93.999097ZM 10 94C 10 47.6081 47.6081 10 94 10C 97.2088 10 100.3755 10.1799 103.4907 10.5302C 93.8131 57.1208 57.1208 93.8131 10.5302 103.4907C 10.1799 100.3755 10 97.2088 10 94Z"></path></g></g></g><g id="g-root-cp_1_g-1_1upx9zvxxl98s-stroke" data-item-order="-336928" transform="translate(398, 104)"><g id="cp_1_g-1_1upx9zvxxl98s-stroke" fill="none" stroke-linecap="round" stroke-linejoin="round" stroke-miterlimit="4" stroke="#ffffff" stroke-width="2" stroke-opacity="1"><g><path d="M 178.000012 94C 178.000012 47.6081 140.391912 10 94.000012 10C 50.816812 10 15.244412 42.5856 10.530212 84.5093C 57.120812 94.1869 93.813112 130.8792 103.490712 177.4698C 145.414412 172.7555 178.000012 137.1832 178.000012 94ZM 94 178.000466C 47.6081 178.000466 10 140.392366 10 94.000466C 10 90.791666 10.1799 87.624966 10.5302 84.509766C 57.1208 94.187366 93.8131 130.879666 103.4907 177.470266C 100.3755 177.820566 97.2088 178.000466 94 178.000466Z"></path></g></g></g><g id="g-root-ic_oyst_146r6xnxx4e16-stroke" data-item-order="-2304" transform="translate(224, 146)"></g><g id="g-root-ic_appr_dhc6orxxl98v-stroke" data-item-order="-2304" transform="translate(476, 146)"></g><g id="g-root-ic_plan_hx5ot7xxpfrh-stroke" data-item-order="-2304" transform="translate(224, 398)"></g><g id="g-root-ic_shar_qvaokbxx5ts9-stroke" data-item-order="-2304" transform="translate(476, 398)"></g><g id="g-root-tx_architec_1qa3rvfxxla11-stroke" data-item-order="0" transform="translate(212, 38)"></g><g id="g-root-tx_fungalge_18kp9srxx76kt-stroke" data-item-order="0" transform="translate(38, 104)"></g><g id="g-root-tx_organice_vb46orxx7763-stroke" data-item-order="0" transform="translate(590, 98)"></g><g id="g-root-tx_thedesig_qtf9azxx78xy-stroke" data-item-order="0" transform="translate(14, 176)"></g><g id="g-root-tx_thearchi_qvaokbxx77yc-stroke" data-item-order="0" transform="translate(590, 170)"></g><g id="g-root-tx_architec_znt87vxxla12-stroke" data-item-order="0" transform="translate(302, 266)"></g><g id="g-root-tx_intercon_1lxeqcbxx7761-stroke" data-item-order="0" transform="translate(590, 338)"></g><g id="g-root-tx_modulard_dil80rxx77d3-stroke" data-item-order="0" transform="translate(62, 356)"></g><g id="g-root-tx_thearchi_74pnfxx78y0-stroke" data-item-order="0" transform="translate(14, 428)"></g><g id="g-root-tx_structur_18ly7yzxx78qy-stroke" data-item-order="0" transform="translate(590, 410)"></g></g></g></svg>