<?xml version="1.0" encoding="utf-8" standalone="yes"?>
<!DOCTYPE svg PUBLIC "-//W3C//DTD SVG 1.1//EN" "http://www.w3.org/Graphics/SVG/1.1/DTD/svg11.dtd">
<svg style="fill:none;stroke:none;fill-rule:evenodd;clip-rule:evenodd;stroke-linecap:round;stroke-linejoin:round;stroke-miterlimit:1.5;" version="1.1" xmlns="http://www.w3.org/2000/svg" xmlns:xlink="http://www.w3.org/1999/xlink" width="708" height="504" viewBox="0 0 708 504"><style class="text-font-style fontImports" data-font-family="Roboto">@import url(https://fonts.googleapis.com/css2?family=Roboto:wght@400;700&amp;amp;display=block);</style><g id="items" style="isolation: isolate"><g id="blend" style="mix-blend-mode: normal"><g id="g-root-cp_0b_g-0b_dfghx7xnhhj5-fill" data-item-order="-269250" transform="translate(194, 158)"><g id="cp_0b_g-0b_dfghx7xnhhj5-fill-merged" stroke="none" fill="#666666" fill-opacity="1"><g><path d="M154 10 H166 V35.057C187.874 35.476 207.951 38.158 226 42.122 V22 H238 V45.014C262.48 51.445 282.705 60.04 298 67.927 V58 H310 V142 H297.945C297.982 141.338 298 140.671 298 140C298 120.118 281.882 104 262 104C242.118 104 226 120.118 226 140C226 140.671 226.018 141.338 226.055 142 H202C202 118.804 183.196 100 160 100C136.804 100 118 118.804 118 142 H93.945C93.982 141.338 94 140.671 94 140C94 120.118 77.882 104 58 104C38.118 104 22 120.118 22 140C22 140.671 22.018 141.338 22.055 142 H10 V58 H22 V67.764C36.614 60.008 57.113 51.407 82 44.965 V22 H94 V42.11C112.171 38.165 132.337 35.482 154 35.059 V10 M94 52.352C112.059 48.295 132.242 45.5 154 45.061 V67.06C132.291 67.491 112.117 70.229 94 74.229 V52.352 M166 45.059 V67.058C187.918 67.485 207.998 70.221 226 74.243 V52.369C208.048 48.286 187.964 45.494 166 45.059 M238 77.187 V55.366C263.043 62.185 283.313 71.286 298 79.237 V100.567C282.989 92.641 262.744 83.803 238 77.187 M22 79.173C35.617 71.42 56.247 62.21 82 55.306 V77.132C56.717 83.792 36.16 92.677 22 100.445 V79.173"></path></g></g></g><g id="g-root-cp_0a_g-0a_4mgmzxnhfya-fill" data-item-order="-269245" transform="translate(194, 134)"></g><g id="g-root-ic_city_18fp4fvxnka30-fill" data-item-order="-5184" transform="translate(62, 170)"><g id="ic_city_18fp4fvxnka30-fill-merged" stroke="none" fill="#484848" fill-opacity="1"><g><path d="M26.38 21.16C27.934 24.795 30.982 27.582 34.74 28.806C38.499 30.03 42.603 29.572 46 27.55C48.898 25.743 51.033 22.936 52 19.66C53.05 16.39 52 17.05 53.53 17.05C56.959 16.904 60.183 15.378 62.47 12.82C64.548 14.871 67.506 15.761 70.371 15.196C73.236 14.632 75.635 12.686 76.78 10 H10.9C11.037 14.09 13.316 17.805 16.9 19.78C19.711 21.591 23.169 22.094 26.38 21.16 M79.75 77.56 H68.5 V72.67C71.27 71.692 73.089 69.036 73 66.1C72.47 60.332 70.862 54.715 68.26 49.54C67.838 48.832 67.074 48.398 66.25 48.398C65.426 48.398 64.662 48.832 64.24 49.54C61.637 54.789 60.03 60.475 59.5 66.31C59.511 69.166 61.31 71.71 64 72.67 V77.56 H48.28 V31.42C40.068 36.303 29.477 33.996 24.04 26.14C21.55 26.271 19.064 25.819 16.78 24.82 V77.56 H12.28C11.4 77.415 10.517 77.803 10.029 78.551C9.542 79.298 9.542 80.262 10.029 81.009C10.517 81.757 11.4 82.145 12.28 82 H79.75C80.61 82.1 81.452 81.697 81.913 80.964C82.375 80.231 82.375 79.299 81.913 78.566C81.452 77.833 80.61 77.43 79.75 77.53 M25.75 41.14 H39.25C40.493 41.14 41.5 42.147 41.5 43.39C41.5 44.633 40.493 45.64 39.25 45.64 H25.78C24.537 45.64 23.53 44.633 23.53 43.39C23.53 42.147 24.537 41.14 25.78 41.14 M25.75 52.39 H39.25C40.493 52.39 41.5 53.397 41.5 54.64C41.5 55.883 40.493 56.89 39.25 56.89 H25.78C24.537 56.89 23.53 55.883 23.53 54.64C23.53 53.397 24.537 52.39 25.78 52.39 M28 69.22C28 66.735 30.015 64.72 32.5 64.72C34.985 64.72 37 66.735 37 69.22 V78.22 H28 V69.22 M57.1 41.89C57.102 43.941 58.751 45.61 60.802 45.637C62.853 45.663 64.545 44.036 64.599 41.986C64.653 39.936 63.05 38.222 61 38.14C59.98 38.099 58.987 38.476 58.251 39.184C57.515 39.892 57.099 40.869 57.1 41.89 M70.33 33.04C70.33 35.111 72.009 36.79 74.08 36.79C76.151 36.79 77.83 35.111 77.83 33.04C77.83 30.969 76.151 29.29 74.08 29.29C72.009 29.29 70.33 30.969 70.33 33.04 M66.1 29.14C66.1 27.069 64.421 25.39 62.35 25.39C60.279 25.39 58.6 27.069 58.6 29.14C58.6 31.211 60.279 32.89 62.35 32.89C64.421 32.89 66.1 31.211 66.1 29.14"></path></g></g></g><g id="g-root-ic_3_zpodyzxnhfk8-fill" data-item-order="-5184" transform="translate(554, 170)"><g id="ic_3_zpodyzxnhfk8-fill-merged" stroke="none" fill="#484848" fill-opacity="1"><g><path d="M34 40C34.952 40.565 36.043 40.856 37.15 40.84C38.668 40.844 40.14 40.325 41.32 39.37C43.636 40.932 45.516 43.059 46.78 45.55L51.31 46.66C50.712 41.662 52.436 36.665 55.99 33.1C57.128 33.612 58.346 33.927 59.59 34.03C71.41 34.96 75.55 20.11 76.84 12.73C76.96 12.349 76.96 11.941 76.84 11.56C76.637 10.969 76.203 10.486 75.638 10.221C75.073 9.955 74.424 9.93 73.84 10.15C69.842 11.684 65.58 12.408 61.3 12.28C57.608 11.973 54.013 13.57 51.766 16.516C49.519 19.462 48.928 23.35 50.2 26.83C54.075 22.654 59.503 20.266 65.2 20.23C67.81 20.23 68.59 24.37 65.47 24.46C56.974 24.774 49.675 30.589 47.47 38.8C46.315 37.592 45.038 36.506 43.66 35.56C44.209 32.711 42.833 29.839 40.27 28.48 H40C36.554 27.596 32.993 27.242 29.44 27.43C28.844 27.441 28.266 27.64 27.79 28C26.481 28.951 26.162 30.77 27.07 32.11C28.973 35.071 31.309 37.731 34 40 M78.31 58L16 42.64C14.626 42.252 13.15 42.535 12.016 43.403C10.882 44.271 10.224 45.622 10.24 47.05 V80.47C10.24 81.298 10.912 81.97 11.74 81.97 H22.39C23.218 81.97 23.89 81.298 23.89 80.47 V66.76C23.89 66.349 24.055 65.955 24.349 65.667C24.642 65.38 25.039 65.222 25.45 65.23 H34.45C34.861 65.222 35.258 65.38 35.551 65.667C35.845 65.955 36.01 66.349 36.01 66.76 V80.47C36.01 81.298 36.682 81.97 37.51 81.97 H80.26C81.088 81.97 81.76 81.298 81.76 80.47 V62.47C81.793 60.358 80.362 58.503 78.31 58 M52.84 70.63 H48.28C47.037 70.63 46.03 69.623 46.03 68.38C46.03 67.137 47.037 66.13 48.28 66.13 H52.84C54.083 66.13 55.09 67.137 55.09 68.38C55.09 69.623 54.083 70.63 52.84 70.63 M68.08 70.63 H63.52C62.277 70.63 61.27 69.623 61.27 68.38C61.27 67.137 62.277 66.13 63.52 66.13 H68.08C69.323 66.13 70.33 67.137 70.33 68.38C70.33 69.623 69.323 70.63 68.08 70.63"></path></g></g></g><g id="g-root-tx_mycelium_1qa3id7xnhgjv-fill" data-item-order="0" transform="translate(38, 38)"><g id="tx_mycelium_1qa3id7xnhgjv-fill-merged" stroke="none" fill="#484848" fill-opacity="1"><g><text style="font: bold 25px Roboto, sans-serif; white-space: pre;" transform="translate(316, 40)" font-weight="bold" font-size="25px" font-family="Roboto, sans-serif"><tspan x="-302.53" y="-0.13" dominant-baseline="ideographic">Mycelium transforms construction into a sustainable, </tspan><tspan x="-125.7" y="29.87" dominant-baseline="ideographic">regenerative practice.</tspan></text></g></g></g><g id="g-root-tx_unsustai_znsypnxnhgjw-fill" data-item-order="0" transform="translate(26, 314)"><g id="tx_unsustai_znsypnxnhgjw-fill-merged" stroke="none" fill="#e0cb15" fill-opacity="1"><g><text style="font: bold 20px Roboto, sans-serif; white-space: pre;" transform="translate(82, 34)" font-weight="bold" font-size="20px" font-family="Roboto, sans-serif"><tspan x="-66.57" y="0" dominant-baseline="ideographic">Unsustainable </tspan><tspan x="-60.55" y="24" dominant-baseline="ideographic">Construction</tspan></text></g></g></g><g id="g-root-tx_regenera_1qbyxmjxnhfk6-fill" data-item-order="0" transform="translate(524, 314)"><g id="tx_regenera_1qbyxmjxnhfk6-fill-merged" stroke="none" fill="#3cc583" fill-opacity="1"><g><text style="font: bold 20px Roboto, sans-serif; white-space: pre;" transform="translate(76, 34)" font-weight="bold" font-size="20px" font-family="Roboto, sans-serif"><tspan x="-61.7" y="0" dominant-baseline="ideographic">Regenerative </tspan><tspan x="-58.19" y="24" dominant-baseline="ideographic">Architecture</tspan></text></g></g></g><g id="g-root-tx_environm_hx5fazxnhfr9-fill" data-item-order="0" transform="translate(32, 374)"><g id="tx_environm_hx5fazxnhfr9-fill-merged" stroke="none" fill="#484848" fill-opacity="1"><g><text style="font: 15px Roboto, sans-serif; white-space: pre;" transform="translate(76, 28)" font-size="15px" font-family="Roboto, sans-serif"><tspan x="-47.8" y="-0.4" dominant-baseline="ideographic">Environmental </tspan><tspan x="-59.25" y="17.6" dominant-baseline="ideographic">impact and waste</tspan></text></g></g></g><g id="g-root-tx_sustaina_1d0if97xnhh53-fill" data-item-order="0" transform="translate(530, 374)"><g id="tx_sustaina_1d0if97xnhh53-fill-merged" stroke="none" fill="#484848" fill-opacity="1"><g><text style="font: 15px Roboto, sans-serif; white-space: pre;" transform="translate(70, 46)" font-size="15px" font-family="Roboto, sans-serif"><tspan x="-56.73" y="-18.4" dominant-baseline="ideographic">Sustainable, self-</tspan><tspan x="-39.97" y="-0.4" dominant-baseline="ideographic">healing, and </tspan><tspan x="-47.52" y="17.6" dominant-baseline="ideographic">biodegradable </tspan><tspan x="-33.83" y="35.6" dominant-baseline="ideographic">structures</tspan></text></g></g></g><g id="g-root-cp_0b_g-0b_dfghx7xnhhj5-stroke" data-item-order="-269250" transform="translate(194, 158)"><g id="cp_0b_g-0b_dfghx7xnhhj5-stroke" fill="none" stroke-linecap="round" stroke-linejoin="round" stroke-miterlimit="4" stroke="#ffffff" stroke-width="2" stroke-opacity="1"><g><path d="M 154 10L 166 10L 166 35.0574C 187.8738 35.4763 207.9506 38.1584 226 42.122L 226 22L 238 22L 238 45.0143C 262.4798 51.4447 282.7046 60.0398 298 67.9273L 298 58L 310 58L 310 142L 297.9454 142C 297.9816 141.338 298 140.6711 298 140C 298 120.1178 281.8823 104 262 104C 242.1177 104 226 120.1178 226 140C 226 140.6711 226.0184 141.338 226.0546 142L 202 142C 202 118.804 183.196 100 160 100C 136.804 100 118 118.804 118 142L 93.9454 142C 93.9816 141.338 94 140.6711 94 140C 94 120.1178 77.8823 104 58 104C 38.1178 104 22 120.1178 22 140C 22 140.6711 22.0184 141.338 22.0546 142L 10 142L 10 58L 22 58L 22 67.7642C 36.6144 60.0078 57.1128 51.4073 82 44.9648L 82 22L 94 22L 94 42.1104C 112.1709 38.1653 132.3367 35.4818 154 35.0586L 154 10ZM 94 52.3516C 112.0591 48.2951 132.2422 45.5 154 45.0606L 154 67.0596C 132.2907 67.4907 112.1165 70.2288 94 74.229L 94 52.3516ZM 166 45.0593L 166 67.0583C 187.918 67.485 207.9982 70.2209 226 74.2434L 226 52.369C 208.0482 48.286 187.9644 45.494 166 45.0593ZM 238 77.1869L 238 55.3658C 263.0431 62.185 283.3128 71.2859 298 79.2367L 298 100.567C 282.9894 92.6405 262.7439 83.8034 238 77.1869ZM 22 79.1727C 35.6173 71.4195 56.2469 62.2099 82 55.3061L 82 77.1325C 56.717 83.7917 36.1597 92.6772 22 100.4453L 22 79.1727Z"></path></g></g></g><g id="g-root-cp_0a_g-0a_4mgmzxnhfya-stroke" data-item-order="-269245" transform="translate(194, 134)"><g id="cp_0a_g-0a_4mgmzxnhfya-stroke" fill="none" stroke-linecap="round" stroke-linejoin="round" stroke-miterlimit="4" stroke="#484848" stroke-width="2" stroke-dasharray="5.0, 7.0" stroke-opacity="1"><g><path d="M 10 46C 113.1562 -6.1345 219.8007 2.3203 310 46"></path></g></g></g><g id="g-root-ic_city_18fp4fvxnka30-stroke" data-item-order="-5184" transform="translate(62, 170)"></g><g id="g-root-ic_3_zpodyzxnhfk8-stroke" data-item-order="-5184" transform="translate(554, 170)"></g><g id="g-root-tx_mycelium_1qa3id7xnhgjv-stroke" data-item-order="0" transform="translate(38, 38)"></g><g id="g-root-tx_unsustai_znsypnxnhgjw-stroke" data-item-order="0" transform="translate(26, 314)"></g><g id="g-root-tx_regenera_1qbyxmjxnhfk6-stroke" data-item-order="0" transform="translate(524, 314)"></g><g id="g-root-tx_environm_hx5fazxnhfr9-stroke" data-item-order="0" transform="translate(32, 374)"></g><g id="g-root-tx_sustaina_1d0if97xnhh53-stroke" data-item-order="0" transform="translate(530, 374)"></g></g></g></svg>