<?xml version="1.0" encoding="utf-8" standalone="yes"?>
<!DOCTYPE svg PUBLIC "-//W3C//DTD SVG 1.1//EN" "http://www.w3.org/Graphics/SVG/1.1/DTD/svg11.dtd">
<svg style="fill:none;stroke:none;fill-rule:evenodd;clip-rule:evenodd;stroke-linecap:round;stroke-linejoin:round;stroke-miterlimit:1.5;" version="1.1" xmlns="http://www.w3.org/2000/svg" xmlns:xlink="http://www.w3.org/1999/xlink" width="852" height="757" viewBox="0 0 852 757"><style class="text-font-style fontImports" data-font-family="Roboto">@import url(https://fonts.googleapis.com/css2?family=Roboto:wght@400;700&amp;amp;display=block);</style><g id="items" style="isolation: isolate"><g id="blend" style="mix-blend-mode: normal"><g id="g-root-cp_0_g-0_1lpx1a3x3l24v-fill" data-item-order="-530630" transform="translate(182, 206.00003051757812)"><g id="cp_0_g-0_1lpx1a3x3l24v-fill-merged" stroke="none" fill="#484848" fill-opacity="1"><g><path d="M244 442C353.352 442 442 353.352 442 244C442 134.648 353.352 46 244 46C134.648 46 46 134.648 46 244C46 353.352 134.648 442 244 442 M82.527 257.166C82.178 252.824 82 248.433 82 244C82 165.614 137.671 100.231 211.632 85.234C219.336 75.928 230.976 70 244 70C257.024 70 268.664 75.928 276.368 85.234C305.442 91.129 331.69 104.811 352.841 124.008C375.649 124.456 394 143.085 394 166C394 170.302 393.353 174.453 392.151 178.362C401.054 198.426 406 220.635 406 244C406 333.47 333.47 406 244 406C193.494 406 148.386 382.888 118.676 346.662L106 364.5L72.346 317.132C67.104 310.124 64 301.425 64 292C64 277.498 71.35 264.713 82.527 257.166"></path></g></g><g id="cp_0_g-0_1lpx1a3x3l24v-fill-merged" stroke="none" fill="#484848" fill-opacity="1"><g><path d="M118.004 244C118.004 188.435 153.973 141.27 203.898 124.52C202.665 120.566 202 116.361 202 112C202 101.829 205.616 92.502 211.632 85.234C137.671 100.232 82 165.615 82 244C82 248.433 82.178 252.824 82.527 257.167C89.229 252.642 97.306 250 106 250C110.258 250 114.369 250.634 118.242 251.812C118.084 249.229 118.004 246.624 118.004 244 M140.53 315.916C140.3 316.248 140.065 316.576 139.826 316.901L118.676 346.662C148.386 382.888 193.494 406 244 406C333.47 406 406 333.47 406 244C406 220.636 401.054 198.426 392.151 178.362C390.749 182.921 388.592 187.149 385.826 190.901L367.139 217.196C369.011 225.834 369.996 234.802 369.996 244C369.996 290.731 344.557 331.519 306.771 353.272L286 382.5L274.479 366.285C264.72 368.71 254.51 369.997 244 369.997C201.148 369.997 163.292 348.604 140.53 315.916 M317.681 141.782C325.287 131.024 337.823 124 352 124C352.281 124 352.561 124.003 352.841 124.009C331.69 104.812 305.442 91.13 276.368 85.234C282.384 92.502 286 101.829 286 112C286 116.361 285.336 120.566 284.102 124.52C296.223 128.586 307.521 134.446 317.681 141.782"></path></g></g><g id="cp_0_g-0_1lpx1a3x3l24v-fill-merged" stroke="none" fill="#484848" fill-opacity="1"><g><path d="M244 370C254.511 370 264.721 368.713 274.482 366.288L252.346 335.132C251.997 334.666 251.658 334.192 251.328 333.711C248.911 333.906 246.467 334.005 244 334.005C194.292 334.005 153.995 293.708 153.995 244C153.995 201.193 183.88 165.366 223.924 156.243L210.346 137.132C207.529 133.366 205.329 129.11 203.897 124.517C153.97 141.267 118 188.433 118 244C118 246.623 118.08 249.228 118.238 251.811C135.465 257.05 148 273.061 148 292C148 300.888 145.239 309.132 140.528 315.919C163.291 348.608 201.147 370 244 370 M317.683 141.779C312.844 148.624 310 156.98 310 166C310 175.425 313.104 184.124 318.346 191.132L352 238.5L367.142 217.192C369.014 225.831 370 234.801 370 244C370 290.735 344.556 331.526 306.766 353.279L319.826 334.9C324.964 327.933 328 319.321 328 310C328 302.202 325.875 294.9 322.171 288.642C329.701 275.485 334.005 260.245 334.005 244C334.005 201.194 304.122 165.368 264.08 156.244L277.826 136.901C280.561 133.192 282.7 129.017 284.103 124.517C296.224 128.583 307.522 134.442 317.683 141.779"></path></g></g><g id="cp_0_g-0_1lpx1a3x3l24v-fill-merged" stroke="none" fill="#484848" fill-opacity="1"><g><path d="M122.717 43.844C121.366 49.176 118.996 54.101 115.826 58.4L82 106L69.376 88.232C32.446 129.603 10 184.18 10 244C10 373.235 114.765 478 244 478C373.235 478 478 373.235 478 244C478 114.765 373.235 10 244 10C199.598 10 158.085 22.367 122.717 43.844 M244 442.003C134.646 442.003 45.997 353.354 45.997 244C45.997 134.646 134.646 45.997 244 45.997C353.354 45.997 442.003 134.646 442.003 244C442.003 353.354 353.354 442.003 244 442.003"></path></g></g><g id="cp_0_g-0_1lpx1a3x3l24v-fill-merged" stroke="none" fill="#484848" fill-opacity="1"><g><path d="M244 184.5L223.927 156.247C183.884 165.369 154 201.195 154 244C154 293.706 194.294 334 244 334C246.466 334 248.909 333.901 251.325 333.706C246.704 326.96 244 318.796 244 310C244 286.804 262.804 268 286 268C301.396 268 314.856 276.284 322.169 288.637C329.697 275.482 334 260.243 334 244C334 201.196 304.118 165.371 264.077 156.248L244 184.5"></path></g></g></g><g id="g-root-cp_1_g-1_1cua117x3l3pc-fill" data-item-order="-530618" transform="translate(374, 266.0000305175781)"><g id="cp_1_g-1_1cua117x3l3pc-fill-merged" stroke="none" fill="#92bd39" fill-opacity="1"><g><path d="M85.826 76.9C90.964 69.933 94 61.321 94 52C94 28.804 75.196 10 52 10C28.804 10 10 28.804 10 52C10 61.425 13.104 70.124 18.346 77.132L52 124.5L85.826 76.9"></path></g></g></g><g id="g-root-cp_2_g-2_zjfzqzx3l24h-fill" data-item-order="-530614" transform="translate(482, 320.0000305175781)"><g id="cp_2_g-2_zjfzqzx3l24h-fill-merged" stroke="none" fill="#92bd39" fill-opacity="1"><g><path d="M85.826 76.9C90.964 69.933 94 61.321 94 52C94 28.804 75.196 10 52 10C28.804 10 10 28.804 10 52C10 61.425 13.104 70.124 18.346 77.132L52 124.5L85.826 76.9"></path></g></g></g><g id="g-root-cp_3_g-3_qnszi3x3l2x6-fill" data-item-order="-530610" transform="translate(416, 464.0000305175781)"><g id="cp_3_g-3_qnszi3x3l2x6-fill-merged" stroke="none" fill="#3cc583" fill-opacity="1"><g><path d="M85.826 76.9C90.964 69.933 94 61.321 94 52C94 28.804 75.196 10 52 10C28.804 10 10 28.804 10 52C10 61.425 13.104 70.124 18.346 77.132L52 124.5L85.826 76.9"></path></g></g></g><g id="g-root-cp_4_g-4_dcyy7vx3l1cb-fill" data-item-order="-530606" transform="translate(236, 446.0000305175781)"><g id="cp_4_g-4_dcyy7vx3l1cb-fill-merged" stroke="none" fill="#1eabda" fill-opacity="1"><g><path d="M85.826 76.9C90.964 69.933 94 61.321 94 52C94 28.804 75.196 10 52 10C28.804 10 10 28.804 10 52C10 61.425 13.104 70.124 18.346 77.132L52 124.5L85.826 76.9"></path></g></g></g><g id="g-root-cp_5_g-5_8x5g3fx3l24k-fill" data-item-order="-530602" transform="translate(212, 187.50003051757812)"><g id="cp_5_g-5_8x5g3fx3l24k-fill-merged" stroke="none" fill="#4e88e7" fill-opacity="1"><g><path d="M85.826 76.9C90.964 69.933 94 61.321 94 52C94 28.804 75.196 10 52 10C28.804 10 10 28.804 10 52C10 61.425 13.104 70.124 18.346 77.132L52 124.5L85.826 76.9"></path></g></g></g><g id="g-root-tx_5_142dvazx3l2iq-fill" data-item-order="0" transform="translate(242, 211.50003051757812)"><g id="tx_5_142dvazx3l2iq-fill-merged" stroke="none" fill="#ffffff" fill-opacity="1"><g><text style="font: bold 25px Roboto, sans-serif; white-space: pre;" transform="translate(22, 28)" font-weight="bold" font-size="25px" font-family="Roboto, sans-serif"><tspan x="-7.17" y="14.87" dominant-baseline="ideographic">5</tspan></text></g></g></g><g id="g-root-tx_familyan_1qaqc3fx3l1jh-fill" data-item-order="0" transform="translate(650, 188.00003051757812)"><g id="tx_familyan_1qaqc3fx3l1jh-fill-merged" stroke="none" fill="#92bd39" fill-opacity="1"><g><text style="font: bold 20px Roboto, sans-serif; white-space: pre;" transform="translate(10, 46)" font-weight="bold" font-size="20px" font-family="Roboto, sans-serif"><tspan x="2" y="-12" dominant-baseline="ideographic">Family and </tspan><tspan x="2" y="12" dominant-baseline="ideographic">Community </tspan><tspan x="2" y="36" dominant-baseline="ideographic">Bonds</tspan></text></g></g></g><g id="g-root-tx_envision_vahpkrx3l1c4-fill" data-item-order="0" transform="translate(38, 260.0000305175781)"><g id="tx_envision_vahpkrx3l1c4-fill-merged" stroke="none" fill="#484848" fill-opacity="1"><g><text style="font: 15px Roboto, sans-serif; white-space: pre;" transform="translate(154, 28)" font-size="15px" font-family="Roboto, sans-serif"><tspan x="-136.98" y="-0.4" dominant-baseline="ideographic">Envisioning an ideal, </tspan><tspan x="-120.62" y="17.6" dominant-baseline="ideographic">eco-friendly world</tspan></text></g></g></g><g id="g-root-tx_utopianf_18lbquzx3l2wz-fill" data-item-order="0" transform="translate(38, 224.00003051757812)"><g id="tx_utopianf_18lbquzx3l2wz-fill-merged" stroke="none" fill="#4e88e7" fill-opacity="1"><g><text style="font: bold 20px Roboto, sans-serif; white-space: pre;" transform="translate(154, 22)" font-weight="bold" font-size="20px" font-family="Roboto, sans-serif"><tspan x="-134.28" y="12" dominant-baseline="ideographic">Utopian Future</tspan></text></g></g></g><g id="g-root-tx_1_v5hwvvx3l15a-fill" data-item-order="0" transform="translate(404, 290.0000305175781)"><g id="tx_1_v5hwvvx3l15a-fill-merged" stroke="none" fill="#ffffff" fill-opacity="1"><g><text style="font: bold 25px Roboto, sans-serif; white-space: pre;" transform="translate(22, 28)" font-weight="bold" font-size="25px" font-family="Roboto, sans-serif"><tspan x="-7.17" y="14.87" dominant-baseline="ideographic">1</tspan></text></g></g></g><g id="g-root-tx_usingbio_hx5ry3x3l3wo-fill" data-item-order="0" transform="translate(650, 554)"><g id="tx_usingbio_hx5ry3x3l3wo-fill-merged" stroke="none" fill="#484848" fill-opacity="1"><g><text style="font: 15px Roboto, sans-serif; white-space: pre;" transform="translate(10, 40)" font-size="15px" font-family="Roboto, sans-serif"><tspan x="2" y="-9.4" dominant-baseline="ideographic">Using bio-based </tspan><tspan x="2" y="8.6" dominant-baseline="ideographic">materials for eco-</tspan><tspan x="2" y="26.6" dominant-baseline="ideographic">friendliness</tspan></text></g></g></g><g id="g-root-tx_theultim_4kgbejx3l3bg-fill" data-item-order="0" transform="translate(332, 146.00003051757812)"><g id="tx_theultim_4kgbejx3l3bg-fill-merged" stroke="none" fill="#484848" fill-opacity="1"><g><text style="font: 15px Roboto, sans-serif; white-space: pre;" transform="translate(94, 28)" font-size="15px" font-family="Roboto, sans-serif"><tspan x="-81.04" y="-0.4" dominant-baseline="ideographic">The ultimate goal of the </tspan><tspan x="-24.97" y="17.6" dominant-baseline="ideographic">project</tspan></text></g></g></g><g id="g-root-tx_2_de7we3x3l3if-fill" data-item-order="0" transform="translate(512, 344.0000305175781)"><g id="tx_2_de7we3x3l3if-fill-merged" stroke="none" fill="#ffffff" fill-opacity="1"><g><text style="font: bold 25px Roboto, sans-serif; white-space: pre;" transform="translate(22, 28)" font-weight="bold" font-size="25px" font-family="Roboto, sans-serif"><tspan x="-7.17" y="14.87" dominant-baseline="ideographic">2</tspan></text></g></g></g><g id="g-root-tx_ecologic_qqxcxnx3l43n-fill" data-item-order="0" transform="translate(320, 110)"><g id="tx_ecologic_qqxcxnx3l43n-fill-merged" stroke="none" fill="#92bd39" fill-opacity="1"><g><text style="font: bold 20px Roboto, sans-serif; white-space: pre;" transform="translate(106, 22)" font-weight="bold" font-size="20px" font-family="Roboto, sans-serif"><tspan x="-89.75" y="12" dominant-baseline="ideographic">Ecological Harmony</tspan></text></g></g></g><g id="g-root-tx_hyphaene_1lrsgjfx3l159-fill" data-item-order="0" transform="translate(260, 38)"><g id="tx_hyphaene_1lrsgjfx3l159-fill-merged" stroke="none" fill="#484848" fill-opacity="1"><g><text style="font: bold 25px Roboto, sans-serif; white-space: pre;" transform="translate(166, 28)" font-weight="bold" font-size="25px" font-family="Roboto, sans-serif"><tspan x="-153.63" y="14.87" dominant-baseline="ideographic">Hyphae Nest Project Vision</tspan></text></g></g></g><g id="g-root-tx_4_1hd7wl7x3l43l-fill" data-item-order="0" transform="translate(266, 470.0000305175781)"><g id="tx_4_1hd7wl7x3l43l-fill-merged" stroke="none" fill="#ffffff" fill-opacity="1"><g><text style="font: bold 25px Roboto, sans-serif; white-space: pre;" transform="translate(22, 28)" font-weight="bold" font-size="25px" font-family="Roboto, sans-serif"><tspan x="-7.17" y="14.87" dominant-baseline="ideographic">4</tspan></text></g></g></g><g id="g-root-tx_3_3dv3vx3l1xk-fill" data-item-order="0" transform="translate(446, 488.0000305175781)"><g id="tx_3_3dv3vx3l1xk-fill-merged" stroke="none" fill="#ffffff" fill-opacity="1"><g><text style="font: bold 25px Roboto, sans-serif; white-space: pre;" transform="translate(22, 28)" font-weight="bold" font-size="25px" font-family="Roboto, sans-serif"><tspan x="-7.17" y="14.87" dominant-baseline="ideographic">3</tspan></text></g></g></g><g id="g-root-tx_livingor_4mbqnvx3l2bt-fill" data-item-order="0" transform="translate(26, 518)"><g id="tx_livingor_4mbqnvx3l2bt-fill-merged" stroke="none" fill="#1eabda" fill-opacity="1"><g><text style="font: bold 20px Roboto, sans-serif; white-space: pre;" transform="translate(166, 22)" font-weight="bold" font-size="20px" font-family="Roboto, sans-serif"><tspan x="-148.3" y="12" dominant-baseline="ideographic">Living Organism</tspan></text></g></g></g><g id="g-root-tx_sustaina_v8mabfx3l2br-fill" data-item-order="0" transform="translate(650, 518)"><g id="tx_sustaina_v8mabfx3l2br-fill-merged" stroke="none" fill="#3cc583" fill-opacity="1"><g><text style="font: bold 20px Roboto, sans-serif; white-space: pre;" transform="translate(10, 22)" font-weight="bold" font-size="20px" font-family="Roboto, sans-serif"><tspan x="2" y="12" dominant-baseline="ideographic">Sustainability</tspan></text></g></g></g><g id="g-root-tx_conceptu_1qbza9nx3l3pm-fill" data-item-order="0" transform="translate(38, 554)"><g id="tx_conceptu_1qbza9nx3l3pm-fill-merged" stroke="none" fill="#484848" fill-opacity="1"><g><text style="font: 15px Roboto, sans-serif; white-space: pre;" transform="translate(154, 40)" font-size="15px" font-family="Roboto, sans-serif"><tspan x="-134.08" y="-9.4" dominant-baseline="ideographic">Conceptualizing the </tspan><tspan x="-137.44" y="8.6" dominant-baseline="ideographic">built environment as </tspan><tspan x="-32.58" y="26.6" dominant-baseline="ideographic">alive</tspan></text></g></g></g><g id="g-root-tx_strength_1cz9tq3x3l34e-fill" data-item-order="0" transform="translate(650, 272.0000305175781)"><g id="tx_strength_1cz9tq3x3l34e-fill-merged" stroke="none" fill="#484848" fill-opacity="1"><g><text style="font: 15px Roboto, sans-serif; white-space: pre;" transform="translate(10, 40)" font-size="15px" font-family="Roboto, sans-serif"><tspan x="2" y="-9.4" dominant-baseline="ideographic">Strengthening social </tspan><tspan x="2" y="8.6" dominant-baseline="ideographic">connections within the </tspan><tspan x="2" y="26.6" dominant-baseline="ideographic">habitat</tspan></text></g></g></g><g id="g-root-cp_0_g-0_1lpx1a3x3l24v-stroke" data-item-order="-530630" transform="translate(182, 206.00003051757812)"><g id="cp_0_g-0_1lpx1a3x3l24v-stroke" fill="none" stroke-linecap="round" stroke-linejoin="round" stroke-miterlimit="4" stroke="#484848" stroke-width="2" stroke-opacity="1"><g><path d="M 244 442C 353.3524 442 442 353.3524 442 244C 442 134.6476 353.3524 46 244 46C 134.6476 46 46 134.6476 46 244C 46 353.3524 134.6476 442 244 442ZM 82.527 257.1664C 82.1778 252.8237 81.9997 248.4326 81.9997 244C 81.9997 165.6142 137.6715 100.2312 211.6324 85.2337C 219.3361 75.9283 230.9758 70 244 70C 257.0242 70 268.6639 75.9283 276.3676 85.2337C 305.4421 91.1293 331.6904 104.8111 352.8414 124.0083C 375.649 124.4565 394 143.0852 394 166C 394 170.3023 393.3531 174.4534 392.1513 178.3616C 401.054 198.4258 406.0003 220.6353 406.0003 244C 406.0003 333.4703 333.4703 406.0003 244 406.0003C 193.4939 406.0003 148.386 382.8877 118.6761 346.6624L 106 364.5L 72.3459 317.132C 67.1042 310.1241 64 301.4246 64 292C 64 277.4984 71.3496 264.7133 82.527 257.1664Z"></path></g></g><g id="cp_0_g-0_1lpx1a3x3l24v-stroke" fill="none" stroke-linecap="round" stroke-linejoin="round" stroke-miterlimit="4" stroke="#484848" stroke-width="2" stroke-opacity="1"><g><path d="M 118.0035 244.000275C 118.0035 188.434575 153.9728 141.269875 203.8976 124.519975C 202.6645 120.565775 202 116.360675 202 112.000275C 202 101.828775 205.6158 92.501675 211.6321 85.234375C 137.6715 100.231875 82 165.614675 82 244.000275C 82 248.432975 82.178 252.823975 82.5273 257.166775C 89.2286 252.642175 97.3058 250.000475 106 250.000475C 110.2583 250.000475 114.3686 250.634275 118.2418 251.812475C 118.0837 249.228675 118.0035 246.623875 118.0035 244.000275ZM 140.5303 315.916475C 140.3001 316.248175 140.0654 316.576275 139.826 316.900875L 118.6763 346.662475C 148.3862 382.887775 193.494 406.000275 244 406.000275C 333.4701 406.000275 406 333.470475 406 244.000275C 406 220.635775 401.0538 198.426475 392.1512 178.362375C 390.7493 182.921275 388.5922 187.149475 385.826 190.900875L 367.1394 217.196475C 369.0108 225.834275 369.9965 234.802175 369.9965 244.000275C 369.9965 290.730575 344.5567 331.519075 306.7709 353.271875L 286 382.500475L 274.4794 366.285275C 264.7195 368.709975 254.51 369.996775 244 369.996775C 201.148 369.996775 163.2925 348.604475 140.5303 315.916475ZM 317.6813 141.782375C 325.2868 131.024475 337.8231 124.000475 352 124.000475C 352.2811 124.000475 352.5615 124.003275 352.8412 124.008775C 331.6903 104.811775 305.4422 91.129975 276.3679 85.234375C 282.3842 92.501675 286 101.828775 286 112.000275C 286 116.360675 285.3355 120.565775 284.1024 124.519975C 296.2229 128.586475 307.5209 134.445575 317.6813 141.782375Z"></path></g></g><g id="cp_0_g-0_1lpx1a3x3l24v-stroke" fill="none" stroke-linecap="round" stroke-linejoin="round" stroke-miterlimit="4" stroke="#484848" stroke-width="2" stroke-opacity="1"><g><path d="M 244 370.000202C 254.5109 370.000202 264.7211 368.713202 274.4818 366.288202L 252.3459 335.131902C 251.9971 334.665602 251.6578 334.191902 251.3283 333.710902C 248.9112 333.905602 246.4672 334.004902 244 334.004902C 194.2918 334.004902 153.9953 293.708402 153.9953 244.000202C 153.9953 201.193102 183.8797 165.365802 223.9238 156.243002L 210.3459 137.132202C 207.5286 133.365702 205.3288 129.110402 203.8966 124.516602C 153.9703 141.266902 118 188.432902 118 244.000202C 118 246.623302 118.0802 249.227602 118.2381 251.810902C 135.4646 257.049902 148 273.061002 148 292.000002C 148 300.888202 145.239 309.131602 140.528 315.919302C 163.2909 348.607602 201.1472 370.000202 244 370.000202ZM 317.6832 141.779302C 312.8436 148.623702 310 156.979802 310 166.000002C 310 175.424602 313.1042 184.124102 318.3459 191.131902L 352 238.500002L 367.1421 217.192202C 369.0141 225.831302 370 234.800602 370 244.000202C 370 290.734702 344.5563 331.526502 306.7655 353.279002L 319.826 334.900402C 324.9636 327.932902 328 319.321002 328 310.000002C 328 302.201502 325.8746 294.899502 322.1714 288.641502C 329.7009 275.484902 334.0047 260.245202 334.0047 244.000202C 334.0047 201.194402 304.1222 165.368002 264.08 156.243802L 277.826 136.900702C 280.561 133.191602 282.7004 129.016602 284.1034 124.516602C 296.2242 128.583102 307.5225 134.442402 317.6832 141.779302Z"></path></g></g><g id="cp_0_g-0_1lpx1a3x3l24v-stroke" fill="none" stroke-linecap="round" stroke-linejoin="round" stroke-miterlimit="4" stroke="#484848" stroke-width="2" stroke-opacity="1"><g><path d="M 122.7166 43.8441C 121.3662 49.1758 118.9961 54.1012 115.826 58.4004L 82 106L 69.3762 88.2321C 32.4465 129.6032 10 184.1803 10 244C 10 373.2346 114.7654 478 244 478C 373.2346 478 478 373.2346 478 244C 478 114.7654 373.2346 10 244 10C 199.5983 10 158.0849 22.3669 122.7166 43.8441ZM 244 442.0034C 134.6458 442.0034 45.9966 353.3542 45.9966 244C 45.9966 134.6458 134.6458 45.9966 244 45.9966C 353.3542 45.9966 442.0034 134.6458 442.0034 244C 442.0034 353.3542 353.3542 442.0034 244 442.0034Z"></path></g></g><g id="cp_0_g-0_1lpx1a3x3l24v-stroke" fill="none" stroke-linecap="round" stroke-linejoin="round" stroke-miterlimit="4" stroke="#484848" stroke-width="2" stroke-opacity="1"><g><path d="M 244 184.50027L 223.9267 156.24707C 183.8837 165.36867 154 201.19457 154 244.00027C 154 293.70587 194.2944 334.00027 244 334.00027C 246.4662 334.00027 248.9092 333.90107 251.3252 333.70647C 246.7036 326.95957 244 318.79557 244 309.99997C 244 286.80407 262.804 267.99997 286 267.99997C 301.3956 267.99997 314.8564 276.28357 322.1687 288.63687C 329.697 275.48157 334 260.24337 334 244.00027C 334 201.19597 304.1182 165.37097 264.0771 156.24797L 244 184.50027Z"></path></g></g></g><g id="g-root-cp_1_g-1_1cua117x3l3pc-stroke" data-item-order="-530618" transform="translate(374, 266.0000305175781)"><g id="cp_1_g-1_1cua117x3l3pc-stroke" fill="none" stroke-linecap="round" stroke-linejoin="round" stroke-miterlimit="4" stroke="#ffffff" stroke-width="2" stroke-opacity="1"><g><path d="M 85.826 76.9004C 90.9636 69.9329 94 61.321 94 52C 94 28.804 75.196 10 52 10C 28.804 10 10 28.804 10 52C 10 61.4246 13.1042 70.1241 18.3459 77.1319L 52 124.5L 85.826 76.9004Z"></path></g></g></g><g id="g-root-cp_2_g-2_zjfzqzx3l24h-stroke" data-item-order="-530614" transform="translate(482, 320.0000305175781)"><g id="cp_2_g-2_zjfzqzx3l24h-stroke" fill="none" stroke-linecap="round" stroke-linejoin="round" stroke-miterlimit="4" stroke="#ffffff" stroke-width="2" stroke-opacity="1"><g><path d="M 85.826 76.9004C 90.9636 69.9329 94 61.321 94 52C 94 28.804 75.196 10 52 10C 28.804 10 10 28.804 10 52C 10 61.4246 13.1042 70.1241 18.3459 77.1319L 52 124.5L 85.826 76.9004Z"></path></g></g></g><g id="g-root-cp_3_g-3_qnszi3x3l2x6-stroke" data-item-order="-530610" transform="translate(416, 464.0000305175781)"><g id="cp_3_g-3_qnszi3x3l2x6-stroke" fill="none" stroke-linecap="round" stroke-linejoin="round" stroke-miterlimit="4" stroke="#ffffff" stroke-width="2" stroke-opacity="1"><g><path d="M 85.826 76.9004C 90.9636 69.9329 94 61.321 94 52C 94 28.804 75.196 10 52 10C 28.804 10 10 28.804 10 52C 10 61.4246 13.1042 70.1241 18.3459 77.1319L 52 124.5L 85.826 76.9004Z"></path></g></g></g><g id="g-root-cp_4_g-4_dcyy7vx3l1cb-stroke" data-item-order="-530606" transform="translate(236, 446.0000305175781)"><g id="cp_4_g-4_dcyy7vx3l1cb-stroke" fill="none" stroke-linecap="round" stroke-linejoin="round" stroke-miterlimit="4" stroke="#ffffff" stroke-width="2" stroke-opacity="1"><g><path d="M 85.826 76.9004C 90.9636 69.9329 94 61.321 94 52C 94 28.804 75.196 10 52 10C 28.804 10 10 28.804 10 52C 10 61.4246 13.1042 70.1241 18.3459 77.1319L 52 124.5L 85.826 76.9004Z"></path></g></g></g><g id="g-root-cp_5_g-5_8x5g3fx3l24k-stroke" data-item-order="-530602" transform="translate(212, 187.50003051757812)"><g id="cp_5_g-5_8x5g3fx3l24k-stroke" fill="none" stroke-linecap="round" stroke-linejoin="round" stroke-miterlimit="4" stroke="#ffffff" stroke-width="2" stroke-opacity="1"><g><path d="M 85.826 76.9004C 90.9636 69.9329 94 61.321 94 52C 94 28.804 75.196 10 52 10C 28.804 10 10 28.804 10 52C 10 61.4246 13.1042 70.1241 18.3459 77.1319L 52 124.5L 85.826 76.9004Z"></path></g></g></g><g id="g-root-tx_5_142dvazx3l2iq-stroke" data-item-order="0" transform="translate(242, 211.50003051757812)"></g><g id="g-root-tx_familyan_1qaqc3fx3l1jh-stroke" data-item-order="0" transform="translate(650, 188.00003051757812)"></g><g id="g-root-tx_envision_vahpkrx3l1c4-stroke" data-item-order="0" transform="translate(38, 260.0000305175781)"></g><g id="g-root-tx_utopianf_18lbquzx3l2wz-stroke" data-item-order="0" transform="translate(38, 224.00003051757812)"></g><g id="g-root-tx_1_v5hwvvx3l15a-stroke" data-item-order="0" transform="translate(404, 290.0000305175781)"></g><g id="g-root-tx_usingbio_hx5ry3x3l3wo-stroke" data-item-order="0" transform="translate(650, 554)"></g><g id="g-root-tx_theultim_4kgbejx3l3bg-stroke" data-item-order="0" transform="translate(332, 146.00003051757812)"></g><g id="g-root-tx_2_de7we3x3l3if-stroke" data-item-order="0" transform="translate(512, 344.0000305175781)"></g><g id="g-root-tx_ecologic_qqxcxnx3l43n-stroke" data-item-order="0" transform="translate(320, 110)"></g><g id="g-root-tx_hyphaene_1lrsgjfx3l159-stroke" data-item-order="0" transform="translate(260, 38)"></g><g id="g-root-tx_4_1hd7wl7x3l43l-stroke" data-item-order="0" transform="translate(266, 470.0000305175781)"></g><g id="g-root-tx_3_3dv3vx3l1xk-stroke" data-item-order="0" transform="translate(446, 488.0000305175781)"></g><g id="g-root-tx_livingor_4mbqnvx3l2bt-stroke" data-item-order="0" transform="translate(26, 518)"></g><g id="g-root-tx_sustaina_v8mabfx3l2br-stroke" data-item-order="0" transform="translate(650, 518)"></g><g id="g-root-tx_conceptu_1qbza9nx3l3pm-stroke" data-item-order="0" transform="translate(38, 554)"></g><g id="g-root-tx_strength_1cz9tq3x3l34e-stroke" data-item-order="0" transform="translate(650, 272.0000305175781)"></g></g></g></svg>