<?xml version="1.0" encoding="utf-8" standalone="yes"?>
<!DOCTYPE svg PUBLIC "-//W3C//DTD SVG 1.1//EN" "http://www.w3.org/Graphics/SVG/1.1/DTD/svg11.dtd">
<svg style="fill:none;stroke:none;fill-rule:evenodd;clip-rule:evenodd;stroke-linecap:round;stroke-linejoin:round;stroke-miterlimit:1.5;" version="1.1" xmlns="http://www.w3.org/2000/svg" xmlns:xlink="http://www.w3.org/1999/xlink" width="900" height="702" viewBox="0 0 900 702"><style class="text-font-style fontImports" data-font-family="Montserrat">@import url(https://fonts.googleapis.com/css2?family=Montserrat:wght@400;700&amp;amp;display=block);</style><g id="items" style="isolation: isolate"><g id="blend" style="mix-blend-mode: normal"><g id="g-root-cp_resolution_g-resolution_mcczcbvfm39j-fill" data-item-order="-516302" transform="translate(435, 416)"><g id="cp_resolution_g-resolution_mcczcbvfm39j-fill-merged" stroke="none" fill="#c5b843" fill-opacity="1"><g><path d="M137.279 41.279C143.315 35.243 148.901 28.799 154 22 H261 V10L309.151 58L261 106 V94 H10C33.638 94 57.044 89.344 78.883 80.298C100.722 71.253 120.565 57.994 137.279 41.279"></path></g></g></g><g id="g-root-cp_4_g-4_hwjh7vvfm41s-fill" data-item-order="-516296" transform="translate(255, 320)"><g id="cp_4_g-4_hwjh7vvfm41s-fill-merged" stroke="none" fill="#c5b843" fill-opacity="1"><g><path d="M46 118C36.979 105.973 29.481 92.835 23.702 78.883C14.656 57.044 10 33.638 10 10 H81.993C81.993 24.184 84.787 38.228 90.215 51.332C95.643 64.436 103.599 76.343 113.628 86.372C123.657 96.401 135.564 104.357 148.668 109.785C161.405 115.061 175.031 117.848 188.809 118 H46"></path></g></g></g><g id="g-root-cp_3_g-3_90wgyzvfm4uh-fill" data-item-order="-516290" transform="translate(255, 140)"><g id="cp_3_g-3_90wgyzvfm4uh-fill-merged" stroke="none" fill="#e6d96a" fill-opacity="1"><g><path d="M10 190C10 142.261 28.964 96.477 62.721 62.721C96.477 28.964 142.261 10 190 10 V81.965C161.347 81.965 133.868 93.347 113.608 113.608C93.347 133.868 81.965 161.347 81.965 190 H10"></path></g></g></g><g id="g-root-cp_2_g-2_4lpfxnvfm2gy-fill" data-item-order="-516284" transform="translate(435, 140)"><g id="cp_2_g-2_4lpfxnvfm2gy-fill-merged" stroke="none" fill="#fff06b" fill-opacity="1"><g><path d="M10 10C33.638 10 57.044 14.656 78.883 23.702C100.722 32.748 120.565 46.006 137.279 62.721C153.994 79.435 167.253 99.278 176.298 121.117C185.344 142.956 190 166.362 190 190 H118.035C118.035 175.813 115.241 161.764 109.812 148.657C104.382 135.549 96.424 123.64 86.392 113.608C76.36 103.576 64.451 95.618 51.343 90.188C38.236 84.759 24.187 81.965 10 81.965 V10"></path></g></g></g><g id="g-root-cp_1_g-1_1ur6hnvvfm32j-fill" data-item-order="-516278" transform="translate(435, 320)"><g id="cp_1_g-1_1ur6hnvvfm32j-fill-merged" stroke="none" fill="#c8be68" fill-opacity="1"><g><path d="M190 10C190 33.638 185.344 57.044 176.298 78.883C167.253 100.722 153.994 120.565 137.279 137.279C120.565 153.994 100.722 167.253 78.883 176.298C57.044 185.344 33.638 190 10 190 V118.089C24.194 118.089 38.25 115.294 51.364 109.862C64.478 104.429 76.394 96.468 86.431 86.431C96.468 76.394 104.429 64.478 109.862 51.364C115.294 38.25 118.089 24.194 118.089 10 H190"></path></g></g></g><g id="g-root-cp_problem_g-problem_1qbczjfvfm3us-fill" data-item-order="-516272" transform="translate(182, 428)"><g id="cp_problem_g-problem_1qbczjfvfm3us-fill-merged" stroke="none" fill="#b4a418" fill-opacity="1"><g><path d="M10 10 H263 V82 H10 V10"></path></g></g></g><g id="g-root-ic_outd_1qclxpnvfqayt-fill" data-item-order="-2304" transform="translate(591, 440)"><g id="ic_outd_1qclxpnvfqayt-fill-merged" stroke="none" fill="#ffffff" fill-opacity="1"><g><path d="M56.76 56.5C56.749 55.676 56.084 55.011 55.26 55 H48.5 V44.5C48.5 44.224 48.724 44 49 44 H51.5C54.663 44.005 57.37 41.732 57.914 38.616C58.457 35.5 56.678 32.446 53.7 31.38C52.654 27.793 49.127 25.523 45.429 26.057C41.731 26.59 38.99 29.764 39 33.5C38.996 34.073 39.063 34.644 39.2 35.2C37.077 35.855 35.75 37.96 36.075 40.158C36.399 42.355 38.279 43.987 40.5 44 H40.76C41.449 46.307 43.217 48.135 45.5 48.9 V55 H38.84C38.564 55 38.34 54.776 38.34 54.5 V51C38.34 50.724 38.564 50.5 38.84 50.5 H40.84C41.668 50.5 42.34 49.828 42.34 49C42.34 48.172 41.668 47.5 40.84 47.5 H20.84C20.012 47.5 19.34 48.172 19.34 49C19.34 49.828 20.012 50.5 20.84 50.5 H22.84C23.116 50.5 23.34 50.724 23.34 51 V54.5C23.34 54.776 23.116 55 22.84 55 H22C21.724 55 21.5 54.776 21.5 54.5 V53C21.5 52.724 21.276 52.5 21 52.5C19.067 52.5 17.5 50.933 17.5 49C17.5 47.067 19.067 45.5 21 45.5 H31C31.552 45.5 32 45.052 32 44.5 V23C32 21.343 30.657 20 29 20 H26.5C26.224 20 26 19.776 26 19.5 V16C26 14.895 25.105 14 24 14 H23C22.724 14 22.5 13.776 22.5 13.5 V11.5C22.5 10.672 21.828 10 21 10C20.172 10 19.5 10.672 19.5 11.5 V13.5C19.5 13.776 19.276 14 19 14 H18C16.895 14 16 14.895 16 16 V19.5C16 19.776 15.776 20 15.5 20 H13C11.343 20 10 21.343 10 23 V57C9.998 57.261 10.099 57.512 10.28 57.7C10.468 57.895 10.729 58.004 11 58 H55.26C56.084 57.989 56.749 57.324 56.76 56.5 M16.5 25.5 H25.5C26.328 25.5 27 26.172 27 27C27 27.828 26.328 28.5 25.5 28.5 H16.5C15.672 28.5 15 27.828 15 27C15 26.172 15.672 25.5 16.5 25.5 M15 35C15 34.172 15.672 33.5 16.5 33.5 H25.5C26.328 33.5 27 34.172 27 35C27 35.828 26.328 36.5 25.5 36.5 H16.5C15.672 36.5 15 35.828 15 35 M35.34 54.5C35.34 54.776 35.116 55 34.84 55 H26.84C26.564 55 26.34 54.776 26.34 54.5 V51C26.34 50.724 26.564 50.5 26.84 50.5 H34.84C35.116 50.5 35.34 50.724 35.34 51 V54.5 M45.5 45.62C44.866 45.221 44.349 44.662 44 44 H45.48 V45.62"></path></g></g></g><g id="g-root-ic_1_1usffu3vfm58n-fill" data-item-order="-2304" transform="translate(286, 440)"><g id="ic_1_1usffu3vfm58n-fill-merged" stroke="none" fill="#ffffff" fill-opacity="1"><g><path d="M33.22 37.02C32.76 32.8 32.46 30 32 25.66C31.919 24.902 31.282 24.326 30.52 24.32 H25.5C24.734 24.325 24.091 24.899 24 25.66L22.4 40.52C25.572 38.291 29.343 37.071 33.22 37.02 M29.22 27.32L29.68 31.68 H26.36L26.84 27.32 H29.22 M44.6 40.52L42.98 25.66C42.899 24.902 42.262 24.326 41.5 24.32 H36.5C35.734 24.325 35.091 24.899 35 25.66L33.78 37.02C37.657 37.071 41.428 38.291 44.6 40.52 M40.16 27.32L40.62 31.68 H37.36L37.84 27.32 H40.16 M49.76 57.28C49.863 57.209 49.946 57.113 50 57C50.163 54.782 49.807 52.557 48.96 50.5C46.065 43.122 38.334 38.845 30.546 40.312C22.758 41.778 17.113 48.575 17.1 56.5C17.094 56.807 17.185 57.108 17.36 57.36C17.541 57.642 17.818 57.848 18.14 57.94C20.356 58.127 22.584 58.127 24.8 57.94C25.403 57.931 25.942 57.563 26.169 57.005C26.395 56.446 26.266 55.806 25.84 55.38L21.2 50.9C22.907 47.129 26.248 44.35 30.267 43.359C34.285 42.368 38.536 43.275 41.8 45.82L39.94 47.38 H36.42C34.836 47.363 33.312 47.992 32.2 49.12L31.9 49.44C30.945 50.425 30.488 51.79 30.659 53.151C30.83 54.513 31.611 55.722 32.78 56.44C34.78 57.78 34.9 57.96 35.5 57.96C49.5 57.96 48.8 58.08 49.34 57.7C49.463 57.612 49.577 57.511 49.68 57.4L49.76 57.28 M42 22C43.441 22.005 44.679 20.977 44.94 19.56C47.045 20.512 49.528 19.897 50.947 18.074C52.365 16.25 52.349 13.692 50.908 11.886C49.468 10.08 46.977 9.496 44.884 10.474C42.791 11.451 41.64 13.736 42.1 16C40.443 15.972 39.078 17.293 39.05 18.95C39.022 20.607 40.343 21.972 42 22 M25 16C25 17.657 26.343 19 28 19C29.657 19 31 17.657 31 16C31 14.343 29.657 13 28 13C26.343 13 25 14.343 25 16"></path></g></g></g><g id="g-root-ic_3_1hgyxgrvfoydn-fill" data-item-order="-2304" transform="translate(316, 188)"><g id="ic_3_1hgyxgrvfoydn-fill-merged" stroke="none" fill="#ffffff" fill-opacity="1"><g><path d="M26 30C26.635 30.377 27.362 30.571 28.1 30.56C29.112 30.563 30.094 30.217 30.88 29.58C32.424 30.621 33.677 32.039 34.52 33.7L37.54 34.44C37.141 31.108 38.291 27.777 40.66 25.4C41.419 25.742 42.231 25.951 43.06 26.02C50.94 26.64 53.7 16.74 54.56 11.82C54.64 11.566 54.64 11.294 54.56 11.04C54.425 10.646 54.136 10.324 53.759 10.147C53.382 9.97 52.95 9.953 52.56 10.1C49.895 11.123 47.053 11.605 44.2 11.52C41.738 11.315 39.342 12.38 37.844 14.344C36.346 16.308 35.952 18.9 36.8 21.22C39.383 18.436 43.002 16.844 46.8 16.82C48.54 16.82 49.06 19.58 46.98 19.64C41.316 19.85 36.45 23.726 34.98 29.2C34.21 28.394 33.359 27.671 32.44 27.04C32.806 25.141 31.889 23.226 30.18 22.32 H30C27.702 21.731 25.329 21.495 22.96 21.62C22.562 21.627 22.177 21.76 21.86 22C20.987 22.634 20.775 23.847 21.38 24.74C22.649 26.714 24.206 28.487 26 30 M55.54 42L14 31.76C13.084 31.502 12.1 31.69 11.344 32.269C10.588 32.847 10.149 33.748 10.16 34.7 V56.98C10.16 57.532 10.608 57.98 11.16 57.98 H18.26C18.812 57.98 19.26 57.532 19.26 56.98 V47.84C19.26 47.566 19.37 47.303 19.566 47.112C19.761 46.92 20.026 46.815 20.3 46.82 H26.3C26.574 46.815 26.839 46.92 27.034 47.112C27.23 47.303 27.34 47.566 27.34 47.84 V56.98C27.34 57.532 27.788 57.98 28.34 57.98 H56.84C57.392 57.98 57.84 57.532 57.84 56.98 V44.98C57.862 43.572 56.908 42.336 55.54 42 M38.56 50.42 H35.52C34.692 50.42 34.02 49.748 34.02 48.92C34.02 48.092 34.692 47.42 35.52 47.42 H38.56C39.388 47.42 40.06 48.092 40.06 48.92C40.06 49.748 39.388 50.42 38.56 50.42 M48.72 50.42 H45.68C44.852 50.42 44.18 49.748 44.18 48.92C44.18 48.092 44.852 47.42 45.68 47.42 H48.72C49.548 47.42 50.22 48.092 50.22 48.92C50.22 49.748 49.548 50.42 48.72 50.42"></path></g></g></g><g id="g-root-ic_plan_40ijvvfovt6-fill" data-item-order="-2304" transform="translate(507, 188)"><g id="ic_plan_40ijvvfovt6-fill-merged" stroke="none" fill="#ffffff" fill-opacity="1"><g><path d="M56 28C57.105 28 58 27.105 58 26 V19C58 17.343 56.657 16 55 16 H44C43.448 16 43 15.552 43 15 V13C43 11.343 41.657 10 40 10 H19C17.343 10 16 11.343 16 13 V28C16 28.552 15.552 29 15 29 H13C11.343 29 10 30.343 10 32 V55C10 56.657 11.343 58 13 58 H34C35.657 58 37 56.657 37 55 V52C37 51.448 37.448 51 38 51 H55C56.657 51 58 49.657 58 48 V34C58 32.895 57.105 32 56 32C54.216 32.001 52.568 31.047 51.68 29.5C51.488 29.193 51.48 28.806 51.66 28.492C51.84 28.178 52.178 27.989 52.54 28 H56 M21.5 47.5C21.5 48.052 21.052 48.5 20.5 48.5 H15C14.448 48.5 14 48.052 14 47.5 V46.5C14 45.948 14.448 45.5 15 45.5 H20.5C21.052 45.5 21.5 45.948 21.5 46.5 V47.5 M14 52.5C14 51.948 14.448 51.5 15 51.5 H20.5C21.052 51.5 21.5 51.948 21.5 52.5 V53C21.5 53.552 21.052 54 20.5 54 H15C14.448 54 14 53.552 14 53 V52.5 M33 53C33 53.552 32.552 54 32 54 H25.5C24.948 54 24.5 53.552 24.5 53 V44C24.489 43.176 23.824 42.511 23 42.5 H15C14.448 42.5 14 42.052 14 41.5 V34C14 33.448 14.448 33 15 33 H22.5C23.605 33 24.5 32.105 24.5 31C24.5 29.895 23.605 29 22.5 29 H21C20.448 29 20 28.552 20 28 V15C20 14.448 20.448 14 21 14 H38C38.552 14 39 14.448 39 15 V28C39 28.552 38.552 29 38 29 H29.5C28.395 29 27.5 29.895 27.5 31C27.5 32.105 28.395 33 29.5 33 H32C32.552 33 33 33.448 33 34 V36C33 37.105 33.895 38 35 38C36.139 38.002 37.223 38.489 37.98 39.34C38.239 39.63 38.302 40.046 38.14 40.4C37.983 40.759 37.632 40.994 37.24 41 H35C33.895 41 33 41.895 33 43 V53 M54 23C54 23.552 53.552 24 53 24 H49C47.895 24 47 24.895 47 26 V27C47.009 30.926 49.556 34.396 53.3 35.58C53.719 35.712 54.003 36.101 54 36.54 V46C54 46.552 53.552 47 53 47 H38C37.448 47 37 46.552 37 46C37 45.448 37.448 45 38 45 H41C42.105 45 43 44.105 43 43 V42C42.997 38.439 40.641 35.308 37.22 34.32C37.083 34.275 36.993 34.144 37 34C37 33.448 37.448 33 38 33 H41C42.105 33 43 32.105 43 31 V21C43 20.448 43.448 20 44 20 H53C53.552 20 54 20.448 54 21 V23"></path></g></g></g><g id="g-root-ic_mush_1cws3qjvfowld-fill" data-item-order="-2304" transform="translate(520, 392)"><g id="ic_mush_1cws3qjvfowld-fill-merged" stroke="none" fill="#ffffff" fill-opacity="1"><g><path d="M37 46 H31C30.448 46 30 46.448 30 47C30 49.209 31.791 51 34 51C36.209 51 38 49.209 38 47C38 46.448 37.552 46 37 46 M32.5 41 V39C32.5 38.172 31.828 37.5 31 37.5C30.172 37.5 29.5 38.172 29.5 39 V41C29.5 41.828 30.172 42.5 31 42.5C31.828 42.5 32.5 41.828 32.5 41 M37 37.5C36.176 37.511 35.511 38.176 35.5 39 V41C35.5 41.828 36.172 42.5 37 42.5C37.828 42.5 38.5 41.828 38.5 41 V39C38.489 38.176 37.824 37.511 37 37.5 M54.5 20.16L39 11.08C37.43 10.365 35.725 9.996 34 10C32.238 10.007 30.498 10.396 28.9 11.14L13.46 20.18C10.658 21.97 9.369 25.391 10.294 28.585C11.218 31.779 14.135 33.983 17.46 34 H21.6C21.891 33.997 22.168 34.122 22.36 34.34C22.545 34.555 22.632 34.838 22.6 35.12L21.02 47.72C20.866 49.679 19.955 51.501 18.48 52.8C17.58 53.634 17.279 54.932 17.719 56.077C18.16 57.222 19.253 57.984 20.48 58 H47.48C48.707 57.984 49.8 57.222 50.241 56.077C50.681 54.932 50.38 53.634 49.48 52.8C48.013 51.512 47.102 49.705 46.94 47.76L45.36 35.12C45.328 34.838 45.415 34.555 45.6 34.34C45.801 34.111 46.095 33.985 46.4 34 H50.5C53.838 33.997 56.772 31.789 57.698 28.582C58.625 25.376 57.321 21.943 54.5 20.16 M16 31C14.895 31 14 30.105 14 29C14 27.895 14.895 27 16 27C17.105 27 18 27.895 18 29C18 30.105 17.105 31 16 31 M21 20.5C21 18.567 22.567 17 24.5 17C26.433 17 28 18.567 28 20.5C28 22.433 26.433 24 24.5 24C22.567 24 21 22.433 21 20.5 M44.28 53.52C44.095 53.817 43.77 53.998 43.42 54 H24.58C24.229 54.002 23.903 53.82 23.72 53.52C23.549 53.216 23.549 52.844 23.72 52.54C24.39 51.196 24.83 49.75 25.02 48.26L26.7 34.88C26.769 34.379 27.195 34.005 27.7 34 H40.38C40.885 34.005 41.311 34.379 41.38 34.88L43.06 48.28C43.25 49.761 43.683 51.2 44.34 52.54C44.493 52.855 44.47 53.226 44.28 53.52 M41.5 27C38.462 27 36 24.538 36 21.5C36 18.462 38.462 16 41.5 16C44.538 16 47 18.462 47 21.5C47 24.538 44.538 27 41.5 27 M51 31C49.895 31 49 30.105 49 29C49 27.895 49.895 27 51 27C52.105 27 53 27.895 53 29C53 30.105 52.105 31 51 31"></path></g></g></g><g id="g-root-ic_refr_1lto25nvfqaks-fill" data-item-order="-2304" transform="translate(275, 344)"><g id="ic_refr_1lto25nvfqaks-fill-merged" stroke="none" fill="#ffffff" fill-opacity="1"><g><path d="M20.82 33.78C20.55 33.304 20.047 33.007 19.5 33 H18.62C18.335 33.002 18.064 32.878 17.88 32.66C17.685 32.45 17.597 32.163 17.64 31.88C18.493 25.301 23.203 19.872 29.596 18.101C35.99 16.329 42.822 18.558 46.94 23.76C47.673 24.396 48.756 24.414 49.51 23.803C50.263 23.192 50.47 22.129 50 21.28C44.79 14.759 36.147 12.049 28.146 14.426C20.146 16.802 14.385 23.793 13.58 32.1C13.529 32.605 13.108 32.992 12.6 33 H11.5C10.952 32.996 10.445 33.291 10.178 33.771C9.911 34.25 9.928 34.836 10.22 35.3L14.22 41.7C14.499 42.136 14.982 42.4 15.5 42.4C16.018 42.4 16.501 42.136 16.78 41.7L20.78 35.3C21.064 34.837 21.079 34.257 20.82 33.78 M57.78 32.7L53.78 26.3C53.483 25.889 53.007 25.646 52.5 25.646C51.993 25.646 51.517 25.889 51.22 26.3L47.22 32.7C46.928 33.164 46.911 33.75 47.178 34.229C47.445 34.709 47.952 35.004 48.5 35 H49.38C49.665 34.998 49.936 35.122 50.12 35.34C50.315 35.55 50.403 35.837 50.36 36.12C49.507 42.699 44.797 48.128 38.404 49.899C32.01 51.671 25.178 49.442 21.06 44.24C20.327 43.604 19.244 43.586 18.49 44.197C17.737 44.808 17.53 45.871 18 46.72C23.197 53.233 31.819 55.953 39.813 53.6C47.806 51.247 53.58 44.29 54.42 36C54.471 35.495 54.892 35.108 55.4 35.1 H56.5C57.048 35.104 57.555 34.809 57.822 34.329C58.089 33.85 58.072 33.264 57.78 32.8 V32.7 M36.74 32.24C34.811 33.919 33.385 36.1 32.62 38.54C32.447 39.042 32.68 39.594 33.16 39.82C33.645 40.016 34.158 40.131 34.68 40.16C36.809 40.017 38.731 38.835 39.82 37C41.988 32.715 41.913 27.639 39.62 23.42C39.447 23.175 39.178 23.015 38.88 22.98C38.581 22.952 38.287 23.063 38.08 23.28C36.743 24.582 35.149 25.59 33.4 26.24C31.862 26.797 30.438 27.631 29.2 28.7C27.79 29.852 27.041 31.626 27.2 33.44C27.366 34.431 27.867 35.335 28.62 36C28.917 36.274 29.02 36.701 28.88 37.08C28.079 39.238 27.489 41.468 27.12 43.74C27.08 44.003 27.146 44.27 27.303 44.484C27.461 44.698 27.697 44.841 27.96 44.88C28.518 44.951 29.027 44.557 29.1 44C29.76 39.62 31.94 33.16 35.58 30.58C36.033 30.26 36.66 30.367 36.98 30.82C37.3 31.273 37.193 31.9 36.74 32.22"></path></g></g></g><g id="g-root-tx_hyphaene_me8elnvfm29y-fill" data-item-order="0" transform="translate(362, 308)"><g id="tx_hyphaene_me8elnvfm29y-fill-merged" stroke="none" fill="#484848" fill-opacity="1"><g><text style="font: bold 20px Montserrat, sans-serif; white-space: pre;" transform="translate(82, 22)" font-weight="bold" font-size="20px" font-family="Montserrat, sans-serif"><tspan x="-67.27" y="12" dominant-baseline="ideographic">Hyphae Nest</tspan></text></g></g></g><g id="g-root-tx_biomater_1cw5mnfvfrqiw-fill" data-item-order="0" transform="translate(639, 290)"><g id="tx_biomater_1cw5mnfvfrqiw-fill-merged" stroke="none" fill="#c5b843" fill-opacity="1"><g><text style="font: bold 20px Montserrat, sans-serif; white-space: pre;" transform="translate(10, 40)" font-weight="bold" font-size="20px" font-family="Montserrat, sans-serif"><tspan x="2" y="-0" dominant-baseline="ideographic">Biomaterial </tspan><tspan x="2" y="24" dominant-baseline="ideographic">Innovation</tspan></text></g></g></g><g id="g-root-tx_circular_1lux0bvvfrq4u-fill" data-item-order="0" transform="translate(122, 290)"><g id="tx_circular_1lux0bvvfrq4u-fill-merged" stroke="none" fill="#b4a418" fill-opacity="1"><g><text style="font: bold 20px Montserrat, sans-serif; white-space: pre;" transform="translate(118, 40)" font-weight="bold" font-size="20px" font-family="Montserrat, sans-serif"><tspan x="-83.49" y="-0" dominant-baseline="ideographic">Circular </tspan><tspan x="-104.81" y="24" dominant-baseline="ideographic">Lifecycles</tspan></text></g></g></g><g id="g-root-tx_biodegra_v8mgobvfrq4v-fill" data-item-order="0" transform="translate(86, 362)"><g id="tx_biodegra_v8mgobvfrq4v-fill-merged" stroke="none" fill="#484848" fill-opacity="1"><g><text style="font: 15px Montserrat, sans-serif; white-space: pre;" transform="translate(154, 34)" font-size="15px" font-family="Montserrat, sans-serif"><tspan x="-125.36" y="-0" dominant-baseline="ideographic">Biodegradability </tspan><tspan x="-132.44" y="18" dominant-baseline="ideographic">and regeneration</tspan></text></g></g></g><g id="g-root-tx_fungalgr_1hduk17vfroqz-fill" data-item-order="0" transform="translate(602, 182)"><g id="tx_fungalgr_1hduk17vfroqz-fill-merged" stroke="none" fill="#484848" fill-opacity="1"><g><text style="font: 15px Montserrat, sans-serif; white-space: pre;" transform="translate(10, 34)" font-size="15px" font-family="Montserrat, sans-serif"><tspan x="2" y="-0" dominant-baseline="ideographic">Fungal growth </tspan><tspan x="2" y="18" dominant-baseline="ideographic">inspired networks</tspan></text></g></g></g><g id="g-root-tx_mycelium_v5i38rvfrpq9-fill" data-item-order="0" transform="translate(639, 362)"><g id="tx_mycelium_v5i38rvfrpq9-fill-merged" stroke="none" fill="#484848" fill-opacity="1"><g><text style="font: 15px Montserrat, sans-serif; white-space: pre;" transform="translate(10, 34)" font-size="15px" font-family="Montserrat, sans-serif"><tspan x="2" y="-0" dominant-baseline="ideographic">Mycelium as </tspan><tspan x="2" y="18" dominant-baseline="ideographic">building material</tspan></text></g></g></g><g id="g-root-tx_enhances_909zvvvfrr45-fill" data-item-order="0" transform="translate(110, 170)"><g id="tx_enhances_909zvvvfrr45-fill-merged" stroke="none" fill="#484848" fill-opacity="1"><g><text style="font: 15px Montserrat, sans-serif; white-space: pre;" transform="translate(166, 46)" font-size="15px" font-family="Montserrat, sans-serif"><tspan x="-147.68" y="-9" dominant-baseline="ideographic">Enhance social and </tspan><tspan x="-112.38" y="9" dominant-baseline="ideographic">environmental </tspan><tspan x="-81.5" y="27" dominant-baseline="ideographic">well-being</tspan></text></g></g></g><g id="g-root-tx_modulard_4j7jl7vfrpqa-fill" data-item-order="0" transform="translate(602, 110)"><g id="tx_modulard_4j7jl7vfrpqa-fill-merged" stroke="none" fill="#e6d96a" fill-opacity="1"><g><text style="font: bold 20px Montserrat, sans-serif; white-space: pre;" transform="translate(10, 40)" font-weight="bold" font-size="20px" font-family="Montserrat, sans-serif"><tspan x="2" y="-0" dominant-baseline="ideographic">Modular </tspan><tspan x="2" y="24" dominant-baseline="ideographic">Design</tspan></text></g></g></g><g id="g-root-tx_biophili_qrk0dnvfror0-fill" data-item-order="0" transform="translate(146, 98)"><g id="tx_biophili_qrk0dnvfror0-fill-merged" stroke="none" fill="#c5b843" fill-opacity="1"><g><text style="font: bold 20px Montserrat, sans-serif; white-space: pre;" transform="translate(130, 40)" font-weight="bold" font-size="20px" font-family="Montserrat, sans-serif"><tspan x="-93.93" y="-0" dominant-baseline="ideographic">Biophilic </tspan><tspan x="-107.89" y="24" dominant-baseline="ideographic">Strategies</tspan></text></g></g></g><g id="g-root-tx_unsustai_m7znqjvfrrim-fill" data-item-order="0" transform="translate(170.5, 524)"><g id="tx_unsustai_m7znqjvfrrim-fill-merged" stroke="none" fill="#484848" fill-opacity="1"><g><text style="font: bold 20px Montserrat, sans-serif; white-space: pre;" transform="translate(94, 40)" font-weight="bold" font-size="20px" font-family="Montserrat, sans-serif"><tspan x="-76.47" y="-0" dominant-baseline="ideographic">Unsustainable </tspan><tspan x="-67.45" y="24" dominant-baseline="ideographic">Architecture</tspan></text></g></g></g><g id="g-root-tx_regenera_dhyx9nvfrpc8-fill" data-item-order="0" transform="translate(536, 524)"><g id="tx_regenera_dhyx9nvfrpc8-fill-merged" stroke="none" fill="#484848" fill-opacity="1"><g><text style="font: bold 20px Montserrat, sans-serif; white-space: pre;" transform="translate(88, 40)" font-weight="bold" font-size="20px" font-family="Montserrat, sans-serif"><tspan x="-71.41" y="-0" dominant-baseline="ideographic">Regenerative </tspan><tspan x="-67.51" y="24" dominant-baseline="ideographic">Architecture</tspan></text></g></g></g><g id="g-root-tx_consumin_4hc4bvvfrqpz-fill" data-item-order="0" transform="translate(188.5, 596)"><g id="tx_consumin_4hc4bvvfrqpz-fill-merged" stroke="none" fill="#484848" fill-opacity="1"><g><text style="font: 15px Montserrat, sans-serif; white-space: pre;" transform="translate(76, 34)" font-size="15px" font-family="Montserrat, sans-serif"><tspan x="-60.39" y="-0" dominant-baseline="ideographic">Consuming the </tspan><tspan x="-42.09" y="18" dominant-baseline="ideographic">ecosystem</tspan></text></g></g></g><g id="g-root-tx_regenera_1hfpzajvfm4nh-fill" data-item-order="0" transform="translate(206, 38)"><g id="tx_regenera_1hfpzajvfm4nh-fill-merged" stroke="none" fill="#484848" fill-opacity="1"><g><text style="font: bold 25px Montserrat, sans-serif; white-space: pre;" transform="translate(244, 28)" font-weight="bold" font-size="25px" font-family="Montserrat, sans-serif"><tspan x="-231.07" y="15" dominant-baseline="ideographic">Regenerative Living with Mycelium</tspan></text></g></g></g><g id="g-root-tx_coexisti_1ursyqzvfrri9-fill" data-item-order="0" transform="translate(548, 596)"><g id="tx_coexisti_1ursyqzvfrri9-fill-merged" stroke="none" fill="#484848" fill-opacity="1"><g><text style="font: 15px Montserrat, sans-serif; white-space: pre;" transform="translate(76, 34)" font-size="15px" font-family="Montserrat, sans-serif"><tspan x="-59.82" y="-0" dominant-baseline="ideographic">Coexisting with </tspan><tspan x="-56.69" y="18" dominant-baseline="ideographic">the ecosystem</tspan></text></g></g></g><g id="g-root-cp_resolution_g-resolution_mcczcbvfm39j-stroke" data-item-order="-516302" transform="translate(435, 416)"><g id="cp_resolution_g-resolution_mcczcbvfm39j-stroke" fill="none" stroke-linecap="round" stroke-linejoin="round" stroke-miterlimit="4" stroke="#ffffff" stroke-width="2" stroke-opacity="1"><g><path d="M 154 22L 261 22L 261 10L 309.1511 58L 261 106L 261 94L 10 94"></path></g></g></g><g id="g-root-cp_4_g-4_hwjh7vvfm41s-stroke" data-item-order="-516296" transform="translate(255, 320)"><g id="cp_4_g-4_hwjh7vvfm41s-stroke" fill="none" stroke-linecap="round" stroke-linejoin="round" stroke-miterlimit="4" stroke="#ffffff" stroke-width="2" stroke-opacity="1"><g><path d="M 46 118C 36.9793 105.9725 29.4808 92.835 23.7017 78.883C 14.6558 57.0444 10 33.6379 10 10M 81.9934 10C 81.9934 24.1836 84.7871 38.2284 90.2149 51.3323C 95.6428 64.4363 103.5985 76.3428 113.6278 86.3722C 123.6572 96.4015 135.5637 104.3572 148.6677 109.7851C 161.4049 115.061 175.031 117.8481 188.8095 118"></path></g></g></g><g id="g-root-cp_3_g-3_90wgyzvfm4uh-stroke" data-item-order="-516290" transform="translate(255, 140)"><g id="cp_3_g-3_90wgyzvfm4uh-stroke" fill="none" stroke-linecap="round" stroke-linejoin="round" stroke-miterlimit="4" stroke="#ffffff" stroke-width="2" stroke-opacity="1"><g><path d="M 190 10C 142.261 9.999999 96.4773 28.9642 62.7208 62.7208C 28.9642 96.4773 10 142.261 10 190L 81.9648 190C 81.9648 161.3473 93.3471 133.8681 113.6076 113.6076C 133.8681 93.3471 161.3473 81.9648 190 81.9648"></path></g></g></g><g id="g-root-cp_2_g-2_4lpfxnvfm2gy-stroke" data-item-order="-516284" transform="translate(435, 140)"><g id="cp_2_g-2_4lpfxnvfm2gy-stroke" fill="none" stroke-linecap="round" stroke-linejoin="round" stroke-miterlimit="4" stroke="#ffffff" stroke-width="2" stroke-opacity="1"><g><path d="M 190 190C 190 166.3621 185.3442 142.9556 176.2983 121.117C 167.2525 99.2784 153.9938 79.4353 137.2792 62.7208C 120.5647 46.0062 100.7216 32.7475 78.883 23.7017C 57.0444 14.6558 33.6379 10 10 10L 10 81.9648C 24.1874 81.9648 38.2358 84.7592 51.3433 90.1885C 64.4507 95.6178 76.3604 103.5756 86.3924 113.6076C 96.4244 123.6396 104.3822 135.5493 109.8115 148.6568C 115.2408 161.7642 118.0352 175.8126 118.0352 190"></path></g></g></g><g id="g-root-cp_1_g-1_1ur6hnvvfm32j-stroke" data-item-order="-516278" transform="translate(435, 320)"><g id="cp_1_g-1_1ur6hnvvfm32j-stroke" fill="none" stroke-linecap="round" stroke-linejoin="round" stroke-miterlimit="4" stroke="#ffffff" stroke-width="2" stroke-opacity="1"><g><path d="M 10 190C 33.6379 190 57.0444 185.3442 78.883 176.2983C 100.7216 167.2525 120.5647 153.9938 137.2792 137.2792C 153.9938 120.5647 167.2525 100.7216 176.2983 78.883C 185.3442 57.0444 190 33.6379 190 10L 118.0893 10C 118.0893 24.1945 115.2935 38.25 109.8615 51.364C 104.4295 64.478 96.4677 76.3936 86.4307 86.4307C 76.3937 96.4677 64.478 104.4295 51.364 109.8615C 38.25 115.2935 24.1945 118.0893 10 118.0893"></path></g></g></g><g id="g-root-cp_problem_g-problem_1qbczjfvfm3us-stroke" data-item-order="-516272" transform="translate(182, 428)"><g id="cp_problem_g-problem_1qbczjfvfm3us-stroke" fill="none" stroke-linecap="round" stroke-linejoin="round" stroke-miterlimit="4" stroke="#ffffff" stroke-width="2" stroke-opacity="1"><g><path d="M 10 10L 262 10L 262 82L 10 82L 10 10Z"></path></g></g></g><g id="g-root-ic_outd_1qclxpnvfqayt-stroke" data-item-order="-2304" transform="translate(591, 440)"></g><g id="g-root-ic_1_1usffu3vfm58n-stroke" data-item-order="-2304" transform="translate(286, 440)"></g><g id="g-root-ic_3_1hgyxgrvfoydn-stroke" data-item-order="-2304" transform="translate(316, 188)"></g><g id="g-root-ic_plan_40ijvvfovt6-stroke" data-item-order="-2304" transform="translate(507, 188)"></g><g id="g-root-ic_mush_1cws3qjvfowld-stroke" data-item-order="-2304" transform="translate(520, 392)"></g><g id="g-root-ic_refr_1lto25nvfqaks-stroke" data-item-order="-2304" transform="translate(275, 344)"></g><g id="g-root-tx_hyphaene_me8elnvfm29y-stroke" data-item-order="0" transform="translate(362, 308)"></g><g id="g-root-tx_biomater_1cw5mnfvfrqiw-stroke" data-item-order="0" transform="translate(639, 290)"></g><g id="g-root-tx_circular_1lux0bvvfrq4u-stroke" data-item-order="0" transform="translate(122, 290)"></g><g id="g-root-tx_biodegra_v8mgobvfrq4v-stroke" data-item-order="0" transform="translate(86, 362)"></g><g id="g-root-tx_fungalgr_1hduk17vfroqz-stroke" data-item-order="0" transform="translate(602, 182)"></g><g id="g-root-tx_mycelium_v5i38rvfrpq9-stroke" data-item-order="0" transform="translate(639, 362)"></g><g id="g-root-tx_enhances_909zvvvfrr45-stroke" data-item-order="0" transform="translate(110, 170)"></g><g id="g-root-tx_modulard_4j7jl7vfrpqa-stroke" data-item-order="0" transform="translate(602, 110)"></g><g id="g-root-tx_biophili_qrk0dnvfror0-stroke" data-item-order="0" transform="translate(146, 98)"></g><g id="g-root-tx_unsustai_m7znqjvfrrim-stroke" data-item-order="0" transform="translate(170.5, 524)"></g><g id="g-root-tx_regenera_dhyx9nvfrpc8-stroke" data-item-order="0" transform="translate(536, 524)"></g><g id="g-root-tx_consumin_4hc4bvvfrqpz-stroke" data-item-order="0" transform="translate(188.5, 596)"></g><g id="g-root-tx_regenera_1hfpzajvfm4nh-stroke" data-item-order="0" transform="translate(206, 38)"></g><g id="g-root-tx_coexisti_1ursyqzvfrri9-stroke" data-item-order="0" transform="translate(548, 596)"></g></g></g></svg>