<?xml version="1.0" encoding="utf-8" standalone="yes"?>
<!DOCTYPE svg PUBLIC "-//W3C//DTD SVG 1.1//EN" "http://www.w3.org/Graphics/SVG/1.1/DTD/svg11.dtd">
<svg style="fill:none;stroke:none;fill-rule:evenodd;clip-rule:evenodd;stroke-linecap:round;stroke-linejoin:round;stroke-miterlimit:1.5;" version="1.1" xmlns="http://www.w3.org/2000/svg" xmlns:xlink="http://www.w3.org/1999/xlink" width="684" height="612" viewBox="0 0 684 612"><style class="text-font-style fontImports" data-font-family="Roboto">@import url(https://fonts.googleapis.com/css2?family=Roboto:wght@400;700&amp;amp;display=block);</style><g id="items" style="isolation: isolate"><g id="blend" style="mix-blend-mode: normal"><g id="g-root-sy_4_cu_1upwr17vfawi7-fill" data-item-order="-140154" transform="translate(182, 374.0087890625)"><g id="sy_4_cu_1upwr17vfawi7-fill-merged" stroke="none" fill="#666666" fill-opacity="1"><g><path d="M249.12 24.386C234.654 30.569 218.727 33.991 202 33.991C174.985 33.991 150.056 25.064 130 10C109.944 25.064 85.015 33.991 58 33.991C41.273 33.991 25.346 30.569 10.88 24.386C10.299 29.173 10 34.047 10 38.991C10 105.265 63.726 158.991 130 158.991C196.274 158.991 250 105.265 250 38.991C250 34.047 249.701 29.173 249.12 24.386"></path></g></g></g><g id="g-root-sy_3_cu_zof6cbvfau4o-fill" data-item-order="-140150" transform="translate(302, 158)"><g id="sy_3_cu_zof6cbvfau4o-fill-merged" stroke="none" fill="#666666" fill-opacity="1"><g><path d="M57.12 144.605C57.701 139.818 58 134.944 58 130C58 90.74 39.147 55.884 10 33.991C30.056 18.927 54.985 10 82 10C148.274 10 202 63.726 202 130C202 179.547 171.971 222.081 129.12 240.395C123.88 197.206 95.696 161.091 57.12 144.605"></path></g></g></g><g id="g-root-sy_1_cu_924morvfau4p-fill" data-item-order="-140146" transform="translate(110, 158)"><g id="sy_1_cu_924morvfau4p-fill-merged" stroke="none" fill="#666666" fill-opacity="1"><g><path d="M154.88 144.605C154.299 139.818 154 134.944 154 130C154 90.74 172.853 55.884 202 33.991C181.944 18.927 157.015 10 130 10C63.726 10 10 63.726 10 130C10 179.547 40.029 222.081 82.88 240.395C88.12 197.206 116.304 161.091 154.88 144.605"></path></g></g></g><g id="g-root-sy_7_cu_1hgy50bvfatxm-fill" data-item-order="-140142" transform="translate(182.8800048828125, 292.60546875)"><g id="sy_7_cu_1hgy50bvfatxm-fill-merged" stroke="none" fill="#666666" fill-opacity="1"><g><path d="M82 10C43.424 26.486 15.24 62.601 10 105.79C24.466 111.973 40.393 115.395 57.12 115.395C84.135 115.395 109.064 106.468 129.12 91.404C103.644 72.268 86.031 43.228 82 10"></path></g></g></g><g id="g-root-sy_6_cu_zpo4ijvfawar-fill" data-item-order="-140138" transform="translate(302, 292.60546875)"><g id="sy_6_cu_zpo4ijvfawar-fill-merged" stroke="none" fill="#666666" fill-opacity="1"><g><path d="M57.12 10C53.089 43.228 35.476 72.268 10 91.404C30.056 106.468 54.985 115.395 82 115.395C98.727 115.395 114.654 111.973 129.12 105.79C123.88 62.601 95.696 26.486 57.12 10"></path></g></g></g><g id="g-root-sy_2_cu_93dkuzvfawas-fill" data-item-order="-140134" transform="translate(254, 181.99072265625)"><g id="sy_2_cu_93dkuzvfawas-fill-merged" stroke="none" fill="#666666" fill-opacity="1"><g><path d="M105.12 120.614C105.701 115.827 106 110.953 106 106.009C106 66.749 87.147 31.893 58 10C28.853 31.893 10 66.749 10 106.009C10 110.953 10.299 115.827 10.88 120.614C25.346 114.431 41.273 111.009 58 111.009C74.727 111.009 90.654 114.431 105.12 120.614"></path></g></g></g><g id="g-root-sy_5_cu_18n6k0rvfatql-fill" data-item-order="-140130" transform="translate(254.8800048828125, 283)"><g id="sy_5_cu_18n6k0rvfatql-fill-merged" stroke="none" fill="#92bd39" fill-opacity="1"><g><path d="M104.24 19.605C100.208 52.833 82.596 81.873 57.12 101.009C31.644 81.873 14.031 52.833 10 19.605C24.466 13.422 40.393 10 57.12 10C73.847 10 89.774 13.422 104.24 19.605"></path></g></g></g><g id="g-root-ic_1_qn5wbfvfrq4o-fill" data-item-order="-2304" transform="translate(170, 230)"><g id="ic_1_qn5wbfvfrq4o-fill-merged" stroke="none" fill="#ffffff" fill-opacity="1"><g><path d="M57.14 47.28C56.36 46.505 55.1 46.505 54.32 47.28C53.659 47.952 52.905 48.525 52.08 48.98C51.917 49.091 51.703 49.091 51.54 48.98C51.389 48.87 51.312 48.685 51.34 48.5C51.444 47.912 51.497 47.317 51.5 46.72 V44.72C51.502 44.365 51.692 44.038 52 43.86C54.737 42.114 56.737 39.424 57.62 36.3C57.907 35.61 57.786 34.818 57.305 34.246C56.825 33.674 56.067 33.417 55.338 33.58C54.609 33.743 54.031 34.298 53.84 35.02C53.402 36.37 52.725 37.63 51.84 38.74C51.718 38.891 51.519 38.958 51.33 38.911C51.141 38.864 50.997 38.711 50.96 38.52C50.43 35.83 49.5 33.234 48.2 30.82C47.978 30.494 47.978 30.066 48.2 29.74C49.867 27.64 50.782 25.041 50.8 22.36C50.8 21.255 49.905 20.36 48.8 20.36C47.695 20.36 46.8 21.255 46.8 22.36C46.833 23.62 46.558 24.87 46 26C45.922 26.151 45.77 26.25 45.6 26.26C45.437 26.283 45.275 26.214 45.18 26.08C44.278 25.025 43.303 24.036 42.26 23.12C41.969 22.859 41.853 22.456 41.96 22.08C42.889 19.284 42.696 16.236 41.42 13.58C40.921 12.599 39.723 12.206 38.74 12.7C37.752 13.192 37.349 14.391 37.84 15.38C38.477 16.66 38.694 18.109 38.46 19.52C38.436 19.686 38.331 19.828 38.18 19.9C38.034 19.969 37.866 19.969 37.72 19.9C36.111 18.995 34.416 18.251 32.66 17.68C32.317 17.568 32.063 17.276 32 16.92C31.613 14.624 30.703 12.448 29.34 10.56C28.573 9.849 27.387 9.849 26.62 10.56C25.81 11.307 25.757 12.567 26.5 13.38C26.964 14.152 27.315 14.988 27.54 15.86C27.607 16.013 27.607 16.187 27.54 16.34C27.426 16.46 27.266 16.526 27.1 16.52C26.177 16.416 25.249 16.363 24.32 16.36C22.932 16.357 21.562 16.679 20.32 17.3C20.039 17.449 19.701 17.449 19.42 17.3C17.396 16.202 15.037 15.896 12.8 16.44C11.768 16.738 11.156 17.799 11.414 18.842C11.672 19.885 12.708 20.537 13.76 20.32C14.484 20.151 15.236 20.151 15.96 20.32C16.117 20.353 16.25 20.456 16.32 20.6C16.389 20.746 16.389 20.914 16.32 21.06C15.554 22.414 15.155 23.944 15.16 25.5C15.159 27.195 15.63 28.857 16.52 30.3C16.598 30.443 16.598 30.617 16.52 30.76C16.458 30.919 16.31 31.028 16.14 31.04C15.084 31.234 13.995 31.123 13 30.72C12.329 30.399 11.535 30.477 10.94 30.922C10.344 31.367 10.044 32.106 10.162 32.84C10.279 33.575 10.795 34.183 11.5 34.42C12.655 34.893 13.891 35.138 15.14 35.14C16.827 35.147 18.492 34.756 20 34C20.267 33.879 20.573 33.879 20.84 34C21.924 34.451 23.086 34.683 24.26 34.68C24.662 34.682 25.063 34.715 25.46 34.78C25.65 34.816 25.804 34.955 25.86 35.14C25.921 35.32 25.865 35.518 25.72 35.64C24.37 36.902 22.478 37.405 20.68 36.98C19.575 36.787 18.523 37.525 18.33 38.63C18.137 39.735 18.875 40.787 19.98 40.98C20.641 41.094 21.31 41.154 21.98 41.16C24.609 41.142 27.102 39.99 28.82 38C29.045 37.773 29.362 37.662 29.68 37.7C29.995 37.731 30.273 37.919 30.42 38.2C30.997 39.247 31.3 40.424 31.3 41.62 V45.4C31.305 45.527 31.26 45.652 31.174 45.745C31.087 45.839 30.967 45.895 30.84 45.9C29.114 45.984 27.429 45.355 26.18 44.16C25.385 43.392 24.118 43.415 23.35 44.21C22.582 45.005 22.605 46.272 23.4 47.04C25.453 49.027 28.248 50.058 31.1 49.88C31.515 49.877 31.892 50.12 32.06 50.5C32.378 51.277 32.795 52.01 33.3 52.68C33.36 52.821 33.36 52.979 33.3 53.12C33.246 53.262 33.138 53.377 33 53.44C31.058 54.123 28.942 54.123 27 53.44C25.946 53.129 24.838 53.728 24.52 54.78C24.365 55.289 24.419 55.839 24.67 56.309C24.922 56.778 25.35 57.127 25.86 57.28C27.235 57.697 28.663 57.913 30.1 57.92C32.411 57.916 34.669 57.22 36.58 55.92C36.858 55.759 37.202 55.759 37.48 55.92C41.121 57.467 45.331 56.722 48.22 54.02C48.409 53.846 48.663 53.758 48.92 53.78C52.035 53.646 54.976 52.305 57.12 50.04C57.862 49.273 57.871 48.058 57.14 47.28 M41.4 51.78C39.191 51.78 37.4 49.989 37.4 47.78C37.4 45.571 39.191 43.78 41.4 43.78C43.609 43.78 45.4 45.571 45.4 47.78C45.4 49.989 43.609 51.78 41.4 51.78"></path></g></g></g><g id="g-root-ic_plan_1utnljvvfjbbe-fill" data-item-order="-2304" transform="translate(278, 218)"><g id="ic_plan_1utnljvvfjbbe-fill-merged" stroke="none" fill="#ffffff" fill-opacity="1"><g><path d="M30 38 H29.04C28.841 38.001 28.66 37.883 28.58 37.7C28.492 37.507 28.541 37.28 28.7 37.14L29.38 36.46C30.155 35.68 30.155 34.42 29.38 33.64C29.004 33.261 28.493 33.048 27.96 33.048C27.427 33.048 26.916 33.261 26.54 33.64L25.86 34.32C25.716 34.458 25.504 34.497 25.32 34.42C25.15 34.346 25.034 34.185 25.02 34 V33C25.02 31.895 24.125 31 23.02 31C21.915 31 21.02 31.895 21.02 33 V34C21.012 34.203 20.887 34.382 20.7 34.46C20.516 34.537 20.304 34.498 20.16 34.36L19.48 33.68C19.104 33.301 18.593 33.088 18.06 33.088C17.527 33.088 17.016 33.301 16.64 33.68C15.865 34.46 15.865 35.72 16.64 36.5L17.32 37.18C17.479 37.32 17.528 37.547 17.44 37.74C17.36 37.923 17.179 38.041 16.98 38.04 H16C14.895 38.04 14 38.935 14 40.04C14 41.145 14.895 42.04 16 42.04 H16.96C17.159 42.039 17.34 42.157 17.42 42.34C17.508 42.533 17.459 42.76 17.3 42.9L16.62 43.58C15.845 44.36 15.845 45.62 16.62 46.4C16.996 46.779 17.507 46.992 18.04 46.992C18.573 46.992 19.084 46.779 19.46 46.4L20.14 45.72C20.284 45.582 20.496 45.543 20.68 45.62C20.867 45.698 20.992 45.877 21 46.08 V47.04C21 48.145 21.895 49.04 23 49.04C24.105 49.04 25 48.145 25 47.04 V46C24.999 45.801 25.117 45.62 25.3 45.54C25.484 45.463 25.696 45.502 25.84 45.64L26.52 46.32C26.896 46.699 27.407 46.912 27.94 46.912C28.473 46.912 28.984 46.699 29.36 46.32C30.135 45.54 30.135 44.28 29.36 43.5L28.68 42.82C28.521 42.68 28.472 42.453 28.56 42.26C28.654 42.086 28.843 41.984 29.04 42 H30C31.105 42 32 41.105 32 40C32 38.895 31.105 38 30 38 M23 43C21.343 43 20 41.657 20 40C20 38.343 21.343 37 23 37C24.657 37 26 38.343 26 40C26 41.649 24.669 42.989 23.02 43 M23.02 51C21.915 51 21.02 51.895 21.02 53 V56C21.02 57.105 21.915 58 23.02 58C24.125 58 25.02 57.105 25.02 56 V53C25.02 51.895 24.125 51 23.02 51 M12 51C11.701 51.005 11.418 51.135 11.22 51.36C11.038 51.592 10.958 51.888 11 52.18C11.619 55.557 14.566 58.008 18 58C18.292 57.99 18.567 57.86 18.76 57.64C18.957 57.408 19.038 57.099 18.98 56.8C18.354 53.438 15.42 51 12 51 M46 48C44.895 48 44 48.895 44 50 V56C44 57.105 44.895 58 46 58C47.105 58 48 57.105 48 56 V50C48 48.895 47.105 48 46 48 M57 47C53.57 46.982 50.62 49.426 50 52.8C49.947 53.093 50.025 53.395 50.214 53.625C50.402 53.856 50.682 53.993 50.98 54C54.424 54.026 57.387 51.569 58 48.18C58.061 47.887 57.98 47.583 57.78 47.36C57.589 47.126 57.302 46.994 57 47 M38.904 56.604C40.139 57.839 41.64 58.339 42.257 57.721C42.874 57.104 42.373 55.602 41.138 54.368C39.903 53.133 38.402 52.633 37.785 53.251C37.168 53.868 37.669 55.37 38.904 56.604 M54.48 42.48C55.047 41.92 55.366 41.157 55.366 40.36C55.366 39.563 55.047 38.8 54.48 38.24L54.1 37.86C53.96 37.709 53.914 37.495 53.98 37.3C54.067 37.114 54.255 36.997 54.46 37 H55C56.657 37 58 35.657 58 34C58 32.343 56.657 31 55 31 H54.46C54.255 31.003 54.067 30.886 53.98 30.7C53.914 30.505 53.96 30.291 54.1 30.14L54.48 29.76C55.047 29.2 55.366 28.437 55.366 27.64C55.366 26.843 55.047 26.08 54.48 25.52C53.296 24.382 51.424 24.382 50.24 25.52L49.86 26C49.709 26.14 49.495 26.186 49.3 26.12C49.117 26.04 48.999 25.859 49 25.66 V25C49 23.343 47.657 22 46 22C44.343 22 43 23.343 43 25 V25.56C43.001 25.759 42.883 25.94 42.7 26.02C42.523 26.114 42.31 26.106 42.14 26L41.76 25.62C40.576 24.482 38.704 24.482 37.52 25.62C36.953 26.18 36.634 26.943 36.634 27.74C36.634 28.537 36.953 29.3 37.52 29.86L37.9 30.24C38.04 30.391 38.086 30.605 38.02 30.8C37.933 30.986 37.745 31.103 37.54 31.1 H37C35.343 31.1 34 32.443 34 34.1C34 35.757 35.343 37.1 37 37.1 H37.54C37.745 37.097 37.933 37.214 38.02 37.4C38.086 37.595 38.04 37.809 37.9 37.96L37.52 38.34C36.717 39.088 36.387 40.214 36.658 41.277C36.93 42.34 37.76 43.17 38.823 43.442C39.886 43.713 41.012 43.383 41.76 42.58L42.14 42.2C42.291 42.06 42.505 42.014 42.7 42.08C42.883 42.16 43.001 42.341 43 42.54 V43.1C43 44.757 44.343 46.1 46 46.1C47.657 46.1 49 44.757 49 43.1 V42.54C48.999 42.341 49.117 42.16 49.3 42.08C49.495 42.014 49.709 42.06 49.86 42.2L50.24 42.58C50.813 43.134 51.584 43.435 52.381 43.416C53.178 43.397 53.934 43.06 54.48 42.48 M46 38C43.791 38 42 36.209 42 34C42 31.791 43.791 30 46 30C48.209 30 50 31.791 50 34C50 36.209 48.209 38 46 38 M28.98 16C30.085 16 30.98 15.105 30.98 14 V12C30.98 10.895 30.085 10 28.98 10C27.875 10 26.98 10.895 26.98 12 V14C26.98 15.105 27.875 16 28.98 16 M16.96 19.8C17.336 20.179 17.847 20.392 18.38 20.392C18.913 20.392 19.424 20.179 19.8 19.8C20.575 19.02 20.575 17.76 19.8 16.98L18.38 15.56C17.6 14.785 16.34 14.785 15.56 15.56C15.181 15.936 14.968 16.447 14.968 16.98C14.968 17.513 15.181 18.024 15.56 18.4L16.96 19.8 M41.02 19.8L42.42 18.4C42.799 18.024 43.012 17.513 43.012 16.98C43.012 16.447 42.799 15.936 42.42 15.56C41.64 14.785 40.38 14.785 39.6 15.56L38.18 16.98C37.405 17.76 37.405 19.02 38.18 19.8C38.556 20.179 39.067 20.392 39.6 20.392C40.133 20.392 40.644 20.179 41.02 19.8 M14 31C15.105 31 16 30.105 16 29C16 27.895 15.105 27 14 27 H12C10.895 27 10 27.895 10 29C10 30.105 10.895 31 12 31 H14 M36.12 23.16C36.801 22.297 36.658 21.047 35.8 20.36C32.702 17.922 28.537 17.328 24.882 18.803C21.226 20.277 18.639 23.595 18.1 27.5C17.946 28.593 18.707 29.605 19.8 29.76 H20C21.017 29.767 21.878 29.01 22 28C22.5 24.536 25.481 21.974 28.98 22C30.555 21.991 32.086 22.521 33.32 23.5C34.188 24.176 35.439 24.024 36.12 23.16"></path></g></g></g><g id="g-root-ic_sunb_qrj7x7vfjabt-fill" data-item-order="-2304" transform="translate(386, 230)"><g id="ic_sunb_qrj7x7vfjabt-fill-merged" stroke="none" fill="#ffffff" fill-opacity="1"><g><path d="M46.214 10.08C47.319 10.08 48.214 10.975 48.214 12.08 V12.974C48.214 14.079 47.319 14.974 46.214 14.974C45.109 14.974 44.214 14.079 44.214 12.974 V12.08C44.214 10.975 45.109 10.08 46.214 10.08 M51.278 21.74C51.279 24.532 49.016 26.795 46.224 26.795C43.432 26.795 41.169 24.532 41.17 21.74C41.171 18.949 43.433 16.687 46.224 16.687C49.015 16.687 51.277 18.949 51.278 21.74 M13.734 32.626C13.316 32.036 12.612 31.718 11.892 31.794C11.173 31.87 10.551 32.328 10.265 32.993C9.98 33.657 10.075 34.424 10.514 34.998L22.082 50.698L20.59 55.29C20.346 55.975 20.493 56.739 20.975 57.285C21.456 57.831 22.196 58.071 22.906 57.914C23.617 57.757 24.186 57.226 24.392 56.528L25.702 52.506 H39.49L40.798 56.526C41.013 57.213 41.58 57.731 42.284 57.883C42.987 58.036 43.718 57.798 44.198 57.262C44.677 56.725 44.832 55.972 44.602 55.29L43.696 52.506 H46.214C47.319 52.506 48.214 51.611 48.214 50.506C48.214 49.401 47.319 48.506 46.214 48.506 H25.436L13.734 32.626 M48.214 30.888C48.214 29.783 47.319 28.888 46.214 28.888C45.109 28.888 44.214 29.783 44.214 30.888 V31.784C44.214 32.889 45.109 33.784 46.214 33.784C47.319 33.784 48.214 32.889 48.214 31.784 V30.888 M37.814 13.532C38.595 12.751 39.861 12.751 40.642 13.532L41.27 14.16C42.051 14.941 42.05 16.208 41.269 16.989C40.488 17.77 39.221 17.769 38.44 16.988L37.814 16.362C37.438 15.987 37.227 15.478 37.227 14.947C37.227 14.416 37.438 13.907 37.814 13.532 M53.808 26.698C53.023 25.94 51.776 25.951 51.004 26.722C50.233 27.494 50.222 28.741 50.98 29.526L51.606 30.154C52.387 30.935 53.654 30.934 54.435 30.153C55.216 29.372 55.215 28.105 54.434 27.324L53.808 26.698 M34.184 21.754C34.184 20.649 35.079 19.754 36.184 19.754 H37.078C38.183 19.754 39.078 20.649 39.078 21.754C39.078 22.859 38.183 23.754 37.078 23.754 H36.184C35.079 23.754 34.184 22.859 34.184 21.754 M54.99 19.754C53.885 19.754 52.99 20.649 52.99 21.754C52.99 22.859 53.885 23.754 54.99 23.754 H55.886C56.991 23.754 57.886 22.859 57.886 21.754C57.886 20.649 56.991 19.754 55.886 19.754 H54.99 M41.27 26.698C42.051 27.479 42.051 28.745 41.27 29.526L40.642 30.154C39.861 30.935 38.594 30.934 37.813 30.153C37.032 29.372 37.033 28.105 37.814 27.324L38.44 26.698C38.815 26.322 39.324 26.111 39.855 26.111C40.386 26.111 40.895 26.322 41.27 26.698 M54.434 16.362C55.215 15.581 55.216 14.314 54.435 13.533C53.654 12.752 52.387 12.751 51.606 13.532L50.98 14.16C50.222 14.945 50.233 16.192 51.004 16.964C51.776 17.735 53.023 17.746 53.808 16.988L54.434 16.362 M18.652 28.868C20.282 28.902 21.803 28.052 22.628 26.646C23.453 25.24 23.453 23.498 22.628 22.092C21.803 20.686 20.282 19.836 18.652 19.87C16.167 19.87 14.152 21.885 14.152 24.37C14.152 26.855 16.167 28.87 18.652 28.87 M35.402 41.75C36.272 41.346 37.25 40.89 38.354 40.382L41.886 44.282C43.012 45.41 44.666 45.77 45.792 44.83C46.918 43.892 47.27 42.366 45.956 41.054L42.164 37.192C40.645 35.658 38.374 35.146 36.344 35.878L31.964 37.468L27.724 31.534C26.788 30.408 24.644 29.634 22.822 30.734C21.058 31.796 20.39 34.564 21.518 36.066L26.664 43.236C27.04 43.798 27.584 44.304 28.548 44.444C29.354 44.562 30.944 43.824 35.402 41.75"></path></g></g></g><g id="g-root-ic_plan_qqa9qzvfghe7-fill" data-item-order="-2304" transform="translate(278, 296)"><g id="ic_plan_qqa9qzvfghe7-fill-merged" stroke="none" fill="#ffffff" fill-opacity="1"><g><path d="M10.7 17.52C12.558 18.926 14.07 20.739 15.12 22.82C17.04 26 19.02 29.26 24 29.26C24.737 29.259 25.473 29.199 26.2 29.08C26.07 29.994 26.003 30.916 26 31.84 V34C26 35.105 26.895 36 28 36C29.105 36 30 35.105 30 34 V31.84C30 28.6 30.92 27.2 31.44 26.9C31.675 26.763 31.879 26.579 32.04 26.36 H32.88C39.02 26.36 40.2 21.62 41.16 17.72C41.424 15.491 42.367 13.396 43.86 11.72C44.188 11.457 44.316 11.018 44.182 10.62C44.048 10.222 43.68 9.951 43.26 9.94C37.14 9.74 32.86 11.24 30.58 14.38C28.823 17.119 28.266 20.459 29.04 23.62C28.486 24.007 28.011 24.496 27.64 25.06C26.296 23.372 25.775 21.172 26.22 19.06C26.298 18.742 26.216 18.406 26 18.16C24.12 16.6 19.08 13.24 10.94 15.72C10.567 15.835 10.296 16.157 10.244 16.543C10.193 16.93 10.371 17.311 10.7 17.52 M45.76 43.58L57.76 30.78C57.939 30.561 58.025 30.281 58 30L57.7 13.18C57.688 12.751 57.408 12.375 57 12.24C56.594 12.12 56.156 12.263 55.9 12.6L37.7 36.6L24.38 41.04C23.105 41.461 22.318 42.739 22.516 44.067C22.713 45.395 23.838 46.388 25.18 46.42 H25.34L42.16 45.44C43.57 45.361 44.88 44.684 45.76 43.58 M28 49C26.895 49 26 49.895 26 51 V56C26 57.105 26.895 58 28 58C29.105 58 30 57.105 30 56 V51C30 49.895 29.105 49 28 49 M20.5 50 H12C10.895 50 10 50.895 10 52C10 53.105 10.895 54 12 54 H20.5C21.605 54 22.5 53.105 22.5 52C22.5 50.895 21.605 50 20.5 50 M55.76 50 H35.26C34.155 50 33.26 50.895 33.26 52C33.26 53.105 34.155 54 35.26 54 H55.76C56.865 54 57.76 53.105 57.76 52C57.76 50.895 56.865 50 55.76 50"></path></g></g></g><g id="g-root-ic_tree_1d1r3yzvfghl4-fill" data-item-order="-2304" transform="translate(206, 338)"><g id="ic_tree_1d1r3yzvfghl4-fill-merged" stroke="none" fill="#ffffff" fill-opacity="1"><g><path d="M41.24 27.14C40.283 29.064 40.428 31.352 41.62 33.14 V33.26C43.04 35.38 45.36 37.54 45.62 38.52C46.067 40.107 45.185 41.764 43.62 42.28C42.861 42.487 42.051 42.381 41.371 41.987C40.691 41.592 40.197 40.941 40 40.18C39.5 38.36 40.64 38.18 38.86 36.18C37.94 35.1 36.06 37.12 35.44 39.2C34.961 40.535 34.658 41.927 34.54 43.34C35.066 44.151 35.237 45.142 35.014 46.082C34.792 47.023 34.194 47.831 33.36 48.32C32.58 48.738 31.664 48.823 30.82 48.555C29.977 48.288 29.277 47.691 28.88 46.9C28.446 46.064 28.369 45.089 28.667 44.196C28.965 43.302 29.612 42.568 30.46 42.16C31.401 39.904 32.138 37.568 32.66 35.18C32.724 34.96 32.623 34.725 32.42 34.62C32.238 34.476 31.982 34.476 31.8 34.62C30.16 36.46 28.9 35.68 27.34 38.76C27.159 39.126 26.907 39.452 26.6 39.72C25.372 40.695 23.587 40.499 22.6 39.28C21.59 37.973 21.774 36.105 23.02 35.02C23.373 34.726 23.792 34.521 24.24 34.42C26.102 33.633 27.829 32.56 29.36 31.24C29.556 31.099 29.623 30.838 29.52 30.62C29.406 30.403 29.156 30.294 28.92 30.36C27.12 30.88 26.52 30.36 26.52 30.36C26.373 30.564 26.198 30.745 26 30.9C25.438 31.309 24.735 31.473 24.049 31.357C23.364 31.24 22.755 30.852 22.36 30.28C21.512 29.063 21.777 27.394 22.96 26.5C23.414 26.157 23.972 25.981 24.54 26C26.54 26 33.06 27.74 36.04 22L38.2 18C39.38 15.84 39.3 13.48 38 12.72L35.62 11.52C34.272 10.819 32.668 10.819 31.32 11.52L15.16 20.96C13.868 21.813 13.065 23.234 13 24.78 V43.22C13.075 44.764 13.876 46.18 15.16 47.04L31.32 56.48C32.668 57.181 34.272 57.181 35.62 56.48L52.66 47.02C53.983 46.171 54.845 44.764 55 43.2 V24.76C54.851 23.189 53.988 21.773 52.66 20.92L50 19.36C46.76 17.46 42.66 24.56 41.24 27.14"></path></g></g></g><g id="g-root-ic_divo_1cxdsd7vff1mu-fill" data-item-order="-2304" transform="translate(350, 338)"><g id="ic_divo_1cxdsd7vff1mu-fill-merged" stroke="none" fill="#ffffff" fill-opacity="1"><g><path d="M56.32 25.34L36.28 10.7C34.9 9.73 33.06 9.73 31.68 10.7L11.72 25.32C10.645 26.066 10.002 27.291 10 28.6 V56C10 57.105 10.895 58 12 58C13.105 58 14 57.105 14 56 V29.58C14.02 28.947 14.339 28.361 14.86 28L32.86 14.86C33.563 14.346 34.517 14.346 35.22 14.86L53.22 28.04C53.737 28.418 54.042 29.02 54.04 29.66 V56C54.04 57.105 54.935 58 56.04 58C57.145 58 58.04 57.105 58.04 56 V28.6C58.031 27.298 57.39 26.082 56.32 25.34 M36.1 31.2C35.356 31.878 34.804 32.74 34.5 33.7L33.42 37.2C33.34 37.509 33.399 37.837 33.58 38.1C33.771 38.349 34.066 38.497 34.38 38.5 H39C39.485 38.507 39.937 38.745 40.217 39.14C40.498 39.535 40.573 40.04 40.42 40.5L36.8 50.76C36.718 50.976 36.802 51.22 37 51.34C37.179 51.491 37.441 51.491 37.62 51.34L46.82 41.86C49.136 39.604 49.719 36.105 48.26 33.22C47.162 31.046 45.094 29.526 42.692 29.127C40.29 28.728 37.841 29.498 36.1 31.2 M35.46 41.5 H31C30.527 41.503 30.081 41.28 29.8 40.9C29.516 40.515 29.428 40.02 29.56 39.56L32 32C32.117 31.628 32.008 31.223 31.72 30.96C29.951 29.395 27.559 28.734 25.238 29.168C22.916 29.601 20.924 31.082 19.84 33.18C18.381 36.065 18.964 39.564 21.28 41.82L32 53C32.119 53.122 32.293 53.175 32.46 53.14C32.629 53.106 32.766 52.984 32.82 52.82L36.34 42.82C36.465 42.514 36.419 42.164 36.22 41.9C36.042 41.657 35.761 41.509 35.46 41.5"></path></g></g></g><g id="g-root-ic_spac_m97tgbvfdp8t-fill" data-item-order="-2304" transform="translate(278, 422)"><g id="ic_spac_m97tgbvfdp8t-fill-merged" stroke="none" fill="#ffffff" fill-opacity="1"><g><path d="M46 28C42.703 27.981 39.625 29.648 37.84 32.42C37.229 29.4 34.938 26.999 31.949 26.247C28.961 25.496 25.807 26.528 23.84 28.9C23.163 25.975 20.429 24.001 17.44 24.279C14.451 24.557 12.127 27.001 12 30 V39C12 39.552 12.448 40 13 40 H22 V49C22 49.552 22.448 50 23 50 H36 V57C36 57.552 36.448 58 37 58 H55C55.552 58 56 57.552 56 57 V38.78C56.164 36.009 55.189 33.291 53.301 31.255C51.413 29.22 48.776 28.044 46 28 M38 18C38 22.418 41.582 26 46 26C50.418 26 54 22.418 54 18C54 13.582 50.418 10 46 10C41.582 10 38 13.582 38 18 M24 18C24 21.314 26.686 24 30 24C33.314 24 36 21.314 36 18C36 14.686 33.314 12 30 12C26.686 12 24 14.686 24 18 M14 18C14 20.209 15.791 22 18 22C20.209 22 22 20.209 22 18C22 15.791 20.209 14 18 14C15.791 14 14 15.791 14 18"></path></g></g></g><g id="g-root-tx_wherenat_dcbv17vfdon8-fill" data-item-order="0" transform="translate(26, 38)"><g id="tx_wherenat_dcbv17vfdon8-fill-merged" stroke="none" fill="#484848" fill-opacity="1"><g><text style="font: bold 25px Roboto, sans-serif; white-space: pre;" transform="translate(286, 28)" font-weight="bold" font-size="25px" font-family="Roboto, sans-serif"><tspan x="-270.37" y="15" dominant-baseline="ideographic">Where Nature, Mind, and Society Meet in Design</tspan></text></g></g></g><g id="g-root-tx_biophili_de7aajvfc9hr-fill" data-item-order="0" transform="translate(212, 122)"><g id="tx_biophili_de7aajvfc9hr-fill-merged" stroke="none" fill="#484848" fill-opacity="1"><g><text style="font: 20px Roboto, sans-serif; white-space: pre;" transform="translate(100, 22)" font-size="20px" font-family="Roboto, sans-serif"><tspan x="-86.64" y="12" dominant-baseline="ideographic">Biophilic Well-being</tspan></text></g></g></g><g id="g-root-tx_material_1uuwjq3vfca2r-fill" data-item-order="0" transform="translate(14, 230)"><g id="tx_material_1uuwjq3vfca2r-fill-merged" stroke="none" fill="#484848" fill-opacity="1"><g><text style="font: 20px Roboto, sans-serif; white-space: pre;" transform="translate(94, 34)" font-size="20px" font-family="Roboto, sans-serif"><tspan x="-74.88" y="-0" dominant-baseline="ideographic">Material </tspan><tspan x="-72.02" y="24" dominant-baseline="ideographic">Ecology</tspan></text></g></g></g><g id="g-root-tx_environm_1qf31lnvfawpa-fill" data-item-order="0" transform="translate(506, 230)"><g id="tx_environm_1qf31lnvfawpa-fill-merged" stroke="none" fill="#484848" fill-opacity="1"><g><text style="font: 20px Roboto, sans-serif; white-space: pre;" transform="translate(10, 34)" font-size="20px" font-family="Roboto, sans-serif"><tspan x="2" y="-0" dominant-baseline="ideographic">Environmental </tspan><tspan x="2" y="24" dominant-baseline="ideographic">Psychology</tspan></text></g></g></g><g id="g-root-tx_biosocia_4m76jvfca2w-fill" data-item-order="0" transform="translate(50, 386)"><g id="tx_biosocia_4m76jvfca2w-fill-merged" stroke="none" fill="#484848" fill-opacity="1"><g><text style="font: 20px Roboto, sans-serif; white-space: pre;" transform="translate(130, 34)" font-size="20px" font-family="Roboto, sans-serif"><tspan x="-89.06" y="-0" dominant-baseline="ideographic">Bio-social </tspan><tspan x="-110.38" y="24" dominant-baseline="ideographic">Architecture</tspan></text></g></g></g><g id="g-root-tx_socialem_1lw561nvfcagx-fill" data-item-order="0" transform="translate(434, 386)"><g id="tx_socialem_1lw561nvfcagx-fill-merged" stroke="none" fill="#484848" fill-opacity="1"><g><text style="font: 20px Roboto, sans-serif; white-space: pre;" transform="translate(10, 46)" font-size="20px" font-family="Roboto, sans-serif"><tspan x="2" y="-12" dominant-baseline="ideographic">Social-</tspan><tspan x="2" y="12" dominant-baseline="ideographic">Emotional </tspan><tspan x="2" y="36" dominant-baseline="ideographic">Design</tspan></text></g></g></g><g id="g-root-tx_socialde_1qdu3ffvfc8oy-fill" data-item-order="0" transform="translate(236, 530)"><g id="tx_socialde_1qdu3ffvfc8oy-fill-merged" stroke="none" fill="#484848" fill-opacity="1"><g><text style="font: 20px Roboto, sans-serif; white-space: pre;" transform="translate(76, 22)" font-size="20px" font-family="Roboto, sans-serif"><tspan x="-60.26" y="12" dominant-baseline="ideographic">Social Design</tspan></text></g></g></g><g id="g-root-sy_4_cu_1upwr17vfawi7-stroke" data-item-order="-140154" transform="translate(182, 374.0087890625)"><g id="sy_4_cu_1upwr17vfawi7-stroke" fill="none" stroke-linecap="round" stroke-linejoin="round" stroke-miterlimit="4" stroke="#ffffff" stroke-width="2" stroke-opacity="1"><g><path d="M 249.12 24.385997C 234.654 30.568997 218.727 33.990997 202 33.990997C 174.985 33.990997 150.056 25.063997 130 9.999997C 109.944 25.063997 85.015 33.990997 58 33.990997C 41.273 33.990997 25.346 30.568997 10.88 24.385997C 10.299 29.172997 10 34.046997 10 38.990997C 10 105.264997 63.726 158.990997 130 158.990997C 196.274 158.990997 250 105.264997 250 38.990997C 250 34.046997 249.701 29.172997 249.12 24.385997Z"></path></g></g></g><g id="g-root-sy_3_cu_zof6cbvfau4o-stroke" data-item-order="-140150" transform="translate(302, 158)"><g id="sy_3_cu_zof6cbvfau4o-stroke" fill="none" stroke-linecap="round" stroke-linejoin="round" stroke-miterlimit="4" stroke="#ffffff" stroke-width="2" stroke-opacity="1"><g><path d="M 57.12 144.605C 57.701 139.818 58 134.944 58 130C 58 90.74 39.147 55.884 10 33.991C 30.056 18.927 54.985 10 82 10C 148.274 10 202 63.726 202 130C 202 179.547 171.971 222.081 129.12 240.395C 123.88 197.206 95.696 161.091 57.12 144.605Z"></path></g></g></g><g id="g-root-sy_1_cu_924morvfau4p-stroke" data-item-order="-140146" transform="translate(110, 158)"><g id="sy_1_cu_924morvfau4p-stroke" fill="none" stroke-linecap="round" stroke-linejoin="round" stroke-miterlimit="4" stroke="#ffffff" stroke-width="2" stroke-opacity="1"><g><path d="M 154.88 144.605C 154.299 139.818 154 134.944 154 130C 154 90.74 172.853 55.884 202 33.991C 181.944 18.927 157.015 10 130 10C 63.726 10 10 63.726 10 130C 10 179.547 40.029 222.081 82.88 240.395C 88.12 197.206 116.304 161.091 154.88 144.605Z"></path></g></g></g><g id="g-root-sy_7_cu_1hgy50bvfatxm-stroke" data-item-order="-140142" transform="translate(182.8800048828125, 292.60546875)"><g id="sy_7_cu_1hgy50bvfatxm-stroke" fill="none" stroke-linecap="round" stroke-linejoin="round" stroke-miterlimit="4" stroke="#ffffff" stroke-width="2" stroke-opacity="1"><g><path d="M 81.999995 9.999989C 43.423995 26.485989 15.239995 62.600989 9.999995 105.789989C 24.465995 111.972989 40.392995 115.394989 57.119995 115.394989C 84.134995 115.394989 109.063995 106.467989 129.119995 91.403989C 103.643995 72.267989 86.030995 43.227989 81.999995 9.999989Z"></path></g></g></g><g id="g-root-sy_6_cu_zpo4ijvfawar-stroke" data-item-order="-140138" transform="translate(302, 292.60546875)"><g id="sy_6_cu_zpo4ijvfawar-stroke" fill="none" stroke-linecap="round" stroke-linejoin="round" stroke-miterlimit="4" stroke="#ffffff" stroke-width="2" stroke-opacity="1"><g><path d="M 57.12 9.999989C 53.089 43.227989 35.476 72.267989 10 91.403989C 30.056 106.467989 54.985 115.394989 82 115.394989C 98.727 115.394989 114.654 111.972989 129.12 105.789989C 123.88 62.600989 95.696 26.485989 57.12 9.999989Z"></path></g></g></g><g id="g-root-sy_2_cu_93dkuzvfawas-stroke" data-item-order="-140134" transform="translate(254, 181.99072265625)"><g id="sy_2_cu_93dkuzvfawas-stroke" fill="none" stroke-linecap="round" stroke-linejoin="round" stroke-miterlimit="4" stroke="#ffffff" stroke-width="2" stroke-opacity="1"><g><path d="M 105.12 120.614003C 105.701 115.827003 106 110.953003 106 106.009003C 106 66.749003 87.147 31.893003 58 10.000003C 28.853 31.893003 10 66.749003 10 106.009003C 10 110.953003 10.299 115.827003 10.88 120.614003C 25.346 114.431003 41.273 111.009003 58 111.009003C 74.727 111.009003 90.654 114.431003 105.12 120.614003Z"></path></g></g></g><g id="g-root-sy_5_cu_18n6k0rvfatql-stroke" data-item-order="-140130" transform="translate(254.8800048828125, 283)"><g id="sy_5_cu_18n6k0rvfatql-stroke" fill="none" stroke-linecap="round" stroke-linejoin="round" stroke-miterlimit="4" stroke="#ffffff" stroke-width="2" stroke-opacity="1"><g><path d="M 104.239995 19.605C 100.207995 52.833 82.595995 81.873 57.119995 101.009C 31.643995 81.873 14.030995 52.833 9.999995 19.605C 24.465995 13.422 40.392995 10 57.119995 10C 73.846995 10 89.773995 13.422 104.239995 19.605Z"></path></g></g></g><g id="g-root-ic_1_qn5wbfvfrq4o-stroke" data-item-order="-2304" transform="translate(170, 230)"></g><g id="g-root-ic_plan_1utnljvvfjbbe-stroke" data-item-order="-2304" transform="translate(278, 218)"></g><g id="g-root-ic_sunb_qrj7x7vfjabt-stroke" data-item-order="-2304" transform="translate(386, 230)"></g><g id="g-root-ic_plan_qqa9qzvfghe7-stroke" data-item-order="-2304" transform="translate(278, 296)"></g><g id="g-root-ic_tree_1d1r3yzvfghl4-stroke" data-item-order="-2304" transform="translate(206, 338)"></g><g id="g-root-ic_divo_1cxdsd7vff1mu-stroke" data-item-order="-2304" transform="translate(350, 338)"></g><g id="g-root-ic_spac_m97tgbvfdp8t-stroke" data-item-order="-2304" transform="translate(278, 422)"></g><g id="g-root-tx_wherenat_dcbv17vfdon8-stroke" data-item-order="0" transform="translate(26, 38)"></g><g id="g-root-tx_biophili_de7aajvfc9hr-stroke" data-item-order="0" transform="translate(212, 122)"></g><g id="g-root-tx_material_1uuwjq3vfca2r-stroke" data-item-order="0" transform="translate(14, 230)"></g><g id="g-root-tx_environm_1qf31lnvfawpa-stroke" data-item-order="0" transform="translate(506, 230)"></g><g id="g-root-tx_biosocia_4m76jvfca2w-stroke" data-item-order="0" transform="translate(50, 386)"></g><g id="g-root-tx_socialem_1lw561nvfcagx-stroke" data-item-order="0" transform="translate(434, 386)"></g><g id="g-root-tx_socialde_1qdu3ffvfc8oy-stroke" data-item-order="0" transform="translate(236, 530)"></g></g></g></svg>