<?xml version="1.0" encoding="utf-8" standalone="yes"?>
<!DOCTYPE svg PUBLIC "-//W3C//DTD SVG 1.1//EN" "http://www.w3.org/Graphics/SVG/1.1/DTD/svg11.dtd">
<svg style="fill:none;stroke:none;fill-rule:evenodd;clip-rule:evenodd;stroke-linecap:round;stroke-linejoin:round;stroke-miterlimit:1.5;" version="1.1" xmlns="http://www.w3.org/2000/svg" xmlns:xlink="http://www.w3.org/1999/xlink" width="1020" height="877" viewBox="0 0 1020 877"><style class="text-font-style fontImports" data-font-family="Roboto">@import url(https://fonts.googleapis.com/css2?family=Roboto:wght@400;700&amp;amp;display=block);</style><g id="items" style="isolation: isolate"><g id="blend" style="mix-blend-mode: normal"><g id="g-root-sy_4_cu_mcca17wtk26l-fill" data-item-order="-641652" transform="translate(13.99853515625, 530.00341796875)"><g id="sy_4_cu_mcca17wtk26l-fill-merged" stroke="none" fill="#3cc583" fill-opacity="1"><g><path d="M526.045 298.148L802.06 130.148L748.208 34.148L526.045 169.371L303.867 34.144L250 130.148L526.045 298.148 M526.045 121.074L342.732 10L303.867 34.144L526.045 169.371L748.208 34.148L708.534 10L526.045 121.074 M34 34 H303.805L249.942 130 H34L10 82L34 34"></path></g></g></g><g id="g-root-sy_3_cu_90vrnvwtk3ri-fill" data-item-order="-641648" transform="translate(328.0063781738281, 397.95654296875)"><g id="sy_3_cu_90vrnvwtk3ri-fill-merged" stroke="none" fill="#4e88e7" fill-opacity="1"><g><path d="M211.977 124.203L63.198 34.054L10 130.046L28.664 141.898L211.977 252.973L394.465 141.898L413.938 130.046L360.086 34.054L211.977 124.203 M211.977 124.203L360.086 34.054L320.572 10L211.977 76.098L102.892 10L63.198 34.054L211.977 124.203 M360.078 34.047 H643.989L667.989 82.047L643.989 130.047 H413.935L360.078 34.047"></path></g></g></g><g id="g-root-sy_2_cu_1ur5scrwtk1zj-fill" data-item-order="-641644" transform="translate(157.99853515625, 265.85888671875)"><g id="sy_2_cu_1ur5scrwtk1zj-fill-merged" stroke="none" fill="#1eabda" fill-opacity="1"><g><path d="M381.985 208.195L490.58 142.098L509.977 130.14L456.04 34.148L381.985 79.219L307.927 34.145L254.059 130.14L272.9 142.098L381.985 208.195 M416.371 10L381.985 30.93L347.443 10L307.927 34.145L381.985 79.219L456.04 34.148L416.371 10 M34 34.145 H307.935L254.059 130.145 H34L10 82.145L34 34.145"></path></g></g></g><g id="g-root-sy_1_cu_1lvis3vwtk3k0-fill" data-item-order="-641640" transform="translate(476.13134765625, 158.00341796875)"><g id="sy_1_cu_1lvis3vwtk3k0-fill-merged" stroke="none" fill="#92bd39" fill-opacity="1"><g><path d="M63.853 10L10 106.004L29.312 117.855L63.853 138.785L98.24 117.855L117.712 106.004L63.853 10 M63.828 10 H339.87L363.87 58L339.87 106 H117.697L63.828 10"></path></g></g></g><g id="g-root-tx_hyphaene_1d0i8y3wtk16x-fill" data-item-order="0" transform="translate(421.99853515625, 14.00341796875)"><g id="tx_hyphaene_1d0i8y3wtk16x-fill-merged" stroke="none" fill="#484848" fill-opacity="1"><g><text style="font: bold 25px Roboto, sans-serif; white-space: pre;" transform="translate(118, 88)" font-weight="bold" font-size="25px" font-family="Roboto, sans-serif"><tspan x="-103.1" y="0" dominant-baseline="ideographic">Mycelium System </tspan><tspan x="-59.18" y="30" dominant-baseline="ideographic">Principles</tspan></text></g></g></g><g id="g-root-tx_resilien_8vvyyzwtliip-fill" data-item-order="0" transform="translate(589.99853515625, 170.00341796875)"><g id="tx_resilien_8vvyyzwtliip-fill-merged" stroke="none" fill="#ffffff" fill-opacity="1"><g><text style="font: bold 20px Roboto, sans-serif; white-space: pre;" transform="translate(10, 22)" font-weight="bold" font-size="20px" font-family="Roboto, sans-serif"><tspan x="2" y="12" dominant-baseline="ideographic">Resilience</tspan></text></g></g></g><g id="g-root-tx_abilityt_94mm6jwtk1s5-fill" data-item-order="0" transform="translate(589.99853515625, 206.00341796875)"><g id="tx_abilityt_94mm6jwtk1s5-fill-merged" stroke="none" fill="#ffffff" fill-opacity="1"><g><text style="font: 15px Roboto, sans-serif; white-space: pre;" transform="translate(10, 28)" font-size="15px" font-family="Roboto, sans-serif"><tspan x="2" y="-0.4" dominant-baseline="ideographic">Ability to withstand </tspan><tspan x="2" y="17.6" dominant-baseline="ideographic">environmental changes</tspan></text></g></g></g><g id="g-root-tx_exchange_qn5zgrwtlg5k-fill" data-item-order="0" transform="translate(301.99853515625, 302.00341796875)"><g id="tx_exchange_qn5zgrwtlg5k-fill-merged" stroke="none" fill="#ffffff" fill-opacity="1"><g><text style="font: bold 20px Roboto, sans-serif; white-space: pre;" transform="translate(106, 22)" font-weight="bold" font-size="20px" font-family="Roboto, sans-serif"><tspan x="-89" y="12" dominant-baseline="ideographic">Exchange</tspan></text></g></g></g><g id="g-root-tx_transfer_qva5l7wtk2ks-fill" data-item-order="0" transform="translate(229.99853515625, 338.00341796875)"><g id="tx_transfer_qva5l7wtk2ks-fill-merged" stroke="none" fill="#ffffff" fill-opacity="1"><g><text style="font: 15px Roboto, sans-serif; white-space: pre;" transform="translate(178, 28)" font-size="15px" font-family="Roboto, sans-serif"><tspan x="-166.34" y="-0.4" dominant-baseline="ideographic">Transfer of nutrients and </tspan><tspan x="-79.48" y="17.6" dominant-baseline="ideographic">information</tspan></text></g></g></g><g id="g-root-tx_connecti_147zm4rwtk35z-fill" data-item-order="0" transform="translate(745.99853515625, 434.00341796875)"><g id="tx_connecti_147zm4rwtk35z-fill-merged" stroke="none" fill="#ffffff" fill-opacity="1"><g><text style="font: bold 20px Roboto, sans-serif; white-space: pre;" transform="translate(10, 22)" font-weight="bold" font-size="20px" font-family="Roboto, sans-serif"><tspan x="2" y="12" dominant-baseline="ideographic">Connection</tspan></text></g></g></g><g id="g-root-tx_interlin_1d1r74bwtk3cz-fill" data-item-order="0" transform="translate(745.99853515625, 470.00341796875)"><g id="tx_interlin_1d1r74bwtk3cz-fill-merged" stroke="none" fill="#ffffff" fill-opacity="1"><g><text style="font: 15px Roboto, sans-serif; white-space: pre;" transform="translate(10, 28)" font-size="15px" font-family="Roboto, sans-serif"><tspan x="2" y="-0.4" dominant-baseline="ideographic">Interlinked threads enabling </tspan><tspan x="2" y="17.6" dominant-baseline="ideographic">resource sharing</tspan></text></g></g></g><g id="g-root-tx_hyphalne_1lyn5jfwtk3ym-fill" data-item-order="0" transform="translate(85.99853515625, 566.00341796875)"><g id="tx_hyphalne_1lyn5jfwtk3ym-fill-merged" stroke="none" fill="#ffffff" fill-opacity="1"><g><text style="font: bold 20px Roboto, sans-serif; white-space: pre;" transform="translate(178, 22)" font-weight="bold" font-size="20px" font-family="Roboto, sans-serif"><tspan x="-155.55" y="12" dominant-baseline="ideographic">Hyphal Networks</tspan></text></g></g></g><g id="g-root-tx_microsco_92r6x7wtk2ru-fill" data-item-order="0" transform="translate(49.99853515625, 602.00341796875)"><g id="tx_microsco_92r6x7wtk2ru-fill-merged" stroke="none" fill="#ffffff" fill-opacity="1"><g><text style="font: 15px Roboto, sans-serif; white-space: pre;" transform="translate(214, 28)" font-size="15px" font-family="Roboto, sans-serif"><tspan x="-194.36" y="-0.4" dominant-baseline="ideographic">Microscopic threads forming </tspan><tspan x="-112.38" y="17.6" dominant-baseline="ideographic">fungal mycelium</tspan></text></g></g></g><g id="g-root-sy_4_cu_mcca17wtk26l-stroke" data-item-order="-641652" transform="translate(13.99853515625, 530.00341796875)"><g id="sy_4_cu_mcca17wtk26l-stroke" fill="none" stroke-linecap="round" stroke-linejoin="round" stroke-miterlimit="4" stroke="#ffffff" stroke-width="2" stroke-opacity="1"><g><path d="M 250 130.1484L 526.0448 298.1484L 526.0448 169.3711L 303.8673 34.1437L 250 130.1484ZM 526.0448 298.1484L 802.0596 130.1484L 748.2081 34.1484L 526.0448 169.3711L 526.0448 298.1484ZM 526.0448 121.0742L 342.7321 10L 303.8673 34.1437L 526.0448 169.3711L 748.2081 34.1484L 708.5335 10L 526.0448 121.0742ZM 34 34L 303.8047 34L 249.9416 130L 34 130L 10 82L 34 34Z"></path></g></g></g><g id="g-root-sy_3_cu_90vrnvwtk3ri-stroke" data-item-order="-641648" transform="translate(328.0063781738281, 397.95654296875)"><g id="sy_3_cu_90vrnvwtk3ri-stroke" fill="none" stroke-linecap="round" stroke-linejoin="round" stroke-miterlimit="4" stroke="#ffffff" stroke-width="2" stroke-opacity="1"><g><path d="M 211.97677 252.9727L 394.46547 141.8984L 413.93827 130.0461L 360.086269 34.0543L 211.97677 124.2031L 211.97677 252.9727ZM 28.66407 141.8984L 211.97677 252.9727L 211.97677 124.2031L 63.19847 34.0543L 9.99997 130.0461L 28.66407 141.8984ZM 211.97677 124.2031L 360.086269 34.0543L 320.57157 10L 211.97677 76.0977L 102.89157 10L 63.19847 34.0543L 211.97677 124.2031ZM 360.078095 34.046875L 643.989195 34.046875L 667.989195 82.046875L 643.989195 130.046875L 413.934495 130.046875L 360.078095 34.046875Z"></path></g></g></g><g id="g-root-sy_2_cu_1ur5scrwtk1zj-stroke" data-item-order="-641644" transform="translate(157.99853515625, 265.85888671875)"><g id="sy_2_cu_1ur5scrwtk1zj-stroke" fill="none" stroke-linecap="round" stroke-linejoin="round" stroke-miterlimit="4" stroke="#ffffff" stroke-width="2" stroke-opacity="1"><g><path d="M 381.985194 79.2188L 307.926594 34.1445L 254.058594 130.1399L 272.899994 142.0977L 381.985194 208.1953L 381.985194 79.2188ZM 381.985194 208.1953L 490.579994 142.0977L 509.976894 130.1399L 456.039994 34.1482L 381.985194 79.2188L 381.985194 208.1953ZM 416.371494 10L 381.985194 30.9297L 347.443494 10L 307.926594 34.1445L 381.985194 79.2188L 456.039994 34.1482L 416.371494 10ZM 34 34.144531L 307.9355 34.144531L 254.0586 130.144531L 34 130.144531L 10 82.144531L 34 34.144531Z"></path></g></g></g><g id="g-root-sy_1_cu_1lvis3vwtk3k0-stroke" data-item-order="-641640" transform="translate(476.13134765625, 158.00341796875)"><g id="sy_1_cu_1lvis3vwtk3k0-stroke" fill="none" stroke-linecap="round" stroke-linejoin="round" stroke-miterlimit="4" stroke="#ffffff" stroke-width="2" stroke-opacity="1"><g><path d="M 63.8534 138.7852L 98.239701 117.8555L 117.7119 106.0035L 63.8534 10L 63.8534 138.7852ZM 29.3117 117.8555L 63.8534 138.7852L 63.8534 10L 10 106.0035L 29.3117 117.8555ZM 63.828126 10L 339.870225 10L 363.870225 58L 339.870225 106L 117.696725 106L 63.828126 10Z"></path></g></g></g><g id="g-root-tx_hyphaene_1d0i8y3wtk16x-stroke" data-item-order="0" transform="translate(421.99853515625, 14.00341796875)"></g><g id="g-root-tx_resilien_8vvyyzwtliip-stroke" data-item-order="0" transform="translate(589.99853515625, 170.00341796875)"></g><g id="g-root-tx_abilityt_94mm6jwtk1s5-stroke" data-item-order="0" transform="translate(589.99853515625, 206.00341796875)"></g><g id="g-root-tx_exchange_qn5zgrwtlg5k-stroke" data-item-order="0" transform="translate(301.99853515625, 302.00341796875)"></g><g id="g-root-tx_transfer_qva5l7wtk2ks-stroke" data-item-order="0" transform="translate(229.99853515625, 338.00341796875)"></g><g id="g-root-tx_connecti_147zm4rwtk35z-stroke" data-item-order="0" transform="translate(745.99853515625, 434.00341796875)"></g><g id="g-root-tx_interlin_1d1r74bwtk3cz-stroke" data-item-order="0" transform="translate(745.99853515625, 470.00341796875)"></g><g id="g-root-tx_hyphalne_1lyn5jfwtk3ym-stroke" data-item-order="0" transform="translate(85.99853515625, 566.00341796875)"></g><g id="g-root-tx_microsco_92r6x7wtk2ru-stroke" data-item-order="0" transform="translate(49.99853515625, 602.00341796875)"></g></g></g></svg>