<?xml version="1.0" encoding="utf-8" standalone="yes"?>
<!DOCTYPE svg PUBLIC "-//W3C//DTD SVG 1.1//EN" "http://www.w3.org/Graphics/SVG/1.1/DTD/svg11.dtd">
<svg style="fill:none;stroke:none;fill-rule:evenodd;clip-rule:evenodd;stroke-linecap:round;stroke-linejoin:round;stroke-miterlimit:1.5;" version="1.1" xmlns="http://www.w3.org/2000/svg" xmlns:xlink="http://www.w3.org/1999/xlink" width="1045" height="546" viewBox="0 0 1045 546"><style class="text-font-style fontImports" data-font-family="Montserrat">@import url(https://fonts.googleapis.com/css2?family=Montserrat:wght@400;700&amp;amp;display=block);</style><g id="items" style="isolation: isolate"><g id="blend" style="mix-blend-mode: normal"><g id="g-root-cp_-1_common_m7z4n0flv75u-fill" data-item-order="-448190" transform="translate(314.00006103515625, 98)"><g id="cp_-1_common_m7z4n0flv75u-fill-merged" stroke="none" fill="#969696" fill-opacity="1"><g><path d="M436.5 147.883C424.112 147.883 418.119 148.133 412 148.154L415.5 144.5L425 133L428 138L435 142L439.5 139.5L443.5 142L448 148.245C443.658 148.087 439.772 147.883 436.5 147.883 M34.5 147.883C22.112 147.883 16.119 148.133 10 148.154L13.5 144.5L23 143L26 138L29.5 140.5L33 142.5L34.5 147.883 M64 148L87.387 127.39L102.433 105.926L126.964 93.389L135.141 99.182L142.501 84.176L152.477 74.679L157.383 64.801L174.392 57.108L180.279 36.213L193.526 25.861L197.615 28.045L212.17 10L216.586 16.268 V20.542L225.09 29.375L232.123 23.297L249.131 53.214L262.378 46.566L274.317 64.801 V73.159L279.55 77.053L281.676 90.445L289.853 80.472L292 82.046L315.366 99.182L317.165 111.434L332.865 107.35L339.407 127.39L342.842 126.345L352 148 H64"></path></g></g></g><g id="g-root-cp_-1_common_1_dcc4e4flv7yj-fill" data-item-order="-448184" transform="translate(370.83612060546875, 243.2559814453125)"><g id="cp_-1_common_1_dcc4e4flv7yj-fill-merged" stroke="none" fill="#1eabda" fill-opacity="1"><g><path d="M158.869 11.189C152.027 11.582 146.38 11.784 138.164 11.183C128.655 10.488 117.533 10.868 105.595 11.276C103.87 11.334 102.128 11.394 100.371 11.451C88.076 11.849 75.065 12.121 62.164 11.183C48.157 10.165 29.481 10.703 11.816 11.212 H10L15.506 28.244L18.664 54.071L38.858 80.62L52.164 95.244L58.164 133.744L77.164 157.744L104.846 169.62L113.664 189.744L142.164 228.244L161.883 208.244L181.164 201.244L184.664 189.744L197.346 168.244L248.627 133.744L261.164 88.62L287.846 55.744L292.516 11.13L210.164 10.183C208.572 10.149 207.029 10.12 205.532 10.096C183.082 9.738 171.088 10.458 161.883 11.01C160.847 11.072 159.846 11.132 158.869 11.189 M210.164 10.179C208.572 10.145 207.029 10.12 205.532 10.096L210.164 10.183"></path></g></g></g><g id="g-root-cp_-1_common_2_8wim9oflv8qs-fill" data-item-order="-448177" transform="translate(38, 230)"></g><g id="g-root-sy_0_line_8wim9oflv8qt-fill" data-item-order="-448169" transform="translate(343.00006103515625, 145.9959716796875)"></g><g id="g-root-sy_1_line_1i33wflv6dq-fill" data-item-order="-448163" transform="translate(350.00006103515625, 305)"></g><g id="g-root-sy_2_line_1i33wflv6dr-fill" data-item-order="-448157" transform="translate(512.0000610351562, 344)"></g><g id="g-root-sy_3_line_1umsmykflv6yw-fill" data-item-order="-448151" transform="translate(350.00006103515625, 383)"></g><g id="g-root-tx_meltingi_1q6z4u4flv7r5-fill" data-item-order="0" transform="translate(254.00006103515625, 38)"><g id="tx_meltingi_1q6z4u4flv7r5-fill-merged" stroke="none" fill="#484848" fill-opacity="1"><g><text style="font: bold 20px Montserrat, sans-serif; white-space: pre;" transform="translate(268, 22)" font-weight="bold" font-size="20px" font-family="Montserrat, sans-serif"><tspan x="-251.39" y="12" dominant-baseline="ideographic">Melting Ice: A Visible Symbol of Climate Change</tspan></text></g></g></g><g id="g-root-tx_climatea_v8lrakgg3tor-fill" data-item-order="0" transform="translate(158.00006103515625, 116)"><g id="tx_climatea_v8lrakgg3tor-fill-merged" stroke="none" fill="#4f92ff" fill-opacity="1"><g><text style="font: bold 15px Montserrat, sans-serif; white-space: pre;" transform="translate(142, 22)" font-weight="bold" font-size="15px" font-family="Montserrat, sans-serif"><tspan x="-130.41" y="9" dominant-baseline="ideographic">ICEY Installation</tspan></text></g></g></g><g id="g-root-ic_2_8xre7wdo6hvu-fill" data-item-order="0" transform="translate(302.00006103515625, 128)"></g><g id="g-root-tx_installa_4gp7ccgq21om-fill" data-item-order="0" transform="translate(62.00006103515625, 140)"><g id="tx_installa_4gp7ccgq21om-fill-merged" stroke="none" fill="#484848" fill-opacity="1"><g><text style="font: 11.7px Montserrat, sans-serif; white-space: pre;" transform="translate(238, 28)" font-size="11.7px" font-family="Montserrat, sans-serif"><tspan x="-218.41" y="0" dominant-baseline="ideographic">User raises environmental awareness </tspan><tspan x="-175.97" y="14" dominant-baseline="ideographic">through interaction with ICEY</tspan></text></g></g></g><g id="g-root-tx_climatea_zit5x8fm0u84-fill" data-item-order="0" transform="translate(134.00006103515625, 275)"><g id="tx_climatea_zit5x8fm0u84-fill-merged" stroke="none" fill="#e0cb15" fill-opacity="1"><g><text style="font: bold 15px Montserrat, sans-serif; white-space: pre;" transform="translate(166, 22)" font-weight="bold" font-size="15px" font-family="Montserrat, sans-serif"><tspan x="-152.54" y="9" dominant-baseline="ideographic">Climate Awareness</tspan></text></g></g></g><g id="g-root-ic_2_140i3b0flv6yy-fill" data-item-order="0" transform="translate(302.00006103515625, 287)"></g><g id="g-root-tx_installa_m7z4n0fm0sn9-fill" data-item-order="0" transform="translate(38.00006103515625, 299)"><g id="tx_installa_m7z4n0fm0sn9-fill-merged" stroke="none" fill="#484848" fill-opacity="1"><g><text style="font: 11.7px Montserrat, sans-serif; white-space: pre;" transform="translate(262, 28)" font-size="11.7px" font-family="Montserrat, sans-serif"><tspan x="-239.74" y="0" dominant-baseline="ideographic">Installation shows slow, fragile process of </tspan><tspan x="-68.07" y="14" dominant-baseline="ideographic">melting ice</tspan></text></g></g></g><g id="g-root-ic_1_qu1dmkfly1vn-fill" data-item-order="0" transform="translate(686.0000610351562, 326)"></g><g id="g-root-tx_fragilep_8wim9ofm0u86-fill" data-item-order="0" transform="translate(734.0000610351562, 314)"><g id="tx_fragilep_8wim9ofm0u86-fill-merged" stroke="none" fill="#de8431" fill-opacity="1"><g><text style="font: bold 15px Montserrat, sans-serif; white-space: pre;" transform="translate(10, 22)" font-weight="bold" font-size="15px" font-family="Montserrat, sans-serif"><tspan x="2" y="9" dominant-baseline="ideographic">Fragile Process</tspan></text></g></g></g><g id="g-root-tx_globalwa_1q6z4u4fm0t8g-fill" data-item-order="0" transform="translate(158.00006103515625, 353)"><g id="tx_globalwa_1q6z4u4fm0t8g-fill-merged" stroke="none" fill="#e55753" fill-opacity="1"><g><text style="font: bold 15px Montserrat, sans-serif; white-space: pre;" transform="translate(142, 22)" font-weight="bold" font-size="15px" font-family="Montserrat, sans-serif"><tspan x="-129.59" y="9" dominant-baseline="ideographic">Global Warming</tspan></text></g></g></g><g id="g-root-ic_1_1uo1l4sflzggb-fill" data-item-order="0" transform="translate(302.00006103515625, 365)"></g><g id="g-root-tx_simulate_1umsmykfm0sg7-fill" data-item-order="0" transform="translate(734.0000610351562, 338)"><g id="tx_simulate_1umsmykfm0sg7-fill-merged" stroke="none" fill="#484848" fill-opacity="1"><g><text style="font: 11.7px Montserrat, sans-serif; white-space: pre;" transform="translate(10, 28)" font-size="11.7px" font-family="Montserrat, sans-serif"><tspan x="2" y="0" dominant-baseline="ideographic">Geometric lattice shows ice's fragility and </tspan><tspan x="2" y="14" dominant-baseline="ideographic">resilience</tspan></text></g></g></g><g id="g-root-tx_symboliz_1cvimgsfm0utd-fill" data-item-order="0" transform="translate(62.00006103515625, 377)"><g id="tx_symboliz_1cvimgsfm0utd-fill-merged" stroke="none" fill="#484848" fill-opacity="1"><g><text style="font: 11.7px Montserrat, sans-serif; white-space: pre;" transform="translate(238, 28)" font-size="11.7px" font-family="Montserrat, sans-serif"><tspan x="-223.71" y="0" dominant-baseline="ideographic">Symbolizes the urgent reality through </tspan><tspan x="-111.9" y="14" dominant-baseline="ideographic">warning red lights </tspan></text></g></g></g><g id="g-root-cp_-1_common_m7z4n0flv75u-stroke" data-item-order="-448190" transform="translate(314.00006103515625, 98)"><g id="cp_-1_common_m7z4n0flv75u-stroke" fill="none" stroke-linecap="round" stroke-linejoin="round" stroke-miterlimit="4" stroke="#ffffff" stroke-width="2" stroke-opacity="1"><g><path d="M 436.5 147.8828C 424.1125 147.8828 418.1187 148.1327 412 148.1545L 415.5 144.5L 425 133L 428 138L 435 142L 439.5 139.5L 443.5 142L 448 148.2453C 443.6582 148.0872 439.7723 147.8828 436.5 147.8828ZM 34.5 147.8828C 22.1125 147.8828 16.1187 148.1327 10 148.1545L 13.5 144.5L 23 143L 26 138L 29.5 140.5L 33 142.5L 34.5 147.8828ZM 64 148L 87.3867 127.3902L 102.4327 105.9256L 126.9642 93.3888L 135.1414 99.1824L 142.5009 84.1762L 152.477 74.6786L 157.3833 64.8011L 174.3918 57.108L 180.2794 36.2134L 193.5264 25.861L 197.615 28.0454L 212.1704 10L 216.586 16.2684L 216.586 20.5423L 225.0903 29.3751L 232.1227 23.2966L 249.1312 53.214L 262.3782 46.5657L 274.3169 64.8011L 274.3169 73.159L 279.5503 77.053L 281.6763 90.4446L 289.8535 80.4721L 292 82.0463L 315.3663 99.1824L 317.1653 111.4343L 332.8654 107.3503L 339.4072 127.3902L 342.8416 126.3455L 352 148L 255.5 148L 64 148ZM 126.9642 93.3888L 123 119.25L 115 117.1591L 104.5 135.9773L 99.5 132.3182L 96.5 140.1591M 135.1414 99.1824L 157.3833 111.4343L 166 123.4318L 178.5 119.25L 190.5 129.1818L 225.0903 135.9773L 235.5 129.1818L 255.5 148M 212.1704 10L 206.5 36.2134L 214.5 46.5657L 221 41.8864L 225.0903 64.8011L 240.5 84.1762L 245 80.4721L 249.1312 93.3888L 255.5 99.1824M 281.6763 90.4446L 260 105.9256L 252 117.1591L 232.1227 111.4343L 214.5 103.0454L 206.5 121.3409L 199.5 126.3455M 292 82.0463L 289.8535 105.9256L 297.5 119.25L 304 111.4343L 315.3663 135.9773M 201 75.5L 188 80L 178.5 94.6786L 166 97.053M 279.5503 103.0454L 274.3169 111.4343L 267 114M 131.5 129.1818L 142.5008 123.4318L 152.477 132.3182L 158.9106 129.1818L 166 135.9773L 178.5 140.1591"></path></g></g></g><g id="g-root-cp_-1_common_1_dcc4e4flv7yj-stroke" data-item-order="-448184" transform="translate(370.83612060546875, 243.2559814453125)"><g id="cp_-1_common_1_dcc4e4flv7yj-stroke" fill="none" stroke-linecap="round" stroke-linejoin="round" stroke-miterlimit="4" stroke="#ffffff" stroke-width="2" stroke-opacity="1"><g><path d="M 158.869169 11.1885C 152.026669 11.5821 146.380469 11.7843 138.164069 11.1834C 128.655169 10.4879 117.532569 10.8678 105.594569 11.2755C 103.869769 11.3344 102.127969 11.3939 100.371469 11.4508C 88.076269 11.8492 75.065169 12.1213 62.164069 11.1834C 48.157269 10.165 29.480869 10.7029 11.816469 11.2116L 11.807469 11.2119L 9.999969 11.2639L 15.505569 28.2441L 18.663969 54.0708L 38.858369 80.6199L 52.164069 95.244L 58.164069 133.744L 77.164069 157.7441L 104.846269 169.6199L 113.664069 189.7441L 142.164069 228.2441L 161.883369 208.2441L 181.164069 201.2441L 184.664069 189.7441L 197.346069 168.2441L 248.627469 133.744L 261.164069 88.6199L 287.846269 55.7441L 292.516469 11.1299L 210.164069 10.1827C 208.572169 10.1489 207.028869 10.1201 205.532169 10.0962C 183.081569 9.7375 171.087769 10.4575 161.883369 11.01C 160.846969 11.0722 159.845769 11.1323 158.869169 11.1885ZM 138.164069 11.1834L 138.164069 11.1795C 128.655169 10.484 117.532569 10.8669 105.594569 11.2755M 62.164069 11.1834L 62.164069 11.1795M 11.816469 11.2116C 11.813469 11.2117 11.810469 11.2118 11.807469 11.2119C 11.203769 11.2292 10.601069 11.2427 9.999969 11.2599L 9.999969 11.2639M 18.663969 54.0708L 54.663969 50.7441L 69.944569 58.2441L 74.663969 69.2441L 84.102269 90.7527L 104.846169 80.6199L 119.163969 100.244M 292.516469 11.1299L 292.516469 11.126M 210.164069 10.1827L 210.164069 10.1788C 208.572169 10.1449 207.028869 10.1201 205.532169 10.0962M 199.346269 117.6199L 214.931569 90.1199L 236.346169 102.1211L 253.164069 73.7441M 172.164069 27.7441L 187.664069 39.7441L 200.664069 29.2441L 212.164069 53.7441L 229.664069 34.2441M 90.164069 44.2441L 108.164069 33.2441L 124.164069 39.7441L 134.164069 33.2441L 155.664069 55.7441"></path></g></g></g><g id="g-root-cp_-1_common_2_8wim9oflv8qs-stroke" data-item-order="-448177" transform="translate(38, 230)"><g id="cp_-1_common_2_8wim9oflv8qs-stroke" fill="none" stroke-linecap="round" stroke-linejoin="round" stroke-miterlimit="4" stroke="#484848" stroke-width="2" stroke-opacity="1"><g><path d="M 238 24.434C 252.3333 23.7674 285.1 22.834 301.5 24.434C 311.1999 25.3804 326.4969 24.9835 342.8359 24.5145C 361.0281 23.9923 380.512 23.3807 395 24.434C 422.5 26.4334 450.5 22.9347 471 24.434C 491.5 25.9334 496 22.4334 543 23.4334C 568.9358 23.9852 599.4392 24.3852 625.3523 24.3806C 646.3981 24.3768 664.4161 24.1062 674.5 23.4334C 697 21.9321 750 24.9347 768.5 23.4334M 308 10L 346.5 10M 10 10L 299.5 10M 625.5 10L 693.5 10M 719.5 10L 958 10M 326 15.9566C 330.4566 15.9798 335.2835 15.9994 340 15.9994L 628 15.9994C 639 16.4104 643.5 15.8828 661.5 15.8828M 317.5 15.9092C 314.7028 15.8939 312.3013 15.8828 310.5 15.8828C 292.5 15.8828 288 16.4104 277 15.9994L 265.5 15.9994M 679 15.9994C 690 16.4104 694.5 15.8828 712.5 15.8828C 718.343 15.8828 726.1426 16.5347 735 16.4104M 755.5 16.4104L 788 16.4104C 800.4 16.4104 813.8333 16.0587 819 15.8828M 247.5 15.9994C 237.5 15.8828 221 17.5989 215 15.9994"></path></g></g></g><g id="g-root-sy_0_line_8wim9oflv8qt-stroke" data-item-order="-448169" transform="translate(343.00006103515625, 145.9959716796875)"><g id="sy_0_line_8wim9oflv8qt-stroke" fill="none" stroke-linecap="round" stroke-linejoin="round" stroke-miterlimit="4" stroke="#484848" stroke-width="2" stroke-opacity="1"><g><path d="M 10 10L 176 10"></path><path d="M 170 16.5L 176.5 10L 170 3.5" stroke-dasharray="none"></path></g></g></g><g id="g-root-sy_1_line_1i33wflv6dq-stroke" data-item-order="-448163" transform="translate(350.00006103515625, 305)"><g id="sy_1_line_1i33wflv6dq-stroke" fill="none" stroke-linecap="round" stroke-linejoin="round" stroke-miterlimit="4" stroke="#484848" stroke-width="2" stroke-opacity="1"><g><path d="M 10 10L 170 10"></path><path d="M 164 16.5L 170.5 10L 164 3.5" stroke-dasharray="none"></path></g></g></g><g id="g-root-sy_2_line_1i33wflv6dr-stroke" data-item-order="-448157" transform="translate(512.0000610351562, 344)"><g id="sy_2_line_1i33wflv6dr-stroke" fill="none" stroke-linecap="round" stroke-linejoin="round" stroke-miterlimit="4" stroke="#484848" stroke-width="2" stroke-opacity="1"><g><path d="M 12 10L 172 10"></path><path d="M 18 3.5L 11.5 10L 18 16.5" stroke-dasharray="none"></path></g></g></g><g id="g-root-sy_3_line_1umsmykflv6yw-stroke" data-item-order="-448151" transform="translate(350.00006103515625, 383)"><g id="sy_3_line_1umsmykflv6yw-stroke" fill="none" stroke-linecap="round" stroke-linejoin="round" stroke-miterlimit="4" stroke="#484848" stroke-width="2" stroke-opacity="1"><g><path d="M 10 10L 128 10"></path><path d="M 122 16.5L 128.5 10L 122 3.5" stroke-dasharray="none"></path></g></g></g><g id="g-root-tx_meltingi_1q6z4u4flv7r5-stroke" data-item-order="0" transform="translate(254.00006103515625, 38)"></g><g id="g-root-tx_climatea_v8lrakgg3tor-stroke" data-item-order="0" transform="translate(158.00006103515625, 116)"></g><g id="g-root-ic_2_8xre7wdo6hvu-stroke" data-item-order="0" transform="translate(302.00006103515625, 128)"><g id="ic_2_8xre7wdo6hvu-stroke" fill="none" stroke-linecap="round" stroke-linejoin="round" stroke-miterlimit="4" stroke="#484848" stroke-width="2" stroke-opacity="1"><g><path d="M 25.75 24.658585L 11.125 18.01087L 11.125 33.965351L 25.75 40.613201L 25.75 24.658585ZM 25.75 40.613201L 25.75 24.658585L 40.375 18.01087L 40.375 28.444901M 40.375 18.010405L 25.75 11.362671L 11.125 18.010405M 44.875 38.720798L 31 38.720798M 10 10M 37.66795 44.637402L 31.00135 38.72065L 37.66795 32.80405"></path></g></g></g><g id="g-root-tx_installa_4gp7ccgq21om-stroke" data-item-order="0" transform="translate(62.00006103515625, 140)"></g><g id="g-root-tx_climatea_zit5x8fm0u84-stroke" data-item-order="0" transform="translate(134.00006103515625, 275)"></g><g id="g-root-ic_2_140i3b0flv6yy-stroke" data-item-order="0" transform="translate(302.00006103515625, 287)"><g id="ic_2_140i3b0flv6yy-stroke" fill="none" stroke-linecap="round" stroke-linejoin="round" stroke-miterlimit="4" stroke="#484848" stroke-width="2" stroke-opacity="1"><g><path d="M 40 22.75C 39.995365 16.820555 35.660713 11.783413 29.798218 10.894878C 23.935724 10.006343 18.303148 13.532825 16.541716 19.194601C 14.780285 24.856379 17.418133 30.955864 22.75 33.549999L 22.75 40C 22.75 40.828426 23.421572 41.5 24.25 41.5L 31.75 41.5C 32.578426 41.5 33.25 40.828426 33.25 40L 33.25 33.549999C 37.382362 31.539467 40.00359 27.345505 40 22.75ZM 24.25 41.5L 31.75 41.5L 31.75 41.5L 31.75 43.75C 31.75 44.578426 31.078428 45.25 30.25 45.25L 25.75 45.25C 24.921572 45.25 24.25 44.578426 24.25 43.75L 24.25 41.5L 24.25 41.5ZM 22.75 37L 33.25 37"></path></g></g></g><g id="g-root-tx_installa_m7z4n0fm0sn9-stroke" data-item-order="0" transform="translate(38.00006103515625, 299)"></g><g id="g-root-ic_1_qu1dmkfly1vn-stroke" data-item-order="0" transform="translate(686.0000610351562, 326)"><g id="ic_1_qu1dmkfly1vn-stroke" fill="none" stroke-linecap="round" stroke-linejoin="round" stroke-miterlimit="4" stroke="#484848" stroke-width="2" stroke-opacity="1"><g><path d="M 10 10M 32.575001 29.125L 35.875 31.375L 39.175003 29.125M 35.875 44.875L 35.875 26.875M 10 10M 32.575001 42.625L 35.875 40.375L 39.175003 42.625M 10 10M 42.625 32.424999L 40.375 35.875L 42.625 39.175003M 26.875 35.875L 44.875 35.875M 10 10M 29.125 32.424999L 31.375 35.875L 29.125 39.175003M 21.174999 38.125L 13.375 38.125C 12.175 38.125 11.125 37.074997 11.125 35.875L 11.125 20.125C 11.125 18.924999 12.175 17.875 13.375 17.875L 35.875 17.875C 37.074997 17.875 38.125 18.924999 38.125 20.125L 38.125 22.974998M 37.375 18.475016L 33.174999 12.175C 32.724998 11.575 32.125 11.125 31.375 11.125L 18.025 11.125C 17.275 11.125 16.525 11.575 16.225 12.175L 11.875 18.475016M 24.625 11.125L 24.625 17.875"></path></g></g></g><g id="g-root-tx_fragilep_8wim9ofm0u86-stroke" data-item-order="0" transform="translate(734.0000610351562, 314)"></g><g id="g-root-tx_globalwa_1q6z4u4fm0t8g-stroke" data-item-order="0" transform="translate(158.00006103515625, 353)"></g><g id="g-root-ic_1_1uo1l4sflzggb-stroke" data-item-order="0" transform="translate(302.00006103515625, 365)"><g id="ic_1_1uo1l4sflzggb-stroke" fill="none" stroke-linecap="round" stroke-linejoin="round" stroke-miterlimit="4" stroke="#484848" stroke-width="2" stroke-opacity="1"><g><path d="M 16.492001 42.25L 17.5 37.201L 18.578499 37.201C 19.040184 37.200874 19.476089 36.988144 19.760267 36.624283C 20.044443 36.260418 20.145227 35.785961 20.033501 35.338001L 19.283501 32.338001C 19.116894 31.670008 18.516956 31.201191 17.828499 31.201L 12.4765 31.201M 32.485001 26.701L 28.421501 26.701C 27.733044 26.701191 27.133106 27.170008 26.966499 27.838001L 26.216499 30.838001C 26.104773 31.285961 26.205557 31.760418 26.489733 32.124283C 26.773911 32.488144 27.209816 32.700874 27.671501 32.701L 29.2495 32.701L 30.0415 37.448502C 30.162403 38.171204 30.787754 38.700783 31.5205 38.701L 33.446499 38.701M 12.25 33.451C 12.250001 39.664204 17.286797 44.701 23.5 44.701C 29.713203 44.701 34.75 39.664204 34.75 33.451C 34.75 27.237797 29.713203 22.201 23.5 22.201C 17.286797 22.201 12.250001 27.237797 12.250001 33.451ZM 24.4345 19.199499C 24.497499 19.0135 24.563499 18.826 24.6355 18.634001C 24.954632 17.974937 25.112963 17.249601 25.0975 16.5175C 25.074867 16.262077 25.184296 16.012794 25.387632 15.856569C 25.590971 15.700343 25.860031 15.658829 26.101 15.7465C 27.432413 16.214148 28.463148 17.285511 28.879002 18.634001C 29.798317 17.267178 30.949074 16.071243 32.279499 15.099999C 33.245914 14.388788 33.809559 13.254793 33.792999 12.055C 33.788986 11.762171 33.955784 11.493792 34.220127 11.367745C 34.484467 11.241698 34.798 11.281044 35.022999 11.4685C 38.395039 14.070416 40.306499 18.137928 40.157501 22.394499C 40.857971 22.024954 41.494568 21.545353 42.042999 20.973999C 42.229137 20.771872 42.51091 20.687717 42.777405 20.754654C 43.043907 20.821592 43.252468 21.028906 43.320999 21.295C 44.047001 24.099998 44.644001 30.018999 38.089001 33.164501"></path></g></g></g><g id="g-root-tx_simulate_1umsmykfm0sg7-stroke" data-item-order="0" transform="translate(734.0000610351562, 338)"></g><g id="g-root-tx_symboliz_1cvimgsfm0utd-stroke" data-item-order="0" transform="translate(62.00006103515625, 377)"></g></g></g></svg>