<?xml version="1.0" encoding="utf-8" standalone="yes"?>
<!DOCTYPE svg PUBLIC "-//W3C//DTD SVG 1.1//EN" "http://www.w3.org/Graphics/SVG/1.1/DTD/svg11.dtd">
<svg style="fill:none;stroke:none;fill-rule:evenodd;clip-rule:evenodd;stroke-linecap:round;stroke-linejoin:round;stroke-miterlimit:1.5;" version="1.1" xmlns="http://www.w3.org/2000/svg" xmlns:xlink="http://www.w3.org/1999/xlink" width="1044" height="738" viewBox="0 0 1044 738"><style class="text-font-style fontImports" data-font-family="Roboto">@import url(https://fonts.googleapis.com/css2?family=Roboto:wght@400;700&amp;amp;display=block);</style><g id="items" style="isolation: isolate"><g id="blend" style="mix-blend-mode: normal"><g id="g-root-cp_-1_common_qtegrjgg6mf7-fill" data-item-order="-639422" transform="translate(314, 170)"><g id="cp_-1_common_qtegrjgg6mf7-fill-merged" stroke="none" fill="#4f92ff" fill-opacity="1"><g><path d="M436.5 147.883C424.112 147.883 418.119 148.133 412 148.154L415.5 144.5L425 133L428 138L435 142L439.5 139.5L443.5 142L448 148.245C443.658 148.087 439.772 147.883 436.5 147.883 M34.5 147.883C22.112 147.883 16.119 148.133 10 148.154L13.5 144.5L23 143L26 138L29.5 140.5L33 142.5L34.5 147.883 M64 148L87.387 127.39L102.433 105.926L126.964 93.389L135.141 99.182L142.501 84.176L152.477 74.679L157.383 64.801L174.392 57.108L180.279 36.213L193.526 25.861L197.615 28.045L212.17 10L216.586 16.268 V20.542L225.09 29.375L232.123 23.297L249.131 53.214L262.378 46.566L274.317 64.801 V73.159L279.55 77.053L281.676 90.445L289.853 80.472L292 82.046L315.366 99.182L317.165 111.434L332.865 107.35L339.407 127.39L342.842 126.345L352 148 H64"></path></g></g></g><g id="g-root-cp_-1_common_1_hxrgingg6n7w-fill" data-item-order="-639416" transform="translate(370.83599853515625, 315.2559814453125)"><g id="cp_-1_common_1_hxrgingg6n7w-fill-merged" stroke="none" fill="#484848" fill-opacity="1"><g><path d="M158.869 11.189C152.027 11.582 146.381 11.784 138.164 11.183C128.655 10.488 117.533 10.868 105.595 11.276C103.87 11.334 102.128 11.394 100.372 11.451C88.076 11.849 75.065 12.121 62.164 11.183C48.157 10.165 29.481 10.703 11.817 11.212 H10 V61.244L13.664 88.744L43.189 158.608L51.53 178.099L57.664 240.244L88.664 269.744L94.664 316.12L117.664 333.12L133.664 357.244L152.664 344.244L182.664 333.12L187.164 314.744L204.749 296.744L224.664 269.744 V247.62L238.115 226.62L256.664 153.244L277.664 126.744L281.993 83.259 V47.724L295.164 25.944L294.344 21.355L292.516 11.13L210.164 10.183C208.572 10.149 207.029 10.12 205.532 10.096C183.082 9.738 171.088 10.458 161.883 11.01C160.847 11.072 159.846 11.132 158.869 11.189"></path></g></g></g><g id="g-root-cp_-1_common_2_dhxye7gg6o05-fill" data-item-order="-639409" transform="translate(37.99993896484375, 302)"></g><g id="g-root-sy_0_line_dhxye7gg6o06-fill" data-item-order="-639401" transform="translate(343, 217.9959716796875)"></g><g id="g-root-sy_1_line_4mxf8fgg6ln3-fill" data-item-order="-639395" transform="translate(350, 377)"></g><g id="g-root-sy_2_line_92qxcvgg6lmo-fill" data-item-order="-639389" transform="translate(512, 416)"></g><g id="g-root-sy_3_line_92qxcvgg6lmp-fill" data-item-order="-639383" transform="translate(350, 455)"></g><g id="g-root-sy_4_line_73x3zgg6mfe-fill" data-item-order="-639377" transform="translate(554, 494)"></g><g id="g-root-sy_5_line_73x3zgg6mff-fill" data-item-order="-639371" transform="translate(350, 533)"></g><g id="g-root-sy_6_line_73x3zgg6mfg-fill" data-item-order="-639365" transform="translate(512, 572)"></g><g id="g-root-sy_7_line_73x3zgg6mfh-fill" data-item-order="-639359" transform="translate(350, 611)"></g><g id="g-root-ic_warn_dgp07zgg80sh-fill" data-item-order="0" transform="translate(686, 398)"></g><g id="g-root-tx_geometri_1hfp3kvgg5821-fill" data-item-order="0" transform="translate(110, 383)"><g id="tx_geometri_1hfp3kvgg5821-fill-merged" stroke="none" fill="#484848" fill-opacity="1"><g><text style="font: 10px Roboto, sans-serif; white-space: pre;" transform="translate(190, 16)" font-size="10px" font-family="Roboto, sans-serif"><tspan x="-175.33" y="6" dominant-baseline="ideographic">Geometric lattice represents resilience.</tspan></text></g></g></g><g id="g-root-tx_vulnerab_mdl1svgg58ua-fill" data-item-order="0" transform="translate(734, 398)"><g id="tx_vulnerab_mdl1svgg58ua-fill-merged" stroke="none" fill="#484848" fill-opacity="1"><g><text style="font: bold 11.7px Roboto, sans-serif; white-space: pre;" transform="translate(10, 22)" font-weight="bold" font-size="11.7px" font-family="Roboto, sans-serif"><tspan x="2" y="7" dominant-baseline="ideographic">Vulnerability</tspan></text></g></g></g><g id="g-root-tx_urgentre_18lxilbgg57v0-fill" data-item-order="0" transform="translate(206, 437)"><g id="tx_urgentre_18lxilbgg57v0-fill-merged" stroke="none" fill="#484848" fill-opacity="1"><g><text style="font: bold 11.7px Roboto, sans-serif; white-space: pre;" transform="translate(94, 22)" font-weight="bold" font-size="11.7px" font-family="Roboto, sans-serif"><tspan x="-73.08" y="7" dominant-baseline="ideographic">Urgent reality</tspan></text></g></g></g><g id="g-root-ic_time_1lwrgprgg9g5j-fill" data-item-order="0" transform="translate(302, 437)"></g><g id="g-root-tx_latticea_1usek4fgg58n7-fill" data-item-order="0" transform="translate(734, 422)"><g id="tx_latticea_1usek4fgg58n7-fill-merged" stroke="none" fill="#484848" fill-opacity="1"><g><text style="font: 10px Roboto, sans-serif; white-space: pre;" transform="translate(10, 16)" font-size="10px" font-family="Roboto, sans-serif"><tspan x="2" y="6" dominant-baseline="ideographic">Lattice also symbolizes susceptibility.</tspan></text></g></g></g><g id="g-root-tx_metaphor_qv9z6ngg572d-fill" data-item-order="0" transform="translate(122, 461)"><g id="tx_metaphor_qv9z6ngg572d-fill-merged" stroke="none" fill="#484848" fill-opacity="1"><g><text style="font: 10px Roboto, sans-serif; white-space: pre;" transform="translate(178, 16)" font-size="10px" font-family="Roboto, sans-serif"><tspan x="-159.81" y="6" dominant-baseline="ideographic">Metaphor for global warming crisis.</tspan></text></g></g></g><g id="g-root-ic_max_1463xb3gg6n0n-fill" data-item-order="0" transform="translate(302, 359)"></g><g id="g-root-ic_eye_958tpbggavpo-fill" data-item-order="0" transform="translate(686, 476)"></g><g id="g-root-tx_strength_hwili7gg57gg-fill" data-item-order="0" transform="translate(230, 359)"><g id="tx_strength_hwili7gg57gg-fill-merged" stroke="none" fill="#484848" fill-opacity="1"><g><text style="font: bold 11.7px Roboto, sans-serif; white-space: pre;" transform="translate(70, 22)" font-weight="bold" font-size="11.7px" font-family="Roboto, sans-serif"><tspan x="-47.4" y="7" dominant-baseline="ideographic">Strength</tspan></text></g></g></g><g id="g-root-tx_visualen_4o6gkfgg59fy-fill" data-item-order="0" transform="translate(734, 476)"><g id="tx_visualen_4o6gkfgg59fy-fill-merged" stroke="none" fill="#484848" fill-opacity="1"><g><text style="font: bold 11.7px Roboto, sans-serif; white-space: pre;" transform="translate(10, 22)" font-weight="bold" font-size="11.7px" font-family="Roboto, sans-serif"><tspan x="2" y="7" dominant-baseline="ideographic">Visual engagement</tspan></text></g></g></g><g id="g-root-tx_emotiona_18nsxungg56vc-fill" data-item-order="0" transform="translate(158, 515)"><g id="tx_emotiona_18nsxungg56vc-fill-merged" stroke="none" fill="#484848" fill-opacity="1"><g><text style="font: bold 11.7px Roboto, sans-serif; white-space: pre;" transform="translate(142, 22)" font-weight="bold" font-size="11.7px" font-family="Roboto, sans-serif"><tspan x="-123.53" y="7" dominant-baseline="ideographic">Emotional engagement</tspan></text></g></g></g><g id="g-root-ic_hear_zrjgingfvdhk-fill" data-item-order="0" transform="translate(302, 515)"></g><g id="g-root-tx_deviceat_1qegh9bgg57nz-fill" data-item-order="0" transform="translate(734, 500)"><g id="tx_deviceat_1qegh9bgg57nz-fill-merged" stroke="none" fill="#484848" fill-opacity="1"><g><text style="font: 10px Roboto, sans-serif; white-space: pre;" transform="translate(10, 16)" font-size="10px" font-family="Roboto, sans-serif"><tspan x="2" y="6" dominant-baseline="ideographic">Device attracts viewers' attention.</tspan></text></g></g></g><g id="g-root-tx_deviceev_vccfhbgg58g9-fill" data-item-order="0" transform="translate(86, 539)"><g id="tx_deviceev_vccfhbgg58g9-fill-merged" stroke="none" fill="#484848" fill-opacity="1"><g><text style="font: 10px Roboto, sans-serif; white-space: pre;" transform="translate(214, 16)" font-size="10px" font-family="Roboto, sans-serif"><tspan x="-191.48" y="6" dominant-baseline="ideographic">Device evokes feelings about environment.</tspan></text></g></g></g><g id="g-root-tx_geometri_hu11svh9yebo-fill" data-item-order="0" transform="translate(86, 212)"><g id="tx_geometri_hu11svh9yebo-fill-merged" stroke="none" fill="#484848" fill-opacity="1"><g><text style="font: 10px Roboto, sans-serif; white-space: pre;" transform="translate(214, 28)" font-size="10px" font-family="Roboto, sans-serif"><tspan x="-198.29" y="-6" dominant-baseline="ideographic">By engaging users visually, ICEY encourages </tspan><tspan x="-156.17" y="6" dominant-baseline="ideographic">people to reflect and act with more </tspan><tspan x="-134.66" y="18" dominant-baseline="ideographic">environmental consciousness</tspan></text></g></g></g><g id="g-root-ic_4_18eftjzgfy7lv-fill" data-item-order="0" transform="translate(686, 554)"></g><g id="g-root-tx_strength_1q87n8fh0bgua-fill" data-item-order="0" transform="translate(218, 188)"><g id="tx_strength_1q87n8fh0bgua-fill-merged" stroke="none" fill="#484848" fill-opacity="1"><g><text style="font: bold 11.7px Roboto, sans-serif; white-space: pre;" transform="translate(82, 22)" font-weight="bold" font-size="11.7px" font-family="Roboto, sans-serif"><tspan x="-64.04" y="7" dominant-baseline="ideographic">ICEY device</tspan></text></g></g></g><g id="g-root-tx_reflecti_dbpaovgg6m82-fill" data-item-order="0" transform="translate(734, 554)"><g id="tx_reflecti_dbpaovgg6m82-fill-merged" stroke="none" fill="#484848" fill-opacity="1"><g><text style="font: bold 11.7px Roboto, sans-serif; white-space: pre;" transform="translate(10, 22)" font-weight="bold" font-size="11.7px" font-family="Roboto, sans-serif"><tspan x="2" y="7" dominant-baseline="ideographic">Reflection</tspan></text></g></g></g><g id="g-root-ic_plan_18hk6zjgg2dqi-fill" data-item-order="0" transform="translate(302, 593)"></g><g id="g-root-tx_deviceen_8sbjgg6nsz-fill" data-item-order="0" transform="translate(734, 578)"><g id="tx_deviceen_8sbjgg6nsz-fill-merged" stroke="none" fill="#484848" fill-opacity="1"><g><text style="font: 10px Roboto, sans-serif; white-space: pre;" transform="translate(10, 16)" font-size="10px" font-family="Roboto, sans-serif"><tspan x="2" y="6" dominant-baseline="ideographic">Device encourages contemplation on actions.</tspan></text></g></g></g><g id="g-root-tx_globalwa_1usegyngg6n0m-fill" data-item-order="0" transform="translate(296, 38)"><g id="tx_globalwa_1usegyngg6n0m-fill-merged" stroke="none" fill="#484848" fill-opacity="1"><g><text style="font: bold 25px Roboto, sans-serif; white-space: pre;" transform="translate(226, 58)" font-weight="bold" font-size="25px" font-family="Roboto, sans-serif"><tspan x="-190.97" y="15" dominant-baseline="ideographic">Design Inspiration and Experience</tspan></text></g></g></g><g id="g-root-tx_devicemo_zk1rhbgg6l8t-fill" data-item-order="0" transform="translate(38, 617)"><g id="tx_devicemo_zk1rhbgg6l8t-fill-merged" stroke="none" fill="#484848" fill-opacity="1"><g><text style="font: 10px Roboto, sans-serif; white-space: pre;" transform="translate(262, 16)" font-size="10px" font-family="Roboto, sans-serif"><tspan x="-242.04" y="6" dominant-baseline="ideographic">Device motivates environmentally conscious behavior.</tspan></text></g></g></g><g id="g-root-tx_action_1cuvsrjgg6mto-fill" data-item-order="0" transform="translate(242, 593)"><g id="tx_action_1cuvsrjgg6mto-fill-merged" stroke="none" fill="#484848" fill-opacity="1"><g><text style="font: bold 11.7px Roboto, sans-serif; white-space: pre;" transform="translate(58, 22)" font-weight="bold" font-size="11.7px" font-family="Roboto, sans-serif"><tspan x="-36.16" y="7" dominant-baseline="ideographic">Action</tspan></text></g></g></g><g id="g-root-cp_-1_common_qtegrjgg6mf7-stroke" data-item-order="-639422" transform="translate(314, 170)"><g id="cp_-1_common_qtegrjgg6mf7-stroke" fill="none" stroke-linecap="round" stroke-linejoin="round" stroke-miterlimit="4" stroke="#ffffff" stroke-width="1" stroke-opacity="1"><g><path d="M 436.5 147.8828C 424.1125 147.8828 418.1187 148.1327 412 148.1545L 415.5 144.5L 425 133L 428 138L 435 142L 439.5 139.5L 443.5 142L 448 148.2453C 443.6582 148.0872 439.7723 147.8828 436.5 147.8828ZM 34.5 147.8828C 22.1125 147.8828 16.1187 148.1327 10 148.1545L 13.5 144.5L 23 143L 26 138L 29.5 140.5L 33 142.5L 34.5 147.8828ZM 64 148L 87.3867 127.3902L 102.4327 105.9256L 126.9642 93.3888L 135.1414 99.1824L 142.5009 84.1762L 152.477 74.6786L 157.3833 64.8011L 174.3918 57.108L 180.2794 36.2134L 193.5264 25.861L 197.615 28.0454L 212.1704 10L 216.586 16.2684L 216.586 20.5423L 225.0903 29.3751L 232.1227 23.2966L 249.1312 53.214L 262.3782 46.5657L 274.3169 64.8011L 274.3169 73.159L 279.5503 77.053L 281.6763 90.4446L 289.8535 80.4721L 292 82.0463L 315.3663 99.1824L 317.1653 111.4343L 332.8654 107.3503L 339.4072 127.3902L 342.8416 126.3455L 352 148L 255.5 148L 64 148ZM 126.9642 93.3888L 123 119.25L 115 117.1591L 104.5 135.9773L 99.5 132.3182L 96.5 140.1591M 135.1414 99.1824L 157.3833 111.4343L 166 123.4318L 178.5 119.25L 190.5 129.1818L 225.0903 135.9773L 235.5 129.1818L 255.5 148M 212.1704 10L 206.5 36.2134L 214.5 46.5657L 221 41.8864L 225.0903 64.8011L 240.5 84.1762L 245 80.4721L 249.1312 93.3888L 255.5 99.1824M 281.6763 90.4446L 260 105.9256L 252 117.1591L 232.1227 111.4343L 214.5 103.0454L 206.5 121.3409L 199.5 126.3455M 292 82.0463L 289.8535 105.9256L 297.5 119.25L 304 111.4343L 315.3663 135.9773M 201 75.5L 188 80L 178.5 94.6786L 166 97.053M 279.5503 103.0454L 274.3169 111.4343L 267 114M 131.5 129.1818L 142.5008 123.4318L 152.477 132.3182L 158.9106 129.1818L 166 135.9773L 178.5 140.1591"></path></g></g></g><g id="g-root-cp_-1_common_1_hxrgingg6n7w-stroke" data-item-order="-639416" transform="translate(370.83599853515625, 315.2559814453125)"><g id="cp_-1_common_1_hxrgingg6n7w-stroke" fill="none" stroke-linecap="round" stroke-linejoin="round" stroke-miterlimit="4" stroke="#ffffff" stroke-width="1" stroke-opacity="1"><g><path d="M 158.869169 11.1885C 152.026769 11.5821 146.380569 11.7843 138.164169 11.1834C 128.655169 10.4879 117.532569 10.8678 105.594669 11.2755C 103.869869 11.3344 102.127969 11.3939 100.371569 11.4508C 88.076369 11.8492 75.065269 12.1213 62.164169 11.1834C 48.157369 10.165 29.480869 10.7029 11.816569 11.2116L 11.807569 11.2119L 10.000069 11.2639L 9.999969 61.2441L 13.664069 88.7441L 43.188569 158.6078L 43.188569 158.6117L 51.529969 178.099L 57.664069 240.2441L 88.664069 269.7441L 94.664169 316.12L 117.664069 333.12L 133.664069 357.2441L 152.664069 344.2441L 182.664069 333.12L 187.164069 314.7441L 204.749469 296.7441L 224.664169 269.7441L 224.664169 247.6199L 238.115369 226.6199L 256.664069 153.2441L 277.664169 126.7441L 281.993469 83.2594L 281.993469 47.7238L 295.164169 25.944L 295.163669 25.9409L 294.344069 21.3553L 292.516469 11.1299L 210.164169 10.1827C 208.572269 10.1489 207.028969 10.1201 205.532269 10.0962C 183.081669 9.7375 171.087869 10.4575 161.883469 11.01C 160.847069 11.0722 159.845869 11.1323 158.869169 11.1885ZM 138.164169 11.1834L 138.164169 11.1795C 128.655169 10.484 117.532669 10.8669 105.594669 11.2755M 62.164169 11.1834L 62.164169 11.1795M 11.816569 11.2116C 11.813569 11.2117 11.810569 11.2118 11.807569 11.2119C 11.203869 11.2292 10.601169 11.2427 10.000069 11.2599L 10.000069 11.2639M 9.999969 61.2441L 15.505669 47.7199L 24.066569 59.183L 28.676369 83.2555L 48.871469 63.8038M 281.993469 83.2594L 266.664069 78.2441L 250.664069 94.7441M 281.993469 47.7238L 281.993469 47.7199M 294.344069 21.3553L 277.664169 33.2454L 268.822769 56.7454M 292.516469 11.1299L 292.516469 11.126M 210.164169 10.1827L 210.164169 10.1788C 208.572269 10.1449 207.028969 10.1201 205.532269 10.0962M 248.627569 75.7454L 245.115369 39.2454L 237.651969 23.2454L 228.871469 59.183L 230.188569 83.2555L 220.664169 58.7414M 189.164169 264.1199L 204.749469 236.6199L 226.164169 218.1212L 227.664169 204.6199M 100.664069 208.1199L 94.664169 196.6199L 73.920269 206.7528L 69.090969 170.0709L 62.944669 170.0709L 49.773869 148.2911L 43.188569 158.6078M 54.578869 83.2555L 62.042269 79.8166L 69.944669 44.977L 84.432469 39.2454L 87.944669 24.3434L 91.895869 52.3052L 98.920269 52.3052L 103.749569 83.2555M 197.164169 83.2924L 183.164169 59.2199L 177.664169 34.7454L 171.664169 39.7454L 166.164169 34.7454M 295.163669 25.9409L 295.164169 25.9401"></path></g></g></g><g id="g-root-cp_-1_common_2_dhxye7gg6o05-stroke" data-item-order="-639409" transform="translate(37.99993896484375, 302)"><g id="cp_-1_common_2_dhxye7gg6o05-stroke" fill="none" stroke-linecap="round" stroke-linejoin="round" stroke-miterlimit="4" stroke="#484848" stroke-width="1" stroke-opacity="1"><g><path d="M 238 24.434C 252.3333 23.7674 285.1 22.834 301.5 24.434C 311.1999 25.3804 326.4969 24.9835 342.8359 24.5145C 361.0281 23.9923 380.512 23.3807 395 24.434C 422.5 26.4334 450.5 22.9347 471 24.434C 491.5 25.9334 496 22.4334 543 23.4334C 568.9358 23.9852 599.4392 24.3852 625.3523 24.3806C 646.3981 24.3768 664.4161 24.1062 674.5 23.4334C 697 21.9321 750 24.9347 768.5 23.4334M 308 10L 346.5 10M 10 10L 299.5 10M 625.5 10L 693.5 10M 719.5 10L 958 10M 326 15.9566C 330.4566 15.9798 335.2835 15.9994 340 15.9994L 628 15.9994C 639 16.4104 643.5 15.8828 661.5 15.8828M 317.5 15.9092C 314.7028 15.8939 312.3013 15.8828 310.5 15.8828C 292.5 15.8828 288 16.4104 277 15.9994L 265.5 15.9994M 679 15.9994C 690 16.4104 694.5 15.8828 712.5 15.8828C 718.343 15.8828 726.1426 16.5347 735 16.4104M 755.5 16.4104L 788 16.4104C 800.4 16.4104 813.8333 16.0587 819 15.8828M 247.5 15.9994C 237.5 15.8828 221 17.5989 215 15.9994"></path></g></g></g><g id="g-root-sy_0_line_dhxye7gg6o06-stroke" data-item-order="-639401" transform="translate(343, 217.9959716796875)"><g id="sy_0_line_dhxye7gg6o06-stroke" fill="none" stroke-linecap="round" stroke-linejoin="round" stroke-miterlimit="4" stroke="#484848" stroke-width="1" stroke-opacity="1"><style>.fillAsStrokeColor-mk-hunfq7gg7zt6 { fill:#484848; }</style><g><path d="M 10 10L 175.17 10"></path><path d="M 176.6 10L 171.6 12.8L 171.6 7.2Z" stroke-dasharray="none" class="fillAsStrokeColor-mk-hunfq7gg7zt6" fill="#484848"></path></g></g></g><g id="g-root-sy_1_line_4mxf8fgg6ln3-stroke" data-item-order="-639395" transform="translate(350, 377)"><g id="sy_1_line_4mxf8fgg6ln3-stroke" fill="none" stroke-linecap="round" stroke-linejoin="round" stroke-miterlimit="4" stroke="#484848" stroke-width="1" stroke-opacity="1"><style>.fillAsStrokeColor-mk-detxlrgg80lf { fill:#484848; }</style><g><path d="M 10 10L 169.17 10"></path><path d="M 7.879 10C 7.878725 11.171866 8.828634 12.121998 10.0005 12.121998C 11.172366 12.121998 12.122275 11.171866 12.122 10C 12.122275 8.828134 11.172366 7.878002 10.0005 7.878002C 8.828634 7.878002 7.878725 8.828134 7.879 10Z" stroke-dasharray="none" class="fillAsStrokeColor-mk-detxlrgg80lf" fill="#484848"></path><path d="M 170.6 10L 165.6 12.8L 165.6 7.2Z" stroke-dasharray="none" class="fillAsStrokeColor-mk-detxlrgg80lf" fill="#484848"></path></g></g></g><g id="g-root-sy_2_line_92qxcvgg6lmo-stroke" data-item-order="-639389" transform="translate(512, 416)"><g id="sy_2_line_92qxcvgg6lmo-stroke" fill="none" stroke-linecap="round" stroke-linejoin="round" stroke-miterlimit="4" stroke="#484848" stroke-width="1" stroke-opacity="1"><style>.fillAsStrokeColor-mk-4j6xcvgg81e4 { fill:#484848; }</style><g><path d="M 12.83 10L 172 10"></path><path d="M 11.4 10L 16.4 7.2L 16.4 12.8Z" stroke-dasharray="none" class="fillAsStrokeColor-mk-4j6xcvgg81e4" fill="#484848"></path></g></g></g><g id="g-root-sy_3_line_92qxcvgg6lmp-stroke" data-item-order="-639383" transform="translate(350, 455)"><g id="sy_3_line_92qxcvgg6lmp-stroke" fill="none" stroke-linecap="round" stroke-linejoin="round" stroke-miterlimit="4" stroke="#484848" stroke-width="1" stroke-opacity="1"><style>.fillAsStrokeColor-mk-3df8fgg826d { fill:#484848; }</style><g><path d="M 10 10L 127.17 10"></path><path d="M 7.879 10C 7.878725 11.171866 8.828634 12.121998 10.0005 12.121998C 11.172366 12.121998 12.122275 11.171866 12.122 10C 12.122275 8.828134 11.172366 7.878002 10.0005 7.878002C 8.828634 7.878002 7.878725 8.828134 7.879 10Z" stroke-dasharray="none" class="fillAsStrokeColor-mk-3df8fgg826d" fill="#484848"></path><path d="M 128.6 10L 123.6 12.8L 123.6 7.2Z" stroke-dasharray="none" class="fillAsStrokeColor-mk-3df8fgg826d" fill="#484848"></path></g></g></g><g id="g-root-sy_4_line_73x3zgg6mfe-stroke" data-item-order="-639377" transform="translate(554, 494)"><g id="sy_4_line_73x3zgg6mfe-stroke" fill="none" stroke-linecap="round" stroke-linejoin="round" stroke-miterlimit="4" stroke="#484848" stroke-width="1" stroke-opacity="1"><style>.fillAsStrokeColor-mk-1q9gy1rgg7zm6 { fill:#484848; }</style><g><path d="M 12.83 10L 130 10"></path><path d="M 11.4 10L 16.4 7.2L 16.4 12.8Z" stroke-dasharray="none" class="fillAsStrokeColor-mk-1q9gy1rgg7zm6" fill="#484848"></path></g></g></g><g id="g-root-sy_5_line_73x3zgg6mff-stroke" data-item-order="-639371" transform="translate(350, 533)"><g id="sy_5_line_73x3zgg6mff-stroke" fill="none" stroke-linecap="round" stroke-linejoin="round" stroke-miterlimit="4" stroke="#484848" stroke-width="1" stroke-opacity="1"><style>.fillAsStrokeColor-mk-1ltnfxbgg80ef { fill:#484848; }</style><g><path d="M 10 11.02L 169.17 10.02"></path><path d="M 7.879 11.023C 7.878725 12.194866 8.828634 13.144998 10.0005 13.144998C 11.172366 13.144998 12.122275 12.194866 12.122 11.023C 12.122275 9.851134 11.172366 8.901002 10.0005 8.901002C 8.828634 8.901002 7.878725 9.851134 7.879 11.023Z" stroke-dasharray="none" class="fillAsStrokeColor-mk-1ltnfxbgg80ef" fill="#484848"></path><path d="M 170.6 10L 165.7 12.9L 165.6 7.2Z" stroke-dasharray="none" class="fillAsStrokeColor-mk-1ltnfxbgg80ef" fill="#484848"></path></g></g></g><g id="g-root-sy_6_line_73x3zgg6mfg-stroke" data-item-order="-639365" transform="translate(512, 572)"><g id="sy_6_line_73x3zgg6mfg-stroke" fill="none" stroke-linecap="round" stroke-linejoin="round" stroke-miterlimit="4" stroke="#484848" stroke-width="1" stroke-opacity="1"><style>.fillAsStrokeColor-mk-1hdtxsvgg816o { fill:#484848; }</style><g><path d="M 12.83 10L 172 10"></path><path d="M 11.4 10L 16.4 7.2L 16.4 12.8Z" stroke-dasharray="none" class="fillAsStrokeColor-mk-1hdtxsvgg816o" fill="#484848"></path></g></g></g><g id="g-root-sy_7_line_73x3zgg6mfh-stroke" data-item-order="-639359" transform="translate(350, 611)"><g id="sy_7_line_73x3zgg6mfh-stroke" fill="none" stroke-linecap="round" stroke-linejoin="round" stroke-miterlimit="4" stroke="#484848" stroke-width="1" stroke-opacity="1"><style>.fillAsStrokeColor-mk-18i6xjzgg81zd { fill:#484848; }</style><g><path d="M 10 10L 127.17 10"></path><path d="M 7.879 10C 7.878725 11.171866 8.828634 12.121998 10.0005 12.121998C 11.172366 12.121998 12.122275 11.171866 12.122 10C 12.122275 8.828134 11.172366 7.878002 10.0005 7.878002C 8.828634 7.878002 7.878725 8.828134 7.879 10Z" stroke-dasharray="none" class="fillAsStrokeColor-mk-18i6xjzgg81zd" fill="#484848"></path><path d="M 128.6 10L 123.6 12.8L 123.6 7.2Z" stroke-dasharray="none" class="fillAsStrokeColor-mk-18i6xjzgg81zd" fill="#484848"></path></g></g></g><g id="g-root-ic_warn_dgp07zgg80sh-stroke" data-item-order="0" transform="translate(686, 398)"><g id="ic_warn_dgp07zgg80sh-stroke" fill="none" stroke-linecap="round" stroke-linejoin="round" stroke-miterlimit="4" stroke="#484848" stroke-width="1" stroke-opacity="1"><g><path d="M 36.25 40.75C 36.457108 40.75 36.625 40.917892 36.625 41.125C 36.625 41.332108 36.457108 41.5 36.25 41.5C 36.042892 41.5 35.875 41.332108 35.875 41.125C 35.875 40.917892 36.042892 40.75 36.25 40.75M 36.25 37.743999L 36.25 33.243999M 37.507 28.75C 37.259224 28.286013 36.776001 27.99625 36.25 27.99625C 35.723999 27.99625 35.240776 28.286013 34.993 28.75L 27.409 43.202499C 27.181095 43.635597 27.198772 44.156837 27.4555 44.573502C 27.715345 44.992073 28.173336 45.246323 28.666002 45.245502L 43.834 45.245499C 44.326668 45.246323 44.784657 44.992073 45.044502 44.573502C 45.301224 44.156837 45.318901 43.635597 45.091 43.202499ZM 27.25 37.75L 13.75 37.75C 12.093145 37.75 10.75 36.406857 10.75 34.75L 10.75 13.75C 10.75 12.093145 12.093145 10.75 13.75 10.75L 34.75 10.75C 36.406857 10.75 37.75 12.093145 37.75 13.75L 37.75 24.25M 10.75 19.756001L 37.75 19.756001M 10.75 28.743999L 28.75 28.743999M 28.75 10.756L 28.75 28.743999M 19.75 10.756L 19.75 37.743999"></path></g></g></g><g id="g-root-tx_geometri_1hfp3kvgg5821-stroke" data-item-order="0" transform="translate(110, 383)"></g><g id="g-root-tx_vulnerab_mdl1svgg58ua-stroke" data-item-order="0" transform="translate(734, 398)"></g><g id="g-root-tx_urgentre_18lxilbgg57v0-stroke" data-item-order="0" transform="translate(206, 437)"></g><g id="g-root-ic_time_1lwrgprgg9g5j-stroke" data-item-order="0" transform="translate(302, 437)"><g id="ic_time_1lwrgprgg9g5j-stroke" fill="none" stroke-linecap="round" stroke-linejoin="round" stroke-miterlimit="4" stroke="#484848" stroke-width="1" stroke-opacity="1"><g><path d="M 27.25 36.25C 27.250002 41.220566 31.279438 45.25 36.25 45.25C 41.220566 45.25 45.25 41.220566 45.25 36.25C 45.25 31.279438 41.220566 27.250002 36.25 27.250002C 31.279438 27.250002 27.250002 31.279438 27.250002 36.25M 39.25 36.25L 36.25 36.25L 36.25 31.75M 25 42.175003C 16.726721 41.385479 10.490624 34.303505 10.754151 25.996819C 11.017679 17.69013 17.69013 11.017679 25.996819 10.754151C 34.303505 10.490624 41.385479 16.726721 42.175003 25M 10.99 23.755001L 19.315001 23.755001C 20.413012 23.761515 21.462049 24.210331 22.224998 25L 23.724998 26.5C 25.273071 28.036125 25.345621 30.516003 23.889999 32.139999L 22 34.239998C 21.344805 35.007732 20.997431 35.991074 21.025 37L 21.025 41.305M 37.810001 15.55L 29.875 15.55C 28.176723 15.55 26.799999 16.926725 26.799999 18.625C 26.799999 20.323275 28.176723 21.700001 29.875 21.700001L 30.460001 21.700001C 31.82859 21.693155 33.110802 22.368004 33.880001 23.5L 34.255001 24.055"></path></g></g></g><g id="g-root-tx_latticea_1usek4fgg58n7-stroke" data-item-order="0" transform="translate(734, 422)"></g><g id="g-root-tx_metaphor_qv9z6ngg572d-stroke" data-item-order="0" transform="translate(122, 461)"></g><g id="g-root-ic_max_1463xb3gg6n0n-stroke" data-item-order="0" transform="translate(302, 359)"><g id="ic_max_1463xb3gg6n0n-stroke" fill="none" stroke-linecap="round" stroke-linejoin="round" stroke-miterlimit="4" stroke="#484848" stroke-width="1" stroke-opacity="1"><g><path d="M 14.875 28L 22.285 20.59M 14.125 17.5L 41.875 28L 26.125 17.5L 14.125 17.5ZM 14.125 17.5L 17.125 10.75L 32.875 10.75L 41.875 28M 26.125 17.5L 32.875 10.75M 14.875 28L 22.285 35.41M 14.125 38.5L 41.875 28L 26.125 38.5L 14.125 38.5ZM 14.125 38.5L 17.125 45.25L 32.875 45.25L 41.875 28M 26.125 38.5L 32.875 45.25M 26.125 22.045L 26.125 33.955002"></path></g></g></g><g id="g-root-ic_eye_958tpbggavpo-stroke" data-item-order="0" transform="translate(686, 476)"><g id="ic_eye_958tpbggavpo-stroke" fill="none" stroke-linecap="round" stroke-linejoin="round" stroke-miterlimit="4" stroke="#484848" stroke-width="1" stroke-opacity="1"><g><path d="M 27.999401 11.252865C 23.396696 11.176361 18.636429 14.391745 15.64369 17.685909C 15.32956 18.03466 15.155725 18.487404 15.155725 18.95677C 15.155725 19.426136 15.32956 19.87888 15.64369 20.227615C 18.570206 23.452135 23.317915 26.742849 27.999401 26.6653C 32.680901 26.742849 37.428551 23.452135 40.358501 20.227615C 40.6726 19.87888 40.846451 19.426136 40.846451 18.95677C 40.846451 18.487404 40.6726 18.03466 40.358501 17.685909C 37.3624 14.391745 32.60215 11.176361 27.999401 11.252865ZM 31.593552 18.959814C 31.593552 19.670574 31.382801 20.365391 30.98785 20.956375C 30.592899 21.547359 30.03175 22.00798 29.37505 22.279976C 28.718349 22.55197 27.9958 22.623146 27.298599 22.484486C 26.601551 22.34581 25.961201 22.00354 25.4587 21.50095C 24.956036 20.99836 24.613766 20.358025 24.475105 19.660915C 24.336445 18.963806 24.407604 18.241226 24.679615 17.584555C 24.951611 16.927885 25.412201 16.366631 26.003201 15.97174C 26.5942 15.57685 27.289 15.366085 27.999699 15.366085C 28.95295 15.366085 29.866901 15.744715 30.54085 16.418665C 31.2148 17.092615 31.593552 18.006701 31.593552 18.959814ZM 34.306751 40.703201C 37.318001 40.105301 39.89185 39.092949 41.702801 37.793953C 43.513599 36.494949 44.480198 34.9678 44.480198 33.405548C 44.480198 31.310499 42.743801 29.301401 39.653202 27.82015M 16.346771 27.82015C 14.823805 28.550051 13.606555 29.41975 12.774325 30.38275C 11.526985 31.82605 11.200623 33.414249 11.83651 34.946503C 12.472405 36.478752 14.04199 37.8862 16.346785 38.990948C 18.651566 40.095551 21.588055 40.84795 24.784901 41.152599C 25.84885 41.25415 26.925701 41.304401 28 41.304401L 29.449299 41.304401M 10 10M 26.278 37.860401L 29.722 41.304401L 26.278 44.748398"></path></g></g></g><g id="g-root-tx_strength_hwili7gg57gg-stroke" data-item-order="0" transform="translate(230, 359)"></g><g id="g-root-tx_visualen_4o6gkfgg59fy-stroke" data-item-order="0" transform="translate(734, 476)"></g><g id="g-root-tx_emotiona_18nsxungg56vc-stroke" data-item-order="0" transform="translate(158, 515)"></g><g id="g-root-ic_hear_zrjgingfvdhk-stroke" data-item-order="0" transform="translate(302, 515)"><g id="ic_hear_zrjgingfvdhk-stroke" fill="none" stroke-linecap="round" stroke-linejoin="round" stroke-miterlimit="4" stroke="#484848" stroke-width="1" stroke-opacity="1"><g><path d="M 36.25 45.25L 28.585001 37.255001C 27.185532 35.878746 26.839533 33.754189 27.730001 32.005001L 27.73 32.005001C 28.372292 30.691143 29.612991 29.771349 31.05681 29.538668C 32.500629 29.305984 33.967476 29.78944 34.989998 30.835001L 36.25 32.080002L 37.510002 30.835001C 38.532528 29.78944 39.999371 29.305984 41.443192 29.538668C 42.887009 29.771349 44.127712 30.691143 44.77 32.005001L 44.77 32.005001C 45.660469 33.754189 45.314468 35.878746 43.915001 37.255001ZM 28 42.175003C 21.52203 42.794769 15.329913 39.366707 12.416538 33.547733C 9.503163 27.728758 10.468493 20.717192 14.845945 15.901996C 19.223396 11.086798 26.111507 9.459579 32.180988 11.806837C 38.250469 14.154095 42.251408 19.992451 42.25 26.5M 10.99 23.755001L 19.315001 23.755001C 20.413012 23.761515 21.462049 24.210331 22.224998 25L 23.724998 26.5C 25.273071 28.036125 25.345621 30.516003 23.889999 32.139999L 22 34.239998C 21.344805 35.007732 20.997431 35.991074 21.025 37L 21.025 41.305M 37.810001 15.55L 29.875 15.55C 28.176723 15.55 26.799999 16.926725 26.799999 18.625C 26.799999 20.323275 28.176723 21.700001 29.875 21.700001L 30.460001 21.700001C 31.82859 21.693155 33.110802 22.368004 33.880001 23.5L 34.255001 24.055"></path></g></g></g><g id="g-root-tx_deviceat_1qegh9bgg57nz-stroke" data-item-order="0" transform="translate(734, 500)"></g><g id="g-root-tx_deviceev_vccfhbgg58g9-stroke" data-item-order="0" transform="translate(86, 539)"></g><g id="g-root-tx_geometri_hu11svh9yebo-stroke" data-item-order="0" transform="translate(86, 212)"></g><g id="g-root-ic_4_18eftjzgfy7lv-stroke" data-item-order="0" transform="translate(686, 554)"><g id="ic_4_18eftjzgfy7lv-stroke" fill="none" stroke-linecap="round" stroke-linejoin="round" stroke-miterlimit="4" stroke="#484848" stroke-width="1" stroke-opacity="1"><g><path d="M 23.466267 44.875301L 23.466267 37.78735C 21.902981 36.3391 20.812735 34.452999 20.337894 32.375648C 19.86307 30.298149 20.025715 28.125851 20.804621 26.14225M 35.34565 44.875301L 35.34565 41.481247L 37.042747 41.481247C 37.942898 41.481247 38.806149 41.12365 39.442749 40.487049C 40.079201 39.850601 40.436802 38.98735 40.436802 38.0872L 40.436802 34.693001L 42.586449 34.693001C 42.724148 34.692852 42.859749 34.6591 42.981548 34.594902C 43.103348 34.530552 43.207748 34.437698 43.285599 34.32415C 43.363598 34.210602 43.412651 34.0798 43.428848 33.943001C 43.445049 33.806198 43.42765 33.667603 43.3783 33.539051C 42.354248 30.882401 41.473751 28.32925 40.400948 26.14225M 20.640625 26.580551C 20.640625 28.15045 25.091351 29.422899 30.5818 29.422899C 36.072098 29.422899 40.5229 28.15045 40.5229 26.580551C 40.5229 25.010799 36.072098 23.738304 30.5818 23.738304M 23.840275 23.20492C 20.534904 23.20492 17.855366 20.525379 17.855366 17.220011C 17.855366 13.914625 20.534904 11.235092 23.840275 11.235092C 27.145599 11.235092 29.825199 13.914625 29.825199 17.220011C 29.825199 20.525379 27.145599 23.20492 23.840275 23.20492ZM 19.49218 21.32032L 15.884245 24.84754"></path></g></g></g><g id="g-root-tx_strength_1q87n8fh0bgua-stroke" data-item-order="0" transform="translate(218, 188)"></g><g id="g-root-tx_reflecti_dbpaovgg6m82-stroke" data-item-order="0" transform="translate(734, 554)"></g><g id="g-root-ic_plan_18hk6zjgg2dqi-stroke" data-item-order="0" transform="translate(302, 593)"><g id="ic_plan_18hk6zjgg2dqi-stroke" fill="none" stroke-linecap="round" stroke-linejoin="round" stroke-miterlimit="4" stroke="#484848" stroke-width="1" stroke-opacity="1"><g><path d="M 23.5 28.771L 23.5 26.382999C 23.5 23.7775 24.219999 22.008999 25.336 21.367001M 25.337502 21.367001C 25.337502 21.367001 21.380501 10.3195 34.927002 10.7635C 31.2325 13.75 34.1605 22.900002 25.337502 21.367001ZM 21.443501 16.682499C 20.059 15.4825 16.5835 13.282 10.927 15.0055C 15.7765 18.1675 14.7505 25.8235 24.005501 23.128M 43.150002 12.4585L 31.224998 30.586L 20.9995 34C 20.349188 34.200966 19.961264 34.866631 20.107 35.531502L 20.107 35.531502C 20.245535 36.162144 20.823072 36.597687 21.467501 36.557499L 34.081001 35.822502C 34.941227 35.772522 35.738434 35.355068 36.269501 34.676498L 45.25 23.200001M 23.4895 40L 23.4895 45.25M 10.75 41.5L 19 41.5M 45.068501 41.5L 27.818501 41.5"></path></g></g></g><g id="g-root-tx_deviceen_8sbjgg6nsz-stroke" data-item-order="0" transform="translate(734, 578)"></g><g id="g-root-tx_globalwa_1usegyngg6n0m-stroke" data-item-order="0" transform="translate(296, 38)"></g><g id="g-root-tx_devicemo_zk1rhbgg6l8t-stroke" data-item-order="0" transform="translate(38, 617)"></g><g id="g-root-tx_action_1cuvsrjgg6mto-stroke" data-item-order="0" transform="translate(242, 593)"></g></g></g></svg>