<?xml version="1.0" encoding="utf-8" standalone="yes"?>
<!DOCTYPE svg PUBLIC "-//W3C//DTD SVG 1.1//EN" "http://www.w3.org/Graphics/SVG/1.1/DTD/svg11.dtd">
<svg style="fill:none;stroke:none;fill-rule:evenodd;clip-rule:evenodd;stroke-linecap:round;stroke-linejoin:round;stroke-miterlimit:1.5;" version="1.1" xmlns="http://www.w3.org/2000/svg" xmlns:xlink="http://www.w3.org/1999/xlink" width="1080" height="684" viewBox="0 0 1080 684"><style class="text-font-style fontImports" data-font-family="Montserrat">@import url(https://fonts.googleapis.com/css2?family=Montserrat:wght@400;700&amp;amp;display=block);</style><g id="items" style="isolation: isolate"><g id="blend" style="mix-blend-mode: normal"><g id="g-root-cp_-1_row-top_dl3an0ehwt1d-fill" data-item-order="-606806" transform="translate(74, 122.0029296875)"><g id="cp_-1_row-top_dl3an0ehwt1d-fill-merged" stroke="none" fill="#969696" fill-opacity="1"><g><path d="M502 202L460 181L466 160L442 132L457.429 118L496 88L481.957 27.133L534.6 65.114C541.356 77.002 559 106 559 106L577.162 118L587 125.583L602.884 173.459C602.884 173.459 613.3 192.951 618.271 202 H632.372L614.086 168.438L598 118L566.5 96.5L543.742 56.912L478.719 10L455.764 45.635L424.679 63.546L404.889 106L398.984 118L377.714 168.438L330.283 189.867L324.32 202L317.438 226 H639.997L632.37 202 H618.271 M365.55 118 H10 V202 H283.606C284.389 201.153 285.217 200.35 286.088 199.593L294.519 192.272L304.258 172.457C307.677 165.5 313.04 160.124 319.45 157.228L355.964 140.732L365.55 118 M668.285 202L640.982 152.522L629.614 118 H922 V202 H668.285"></path></g></g></g><g id="g-root-cp_0_g-0_4pgae4ehwtu2-fill" data-item-order="-606779" transform="translate(50, 338.0029296875)"></g><g id="g-root-cp_1_row-1_9ms9oehwumb-fill" data-item-order="-606774" transform="translate(74, 338.0029296875)"><g id="cp_1_row-1_9ms9oehwumb-fill-merged" stroke="none" fill="#4e88e7" fill-opacity="1"><g><path d="M303.898 34L317.22 10 H639.999L647.825 34L665.92 66.371L626.866 118L615.898 130 H333.279L329.082 118L303.899 34 M274.065 34 H10 V118 H296.195L275.429 42.344C274.674 39.593 274.224 36.793 274.065 34 M666.971 118L688.456 89.473C697.3 77.73 698.398 60.569 691.144 47.425L683.736 34 H922 V118 H666.971"></path></g></g></g><g id="g-root-cp_2_row-2_1qf3tzwehwv7w-fill" data-item-order="-606744" transform="translate(74, 458.0029296875)"><g id="cp_2_row-2_1qf3tzwehwv7w-fill-merged" stroke="none" fill="#e0cb15" fill-opacity="1"><g><path d="M382 118L430 167L490.5 130.5 H526L550.5 118 H577L605.5 22L616.107 10 H333.223L337.688 22L370 118 H382 M305.734 22 H10 V118 H336.413L305.734 22 M609.386 118L613.34 103.911C613.375 103.787 613.409 103.663 613.443 103.539L627.76 50.943L638.878 31.769L645.573 22 H922 V118 H609.386"></path></g></g></g><g id="g-root-tx_iceyinst_1qf3tzwehwv7x-fill" data-item-order="0" transform="translate(206, 38.0029296875)"><g id="tx_iceyinst_1qf3tzwehwv7x-fill-merged" stroke="none" fill="#484848" fill-opacity="1"><g><text style="font: bold 25px Montserrat, sans-serif; white-space: pre;" transform="translate(334, 28)" font-weight="bold" font-size="25px" font-family="Montserrat, sans-serif"><tspan x="-319.67" y="15" dominant-baseline="ideographic">ICEY! Installation's Impact on Climate Awareness</tspan></text></g></g></g><g id="g-root-ic_coup_4hc49oehy7ew-fill" data-item-order="0" transform="translate(86, 248.0029296875)"></g><g id="g-root-tx_positive_zitoykehy9se-fill" data-item-order="0" transform="translate(146, 248.0029296875)"><g id="tx_positive_zitoykehy9se-fill-merged" stroke="none" fill="#ffffff" fill-opacity="1"><g><text style="font: bold 20px Montserrat, sans-serif; white-space: pre;" transform="translate(10, 34)" font-weight="bold" font-size="20px" font-family="Montserrat, sans-serif"><tspan x="2" y="-0" dominant-baseline="ideographic">Positive </tspan><tspan x="2" y="24" dominant-baseline="ideographic">Engagement</tspan></text></g></g></g><g id="g-root-tx_attendee_m7znocehy87j-fill" data-item-order="0" transform="translate(818, 242.0029296875)"><g id="tx_attendee_m7znocehy87j-fill-merged" stroke="none" fill="#ffffff" fill-opacity="1"><g><text style="font: 15px Montserrat, sans-serif; white-space: pre;" transform="translate(166, 40)" font-size="15px" font-family="Montserrat, sans-serif"><tspan x="-110.27" y="-9" dominant-baseline="ideographic">50+ Attendees </tspan><tspan x="-152.79" y="9" dominant-baseline="ideographic">interacted positively </tspan><tspan x="-94.15" y="27" dominant-baseline="ideographic">at showcase</tspan></text></g></g></g><g id="g-root-ic_2_18kpg2kei12x5-fill" data-item-order="0" transform="translate(506, 380.0029296875)"></g><g id="g-root-tx_climatea_6ieu4ei0zyg-fill" data-item-order="0" transform="translate(86, 380.0029296875)"><g id="tx_climatea_6ieu4ei0zyg-fill-merged" stroke="none" fill="#ffffff" fill-opacity="1"><g><text style="font: bold 20px Montserrat, sans-serif; white-space: pre;" transform="translate(10, 34)" font-weight="bold" font-size="20px" font-family="Montserrat, sans-serif"><tspan x="2" y="-0" dominant-baseline="ideographic">Climate </tspan><tspan x="2" y="24" dominant-baseline="ideographic">Awareness</tspan></text></g></g></g><g id="g-root-tx_particip_qqb258ei6o02-fill" data-item-order="0" transform="translate(818, 374.0029296875)"><g id="tx_particip_qqb258ei6o02-fill-merged" stroke="none" fill="#ffffff" fill-opacity="1"><g><text style="font: 15px Montserrat, sans-serif; white-space: pre;" transform="translate(166, 40)" font-size="15px" font-family="Montserrat, sans-serif"><tspan x="-128.51" y="-9" dominant-baseline="ideographic">80% Participants </tspan><tspan x="-148.56" y="9" dominant-baseline="ideographic">reported deepened </tspan><tspan x="-123.85" y="27" dominant-baseline="ideographic">climate urgency</tspan></text></g></g></g><g id="g-root-ic_1_v7zzj0ei6m84-fill" data-item-order="0" transform="translate(506, 494.0029296875)"></g><g id="g-root-tx_designre_1q9hk7wei6oln-fill" data-item-order="0" transform="translate(86, 494.0029296875)"><g id="tx_designre_1q9hk7wei6oln-fill-merged" stroke="none" fill="#ffffff" fill-opacity="1"><g><text style="font: bold 20px Montserrat, sans-serif; white-space: pre;" transform="translate(10, 34)" font-weight="bold" font-size="20px" font-family="Montserrat, sans-serif"><tspan x="2" y="-0" dominant-baseline="ideographic">Design </tspan><tspan x="2" y="24" dominant-baseline="ideographic">Recognition</tspan></text></g></g></g><g id="g-root-tx_highligh_90wgwsei6olp-fill" data-item-order="0" transform="translate(794, 482.0029296875)"><g id="tx_highligh_90wgwsei6olp-fill-merged" stroke="none" fill="#ffffff" fill-opacity="1"><g><text style="font: 15px Montserrat, sans-serif; white-space: pre;" transform="translate(190, 46)" font-size="15px" font-family="Montserrat, sans-serif"><tspan x="-165.26" y="-9" dominant-baseline="ideographic">Highlighted as strong </tspan><tspan x="-169.7" y="9" dominant-baseline="ideographic">design for global issue </tspan><tspan x="-176.73" y="27" dominant-baseline="ideographic">and human experience</tspan></text></g></g></g><g id="g-root-cp_-1_row-top_dl3an0ehwt1d-stroke" data-item-order="-606806" transform="translate(74, 122.0029296875)"><g id="cp_-1_row-top_dl3an0ehwt1d-stroke" fill="none" stroke-linecap="round" stroke-linejoin="round" stroke-miterlimit="4" stroke="#ffffff" stroke-width="2" stroke-opacity="1"><g><path d="M 597.999775 118L 566.499775 96.5L 543.741875 56.9121L 478.719375 10L 455.764375 45.6352L 424.678875 63.5456L 404.889375 106L 404.888275 106L 398.984375 118M 457.428275 118L 495.999775 88L 481.957075 27.1328L 534.600275 65.1136C 541.355575 77.0021 558.999775 106 558.999775 106L 577.161875 118M 365.550415 118L 10 118L 10 202L 283.605804 202C 284.389313 201.153351 285.217102 200.349632 286.088013 199.593277L 294.519409 192.272099L 304.25769 172.457314C 307.676788 165.500484 313.039886 160.124365 319.44989 157.228464L 355.964111 140.732266L 365.550415 118ZM 668.285217 202L 640.982178 152.522366L 629.613525 118L 922 118L 922 202L 668.285217 202ZM 598 118L 614.085693 168.438381L 632.371582 202M 324.320007 202L 330.283112 189.866661L 377.714386 168.438381L 398.984589 118M 457.428589 118L 442 132L 466 160L 460 181L 502 202L 618.271484 202C 613.299988 192.951099 602.883972 173.459015 602.883972 173.459015L 587 125.583333L 577.16217 118M 501.998 202L 618.2696 202M 324.3181 202L 317.4375 226L 639.9975 226L 632.3696 202"></path></g></g></g><g id="g-root-cp_0_g-0_4pgae4ehwtu2-stroke" data-item-order="-606779" transform="translate(50, 338.0029296875)"><g id="cp_0_g-0_4pgae4ehwtu2-stroke" fill="none" stroke-linecap="round" stroke-linejoin="round" stroke-miterlimit="4" stroke="#484848" stroke-width="2" stroke-dasharray="5.0, 7.0" stroke-opacity="1"><g><path d="M 342 10L 10 10M 970 10L 664 10"></path></g></g></g><g id="g-root-cp_1_row-1_9ms9oehwumb-stroke" data-item-order="-606774" transform="translate(74, 338.0029296875)"><g id="cp_1_row-1_9ms9oehwumb-stroke" fill="none" stroke-linecap="round" stroke-linejoin="round" stroke-miterlimit="4" stroke="#ffffff" stroke-width="2" stroke-opacity="1"><g><path d="M 626.865231 118L 615.897931 130.0002L 333.279331 130.0002L 329.082031 118M 303.898438 34L 317.219638 10L 639.999338 10L 647.824938 34M 274.064499 34L 10 34L 10 118L 296.195496 118L 275.429092 42.34435C 274.673996 39.593117 274.224396 36.79265 274.064499 34ZM 666.97113 118L 688.456116 89.473133C 697.300415 77.730049 698.397583 60.5685 691.14447 47.424717L 683.736389 34L 922 34L 922 118L 666.97113 118ZM 303.899109 34.000234L 329.082703 118M 647.825623 34.000234L 665.919983 66.3708L 626.865784 118"></path></g></g></g><g id="g-root-cp_2_row-2_1qf3tzwehwv7w-stroke" data-item-order="-606744" transform="translate(74, 458.0029296875)"><g id="cp_2_row-2_1qf3tzwehwv7w-stroke" fill="none" stroke-linecap="round" stroke-linejoin="round" stroke-miterlimit="4" stroke="#ffffff" stroke-width="2" stroke-opacity="1"><g><path d="M 605.500856 21.9997L 616.106856 10L 333.222656 10L 337.688156 21.9997M 305.733704 22.000401L 10 22.000401L 10 118.000404L 336.412903 118.000404L 305.733704 22.000401ZM 609.385986 118.000404L 613.340271 103.910805C 613.375122 103.786934 613.409424 103.662804 613.443176 103.538536L 627.760315 50.942801L 638.877502 31.768533L 645.57312 22.000401L 922 22.000401L 922 118.000404L 609.385986 118.000404ZM 605.499878 22L 577 118.000404L 550.5 118.000404M 337.687195 22L 370 118.000404L 382 118.000404M 382 118L 430 167L 490.5 130.5L 526 130.5L 550.5 118"></path></g></g></g><g id="g-root-tx_iceyinst_1qf3tzwehwv7x-stroke" data-item-order="0" transform="translate(206, 38.0029296875)"></g><g id="g-root-ic_coup_4hc49oehy7ew-stroke" data-item-order="0" transform="translate(86, 248.0029296875)"><g id="ic_coup_4hc49oehy7ew-stroke" fill="none" stroke-linecap="round" stroke-linejoin="round" stroke-miterlimit="4" stroke="#ffffff" stroke-width="2" stroke-opacity="1"><g><path d="M 38.181999 15.238L 37.599998 14.719999C 37.145935 14.315823 36.8862 13.736894 36.8862 13.129C 36.8862 12.521107 37.145935 11.942178 37.599998 11.538L 37.599998 11.538C 37.990334 11.191546 38.494091 11.000145 39.015999 11L 40.984001 11C 41.505909 11.000145 42.00967 11.191546 42.400002 11.538L 42.400002 11.538C 42.854065 11.942178 43.113804 12.521107 43.113804 13.129C 43.113804 13.736894 42.854065 14.315823 42.400002 14.72L 41.818001 15.238M 15 39C 15 42.313709 17.686291 45 21 45C 24.313709 45 27 42.313709 27 39C 27 35.686295 24.313709 33 21 33C 17.686291 33 15 35.686295 15 39ZM 15.83 35.954002C 18.710327 38.937653 23.136608 39.827209 26.945999 38.188M 54.284 45.287998C 53.485069 43.976749 53.086746 42.460609 53.137997 40.925999L 53.138 39.141998C 53.138 35.752075 50.389923 33.004002 47 33.004002C 43.610077 33.004002 40.862 35.752075 40.862 39.141998L 40.862 40.926003C 40.91325 42.460609 40.514923 43.976749 39.715996 45.287998M 40.862 40.155998C 43.219196 40.152176 45.458691 39.125465 47 37.342003C 48.541309 39.125465 50.780807 40.152176 53.138 40.156002M 41.612 40.120003C 41.889442 42.888142 44.218987 44.995876 47.000999 44.995876C 49.783012 44.995876 52.112556 42.888142 52.389999 40.120003M 21 47C 15.477152 47 11 51.477154 11 57L 31 57C 31 51.477154 26.522848 47 21 47ZM 47 47C 41.477154 47 37 51.477154 37 57L 57 57C 57 51.477154 52.52285 47 47 47ZM 38.599998 28.858C 41.500252 29.450012 44.45937 28.153774 45.990616 25.620554C 47.521862 23.087334 47.294193 19.864792 45.421997 17.57202C 43.549801 15.279248 40.437828 14.411924 37.64962 15.405817C 34.861416 16.39971 32.99976 19.039948 33 22M 31.4 15.142C 28.499752 14.54999 25.540634 15.846228 24.009388 18.379448C 22.478142 20.912666 22.705811 24.13521 24.578005 26.427982C 26.450201 28.720753 29.562174 29.588076 32.35038 28.594183C 35.138588 27.600292 37.000244 24.960054 37 22"></path></g></g></g><g id="g-root-tx_positive_zitoykehy9se-stroke" data-item-order="0" transform="translate(146, 248.0029296875)"></g><g id="g-root-tx_attendee_m7znocehy87j-stroke" data-item-order="0" transform="translate(818, 242.0029296875)"></g><g id="g-root-ic_2_18kpg2kei12x5-stroke" data-item-order="0" transform="translate(506, 380.0029296875)"><g id="ic_2_18kpg2kei12x5-stroke" fill="none" stroke-linecap="round" stroke-linejoin="round" stroke-miterlimit="4" stroke="#ffffff" stroke-width="2" stroke-opacity="1"><g><path d="M 40 47.737999C 31.87833 52.10231 21.795532 50.005882 16.086645 42.7659C 10.377758 35.525917 10.690674 25.232233 16.828787 18.352386C 22.9669 11.47254 33.158424 9.992425 41 14.842M 54 45.557999L 54 17C 54 14.790861 52.209141 13 50 13C 47.790859 13 46 14.790861 46 17L 46 45.557999C 44.145782 47.216465 43.507301 49.847134 44.394966 52.17107C 45.282631 54.495007 47.512306 56.030136 50 56.030136C 52.487698 56.030136 54.717369 54.495007 55.605034 52.17107C 56.492699 49.847134 55.854221 47.216465 54 45.558002ZM 46 24L 54 24M 51 33L 54 33M 51 41L 54 41M 13 29L 19.486 30.622C 20.375862 30.844917 20.999977 31.644642 21 32.562L 21 37L 23.07 39.760002C 23.617645 40.489735 23.602013 41.497601 23.032 42.209999L 20 46M 38 22L 33.646 24.178001C 32.716694 24.643291 32.298615 25.742813 32.683998 26.708L 33.498001 28.742001C 33.80135 29.501301 34.536346 29.999483 35.354 30L 39 30L 41 34M 14 24L 21.556 22.32C 22.487896 22.112997 23.315037 21.57954 23.888 20.816L 24.858 19.524C 25.581074 18.559834 25.830891 17.321045 25.538 16.152L 25 14M 41 39L 37.874001 40.562C 37.321434 40.838886 36.927925 41.35569 36.807999 41.961998L 36.208 44.962002C 36.078888 45.615486 36.283604 46.290363 36.753998 46.762001L 38 48"></path></g></g></g><g id="g-root-tx_climatea_6ieu4ei0zyg-stroke" data-item-order="0" transform="translate(86, 380.0029296875)"></g><g id="g-root-tx_particip_qqb258ei6o02-stroke" data-item-order="0" transform="translate(818, 374.0029296875)"></g><g id="g-root-ic_1_v7zzj0ei6m84-stroke" data-item-order="0" transform="translate(506, 494.0029296875)"><g id="ic_1_v7zzj0ei6m84-stroke" fill="none" stroke-linecap="round" stroke-linejoin="round" stroke-miterlimit="4" stroke="#ffffff" stroke-width="2" stroke-opacity="1"><g><path d="M 18.476 38.832001L 12.134 49.782001C 11.939258 50.117447 11.95606 50.535248 12.177111 50.853973C 12.398161 51.172695 12.783582 51.334843 13.166 51.27L 18.765999 50.321999L 20.716 55.68C 20.847712 56.043549 21.177212 56.298584 21.562172 56.334942C 21.947132 56.3713 22.318554 56.182461 22.515999 55.849998L 27.962 46.636002M 49.523998 38.832001L 55.866001 49.782001C 56.060741 50.117447 56.043941 50.535248 55.822891 50.853973C 55.601837 51.172695 55.216419 51.334843 54.834 51.27L 49.234001 50.321999L 47.284 55.68C 47.15229 56.043549 46.822788 56.298584 46.437828 56.334942C 46.052868 56.3713 45.681446 56.182461 45.484001 55.849998L 40.038002 46.636002M 15.968 29.66C 15.968 39.601128 24.026875 47.66 33.968002 47.66C 43.909126 47.66 51.967999 39.601128 51.967999 29.66C 51.967999 19.718876 43.909126 11.66 33.968002 11.66C 24.026875 11.66 15.968 19.718876 15.968 29.66ZM 35.143997 20.378L 37.708 25.666L 42.708 25.666C 43.22028 25.653191 43.686485 25.960346 43.876881 26.436108C 44.067272 26.911867 43.941681 27.455853 43.561996 27.799999L 39.23 32.07L 41.629997 37.591999C 41.846134 38.109898 41.707817 38.707954 41.28624 39.078362C 40.864662 39.448769 40.253777 39.50898 39.767998 39.228001L 33.968002 35.959999L 28.167999 39.228001C 27.68222 39.50898 27.071339 39.448769 26.649761 39.078362C 26.228182 38.707954 26.089867 38.109898 26.306 37.591999L 28.705999 32.07L 24.374001 27.799999C 23.988052 27.456928 23.858929 26.908548 24.05125 26.429316C 24.24357 25.950081 24.715961 25.643097 25.232 25.661999L 30.232 25.661999L 32.799999 20.378C 33.027855 19.941395 33.479515 19.667637 33.972 19.667637C 34.464485 19.667637 34.916145 19.941395 35.144001 20.378Z"></path></g></g></g><g id="g-root-tx_designre_1q9hk7wei6oln-stroke" data-item-order="0" transform="translate(86, 494.0029296875)"></g><g id="g-root-tx_highligh_90wgwsei6olp-stroke" data-item-order="0" transform="translate(794, 482.0029296875)"></g></g></g></svg>