<?xml version="1.0" encoding="utf-8" standalone="yes"?>
<!DOCTYPE svg PUBLIC "-//W3C//DTD SVG 1.1//EN" "http://www.w3.org/Graphics/SVG/1.1/DTD/svg11.dtd">
<svg style="fill:none;stroke:none;fill-rule:evenodd;clip-rule:evenodd;stroke-linecap:round;stroke-linejoin:round;stroke-miterlimit:1.5;" version="1.1" xmlns="http://www.w3.org/2000/svg" xmlns:xlink="http://www.w3.org/1999/xlink" width="1044" height="942" viewBox="0 0 1044 942"><style class="text-font-style fontImports" data-font-family="Montserrat">@import url(https://fonts.googleapis.com/css2?family=Montserrat:wght@400;700&amp;amp;display=block);</style><g id="items" style="isolation: isolate"><g id="blend" style="mix-blend-mode: normal"><g id="g-root-cp_5_g-5_1hgy1scflwn40-fill" data-item-order="-826556" transform="translate(302, 122.0009765625)"><g id="cp_5_g-5_1hgy1scflwn40-fill-merged" stroke="none" fill="#95bdff" fill-opacity="1"><g><path d="M10 250 V289.429L70 238L130 289.429 V250C130 205.268 160.595 167.681 202 157.024 V178L274 94L202 10 V35.318C94.001 47.257 10 138.819 10 250"></path></g></g></g><g id="g-root-cp_4_g-4_18lximkflwkqx-fill" data-item-order="-826552" transform="translate(278, 350)"><g id="cp_4_g-4_18lximkflwkqx-fill-merged" stroke="none" fill="#5d9bff" fill-opacity="1"><g><path d="M34 82 V202C34 232.283 40.232 261.111 51.483 287.27L76 217.646L159.19 233.217C155.826 223.43 154 212.928 154 202 V82 H178L94 10L10 82 H34"></path></g></g></g><g id="g-root-cp_3_g-3_14640i4flwlj6-fill" data-item-order="-826548" transform="translate(307.2540283203125, 557.6470947265625)"><g id="cp_3_g-3_14640i4flwlj6-fill-merged" stroke="none" fill="#4e8cf1" fill-opacity="1"><g><path d="M22.229 79.624L10 114.354L32.932 101.114C70.099 166.36 140.285 210.354 220.746 210.354C308.377 210.354 383.82 158.17 417.694 83.182L334.746 98.707L310.249 29.14C296.316 64.964 261.496 90.354 220.746 90.354C184.698 90.354 153.291 70.485 136.877 41.101L155.492 30.354L129.936 25.57L46.746 10L22.229 79.624"></path></g></g></g><g id="g-root-cp_2_g-2_14640i4flwlj7-fill" data-item-order="-826544" transform="translate(595.2540283203125, 370.571044921875)"><g id="cp_2_g-2_14640i4flwlj7-fill-merged" stroke="none" fill="#4f85dc" fill-opacity="1"><g><path d="M88.746 61.429L28.746 10 V181.429C28.746 184.975 28.554 188.477 28.179 191.924L10 181.428L46.746 285.782L155.492 265.428L136.158 254.266C144.307 231.509 148.746 206.987 148.746 181.429 V10L88.746 61.429"></path></g></g></g><g id="g-root-cp_1_g-1_vah098flwmbw-fill" data-item-order="-826540" transform="translate(514.5179443359375, 146)"><g id="cp_1_g-1_vah098flwmbw-fill-merged" stroke="none" fill="#4877c3" fill-opacity="1"><g><path d="M61.482 70L10 130.062C11.156 130.021 12.316 130 13.482 130C62.437 130 102.834 166.644 108.739 214 H85.482L169.482 286L253.482 214 H229.154C222.927 100.288 128.748 10 13.482 10C12.344 10 11.209 10.009 10.076 10.026L61.482 70"></path></g></g></g><g id="g-root-ic_pick_4o6gloflwmby-fill" data-item-order="-2304" transform="translate(374, 242)"><g id="ic_pick_4o6gloflwmby-fill-merged" stroke="none" fill="#ffffff" fill-opacity="1"><g><path d="M50.52 10L42.66 10.24C41.216 10.275 39.818 10.757 38.66 11.62L31.16 17.2C29.6 18.402 28.488 20.092 28 22L26.62 26.72C26.109 28.19 26.109 29.79 26.62 31.26C27.417 32.787 29.211 33.502 30.84 32.94C31.807 32.662 32.562 31.907 32.84 30.94L34.46 24.2C34.723 23.57 35.169 23.034 35.74 22.66L41.14 19.14C42.14 18.476 43.416 18.385 44.5 18.9C45.38 19.34 46.9 20.18 47.22 21.04C47.896 22.401 47.666 24.038 46.64 25.16L42.64 29.16C41.398 30.233 41.126 32.051 42 33.44C43.24 34.92 44.98 34.04 46.6 32.94L53.88 28C54.549 27.513 55.024 26.804 55.22 26L56.72 21.06 M45.66 44.96C45.66 47.048 47.352 48.74 49.44 48.74C51.528 48.74 53.22 47.048 53.22 44.96C53.22 42.872 51.528 41.18 49.44 41.18C47.352 41.18 45.66 42.872 45.66 44.96 M15 44.96C15 47.048 16.692 48.74 18.78 48.74C20.868 48.74 22.56 47.048 22.56 44.96C22.56 42.872 20.868 41.18 18.78 41.18C16.692 41.18 15 42.872 15 44.96 M28.32 42.56C28.32 45.708 30.872 48.26 34.02 48.26C37.168 48.26 39.72 45.708 39.72 42.56C39.72 39.412 37.168 36.86 34.02 36.86C30.872 36.86 28.32 39.412 28.32 42.56 M45.02 58 H57.82L56.78 56.16C55.234 54.147 52.899 52.894 50.367 52.718C47.835 52.542 45.349 53.46 43.54 55.24C44.135 56.102 44.631 57.028 45.02 58 M24.64 55.22C23.531 54.124 22.151 53.344 20.64 52.96C17.222 52.086 13.611 53.319 11.44 56.1L10.18 58 H23.18C23.568 57.025 24.058 56.093 24.64 55.22 M34.12 52C30.292 52.157 26.889 54.487 25.36 58 H42.84C41.317 54.5 37.934 52.172 34.12 52"></path></g></g></g><g id="g-root-ic_view_v8lkzwfm0t1i-fill" data-item-order="-2304" transform="translate(614, 242)"><g id="ic_view_v8lkzwfm0t1i-fill-merged" stroke="none" fill="#ffffff" fill-opacity="1"><g><path d="M28.34 46C30.098 42.672 32.751 39.901 36 38L30.2 32.22C28.863 30.691 26.931 29.814 24.9 29.814C22.869 29.814 20.937 30.691 19.6 32.22L14 37.7 V14L44 13.88 V32.86C41.28 30.26 38.44 30.28 35.54 32.96L35.42 33.08L38.94 36.58C40.519 36.051 42.174 35.781 43.84 35.78C45.246 35.774 46.646 35.963 48 36.34 V13.88C47.935 11.718 46.163 9.999 44 10 H14C11.837 9.999 10.065 11.718 10 13.88 V44C10 46.209 11.791 48 14 48 H28C27.945 47.315 28.062 46.628 28.34 46 M29.16 21.66C29.16 23.869 30.951 25.66 33.16 25.66C35.369 25.66 37.16 23.869 37.16 21.66C37.16 19.451 35.369 17.66 33.16 17.66C30.951 17.66 29.16 19.451 29.16 21.66 M57 47.12C56.84 46.76 52.54 38.4 43.84 38.4C35.14 38.4 30.84 46.76 30.66 47.12C30.461 47.545 30.461 48.035 30.66 48.46C30.84 48.8 35.12 57.16 43.84 57.16C52.56 57.16 56.84 48.8 57 48.46C57.22 48.041 57.22 47.539 57 47.12 M43.84 54.32C41.175 54.328 38.768 52.728 37.745 50.267C36.721 47.807 37.283 44.972 39.167 43.087C41.052 41.203 43.887 40.641 46.347 41.665C48.808 42.688 50.408 45.095 50.4 47.76C50.4 51.383 47.463 54.32 43.84 54.32 M41.34 47.76C41.34 49.141 42.459 50.26 43.84 50.26C45.221 50.26 46.34 49.141 46.34 47.76C46.34 46.379 45.221 45.26 43.84 45.26C42.459 45.26 41.34 46.379 41.34 47.76"></path></g></g></g><g id="g-root-ic_prof_1hby93gfly13g-fill" data-item-order="-2304" transform="translate(338, 458)"><g id="ic_prof_1hby93gfly13g-fill-merged" stroke="none" fill="#ffffff" fill-opacity="1"><g><path d="M17.6 29.56C13.181 31.673 10.267 36.029 10 40.92C9.979 41.202 10.081 41.479 10.28 41.68C10.463 41.885 10.725 42.001 11 42 H23 V35L17.6 29.56 M32 30.42C31.525 30.104 31.03 29.816 30.52 29.56L25.04 35 V42 H31.04 V33C31.045 32.054 31.385 31.139 32 30.42 M29.42 26C32.03 24.076 33.387 20.884 32.961 17.669C32.536 14.454 30.395 11.726 27.375 10.546C24.354 9.367 20.931 9.924 18.44 12 H18.3C18.291 12.04 18.291 12.08 18.3 12.12C16.263 13.79 15.081 16.286 15.08 18.92C15.097 21.711 16.423 24.332 18.66 26C21.826 28.455 26.254 28.455 29.42 26 M26 18C26.921 17.997 27.834 17.834 28.7 17.52C28.835 17.975 28.909 18.446 28.92 18.92C28.92 21.637 26.717 23.84 24 23.84C21.283 23.84 19.08 21.637 19.08 18.92C19.087 17.699 19.559 16.526 20.4 15.64C21.884 17.133 23.896 17.981 26 18 M54 32 H38C35.791 32 34 33.791 34 36 V54C34 56.209 35.791 58 38 58 H54C56.209 58 58 56.209 58 54 V36C58 33.791 56.209 32 54 32 M54 53.5C54 53.776 53.776 54 53.5 54 H38.5C38.224 54 38 53.776 38 53.5 V36.5C38 36.224 38.224 36 38.5 36 H53.5C53.776 36 54 36.224 54 36.5 V53.5 M51 40 H41.5C40.672 40 40 40.672 40 41.5C40 42.328 40.672 43 41.5 43 H51C51.828 43 52.5 42.328 52.5 41.5C52.5 40.672 51.828 40 51 40 M46 46 H41.5C40.672 46 40 46.672 40 47.5C40 48.328 40.672 49 41.5 49 H46C46.828 49 47.5 48.328 47.5 47.5C47.5 46.672 46.828 46 46 46"></path></g></g></g><g id="g-root-ic_inte_1hgy1scflzeo4-fill" data-item-order="-2304" transform="translate(650, 458)"><g id="ic_inte_1hgy1scflzeo4-fill-merged" stroke="none" fill="#ffffff" fill-opacity="1"><g><path d="M40.686 10.5C33.228 10.492 27.024 16.232 26.454 23.668C24.168 23.774 22.24 24.312 20.594 25.218C18.744 26.238 17.304 27.688 16.11 29.406C14.16 32.21 12.792 35.85 11.374 39.63C11.082 40.402 10.79 41.178 10.49 41.956C10.247 42.592 10.332 43.305 10.716 43.864C11.1 44.424 11.735 44.759 12.414 44.76 H14.104 V48.008C14.104 50.906 16.454 53.255 19.352 53.254 H20.476 V56.502C20.476 57.054 20.924 57.502 21.476 57.502 H36.34C36.892 57.502 37.34 57.054 37.34 56.502 V48.06C38.437 46.978 39.352 45.726 40.048 44.352 H46.526C47.078 44.352 47.526 43.904 47.526 43.352 V40.106 H48.648C51.546 40.106 53.895 37.758 53.896 34.86 V31.612 H55.586C56.266 31.613 56.902 31.278 57.286 30.718C57.671 30.158 57.755 29.444 57.51 28.81C57.21 28.03 56.918 27.252 56.628 26.48C55.208 22.702 53.84 19.062 51.89 16.258C50.696 14.54 49.256 13.088 47.408 12.07C45.556 11.05 43.354 10.5 40.686 10.5 M33.416 42C33.607 42.199 33.871 42.311 34.147 42.308C34.422 42.306 34.685 42.19 34.872 41.988L41.552 34.76C43.064 33.4 43.366 31.286 42.46 29.472C41.1 26.602 37.474 25.998 35.208 28.264L34 29.472L32.792 28.264C30.678 26.15 26.9 26.754 25.542 29.472C24.786 31.286 25.088 33.4 26.448 34.76L33.416 42"></path></g></g></g><g id="g-root-ic_bowi_1uljc7gflzeo4-fill" data-item-order="-2304" transform="translate(494, 674)"><g id="ic_bowi_1uljc7gflzeo4-fill-merged" stroke="none" fill="#ffffff" fill-opacity="1"><g><path d="M43.26 49.3 H42.42C43.762 46.71 44.185 43.742 43.62 40.88L41.62 29.74C41.255 27.586 39.572 25.896 37.42 25.52C35.331 25.102 33.204 26.038 32.1 27.86L21.62 40.96C21.078 41.875 20.913 42.965 21.16 44C21.412 45.058 22.083 45.968 23.02 46.52C23.959 47.079 25.08 47.244 26.14 46.98 H26.32L23.18 48.32C21.2 49.363 20.188 51.623 20.729 53.794C21.269 55.965 23.222 57.487 25.46 57.48 H43.3C45.564 57.48 47.4 55.644 47.4 53.38C47.4 51.116 45.564 49.28 43.3 49.28 M28.6 45.3L34.86 38.48L35.54 42.36C35.606 42.683 35.472 43.014 35.2 43.2L27.2 46.64C27.774 46.304 28.255 45.829 28.6 45.26 M30.9 24.98C34.899 24.98 38.14 21.739 38.14 17.74C38.14 13.741 34.899 10.5 30.9 10.5C26.901 10.5 23.66 13.741 23.66 17.74C23.66 21.739 26.901 24.98 30.9 24.98"></path></g></g></g><g id="g-root-tx_iceyawar_hzmyz0flwkr1-fill" data-item-order="0" transform="translate(368, 38)"><g id="tx_iceyawar_hzmyz0flwkr1-fill-merged" stroke="none" fill="#484848" fill-opacity="1"><g><text style="font: bold 25px Montserrat, sans-serif; white-space: pre;" transform="translate(160, 28)" font-weight="bold" font-size="25px" font-family="Montserrat, sans-serif"><tspan x="-147.56" y="15" dominant-baseline="ideographic">ICEY! Awareness Cycle</tspan></text></g></g></g><g id="g-root-tx_takeacti_4m3ykfm28zr-fill" data-item-order="0" transform="translate(110, 200.80712890625)"><g id="tx_takeacti_4m3ykfm28zr-fill-merged" stroke="none" fill="#484848" fill-opacity="1"><g><text style="font: bold 20px Montserrat, sans-serif; white-space: pre;" transform="translate(142, 22)" font-weight="bold" font-size="20px" font-family="Montserrat, sans-serif"><tspan x="-125.93" y="12" dominant-baseline="ideographic">Take Action</tspan></text></g></g></g><g id="g-root-tx_engagevi_dcbrt8fm29e1-fill" data-item-order="0" transform="translate(794, 229.80712890625)"><g id="tx_engagevi_dcbrt8fm29e1-fill-merged" stroke="none" fill="#484848" fill-opacity="1"><g><text style="font: bold 20px Montserrat, sans-serif; white-space: pre;" transform="translate(10, 22)" font-weight="bold" font-size="20px" font-family="Montserrat, sans-serif"><tspan x="2" y="12" dominant-baseline="ideographic">Engage Visually</tspan></text></g></g></g><g id="g-root-tx_inspires_1luw4ngfm277s-fill" data-item-order="0" transform="translate(14, 236.80712890625)"><g id="tx_inspires_1luw4ngfm277s-fill-merged" stroke="none" fill="#484848" fill-opacity="1"><g><text style="font: 15px Montserrat, sans-serif; white-space: pre;" transform="translate(238, 58)" font-size="15px" font-family="Montserrat, sans-serif"><tspan x="-167.28" y="-0" dominant-baseline="ideographic">Inspires viewers to act </tspan><tspan x="-184.9" y="18" dominant-baseline="ideographic">environmentally friendly</tspan></text></g></g></g><g id="g-root-tx_captures_1hqj0fm27t6-fill" data-item-order="0" transform="translate(794, 265.80712890625)"><g id="tx_captures_1hqj0fm27t6-fill-merged" stroke="none" fill="#484848" fill-opacity="1"><g><text style="font: 15px Montserrat, sans-serif; white-space: pre;" transform="translate(10, 28)" font-size="15px" font-family="Montserrat, sans-serif"><tspan x="2" y="-0" dominant-baseline="ideographic">Captures attention with </tspan><tspan x="2" y="18" dominant-baseline="ideographic">its design</tspan></text></g></g></g><g id="g-root-tx_consider_18i6o3wfm26mj-fill" data-item-order="0" transform="translate(86, 445.806884765625)"><g id="tx_consider_18i6o3wfm26mj-fill-merged" stroke="none" fill="#484848" fill-opacity="1"><g><text style="font: bold 20px Montserrat, sans-serif; white-space: pre;" transform="translate(10, 22)" font-weight="bold" font-size="20px" font-family="Montserrat, sans-serif"><tspan x="2" y="12" dominant-baseline="ideographic">Consider Role</tspan></text></g></g></g><g id="g-root-tx_engageem_18gb8ukfm27m5-fill" data-item-order="0" transform="translate(794, 433.806884765625)"><g id="tx_engageem_18gb8ukfm27m5-fill-merged" stroke="none" fill="#484848" fill-opacity="1"><g><text style="font: bold 20px Montserrat, sans-serif; white-space: pre;" transform="translate(10, 34)" font-weight="bold" font-size="20px" font-family="Montserrat, sans-serif"><tspan x="2" y="-0" dominant-baseline="ideographic">Engage </tspan><tspan x="2" y="24" dominant-baseline="ideographic">Emotionally</tspan></text></g></g></g><g id="g-root-tx_promptsv_142d5zgfm27es-fill" data-item-order="0" transform="translate(38, 481.806884765625)"><g id="tx_promptsv_142d5zgfm27es-fill-merged" stroke="none" fill="#484848" fill-opacity="1"><g><text style="font: 15px Montserrat, sans-serif; white-space: pre;" transform="translate(10, 28)" font-size="15px" font-family="Montserrat, sans-serif"><tspan x="2" y="-0" dominant-baseline="ideographic">Prompts viewers to assess </tspan><tspan x="2" y="18" dominant-baseline="ideographic">their impact</tspan></text></g></g></g><g id="g-root-tx_evokesfe_v4uqh8fm2972-fill" data-item-order="0" transform="translate(794, 493.806884765625)"><g id="tx_evokesfe_v4uqh8fm2972-fill-merged" stroke="none" fill="#484848" fill-opacity="1"><g><text style="font: 15px Montserrat, sans-serif; white-space: pre;" transform="translate(10, 28)" font-size="15px" font-family="Montserrat, sans-serif"><tspan x="2" y="-0" dominant-baseline="ideographic">Evokes feelings about </tspan><tspan x="2" y="18" dominant-baseline="ideographic">the environment</tspan></text></g></g></g><g id="g-root-tx_pauseand_hu0p70fm27m7-fill" data-item-order="0" transform="translate(458, 787.806884765625)"><g id="tx_pauseand_hu0p70fm27m7-fill-merged" stroke="none" fill="#484848" fill-opacity="1"><g><text style="font: bold 20px Montserrat, sans-serif; white-space: pre;" transform="translate(70, 34)" font-weight="bold" font-size="20px" font-family="Montserrat, sans-serif"><tspan x="-57.54" y="-0" dominant-baseline="ideographic">Pause and </tspan><tspan x="-40.02" y="24" dominant-baseline="ideographic">Reflect</tspan></text></g></g></g><g id="g-root-tx_encourag_3d5scfm26tl-fill" data-item-order="0" transform="translate(428, 847.80712890625)"><g id="tx_encourag_3d5scfm26tl-fill-merged" stroke="none" fill="#484848" fill-opacity="1"><g><text style="font: 15px Montserrat, sans-serif; white-space: pre;" transform="translate(100, 28)" font-size="15px" font-family="Montserrat, sans-serif"><tspan x="-86.15" y="-0" dominant-baseline="ideographic">Encourages viewers to </tspan><tspan x="-21.66" y="18" dominant-baseline="ideographic">think</tspan></text></g></g></g><g id="g-root-cp_5_g-5_1hgy1scflwn40-stroke" data-item-order="-826556" transform="translate(302, 122.0009765625)"><g id="cp_5_g-5_1hgy1scflwn40-stroke" fill="none" stroke-linecap="round" stroke-linejoin="round" stroke-miterlimit="4" stroke="#ffffff" stroke-width="1" stroke-opacity="1"><g><path d="M 10 249.9999L 10 289.4286L 70 238L 130 289.4286L 130 249.9999C 130 205.2678 160.5946 167.6814 202 157.0244L 202 178L 274 94L 202 10L 202 35.3182C 94.0012 47.2569 10 138.8187 10 249.9999Z"></path></g></g></g><g id="g-root-cp_4_g-4_18lximkflwkqx-stroke" data-item-order="-826552" transform="translate(278, 350)"><g id="cp_4_g-4_18lximkflwkqx-stroke" fill="none" stroke-linecap="round" stroke-linejoin="round" stroke-miterlimit="4" stroke="#ffffff" stroke-width="1" stroke-opacity="1"><g><path d="M 34 82L 34 202C 34 232.2832 40.232 261.1108 51.4834 287.2703L 76 217.6465L 159.1896 233.2169C 155.826 223.4301 154 212.9283 154 202L 154 82L 178 82L 94 10L 10 82L 34 82Z"></path></g></g></g><g id="g-root-cp_3_g-3_14640i4flwlj6-stroke" data-item-order="-826548" transform="translate(307.2540283203125, 557.6470947265625)"><g id="cp_3_g-3_14640i4flwlj6-stroke" fill="none" stroke-linecap="round" stroke-linejoin="round" stroke-miterlimit="4" stroke="#ffffff" stroke-width="1" stroke-opacity="1"><g><path d="M 9.999969 114.3538L 32.931569 101.1143C 70.099469 166.3596 140.285069 210.3535 220.746069 210.3535C 308.377069 210.3535 383.819769 158.1695 417.694069 83.1818L 334.746069 98.707L 310.249369 29.1401C 296.316269 64.9635 261.496269 90.3535 220.746069 90.3535C 184.698069 90.3535 153.290569 70.4849 136.877269 41.1012L 155.492269 30.3538L 46.746069 10L 9.999969 114.3538Z"></path></g></g></g><g id="g-root-cp_2_g-2_14640i4flwlj7-stroke" data-item-order="-826544" transform="translate(595.2540283203125, 370.571044921875)"><g id="cp_2_g-2_14640i4flwlj7-stroke" fill="none" stroke-linecap="round" stroke-linejoin="round" stroke-miterlimit="4" stroke="#ffffff" stroke-width="1" stroke-opacity="1"><g><path d="M 88.7462 61.4286L 28.7462 10L 28.7462 181.4287C 28.7462 184.9754 28.5538 188.4771 28.179 191.9241L 10 181.4284L 46.7462 285.7822L 155.4923 265.4284L 136.1577 254.2656C 144.307 231.5094 148.7462 206.9875 148.7462 181.4287L 148.7462 10L 88.7462 61.4286Z"></path></g></g></g><g id="g-root-cp_1_g-1_vah098flwmbw-stroke" data-item-order="-826540" transform="translate(514.5179443359375, 146)"><g id="cp_1_g-1_vah098flwmbw-stroke" fill="none" stroke-linecap="round" stroke-linejoin="round" stroke-miterlimit="4" stroke="#ffffff" stroke-width="1" stroke-opacity="1"><g><path d="M 61.4816 70L 10 130.0619C 11.1555 130.0207 12.3161 129.9999 13.4816 129.9999C 62.4371 129.9999 102.8338 166.6442 108.7389 214L 85.4816 214L 169.4816 286L 253.4816 214L 229.1539 214C 222.9274 100.2881 128.7485 10 13.4816 10C 12.3442 10 11.2089 10.0089 10.0756 10.0264L 61.4816 70Z"></path></g></g></g><g id="g-root-ic_pick_4o6gloflwmby-stroke" data-item-order="-2304" transform="translate(374, 242)"></g><g id="g-root-ic_view_v8lkzwfm0t1i-stroke" data-item-order="-2304" transform="translate(614, 242)"></g><g id="g-root-ic_prof_1hby93gfly13g-stroke" data-item-order="-2304" transform="translate(338, 458)"></g><g id="g-root-ic_inte_1hgy1scflzeo4-stroke" data-item-order="-2304" transform="translate(650, 458)"></g><g id="g-root-ic_bowi_1uljc7gflzeo4-stroke" data-item-order="-2304" transform="translate(494, 674)"></g><g id="g-root-tx_iceyawar_hzmyz0flwkr1-stroke" data-item-order="0" transform="translate(368, 38)"></g><g id="g-root-tx_takeacti_4m3ykfm28zr-stroke" data-item-order="0" transform="translate(110, 200.80712890625)"></g><g id="g-root-tx_engagevi_dcbrt8fm29e1-stroke" data-item-order="0" transform="translate(794, 229.80712890625)"></g><g id="g-root-tx_inspires_1luw4ngfm277s-stroke" data-item-order="0" transform="translate(14, 236.80712890625)"></g><g id="g-root-tx_captures_1hqj0fm27t6-stroke" data-item-order="0" transform="translate(794, 265.80712890625)"></g><g id="g-root-tx_consider_18i6o3wfm26mj-stroke" data-item-order="0" transform="translate(86, 445.806884765625)"></g><g id="g-root-tx_engageem_18gb8ukfm27m5-stroke" data-item-order="0" transform="translate(794, 433.806884765625)"></g><g id="g-root-tx_promptsv_142d5zgfm27es-stroke" data-item-order="0" transform="translate(38, 481.806884765625)"></g><g id="g-root-tx_evokesfe_v4uqh8fm2972-stroke" data-item-order="0" transform="translate(794, 493.806884765625)"></g><g id="g-root-tx_pauseand_hu0p70fm27m7-stroke" data-item-order="0" transform="translate(458, 787.806884765625)"></g><g id="g-root-tx_encourag_3d5scfm26tl-stroke" data-item-order="0" transform="translate(428, 847.80712890625)"></g></g></g></svg>