<?xml version="1.0" encoding="utf-8" standalone="yes"?>
<!DOCTYPE svg PUBLIC "-//W3C//DTD SVG 1.1//EN" "http://www.w3.org/Graphics/SVG/1.1/DTD/svg11.dtd">
<svg style="fill:none;stroke:none;fill-rule:evenodd;clip-rule:evenodd;stroke-linecap:round;stroke-linejoin:round;stroke-miterlimit:1.5;" version="1.1" xmlns="http://www.w3.org/2000/svg" xmlns:xlink="http://www.w3.org/1999/xlink" width="792" height="780" viewBox="0 0 792 780"><style class="text-font-style fontImports" data-font-family="Roboto">@import url(https://fonts.googleapis.com/css2?family=Roboto:wght@400;700&amp;amp;display=block);</style><g id="items" style="isolation: isolate"><g id="blend" style="mix-blend-mode: normal"><g id="g-root-cp_resolution_g-resolution_146qbakdny1vu-fill" data-item-order="-508886" transform="translate(386, 494)"><g id="cp_resolution_g-resolution_146qbakdny1vu-fill-merged" stroke="none" fill="#95bdff" fill-opacity="1"><g><path d="M10 94 H262 V106L298 58L262 10 V22 H154C139.419 41.441 121.005 57.79 99.817 69.99C72.496 85.721 41.524 94 10 94"></path></g></g></g><g id="g-root-cp_3_g-3_146qbakdny1vv-fill" data-item-order="-508880" transform="translate(206, 308)"><g id="cp_3_g-3_146qbakdny1vv-fill-merged" stroke="none" fill="#95bdff" fill-opacity="1"><g><path d="M46 208C41.695 202.26 37.725 196.251 34.115 190C18.317 162.637 10 131.597 10 100C10 68.403 18.317 37.363 34.115 10L96.392 45.955C86.905 62.387 81.911 81.026 81.911 100C81.911 118.974 86.905 137.613 96.392 154.045C105.879 170.476 119.524 184.121 135.955 193.608C151.117 202.362 168.158 207.29 185.608 208 H46"></path></g></g></g><g id="g-root-cp_2_g-2_zqwt64dny2o4-fill" data-item-order="-508874" transform="translate(230.08602905273438, 218)"><g id="cp_2_g-2_zqwt64dny2o4-fill-merged" stroke="none" fill="#4e8ff7" fill-opacity="1"><g><path d="M10 100.051C25.789 72.682 48.505 49.952 75.863 34.145C103.221 18.338 134.259 10.01 165.855 10C197.452 9.99 228.494 18.297 255.863 34.086C283.232 49.875 305.962 72.591 321.769 99.949L259.504 135.925C250.012 119.496 236.363 105.856 219.928 96.374C203.493 86.893 184.852 81.905 165.879 81.911C146.905 81.917 128.267 86.917 111.839 96.41C95.41 105.902 81.77 119.551 72.288 135.986L10 100.051"></path></g></g></g><g id="g-root-cp_1_g-1_zqwt64dny2o5-fill" data-item-order="-508868" transform="translate(385.7889404296875, 308.18310546875)"><g id="cp_1_g-1_zqwt64dny2o5-fill-merged" stroke="none" fill="#4f82d5" fill-opacity="1"><g><path d="M166.202 10C181.968 37.382 190.248 68.432 190.211 100.028C190.174 131.625 181.821 162.655 165.99 190C150.16 217.345 127.41 240.041 100.028 255.807C72.646 271.573 41.597 279.854 10 279.817L10.084 207.906C29.058 207.928 47.703 202.956 64.146 193.488C80.589 184.021 94.25 170.392 103.756 153.971C113.262 137.551 118.278 118.918 118.301 99.944C118.323 80.97 113.35 62.325 103.883 45.882L166.202 10"></path></g></g></g><g id="g-root-cp_problem_g-problem_qvwa0cdny0b2-fill" data-item-order="-508862" transform="translate(133, 506)"><g id="cp_problem_g-problem_qvwa0cdny0b2-fill-merged" stroke="none" fill="#484848" fill-opacity="1"><g><path d="M10 10 H263 V82 H10 V10"></path></g></g></g><g id="g-root-ic_hear_94m9ikdny2o8-fill" data-item-order="-2304" transform="translate(543, 518)"><g id="ic_hear_94m9ikdny2o8-fill-merged" stroke="none" fill="#ffffff" fill-opacity="1"><g><path d="M42.58 27.62C39.699 23.793 34.628 22.342 30.159 24.066C25.689 25.789 22.906 30.269 23.34 35.04 H27.52C28.068 35.029 28.509 34.588 28.52 34.04 V33.72C28.52 30.694 30.974 28.241 34 28.241C37.026 28.241 39.48 30.694 39.48 33.72 V34C39.491 34.548 39.932 34.989 40.48 35 H44.66C44.906 32.367 44.165 29.737 42.58 27.62 M34 10.34C20.931 10.351 10.333 20.931 10.3 34C10.311 34.548 10.752 34.989 11.3 35 H15.08C14.621 27.947 18.124 21.224 24.167 17.558C30.21 13.893 37.79 13.893 43.833 17.558C49.876 21.224 53.379 27.947 52.92 35 H56.7C57.248 34.989 57.689 34.548 57.7 34C57.667 20.931 47.069 10.351 34 10.34 M46.92 22.82C42.168 17.227 34.359 15.325 27.567 18.106C20.776 20.887 16.544 27.721 17.08 35.04 H21.32C21.087 31.769 22.117 28.533 24.2 26C27.736 21.728 33.631 20.24 38.771 22.32C43.911 24.401 47.111 29.572 46.68 35.1 H50.92C51.25 30.64 49.813 26.23 46.92 22.82 M35.52 41.06L34 42.58L32.48 41.06C31.107 39.571 29.029 38.953 27.065 39.45C25.101 39.948 23.568 41.481 23.07 43.445C22.573 45.409 23.191 47.487 24.68 48.86L32.5 57.02C32.88 57.451 33.426 57.697 34 57.697C34.574 57.697 35.12 57.451 35.5 57.02L43.32 48.86C44.809 47.487 45.427 45.409 44.93 43.445C44.432 41.481 42.899 39.948 40.935 39.45C38.971 38.953 36.893 39.571 35.52 41.06"></path></g></g></g><g id="g-root-ic_mood_1q6c4vgdo3nd4-fill" data-item-order="-2304" transform="translate(238, 518)"><g id="ic_mood_1q6c4vgdo3nd4-fill-merged" stroke="none" fill="#ffffff" fill-opacity="1"><g><path d="M45.66 41.52C46.007 38.514 47.231 35.676 49.18 33.36C50.276 31.835 52.31 31.32 54 32.14C54.155 32.229 54.345 32.229 54.5 32.14C54.655 32.042 54.741 31.863 54.72 31.68C53.553 21.687 45.624 13.832 35.62 12.76 V12C35.62 10.895 34.725 10 33.62 10C32.515 10 31.62 10.895 31.62 12 V12.68C20.465 13.583 11.873 22.899 11.873 34.09C11.873 45.281 20.465 54.597 31.62 55.5 V56C31.62 57.105 32.515 58 33.62 58C34.725 58 35.62 57.105 35.62 56 V55.44C41.032 54.891 46.035 52.311 49.62 48.22C49.717 48.103 49.761 47.951 49.74 47.8C49.709 47.648 49.614 47.517 49.48 47.44C47.225 46.308 45.763 44.041 45.66 41.52 M47.52 30.84C46.544 32.126 45.014 32.869 43.4 32.84C41.791 32.85 40.268 32.111 39.28 30.84C38.783 30.177 38.917 29.237 39.58 28.74C40.243 28.243 41.183 28.377 41.68 29.04C42.097 29.563 42.731 29.868 43.4 29.868C44.069 29.868 44.703 29.563 45.12 29.04C45.617 28.377 46.557 28.243 47.22 28.74C47.883 29.237 48.017 30.177 47.52 30.84 M16 34C16.003 25.245 22.482 17.842 31.16 16.68C31.304 16.66 31.451 16.704 31.56 16.8C31.668 16.896 31.727 17.036 31.72 17.18 V37.36C31.717 37.498 31.775 37.63 31.88 37.72C31.978 37.823 32.118 37.875 32.26 37.86C36.336 37.577 40.332 39.09 43.2 42C43.785 42.586 43.785 43.534 43.2 44.12C42.603 44.697 41.657 44.697 41.06 44.12C38.716 41.756 35.433 40.573 32.12 40.9C31.86 40.921 31.659 41.139 31.66 41.4 V42.72C29.386 42.388 27.281 41.328 25.66 39.7C25.284 39.321 24.773 39.108 24.24 39.108C23.707 39.108 23.196 39.321 22.82 39.7C22.045 40.48 22.045 41.74 22.82 42.52C25.101 44.795 28.066 46.257 31.26 46.68C31.5 46.727 31.675 46.935 31.68 47.18 V50.94C31.679 51.083 31.621 51.219 31.52 51.32C31.405 51.407 31.263 51.449 31.12 51.44C22.417 50.245 15.949 42.784 16 34 M28.44 31.14C29.103 30.256 28.924 29.003 28.04 28.34C27.156 27.677 25.903 27.856 25.24 28.74C24.917 29.138 24.432 29.369 23.92 29.369C23.408 29.369 22.923 29.138 22.6 28.74C21.937 27.856 20.684 27.677 19.8 28.34C18.916 29.003 18.737 30.256 19.4 31.14C20.469 32.559 22.143 33.393 23.92 33.393C25.697 33.393 27.371 32.559 28.44 31.14 M52.32 45.26C54.307 45.104 55.877 43.509 56 41.52C55.568 39.15 54.542 36.927 53.02 35.06C52.853 34.804 52.566 34.652 52.26 34.66C51.956 34.66 51.672 34.809 51.5 35.06C49.986 36.932 48.961 39.153 48.52 41.52C48.65 43.552 50.286 45.162 52.32 45.26"></path></g></g></g><g id="g-root-ic_poin_1cwr1rgdo29s9-fill" data-item-order="-2304" transform="translate(362, 230)"><g id="ic_poin_1cwr1rgdo29s9-fill-merged" stroke="none" fill="#ffffff" fill-opacity="1"><g><path d="M25.432 29.32C22.852 29.32 20.754 31.424 20.754 33.958C20.754 35.932 21.9 37.536 23.668 38.238C24.337 38.499 24.815 39.098 24.921 39.808C25.026 40.519 24.742 41.231 24.177 41.675C23.612 42.118 22.853 42.225 22.188 41.954C18.948 40.666 16.754 37.624 16.754 33.958C16.754 29.192 20.668 25.322 25.434 25.322C26.54 25.322 27.624 25.542 28.676 25.962C29.655 26.399 30.115 27.531 29.719 28.527C29.323 29.523 28.212 30.03 27.2 29.676C26.64 29.446 26.04 29.325 25.434 29.32 M25.786 22.426C19.266 22.426 14.126 27.554 14.126 34C14.126 40.446 19.266 45.574 25.786 45.574C26.891 45.574 27.786 46.469 27.786 47.574C27.786 48.679 26.891 49.574 25.786 49.574C17.08 49.574 10.126 42.68 10.126 34C10.126 25.32 17.082 18.426 25.786 18.426C26.96 18.426 28.1 18.654 29.028 18.838 H29.102C30.186 19.067 30.889 20.12 30.674 21.204C30.459 22.288 29.406 22.991 28.322 22.776C27.312 22.576 26.53 22.426 25.786 22.426 M46.166 13.628C46.166 12.634 45.254 11.718 44.24 11.718C43.224 11.718 42.312 12.634 42.312 13.628 V26.094C42.312 26.646 41.864 27.094 41.312 27.094C40.76 27.094 40.312 26.646 40.312 26.094 V16.554C40.312 15.544 39.4 14.628 38.384 14.628C37.37 14.628 36.458 15.544 36.458 16.536 V32.242C36.458 32.398 36.421 32.553 36.35 32.692L35.18 35.02C35.051 35.277 34.817 35.466 34.539 35.538C34.26 35.61 33.964 35.559 33.726 35.398L29.45 32.5C28.256 31.77 26.718 31.972 25.912 33.04C25.203 33.865 25.203 35.083 25.912 35.908L26.562 36.768C27.656 38.224 29.008 40.02 30.312 41.654C31.098 42.64 31.858 43.554 32.524 44.29C33.21 45.05 33.734 45.544 34.058 45.758L37.57 48.086C37.586 48.096 37.601 48.107 37.616 48.118C38.562 48.822 39.384 49.864 39.384 51.438 V56.282 H54.752 V52.41C54.752 51.794 55.026 51.048 55.25 50.602L57.012 47.296C57.538 46.246 57.874 45.046 57.874 43.876 V19.64C57.874 18.648 56.962 17.732 55.948 17.732C54.94 17.732 54.034 18.632 54.02 19.618 V27.32C54.02 27.872 53.572 28.32 53.02 28.32C52.468 28.32 52.02 27.872 52.02 27.32 V15.18C52.02 14.188 51.108 13.272 50.094 13.272C49.086 13.272 48.18 14.172 48.166 15.158 V26.096C48.166 26.648 47.718 27.096 47.166 27.096C46.614 27.096 46.166 26.648 46.166 26.096 V13.628"></path></g></g></g><g id="g-root-ic_soun_mcbxd8do28sk-fill" data-item-order="-2304" transform="translate(507, 386)"><g id="ic_soun_mcbxd8do28sk-fill-merged" stroke="none" fill="#ffffff" fill-opacity="1"><g><path d="M34 10C32.895 10 32 10.895 32 12 V56C32 57.105 32.895 58 34 58C35.105 58 36 57.105 36 56 V12C36 10.895 35.105 10 34 10 M26 14C24.895 14 24 14.895 24 16 V52C24 53.105 24.895 54 26 54C27.105 54 28 53.105 28 52 V16C28 14.895 27.105 14 26 14 M18 22C16.895 22 16 22.895 16 24 V44C16 45.105 16.895 46 18 46C19.105 46 20 45.105 20 44 V24C20 22.895 19.105 22 18 22 M12 30C10.895 30 10 30.895 10 32 V36C10 37.105 10.895 38 12 38C13.105 38 14 37.105 14 36 V32C14 30.895 13.105 30 12 30 M42 14C40.895 14 40 14.895 40 16 V52C40 53.105 40.895 54 42 54C43.105 54 44 53.105 44 52 V16C44 14.895 43.105 14 42 14 M50 22C48.895 22 48 22.895 48 24 V44C48 45.105 48.895 46 50 46C51.105 46 52 45.105 52 44 V24C52 22.895 51.105 22 50 22 M56 30C54.895 30 54 30.895 54 32 V36C54 37.105 54.895 38 56 38C57.105 38 58 37.105 58 36 V32C58 30.895 57.105 30 56 30"></path></g></g></g><g id="g-root-ic_nigh_hrimjwdo0w0a-fill" data-item-order="-2304" transform="translate(218, 386)"><g id="ic_nigh_hrimjwdo0w0a-fill-merged" stroke="none" fill="#ffffff" fill-opacity="1"><g><path d="M31.668 10.75C29.03 10.74 26.496 11.784 24.631 13.65C22.765 15.516 21.722 18.05 21.732 20.688C21.722 23.326 22.766 25.859 24.632 27.724C26.497 29.59 29.03 30.634 31.668 30.624C33.648 30.624 35.504 30 37.094 28.99C37.489 28.742 37.659 28.253 37.505 27.813C37.351 27.373 36.913 27.098 36.45 27.15C34.68 27.339 32.914 26.765 31.593 25.572C30.273 24.379 29.523 22.68 29.532 20.9C29.525 19.232 30.185 17.63 31.365 16.45C32.545 15.271 34.148 14.612 35.816 14.62C36.31 14.62 36.786 14.672 37.236 14.77C37.687 14.868 38.147 14.645 38.348 14.23C38.55 13.815 38.442 13.316 38.086 13.022C36.277 11.539 34.007 10.735 31.668 10.75 M24.248 41.812C24.249 45.161 21.535 47.876 18.186 47.876C14.837 47.876 12.123 45.161 12.124 41.812C12.125 38.465 14.839 35.752 18.186 35.752C21.533 35.752 24.247 38.465 24.248 41.812 M40.174 41.812C40.175 45.161 37.461 47.876 34.112 47.876C30.763 47.876 28.049 45.161 28.05 41.812C28.051 38.465 30.765 35.752 34.112 35.752C37.459 35.752 40.173 38.465 40.174 41.812 M50.038 47.874C53.387 47.875 56.102 45.161 56.102 41.812C56.102 38.463 53.387 35.749 50.038 35.75C46.691 35.751 43.978 38.465 43.978 41.812C43.978 45.159 46.691 47.873 50.038 47.874 M18.186 50.04C13.787 50.037 10.22 53.601 10.22 58 H58C58.001 53.602 54.436 50.037 50.038 50.038C45.64 50.036 42.074 53.6 42.074 57.998C42.074 53.601 38.509 50.037 34.112 50.038C29.713 50.036 26.147 53.601 26.148 58C26.149 53.602 22.584 50.037 18.186 50.038 M44.34 19.21C44.754 18.492 44.508 17.574 43.79 17.16C43.072 16.746 42.154 16.992 41.74 17.71L41.22 18.61L40.42 17.63C40.085 17.204 39.546 16.992 39.011 17.075C38.475 17.159 38.026 17.524 37.836 18.032C37.646 18.539 37.745 19.11 38.094 19.524L39.022 20.664L37.518 21.32C36.759 21.651 36.412 22.536 36.743 23.295C37.074 24.054 37.959 24.401 38.718 24.07L40.168 23.436L40.344 25.006C40.46 25.807 41.19 26.372 41.995 26.283C42.799 26.193 43.388 25.481 43.324 24.674L43.144 23.042L44.592 23.274C45.13 23.379 45.682 23.183 46.032 22.762C46.383 22.341 46.477 21.763 46.276 21.253C46.076 20.743 45.613 20.383 45.07 20.314L43.82 20.112L44.34 19.21"></path></g></g></g><g id="g-root-tx_enhancea_142czosdo6hor-fill" data-item-order="0" transform="translate(590, 354)"><g id="tx_enhancea_142czosdo6hor-fill-merged" stroke="none" fill="#484848" fill-opacity="1"><g><text style="font: 15px Roboto, sans-serif; white-space: pre;" transform="translate(10, 28)" font-size="15px" font-family="Roboto, sans-serif"><tspan x="2" y="0" dominant-baseline="ideographic">Enhance auditory </tspan><tspan x="2" y="18" dominant-baseline="ideographic">experience</tspan></text></g></g></g><g id="g-root-tx_measureb_1448ey4do6gp3-fill" data-item-order="0" transform="translate(50, 354)"><g id="tx_measureb_1448ey4do6gp3-fill-merged" stroke="none" fill="#484848" fill-opacity="1"><g><text style="font: 15px Roboto, sans-serif; white-space: pre;" transform="translate(142, 28)" font-size="15px" font-family="Roboto, sans-serif"><tspan x="-115.42" y="0" dominant-baseline="ideographic">Measure broader </tspan><tspan x="-126.79" y="18" dominant-baseline="ideographic">community impact</tspan></text></g></g></g><g id="g-root-tx_integrat_1hby2ssdo6h3j-fill" data-item-order="0" transform="translate(297, 374)"><g id="tx_integrat_1hby2ssdo6h3j-fill-merged" stroke="none" fill="#484848" fill-opacity="1"><g><text style="font: bold 20px Roboto, sans-serif; white-space: pre;" transform="translate(100, 34)" font-weight="bold" font-size="20px" font-family="Roboto, sans-serif"><tspan x="-82.37" y="-0" dominant-baseline="ideographic">Integrate Sensory </tspan><tspan x="-44.35" y="24" dominant-baseline="ideographic">Elements</tspan></text></g></g></g><g id="g-root-tx_addsound_1hdti24do6g3u-fill" data-item-order="0" transform="translate(590, 294)"><g id="tx_addsound_1hdti24do6g3u-fill-merged" stroke="none" fill="#484848" fill-opacity="1"><g><text style="font: bold 20px Roboto, sans-serif; white-space: pre;" transform="translate(10, 34)" font-weight="bold" font-size="20px" font-family="Roboto, sans-serif"><tspan x="2" y="-0" dominant-baseline="ideographic">Add Sound </tspan><tspan x="2" y="24" dominant-baseline="ideographic">Elements</tspan></text></g></g></g><g id="g-root-tx_expandto_1luvycsdo6hhq-fill" data-item-order="0" transform="translate(50, 294)"><g id="tx_expandto_1luvycsdo6hhq-fill-merged" stroke="none" fill="#484848" fill-opacity="1"><g><text style="font: bold 20px Roboto, sans-serif; white-space: pre;" transform="translate(142, 34)" font-weight="bold" font-size="20px" font-family="Roboto, sans-serif"><tspan x="-90.63" y="-0" dominant-baseline="ideographic">Expand to </tspan><tspan x="-129.08" y="24" dominant-baseline="ideographic">Public Spaces</tspan></text></g></g></g><g id="g-root-tx_enhancet_58er0do6g3x-fill" data-item-order="0" transform="translate(326, 158)"><g id="tx_enhancet_58er0do6g3x-fill-merged" stroke="none" fill="#484848" fill-opacity="1"><g><text style="font: 15px Roboto, sans-serif; white-space: pre;" transform="translate(70, 28)" font-size="15px" font-family="Roboto, sans-serif"><tspan x="-52.92" y="0" dominant-baseline="ideographic">Enhance tactile </tspan><tspan x="-38.14" y="18" dominant-baseline="ideographic">experience</tspan></text></g></g></g><g id="g-root-tx_addhapti_mbpga4do6gw4-fill" data-item-order="0" transform="translate(332, 98)"><g id="tx_addhapti_mbpga4do6gw4-fill-merged" stroke="none" fill="#484848" fill-opacity="1"><g><text style="font: bold 20px Roboto, sans-serif; white-space: pre;" transform="translate(64, 34)" font-weight="bold" font-size="20px" font-family="Roboto, sans-serif"><tspan x="-52.23" y="-0" dominant-baseline="ideographic">Add Haptic </tspan><tspan x="-44.35" y="24" dominant-baseline="ideographic">Elements</tspan></text></g></g></g><g id="g-root-tx_enhancin_mg2rvwdny13b-fill" data-item-order="0" transform="translate(206, 38)"><g id="tx_enhancin_mg2rvwdny13b-fill-merged" stroke="none" fill="#484848" fill-opacity="1"><g><text style="font: bold 25px Roboto, sans-serif; white-space: pre;" transform="translate(190, 28)" font-weight="bold" font-size="25px" font-family="Roboto, sans-serif"><tspan x="-176.34" y="15" dominant-baseline="ideographic">Next Steps for ICEY Installation</tspan></text></g></g></g><g id="g-root-tx_limitede_v5h19odo6h34-fill" data-item-order="0" transform="translate(207, 602)"><g id="tx_limitede_v5h19odo6h34-fill-merged" stroke="none" fill="#484848" fill-opacity="1"><g><text style="font: bold 20px Roboto, sans-serif; white-space: pre;" transform="translate(64, 46)" font-weight="bold" font-size="20px" font-family="Roboto, sans-serif"><tspan x="-33.99" y="-12" dominant-baseline="ideographic">Limited </tspan><tspan x="-45.43" y="12" dominant-baseline="ideographic">Emotional </tspan><tspan x="-49.98" y="36" dominant-baseline="ideographic">Resonance</tspan></text></g></g></g><g id="g-root-tx_enhanced_mdkvjgdo6fwg-fill" data-item-order="0" transform="translate(512, 602)"><g id="tx_enhanced_mdkvjgdo6fwg-fill-merged" stroke="none" fill="#484848" fill-opacity="1"><g><text style="font: bold 20px Roboto, sans-serif; white-space: pre;" transform="translate(64, 46)" font-weight="bold" font-size="20px" font-family="Roboto, sans-serif"><tspan x="-44.24" y="-12" dominant-baseline="ideographic">Enhanced </tspan><tspan x="-45.43" y="12" dominant-baseline="ideographic">Emotional </tspan><tspan x="-49.98" y="36" dominant-baseline="ideographic">Resonance</tspan></text></g></g></g><g id="g-root-tx_lacksmul_4j6hm4do6h35-fill" data-item-order="0" transform="translate(189, 686)"><g id="tx_lacksmul_4j6hm4do6h35-fill-merged" stroke="none" fill="#484848" fill-opacity="1"><g><text style="font: 15px Roboto, sans-serif; white-space: pre;" transform="translate(82, 28)" font-size="15px" font-family="Roboto, sans-serif"><tspan x="-68.92" y="0" dominant-baseline="ideographic">Lacks multi-sensory, </tspan><tspan x="-46.14" y="18" dominant-baseline="ideographic">public impact</tspan></text></g></g></g><g id="g-root-tx_multisen_924d64do6hhd-fill" data-item-order="0" transform="translate(494, 686)"><g id="tx_multisen_924d64do6hhd-fill-merged" stroke="none" fill="#484848" fill-opacity="1"><g><text style="font: 15px Roboto, sans-serif; white-space: pre;" transform="translate(82, 28)" font-size="15px" font-family="Roboto, sans-serif"><tspan x="-68.68" y="0" dominant-baseline="ideographic">Multi-sensory, broad </tspan><tspan x="-46.38" y="18" dominant-baseline="ideographic">public impact</tspan></text></g></g></g><g id="g-root-cp_resolution_g-resolution_146qbakdny1vu-stroke" data-item-order="-508886" transform="translate(386, 494)"></g><g id="g-root-cp_3_g-3_146qbakdny1vv-stroke" data-item-order="-508880" transform="translate(206, 308)"><g id="cp_3_g-3_146qbakdny1vv-stroke" fill="none" stroke-linecap="round" stroke-linejoin="round" stroke-miterlimit="4" stroke="#ffffff" stroke-width="1" stroke-opacity="1"><g><path d="M 45.9999 208C 41.6952 202.2604 37.7246 196.2513 34.1154 190C 18.3171 162.6366 10 131.5966 10 100C 10 68.4034 18.3171 37.3635 34.1154 10M 96.392 45.9554C 86.9051 62.387 81.9107 81.0264 81.9107 100C 81.9107 118.9737 86.9051 137.613 96.3919 154.0447C 105.8787 170.4763 119.5237 184.1213 135.9554 193.6081C 151.1171 202.3617 168.1584 207.2905 185.6077 208"></path></g></g></g><g id="g-root-cp_2_g-2_zqwt64dny2o4-stroke" data-item-order="-508874" transform="translate(230.08602905273438, 218)"><g id="cp_2_g-2_zqwt64dny2o4-stroke" fill="none" stroke-linecap="round" stroke-linejoin="round" stroke-miterlimit="4" stroke="#ffffff" stroke-width="1" stroke-opacity="1"><g><path d="M 321.769069 99.9491C 305.961869 72.5908 283.231569 49.8754 255.862969 34.086C 228.494369 18.2967 197.451769 9.9897 165.855069 10C 134.258569 10.0103 103.221269 18.3376 75.862969 34.1449C 48.504669 49.9521 25.789369 72.6823 9.999969 100.051L 72.288269 135.986C 81.769669 119.5512 95.410169 105.9018 111.838769 96.4096C 128.267269 86.9174 146.904969 81.9169 165.878669 81.9107C 184.852269 81.9045 203.493269 86.8928 219.927969 96.3743C 236.362769 105.8557 250.012169 119.4962 259.504369 135.9248"></path></g></g></g><g id="g-root-cp_1_g-1_zqwt64dny2o5-stroke" data-item-order="-508868" transform="translate(385.7889404296875, 308.18310546875)"><g id="cp_1_g-1_zqwt64dny2o5-stroke" fill="none" stroke-linecap="round" stroke-linejoin="round" stroke-miterlimit="4" stroke="#ffffff" stroke-width="1" stroke-opacity="1"><g><path d="M 10 279.8168C 41.5966 279.8539 72.6463 271.5733 100.0283 255.8071C 127.4103 240.0409 150.1598 217.3448 165.9902 189.9999C 181.8206 162.655 190.1742 131.6249 190.2113 100.0283C 190.2483 68.4317 181.9677 37.382 166.2015 10L 103.8828 45.8822C 113.3503 62.325 118.3229 80.9702 118.3006 99.9439C 118.2783 118.9175 113.262 137.551 103.7559 153.9715C 94.2498 170.392 80.5889 184.0209 64.1461 193.4884C 47.7033 202.9559 29.0581 207.9284 10.0844 207.9062"></path></g></g></g><g id="g-root-cp_problem_g-problem_qvwa0cdny0b2-stroke" data-item-order="-508862" transform="translate(133, 506)"><g id="cp_problem_g-problem_qvwa0cdny0b2-stroke" fill="none" stroke-linecap="round" stroke-linejoin="round" stroke-miterlimit="4" stroke="#ffffff" stroke-width="1" stroke-opacity="1"><g><path d="M 10 10L 263 10L 263 82L 10 82L 10 10Z"></path></g></g></g><g id="g-root-ic_hear_94m9ikdny2o8-stroke" data-item-order="-2304" transform="translate(543, 518)"></g><g id="g-root-ic_mood_1q6c4vgdo3nd4-stroke" data-item-order="-2304" transform="translate(238, 518)"></g><g id="g-root-ic_poin_1cwr1rgdo29s9-stroke" data-item-order="-2304" transform="translate(362, 230)"></g><g id="g-root-ic_soun_mcbxd8do28sk-stroke" data-item-order="-2304" transform="translate(507, 386)"></g><g id="g-root-ic_nigh_hrimjwdo0w0a-stroke" data-item-order="-2304" transform="translate(218, 386)"></g><g id="g-root-tx_enhancea_142czosdo6hor-stroke" data-item-order="0" transform="translate(590, 354)"></g><g id="g-root-tx_measureb_1448ey4do6gp3-stroke" data-item-order="0" transform="translate(50, 354)"></g><g id="g-root-tx_integrat_1hby2ssdo6h3j-stroke" data-item-order="0" transform="translate(297, 374)"></g><g id="g-root-tx_addsound_1hdti24do6g3u-stroke" data-item-order="0" transform="translate(590, 294)"></g><g id="g-root-tx_expandto_1luvycsdo6hhq-stroke" data-item-order="0" transform="translate(50, 294)"></g><g id="g-root-tx_enhancet_58er0do6g3x-stroke" data-item-order="0" transform="translate(326, 158)"></g><g id="g-root-tx_addhapti_mbpga4do6gw4-stroke" data-item-order="0" transform="translate(332, 98)"></g><g id="g-root-tx_enhancin_mg2rvwdny13b-stroke" data-item-order="0" transform="translate(206, 38)"></g><g id="g-root-tx_limitede_v5h19odo6h34-stroke" data-item-order="0" transform="translate(207, 602)"></g><g id="g-root-tx_enhanced_mdkvjgdo6fwg-stroke" data-item-order="0" transform="translate(512, 602)"></g><g id="g-root-tx_lacksmul_4j6hm4do6h35-stroke" data-item-order="0" transform="translate(189, 686)"></g><g id="g-root-tx_multisen_924d64do6hhd-stroke" data-item-order="0" transform="translate(494, 686)"></g></g></g></svg>