<?xml version="1.0" encoding="utf-8" standalone="yes"?>
<!DOCTYPE svg PUBLIC "-//W3C//DTD SVG 1.1//EN" "http://www.w3.org/Graphics/SVG/1.1/DTD/svg11.dtd">
<svg style="fill:none;stroke:none;fill-rule:evenodd;clip-rule:evenodd;stroke-linecap:round;stroke-linejoin:round;stroke-miterlimit:1.5;" version="1.1" xmlns="http://www.w3.org/2000/svg" xmlns:xlink="http://www.w3.org/1999/xlink" width="1080" height="744" viewBox="0 0 1080 744"><style class="text-font-style fontImports" data-font-family="Roboto">@import url(https://fonts.googleapis.com/css2?family=Roboto:wght@400;700&amp;amp;display=block);</style><g id="items" style="isolation: isolate"><g id="blend" style="mix-blend-mode: normal"><g id="g-root-cp_-1_row-top_1unf78vhk6ex8-fill" data-item-order="-668726" transform="translate(74, 122)"><g id="cp_-1_row-top_1unf78vhk6ex8-fill-merged" stroke="none" fill="#4f92ff" fill-opacity="1"><g><path d="M502 190L460 172L466 154L442 130L457.429 118L496 88L481.957 27.133L534.6 65.114C541.356 77.002 559 106 559 106L577.162 118L587 124.5L602.884 165.536C602.884 165.536 613.3 182.244 618.271 190 H632.372L614.086 161.233L598 118L566.5 96.5L543.742 56.912L478.719 10L455.764 45.635L424.679 63.546L404.889 106L398.984 118L377.714 161.233L330.283 179.6L324.32 190L317.438 214 H639.997L632.37 190 H618.271 M365.55 118 H10 V190 H283.606C284.389 189.274 285.217 188.585 286.088 187.937L294.519 181.662L304.258 164.678C307.677 158.715 313.04 154.107 319.45 151.624L355.964 137.485L365.55 118 M668.285 190L640.982 147.591L629.614 118 H922 V190 H668.285"></path></g></g></g><g id="g-root-cp_0_g-0_1cwrnu7hk6e4l-fill" data-item-order="-668699" transform="translate(50, 326)"></g><g id="g-root-cp_1_row-1_qqamb3hk6dce-fill" data-item-order="-668694" transform="translate(74, 326)"><g id="cp_1_row-1_qqamb3hk6dce-fill-merged" stroke="none" fill="#4f82d5" fill-opacity="1"><g><path d="M303.898 34L317.22 10 H639.999L647.825 34L665.92 66.371L626.866 118L615.898 130 H333.279L329.082 118L303.899 34 M274.065 34 H10 V118 H296.195L275.429 42.344C274.674 39.593 274.224 36.793 274.065 34 M666.971 118L688.456 89.473C697.3 77.73 698.398 60.569 691.144 47.425L683.736 34 H922 V118 H666.971"></path></g></g></g><g id="g-root-cp_2_row-2_deu3xrhk6exb-fill" data-item-order="-668662" transform="translate(74, 445.999755859375)"><g id="cp_2_row-2_deu3xrhk6exb-fill-merged" stroke="none" fill="#4e8ff7" fill-opacity="1"><g><path d="M577.354 94L572.863 106.001 H360.061L357.91 94L351.808 59.946L337.687 22L333.223 10 H616.107L605.501 22L585.243 72.919L577.355 94 M305.734 22 H10 V94 H327.413L322.747 67.862L305.734 22 M609.386 94L613.34 83.433C613.375 83.34 613.409 83.247 613.443 83.154L627.76 43.707L638.878 29.326L645.573 22 H922 V94 H609.386"></path></g></g></g><g id="g-root-cp_3_row-3_1upami7hk6dxk-fill" data-item-order="-668632" transform="translate(74, 542)"><g id="cp_3_row-3_1upami7hk6dxk-fill-merged" stroke="none" fill="#95bdff" fill-opacity="1"><g><path d="M573.119 10L571.344 22.12L362.002 22L360.031 10 H573.119 M331.449 22 H10 V94 H397.508L343.538 47.231C337.428 42.467 333.399 35.524 332.293 27.856L331.449 22 M526.312 94L588.434 46.776C595.434 41.923 600.042 34.322 601.107 25.871L601.595 22 H922 V94 H526.312 M489.046 94L467.679 118L440.582 94L362 22L571.342 22.12L500.12 79.813L489.046 94"></path></g></g><g id="cp_3_row-3_1upami7hk6dxk-fill-merged" stroke="none" fill="#95bdff" fill-opacity="1"><g><path d="M331.449 22 H10 V94 H397.508L343.538 47.231C337.428 42.467 333.399 35.524 332.293 27.856L331.449 22 M526.312 94L588.434 46.776C595.434 41.923 600.042 34.322 601.107 25.871L601.595 22 H922 V94 H526.312 M362 22L440.582 94 M571.342 22.12L500.12 79.813L489.046 94"></path></g></g></g><g id="g-root-ic_open_18lxyenhk6ebo-fill" data-item-order="-2304" transform="translate(86, 242)"><g id="ic_open_18lxyenhk6ebo-fill-merged" stroke="none" fill="#ffffff" fill-opacity="1"><g><path d="M58 29.54C57.989 29.368 57.948 29.199 57.88 29.04L57.78 28.86C57.655 28.662 57.483 28.497 57.28 28.38L50.5 24.48 V16.68C50.493 16.443 50.431 16.21 50.32 16L50.2 15.84C50.096 15.699 49.975 15.571 49.84 15.46L42.24 11.06C41.787 10.778 41.213 10.778 40.76 11.06L34 14.94L27.24 11.06C26.787 10.778 26.213 10.778 25.76 11.06L18.24 15.38C18.105 15.491 17.984 15.619 17.88 15.76L17.68 16C17.569 16.21 17.507 16.443 17.5 16.68 V24.48L10.76 28.38C10.557 28.497 10.385 28.662 10.26 28.86 V29.04C10.143 29.189 10.055 29.359 10 29.54C10 29.54 10 29.54 10 29.66 V38.34C10 38.873 10.292 39.364 10.76 39.62L17.5 43.62 V51.42C17.493 51.955 17.776 52.452 18.24 52.72L25.76 57.04C25.925 57.114 26.1 57.162 26.28 57.18 H26.4C26.641 57.176 26.875 57.106 27.08 56.98L34 53.06L40.76 56.94C40.981 57.081 41.238 57.157 41.5 57.16C41.736 57.141 41.966 57.08 42.18 56.98L49.7 52.66C50.164 52.392 50.447 51.895 50.44 51.36 V43.56L57.18 39.56C57.648 39.304 57.94 38.813 57.94 38.28 V29.66C57.94 29.66 58 29.6 58 29.54 M26.5 45.26L20.5 41.8 V34.86L25 32.26 V38.26C25 38.793 25.292 39.284 25.76 39.54L31 42.58L26.5 45.26 M28 21.88L34 18.42L40 21.88 V27.08L34.76 24C34.287 23.74 33.713 23.74 33.24 24L28 27.08 V21.88 M42.24 39.62C42.708 39.364 43 38.873 43 38.34 V32.34L47.5 34.94 V41.8L41.5 45.26L37 42.66L42.24 39.62 M53.5 29.62L49 32.22L43 28.76 V21.88L47.5 19.28 V25.28C47.493 25.815 47.776 26.312 48.24 26.58L53.5 29.62 M19.76 26.64C20.224 26.372 20.507 25.875 20.5 25.34 V19.34L25 21.88 V28.8L19 32.26L14.5 29.66L19.76 26.64 M33.24 50L28 53.06 V47.86L34 44.4L40 47.86 V53.06L34.76 50C34.287 49.74 33.713 49.74 33.24 50"></path></g></g></g><g id="g-root-ic_1_13z98bzhkamfj-fill" data-item-order="-2304" transform="translate(506, 368)"><g id="ic_1_13z98bzhkamfj-fill-merged" stroke="none" fill="#ffffff" fill-opacity="1"><g><path d="M34 10C20.745 10 10 20.745 10 34C10 47.255 20.745 58 34 58C47.255 58 58 47.255 58 34C58 20.745 47.255 10 34 10 M34 54C22.954 54 14 45.046 14 34C14 22.954 22.954 14 34 14C45.046 14 54 22.954 54 34C54 45.046 45.046 54 34 54 M46 33.28C43.364 34.471 40.303 34.24 37.876 32.666C35.449 31.093 33.988 28.393 34 25.5C33.999 24.329 34.244 23.17 34.72 22.1C34.829 21.857 34.807 21.576 34.661 21.353C34.516 21.13 34.266 20.997 34 21C26.82 21 21 26.82 21 34C21 41.18 26.82 47 34 47C41.18 47 47 41.18 47 34C47.011 33.735 46.883 33.484 46.662 33.337C46.442 33.19 46.16 33.168 45.92 33.28 H46"></path></g></g></g><g id="g-root-ic_boar_1hdu44vhkam12-fill" data-item-order="-2304" transform="translate(506, 470)"><g id="ic_boar_1hdu44vhkam12-fill-merged" stroke="none" fill="#ffffff" fill-opacity="1"><g><path d="M55 49.5 V47.2 H56.5C57.328 47.2 58 46.528 58 45.7 V37.7C58 36.872 57.328 36.2 56.5 36.2 H55 V33.2 H56.5C57.328 33.2 58 32.528 58 31.7 V23.7C58 22.872 57.328 22.2 56.5 22.2 H55 V15.5C54.993 12.465 52.535 10.007 49.5 10 H18.5C15.465 10.007 13.007 12.465 13 15.5 V22.2 H21.5C22.328 22.2 23 22.872 23 23.7 V44.7C23 45.528 22.328 46.2 21.5 46.2 H13 V49.5C13.007 52.535 15.465 54.993 18.5 55 H24.6 V56.5C24.6 57.328 25.272 58 26.1 58C26.928 58 27.6 57.328 27.6 56.5 V55 H31 V56.5C31 57.328 31.672 58 32.5 58C33.328 58 34 57.328 34 56.5 V55 H37.4 V56.5C37.4 57.328 38.072 58 38.9 58C39.728 58 40.4 57.328 40.4 56.5 V55 H49.5C52.535 54.993 54.993 52.535 55 49.5 M55 30.2 V25.2 H50 V30.2 H55 M13 33 V30 H11.5C10.672 30 10 29.328 10 28.5C10 27.672 10.672 27 11.5 27 H13 V25.2 H20 V43.2 H13 V42 H11.5C10.672 42 10 41.328 10 40.5C10 39.672 10.672 39 11.5 39 H13 V36 H11.5C10.672 36 10 35.328 10 34.5C10 33.672 10.672 33 11.5 33 H13 M29.5 29.2C29.224 29.2 29 29.424 29 29.7 V38.5C29 38.776 29.224 39 29.5 39 H39.5C39.776 39 40 38.776 40 38.5 V32.5C40 32.361 39.942 32.228 39.84 32.134L36.84 29.334C36.748 29.248 36.626 29.2 36.5 29.2 H29.5 M23 17.85C23 19.093 24.007 20.1 25.25 20.1C26.493 20.1 27.5 19.093 27.5 17.85C27.5 16.607 26.493 15.6 25.25 15.6C24.007 15.6 23 16.607 23 17.85 M31.85 17.85C31.85 19.093 32.857 20.1 34.1 20.1C35.343 20.1 36.35 19.093 36.35 17.85C36.35 16.607 35.343 15.6 34.1 15.6C32.857 15.6 31.85 16.607 31.85 17.85 M40.7 17.85C40.7 19.093 41.707 20.1 42.95 20.1C44.193 20.1 45.2 19.093 45.2 17.85C45.2 16.607 44.193 15.6 42.95 15.6C41.707 15.6 40.7 16.607 40.7 17.85 M50 39.2 V44.2 H55 V39.2 H50"></path></g></g></g><g id="g-root-ic_exte_vccvanhkalfl-fill" data-item-order="-2304" transform="translate(506, 566)"><g id="ic_exte_vccvanhkalfl-fill-merged" stroke="none" fill="#ffffff" fill-opacity="1"><g><path d="M42 35.08C41.46 31.832 41.791 28.498 42.96 25.42C43.056 25.156 43.116 24.88 43.14 24.6C39.741 26.631 36.902 29.476 34.88 32.88C34.7 33.184 34.373 33.37 34.02 33.37C33.667 33.37 33.34 33.184 33.16 32.88C31.166 29.572 28.329 26.853 24.94 25C26.187 28.219 26.552 31.712 26 35.12C28.892 38.28 30.675 42.296 31.08 46.56 H36.86C37.271 42.274 39.077 38.241 42 35.08 M21.62 39.42C22.612 37.165 23.168 34.742 23.26 32.28C23.296 30.322 22.964 28.375 22.28 26.54C21.286 24.12 22.12 21.335 24.28 19.86C30.187 16.232 37.633 16.232 43.54 19.86C45.743 21.301 46.623 24.097 45.64 26.54C44.948 28.373 44.615 30.321 44.66 32.28C44.75 34.742 45.306 37.165 46.3 39.42C47.223 36.507 49.924 34.525 52.98 34.52 V22.52C52.98 10.52 39.14 10.52 33.92 10.52C28.7 10.52 14.84 10.52 14.84 22.52 V34.52C17.931 34.488 20.681 36.475 21.62 39.42 M53.08 37.52C50.871 37.52 49.08 39.311 49.08 41.52C49.083 42.334 48.961 43.143 48.72 43.92C48.384 44.971 47.839 45.943 47.12 46.78C45.656 48.482 43.544 49.491 41.3 49.56 H26.66C24.427 49.475 22.331 48.46 20.88 46.76C20.177 45.953 19.641 45.015 19.3 44C19.056 43.23 18.934 42.427 18.94 41.62C18.94 39.411 17.149 37.62 14.94 37.62C12.731 37.62 10.94 39.411 10.94 41.62C10.94 48.02 12.94 54.9 18.78 57.32C20.1 57.84 17.5 57.68 48.08 57.68C49.337 57.382 50.512 56.808 51.52 56C55.82 52.74 57.08 46.98 57.08 41.62C57.107 40.542 56.697 39.499 55.944 38.727C55.191 37.955 54.158 37.52 53.08 37.52"></path></g></g></g><g id="g-root-tx_unveilin_1hdu44vhk6fih-fill" data-item-order="0" transform="translate(356, 38)"><g id="tx_unveilin_1hdu44vhk6fih-fill-merged" stroke="none" fill="#484848" fill-opacity="1"><g><text style="font: bold 25px Roboto, sans-serif; white-space: pre;" transform="translate(184, 28)" font-weight="bold" font-size="25px" font-family="Roboto, sans-serif"><tspan x="-171.46" y="15" dominant-baseline="ideographic">Unveiling the Design Solutions</tspan></text></g></g></g><g id="g-root-tx_parametr_1lvj1inhk6dqi-fill" data-item-order="0" transform="translate(146, 254)"><g id="tx_parametr_1lvj1inhk6dqi-fill-merged" stroke="none" fill="#ffffff" fill-opacity="1"><g><text style="font: bold 20px Roboto, sans-serif; white-space: pre;" transform="translate(10, 22)" font-weight="bold" font-size="20px" font-family="Roboto, sans-serif"><tspan x="2" y="12" dominant-baseline="ideographic">Parametric Shell</tspan></text></g></g></g><g id="g-root-tx_lightsca_dhyhdbhk6g3n-fill" data-item-order="0" transform="translate(806, 248)"><g id="tx_lightsca_dhyhdbhk6g3n-fill-merged" stroke="none" fill="#ffffff" fill-opacity="1"><g><text style="font: 15px Roboto, sans-serif; white-space: pre;" transform="translate(178, 28)" font-size="15px" font-family="Roboto, sans-serif"><tspan x="-161.33" y="0" dominant-baseline="ideographic">Light scattering through </tspan><tspan x="-134.32" y="18" dominant-baseline="ideographic">modulated porosity.</tspan></text></g></g></g><g id="g-root-tx_lighting_4g2q9bhkalty-fill" data-item-order="0" transform="translate(86, 380)"><g id="tx_lighting_4g2q9bhkalty-fill-merged" stroke="none" fill="#ffffff" fill-opacity="1"><g><text style="font: bold 20px Roboto, sans-serif; white-space: pre;" transform="translate(10, 22)" font-weight="bold" font-size="20px" font-family="Roboto, sans-serif"><tspan x="2" y="12" dominant-baseline="ideographic">Lighting Logic</tspan></text></g></g></g><g id="g-root-tx_choreogr_hss6svhkamf5-fill" data-item-order="0" transform="translate(830, 362)"><g id="tx_choreogr_hss6svhkamf5-fill-merged" stroke="none" fill="#ffffff" fill-opacity="1"><g><text style="font: 15px Roboto, sans-serif; white-space: pre;" transform="translate(154, 40)" font-size="15px" font-family="Roboto, sans-serif"><tspan x="-104.51" y="-9" dominant-baseline="ideographic">Choreographed </tspan><tspan x="-141.55" y="9" dominant-baseline="ideographic">dimming and pulsing </tspan><tspan x="-52.63" y="27" dominant-baseline="ideographic">effects.</tspan></text></g></g></g><g id="g-root-tx_assembly_8z0ltbhkam84-fill" data-item-order="0" transform="translate(86, 470)"><g id="tx_assembly_8z0ltbhkam84-fill-merged" stroke="none" fill="#ffffff" fill-opacity="1"><g><text style="font: bold 20px Roboto, sans-serif; white-space: pre;" transform="translate(10, 34)" font-weight="bold" font-size="20px" font-family="Roboto, sans-serif"><tspan x="2" y="-0" dominant-baseline="ideographic">Assembly &amp; </tspan><tspan x="2" y="24" dominant-baseline="ideographic">Serviceability</tspan></text></g></g></g><g id="g-root-tx_segmenta_74g33hkal1g-fill" data-item-order="0" transform="translate(806, 476)"><g id="tx_segmenta_74g33hkal1g-fill-merged" stroke="none" fill="#ffffff" fill-opacity="1"><g><text style="font: 15px Roboto, sans-serif; white-space: pre;" transform="translate(178, 28)" font-size="15px" font-family="Roboto, sans-serif"><tspan x="-156.3" y="0" dominant-baseline="ideographic">Segmentable LEDs and </tspan><tspan x="-165.18" y="18" dominant-baseline="ideographic">concealed cable routing.</tspan></text></g></g></g><g id="g-root-tx_humancen_1hitwtrhkalfz-fill" data-item-order="0" transform="translate(86, 566)"><g id="tx_humancen_1hitwtrhkalfz-fill-merged" stroke="none" fill="#ffffff" fill-opacity="1"><g><text style="font: bold 20px Roboto, sans-serif; white-space: pre;" transform="translate(10, 34)" font-weight="bold" font-size="20px" font-family="Roboto, sans-serif"><tspan x="2" y="-0" dominant-baseline="ideographic">Human-Centered </tspan><tspan x="2" y="24" dominant-baseline="ideographic">Touchpoints</tspan></text></g></g></g><g id="g-root-tx_safeprox_8x56jzhkc1du-fill" data-item-order="0" transform="translate(830, 572)"><g id="tx_safeprox_8x56jzhkc1du-fill-merged" stroke="none" fill="#ffffff" fill-opacity="1"><g><text style="font: 15px Roboto, sans-serif; white-space: pre;" transform="translate(154, 28)" font-size="15px" font-family="Roboto, sans-serif"><tspan x="-142.34" y="0" dominant-baseline="ideographic">Ambience and subtle </tspan><tspan x="-87.11" y="18" dominant-baseline="ideographic">startup flare.</tspan></text></g></g></g><g id="g-root-cp_-1_row-top_1unf78vhk6ex8-stroke" data-item-order="-668726" transform="translate(74, 122)"><g id="cp_-1_row-top_1unf78vhk6ex8-stroke" fill="none" stroke-linecap="round" stroke-linejoin="round" stroke-miterlimit="4" stroke="#ffffff" stroke-width="1" stroke-opacity="1"><g><path d="M 597.999775 118L 566.499775 96.5L 543.741875 56.9121L 478.719375 10L 455.764375 45.6352L 424.678875 63.5456L 404.889375 106L 404.888275 106L 398.984375 118M 457.428275 118L 495.999775 88L 481.957075 27.1328L 534.600275 65.1136C 541.355575 77.0021 558.999775 106 558.999775 106L 577.161875 118M 365.5504 118L 10 118L 10 190L 283.6058 190C 284.3893 189.2743 285.2171 188.5854 286.088 187.9371L 294.5194 181.6618L 304.2577 164.6777C 307.6768 158.7147 313.0399 154.1066 319.4499 151.6244L 355.9641 137.4848L 365.5504 118ZM 668.2852 190L 640.9822 147.5906L 629.6135 118L 922 118L 922 190L 668.2852 190ZM 598 118L 614.0857 161.2329L 632.3716 190M 324.32 190L 330.2831 179.6L 377.7144 161.2329L 398.9846 118M 457.4286 118L 442 130L 466 154L 460 172L 502 190L 618.2715 190C 613.3 182.2438 602.884 165.5363 602.884 165.5363L 587 124.5L 577.1622 118M 501.998 190L 618.2696 190M 324.3181 190L 317.4375 214L 639.9975 214L 632.3696 190"></path></g></g></g><g id="g-root-cp_0_g-0_1cwrnu7hk6e4l-stroke" data-item-order="-668699" transform="translate(50, 326)"><g id="cp_0_g-0_1cwrnu7hk6e4l-stroke" fill="none" stroke-linecap="round" stroke-linejoin="round" stroke-miterlimit="4" stroke="#484848" stroke-width="1" stroke-dasharray="2.5, 3.5" stroke-opacity="1"><g><path d="M 342 10L 10 10M 970 10L 664 10"></path></g></g></g><g id="g-root-cp_1_row-1_qqamb3hk6dce-stroke" data-item-order="-668694" transform="translate(74, 326)"><g id="cp_1_row-1_qqamb3hk6dce-stroke" fill="none" stroke-linecap="round" stroke-linejoin="round" stroke-miterlimit="4" stroke="#ffffff" stroke-width="1" stroke-opacity="1"><g><path d="M 626.865231 118L 615.897931 130.0002L 333.279331 130.0002L 329.082031 118M 303.898438 34L 317.219638 10L 639.999338 10L 647.824938 34M 274.064499 34L 10 34L 10 118L 296.195496 118L 275.429092 42.34435C 274.673996 39.593117 274.224396 36.79265 274.064499 34ZM 666.97113 118L 688.456116 89.473133C 697.300415 77.730049 698.397583 60.5685 691.14447 47.424717L 683.736389 34L 922 34L 922 118L 666.97113 118ZM 303.899109 34.000234L 329.082703 118M 647.825623 34.000234L 665.919983 66.3708L 626.865784 118"></path></g></g></g><g id="g-root-cp_2_row-2_deu3xrhk6exb-stroke" data-item-order="-668662" transform="translate(74, 445.999755859375)"><g id="cp_2_row-2_deu3xrhk6exb-stroke" fill="none" stroke-linecap="round" stroke-linejoin="round" stroke-miterlimit="4" stroke="#ffffff" stroke-width="1" stroke-opacity="1"><g><path d="M 605.500856 21.999944L 616.106856 10.000244L 333.222656 10.000244L 337.688156 21.999944M 305.7337 22.000244L 10 22.000244L 10 94.000244L 327.4129 94.000244L 322.7471 67.861844L 305.7337 22.000244ZM 609.386 94.000244L 613.3403 83.433044C 613.3751 83.340144 613.4094 83.247144 613.4432 83.153844L 627.7603 43.707044L 638.8775 29.326344L 645.5731 22.000244L 922 22.000244L 922 94.000244L 609.386 94.000244ZM 605.5 22.000244L 585.2432 72.919444L 577.3546 94.000244M 337.6873 22.000244L 351.8083 59.946444L 357.9107 94.000244M 357.910156 94.000244L 360.060556 106.000544L 572.863456 106.000544L 577.354056 94.000244"></path></g></g></g><g id="g-root-cp_3_row-3_1upami7hk6dxk-stroke" data-item-order="-668632" transform="translate(74, 542)"><g id="cp_3_row-3_1upami7hk6dxk-stroke" fill="none" stroke-linecap="round" stroke-linejoin="round" stroke-miterlimit="4" stroke="#ffffff" stroke-width="1" stroke-opacity="1"><g><path d="M 362.00195 22L 360.03125 10L 573.11905 10L 571.34425 22.1203"></path></g></g><g id="cp_3_row-3_1upami7hk6dxk-stroke" fill="none" stroke-linecap="round" stroke-linejoin="round" stroke-miterlimit="4" stroke="#ffffff" stroke-width="1" stroke-opacity="1"><g><path d="M 331.4492 22L 10 22L 10 94L 397.5078 94L 343.5375 47.2315C 337.4283 42.4672 333.3991 35.5241 332.2935 27.856L 331.4492 22ZM 526.3123 94L 588.4341 46.7755C 595.4344 41.9225 600.0419 34.3225 601.1069 25.8713L 601.5947 22L 922 22L 922 94L 526.3123 94ZM 362 22L 440.5818 94M 571.3423 22.1203L 500.1201 79.813L 489.0458 94M 440.582031 94L 467.679031 118L 489.046131 94"></path></g></g></g><g id="g-root-ic_open_18lxyenhk6ebo-stroke" data-item-order="-2304" transform="translate(86, 242)"></g><g id="g-root-ic_1_13z98bzhkamfj-stroke" data-item-order="-2304" transform="translate(506, 368)"></g><g id="g-root-ic_boar_1hdu44vhkam12-stroke" data-item-order="-2304" transform="translate(506, 470)"></g><g id="g-root-ic_exte_vccvanhkalfl-stroke" data-item-order="-2304" transform="translate(506, 566)"></g><g id="g-root-tx_unveilin_1hdu44vhk6fih-stroke" data-item-order="0" transform="translate(356, 38)"></g><g id="g-root-tx_parametr_1lvj1inhk6dqi-stroke" data-item-order="0" transform="translate(146, 254)"></g><g id="g-root-tx_lightsca_dhyhdbhk6g3n-stroke" data-item-order="0" transform="translate(806, 248)"></g><g id="g-root-tx_lighting_4g2q9bhkalty-stroke" data-item-order="0" transform="translate(86, 380)"></g><g id="g-root-tx_choreogr_hss6svhkamf5-stroke" data-item-order="0" transform="translate(830, 362)"></g><g id="g-root-tx_assembly_8z0ltbhkam84-stroke" data-item-order="0" transform="translate(86, 470)"></g><g id="g-root-tx_segmenta_74g33hkal1g-stroke" data-item-order="0" transform="translate(806, 476)"></g><g id="g-root-tx_humancen_1hitwtrhkalfz-stroke" data-item-order="0" transform="translate(86, 566)"></g><g id="g-root-tx_safeprox_8x56jzhkc1du-stroke" data-item-order="0" transform="translate(830, 572)"></g></g></g></svg>