<svg xmlns="http://www.w3.org/2000/svg" xmlns:xlink="http://www.w3.org/1999/xlink" width="1632" zoomAndPan="magnify" viewBox="0 0 1224 791.999994" height="1056" preserveAspectRatio="xMidYMid meet" version="1.0"><defs><clipPath id="ae7bdb4e1b"><path d="M 244.773438 35.574219 L 979.703125 35.574219 L 979.703125 751 L 244.773438 751 Z M 244.773438 35.574219 " clip-rule="nonzero"/></clipPath><clipPath id="df03772813"><path d="M 612 35.574219 L 709.925781 209.667969 L 907.140625 177.023438 L 830.976562 361.996094 L 979.226562 496.648438 L 787.453125 552.410156 L 775.210938 750.984375 L 612 636.738281 L 448.789062 750.984375 L 436.546875 552.410156 L 244.773438 496.648438 L 393.023438 361.996094 L 316.859375 177.023438 L 514.074219 209.667969 Z M 612 35.574219 " clip-rule="nonzero"/></clipPath><clipPath id="0f032bbaa9"><path d="M 0.773438 0.574219 L 735.441406 0.574219 L 735.441406 716 L 0.773438 716 Z M 0.773438 0.574219 " clip-rule="nonzero"/></clipPath><clipPath id="fc87434fac"><path d="M 368 0.574219 L 465.925781 174.667969 L 663.140625 142.023438 L 586.976562 326.996094 L 735.226562 461.648438 L 543.453125 517.410156 L 531.210938 715.984375 L 368 601.738281 L 204.789062 715.984375 L 192.546875 517.410156 L 0.773438 461.648438 L 149.023438 326.996094 L 72.859375 142.023438 L 270.074219 174.667969 Z M 368 0.574219 " clip-rule="nonzero"/></clipPath><clipPath id="224d8368fc"><rect x="0" width="736" y="0" height="716"/></clipPath></defs><g clip-path="url(#ae7bdb4e1b)"><g clip-path="url(#df03772813)"><g transform="matrix(1, 0, 0, 1, 244, 35)"><g clip-path="url(#224d8368fc)"><g clip-path="url(#0f032bbaa9)"><g clip-path="url(#fc87434fac)"><path fill="#000000" d="M 0.773438 0.574219 L 735.703125 0.574219 L 735.703125 721.425781 L 0.773438 721.425781 Z M 0.773438 0.574219 " fill-opacity="1" fill-rule="nonzero"/></g></g></g></g></g></g></svg>