<svg xmlns="http://www.w3.org/2000/svg" xmlns:xlink="http://www.w3.org/1999/xlink" width="1632" zoomAndPan="magnify" viewBox="0 0 1224 791.999994" height="1056" preserveAspectRatio="xMidYMid meet" version="1.0"><defs><clipPath id="5c0afa5648"><path d="M 157.375 138.34375 L 837 138.34375 L 837 654.132812 L 157.375 654.132812 Z M 157.375 138.34375 " clip-rule="nonzero"/></clipPath><clipPath id="834d1f4c65"><path d="M 543.132812 138.34375 C 550.585938 138.34375 558.082031 138.34375 565.519531 138.34375 C 624.816406 146.957031 661.875 175.632812 678.753906 222.558594 C 777.613281 216.300781 849.492188 305.023438 805.6875 392.105469 C 820.253906 410.402344 832.40625 430.871094 836.792969 458.34375 C 836.792969 466.210938 836.792969 474.0625 836.792969 481.933594 C 823.714844 551.851562 767.4375 599.097656 675.042969 586.378906 C 651.269531 622.277344 608.972656 657.671875 543.148438 653.75 C 509.125 651.394531 485.457031 637.742188 464.730469 621.160156 C 442.90625 634.945312 419.265625 645.765625 385.109375 645.882812 C 306.089844 646.085938 253.226562 592.972656 251.945312 520.121094 C 201.148438 503.078125 166.742188 471.265625 157.375 416.828125 C 157.375 408.960938 157.375 401.074219 157.375 393.242188 C 167.714844 339.296875 200.25 305.414062 254.421875 291.050781 C 251.167969 200.054688 359.527344 143.195312 448.546875 183.28125 C 469.742188 163.457031 499.726562 141.835938 543.132812 138.34375 Z M 543.132812 138.34375 " clip-rule="nonzero"/></clipPath><clipPath id="225e4c4f2e"><path d="M 0.375 0.34375 L 680 0.34375 L 680 516.132812 L 0.375 516.132812 Z M 0.375 0.34375 " clip-rule="nonzero"/></clipPath><clipPath id="7907f80e93"><path d="M 386.132812 0.34375 C 393.585938 0.34375 401.082031 0.34375 408.519531 0.34375 C 467.816406 8.957031 504.875 37.632812 521.753906 84.558594 C 620.613281 78.300781 692.492188 167.023438 648.6875 254.105469 C 663.253906 272.402344 675.40625 292.871094 679.792969 320.34375 C 679.792969 328.210938 679.792969 336.0625 679.792969 343.933594 C 666.714844 413.851562 610.4375 461.097656 518.042969 448.378906 C 494.269531 484.277344 451.972656 519.671875 386.148438 515.75 C 352.125 513.394531 328.457031 499.742188 307.730469 483.160156 C 285.90625 496.945312 262.265625 507.765625 228.109375 507.882812 C 149.089844 508.085938 96.226562 454.972656 94.945312 382.121094 C 44.148438 365.078125 9.742188 333.265625 0.375 278.828125 C 0.375 270.960938 0.375 263.074219 0.375 255.242188 C 10.714844 201.296875 43.25 167.414062 97.421875 153.050781 C 94.167969 62.054688 202.527344 5.195312 291.546875 45.28125 C 312.742188 25.457031 342.726562 3.835938 386.132812 0.34375 Z M 386.132812 0.34375 " clip-rule="nonzero"/></clipPath><clipPath id="487e23b925"><rect x="0" width="680" y="0" height="517"/></clipPath><clipPath id="d36d9c1065"><path d="M 790.78125 543.414062 L 882.804688 543.414062 L 882.804688 635.4375 L 790.78125 635.4375 Z M 790.78125 543.414062 " clip-rule="nonzero"/></clipPath><clipPath id="5e419fe397"><path d="M 836.792969 543.414062 C 811.382812 543.414062 790.78125 564.015625 790.78125 589.425781 C 790.78125 614.839844 811.382812 635.4375 836.792969 635.4375 C 862.207031 635.4375 882.804688 614.839844 882.804688 589.425781 C 882.804688 564.015625 862.207031 543.414062 836.792969 543.414062 Z M 836.792969 543.414062 " clip-rule="nonzero"/></clipPath><clipPath id="6fb1a5463c"><path d="M 0.78125 0.414062 L 92.804688 0.414062 L 92.804688 92.4375 L 0.78125 92.4375 Z M 0.78125 0.414062 " clip-rule="nonzero"/></clipPath><clipPath id="4f73780750"><path d="M 46.792969 0.414062 C 21.382812 0.414062 0.78125 21.015625 0.78125 46.425781 C 0.78125 71.839844 21.382812 92.4375 46.792969 92.4375 C 72.207031 92.4375 92.804688 71.839844 92.804688 46.425781 C 92.804688 21.015625 72.207031 0.414062 46.792969 0.414062 Z M 46.792969 0.414062 " clip-rule="nonzero"/></clipPath><clipPath id="ded842b0cf"><rect x="0" width="93" y="0" height="93"/></clipPath><clipPath id="82d60b9c22"><path d="M 882.804688 589.425781 L 960.449219 589.425781 L 960.449219 667.070312 L 882.804688 667.070312 Z M 882.804688 589.425781 " clip-rule="nonzero"/></clipPath><clipPath id="30da8d3b1b"><path d="M 921.628906 589.425781 C 900.1875 589.425781 882.804688 606.808594 882.804688 628.25 C 882.804688 649.691406 900.1875 667.070312 921.628906 667.070312 C 943.070312 667.070312 960.449219 649.691406 960.449219 628.25 C 960.449219 606.808594 943.070312 589.425781 921.628906 589.425781 Z M 921.628906 589.425781 " clip-rule="nonzero"/></clipPath><clipPath id="b76252ea79"><path d="M 0.804688 0.425781 L 78.449219 0.425781 L 78.449219 78.070312 L 0.804688 78.070312 Z M 0.804688 0.425781 " clip-rule="nonzero"/></clipPath><clipPath id="6eb914696b"><path d="M 39.628906 0.425781 C 18.1875 0.425781 0.804688 17.808594 0.804688 39.25 C 0.804688 60.691406 18.1875 78.070312 39.628906 78.070312 C 61.070312 78.070312 78.449219 60.691406 78.449219 39.25 C 78.449219 17.808594 61.070312 0.425781 39.628906 0.425781 Z M 39.628906 0.425781 " clip-rule="nonzero"/></clipPath><clipPath id="3a413ce697"><rect x="0" width="79" y="0" height="79"/></clipPath></defs><g clip-path="url(#5c0afa5648)"><g clip-path="url(#834d1f4c65)"><g transform="matrix(1, 0, 0, 1, 157, 138)"><g clip-path="url(#487e23b925)"><g clip-path="url(#225e4c4f2e)"><g clip-path="url(#7907f80e93)"><path fill="#000000" d="M 0.375 0.34375 L 679.359375 0.34375 L 679.359375 516.132812 L 0.375 516.132812 Z M 0.375 0.34375 " fill-opacity="1" fill-rule="nonzero"/></g></g></g></g></g></g><g clip-path="url(#d36d9c1065)"><g clip-path="url(#5e419fe397)"><g transform="matrix(1, 0, 0, 1, 790, 543)"><g clip-path="url(#ded842b0cf)"><g clip-path="url(#6fb1a5463c)"><g clip-path="url(#4f73780750)"><path fill="#000000" d="M 0.78125 0.414062 L 92.804688 0.414062 L 92.804688 92.4375 L 0.78125 92.4375 Z M 0.78125 0.414062 " fill-opacity="1" fill-rule="nonzero"/></g></g></g></g></g></g><g clip-path="url(#82d60b9c22)"><g clip-path="url(#30da8d3b1b)"><g transform="matrix(1, 0, 0, 1, 882, 589)"><g clip-path="url(#3a413ce697)"><g clip-path="url(#b76252ea79)"><g clip-path="url(#6eb914696b)"><path fill="#000000" d="M 0.804688 0.425781 L 78.449219 0.425781 L 78.449219 78.070312 L 0.804688 78.070312 Z M 0.804688 0.425781 " fill-opacity="1" fill-rule="nonzero"/></g></g></g></g></g></g></svg>