<svg xmlns="http://www.w3.org/2000/svg" xmlns:xlink="http://www.w3.org/1999/xlink" width="1632" zoomAndPan="magnify" viewBox="0 0 1224 791.999994" height="1056" preserveAspectRatio="xMidYMid meet" version="1.0"><defs><clipPath id="58a0c3baf2"><path d="M 228.003906 73.203125 L 996 73.203125 L 996 718.796875 L 228.003906 718.796875 Z M 228.003906 73.203125 " clip-rule="nonzero"/></clipPath><clipPath id="2519115c73"><path d="M 995.996094 73.203125 L 995.996094 557.464844 C 931.996094 557.464844 931.996094 718.796875 868 718.796875 C 803.976562 718.796875 803.976562 557.464844 739.980469 557.464844 C 675.980469 557.464844 675.980469 718.796875 611.980469 718.796875 C 547.980469 718.796875 547.980469 557.464844 483.980469 557.464844 C 419.980469 557.464844 419.980469 718.796875 356.003906 718.796875 C 292.003906 718.796875 292.003906 557.464844 228.003906 557.464844 L 228.003906 73.203125 C 292.003906 73.203125 292.003906 234.539062 356.003906 234.539062 C 419.980469 234.539062 419.980469 73.203125 483.980469 73.203125 C 547.980469 73.203125 547.980469 234.539062 611.980469 234.539062 C 675.980469 234.539062 675.980469 73.203125 739.980469 73.203125 C 803.976562 73.203125 803.976562 234.539062 868 234.539062 C 931.996094 234.539062 931.996094 73.203125 995.996094 73.203125 Z M 995.996094 73.203125 " clip-rule="nonzero"/></clipPath><clipPath id="3d1edf6761"><path d="M 0.00390625 0.203125 L 768 0.203125 L 768 645.796875 L 0.00390625 645.796875 Z M 0.00390625 0.203125 " clip-rule="nonzero"/></clipPath><clipPath id="7add28becd"><path d="M 767.996094 0.203125 L 767.996094 484.464844 C 703.996094 484.464844 703.996094 645.796875 640 645.796875 C 575.976562 645.796875 575.976562 484.464844 511.980469 484.464844 C 447.980469 484.464844 447.980469 645.796875 383.980469 645.796875 C 319.980469 645.796875 319.980469 484.464844 255.980469 484.464844 C 191.980469 484.464844 191.980469 645.796875 128.003906 645.796875 C 64.003906 645.796875 64.003906 484.464844 0.00390625 484.464844 L 0.00390625 0.203125 C 64.003906 0.203125 64.003906 161.539062 128.003906 161.539062 C 191.980469 161.539062 191.980469 0.203125 255.980469 0.203125 C 319.980469 0.203125 319.980469 161.539062 383.980469 161.539062 C 447.980469 161.539062 447.980469 0.203125 511.980469 0.203125 C 575.976562 0.203125 575.976562 161.539062 640 161.539062 C 703.996094 161.539062 703.996094 0.203125 767.996094 0.203125 Z M 767.996094 0.203125 " clip-rule="nonzero"/></clipPath><clipPath id="28ebc68468"><rect x="0" width="768" y="0" height="646"/></clipPath></defs><g clip-path="url(#58a0c3baf2)"><g clip-path="url(#2519115c73)"><g transform="matrix(1, 0, 0, 1, 228, 73)"><g clip-path="url(#28ebc68468)"><g clip-path="url(#3d1edf6761)"><g clip-path="url(#7add28becd)"><path fill="#000000" d="M 0.00390625 0.203125 L 769.167969 0.203125 L 769.167969 645.796875 L 0.00390625 645.796875 Z M 0.00390625 0.203125 " fill-opacity="1" fill-rule="nonzero"/></g></g></g></g></g></g></svg>