<?xml version="1.0" encoding="utf-8" standalone="yes"?>
<!DOCTYPE svg PUBLIC "-//W3C//DTD SVG 1.1//EN" "http://www.w3.org/Graphics/SVG/1.1/DTD/svg11.dtd">
<svg style="fill:none;stroke:none;fill-rule:evenodd;clip-rule:evenodd;stroke-linecap:round;stroke-linejoin:round;stroke-miterlimit:1.5;" version="1.1" xmlns="http://www.w3.org/2000/svg" xmlns:xlink="http://www.w3.org/1999/xlink" width="797" height="696" viewBox="0 0 797 696"><style class="text-font-style fontImports" data-font-family="Montserrat">@import url(https://fonts.googleapis.com/css2?family=Montserrat:wght@400;700&amp;amp;display=block);</style><g id="items" style="isolation: isolate"><g id="blend" style="mix-blend-mode: normal"><g id="g-root-cp_resolution_g-resolution_147dhq7fc2o05-fill" data-item-order="-446390" transform="translate(387, 398)"><g id="cp_resolution_g-resolution_147dhq7fc2o05-fill-merged" stroke="none" fill="#597f55" fill-opacity="1"><g><path d="M137.279 41.279C143.315 35.243 148.901 28.799 154 22 H261 V10L309.151 58L261 106 V94 H10C33.638 94 57.044 89.344 78.883 80.298C100.722 71.253 120.565 57.994 137.279 41.279"></path></g></g></g><g id="g-root-cp_2_g-2_vccykffc2ln2-fill" data-item-order="-446384" transform="translate(206, 122)"><g id="cp_2_g-2_vccykffc2ln2-fill-merged" stroke="none" fill="#b1cea0" fill-opacity="1"><g><path d="M62.721 62.721C28.964 96.477 10 142.261 10 190C10 213.638 14.656 237.044 23.702 258.883C29.481 272.835 36.979 285.972 46 298 H188.809C175.031 297.848 161.405 295.061 148.668 289.785C135.564 284.357 123.657 276.401 113.628 266.372C103.599 256.343 95.643 244.436 90.215 231.332C84.787 218.228 81.993 204.184 81.993 190C81.965 161.347 93.347 133.868 113.608 113.608C133.868 93.347 161.347 81.965 190 81.965 V10C142.261 10 96.477 28.964 62.721 62.721"></path></g></g></g><g id="g-root-cp_1_g-1_qwjgfzfc2mfb-fill" data-item-order="-446378" transform="translate(385.8909912109375, 122)"><g id="cp_1_g-1_qwjgfzfc2mfb-fill-merged" stroke="none" fill="#7b9969" fill-opacity="1"><g><path d="M10 10.001C33.685 9.921 57.153 14.515 79.059 23.522C100.965 32.529 120.878 45.77 137.656 62.487C154.435 79.204 167.749 99.068 176.837 120.941C185.924 142.813 190.605 166.264 190.611 189.949C190.618 213.635 185.95 237.088 176.875 258.966C167.801 280.844 154.497 300.715 137.728 317.442C120.959 334.168 101.053 347.421 79.152 356.44C57.252 365.458 33.786 370.066 10.101 369.999L10.305 298.035C24.521 298.075 38.605 295.309 51.749 289.896C64.894 284.483 76.841 276.529 86.906 266.49C96.971 256.451 104.955 244.524 110.402 231.393C115.849 218.262 118.65 204.185 118.646 189.97C118.643 175.754 115.833 161.679 110.379 148.551C104.925 135.423 96.934 123.501 86.863 113.467C76.793 103.434 64.841 95.486 51.693 90.081C38.545 84.675 24.46 81.917 10.244 81.965L10 10.001"></path></g></g></g><g id="g-root-cp_problem_g-problem_mgpybjfc2n7k-fill" data-item-order="-446372" transform="translate(133, 410)"><g id="cp_problem_g-problem_mgpybjfc2n7k-fill-merged" stroke="none" fill="#dd7c41" fill-opacity="1"><g><path d="M10 10 H263 V82 H10 V10"></path></g></g></g><g id="g-root-ic_2_meuj27fc41l8-fill" data-item-order="-2304" transform="translate(218, 266)"><g id="ic_2_meuj27fc41l8-fill-merged" stroke="none" fill="#ffffff" fill-opacity="1"><g><path d="M45.64 44C45.828 44.1 46.052 44.1 46.24 44L55.56 38.56C55.693 38.481 55.789 38.352 55.827 38.202C55.865 38.051 55.84 37.892 55.76 37.76L55.6 37.58L48 32.6C46.824 31.798 45.276 31.798 44.1 32.6L36.44 37.6C36.183 37.784 36.121 38.14 36.3 38.4C36.34 38.472 36.403 38.529 36.48 38.56L45.64 44 M44.22 47.52C44.221 47.316 44.115 47.126 43.94 47.02L34.88 41.72C34.748 41.64 34.589 41.615 34.438 41.653C34.288 41.691 34.159 41.787 34.08 41.92C34.051 42.018 34.051 42.122 34.08 42.22 V51.14C34.071 51.953 34.488 52.712 35.18 53.14L43.36 58C43.489 58.08 43.645 58.103 43.792 58.065C43.939 58.028 44.065 57.932 44.14 57.8C44.203 57.712 44.237 57.608 44.24 57.5 V47.52 M47.76 57.42C47.763 57.528 47.797 57.632 47.86 57.72C47.935 57.852 48.061 57.948 48.208 57.985C48.355 58.023 48.511 58 48.64 57.92L56.9 53.12C57.592 52.692 58.009 51.933 58 51.12 V42.22C58.016 42.148 58.016 42.072 58 42C57.921 41.867 57.792 41.771 57.642 41.733C57.491 41.695 57.332 41.72 57.2 41.8L48 47.02C47.825 47.126 47.719 47.316 47.72 47.52 V57.42 M54.74 19.84L41.74 10.56C40.699 9.818 39.301 9.818 38.26 10.56L26.66 18.84C26.307 19.114 25.813 19.114 25.46 18.84L14.86 10.64C13.957 9.926 12.725 9.792 11.69 10.295C10.654 10.798 9.998 11.849 10 13 V42.78C10.003 43.724 10.447 44.611 11.2 45.18L24.22 54.94C25.274 55.71 26.706 55.71 27.76 54.94L30 53.34 V48.46L28.8 49.32C28.691 49.397 28.556 49.428 28.425 49.406C28.294 49.383 28.177 49.309 28.1 49.2C28.071 49.109 28.071 49.011 28.1 48.92 V23.32C28.083 22.996 28.234 22.686 28.5 22.5L37.3 16.22C37.409 16.143 37.544 16.112 37.675 16.134C37.806 16.157 37.923 16.231 38 16.34C38.028 16.431 38.028 16.529 38 16.62 V28C38 29.105 38.895 30 40 30C41.105 30 42 29.105 42 28 V16.62C42.011 16.352 42.231 16.14 42.5 16.14C42.598 16.113 42.702 16.113 42.8 16.14L51.58 22.42C51.84 22.613 51.995 22.916 52 23.24 V28C52 29.105 52.895 30 54 30C55.105 30 56 29.105 56 28 V22.28C56.002 21.31 55.532 20.4 54.74 19.84 M24 48.78C24 49.056 23.776 49.28 23.5 49.28C23.392 49.277 23.288 49.243 23.2 49.18L14.4 42.58C14.151 42.389 14.003 42.094 14 41.78 V16C14 15.724 14.224 15.5 14.5 15.5C14.609 15.493 14.717 15.529 14.8 15.6L23.6 22.4C23.857 22.584 24.007 22.884 24 23.2 V48.78"></path></g></g></g><g id="g-root-ic_2_hunpbzfc3zsz-fill" data-item-order="-2304" transform="translate(507, 266)"><g id="ic_2_hunpbzfc3zsz-fill-merged" stroke="none" fill="#ffffff" fill-opacity="1"><g><path d="M29.234 39.374 H11.5C10.672 39.374 10 40.046 10 40.874 V54.054C10 55.962 11.548 57.51 13.456 57.51 H54.544C56.452 57.51 58 55.962 58 54.052 V40.872C58 40.044 57.328 39.372 56.5 39.372 H38.766 V44.602C38.691 47.18 36.58 49.232 34 49.232C31.42 49.232 29.309 47.18 29.234 44.602 V39.374 M32.234 44.602 V39.496 H35.766 V44.6C35.766 45.576 34.976 46.366 34 46.366C33.024 46.366 32.234 45.576 32.234 44.6 M22.76 13.904C22.598 13.875 22.432 13.928 22.316 14.046C22.201 14.163 22.15 14.33 22.182 14.492L23.37 20.684L21.36 23.65L18.39 21.64L17.202 15.448C17.171 15.287 17.063 15.151 16.913 15.085C16.763 15.019 16.59 15.03 16.45 15.116C13.281 17.058 11.615 20.735 12.244 24.399C12.873 28.062 15.671 30.972 19.306 31.746L20.288 36.876 H27.488L26.25 30.416C29.346 28.355 30.873 24.615 30.104 20.976C29.335 17.337 26.425 14.534 22.76 13.902 M46.566 36.874 H39.654L41.812 25.29L33.846 23.806C33.575 23.755 33.396 23.495 33.446 23.224L34.162 19.396C34.213 19.125 34.473 18.946 34.744 18.996C38.962 19.782 41.7 17.926 42.134 15.598C42.185 15.327 42.445 15.148 42.716 15.198L56.116 17.694C56.247 17.718 56.362 17.793 56.437 17.903C56.512 18.013 56.541 18.147 56.516 18.278L54.852 27.212C54.801 27.483 54.541 27.662 54.27 27.612L48.604 26.556L46.566 36.874"></path></g></g></g><g id="g-root-ic_2_18f2tq7fc40sq-fill" data-item-order="-2304" transform="translate(238, 422)"><g id="ic_2_18f2tq7fc40sq-fill-merged" stroke="none" fill="#ffffff" fill-opacity="1"><g><path d="M28.92 40 V38.86 H14.34 V16.3C14.34 14.919 15.459 13.8 16.84 13.8 H32.84C34.221 13.8 35.34 14.919 35.34 16.3 V30.3C35.34 31.128 36.012 31.8 36.84 31.8C37.668 31.8 38.34 31.128 38.34 30.3 V16.3C38.34 13.262 35.878 10.8 32.84 10.8 H16.84C13.802 10.8 11.34 13.262 11.34 16.3 V44.3C11.34 47.338 13.802 49.8 16.84 49.8 H20.7C20.856 45.03 24.25 40.983 28.92 40 M48.94 42.44 H48.58L47.42 37.82 H49.64C50.468 37.82 51.14 37.148 51.14 36.32C51.14 35.492 50.468 34.82 49.64 34.82 H45.5C45.127 34.836 44.772 34.985 44.5 35.24C44.436 35.288 44.375 35.342 44.32 35.4C44.041 35.764 43.938 36.233 44.04 36.68L44.5 38.5L44.84 39.84 H44.5L34.5 40.38C33.923 40.403 33.413 40.763 33.2 41.3L32.66 42.54C32.146 42.436 31.624 42.382 31.1 42.38C27.28 42.377 24.032 45.168 23.46 48.945C22.889 52.722 25.166 56.349 28.816 57.476C32.466 58.603 36.391 56.891 38.049 53.449C39.706 50.007 38.597 45.871 35.44 43.72L35.6 43.32L38.78 43.14L45.64 42.78 V43.14C43.335 44.243 41.725 46.414 41.34 48.94C41.269 49.323 41.229 49.711 41.22 50.1C41.234 50.402 41.267 50.703 41.32 51C41.825 55.091 45.469 58.054 49.577 57.714C53.685 57.373 56.792 53.85 56.615 49.731C56.439 45.613 53.042 42.368 48.92 42.38 V42.44 M31.04 54.86C28.558 54.698 26.627 52.638 26.627 50.15C26.627 47.662 28.558 45.602 31.04 45.44 H31.4L29.66 49.44C29.5 49.811 29.494 50.231 29.645 50.606C29.795 50.981 30.088 51.282 30.46 51.44C30.644 51.516 30.841 51.557 31.04 51.56C31.647 51.556 32.196 51.196 32.44 50.64L34.16 46.54C35.176 47.428 35.759 48.711 35.76 50.06C35.781 51.326 35.294 52.547 34.406 53.449C33.519 54.352 32.306 54.86 31.04 54.86 M49.04 54.86C46.954 54.855 45.121 53.476 44.539 51.473C43.956 49.471 44.763 47.323 46.52 46.2L47.6 50.52C47.764 51.184 48.356 51.653 49.04 51.66C49.166 51.679 49.294 51.679 49.42 51.66C49.807 51.566 50.14 51.32 50.343 50.977C50.546 50.635 50.603 50.225 50.5 49.84L49.42 45.54C51.912 45.769 53.787 47.91 53.686 50.411C53.585 52.911 51.542 54.893 49.04 54.92 M33.14 38.2 H37.28C38.108 38.2 38.78 37.528 38.78 36.7C38.78 35.872 38.108 35.2 37.28 35.2 H33.14C32.312 35.2 31.64 35.872 31.64 36.7C31.64 37.528 32.312 38.2 33.14 38.2 M29.84 25.66C32.325 25.66 34.34 23.645 34.34 21.16C34.34 20.332 33.668 19.66 32.84 19.66C32.012 19.66 31.34 20.332 31.34 21.16C31.34 21.988 30.668 22.66 29.84 22.66C29.012 22.66 28.34 21.988 28.34 21.16C28.351 20.336 29.016 19.671 29.84 19.66C30.668 19.66 31.34 18.988 31.34 18.16C31.34 17.332 30.668 16.66 29.84 16.66C28.297 16.659 26.862 17.456 26.048 18.767C25.233 20.078 25.155 21.717 25.84 23.1L22.58 26.3C21.957 25.999 21.272 25.849 20.58 25.86C18.095 25.86 16.08 27.875 16.08 30.36C16.08 31.188 16.752 31.86 17.58 31.86C18.408 31.86 19.08 31.188 19.08 30.36C19.08 29.532 19.752 28.86 20.58 28.86C21.408 28.86 22.08 29.532 22.08 30.36C22.08 31.188 21.408 31.86 20.58 31.86C19.752 31.86 19.08 32.532 19.08 33.36C19.08 34.188 19.752 34.86 20.58 34.86C23.065 34.86 25.08 32.845 25.08 30.36C25.087 29.666 24.93 28.981 24.62 28.36L28 25.22C28.575 25.497 29.202 25.647 29.84 25.66"></path></g></g></g><g id="g-root-ic_bicy_zrjzlrfc6tqn-fill" data-item-order="-2304" transform="translate(543, 422)"><g id="ic_bicy_zrjzlrfc6tqn-fill-merged" stroke="none" fill="#ffffff" fill-opacity="1"><g><path d="M26.7 36.5 H28.54C28.633 36.49 28.727 36.49 28.82 36.5 H31.68L30 32.76L26.7 36.5 M22 38.62C21.752 38.08 21.846 37.445 22.24 37L24.24 34.86C23.986 34.789 23.724 34.749 23.46 34.74C21.432 34.741 19.746 36.303 19.592 38.325C19.438 40.347 20.867 42.147 22.872 42.455C24.876 42.763 26.78 41.475 27.24 39.5 H23.38C22.786 39.506 22.245 39.161 22 38.62 M39.64 32 H32.96L34.7 35.88L39.38 33.2C39.558 33.055 39.745 32.922 39.94 32.8L39.64 32 M44 34.76L45.3 38.14C45.463 38.518 45.463 38.947 45.3 39.325C45.137 39.703 44.826 39.998 44.44 40.14C44.269 40.211 44.085 40.245 43.9 40.24C43.278 40.246 42.719 39.862 42.5 39.28L41.16 35.76C39.792 37.001 39.489 39.034 40.435 40.621C41.381 42.207 43.314 42.906 45.056 42.293C46.798 41.679 47.867 39.923 47.61 38.094C47.354 36.265 45.844 34.871 44 34.76 M34 10C20.745 10 10 20.745 10 34C10 47.255 20.745 58 34 58C47.255 58 58 47.255 58 34C58 20.745 47.255 10 34 10 M43.58 45.5C39.777 45.5 36.691 42.423 36.68 38.62C36.67 38.467 36.67 38.313 36.68 38.16L34.68 39.3C34.491 39.382 34.286 39.423 34.08 39.42 H30.18C29.698 43.06 26.436 45.675 22.778 45.354C19.12 45.032 16.365 41.887 16.526 38.219C16.687 34.551 19.708 31.66 23.38 31.66C24.396 31.665 25.399 31.89 26.32 32.32L28.66 29.76L27.66 27.5 H26C25.172 27.5 24.5 26.828 24.5 26C24.5 25.172 25.172 24.5 26 24.5 H32C32.828 24.5 33.5 25.172 33.5 26C33.5 26.828 32.828 27.5 32 27.5 H30.94L31.62 29 H38.5L37.74 27C37.578 26.543 37.648 26.037 37.925 25.64C38.203 25.243 38.656 25.005 39.14 25 H43.6C44.349 25.109 45.024 25.512 45.475 26.12C45.925 26.729 46.114 27.492 46 28.24C45.873 29.01 45.177 29.554 44.4 29.491C43.622 29.428 43.022 28.78 43.02 28 H41.32L42.78 31.82C43.046 31.799 43.314 31.799 43.58 31.82C47.379 31.821 50.458 34.901 50.458 38.7C50.458 42.499 47.379 45.579 43.58 45.58 V45.5"></path></g></g></g><g id="g-root-tx_building_dl2y2nfc2o09-fill" data-item-order="0" transform="translate(62, 38)"><g id="tx_building_dl2y2nfc2o09-fill-merged" stroke="none" fill="#484848" fill-opacity="1"><g><text style="font: bold 25px Montserrat, sans-serif; white-space: pre;" transform="translate(334, 28)" font-weight="bold" font-size="25px" font-family="Montserrat, sans-serif"><tspan x="-317.83" y="15" dominant-baseline="ideographic">Future Steps: Building a City-Wide Bike Network</tspan></text></g></g></g><g id="g-root-tx_citywide_hva6f3fc8a31-fill" data-item-order="0" transform="translate(74, 236)"><g id="tx_citywide_hva6f3fc8a31-fill-merged" stroke="none" fill="#484848" fill-opacity="1"><g><text style="font: bold 20px Montserrat, sans-serif; white-space: pre;" transform="translate(118, 40)" font-weight="bold" font-size="20px" font-family="Montserrat, sans-serif"><tspan x="-105.19" y="-0" dominant-baseline="ideographic">City-Wide </tspan><tspan x="-83.74" y="24" dominant-baseline="ideographic">Identity</tspan></text></g></g></g><g id="g-root-tx_popupwor_qp1renfc8aa3-fill" data-item-order="0" transform="translate(591, 236)"><g id="tx_popupwor_qp1renfc8aa3-fill-merged" stroke="none" fill="#484848" fill-opacity="1"><g><text style="font: bold 20px Montserrat, sans-serif; white-space: pre;" transform="translate(10, 40)" font-weight="bold" font-size="20px" font-family="Montserrat, sans-serif"><tspan x="2" y="-0" dominant-baseline="ideographic">Pop-up </tspan><tspan x="2" y="24" dominant-baseline="ideographic">Workshops</tspan></text></g></g></g><g id="g-root-tx_adaptive_9mfpbfc6vb4-fill" data-item-order="0" transform="translate(314, 272)"><g id="tx_adaptive_9mfpbfc6vb4-fill-merged" stroke="none" fill="#484848" fill-opacity="1"><g><text style="font: bold 20px Montserrat, sans-serif; white-space: pre;" transform="translate(82, 40)" font-weight="bold" font-size="20px" font-family="Montserrat, sans-serif"><tspan x="-64.3" y="-0" dominant-baseline="ideographic">Community </tspan><tspan x="-63.42" y="24" dominant-baseline="ideographic">Connection</tspan></text></g></g></g><g id="g-root-tx_cohesive_1cz9ngffc88b2-fill" data-item-order="0" transform="translate(62, 308)"><g id="tx_cohesive_1cz9ngffc88b2-fill-merged" stroke="none" fill="#484848" fill-opacity="1"><g><text style="font: 15px Montserrat, sans-serif; white-space: pre;" transform="translate(130, 34)" font-size="15px" font-family="Montserrat, sans-serif"><tspan x="-114.69" y="-0" dominant-baseline="ideographic">More advocacy </tspan><tspan x="-104.04" y="18" dominant-baseline="ideographic">and presence</tspan></text></g></g></g><g id="g-root-tx_flexible_1lt18fzfc88i4-fill" data-item-order="0" transform="translate(591, 308)"><g id="tx_flexible_1lt18fzfc88i4-fill-merged" stroke="none" fill="#484848" fill-opacity="1"><g><text style="font: 15px Montserrat, sans-serif; white-space: pre;" transform="translate(10, 34)" font-size="15px" font-family="Montserrat, sans-serif"><tspan x="2" y="-0" dominant-baseline="ideographic">Flexible, mobile </tspan><tspan x="2" y="18" dominant-baseline="ideographic">repair stations</tspan></text></g></g></g><g id="g-root-tx_disconne_m7zb3zfc88w9-fill" data-item-order="0" transform="translate(183, 506)"><g id="tx_disconne_m7zb3zfc88w9-fill-merged" stroke="none" fill="#484848" fill-opacity="1"><g><text style="font: bold 20px Montserrat, sans-serif; white-space: pre;" transform="translate(88, 40)" font-weight="bold" font-size="20px" font-family="Montserrat, sans-serif"><tspan x="-74.03" y="-0" dominant-baseline="ideographic">Disconnected </tspan><tspan x="-71.2" y="24" dominant-baseline="ideographic">Bike Services</tspan></text></g></g></g><g id="g-root-tx_integrat_91ilfjfc89vz-fill" data-item-order="0" transform="translate(500, 506)"><g id="tx_integrat_91ilfjfc89vz-fill-merged" stroke="none" fill="#484848" fill-opacity="1"><g><text style="font: bold 20px Montserrat, sans-serif; white-space: pre;" transform="translate(76, 46)" font-weight="bold" font-size="20px" font-family="Montserrat, sans-serif"><tspan x="-57.33" y="-12" dominant-baseline="ideographic">Integrated </tspan><tspan x="-25.43" y="12" dominant-baseline="ideographic">Bike </tspan><tspan x="-58.71" y="36" dominant-baseline="ideographic">Ecosystem</tspan></text></g></g></g><g id="g-root-tx_siloedre_1q6zbb3fc89he-fill" data-item-order="0" transform="translate(189, 578)"><g id="tx_siloedre_1q6zbb3fc89he-fill-merged" stroke="none" fill="#484848" fill-opacity="1"><g><text style="font: 15px Montserrat, sans-serif; white-space: pre;" transform="translate(82, 34)" font-size="15px" font-family="Montserrat, sans-serif"><tspan x="-48.41" y="-0" dominant-baseline="ideographic">Siloed repair, </tspan><tspan x="-68.95" y="18" dominant-baseline="ideographic">mobility, advocacy</tspan></text></g></g></g><g id="g-root-tx_connecte_1d0ilmnfc8ah4-fill" data-item-order="0" transform="translate(494, 590)"><g id="tx_connecte_1d0ilmnfc8ah4-fill-merged" stroke="none" fill="#484848" fill-opacity="1"><g><text style="font: 15px Montserrat, sans-serif; white-space: pre;" transform="translate(82, 34)" font-size="15px" font-family="Montserrat, sans-serif"><tspan x="-67.27" y="-0" dominant-baseline="ideographic">Connected repair, </tspan><tspan x="-69.47" y="18" dominant-baseline="ideographic">mobility, advocacy</tspan></text></g></g></g><g id="g-root-cp_resolution_g-resolution_147dhq7fc2o05-stroke" data-item-order="-446390" transform="translate(387, 398)"></g><g id="g-root-cp_2_g-2_vccykffc2ln2-stroke" data-item-order="-446384" transform="translate(206, 122)"></g><g id="g-root-cp_1_g-1_qwjgfzfc2mfb-stroke" data-item-order="-446378" transform="translate(385.8909912109375, 122)"></g><g id="g-root-cp_problem_g-problem_mgpybjfc2n7k-stroke" data-item-order="-446372" transform="translate(133, 410)"></g><g id="g-root-ic_2_meuj27fc41l8-stroke" data-item-order="-2304" transform="translate(218, 266)"></g><g id="g-root-ic_2_hunpbzfc3zsz-stroke" data-item-order="-2304" transform="translate(507, 266)"></g><g id="g-root-ic_2_18f2tq7fc40sq-stroke" data-item-order="-2304" transform="translate(238, 422)"></g><g id="g-root-ic_bicy_zrjzlrfc6tqn-stroke" data-item-order="-2304" transform="translate(543, 422)"></g><g id="g-root-tx_building_dl2y2nfc2o09-stroke" data-item-order="0" transform="translate(62, 38)"></g><g id="g-root-tx_citywide_hva6f3fc8a31-stroke" data-item-order="0" transform="translate(74, 236)"></g><g id="g-root-tx_popupwor_qp1renfc8aa3-stroke" data-item-order="0" transform="translate(591, 236)"></g><g id="g-root-tx_adaptive_9mfpbfc6vb4-stroke" data-item-order="0" transform="translate(314, 272)"></g><g id="g-root-tx_cohesive_1cz9ngffc88b2-stroke" data-item-order="0" transform="translate(62, 308)"></g><g id="g-root-tx_flexible_1lt18fzfc88i4-stroke" data-item-order="0" transform="translate(591, 308)"></g><g id="g-root-tx_disconne_m7zb3zfc88w9-stroke" data-item-order="0" transform="translate(183, 506)"></g><g id="g-root-tx_integrat_91ilfjfc89vz-stroke" data-item-order="0" transform="translate(500, 506)"></g><g id="g-root-tx_siloedre_1q6zbb3fc89he-stroke" data-item-order="0" transform="translate(189, 578)"></g><g id="g-root-tx_connecte_1d0ilmnfc8ah4-stroke" data-item-order="0" transform="translate(494, 590)"></g></g></g></svg>