<?xml version="1.0" encoding="utf-8" standalone="yes"?>
<!DOCTYPE svg PUBLIC "-//W3C//DTD SVG 1.1//EN" "http://www.w3.org/Graphics/SVG/1.1/DTD/svg11.dtd">
<svg style="fill:none;stroke:none;fill-rule:evenodd;clip-rule:evenodd;stroke-linecap:round;stroke-linejoin:round;stroke-miterlimit:1.5;" version="1.1" xmlns="http://www.w3.org/2000/svg" xmlns:xlink="http://www.w3.org/1999/xlink" width="732" height="600" viewBox="0 0 732 600"><style class="text-font-style fontImports" data-font-family="Roboto">@import url(https://fonts.googleapis.com/css2?family=Roboto:wght@400;700&amp;amp;display=block);</style><g id="items" style="isolation: isolate"><g id="blend" style="mix-blend-mode: normal"><g id="g-root-cp_1_g-1_metn9f1bj2r60-fill" data-item-order="-344726" transform="translate(59, 170)"><g id="cp_1_g-1_metn9f1bj2r60-fill-merged" stroke="none" fill="#1eabda" fill-opacity="1"><g><path d="M301.572 107L339 10 H10L47.428 107 H301.572"></path></g></g></g><g id="g-root-cp_2_g-2_hz054z1bj2ry9-fill" data-item-order="-344722" transform="translate(96.3809814453125, 267)"><g id="cp_2_g-2_hz054z1bj2ry9-fill-merged" stroke="none" fill="#3cc583" fill-opacity="1"><g><path d="M47.617 105 H226.805L264.211 10 H10L47.617 105"></path></g></g></g><g id="g-root-cp_3_g-3_93d4w31bj2sqy-fill" data-item-order="-344718" transform="translate(134, 362)"><g id="cp_3_g-3_93d4w31bj2sqy-fill-merged" stroke="none" fill="#92bd39" fill-opacity="1"><g><path d="M10 10L47.367 107 H151.633L189.198 10 H10"></path></g></g></g><g id="g-root-sy_-1_Vector_4o63ur1bj2qdf-fill" data-item-order="-344711" transform="translate(313.958984375, 409.94921875)"></g><g id="g-root-sy_-1_Vector_1_4o63ur1bj2qdg-fill" data-item-order="-344707" transform="translate(357.958984375, 313.94921875)"></g><g id="g-root-sy_-1_Vector_2_1utn5kz1bj2qz1-fill" data-item-order="-344703" transform="translate(393.958984375, 217.94921875)"></g><g id="g-root-tx_enhancin_1qdtngj1bj2rra-fill" data-item-order="0" transform="translate(200, 38)"><g id="tx_enhancin_1qdtngj1bj2rra-fill-merged" stroke="none" fill="#484848" fill-opacity="1"><g><text style="font: bold 20px Roboto, sans-serif; white-space: pre;" transform="translate(166, 22)" font-weight="bold" font-size="20px" font-family="Roboto, sans-serif"><tspan x="-150.35" y="12" dominant-baseline="ideographic">Enhancing Bike Workshop Design</tspan></text></g></g></g><g id="g-root-tx_initialw_9ljwj1bj46q0-fill" data-item-order="0" transform="translate(182, 116)"><g id="tx_initialw_9ljwj1bj46q0-fill-merged" stroke="none" fill="#484848" fill-opacity="1"><g><text style="font: 10px Roboto, sans-serif; white-space: pre;" transform="translate(52, 22)" font-size="10px" font-family="Roboto, sans-serif"><tspan x="-37.05" y="0" dominant-baseline="ideographic">Initial Workshop </tspan><tspan x="-15.02" y="12" dominant-baseline="ideographic">Space</tspan></text></g></g></g><g id="g-root-ic_1_8x4e0z1bj45c3-fill" data-item-order="0" transform="translate(206, 200)"></g><g id="g-root-tx_spatiale_zpnojn1bj46wy-fill" data-item-order="0" transform="translate(506, 206)"><g id="tx_spatiale_zpnojn1bj46wy-fill-merged" stroke="none" fill="#1eabda" fill-opacity="1"><g><text style="font: bold 11.7px Roboto, sans-serif; white-space: pre;" transform="translate(10, 22)" font-weight="bold" font-size="11.7px" font-family="Roboto, sans-serif"><tspan x="2" y="7" dominant-baseline="ideographic">Spatial Efficiency</tspan></text></g></g></g><g id="g-root-tx_optimizi_93d4w31bj46wz-fill" data-item-order="0" transform="translate(506, 236)"><g id="tx_optimizi_93d4w31bj46wz-fill-merged" stroke="none" fill="#484848" fill-opacity="1"><g><text style="font: 10px Roboto, sans-serif; white-space: pre;" transform="translate(10, 22)" font-size="10px" font-family="Roboto, sans-serif"><tspan x="2" y="0" dominant-baseline="ideographic">Optimizing space with vertical </tspan><tspan x="2" y="12" dominant-baseline="ideographic">storage</tspan></text></g></g></g><g id="g-root-ic_open_zjexoj1bj45c2-fill" data-item-order="0" transform="translate(206, 296)"></g><g id="g-root-tx_toolorga_1hi6n7n1bj46pw-fill" data-item-order="0" transform="translate(506, 302)"><g id="tx_toolorga_1hi6n7n1bj46pw-fill-merged" stroke="none" fill="#3cc583" fill-opacity="1"><g><text style="font: bold 11.7px Roboto, sans-serif; white-space: pre;" transform="translate(10, 22)" font-weight="bold" font-size="11.7px" font-family="Roboto, sans-serif"><tspan x="2" y="7" dominant-baseline="ideographic">Tool Organization</tspan></text></g></g></g><g id="g-root-tx_creating_147clxf1bj4551-fill" data-item-order="0" transform="translate(506, 332)"><g id="tx_creating_147clxf1bj4551-fill-merged" stroke="none" fill="#484848" fill-opacity="1"><g><text style="font: 10px Roboto, sans-serif; white-space: pre;" transform="translate(10, 22)" font-size="10px" font-family="Roboto, sans-serif"><tspan x="2" y="0" dominant-baseline="ideographic">Creating a systematic tool </tspan><tspan x="2" y="12" dominant-baseline="ideographic">management system</tspan></text></g></g></g><g id="g-root-ic_user_147clxf1bj2qz3-fill" data-item-order="0" transform="translate(206, 392)"></g><g id="g-root-tx_workplac_qvw3k31bj46py-fill" data-item-order="0" transform="translate(506, 398)"><g id="tx_workplac_qvw3k31bj46py-fill-merged" stroke="none" fill="#92bd39" fill-opacity="1"><g><text style="font: bold 11.7px Roboto, sans-serif; white-space: pre;" transform="translate(10, 22)" font-weight="bold" font-size="11.7px" font-family="Roboto, sans-serif"><tspan x="2" y="7" dominant-baseline="ideographic">Workplace Comfort</tspan></text></g></g></g><g id="g-root-tx_improvin_dl229v1bj4553-fill" data-item-order="0" transform="translate(506, 428)"><g id="tx_improvin_dl229v1bj4553-fill-merged" stroke="none" fill="#484848" fill-opacity="1"><g><text style="font: 10px Roboto, sans-serif; white-space: pre;" transform="translate(10, 22)" font-size="10px" font-family="Roboto, sans-serif"><tspan x="2" y="0" dominant-baseline="ideographic">Improving the office area for </tspan><tspan x="2" y="12" dominant-baseline="ideographic">better focus</tspan></text></g></g></g><g id="g-root-tx_enhanced_1lpvz7n1bj5jih-fill" data-item-order="0" transform="translate(169, 488)"><g id="tx_enhanced_1lpvz7n1bj5jih-fill-merged" stroke="none" fill="#484848" fill-opacity="1"><g><text style="font: 10px Roboto, sans-serif; white-space: pre;" transform="translate(64, 22)" font-size="10px" font-family="Roboto, sans-serif"><tspan x="-46.3" y="0" dominant-baseline="ideographic">Enhanced Workshop </tspan><tspan x="-29.17" y="12" dominant-baseline="ideographic">Functionality</tspan></text></g></g></g><g id="g-root-cp_1_g-1_metn9f1bj2r60-stroke" data-item-order="-344726" transform="translate(59, 170)"><g id="cp_1_g-1_metn9f1bj2r60-stroke" fill="none" stroke-linecap="round" stroke-linejoin="round" stroke-miterlimit="4" stroke="#ffffff" stroke-width="2" stroke-opacity="1"><g><path d="M 301.5724 107L 339 10L 10 10L 47.4276 107L 301.5724 107Z"></path></g></g></g><g id="g-root-cp_2_g-2_hz054z1bj2ry9-stroke" data-item-order="-344722" transform="translate(96.3809814453125, 267)"><g id="cp_2_g-2_hz054z1bj2ry9-stroke" fill="none" stroke-linecap="round" stroke-linejoin="round" stroke-miterlimit="4" stroke="#ffffff" stroke-width="2" stroke-opacity="1"><g><path d="M 47.6172 105L 226.8046 105L 264.2109 10L 10 10L 47.6172 105Z"></path></g></g></g><g id="g-root-cp_3_g-3_93d4w31bj2sqy-stroke" data-item-order="-344718" transform="translate(134, 362)"><g id="cp_3_g-3_93d4w31bj2sqy-stroke" fill="none" stroke-linecap="round" stroke-linejoin="round" stroke-miterlimit="4" stroke="#ffffff" stroke-width="2" stroke-opacity="1"><g><path d="M 10 10L 47.3671 106.999992L 151.632797 106.999992L 189.198196 10L 10 10Z"></path></g></g></g><g id="g-root-sy_-1_Vector_4o63ur1bj2qdf-stroke" data-item-order="-344711" transform="translate(313.958984375, 409.94921875)"><g id="sy_-1_Vector_4o63ur1bj2qdf-stroke" fill="none" stroke-linecap="round" stroke-linejoin="round" stroke-miterlimit="4" stroke="#484848" stroke-width="2" stroke-opacity="1"><g><path d="M 190.54 10L 12 10"></path><path d="M 18 3.5L 11.5 10L 18 16.5" stroke-dasharray="none"></path></g></g></g><g id="g-root-sy_-1_Vector_1_4o63ur1bj2qdg-stroke" data-item-order="-344707" transform="translate(357.958984375, 313.94921875)"><g id="sy_-1_Vector_1_4o63ur1bj2qdg-stroke" fill="none" stroke-linecap="round" stroke-linejoin="round" stroke-miterlimit="4" stroke="#484848" stroke-width="2" stroke-opacity="1"><g><path d="M 147.04 10L 12 10"></path><path d="M 18 3.5L 11.5 10L 18 16.5" stroke-dasharray="none"></path></g></g></g><g id="g-root-sy_-1_Vector_2_1utn5kz1bj2qz1-stroke" data-item-order="-344703" transform="translate(393.958984375, 217.94921875)"><g id="sy_-1_Vector_2_1utn5kz1bj2qz1-stroke" fill="none" stroke-linecap="round" stroke-linejoin="round" stroke-miterlimit="4" stroke="#484848" stroke-width="2" stroke-opacity="1"><g><path d="M 111.04 10L 12 10"></path><path d="M 18 3.5L 11.5 10L 18 16.5" stroke-dasharray="none"></path></g></g></g><g id="g-root-tx_enhancin_1qdtngj1bj2rra-stroke" data-item-order="0" transform="translate(200, 38)"></g><g id="g-root-tx_initialw_9ljwj1bj46q0-stroke" data-item-order="0" transform="translate(182, 116)"></g><g id="g-root-ic_1_8x4e0z1bj45c3-stroke" data-item-order="0" transform="translate(206, 200)"><g id="ic_1_8x4e0z1bj45c3-stroke" fill="none" stroke-linecap="round" stroke-linejoin="round" stroke-miterlimit="4" stroke="#ffffff" stroke-width="2" stroke-opacity="1"><g><path d="M 30.056499 20.455L 30.056499 14.05C 30.058155 12.467219 31.341719 11.184999 32.9245 11.185L 42.007 11.185C 43.589783 11.184999 44.873344 12.467219 44.875 14.05L 44.875 43.314999C 44.875 44.143429 44.203426 44.814999 43.375 44.814999L 11.125 44.814999M 36.032501 19.4785L 37.466499 19.4785L 37.466499 24.497499M 36.032501 24.497499L 38.899002 24.497499M 36.903999 15.893499C 36.903999 16.204161 37.155838 16.455999 37.466499 16.455999C 37.777161 16.455999 38.028999 16.204161 38.028999 15.8935C 38.028999 15.58284 37.777161 15.331 37.466499 15.331C 37.155838 15.331 36.903999 15.58284 36.903999 15.8935M 26.429501 36.587502C 26.429501 39.382614 28.695389 41.648502 31.490501 41.648502C 34.285614 41.648502 36.551498 39.382614 36.551498 36.587502C 36.551498 33.792389 34.285614 31.526501 31.490501 31.526501C 28.695389 31.526501 26.429501 33.792389 26.429501 36.587502M 11.125 36.587502C 11.125 39.382614 13.390887 41.648502 16.186001 41.648502C 18.981113 41.648502 21.247 39.382614 21.247 36.587502C 21.247 33.792389 18.981113 31.526501 16.186001 31.526501C 13.390887 31.526501 11.125 33.792389 11.125 36.587502M 31.490499 36.587502L 28.677999 25.3405L 32.053001 25.3405M 21.3685 30.132999L 19.8985 25.901501L 22.838501 25.901501M 29.4475 28.433498L 21.3685 30.132999L 16.186001 36.587502"></path></g></g></g><g id="g-root-tx_spatiale_zpnojn1bj46wy-stroke" data-item-order="0" transform="translate(506, 206)"></g><g id="g-root-tx_optimizi_93d4w31bj46wz-stroke" data-item-order="0" transform="translate(506, 236)"></g><g id="g-root-ic_open_zjexoj1bj45c2-stroke" data-item-order="0" transform="translate(206, 296)"><g id="ic_open_zjexoj1bj45c2-stroke" fill="none" stroke-linecap="round" stroke-linejoin="round" stroke-miterlimit="4" stroke="#ffffff" stroke-width="2" stroke-opacity="1"><g><path d="M 25.3615 40.532501C 24.865322 40.532124 24.389864 40.333515 24.04085 39.980835C 23.691833 39.628162 23.498199 39.150654 23.503 38.654503L 23.503 38.654503C 23.513691 37.634876 24.343319 36.813946 25.363001 36.813999L 30.718 36.813999C 31.744078 36.815655 32.575001 37.647923 32.575001 38.674004L 32.575001 38.674C 32.574173 39.700081 31.742579 40.531673 30.716499 40.532501L 25.3615 40.532501ZM 44.875 33.151001L 44.875 43.017998C 44.875 43.827999 44.219498 44.483501 43.4095 44.483501L 12.6505 44.483501C 11.841126 44.483501 11.185 43.827374 11.185 43.017998L 11.185 33.151001M 44.875 33.151001L 11.185 33.151001M 11.125 18.109001L 11.125 12.982C 11.125 12.172 11.7805 11.5165 12.5905 11.5165L 43.349499 11.5165C 44.1595 11.5165 44.814999 12.172 44.814999 12.982L 44.814999 18.109001M 23.128 25.370499C 22.505512 26.264273 21.625414 26.947107 20.605 27.327999L 20.587 33.151001L 16.795 33.151001L 16.814501 27.316C 14.731259 26.522005 13.357105 24.521292 13.363775 22.291882C 13.370445 20.062469 14.756545 18.070015 16.8445 17.2885L 16.834 21.3535L 18.723999 23.255501L 20.622999 21.365499L 20.635 17.300501C 22.176271 17.887928 23.361214 19.152321 23.847519 20.728422C 24.333824 22.304523 24.067324 24.016758 23.125 25.370499ZM 26.407 33.151001L 26.4265 27.646L 31.1035 27.649L 31.1035 33.151001L 26.408501 33.151001ZM 26.761 17.290001L 30.7735 17.290001L 30.7735 19.27C 30.7735 20.378021 29.875271 21.276249 28.76725 21.276249C 27.659227 21.276249 26.761 20.378021 26.761 19.27L 26.761 17.290001ZM 28.756001 21.2785L 28.756001 27.646M 40.091499 25.445499C 42.0452 24.491652 43.073364 22.308046 42.56398 20.194447C 42.054596 18.080845 40.144588 16.605343 37.970856 16.646215C 35.797127 16.687088 33.943932 18.233349 33.514366 20.364603C 33.084801 22.495859 34.194317 24.639271 36.182495 25.518999L 36.172001 33.151001L 40.091499 33.151001L 40.091499 25.445499ZM 36.314499 21.2785C 36.314377 22.242046 37.095451 23.02322 38.058998 23.02322C 39.022545 23.02322 39.803619 22.242046 39.803497 21.2785C 39.803619 20.314953 39.022545 19.533781 38.058998 19.533781C 37.095451 19.533781 36.314377 20.314953 36.314499 21.2785"></path></g></g></g><g id="g-root-tx_toolorga_1hi6n7n1bj46pw-stroke" data-item-order="0" transform="translate(506, 302)"></g><g id="g-root-tx_creating_147clxf1bj4551-stroke" data-item-order="0" transform="translate(506, 332)"></g><g id="g-root-ic_user_147clxf1bj2qz3-stroke" data-item-order="0" transform="translate(206, 392)"><g id="ic_user_147clxf1bj2qz3-stroke" fill="none" stroke-linecap="round" stroke-linejoin="round" stroke-miterlimit="4" stroke="#ffffff" stroke-width="2" stroke-opacity="1"><g><path d="M 10 10M 15.924925 11.125L 20.424925 24.625M 19.02343 20.42968C 19.02343 20.42968 14.424925 22.336569 14.424925 28.375M 27.625 28.674999L 11.125 28.674999M 11.125 28.674999L 11.125 44.875L 18.625 44.875L 18.625 28.825001M 35.125 19.674925C 36.989052 19.674925 38.5 18.163885 38.5 16.299925C 38.5 14.435965 36.989052 12.924925 35.125 12.924925C 33.261101 12.924925 31.75 14.435965 31.75 16.299925C 31.75 18.163885 33.261101 19.674925 35.125 19.674925ZM 28.043652 42.2929L 30.325001 37.375C 30.775002 36.625 31.52515 36.175003 32.27515 36.175003L 35.125149 36.175003C 36.32515 36.175003 37.375149 35.125 37.375149 33.924999L 37.375149 24.175014C 37.375149 23.275015 36.925003 22.525015 36.175003 22.225016C 35.425003 21.775015 34.525002 21.925014 33.924999 22.375015L 32.27515 23.425014C 30.92515 24.325014 28.525002 24.175014 25.825001 24.175014C 24.625074 24.175014 23.575075 25.224998 23.575075 26.424999C 23.575075 27.625 24.625074 28.674999 25.825001 28.674999L 29.725149 28.674999C 30.77515 28.674999 31.82515 28.525002 32.875149 28.075001L 32.875149 31.674999L 32.27515 31.674999C 29.725149 31.674999 27.32515 33.174999 26.27515 35.425003L 23.993589 40.342899C 23.393589 41.392899 23.843605 42.742901 25.043652 43.342899C 26.39365 43.942898 27.593651 43.192898 28.043652 42.2929ZM 35.125 36.175003L 39.775002 36.175003C 40.525002 36.175003 41.125 35.574997 41.275002 34.824997L 43.074997 22.075031C 43.224998 21.325031 43.824997 20.725031 44.574997 20.725031L 44.875 20.725031M 36.175003 36.175003L 36.175003 44.875M 30.924999 44.875L 40.675003 44.875"></path></g></g></g><g id="g-root-tx_workplac_qvw3k31bj46py-stroke" data-item-order="0" transform="translate(506, 398)"></g><g id="g-root-tx_improvin_dl229v1bj4553-stroke" data-item-order="0" transform="translate(506, 428)"></g><g id="g-root-tx_enhanced_1lpvz7n1bj5jih-stroke" data-item-order="0" transform="translate(169, 488)"></g></g></g></svg>