<?xml version="1.0" encoding="utf-8" standalone="yes"?>
<!DOCTYPE svg PUBLIC "-//W3C//DTD SVG 1.1//EN" "http://www.w3.org/Graphics/SVG/1.1/DTD/svg11.dtd">
<svg style="fill:none;stroke:none;fill-rule:evenodd;clip-rule:evenodd;stroke-linecap:round;stroke-linejoin:round;stroke-miterlimit:1.5;" version="1.1" xmlns="http://www.w3.org/2000/svg" xmlns:xlink="http://www.w3.org/1999/xlink" width="780" height="654" viewBox="0 0 780 654"><style class="text-font-style fontImports" data-font-family="Roboto">@import url(https://fonts.googleapis.com/css2?family=Roboto:wght@400;700&amp;amp;display=block);</style><g id="items" style="isolation: isolate"><g id="blend" style="mix-blend-mode: normal"><g id="g-root-cp_0_g-0_1cws6vze873f1-fill" data-item-order="-408446" transform="translate(206, 134)"><g id="cp_0_g-0_1cws6vze873f1-fill-merged" stroke="none" fill="#484848" fill-opacity="1"><g><path d="M115.615 125.487C114.223 129.428 112.26 133.099 109.826 136.4L101.341 148.341C96.617 159.275 94 171.332 94 184C94 218.605 113.53 248.648 142.169 263.708C144.085 242.289 162.082 225.5 184 225.5C205.918 225.5 223.915 242.289 225.831 263.708C254.47 248.648 274 218.605 274 184C274 166.205 268.835 149.616 259.923 135.65L238 166.5L204.346 119.132C199.252 112.321 196.176 103.913 196.007 94.794C192.079 94.27 188.071 94 184 94C156.634 94 132.121 106.214 115.615 125.487"></path></g></g><g id="cp_0_g-0_1cws6vze873f1-fill-merged" stroke="none" fill="#484848" fill-opacity="1"><g><path d="M52 184C52 250.828 101.661 306.057 166.093 314.796L150.346 292.632C145.104 285.624 142 276.925 142 267.5C142 266.234 142.056 264.98 142.166 263.743C113.51 248.679 93.968 218.621 93.968 184C93.968 171.38 96.565 159.366 101.253 148.464L76 184L55.244 154.786C53.121 164.183 52 173.961 52 184 M103.271 79.557C112.285 87.26 118 98.713 118 111.5C118 116.373 117.17 121.053 115.644 125.405C132.156 106.16 156.654 93.968 184 93.968C188.071 93.968 192.079 94.239 196.007 94.762C196.002 94.508 196 94.255 196 94C196 77.722 205.26 63.607 218.8 56.636C207.713 53.613 196.045 52 184 52C153.593 52 125.588 62.281 103.271 79.557 M316 184C316 250.826 266.341 306.054 201.912 314.795L217.826 292.4C222.964 285.433 226 276.821 226 267.5C226 266.234 225.944 264.98 225.834 263.743C254.49 248.679 274.032 218.621 274.032 184C274.032 166.194 268.862 149.595 259.943 135.622L271.826 118.9C276.964 111.933 280 103.321 280 94C280 93.799 279.999 93.598 279.996 93.397C302.316 117.038 316 148.921 316 184"></path></g></g><g id="cp_0_g-0_1cws6vze873f1-fill-merged" stroke="none" fill="#484848" fill-opacity="1"><g><path d="M184 358C280.098 358 358 280.098 358 184C358 87.902 280.098 10 184 10C87.902 10 10 87.902 10 184C10 280.098 87.902 358 184 358 M52.03 184C52.03 250.803 101.666 306.013 166.069 314.762L184 340L201.935 314.762C266.336 306.011 315.97 250.802 315.97 184C315.97 148.941 302.299 117.074 279.996 93.441C279.697 70.503 261.009 52 238 52C231.066 52 224.525 53.68 218.761 56.656C207.686 53.64 196.031 52.03 184 52.03C153.602 52.03 125.605 62.307 103.294 79.576C95.953 73.294 86.42 69.5 76 69.5C52.804 69.5 34 88.304 34 111.5C34 120.925 37.104 129.624 42.346 136.632L55.267 154.819C53.148 164.206 52.03 173.972 52.03 184"></path></g></g></g><g id="g-root-cp_1_g-1_1cws6vze873f2-fill" data-item-order="-408438" transform="translate(392, 176)"><g id="cp_1_g-1_1cws6vze873f2-fill-merged" stroke="none" fill="#4e88e7" fill-opacity="1"><g><path d="M85.826 76.9C90.964 69.933 94 61.321 94 52C94 28.804 75.196 10 52 10C28.804 10 10 28.804 10 52C10 61.425 13.104 70.124 18.346 77.132L52 124.5L85.826 76.9"></path></g></g></g><g id="g-root-cp_2_g-2_18hl5une8711q-fill" data-item-order="-408434" transform="translate(338, 349.5)"><g id="cp_2_g-2_18hl5une8711q-fill-merged" stroke="none" fill="#3cc583" fill-opacity="1"><g><path d="M85.826 76.9C90.964 69.933 94 61.321 94 52C94 28.804 75.196 10 52 10C28.804 10 10 28.804 10 52C10 61.425 13.104 70.124 18.346 77.132L52 124.5L85.826 76.9"></path></g></g></g><g id="g-root-cp_3_g-3_1cws6vze873f3-fill" data-item-order="-408430" transform="translate(230, 193.5)"><g id="cp_3_g-3_1cws6vze873f3-fill-merged" stroke="none" fill="#969696" fill-opacity="1"><g><path d="M85.826 76.9C90.964 69.933 94 61.321 94 52C94 28.804 75.196 10 52 10C28.804 10 10 28.804 10 52C10 61.425 13.104 70.124 18.346 77.132L52 124.5L85.826 76.9"></path></g></g></g><g id="g-root-tx_shopfunc_1cws6vze873f0-fill" data-item-order="0" transform="translate(128, 38)"><g id="tx_shopfunc_1cws6vze873f0-fill-merged" stroke="none" fill="#484848" fill-opacity="1"><g><text style="font: bold 25px Roboto, sans-serif; white-space: pre;" transform="translate(262, 34)" font-weight="bold" font-size="25px" font-family="Roboto, sans-serif"><tspan x="-175.26" y="15" dominant-baseline="ideographic">Functional Zoning for BikeWalk</tspan></text></g></g></g><g id="g-root-tx_communit_18hl5une8711k-fill" data-item-order="0" transform="translate(566, 176)"><g id="tx_communit_18hl5une8711k-fill-merged" stroke="none" fill="#4e88e7" fill-opacity="1"><g><text style="font: bold 20px Roboto, sans-serif; white-space: pre;" transform="translate(10, 34)" font-weight="bold" font-size="20px" font-family="Roboto, sans-serif"><tspan x="2" y="-0" dominant-baseline="ideographic">1. Community </tspan><tspan x="2" y="24" dominant-baseline="ideographic">Engagement</tspan></text></g></g></g><g id="g-root-tx_repairan_18hl5une8711l-fill" data-item-order="0" transform="translate(26, 194)"><g id="tx_repairan_18hl5une8711l-fill-merged" stroke="none" fill="#969696" fill-opacity="1"><g><text style="font: bold 20px Roboto, sans-serif; white-space: pre;" transform="translate(178, 34)" font-weight="bold" font-size="20px" font-family="Roboto, sans-serif"><tspan x="-163.6" y="-0" dominant-baseline="ideographic">3. Repair and Tool </tspan><tspan x="-47.24" y="24" dominant-baseline="ideographic">Zone</tspan></text></g></g></g><g id="g-root-tx_1_18hl5une8711m-fill" data-item-order="0" transform="translate(422, 200)"><g id="tx_1_18hl5une8711m-fill-merged" stroke="none" fill="#ffffff" fill-opacity="1"><g><text style="font: bold 25px Roboto, sans-serif; white-space: pre;" transform="translate(22, 28)" font-weight="bold" font-size="25px" font-family="Roboto, sans-serif"><tspan x="-7.17" y="15" dominant-baseline="ideographic">1</tspan></text></g></g></g><g id="g-root-tx_3_18hl5une8711n-fill" data-item-order="0" transform="translate(260, 218)"><g id="tx_3_18hl5une8711n-fill-merged" stroke="none" fill="#ffffff" fill-opacity="1"><g><text style="font: bold 25px Roboto, sans-serif; white-space: pre;" transform="translate(22, 28)" font-weight="bold" font-size="25px" font-family="Roboto, sans-serif"><tspan x="-7.17" y="15" dominant-baseline="ideographic">3</tspan></text></g></g></g><g id="g-root-tx_spacefor_18hl5une8711o-fill" data-item-order="0" transform="translate(566, 236)"><g id="tx_spacefor_18hl5une8711o-fill-merged" stroke="none" fill="#484848" fill-opacity="1"><g><text style="font: 15px Roboto, sans-serif; white-space: pre;" transform="translate(10, 28)" font-size="15px" font-family="Roboto, sans-serif"><tspan x="2" y="0" dominant-baseline="ideographic">Space for events and </tspan><tspan x="2" y="18" dominant-baseline="ideographic">education</tspan></text></g></g></g><g id="g-root-tx_areaform_18hl5une8711p-fill" data-item-order="0" transform="translate(26, 254)"><g id="tx_areaform_18hl5une8711p-fill-merged" stroke="none" fill="#484848" fill-opacity="1"><g><text style="font: 15px Roboto, sans-serif; white-space: pre;" transform="translate(178, 28)" font-size="15px" font-family="Roboto, sans-serif"><tspan x="-160.67" y="0" dominant-baseline="ideographic">Area for mechanics and </tspan><tspan x="-47.96" y="18" dominant-baseline="ideographic">repairs</tspan></text></g></g></g><g id="g-root-tx_2_18hl5une8711r-fill" data-item-order="0" transform="translate(368, 373.5)"><g id="tx_2_18hl5une8711r-fill-merged" stroke="none" fill="#ffffff" fill-opacity="1"><g><text style="font: bold 25px Roboto, sans-serif; white-space: pre;" transform="translate(22, 28)" font-weight="bold" font-size="25px" font-family="Roboto, sans-serif"><tspan x="-7.17" y="15" dominant-baseline="ideographic">2</tspan></text></g></g></g><g id="g-root-tx_learning_1cxenz3e8711c-fill" data-item-order="0" transform="translate(302, 500)"><g id="tx_learning_1cxenz3e8711c-fill-merged" stroke="none" fill="#3cc583" fill-opacity="1"><g><text style="font: bold 20px Roboto, sans-serif; white-space: pre;" transform="translate(88, 34)" font-weight="bold" font-size="20px" font-family="Roboto, sans-serif"><tspan x="-72.08" y="-0" dominant-baseline="ideographic">2. Learning and </tspan><tspan x="-47.75" y="24" dominant-baseline="ideographic">Workshop</tspan></text></g></g></g><g id="g-root-tx_flexible_1cxenz3e8711d-fill" data-item-order="0" transform="translate(302, 560)"><g id="tx_flexible_1cxenz3e8711d-fill-merged" stroke="none" fill="#484848" fill-opacity="1"><g><text style="font: 15px Roboto, sans-serif; white-space: pre;" transform="translate(88, 28)" font-size="15px" font-family="Roboto, sans-serif"><tspan x="-70.28" y="0" dominant-baseline="ideographic">Flexible learning and </tspan><tspan x="-51.08" y="18" dominant-baseline="ideographic">workshop area</tspan></text></g></g></g><g id="g-root-cp_0_g-0_1cws6vze873f1-stroke" data-item-order="-408446" transform="translate(206, 134)"><g id="cp_0_g-0_1cws6vze873f1-stroke" fill="none" stroke-linecap="round" stroke-linejoin="round" stroke-miterlimit="4" stroke="#484848" stroke-width="2" stroke-opacity="1"><g><path d="M 115.6146 125.4873C 114.2232 129.4279 112.2605 133.0988 109.826 136.4004L 101.3407 148.3409C 96.6173 159.2751 94 171.3319 94 184C 94 218.6046 113.5299 248.6477 142.1688 263.7085C 144.0854 242.2891 162.082 225.5 184 225.5C 205.918 225.5 223.9147 242.2891 225.8312 263.7085C 254.4701 248.6477 274 218.6046 274 184C 274 166.2047 268.8353 149.6157 259.9231 135.6501L 238 166.5L 204.3459 119.1319C 199.2517 112.3213 196.1764 103.9129 196.0074 94.794C 192.0794 94.2703 188.0712 94 184 94C 156.6343 94 132.1212 106.2137 115.6146 125.4873Z"></path></g></g><g id="cp_0_g-0_1cws6vze873f1-stroke" fill="none" stroke-linecap="round" stroke-linejoin="round" stroke-miterlimit="4" stroke="#484848" stroke-width="2" stroke-opacity="1"><g><path d="M 52 184C 52 250.828 101.6613 306.0569 166.0928 314.7956L 150.3459 292.6319C 145.1042 285.6241 142 276.9246 142 267.5C 142 266.2337 142.056 264.9804 142.1658 263.7426C 113.5104 248.6786 93.9684 218.6214 93.9684 184C 93.9684 171.3799 96.565 159.3662 101.2531 148.4641L 76 184L 55.2439 154.7859C 53.1207 164.1833 52 173.9608 52 184ZM 103.2706 79.5566C 112.2853 87.26 118 98.7126 118 111.5C 118 116.3733 117.17 121.0528 115.6436 125.4048C 132.1555 106.1602 156.654 93.9684 184 93.9684C 188.071 93.9684 192.0789 94.2386 196.0068 94.762C 196.0023 94.5085 196 94.2545 196 94C 196 77.7221 205.2602 63.6071 218.8 56.6355C 207.713 53.6133 196.0449 52 184 52C 153.5934 52 125.5881 62.2811 103.2706 79.5566ZM 316 184C 316 250.8264 266.3409 306.0544 201.9116 314.795L 217.826 292.4004C 222.9636 285.4329 226 276.821 226 267.5C 226 266.2337 225.944 264.9804 225.8342 263.7426C 254.4896 248.6786 274.0316 218.6214 274.0316 184C 274.0316 166.1938 268.8625 149.595 259.9429 135.6222L 271.826 118.9004C 276.9636 111.9329 280 103.321 280 94C 280 93.7987 279.9986 93.5977 279.9958 93.397C 302.3164 117.0377 316 148.9209 316 184Z"></path></g></g><g id="cp_0_g-0_1cws6vze873f1-stroke" fill="none" stroke-linecap="round" stroke-linejoin="round" stroke-miterlimit="4" stroke="#484848" stroke-width="2" stroke-opacity="1"><g><path d="M 184 358C 280.0975 358 358 280.0975 358 184C 358 87.9025 280.0975 10 184 10C 87.9025 10 10 87.9025 10 184C 10 280.0975 87.9025 358 184 358ZM 52.0299 184C 52.0299 250.8032 101.6657 306.0133 166.069 314.7621L 184 340L 201.9354 314.7616C 266.3365 306.0108 315.9701 250.8017 315.9701 184C 315.9701 148.9406 302.2987 117.0742 279.9964 93.4412C 279.6973 70.5028 261.0094 52 238 52C 231.0661 52 224.5247 53.6803 218.7607 56.6558C 207.6856 53.6398 196.0308 52.0299 184 52.0299C 153.6025 52.0299 125.6054 62.3071 103.2938 79.5764C 95.9529 73.2942 86.4196 69.5 76 69.5C 52.804 69.5 34 88.304 34 111.5C 34 120.9246 37.1042 129.6241 42.3459 136.6319L 55.2672 154.8186C 53.1483 164.2059 52.0299 173.9724 52.0299 184Z"></path></g></g></g><g id="g-root-cp_1_g-1_1cws6vze873f2-stroke" data-item-order="-408438" transform="translate(392, 176)"><g id="cp_1_g-1_1cws6vze873f2-stroke" fill="none" stroke-linecap="round" stroke-linejoin="round" stroke-miterlimit="4" stroke="#ffffff" stroke-width="2" stroke-opacity="1"><g><path d="M 85.826 76.9004C 90.9636 69.9329 94 61.321 94 52C 94 28.804 75.196 10 52 10C 28.804 10 10 28.804 10 52C 10 61.4246 13.1042 70.1241 18.3459 77.1319L 52 124.5L 85.826 76.9004Z"></path></g></g></g><g id="g-root-cp_2_g-2_18hl5une8711q-stroke" data-item-order="-408434" transform="translate(338, 349.5)"><g id="cp_2_g-2_18hl5une8711q-stroke" fill="none" stroke-linecap="round" stroke-linejoin="round" stroke-miterlimit="4" stroke="#ffffff" stroke-width="2" stroke-opacity="1"><g><path d="M 85.826 76.9004C 90.9636 69.9329 94 61.321 94 52C 94 28.804 75.196 10 52 10C 28.804 10 10 28.804 10 52C 10 61.4246 13.1042 70.1241 18.3459 77.1319L 52 124.5L 85.826 76.9004Z"></path></g></g></g><g id="g-root-cp_3_g-3_1cws6vze873f3-stroke" data-item-order="-408430" transform="translate(230, 193.5)"><g id="cp_3_g-3_1cws6vze873f3-stroke" fill="none" stroke-linecap="round" stroke-linejoin="round" stroke-miterlimit="4" stroke="#ffffff" stroke-width="2" stroke-opacity="1"><g><path d="M 85.826 76.9004C 90.9636 69.9329 94 61.321 94 52C 94 28.804 75.196 10 52 10C 28.804 10 10 28.804 10 52C 10 61.4246 13.1042 70.1241 18.3459 77.1319L 52 124.5L 85.826 76.9004Z"></path></g></g></g><g id="g-root-tx_shopfunc_1cws6vze873f0-stroke" data-item-order="0" transform="translate(128, 38)"></g><g id="g-root-tx_communit_18hl5une8711k-stroke" data-item-order="0" transform="translate(566, 176)"></g><g id="g-root-tx_repairan_18hl5une8711l-stroke" data-item-order="0" transform="translate(26, 194)"></g><g id="g-root-tx_1_18hl5une8711m-stroke" data-item-order="0" transform="translate(422, 200)"></g><g id="g-root-tx_3_18hl5une8711n-stroke" data-item-order="0" transform="translate(260, 218)"></g><g id="g-root-tx_spacefor_18hl5une8711o-stroke" data-item-order="0" transform="translate(566, 236)"></g><g id="g-root-tx_areaform_18hl5une8711p-stroke" data-item-order="0" transform="translate(26, 254)"></g><g id="g-root-tx_2_18hl5une8711r-stroke" data-item-order="0" transform="translate(368, 373.5)"></g><g id="g-root-tx_learning_1cxenz3e8711c-stroke" data-item-order="0" transform="translate(302, 500)"></g><g id="g-root-tx_flexible_1cxenz3e8711d-stroke" data-item-order="0" transform="translate(302, 560)"></g></g></g></svg>