<?xml version="1.0" encoding="utf-8" standalone="yes"?>
<!DOCTYPE svg PUBLIC "-//W3C//DTD SVG 1.1//EN" "http://www.w3.org/Graphics/SVG/1.1/DTD/svg11.dtd">
<svg style="fill:none;stroke:none;fill-rule:evenodd;clip-rule:evenodd;stroke-linecap:round;stroke-linejoin:round;stroke-miterlimit:1.5;" version="1.1" xmlns="http://www.w3.org/2000/svg" xmlns:xlink="http://www.w3.org/1999/xlink" width="1068" height="516" viewBox="0 0 1068 516"><style class="text-font-style fontImports" data-font-family="Roboto">@import url(https://fonts.googleapis.com/css2?family=Roboto:wght@400;700&amp;amp;display=block);</style><g id="items" style="isolation: isolate"><g id="blend" style="mix-blend-mode: normal"><g id="g-root-cp_1_g-1_1_8x5ma8km3chy-fill" data-item-order="-367876" transform="translate(278, 98)"><g id="cp_1_g-1_1_8x5ma8km3chy-fill-merged" stroke="none" fill="#41a877" fill-opacity="1"><g><path d="M214 22 V178 H10 V22C10 15.396 15.396 10 22 10 H202C208.616 10 214 15.384 214 22"></path></g></g></g><g id="g-root-cp_0_g-0_1_1im1ckm3dan-fill" data-item-order="-367848" transform="translate(278, 266)"><g id="cp_0_g-0_1_1im1ckm3dan-fill-merged" stroke="none" fill="#484848" fill-opacity="1"><g><path d="M10 178 V10 H214 V178C214 184.627 208.627 190 202 190 H22C15.373 190 10 184.627 10 178"></path></g></g></g><g id="g-root-cp_1-1_cell-1-1_1umt5w0km3dvs-fill" data-item-order="-367827" transform="translate(290, 278)"></g><g id="g-root-cp_2-1_cell-2-1_1q7m4uokm3bi9-fill" data-item-order="-367809" transform="translate(290, 350)"></g><g id="g-root-cp_1_g-1_2_1q7m4uokm3bia-fill" data-item-order="-367790" transform="translate(506, 98)"><g id="cp_1_g-1_2_1q7m4uokm3bia-fill-merged" stroke="none" fill="#41a877" fill-opacity="1"><g><path d="M214 22 V178 H10 V22C10 15.396 15.396 10 22 10 H202C208.616 10 214 15.384 214 22"></path></g></g></g><g id="g-root-cp_0_g-0_2_1hbz4lskm3caz-fill" data-item-order="-367762" transform="translate(506, 266)"><g id="cp_0_g-0_2_1hbz4lskm3caz-fill-merged" stroke="none" fill="#484848" fill-opacity="1"><g><path d="M10 178 V10 H214 V178C214 184.627 208.627 190 202 190 H22C15.373 190 10 184.627 10 178"></path></g></g></g><g id="g-root-cp_1-2_cell-1-2_1cw5mhckm3d38-fill" data-item-order="-367741" transform="translate(518, 278)"></g><g id="g-root-cp_2-2_cell-2-2_140im8gkm3dvx-fill" data-item-order="-367723" transform="translate(518, 350)"></g><g id="g-root-cp_1_g-1_3_zlbl74km3bie-fill" data-item-order="-367704" transform="translate(734, 98)"><g id="cp_1_g-1_3_zlbl74km3bie-fill-merged" stroke="none" fill="#41a877" fill-opacity="1"><g><path d="M214 22 V178 H10 V22C10 15.396 15.396 10 22 10 H202C208.616 10 214 15.384 214 22"></path></g></g></g><g id="g-root-cp_0_g-0_3_qpoky8km3cb3-fill" data-item-order="-367674" transform="translate(734, 266)"><g id="cp_0_g-0_3_qpoky8km3cb3-fill-merged" stroke="none" fill="#484848" fill-opacity="1"><g><path d="M10 178 V10 H214 V178C214 184.627 208.627 190 202 190 H22C15.373 190 10 184.627 10 178"></path></g></g></g><g id="g-root-cp_1-3_cell-1-3_v5i32okm3cao-fill" data-item-order="-367653" transform="translate(746, 278)"></g><g id="g-root-cp_2-3_cell-2-3_m9v2tskm3d3d-fill" data-item-order="-367635" transform="translate(746, 350)"></g><g id="g-root-ic_micr_1449gr4km3bwl-fill" data-item-order="-2304" transform="translate(356, 122)"><g id="ic_micr_1449gr4km3bwl-fill-merged" stroke="none" fill="#ffffff" fill-opacity="1"><g><path d="M57.7 24.3L47.7 14.3C47.481 14.037 47.133 13.921 46.8 14C46.7 13.991 46.6 13.991 46.5 14 H11C10.448 14 10 14.448 10 15 V53C10 53.552 10.448 54 11 54 H20C20.552 54 21 53.552 21 53 V30 H28 V53C28 53.552 28.448 54 29 54 H38C38.552 54 39 53.552 39 53 V30 H46 V53C46 53.552 46.448 54 47 54 H57C57.552 54 58 53.552 58 53 V25C58.003 24.735 57.894 24.481 57.7 24.3 M21 26 V18 H28 V26 H21 M39 26 V18 H46 V26 H39"></path></g></g></g><g id="g-root-ic_rota_18mkv80km8ykk-fill" data-item-order="-2304" transform="translate(812, 122)"><g id="ic_rota_18mkv80km8ykk-fill-merged" stroke="none" fill="#ffffff" fill-opacity="1"><g><path d="M41.774 10.234C42.099 10.007 42.527 9.994 42.866 10.2L46.466 12.4C46.935 12.686 47.085 13.297 46.802 13.768L44.402 17.768C44.189 18.124 43.778 18.311 43.37 18.239C42.961 18.166 42.64 17.849 42.562 17.442L42.302 16.096C41.302 16.596 40.426 17.298 39.726 18.156C42.214 20.264 45.446 21.454 49.144 21.454C50.782 21.454 52.25 21.248 53.58 20.794C53.12 19.3 52.197 17.99 50.944 17.054C50.06 16.391 49.881 15.138 50.544 14.254C51.207 13.37 52.46 13.191 53.344 13.854C56.264 16.044 57.944 19.446 57.944 23.254C57.944 29.958 52.648 35.254 45.944 35.254C39.238 35.254 33.944 29.958 33.944 23.254C33.944 18.126 37.044 13.81 41.524 12.072L41.36 11.244C41.285 10.855 41.447 10.46 41.772 10.234 M53.78 24.908C52.264 25.286 50.706 25.47 49.144 25.456C44.964 25.456 41.144 24.216 38.048 21.928C37.978 22.367 37.944 22.81 37.944 23.254C37.944 27.75 41.448 31.254 45.944 31.254C49.87 31.254 53.042 28.58 53.78 24.908 M33.948 31.468C35.263 33.398 37.028 34.978 39.092 36.07C39.29 36.522 39.506 36.9 39.726 37.206C40.368 38.105 40.159 39.354 39.26 39.996C38.361 40.637 37.112 40.429 36.47 39.53C35.844 38.636 35.356 37.653 35.024 36.614C33.278 38.464 30.844 39.508 28.3 39.5C25.602 39.509 23.035 38.333 21.28 36.284C20.944 37.444 20.42 38.54 19.728 39.53C19.075 40.396 17.851 40.584 16.968 39.954C16.086 39.323 15.866 38.104 16.474 37.206C17.18 36.216 17.872 34.494 17.9 31.938 H18.9C22.336 31.902 25.637 30.563 28.1 28.168C29.729 29.758 31.745 30.896 33.948 31.468 M31.84 19.832C31.576 20.953 31.443 22.102 31.444 23.254C31.444 25.24 31.83 27.126 32.534 28.84C31.124 28.186 29.873 27.236 28.864 26.054C28.674 25.829 28.394 25.699 28.1 25.699C27.806 25.699 27.526 25.829 27.336 26.054C25.33 28.426 22.21 29.9 18.9 29.9 H17.9 V29.3C17.9 23.748 22.548 19.1 28.1 19.1C29.414 19.1 30.678 19.36 31.84 19.832 M13.42 50.224C16.184 45.124 21.708 41.5 27.9 41.5C34.298 41.5 39.62 45.13 42.38 50.224C42.548 50.534 42.54 50.909 42.359 51.212C42.179 51.515 41.852 51.7 41.5 51.7 H14.3C13.948 51.7 13.621 51.515 13.441 51.212C13.26 50.909 13.252 50.534 13.42 50.224 M12.9 54C11.795 54 10.9 54.895 10.9 56C10.9 57.105 11.795 58 12.9 58 H42.9C44.005 58 44.9 57.105 44.9 56C44.9 54.895 44.005 54 42.9 54 H12.9"></path></g></g></g><g id="g-root-ic_iden_18lbx1skm64um-fill" data-item-order="-2304" transform="translate(584, 122)"><g id="ic_iden_18lbx1skm64um-fill-merged" stroke="none" fill="#ffffff" fill-opacity="1"><g><path d="M51.52 36.82C49.898 35.134 47.696 34.126 45.36 34C48.393 28.812 48.263 22.362 45.023 17.3C41.784 12.238 35.981 9.419 30 10C25.77 10.377 21.863 12.42 19.14 15.68C15.274 20.277 14.273 26.638 16.54 32.2L14 44C13.832 44.746 14.104 45.522 14.7 46C15.057 46.287 15.502 46.442 15.96 46.44C16.242 46.445 16.521 46.39 16.78 46.28L27.22 41.62C29.97 42.368 32.87 42.368 35.62 41.62C35.51 42.16 35.449 42.709 35.44 43.26C35.396 46.904 37.45 50.25 40.72 51.86L42.82 56.82C43.127 57.546 43.832 58.024 44.62 58.04C45.401 58.042 46.112 57.589 46.44 56.88L48.68 52C51.46 50.731 53.45 48.19 54.015 45.186C54.579 42.183 53.649 39.092 51.52 36.9 V36.82 M27.52 37.54C27.057 37.361 26.543 37.361 26.08 37.54L18.7 40.94L20.7 32.44C20.785 32.009 20.736 31.563 20.56 31.16C18.528 26.911 19.169 21.865 22.2 18.26C24.26 15.798 27.22 14.263 30.42 14 H31.42C36.029 14.213 40.108 17.05 41.911 21.298C43.714 25.545 42.922 30.45 39.874 33.914C36.826 37.378 32.062 38.788 27.62 37.54 H27.52 M46.44 48.48C45.929 48.656 45.51 49.031 45.28 49.52L44.56 51.08L44 49.52C43.788 49.012 43.375 48.614 42.86 48.42C40.465 47.472 39.074 44.964 39.536 42.431C39.998 39.897 42.185 38.042 44.76 38C47.746 38.044 50.133 40.494 50.1 43.48C50.057 45.721 48.643 47.706 46.54 48.48 H46.44"></path></g></g></g><g id="g-root-tx_bikewalk_59gk0km3bbg-fill" data-item-order="0" transform="translate(284, 38)"><g id="tx_bikewalk_59gk0km3bbg-fill-merged" stroke="none" fill="#484848" fill-opacity="1"><g><text style="font: bold 25px Roboto, sans-serif; white-space: pre;" transform="translate(226, 28)" font-weight="bold" font-size="25px" font-family="Roboto, sans-serif"><tspan x="-210.2" y="15" dominant-baseline="ideographic">Bike Walk Tompkins Design Elements</tspan></text></g></g></g><g id="g-root-tx_humancen_1uuay34klpafh-fill" data-item-order="0" transform="translate(782, 182)"><g id="tx_humancen_1uuay34klpafh-fill-merged" stroke="none" fill="#ffffff" fill-opacity="1"><g><text style="font: bold 20px Roboto, sans-serif; white-space: pre;" transform="translate(64, 46)" font-weight="bold" font-size="20px" font-family="Roboto, sans-serif"><tspan x="-36.23" y="-12" dominant-baseline="ideographic">Human-</tspan><tspan x="-40.94" y="12" dominant-baseline="ideographic">Centered </tspan><tspan x="-49.67" y="36" dominant-baseline="ideographic">Experience</tspan></text></g></g></g><g id="g-root-tx_material_91ixw0km8yyp-fill" data-item-order="0" transform="translate(542, 182)"><g id="tx_material_91ixw0km8yyp-fill-merged" stroke="none" fill="#ffffff" fill-opacity="1"><g><text style="font: bold 20px Roboto, sans-serif; white-space: pre;" transform="translate(76, 34)" font-weight="bold" font-size="20px" font-family="Roboto, sans-serif"><tspan x="-59.82" y="-0" dominant-baseline="ideographic">Materiality &amp; </tspan><tspan x="-36.49" y="24" dominant-baseline="ideographic">Identity</tspan></text></g></g></g><g id="g-root-tx_spatials_909zpskm658r-fill" data-item-order="0" transform="translate(338, 182)"><g id="tx_spatials_909zpskm658r-fill-merged" stroke="none" fill="#ffffff" fill-opacity="1"><g><text style="font: bold 20px Roboto, sans-serif; white-space: pre;" transform="translate(52, 34)" font-weight="bold" font-size="20px" font-family="Roboto, sans-serif"><tspan x="-31.17" y="-0" dominant-baseline="ideographic">Spatial </tspan><tspan x="-37.93" y="24" dominant-baseline="ideographic">Strategy</tspan></text></g></g></g><g id="g-root-tx_coreelem_hu1kpckm3dvm-fill" data-item-order="0" transform="translate(110, 296)"><g id="tx_coreelem_hu1kpckm3dvm-fill-merged" stroke="none" fill="#484848" fill-opacity="1"><g><text style="font: bold 20px Roboto, sans-serif; white-space: pre;" transform="translate(142, 22)" font-weight="bold" font-size="20px" font-family="Roboto, sans-serif"><tspan x="-122.74" y="12" dominant-baseline="ideographic">Core Element</tspan></text></g></g></g><g id="g-root-tx_rhythmof_zofymokm6490-fill" data-item-order="0" transform="translate(314, 290)"><g id="tx_rhythmof_zofymokm6490-fill-merged" stroke="none" fill="#ffffff" fill-opacity="1"><g><text style="font: 15px Roboto, sans-serif; white-space: pre;" transform="translate(76, 28)" font-size="15px" font-family="Roboto, sans-serif"><tspan x="-58.61" y="0" dominant-baseline="ideographic">Modular Storage, </tspan><tspan x="-48.21" y="18" dominant-baseline="ideographic">Activity zones</tspan></text></g></g></g><g id="g-root-tx_reclaime_v9veogkm8xze-fill" data-item-order="0" transform="translate(542, 290)"><g id="tx_reclaime_v9veogkm8xze-fill-merged" stroke="none" fill="#ffffff" fill-opacity="1"><g><text style="font: 15px Roboto, sans-serif; white-space: pre;" transform="translate(76, 28)" font-size="15px" font-family="Roboto, sans-serif"><tspan x="-58.66" y="0" dominant-baseline="ideographic">Reclaimed wood, </tspan><tspan x="-42.92" y="18" dominant-baseline="ideographic">steel, rubber</tspan></text></g></g></g><g id="g-root-tx_accessib_m7d9n4klqo7a-fill" data-item-order="0" transform="translate(776, 290)"><g id="tx_accessib_m7d9n4klqo7a-fill-merged" stroke="none" fill="#ffffff" fill-opacity="1"><g><text style="font: 15px Roboto, sans-serif; white-space: pre;" transform="translate(70, 28)" font-size="15px" font-family="Roboto, sans-serif"><tspan x="-58.15" y="0" dominant-baseline="ideographic">Accessibility and </tspan><tspan x="-50.21" y="18" dominant-baseline="ideographic">empowerment</tspan></text></g></g></g><g id="g-root-tx_educatio_1lqjrpsklqosv-fill" data-item-order="0" transform="translate(770, 362)"><g id="tx_educatio_1lqjrpsklqosv-fill-merged" stroke="none" fill="#ffffff" fill-opacity="1"><g><text style="font: 15px Roboto, sans-serif; white-space: pre;" transform="translate(76, 40)" font-size="15px" font-family="Roboto, sans-serif"><tspan x="-58.59" y="-9" dominant-baseline="ideographic">Education, repair, </tspan><tspan x="-59.11" y="9" dominant-baseline="ideographic">and advocacy for </tspan><tspan x="-39.33" y="27" dominant-baseline="ideographic">community</tspan></text></g></g></g><g id="g-root-tx_designdr_142e1hskm3cwb-fill" data-item-order="0" transform="translate(110, 380)"><g id="tx_designdr_142e1hskm3cwb-fill-merged" stroke="none" fill="#484848" fill-opacity="1"><g><text style="font: bold 20px Roboto, sans-serif; white-space: pre;" transform="translate(142, 22)" font-weight="bold" font-size="20px" font-family="Roboto, sans-serif"><tspan x="-122.72" y="12" dominant-baseline="ideographic">Design Driver</tspan></text></g></g></g><g id="g-root-tx_fluidpat_6ieq8km651p-fill" data-item-order="0" transform="translate(302, 362)"><g id="tx_fluidpat_6ieq8km651p-fill-merged" stroke="none" fill="#ffffff" fill-opacity="1"><g><text style="font: 15px Roboto, sans-serif; white-space: pre;" transform="translate(88, 40)" font-size="15px" font-family="Roboto, sans-serif"><tspan x="-70.96" y="-9" dominant-baseline="ideographic">Fluid pathways, open </tspan><tspan x="-64.83" y="9" dominant-baseline="ideographic">sightlines, dynamic </tspan><tspan x="-20.97" y="27" dominant-baseline="ideographic">zones</tspan></text></g></g></g><g id="g-root-tx_bikelane_7rcwgkm8yrn-fill" data-item-order="0" transform="translate(536, 362)"><g id="tx_bikelane_7rcwgkm8yrn-fill-merged" stroke="none" fill="#ffffff" fill-opacity="1"><g><text style="font: 15px Roboto, sans-serif; white-space: pre;" transform="translate(82, 40)" font-size="15px" font-family="Roboto, sans-serif"><tspan x="-65.7" y="-9" dominant-baseline="ideographic">Visual continuity of </tspan><tspan x="-65.9" y="9" dominant-baseline="ideographic">physical and digital </tspan><tspan x="-32.44" y="27" dominant-baseline="ideographic">identities</tspan></text></g></g></g><g id="g-root-cp_1_g-1_1_8x5ma8km3chy-stroke" data-item-order="-367876" transform="translate(278, 98)"><g id="cp_1_g-1_1_8x5ma8km3chy-stroke" fill="none" stroke-linecap="round" stroke-linejoin="round" stroke-miterlimit="4" stroke="#44e095" stroke-width="1" stroke-opacity="1"><g><path d="M 22 10C 15.373 10 10 15.373 10 22M 214 178L 214 22M 10 22L 10 178M 22 10L 202 10M 214 22C 214 15.3826 208.6174 10 202 10"></path></g></g></g><g id="g-root-cp_0_g-0_1_1im1ckm3dan-stroke" data-item-order="-367848" transform="translate(278, 266)"><g id="cp_0_g-0_1_1im1ckm3dan-stroke" fill="none" stroke-linecap="round" stroke-linejoin="round" stroke-miterlimit="4" stroke="#ffffff" stroke-width="1" stroke-opacity="1"><g><path d="M 10 178C 10 184.6274 15.3726 190 22 190M 202 190L 22 190M 202 190C 208.6274 190 214 184.6274 214 178M 214 10L 214 178M 10 178L 10 10M 214 10L 10 10"></path></g></g></g><g id="g-root-cp_1-1_cell-1-1_1umt5w0km3dvs-stroke" data-item-order="-367827" transform="translate(290, 278)"><g id="cp_1-1_cell-1-1_1umt5w0km3dvs-stroke" fill="none" stroke-linecap="round" stroke-linejoin="round" stroke-miterlimit="4" stroke="#ffffff" stroke-width="1" stroke-opacity="1"><g><path d="M 10 22L 10 16C 10 12.6863 12.6863 10 16 10L 22 10M 190 22L 190 58M 10 58L 10 22M 22 10L 178 10M 10 58L 10 64C 10 67.3137 12.6863 70 16 70L 22 70M 190 22L 190 16C 190 12.6863 187.3137 10 184 10L 178 10M 178 70L 22 70M 190 58L 190 64C 190 67.3137 187.3137 70 184 70L 178 70"></path></g></g></g><g id="g-root-cp_2-1_cell-2-1_1q7m4uokm3bi9-stroke" data-item-order="-367809" transform="translate(290, 350)"><g id="cp_2-1_cell-2-1_1q7m4uokm3bi9-stroke" fill="none" stroke-linecap="round" stroke-linejoin="round" stroke-miterlimit="4" stroke="#878787" stroke-width="1" stroke-opacity="1"><g><path d="M 10 22L 10 16C 10 12.6863 12.6863 10 16 10L 22 10M 190 22L 190 82M 10 82L 10 22M 22 10L 178 10M 10 82L 10 88C 10 91.3137 12.6863 94 16 94L 22 94M 190 22L 190 16C 190 12.6863 187.3137 10 184 10L 178 10M 178 94L 22 94M 190 82L 190 88C 190 91.3137 187.3137 94 184 94L 178 94"></path></g></g></g><g id="g-root-cp_1_g-1_2_1q7m4uokm3bia-stroke" data-item-order="-367790" transform="translate(506, 98)"><g id="cp_1_g-1_2_1q7m4uokm3bia-stroke" fill="none" stroke-linecap="round" stroke-linejoin="round" stroke-miterlimit="4" stroke="#44e095" stroke-width="1" stroke-opacity="1"><g><path d="M 22 10C 15.373 10 10 15.373 10 22M 214 178L 214 22M 10 22L 10 178M 22 10L 202 10M 214 22C 214 15.3826 208.6174 10 202 10"></path></g></g></g><g id="g-root-cp_0_g-0_2_1hbz4lskm3caz-stroke" data-item-order="-367762" transform="translate(506, 266)"><g id="cp_0_g-0_2_1hbz4lskm3caz-stroke" fill="none" stroke-linecap="round" stroke-linejoin="round" stroke-miterlimit="4" stroke="#ffffff" stroke-width="1" stroke-opacity="1"><g><path d="M 10 178C 10 184.6274 15.3726 190 22 190M 202 190L 22 190M 202 190C 208.6274 190 214 184.6274 214 178M 214 10L 214 178M 10 178L 10 10M 214 10L 10 10"></path></g></g></g><g id="g-root-cp_1-2_cell-1-2_1cw5mhckm3d38-stroke" data-item-order="-367741" transform="translate(518, 278)"><g id="cp_1-2_cell-1-2_1cw5mhckm3d38-stroke" fill="none" stroke-linecap="round" stroke-linejoin="round" stroke-miterlimit="4" stroke="#ffffff" stroke-width="1" stroke-opacity="1"><g><path d="M 10 22L 10 16C 10 12.6863 12.6863 10 16 10L 22 10M 190 22L 190 58M 10 58L 10 22M 22 10L 178 10M 10 58L 10 64C 10 67.3137 12.6863 70 16 70L 22 70M 190 22L 190 16C 190 12.6863 187.3137 10 184 10L 178 10M 178 70L 22 70M 190 58L 190 64C 190 67.3137 187.3137 70 184 70L 178 70"></path></g></g></g><g id="g-root-cp_2-2_cell-2-2_140im8gkm3dvx-stroke" data-item-order="-367723" transform="translate(518, 350)"><g id="cp_2-2_cell-2-2_140im8gkm3dvx-stroke" fill="none" stroke-linecap="round" stroke-linejoin="round" stroke-miterlimit="4" stroke="#afafaf" stroke-width="1" stroke-opacity="1"><g><path d="M 10 22L 10 16C 10 12.6863 12.6863 10 16 10L 22 10M 190 22L 190 82M 10 82L 10 22M 22 10L 178 10M 10 82L 10 88C 10 91.3137 12.6863 94 16 94L 22 94M 190 22L 190 16C 190 12.6863 187.3137 10 184 10L 178 10M 178 94L 22 94M 190 82L 190 88C 190 91.3137 187.3137 94 184 94L 178 94"></path></g></g></g><g id="g-root-cp_1_g-1_3_zlbl74km3bie-stroke" data-item-order="-367704" transform="translate(734, 98)"><g id="cp_1_g-1_3_zlbl74km3bie-stroke" fill="none" stroke-linecap="round" stroke-linejoin="round" stroke-miterlimit="4" stroke="#44e095" stroke-width="1" stroke-opacity="1"><g><path d="M 22 10C 15.373 10 10 15.373 10 22M 214 178L 214 22M 10 22L 10 178M 22 10L 202 10M 214 22C 214 15.3826 208.6174 10 202 10"></path></g></g></g><g id="g-root-cp_0_g-0_3_qpoky8km3cb3-stroke" data-item-order="-367674" transform="translate(734, 266)"><g id="cp_0_g-0_3_qpoky8km3cb3-stroke" fill="none" stroke-linecap="round" stroke-linejoin="round" stroke-miterlimit="4" stroke="#ffffff" stroke-width="1" stroke-opacity="1"><g><path d="M 10 178C 10 184.6274 15.3726 190 22 190M 202 190L 22 190M 202 190C 208.6274 190 214 184.6274 214 178M 214 10L 214 178M 10 178L 10 10M 214 10L 10 10"></path></g></g></g><g id="g-root-cp_1-3_cell-1-3_v5i32okm3cao-stroke" data-item-order="-367653" transform="translate(746, 278)"><g id="cp_1-3_cell-1-3_v5i32okm3cao-stroke" fill="none" stroke-linecap="round" stroke-linejoin="round" stroke-miterlimit="4" stroke="#ffffff" stroke-width="1" stroke-opacity="1"><g><path d="M 10 22L 10 16C 10 12.6863 12.6863 10 16 10L 22 10M 190 22L 190 58M 10 58L 10 22M 22 10L 178 10M 10 58L 10 64C 10 67.3137 12.6863 70 16 70L 22 70M 190 22L 190 16C 190 12.6863 187.3137 10 184 10L 178 10M 178 70L 22 70M 190 58L 190 64C 190 67.3137 187.3137 70 184 70L 178 70"></path></g></g></g><g id="g-root-cp_2-3_cell-2-3_m9v2tskm3d3d-stroke" data-item-order="-367635" transform="translate(746, 350)"><g id="cp_2-3_cell-2-3_m9v2tskm3d3d-stroke" fill="none" stroke-linecap="round" stroke-linejoin="round" stroke-miterlimit="4" stroke="#d7d7d7" stroke-width="1" stroke-opacity="1"><g><path d="M 10 22L 10 16C 10 12.6863 12.6863 10 16 10L 22 10M 190 22L 190 82M 10 82L 10 22M 22 10L 178 10M 10 82L 10 88C 10 91.3137 12.6863 94 16 94L 22 94M 190 22L 190 16C 190 12.6863 187.3137 10 184 10L 178 10M 178 94L 22 94M 190 82L 190 88C 190 91.3137 187.3137 94 184 94L 178 94"></path></g></g></g><g id="g-root-ic_micr_1449gr4km3bwl-stroke" data-item-order="-2304" transform="translate(356, 122)"></g><g id="g-root-ic_rota_18mkv80km8ykk-stroke" data-item-order="-2304" transform="translate(812, 122)"></g><g id="g-root-ic_iden_18lbx1skm64um-stroke" data-item-order="-2304" transform="translate(584, 122)"></g><g id="g-root-tx_bikewalk_59gk0km3bbg-stroke" data-item-order="0" transform="translate(284, 38)"></g><g id="g-root-tx_humancen_1uuay34klpafh-stroke" data-item-order="0" transform="translate(782, 182)"></g><g id="g-root-tx_material_91ixw0km8yyp-stroke" data-item-order="0" transform="translate(542, 182)"></g><g id="g-root-tx_spatials_909zpskm658r-stroke" data-item-order="0" transform="translate(338, 182)"></g><g id="g-root-tx_coreelem_hu1kpckm3dvm-stroke" data-item-order="0" transform="translate(110, 296)"></g><g id="g-root-tx_rhythmof_zofymokm6490-stroke" data-item-order="0" transform="translate(314, 290)"></g><g id="g-root-tx_reclaime_v9veogkm8xze-stroke" data-item-order="0" transform="translate(542, 290)"></g><g id="g-root-tx_accessib_m7d9n4klqo7a-stroke" data-item-order="0" transform="translate(776, 290)"></g><g id="g-root-tx_educatio_1lqjrpsklqosv-stroke" data-item-order="0" transform="translate(770, 362)"></g><g id="g-root-tx_designdr_142e1hskm3cwb-stroke" data-item-order="0" transform="translate(110, 380)"></g><g id="g-root-tx_fluidpat_6ieq8km651p-stroke" data-item-order="0" transform="translate(302, 362)"></g><g id="g-root-tx_bikelane_7rcwgkm8yrn-stroke" data-item-order="0" transform="translate(536, 362)"></g></g></g></svg>