<?xml version="1.0" encoding="utf-8" standalone="yes"?>
<!DOCTYPE svg PUBLIC "-//W3C//DTD SVG 1.1//EN" "http://www.w3.org/Graphics/SVG/1.1/DTD/svg11.dtd">
<svg style="fill:none;stroke:none;fill-rule:evenodd;clip-rule:evenodd;stroke-linecap:round;stroke-linejoin:round;stroke-miterlimit:1.5;" version="1.1" xmlns="http://www.w3.org/2000/svg" xmlns:xlink="http://www.w3.org/1999/xlink" width="768" height="570" viewBox="0 0 768 570"><style class="text-font-style fontImports" data-font-family="Montserrat">@import url(https://fonts.googleapis.com/css2?family=Montserrat:wght@400;700&amp;amp;display=block);</style><g id="items" style="isolation: isolate"><g id="blend" style="mix-blend-mode: normal"><g id="g-root-cp_0_g-0_zlxd67dxz28e-fill" data-item-order="-341270" transform="translate(254, 200)"><g id="cp_0_g-0_zlxd67dxz28e-fill-merged" stroke="none" fill="#666666" fill-opacity="1"><g><path d="M250 130C250 196.274 196.274 250 130 250C63.726 250 10 196.274 10 130C10 63.726 63.726 10 130 10C196.274 10 250 63.726 250 130"></path></g></g></g><g id="g-root-cp_4_g-4_v63v1rdxz30n-fill" data-item-order="-341266" transform="translate(182, 128)"><g id="cp_4_g-4_v63v1rdxz30n-fill-merged" stroke="none" fill="#597f55" fill-opacity="1"><g><path d="M10 94C10 47.608 47.608 10 94 10C137.183 10 172.755 42.586 177.47 84.509C130.879 94.187 94.187 130.879 84.509 177.47C42.586 172.755 10 137.183 10 94"></path></g></g></g><g id="g-root-cp_3_g-3_qqwu0fdxz0n4-fill" data-item-order="-341260" transform="translate(182, 344)"><g id="cp_3_g-3_qqwu0fdxz0n4-fill-merged" stroke="none" fill="#f1be43" fill-opacity="1"><g><path d="M94 177.999C47.608 177.999 10 140.391 10 93.999C10 50.816 42.586 15.243 84.509 10.529C94.187 57.12 130.879 93.812 177.47 103.49C172.755 145.413 137.183 177.999 94 177.999"></path></g></g></g><g id="g-root-cp_2_g-2_qqwu0fdxz0n5-fill" data-item-order="-341254" transform="translate(398, 344)"><g id="cp_2_g-2_qqwu0fdxz0n5-fill-merged" stroke="none" fill="#a9bc9d" fill-opacity="1"><g><path d="M178 93.999C178 140.391 140.392 177.999 94 177.999C50.817 177.999 15.244 145.413 10.53 103.49C57.121 93.812 93.813 57.12 103.491 10.529C145.414 15.243 178 50.816 178 93.999"></path></g></g></g><g id="g-root-cp_1_g-1_hv9trjdxz1fu-fill" data-item-order="-341248" transform="translate(398, 128)"><g id="cp_1_g-1_hv9trjdxz1fu-fill-merged" stroke="none" fill="#dd7c41" fill-opacity="1"><g><path d="M178 94C178 47.608 140.392 10 94 10C50.817 10 15.244 42.586 10.53 84.509C57.121 94.187 93.813 130.879 103.491 177.47C145.414 172.755 178 137.183 178 94"></path></g></g></g><g id="g-root-tx_workshop_dfgbn3dxz283-fill" data-item-order="0" transform="translate(164, 38)"><g id="tx_workshop_dfgbn3dxz283-fill-merged" stroke="none" fill="#484848" fill-opacity="1"><g><text style="font: bold 25px Montserrat, sans-serif; white-space: pre;" transform="translate(220, 40)" font-weight="bold" font-size="25px" font-family="Montserrat, sans-serif"><tspan x="-157.01" y="0" dominant-baseline="ideographic">Project Impact and Key </tspan><tspan x="-71.09" y="30" dominant-baseline="ideographic">Outcomes</tspan></text></g></g></g><g id="g-root-tx_userincl_924pv3dy8vf2-fill" data-item-order="0" transform="translate(38, 122)"><g id="tx_userincl_924pv3dy8vf2-fill-merged" stroke="none" fill="#597f55" fill-opacity="1"><g><text style="font: bold 20px Montserrat, sans-serif; white-space: pre;" transform="translate(130, 40)" font-weight="bold" font-size="20px" font-family="Montserrat, sans-serif"><tspan x="-49.63" y="-0" dominant-baseline="ideographic">User </tspan><tspan x="-108.77" y="24" dominant-baseline="ideographic">Inclusivity</tspan></text></g></g></g><g id="g-root-tx_optimize_8yr3dya8st-fill" data-item-order="0" transform="translate(590, 122)"><g id="tx_optimize_8yr3dya8st-fill-merged" stroke="none" fill="#dd7c41" fill-opacity="1"><g><text style="font: bold 20px Montserrat, sans-serif; white-space: pre;" transform="translate(10, 40)" font-weight="bold" font-size="20px" font-family="Montserrat, sans-serif"><tspan x="2" y="-0" dominant-baseline="ideographic">Optimized </tspan><tspan x="2" y="24" dominant-baseline="ideographic">Layout</tspan></text></g></g></g><g id="g-root-ic_forw_8vvyzzdy62a7-fill" data-item-order="0" transform="translate(224, 170)"></g><g id="g-root-ic_2_hx590vdxz0g5-fill" data-item-order="0" transform="translate(476, 170)"></g><g id="g-root-tx_ergonomi_1qcl8fjdy8ufb-fill" data-item-order="0" transform="translate(14, 194)"><g id="tx_ergonomi_1qcl8fjdy8ufb-fill-merged" stroke="none" fill="#484848" fill-opacity="1"><g><text style="font: 15px Montserrat, sans-serif; white-space: pre;" transform="translate(154, 46)" font-size="15px" font-family="Montserrat, sans-serif"><tspan x="-78.85" y="-18" dominant-baseline="ideographic">Enhanced </tspan><tspan x="-141.58" y="0" dominant-baseline="ideographic">inclusivity through </tspan><tspan x="-133.41" y="18" dominant-baseline="ideographic">accessible design </tspan><tspan x="-75.23" y="36" dominant-baseline="ideographic">strategies</tspan></text></g></g></g><g id="g-root-tx_enhances_18f2h2ndya8lq-fill" data-item-order="0" transform="translate(590, 194)"><g id="tx_enhances_18f2h2ndya8lq-fill-merged" stroke="none" fill="#484848" fill-opacity="1"><g><text style="font: 15px Montserrat, sans-serif; white-space: pre;" transform="translate(10, 46)" font-size="15px" font-family="Montserrat, sans-serif"><tspan x="2" y="-18" dominant-baseline="ideographic">Enhances tool </tspan><tspan x="2" y="0" dominant-baseline="ideographic">visibility and </tspan><tspan x="2" y="18" dominant-baseline="ideographic">circulation </tspan><tspan x="2" y="36" dominant-baseline="ideographic">efficiency</tspan></text></g></g></g><g id="g-root-tx_workshop_1cymtprdxz2to-fill" data-item-order="0" transform="translate(290, 290)"><g id="tx_workshop_1cymtprdxz2to-fill-merged" stroke="none" fill="#ffffff" fill-opacity="1"><g><text style="font: bold 20px Montserrat, sans-serif; white-space: pre;" transform="translate(94, 40)" font-weight="bold" font-size="20px" font-family="Montserrat, sans-serif"><tspan x="-49.91" y="-0" dominant-baseline="ideographic">BikeWalk</tspan><tspan x="-80.48" y="24" dominant-baseline="ideographic">Transformation</tspan></text></g></g></g><g id="g-root-tx_unifiedb_18lb7xrdy8wsh-fill" data-item-order="0" transform="translate(74, 380)"><g id="tx_unifiedb_18lb7xrdy8wsh-fill-merged" stroke="none" fill="#f1be43" fill-opacity="1"><g><text style="font: bold 20px Montserrat, sans-serif; white-space: pre;" transform="translate(94, 40)" font-weight="bold" font-size="20px" font-family="Montserrat, sans-serif"><tspan x="-77.89" y="-0" dominant-baseline="ideographic">Unified </tspan><tspan x="-65.22" y="24" dominant-baseline="ideographic">Brand</tspan></text></g></g></g><g id="g-root-ic_unic_18gxwbzdy3abv-fill" data-item-order="0" transform="translate(224, 422)"></g><g id="g-root-ic_spac_1q7lfqndy8v0h-fill" data-item-order="0" transform="translate(476, 422)"></g><g id="g-root-tx_communit_1hitnfzdy8u8b-fill" data-item-order="0" transform="translate(590, 380)"><g id="tx_communit_1hitnfzdy8u8b-fill-merged" stroke="none" fill="#88aa74" fill-opacity="1"><g><text style="font: bold 20px Montserrat, sans-serif; white-space: pre;" transform="translate(10, 40)" font-weight="bold" font-size="20px" font-family="Montserrat, sans-serif"><tspan x="2" y="-0" dominant-baseline="ideographic">Community </tspan><tspan x="2" y="24" dominant-baseline="ideographic">Zones</tspan></text></g></g></g><g id="g-root-tx_coordina_94054fdy8ufe-fill" data-item-order="0" transform="translate(14, 452)"><g id="tx_coordina_94054fdy8ufe-fill-merged" stroke="none" fill="#484848" fill-opacity="1"><g><text style="font: 15px Montserrat, sans-serif; white-space: pre;" transform="translate(154, 40)" font-size="15px" font-family="Montserrat, sans-serif"><tspan x="-95.17" y="-9" dominant-baseline="ideographic">Coordinated </tspan><tspan x="-140.48" y="9" dominant-baseline="ideographic">interior and digital </tspan><tspan x="-59.09" y="27" dominant-baseline="ideographic">identity</tspan></text></g></g></g><g id="g-root-tx_supports_qwj3sfdy8u8c-fill" data-item-order="0" transform="translate(590, 452)"><g id="tx_supports_qwj3sfdy8u8c-fill-merged" stroke="none" fill="#484848" fill-opacity="1"><g><text style="font: 15px Montserrat, sans-serif; white-space: pre;" transform="translate(10, 40)" font-size="15px" font-family="Montserrat, sans-serif"><tspan x="2" y="-9" dominant-baseline="ideographic">Supports </tspan><tspan x="2" y="9" dominant-baseline="ideographic">education, repair, </tspan><tspan x="2" y="27" dominant-baseline="ideographic">and collaboration</tspan></text></g></g></g><g id="g-root-cp_0_g-0_zlxd67dxz28e-stroke" data-item-order="-341270" transform="translate(254, 200)"><g id="cp_0_g-0_zlxd67dxz28e-stroke" fill="none" stroke-linecap="round" stroke-linejoin="round" stroke-miterlimit="4" stroke="#ffffff" stroke-width="2" stroke-opacity="1"><g><path d="M 250 130C 250 196.2742 196.2742 250 130 250C 63.7258 250 10 196.2742 10 130C 10 63.7258 63.7258 10 130 10C 196.2742 10 250 63.7258 250 130Z"></path></g></g></g><g id="g-root-cp_4_g-4_v63v1rdxz30n-stroke" data-item-order="-341266" transform="translate(182, 128)"><g id="cp_4_g-4_v63v1rdxz30n-stroke" fill="none" stroke-linecap="round" stroke-linejoin="round" stroke-miterlimit="4" stroke="#ffffff" stroke-width="2" stroke-opacity="1"><g><path d="M 10 94C 10 47.6081 47.6081 10 94 10C 137.1832 10 172.7555 42.5856 177.4698 84.5093C 130.8792 94.1869 94.1869 130.8792 84.5093 177.4698C 42.5856 172.7555 10 137.1832 10 94ZM 177.999977 94.000466C 177.999977 140.392366 140.391877 178.000466 93.999977 178.000466C 90.791177 178.000466 87.624477 177.820566 84.509277 177.470266C 94.186877 130.879666 130.879177 94.187366 177.469777 84.509766C 177.820077 87.624966 177.999977 90.791666 177.999977 94.000466Z"></path></g></g></g><g id="g-root-cp_3_g-3_qqwu0fdxz0n4-stroke" data-item-order="-341260" transform="translate(182, 344)"><g id="cp_3_g-3_qqwu0fdxz0n4-stroke" fill="none" stroke-linecap="round" stroke-linejoin="round" stroke-miterlimit="4" stroke="#ffffff" stroke-width="2" stroke-opacity="1"><g><path d="M 94 177.999097C 47.6081 177.999097 10 140.390997 10 93.999097C 10 50.815897 42.5856 15.243497 84.5093 10.529297C 94.1869 57.119897 130.8792 93.812197 177.4698 103.489797C 172.7555 145.413497 137.1832 177.999097 94 177.999097ZM 178.000015 94C 178.000015 47.6081 140.391915 10 94.000015 10C 90.791215 10 87.624515 10.1799 84.509315 10.5302C 94.186915 57.1208 130.879215 93.8131 177.469815 103.4907C 177.820115 100.3755 178.000015 97.2088 178.000015 94Z"></path></g></g></g><g id="g-root-cp_2_g-2_qqwu0fdxz0n5-stroke" data-item-order="-341254" transform="translate(398, 344)"><g id="cp_2_g-2_qqwu0fdxz0n5-stroke" fill="none" stroke-linecap="round" stroke-linejoin="round" stroke-miterlimit="4" stroke="#ffffff" stroke-width="2" stroke-opacity="1"><g><path d="M 178.000073 93.999097C 178.000073 140.390997 140.391973 177.999097 94.000073 177.999097C 50.816873 177.999097 15.244473 145.413497 10.530273 103.489797C 57.120873 93.812197 93.813173 57.119897 103.490773 10.529297C 145.414473 15.243497 178.000073 50.815897 178.000073 93.999097ZM 10 94C 10 47.6081 47.6081 10 94 10C 97.2088 10 100.3755 10.1799 103.4907 10.5302C 93.8131 57.1208 57.1208 93.8131 10.5302 103.4907C 10.1799 100.3755 10 97.2088 10 94Z"></path></g></g></g><g id="g-root-cp_1_g-1_hv9trjdxz1fu-stroke" data-item-order="-341248" transform="translate(398, 128)"><g id="cp_1_g-1_hv9trjdxz1fu-stroke" fill="none" stroke-linecap="round" stroke-linejoin="round" stroke-miterlimit="4" stroke="#ffffff" stroke-width="2" stroke-opacity="1"><g><path d="M 178.000012 94C 178.000012 47.6081 140.391912 10 94.000012 10C 50.816812 10 15.244412 42.5856 10.530212 84.5093C 57.120812 94.1869 93.813112 130.8792 103.490712 177.4698C 145.414412 172.7555 178.000012 137.1832 178.000012 94ZM 94 178.000466C 47.6081 178.000466 10 140.392366 10 94.000466C 10 90.791666 10.1799 87.624966 10.5302 84.509766C 57.1208 94.187366 93.8131 130.879666 103.4907 177.470266C 100.3755 177.820566 97.2088 178.000466 94 178.000466Z"></path></g></g></g><g id="g-root-tx_workshop_dfgbn3dxz283-stroke" data-item-order="0" transform="translate(164, 38)"></g><g id="g-root-tx_userincl_924pv3dy8vf2-stroke" data-item-order="0" transform="translate(38, 122)"></g><g id="g-root-tx_optimize_8yr3dya8st-stroke" data-item-order="0" transform="translate(590, 122)"></g><g id="g-root-ic_forw_8vvyzzdy62a7-stroke" data-item-order="0" transform="translate(224, 170)"><g id="ic_forw_8vvyzzdy62a7-stroke" fill="none" stroke-linecap="round" stroke-linejoin="round" stroke-miterlimit="4" stroke="#ffffff" stroke-width="2" stroke-opacity="1"><g><path d="M 56.439999 27.42L 42.627998 27.42M 50.352001 33.496002L 56.439999 27.417999L 50.352001 21.34M 37.16 45.669998L 39.099998 45.669998L 37.765999 52.834C 37.620285 53.619553 37.802811 54.430504 38.271042 55.077869C 38.739277 55.725235 39.452316 56.152466 40.244003 56.260002L 40.243999 56.259998C 41.805744 56.470673 43.252907 55.40411 43.514 53.850002L 45.021999 44.855999C 45.343048 43.535187 45.046505 42.140045 44.216 41.063999C 43.372593 39.997185 42.089916 39.371666 40.73 39.363998L 34.127998 39.363998L 35.646 29.014C 35.790657 27.645275 34.864971 26.393084 33.514 26.130001L 22.074001 23.694C 20.79076 23.442436 19.462101 23.774418 18.448 24.599998L 12.558001 29.356001C 11.438 30.264 11.214 32.251999 12.128 33.382C 13.036 34.503998 14.940001 34.695999 16.063999 33.788002L 21.459999 29.483999L 27.18 30.604L 26.784 32.646M 36.884003 22.212C 38.752735 21.828926 40.272202 20.472553 40.864098 18.659111C 41.45599 16.845669 41.029274 14.854076 39.746357 13.442327C 38.46344 12.030579 36.521637 11.41581 34.66 11.832C 31.834093 12.48199 30.052765 15.279489 30.659216 18.115059C 31.265669 20.950626 34.035439 22.774769 36.880001 22.212ZM 22.243999 56.287998C 27.714933 56.288002 32.150002 51.852936 32.150002 46.382C 32.150002 40.911068 27.714933 36.476002 22.243999 36.476002C 16.773067 36.476002 12.338 40.911068 12.338 46.382C 12.338 51.852936 16.773067 56.288002 22.243999 56.288002Z"></path></g></g></g><g id="g-root-ic_2_hx590vdxz0g5-stroke" data-item-order="0" transform="translate(476, 170)"><g id="ic_2_hx590vdxz0g5-stroke" fill="none" stroke-linecap="round" stroke-linejoin="round" stroke-miterlimit="4" stroke="#ffffff" stroke-width="2" stroke-opacity="1"><g><path d="M 11 41.487999L 11 57M 37 57L 37 41.487999M 36.400002 40.368C 36.750061 40.639114 36.968231 41.046368 37 41.487999C 37 43.556 31.18 45.231998 24 45.231998C 16.82 45.231998 11 43.556 11 41.487999C 11 40.888 11.498 40.312 12.384 39.806M 37 48.256001C 37 50.324001 31.158001 52 23.952 52C 17.284 52 11.784 50.563999 11 48.712002M 22.512001 20.993999L 21.638 14.846001L 17.162001 11.896L 13.684 15.976L 14.808001 23.880001L 16.382 25.448L 15.306 27.393999L 17.194 40.674M 32.716 41.428001L 32.716 35.548L 31.378 33.771999L 32.716 31.997999L 32.716 24.014L 28.700001 20.466L 24.681999 24.014L 24.681999 31.997999L 26.021999 33.771999L 24.681999 35.548L 24.681999 41.886002M 31.448 13.09C 31.447998 11.934943 32.384941 10.998895 33.540001 11L 54.91 11C 56.064274 11 56.999996 11.935724 56.999996 13.09L 57 40.52C 56.999996 41.674274 56.064274 42.609997 54.909996 42.609997L 44.223999 42.610001M 38.5 16.806L 46.868 16.806M 38.5 22.124001L 51.368 22.124001M 38.5 27.441999L 51.368 27.441999M 38.5 32.760002L 51.368 32.760002"></path></g></g></g><g id="g-root-tx_ergonomi_1qcl8fjdy8ufb-stroke" data-item-order="0" transform="translate(14, 194)"></g><g id="g-root-tx_enhances_18f2h2ndya8lq-stroke" data-item-order="0" transform="translate(590, 194)"></g><g id="g-root-tx_workshop_1cymtprdxz2to-stroke" data-item-order="0" transform="translate(290, 290)"></g><g id="g-root-tx_unifiedb_18lb7xrdy8wsh-stroke" data-item-order="0" transform="translate(74, 380)"></g><g id="g-root-ic_unic_18gxwbzdy3abv-stroke" data-item-order="0" transform="translate(224, 422)"><g id="ic_unic_18gxwbzdy3abv-stroke" fill="none" stroke-linecap="round" stroke-linejoin="round" stroke-miterlimit="4" stroke="#ffffff" stroke-width="2" stroke-opacity="1"><g><path d="M 11 11L 57 11L 57 57L 11 57ZM 46 24C 46 25.104568 46.895432 26 48 26C 49.104568 26 50 25.104568 50 24C 50 22.895432 49.104568 22 48 22C 46.895432 22 46 22.895432 46 24M 18 24L 18 38C 18 42.418278 21.581722 46 26 46C 30.418278 46 34 42.418278 34 38L 34 24L 48 46L 48 30"></path></g></g></g><g id="g-root-ic_spac_1q7lfqndy8v0h-stroke" data-item-order="0" transform="translate(476, 422)"><g id="ic_spac_1q7lfqndy8v0h-stroke" fill="none" stroke-linecap="round" stroke-linejoin="round" stroke-miterlimit="4" stroke="#ffffff" stroke-width="2" stroke-opacity="1"><g><path d="M 55 38.778C 55.277088 35.387177 53.624859 32.128418 50.725849 30.347918C 47.826839 28.567417 44.173161 28.567417 41.274147 30.347918C 38.375137 32.128418 36.722908 35.387177 37 38.778L 37 57L 55 57ZM 39.006001 18C 39.006004 21.865993 42.140007 25 46.006001 25C 49.871994 25 53.006001 21.865993 53.006001 18C 53.006001 14.134007 49.871994 11 46.006001 11C 42.140007 11 39.006004 14.134007 39.006004 18ZM 25.006001 18C 25.006001 20.761425 27.244577 23 30.006001 23C 32.767426 23 35.006001 20.761425 35.006001 18C 35.006001 15.238577 32.767426 13 30.006001 13C 27.244577 13 25.006001 15.238577 25.006001 18ZM 15.006001 18C 15.006001 19.656855 16.349146 21 18.006001 21C 19.662853 21 21.006001 19.656855 21.006001 18C 21.006001 16.343145 19.662853 15 18.006001 15C 16.349146 15 15.006001 16.343145 15.006001 18ZM 23 34C 23 30.134008 26.134008 27.000002 30 27.000002C 33.865993 27.000002 37 30.134008 37 34L 37 49L 23 49ZM 13 30C 13 27.238577 15.238577 25 18 25C 20.761425 25 23 27.238577 23 30L 23 39L 13 39Z"></path></g></g></g><g id="g-root-tx_communit_1hitnfzdy8u8b-stroke" data-item-order="0" transform="translate(590, 380)"></g><g id="g-root-tx_coordina_94054fdy8ufe-stroke" data-item-order="0" transform="translate(14, 452)"></g><g id="g-root-tx_supports_qwj3sfdy8u8c-stroke" data-item-order="0" transform="translate(590, 452)"></g></g></g></svg>