<?xml version="1.0" encoding="utf-8" standalone="yes"?>
<!DOCTYPE svg PUBLIC "-//W3C//DTD SVG 1.1//EN" "http://www.w3.org/Graphics/SVG/1.1/DTD/svg11.dtd">
<svg style="fill:none;stroke:none;fill-rule:evenodd;clip-rule:evenodd;stroke-linecap:round;stroke-linejoin:round;stroke-miterlimit:1.5;" version="1.1" xmlns="http://www.w3.org/2000/svg" xmlns:xlink="http://www.w3.org/1999/xlink" width="841" height="504" viewBox="0 0 841 504"><style class="text-font-style fontImports" data-font-family="Roboto">@import url(https://fonts.googleapis.com/css2?family=Roboto:wght@400;700&amp;amp;display=block);</style><g id="items" style="isolation: isolate"><g id="blend" style="mix-blend-mode: normal"><g id="g-root-sy_0_cu_4jtxhbfwbnkd-fill" data-item-order="-228090" transform="translate(14, 182)"><g id="sy_0_cu_4jtxhbfwbnkd-fill-merged" stroke="none" fill="#666666" fill-opacity="1"><g><path d="M250 130C250 196.274 196.274 250 130 250C63.726 250 10 196.274 10 130C10 63.726 63.726 10 130 10C196.274 10 250 63.726 250 130"></path></g></g></g><g id="g-root-sy_3_cu_8znflrfwbnk4-fill" data-item-order="-228086" transform="translate(241.1923828125, 320)"><g id="sy_3_cu_8znflrfwbnk4-fill-merged" stroke="none" fill="#92bd39" fill-opacity="1"><g><path d="M574.807 40 H154.807L21.466 10C19.546 22.77 15.612 34.881 10 46L154.807 136 H574.807 V40"></path></g></g></g><g id="g-root-sy_2_cu_8znflrfwbnk0-fill" data-item-order="-228082" transform="translate(252.65921020507812, 254)"><g id="sy_2_cu_8znflrfwbnk0-fill-merged" stroke="none" fill="#3cc583" fill-opacity="1"><g><path d="M563.341 10 H143.341L10 40C10.883 45.871 11.341 51.882 11.341 58C11.341 64.118 10.883 70.129 10 76L143.341 106 H563.341 V10"></path></g></g></g><g id="g-root-sy_1_cu_4jtxhbfwbnkc-fill" data-item-order="-228078" transform="translate(241.1923828125, 158)"><g id="sy_1_cu_4jtxhbfwbnkc-fill-merged" stroke="none" fill="#1eabda" fill-opacity="1"><g><path d="M574.807 10 H154.807L10 100C15.612 111.119 19.546 123.23 21.466 136L154.807 106 H574.807 V10"></path></g></g></g><g id="g-root-ic_bloc_4jtxhbfwbnke-fill" data-item-order="-2304" transform="translate(422, 182)"><g id="ic_bloc_4jtxhbfwbnke-fill-merged" stroke="none" fill="#ffffff" fill-opacity="1"><g><path d="M18.5 26 H19.5C20.106 25.999 20.653 25.634 20.885 25.074C21.117 24.514 20.988 23.869 20.56 23.44L16.56 19.44C15.974 18.855 15.026 18.855 14.44 19.44L10.44 23.44C10.012 23.869 9.883 24.514 10.115 25.074C10.347 25.634 10.894 25.999 11.5 26 H12.5C13.052 26 13.5 26.448 13.5 27 V50C13.5 50.552 13.052 51 12.5 51 H11.5C10.894 51.001 10.347 51.366 10.115 51.926C9.883 52.486 10.012 53.131 10.44 53.56L14.44 57.56C15.026 58.145 15.974 58.145 16.56 57.56L20.56 53.56C20.988 53.131 21.117 52.486 20.885 51.926C20.653 51.366 20.106 51.001 19.5 51 H18.5C17.948 51 17.5 50.552 17.5 50 V27C17.5 26.448 17.948 26 18.5 26 M26 19.5 V18.5C26 17.948 26.448 17.5 27 17.5 H50C50.552 17.5 51 17.948 51 18.5 V19.5C51.001 20.106 51.366 20.653 51.926 20.885C52.486 21.117 53.131 20.988 53.56 20.56L57.56 16.56C58.145 15.974 58.145 15.026 57.56 14.44L53.56 10.44C53.131 10.012 52.486 9.883 51.926 10.115C51.366 10.347 51.001 10.894 51 11.5 V12.5C51 13.052 50.552 13.5 50 13.5 H27C26.448 13.5 26 13.052 26 12.5 V11.5C25.999 10.894 25.634 10.347 25.074 10.115C24.514 9.883 23.869 10.012 23.44 10.44L19.44 14.44C18.855 15.026 18.855 15.974 19.44 16.56L23.44 20.56C23.869 20.988 24.514 21.117 25.074 20.885C25.634 20.653 25.999 20.106 26 19.5 M55 24 H27C25.343 24 24 25.343 24 27 V39C24 39.552 24.448 40 25 40 H28.5C30.433 40 32 41.567 32 43.5 V48.5C32 49.328 31.328 50 30.5 50C29.672 50 29 49.328 29 48.5 V43.5C29 43.224 28.776 43 28.5 43 H25C24.448 43 24 43.448 24 44 V55C24 56.657 25.343 58 27 58 H36C36.552 58 37 57.552 37 57 V45.5C37 44.672 37.672 44 38.5 44C39.328 44 40 44.672 40 45.5 V57C40 57.552 40.448 58 41 58 H44C44.552 58 45 57.552 45 57 V50.5C45.011 48.572 46.572 47.011 48.5 47 H51.5C52.328 47 53 47.672 53 48.5C53 49.328 52.328 50 51.5 50 H48.5C48.224 50 48 50.224 48 50.5 V57C48 57.552 48.448 58 49 58 H55C56.657 58 58 56.657 58 55 V43C58 42.448 57.552 42 57 42 H49.5C48.672 42 48 41.328 48 40.5C48 39.672 48.672 39 49.5 39 H57C57.552 39 58 38.552 58 38 V35C58 34.448 57.552 34 57 34 H49.5C48.672 34 48 33.328 48 32.5C48 31.672 48.672 31 49.5 31 H57C57.552 31 58 30.552 58 30 V27C58 25.343 56.657 24 55 24 M43 35C43 36.105 42.105 37 41 37 H35C33.895 37 33 36.105 33 35 V29C33 27.895 33.895 27 35 27 H41C42.105 27 43 27.895 43 29 V35"></path></g></g></g><g id="g-root-ic_pick_8znflrfwbnk1-fill" data-item-order="-2304" transform="translate(422, 278)"><g id="ic_pick_8znflrfwbnk1-fill-merged" stroke="none" fill="#ffffff" fill-opacity="1"><g><path d="M50.52 10L42.66 10.24C41.216 10.275 39.818 10.757 38.66 11.62L31.16 17.2C29.6 18.402 28.488 20.092 28 22L26.62 26.72C26.109 28.19 26.109 29.79 26.62 31.26C27.417 32.787 29.211 33.502 30.84 32.94C31.807 32.662 32.562 31.907 32.84 30.94L34.46 24.2C34.723 23.57 35.169 23.034 35.74 22.66L41.14 19.14C42.14 18.476 43.416 18.385 44.5 18.9C45.38 19.34 46.9 20.18 47.22 21.04C47.896 22.401 47.666 24.038 46.64 25.16L42.64 29.16C41.398 30.233 41.126 32.051 42 33.44C43.24 34.92 44.98 34.04 46.6 32.94L53.88 28C54.549 27.513 55.024 26.804 55.22 26L56.72 21.06 M45.66 44.96C45.66 47.048 47.352 48.74 49.44 48.74C51.528 48.74 53.22 47.048 53.22 44.96C53.22 42.872 51.528 41.18 49.44 41.18C47.352 41.18 45.66 42.872 45.66 44.96 M15 44.96C15 47.048 16.692 48.74 18.78 48.74C20.868 48.74 22.56 47.048 22.56 44.96C22.56 42.872 20.868 41.18 18.78 41.18C16.692 41.18 15 42.872 15 44.96 M28.32 42.56C28.32 45.708 30.872 48.26 34.02 48.26C37.168 48.26 39.72 45.708 39.72 42.56C39.72 39.412 37.168 36.86 34.02 36.86C30.872 36.86 28.32 39.412 28.32 42.56 M45.02 58 H57.82L56.78 56.16C55.234 54.147 52.899 52.894 50.367 52.718C47.835 52.542 45.349 53.46 43.54 55.24C44.135 56.102 44.631 57.028 45.02 58 M24.64 55.22C23.531 54.124 22.151 53.344 20.64 52.96C17.222 52.086 13.611 53.319 11.44 56.1L10.18 58 H23.18C23.568 57.025 24.058 56.093 24.64 55.22 M34.12 52C30.292 52.157 26.889 54.487 25.36 58 H42.84C41.317 54.5 37.934 52.172 34.12 52"></path></g></g></g><g id="g-root-ic_logo_8znflrfwbnk5-fill" data-item-order="-2304" transform="translate(422, 374)"><g id="ic_logo_8znflrfwbnk5-fill-merged" stroke="none" fill="#ffffff" fill-opacity="1"><g><path d="M38 50.5C37.582 50.506 37.174 50.372 36.84 50.12C36.316 49.747 36.003 49.144 36 48.5 V22.74L34 21.74L32 22.74 V48.5C31.997 49.144 31.684 49.747 31.16 50.12C30.64 50.497 29.97 50.601 29.36 50.4L23.36 48.4C22.545 48.125 21.998 47.36 22 46.5 V26.74L20 27.74 V44.5C19.997 45.144 19.684 45.747 19.16 46.12C18.64 46.497 17.97 46.601 17.36 46.4L11.36 44.4C10.545 44.125 9.998 43.36 10 42.5 V28.5C10 27.395 10.895 26.5 12 26.5C13.105 26.5 14 27.395 14 28.5 V41.06L16 41.72 V26.5C16.002 25.747 16.427 25.059 17.1 24.72L23.1 21.72C23.719 21.408 24.455 21.439 25.046 21.802C25.637 22.164 25.998 22.807 26 23.5 V45.06L28 45.72 V21.5C28.002 20.747 28.427 20.059 29.1 19.72L33.1 17.72C33.666 17.435 34.334 17.435 34.9 17.72L38.9 19.72C39.573 20.059 39.998 20.747 40 21.5 V45.72L42 45.06 V23.5C42.002 22.807 42.363 22.164 42.954 21.802C43.545 21.439 44.281 21.408 44.9 21.72L50.9 24.72C51.573 25.059 51.998 25.747 52 26.5 V41.72L54 41.06 V28.5C54 27.395 54.895 26.5 56 26.5C57.105 26.5 58 27.395 58 28.5 V42.5C58.002 43.36 57.455 44.125 56.64 44.4L50.64 46.4C50.03 46.601 49.36 46.497 48.84 46.12C48.316 45.747 48.003 45.144 48 44.5 V27.74L46 26.74 V46.5C46.002 47.36 45.455 48.125 44.64 48.4L38.64 50.4C38.432 50.462 38.217 50.496 38 50.5"></path></g></g></g><g id="g-root-tx_unveilin_4jtxhbfwbnka-fill" data-item-order="0" transform="translate(110, 38)"><g id="tx_unveilin_4jtxhbfwbnka-fill-merged" stroke="none" fill="#484848" fill-opacity="1"><g><text style="font: bold 25px Roboto, sans-serif; white-space: pre;" transform="translate(310, 40)" font-weight="bold" font-size="25px" font-family="Roboto, sans-serif"><tspan x="-294.28" y="0" dominant-baseline="ideographic">Unveiling BikeWalk Tompkins' Community-Centered </tspan><tspan x="-38.38" y="30" dominant-baseline="ideographic">Vision</tspan></text></g></g></g><g id="g-root-tx_spatiale_4jtxhbfwbnkf-fill" data-item-order="0" transform="translate(482, 194)"><g id="tx_spatiale_4jtxhbfwbnkf-fill-merged" stroke="none" fill="#ffffff" fill-opacity="1"><g><text style="font: 20px Roboto, sans-serif; white-space: pre;" transform="translate(10, 22)" font-size="20px" font-family="Roboto, sans-serif"><tspan x="2" y="12" dominant-baseline="ideographic">Spatial Efficiency</tspan></text></g></g></g><g id="g-root-tx_bikewalk_8znflrfwbnk2-fill" data-item-order="0" transform="translate(50, 266)"><g id="tx_bikewalk_8znflrfwbnk2-fill-merged" stroke="none" fill="#ffffff" fill-opacity="1"><g><text style="font: bold 20px Roboto, sans-serif; white-space: pre;" transform="translate(94, 46)" font-weight="bold" font-size="20px" font-family="Roboto, sans-serif"><tspan x="-43.26" y="-12" dominant-baseline="ideographic">BikeWalk </tspan><tspan x="-80.35" y="12" dominant-baseline="ideographic">Tompkins Project </tspan><tspan x="-29.87" y="36" dominant-baseline="ideographic">Vision</tspan></text></g></g></g><g id="g-root-tx_communit_8znflrfwbnk3-fill" data-item-order="0" transform="translate(482, 290)"><g id="tx_communit_8znflrfwbnk3-fill-merged" stroke="none" fill="#ffffff" fill-opacity="1"><g><text style="font: 20px Roboto, sans-serif; white-space: pre;" transform="translate(10, 22)" font-size="20px" font-family="Roboto, sans-serif"><tspan x="2" y="12" dominant-baseline="ideographic">Community Engagement</tspan></text></g></g></g><g id="g-root-tx_brandide_8znflrfwbnk6-fill" data-item-order="0" transform="translate(482, 386)"><g id="tx_brandide_8znflrfwbnk6-fill-merged" stroke="none" fill="#ffffff" fill-opacity="1"><g><text style="font: 20px Roboto, sans-serif; white-space: pre;" transform="translate(10, 22)" font-size="20px" font-family="Roboto, sans-serif"><tspan x="2" y="12" dominant-baseline="ideographic">Brand Identity</tspan></text></g></g></g><g id="g-root-sy_0_cu_4jtxhbfwbnkd-stroke" data-item-order="-228090" transform="translate(14, 182)"><g id="sy_0_cu_4jtxhbfwbnkd-stroke" fill="none" stroke-linecap="round" stroke-linejoin="round" stroke-miterlimit="4" stroke="#ffffff" stroke-width="2" stroke-opacity="1"><g><path d="M 250 130C 250 196.2742 196.2742 250 130 250C 63.7258 250 10 196.2742 10 130C 10 63.7258 63.7258 10 130 10C 196.2742 10 250 63.7258 250 130Z"></path></g></g></g><g id="g-root-sy_3_cu_8znflrfwbnk4-stroke" data-item-order="-228086" transform="translate(241.1923828125, 320)"><g id="sy_3_cu_8znflrfwbnk4-stroke" fill="none" stroke-linecap="round" stroke-linejoin="round" stroke-miterlimit="4" stroke="#ffffff" stroke-width="2" stroke-opacity="1"><g><path d="M 574.8075 40L 154.8075 40L 21.4665 10C 19.5456 22.7701 15.6123 34.8811 10 46L 154.8075 136L 574.8075 136L 574.8075 40Z"></path></g></g></g><g id="g-root-sy_2_cu_8znflrfwbnk0-stroke" data-item-order="-228082" transform="translate(252.65921020507812, 254)"><g id="sy_2_cu_8znflrfwbnk0-stroke" fill="none" stroke-linecap="round" stroke-linejoin="round" stroke-miterlimit="4" stroke="#ffffff" stroke-width="2" stroke-opacity="1"><g><path d="M 563.34097 10L 143.34097 10L 9.99997 40C 10.88317 45.8715 11.34097 51.8823 11.34097 58C 11.34097 64.1177 10.88317 70.1285 9.99997 76L 143.34097 106L 563.34097 106L 563.34097 10Z"></path></g></g></g><g id="g-root-sy_1_cu_4jtxhbfwbnkc-stroke" data-item-order="-228078" transform="translate(241.1923828125, 158)"><g id="sy_1_cu_4jtxhbfwbnkc-stroke" fill="none" stroke-linecap="round" stroke-linejoin="round" stroke-miterlimit="4" stroke="#ffffff" stroke-width="2" stroke-opacity="1"><g><path d="M 574.8075 10L 154.8075 10L 10 100C 15.6123 111.1189 19.5456 123.2299 21.4665 136L 154.8075 106L 574.8075 106L 574.8075 10Z"></path></g></g></g><g id="g-root-ic_bloc_4jtxhbfwbnke-stroke" data-item-order="-2304" transform="translate(422, 182)"></g><g id="g-root-ic_pick_8znflrfwbnk1-stroke" data-item-order="-2304" transform="translate(422, 278)"></g><g id="g-root-ic_logo_8znflrfwbnk5-stroke" data-item-order="-2304" transform="translate(422, 374)"></g><g id="g-root-tx_unveilin_4jtxhbfwbnka-stroke" data-item-order="0" transform="translate(110, 38)"></g><g id="g-root-tx_spatiale_4jtxhbfwbnkf-stroke" data-item-order="0" transform="translate(482, 194)"></g><g id="g-root-tx_bikewalk_8znflrfwbnk2-stroke" data-item-order="0" transform="translate(50, 266)"></g><g id="g-root-tx_communit_8znflrfwbnk3-stroke" data-item-order="0" transform="translate(482, 290)"></g><g id="g-root-tx_brandide_8znflrfwbnk6-stroke" data-item-order="0" transform="translate(482, 386)"></g></g></g></svg>