<?xml version="1.0" encoding="utf-8" standalone="yes"?>
<!DOCTYPE svg PUBLIC "-//W3C//DTD SVG 1.1//EN" "http://www.w3.org/Graphics/SVG/1.1/DTD/svg11.dtd">
<svg style="fill:none;stroke:none;fill-rule:evenodd;clip-rule:evenodd;stroke-linecap:round;stroke-linejoin:round;stroke-miterlimit:1.5;" version="1.1" xmlns="http://www.w3.org/2000/svg" xmlns:xlink="http://www.w3.org/1999/xlink" width="948" height="661" viewBox="0 0 948 661"><style class="text-font-style fontImports" data-font-family="Roboto">@import url(https://fonts.googleapis.com/css2?family=Roboto:wght@400;700&amp;amp;display=block);</style><g id="items" style="isolation: isolate"><g id="blend" style="mix-blend-mode: normal"><g id="g-root-cp_4_g-4_dj7s3n190xzbg-fill" data-item-order="-508490" transform="translate(533.0159912109375, 378.02392578125)"><g id="cp_4_g-4_dj7s3n190xzbg-fill-merged" stroke="none" fill="#e55753" fill-opacity="1"><g><path d="M184.606 10L261.638 26.424L237.345 101.347L223.155 76.769L139.28 125.194C150.671 151.49 156.984 180.496 156.984 210.977 H78.984C78.984 159.904 51.24 115.311 10 91.448L49.014 23.891C74.872 38.854 97.339 59.024 114.983 82.967L198.796 34.578L184.606 10"></path></g></g></g><g id="g-root-cp_3_g-3_93e9z7190y03p-fill" data-item-order="-508486" transform="translate(355.98101806640625, 209.89111328125)"><g id="cp_3_g-3_93e9z7190y03p-fill-merged" stroke="none" fill="#de8431" fill-opacity="1"><g><path d="M171.756 68.5L119.017 10L66.277 68.5 H94.658 V164.358C64.074 167.647 35.401 177.32 10 192.017L49.026 259.567C69.323 247.828 92.886 241.109 118.019 241.109C143.161 241.109 166.733 247.833 187.035 259.58L226.049 192.024C201.198 177.643 173.216 168.071 143.376 164.582 V68.5 H171.756"></path></g></g></g><g id="g-root-cp_2_g-2_93e9z7190y03q-fill" data-item-order="-508482" transform="translate(145.33999633789062, 378.02392578125)"><g id="cp_2_g-2_93e9z7190y03q-fill-merged" stroke="none" fill="#e0cb15" fill-opacity="1"><g><path d="M87.032 10L10 26.424L34.293 101.347L48.483 76.769L130.767 124.276C119.123 150.814 112.662 180.141 112.662 210.978 H190.662C190.662 159.896 218.416 115.296 259.668 91.436L220.642 23.886C195.072 38.682 172.815 58.569 155.26 82.162L72.842 34.578L87.032 10"></path></g></g></g><g id="g-root-tx_bikestor_1utoao3190xybr-fill" data-item-order="0" transform="translate(284, 38)"><g id="tx_bikestor_1utoao3190xybr-fill-merged" stroke="none" fill="#484848" fill-opacity="1"><g><text style="font: bold 25px Roboto, sans-serif; white-space: pre;" transform="translate(190, 28)" font-weight="bold" font-size="25px" font-family="Roboto, sans-serif"><tspan x="-175.07" y="15" dominant-baseline="ideographic">Key Findings of Physical Space</tspan></text></g></g></g><g id="g-root-tx_limitedc_qvx8n7190xzwq-fill" data-item-order="0" transform="translate(398, 98)"><g id="tx_limitedc_qvx8n7190xzwq-fill-merged" stroke="none" fill="#de8431" fill-opacity="1"><g><text style="font: bold 20px Roboto, sans-serif; white-space: pre;" transform="translate(76, 34)" font-weight="bold" font-size="20px" font-family="Roboto, sans-serif"><tspan x="-33.78" y="-0" dominant-baseline="ideographic">Limited </tspan><tspan x="-60.23" y="24" dominant-baseline="ideographic">Collaboration</tspan></text></g></g></g><g id="g-root-tx_crampedl_dl37cz190xybv-fill" data-item-order="0" transform="translate(404, 158)"><g id="tx_crampedl_dl37cz190xybv-fill-merged" stroke="none" fill="#484848" fill-opacity="1"><g><text style="font: 15px Roboto, sans-serif; white-space: pre;" transform="translate(70, 28)" font-size="15px" font-family="Roboto, sans-serif"><tspan x="-55.76" y="0" dominant-baseline="ideographic">Cramped layout, </tspan><tspan x="-53.59" y="18" dominant-baseline="ideographic">little movement</tspan></text></g></g></g><g id="g-root-tx_disrupte_1hi7sar190xzwo-fill" data-item-order="0" transform="translate(74, 278)"><g id="tx_disrupte_1hi7sar190xzwo-fill-merged" stroke="none" fill="#e0cb15" fill-opacity="1"><g><text style="font: bold 20px Roboto, sans-serif; white-space: pre;" transform="translate(118, 34)" font-weight="bold" font-size="20px" font-family="Roboto, sans-serif"><tspan x="-89.18" y="-0" dominant-baseline="ideographic">Disrupted </tspan><tspan x="-99.7" y="24" dominant-baseline="ideographic">Circulation</tspan></text></g></g></g><g id="g-root-tx_poororga_959p8j190xz44-fill" data-item-order="0" transform="translate(746, 278)"><g id="tx_poororga_959p8j190xz44-fill-merged" stroke="none" fill="#e55753" fill-opacity="1"><g><text style="font: bold 20px Roboto, sans-serif; white-space: pre;" transform="translate(10, 34)" font-weight="bold" font-size="20px" font-family="Roboto, sans-serif"><tspan x="2" y="-0" dominant-baseline="ideographic">Poor </tspan><tspan x="2" y="24" dominant-baseline="ideographic">Organization</tspan></text></g></g></g><g id="g-root-tx_hindered_147dr0j190xybt-fill" data-item-order="0" transform="translate(50, 338)"><g id="tx_hindered_147dr0j190xybt-fill-merged" stroke="none" fill="#484848" fill-opacity="1"><g><text style="font: 15px Roboto, sans-serif; white-space: pre;" transform="translate(142, 28)" font-size="15px" font-family="Roboto, sans-serif"><tspan x="-121.97" y="0" dominant-baseline="ideographic">Hindered visibility, </tspan><tspan x="-62.86" y="18" dominant-baseline="ideographic">workflow</tspan></text></g></g></g><g id="g-root-tx_toolssca_1uux8ub190y0hx-fill" data-item-order="0" transform="translate(746, 338)"><g id="tx_toolssca_1uux8ub190y0hx-fill-merged" stroke="none" fill="#484848" fill-opacity="1"><g><text style="font: 15px Roboto, sans-serif; white-space: pre;" transform="translate(10, 28)" font-size="15px" font-family="Roboto, sans-serif"><tspan x="2" y="0" dominant-baseline="ideographic">Tools scattered, no </tspan><tspan x="2" y="18" dominant-baseline="ideographic">structure</tspan></text></g></g></g><g id="g-root-ic_grou_hrjl6r1916gay-fill" data-item-order="0" transform="translate(440, 380)"></g><g id="g-root-ic_watc_1lza8lf190y1am-fill" data-item-order="0" transform="translate(278, 470)"></g><g id="g-root-ic_1_94n85f1916eiz-fill" data-item-order="0" transform="translate(602, 470)"></g><g id="g-root-tx_limiteds_1lsf0n71917tam-fill" data-item-order="0" transform="translate(386, 531)"><g id="tx_limiteds_1lsf0n71917tam-fill-merged" stroke="none" fill="#969696" fill-opacity="1"><g><text style="font: bold 20px Roboto, sans-serif; white-space: pre;" transform="translate(88, 22)" font-weight="bold" font-size="20px" font-family="Roboto, sans-serif"><tspan x="-71.29" y="12" dominant-baseline="ideographic">Limited Storage</tspan></text></g></g></g><g id="g-root-cp_4_g-4_dj7s3n190xzbg-stroke" data-item-order="-508490" transform="translate(533.0159912109375, 378.02392578125)"><g id="cp_4_g-4_dj7s3n190xzbg-stroke" fill="none" stroke-linecap="round" stroke-linejoin="round" stroke-miterlimit="4" stroke="#ffffff" stroke-width="2" stroke-opacity="1"><g><path d="M 184.6061 10L 261.6382 26.4235L 237.3453 101.3471L 223.1552 76.7691L 139.28 125.1944C 150.6708 151.4896 156.9844 180.4959 156.9844 210.9768L 78.9844 210.9768C 78.9844 159.9037 51.2397 115.3108 10 91.4478L 49.0143 23.891C 74.8716 38.8542 97.3392 59.0241 114.9833 82.9669L 198.796 34.5776L 184.6061 10Z"></path></g></g></g><g id="g-root-cp_3_g-3_93e9z7190y03p-stroke" data-item-order="-508486" transform="translate(355.98101806640625, 209.89111328125)"><g id="cp_3_g-3_93e9z7190y03p-stroke" fill="none" stroke-linecap="round" stroke-linejoin="round" stroke-miterlimit="4" stroke="#ffffff" stroke-width="2" stroke-opacity="1"><g><path d="M 171.7559 68.5L 119.0166 10L 66.2773 68.5L 94.6576 68.5L 94.6576 164.358C 64.0737 167.6472 35.4014 177.32 10 192.0174L 49.0261 259.5673C 69.3225 247.8281 92.8862 241.1094 118.0192 241.1094C 143.1615 241.1094 166.7333 247.833 187.0348 259.5804L 226.0491 192.0236C 201.1981 177.6428 173.2162 168.0713 143.376 164.582L 143.376 68.5L 171.7559 68.5Z"></path></g></g></g><g id="g-root-cp_2_g-2_93e9z7190y03q-stroke" data-item-order="-508482" transform="translate(145.33999633789062, 378.02392578125)"><g id="cp_2_g-2_93e9z7190y03q-stroke" fill="none" stroke-linecap="round" stroke-linejoin="round" stroke-miterlimit="4" stroke="#ffffff" stroke-width="2" stroke-opacity="1"><g><path d="M 87.0321 10L 10 26.4235L 34.2929 101.3471L 48.483 76.769L 130.7671 124.2758C 119.1235 150.8138 112.6616 180.1413 112.6616 210.9781L 190.6616 210.9781C 190.6616 159.8958 218.4164 115.2959 259.6685 91.436L 220.6424 23.8861C 195.0715 38.6816 172.8152 58.5689 155.26 82.1616L 72.8422 34.5776L 87.0321 10Z"></path></g></g></g><g id="g-root-tx_bikestor_1utoao3190xybr-stroke" data-item-order="0" transform="translate(284, 38)"></g><g id="g-root-tx_limitedc_qvx8n7190xzwq-stroke" data-item-order="0" transform="translate(398, 98)"></g><g id="g-root-tx_crampedl_dl37cz190xybv-stroke" data-item-order="0" transform="translate(404, 158)"></g><g id="g-root-tx_disrupte_1hi7sar190xzwo-stroke" data-item-order="0" transform="translate(74, 278)"></g><g id="g-root-tx_poororga_959p8j190xz44-stroke" data-item-order="0" transform="translate(746, 278)"></g><g id="g-root-tx_hindered_147dr0j190xybt-stroke" data-item-order="0" transform="translate(50, 338)"></g><g id="g-root-tx_toolssca_1uux8ub190y0hx-stroke" data-item-order="0" transform="translate(746, 338)"></g><g id="g-root-ic_grou_hrjl6r1916gay-stroke" data-item-order="0" transform="translate(440, 380)"><g id="ic_grou_hrjl6r1916gay-stroke" fill="none" stroke-linecap="round" stroke-linejoin="round" stroke-miterlimit="4" stroke="#ffffff" stroke-width="2" stroke-opacity="1"><g><path d="M 16.5 49C 13.73858 49 11.5 46.761398 11.5 44C 11.5 41.238602 13.73858 39 16.5 39C 19.261421 39 21.5 41.238602 21.5 44C 21.5 46.761398 19.261421 49 16.5 49ZM 25.06134 55.993599C 23.587421 53.0336 20.5312 51 17 51C 14.928761 51 13.02094 51.6996 11.5 52.875599M 51.5 49C 54.261398 49 56.5 46.761398 56.5 44C 56.5 41.238602 54.261398 39 51.5 39C 48.738602 39 46.5 41.238602 46.5 44C 46.5 46.761398 48.738602 49 51.5 49ZM 42.9384 55.993599C 44.412399 53.0336 47.468601 51 50.999802 51C 53.070999 51 54.978802 51.6996 56.499802 52.875599M 34 49C 37.865997 49 41 45.866001 41 42C 41 38.134003 37.865997 35 34 35C 30.134001 35 27 38.134003 27 42C 27 45.866001 30.134001 49 34 49ZM 24.63184 56.5C 26.83102 53.756599 30.2104 52 33.999802 52C 37.789398 52 41.1688 53.756599 43.368 56.5M 10 10M 26 11.5L 42 27.5M 10 10M 26 27.5L 42 11.5"></path></g></g></g><g id="g-root-ic_watc_1lza8lf190y1am-stroke" data-item-order="0" transform="translate(278, 470)"><g id="ic_watc_1lza8lf190y1am-stroke" fill="none" stroke-linecap="round" stroke-linejoin="round" stroke-miterlimit="4" stroke="#ffffff" stroke-width="2" stroke-opacity="1"><g><path d="M 15.5 43.5C 15.5 45.985283 17.514719 48 20 48C 22.485281 48 24.5 45.985283 24.5 43.5C 24.5 41.014717 22.485281 39 20 39C 17.514719 39 15.5 41.014717 15.5 43.5ZM 29 57C 27.950926 52.885952 24.245701 50.006985 20 50.006985C 15.7543 50.006985 12.049074 52.885952 11 57M 43.5 43.5C 43.5 45.985283 45.514717 48 48 48C 50.485283 48 52.5 45.985283 52.5 43.5C 52.5 41.014717 50.485283 39 48 39C 45.514717 39 43.5 41.014717 43.5 43.5ZM 39 57C 40.049076 52.885952 43.754299 50.006985 48 50.006985C 52.245701 50.006985 55.950928 52.885952 57 57M 29.5 41.5C 29.5 43.985283 31.514719 46 34 46C 36.485283 46 38.5 43.985283 38.5 41.5C 38.5 39.014717 36.485283 37 34 37C 31.514719 37 29.5 39.014717 29.5 41.5ZM 41.830002 52.386002C 40.154522 49.669983 37.191231 48.016228 34 48.016228C 30.808767 48.016228 27.845474 49.669983 26.17 52.385998M 25 11L 22 14M 22 11L 25 14M 45 13L 42 16M 42 13L 45 16M 55 21L 52 24M 52 21L 55 24M 16 18L 13 21M 13 18L 16 21M 40.68 32.056C 42.285118 28.043875 45.306801 24.760302 49.172001 22.827999M 28 14L 28.788 14.4C 33.292236 16.650915 36.373741 21.003746 37 26L 37 26M 20 20L 20 20C 26.209766 21.241394 31.321966 25.632595 33.486 31.584L 34 33"></path></g></g></g><g id="g-root-ic_1_94n85f1916eiz-stroke" data-item-order="0" transform="translate(602, 470)"><g id="ic_1_94n85f1916eiz-stroke" fill="none" stroke-linecap="round" stroke-linejoin="round" stroke-miterlimit="4" stroke="#ffffff" stroke-width="2" stroke-opacity="1"><g><path d="M 28.459999 41.220001L 36.459999 42.16C 37.064705 38.999741 35.717243 35.784737 33.040001 34L 28.120001 40.419998C 28.010931 40.562935 27.987001 40.753418 28.057325 40.918884C 28.127649 41.084358 28.281399 41.199326 28.459999 41.220001ZM 46.919998 33.739998L 45.02 41.559998C 46.670422 42.099129 48.449581 42.099129 50.100002 41.560001C 51.432972 41.097031 52.61977 40.289734 53.540001 39.220001L 47.759998 33.559998C 47.64011 33.430904 47.461128 33.374435 47.28886 33.411346C 47.116592 33.448261 46.976463 33.573112 46.919998 33.739998ZM 26.52 55.560001L 21.860001 49C 19.113441 50.669258 17.632524 53.820145 18.1 57L 26.1 56.34C 26.286003 56.342148 26.457823 56.240864 26.546011 56.077084C 26.634201 55.913303 26.62418 55.714104 26.52 55.560001ZM 38.400002 55.16L 40.98 47.540001C 38.014221 46.285973 34.585678 46.932274 32.279999 49.18L 37.540001 55.34C 37.65863 55.479668 37.844158 55.543255 38.023521 55.505711C 38.202885 55.46817 38.34734 55.335522 38.400002 55.16ZM 50.16 55.040001L 56.98 50.759998C 55.471836 47.916225 52.406158 46.253349 49.200001 46.540001L 49.400002 54.540001C 49.370018 54.733482 49.455727 54.926662 49.619293 55.034271C 49.782864 55.14188 49.99419 55.144119 50.16 55.040001ZM 35.34 22L 14.98 42.279999C 14.339461 42.920921 13.300539 42.920921 12.66 42.279999L 11.5 41.120003C 10.85908 40.479462 10.85908 39.440536 11.5 38.800003L 31.860001 18.439999M 40.559998 16.700001L 47.299999 19.299999C 47.773991 19.469963 48.042038 19.971472 47.920002 20.459999C 47.353943 22.710377 46.217381 24.776852 44.619999 26.460001C 43.121525 28.010521 41.166149 29.040771 39.040001 29.400002C 38.589821 29.44067 38.166565 29.180206 38 28.76L 35.34 22L 30.120001 16.700001C 29.47908 16.059462 29.47908 15.020538 30.120001 14.38L 33.02 11.48C 33.660538 10.83908 34.699463 10.83908 35.34 11.48ZM 37.080002 13.22L 38.82 11.48C 39.460541 10.83908 40.499462 10.83908 41.139999 11.48L 42.299999 12.64C 42.940922 13.280539 42.940922 14.319462 42.299999 14.96L 40.559998 16.700001"></path></g></g></g><g id="g-root-tx_limiteds_1lsf0n71917tam-stroke" data-item-order="0" transform="translate(386, 531)"></g></g></g></svg>