<?xml version="1.0" encoding="utf-8" standalone="yes"?>
<!DOCTYPE svg PUBLIC "-//W3C//DTD SVG 1.1//EN" "http://www.w3.org/Graphics/SVG/1.1/DTD/svg11.dtd">
<svg style="fill:none;stroke:none;fill-rule:evenodd;clip-rule:evenodd;stroke-linecap:round;stroke-linejoin:round;stroke-miterlimit:1.5;" version="1.1" xmlns="http://www.w3.org/2000/svg" xmlns:xlink="http://www.w3.org/1999/xlink" width="984" height="768" viewBox="0 0 984 768"><style class="text-font-style fontImports" data-font-family="Montserrat">@import url(https://fonts.googleapis.com/css2?family=Montserrat:wght@400;700&amp;amp;display=block);</style><g id="items" style="isolation: isolate"><g id="blend" style="mix-blend-mode: normal"><g id="g-root-cp_1_g-1_v3m4zjh9ss8y-fill" data-item-order="-628980" transform="translate(38, 198)"><g id="cp_1_g-1_v3m4zjh9ss8y-fill-merged" stroke="none" fill="#88aa74" fill-opacity="1"><g><path d="M10 312.064C10 315.374 12.69 318.064 16 318.064 H172C175.31 318.064 178 315.374 178 312.064 V16.004C178 12.344 174.75 9.534 171.13 10.064L15.13 29.314C12.18 29.744 10 32.274 10 35.254 V312.064"></path></g></g></g><g id="g-root-cp_2_g-2_hss3pbh9sqo3-fill" data-item-order="-628954" transform="translate(218, 137)"><g id="cp_2_g-2_hss3pbh9sqo3-fill-merged" stroke="none" fill="#dd7c41" fill-opacity="1"><g><path d="M10.01 373C10.01 376.31 12.7 379 16.01 379 H102.92C104.86 379 106.68 378.06 107.8 376.49L176.8 290C177.58 288.96 178 287.7 178 286.4 V16.029C178 11.97 174.09 9.076 170.23 10.272C150.01 16.531 69.42 37.619 13.35 65.118C11.29 66.122 10 68.232 10 70.533 V373"></path></g></g></g><g id="g-root-cp_3_g-3_8x53gfh9srgs-fill" data-item-order="-628928" transform="translate(397.9951171875, 122)"><g id="cp_3_g-3_8x53gfh9srgs-fill-merged" stroke="none" fill="#597f55" fill-opacity="1"><g><path d="M10.005 289.68C10.005 293.77 12.775 296.67 15.455 295.37L39.265 285.26C74.245 270.4 113.765 270.4 148.745 285.26L172.555 295.37C175.235 296.66 178.005 293.77 178.005 289.68 V27.13C178.01 24.2 176.55 21.7 174.55 21.21L149.25 15.82C112.83 8.06 75.18 8.06 38.76 15.82L13.46 21.21C11.46 21.69 10 24.19 10 27.13 V289.68"></path></g></g></g><g id="g-root-cp_4_g-4_4hblbzh9ss91-fill" data-item-order="-628902" transform="translate(578, 137)"><g id="cp_4_g-4_4hblbzh9ss91-fill-merged" stroke="none" fill="#a9bc9d" fill-opacity="1"><g><path d="M177.99 373C177.99 376.31 175.3 379 171.99 379 H85.08C83.14 379 81.32 378.06 80.2 376.49L11.2 290C10.42 288.96 10 287.7 10 286.4 V16.029C10 11.97 13.91 9.076 17.77 10.272C37.99 16.531 118.58 37.619 174.65 65.118C176.71 66.122 178 68.232 178 70.533 V373"></path></g></g></g><g id="g-root-cp_5_g-5_1umsn27h9ssum-fill" data-item-order="-628876" transform="translate(758, 198)"><g id="cp_5_g-5_1umsn27h9ssum-fill-merged" stroke="none" fill="#f1be43" fill-opacity="1"><g><path d="M178 312.064C178 315.374 175.31 318.064 172 318.064 H16C12.69 318.064 10 315.374 10 312.064 V16.004C10 12.344 13.25 9.534 16.87 10.064L172.87 29.314C175.82 29.744 178 32.274 178 35.254 V126.064 H10 H178 V312.064"></path></g></g></g><g id="g-root-cp_-1_left_1hbylrzh9sr9r-fill" data-item-order="-628848" transform="translate(38, 518)"><g id="cp_-1_left_1hbylrzh9sr9r-fill-merged" stroke="none" fill="#969696" fill-opacity="1"><g><path d="M10 172C10 175.31 12.69 178 16 178 H280C283.31 178 286 175.31 286 172 V16C286 12.69 283.31 10 280 10 H16C12.69 10 10 12.69 10 16 V172"></path></g></g></g><g id="g-root-cp_-1_right_1cw53njh9ss20-fill" data-item-order="-628822" transform="translate(650, 518)"><g id="cp_-1_right_1cw53njh9ss20-fill-merged" stroke="none" fill="#f1be43" fill-opacity="1"><g><path d="M10 172C10 175.31 12.69 178 16 178 H280C283.31 178 286 175.31 286 172 V16C286 12.69 283.31 10 280 10 H16C12.69 10 10 12.69 10 16 V172"></path></g></g></g><g id="g-root-tx_4_mgpry7h9sqh7-fill" data-item-order="0" transform="translate(650, 194)"><g id="tx_4_mgpry7h9sqh7-fill-merged" stroke="none" fill="#ffffff" fill-opacity="1"><g><text style="font: bold 25px Montserrat, sans-serif; white-space: pre;" transform="translate(22, 28)" font-weight="bold" font-size="25px" font-family="Montserrat, sans-serif"><tspan x="-8.61" y="15" dominant-baseline="ideographic">4</tspan></text></g></g></g><g id="g-root-tx_2_1luwhbzh9srnx-fill" data-item-order="0" transform="translate(290, 194)"><g id="tx_2_1luwhbzh9srnx-fill-merged" stroke="none" fill="#ffffff" fill-opacity="1"><g><text style="font: bold 25px Montserrat, sans-serif; white-space: pre;" transform="translate(22, 28)" font-weight="bold" font-size="25px" font-family="Montserrat, sans-serif"><tspan x="-7.38" y="15" dominant-baseline="ideographic">2</tspan></text></g></g></g><g id="g-root-tx_1_909gvzh9ssn8-fill" data-item-order="0" transform="translate(110, 236)"><g id="tx_1_909gvzh9ssn8-fill-merged" stroke="none" fill="#ffffff" fill-opacity="1"><g><text style="font: bold 25px Montserrat, sans-serif; white-space: pre;" transform="translate(22, 28)" font-weight="bold" font-size="25px" font-family="Montserrat, sans-serif"><tspan x="-4.9" y="15" dominant-baseline="ideographic">1</tspan></text></g></g></g><g id="g-root-tx_spatialw_145hw3jh9st1c-fill" data-item-order="0" transform="translate(422, 230)"><g id="tx_spatialw_145hw3jh9st1c-fill-merged" stroke="none" fill="#ffffff" fill-opacity="1"><g><text style="font: bold 20px Montserrat, sans-serif; white-space: pre;" transform="translate(70, 46)" font-weight="bold" font-size="20px" font-family="Montserrat, sans-serif"><tspan x="-38.73" y="-12" dominant-baseline="ideographic">Spatial </tspan><tspan x="-53.93" y="12" dominant-baseline="ideographic">Workflow </tspan><tspan x="-49.32" y="36" dominant-baseline="ideographic">Mapping</tspan></text></g></g></g><g id="g-root-tx_5_1hbylrzh9u5fs-fill" data-item-order="0" transform="translate(830, 236)"><g id="tx_5_1hbylrzh9u5fs-fill-merged" stroke="none" fill="#ffffff" fill-opacity="1"><g><text style="font: bold 25px Montserrat, sans-serif; white-space: pre;" transform="translate(22, 28)" font-weight="bold" font-size="25px" font-family="Montserrat, sans-serif"><tspan x="-7.44" y="15" dominant-baseline="ideographic">5</tspan></text></g></g></g><g id="g-root-tx_staffint_v8lxofh9srny-fill" data-item-order="0" transform="translate(242, 272)"><g id="tx_staffint_v8lxofh9srny-fill-merged" stroke="none" fill="#ffffff" fill-opacity="1"><g><text style="font: bold 20px Montserrat, sans-serif; white-space: pre;" transform="translate(70, 40)" font-weight="bold" font-size="20px" font-family="Montserrat, sans-serif"><tspan x="-24.54" y="-0" dominant-baseline="ideographic">Staff </tspan><tspan x="-54.94" y="24" dominant-baseline="ideographic">Interviews</tspan></text></g></g></g><g id="g-root-tx_function_9599kvh9ss24-fill" data-item-order="0" transform="translate(596, 272)"><g id="tx_function_9599kvh9ss24-fill-merged" stroke="none" fill="#ffffff" fill-opacity="1"><g><text style="font: bold 20px Montserrat, sans-serif; white-space: pre;" transform="translate(76, 40)" font-weight="bold" font-size="20px" font-family="Montserrat, sans-serif"><tspan x="-58.9" y="-0" dominant-baseline="ideographic">Functional </tspan><tspan x="-39.9" y="24" dominant-baseline="ideographic">Zoning</tspan></text></g></g></g><g id="g-root-tx_observat_8z0iprh9sqh6-fill" data-item-order="0" transform="translate(44, 314)"><g id="tx_observat_8z0iprh9sqh6-fill-merged" stroke="none" fill="#ffffff" fill-opacity="1"><g><text style="font: bold 20px Montserrat, sans-serif; white-space: pre;" transform="translate(88, 40)" font-weight="bold" font-size="20px" font-family="Montserrat, sans-serif"><tspan x="-74.93" y="-0" dominant-baseline="ideographic">Observational </tspan><tspan x="-40.73" y="24" dominant-baseline="ideographic">Studies</tspan></text></g></g></g><g id="g-root-tx_visualiz_4o6ta7h9sqo9-fill" data-item-order="0" transform="translate(416, 314)"><g id="tx_visualiz_4o6ta7h9sqo9-fill-merged" stroke="none" fill="#ffffff" fill-opacity="1"><g><text style="font: 15px Montserrat, sans-serif; white-space: pre;" transform="translate(76, 40)" font-size="15px" font-family="Montserrat, sans-serif"><tspan x="-51.09" y="-9" dominant-baseline="ideographic">Visualize and </tspan><tspan x="-59.01" y="9" dominant-baseline="ideographic">optimize repair </tspan><tspan x="-30.68" y="27" dominant-baseline="ideographic">process</tspan></text></g></g></g><g id="g-root-tx_intuitiv_qnsmv3h9u6fi-fill" data-item-order="0" transform="translate(788, 314)"><g id="tx_intuitiv_qnsmv3h9u6fi-fill-merged" stroke="none" fill="#ffffff" fill-opacity="1"><g><text style="font: bold 20px Montserrat, sans-serif; white-space: pre;" transform="translate(64, 40)" font-weight="bold" font-size="20px" font-family="Montserrat, sans-serif"><tspan x="-43.92" y="-0" dominant-baseline="ideographic">Intuitive </tspan><tspan x="-51.1" y="24" dominant-baseline="ideographic">Workflow</tspan></text></g></g></g><g id="g-root-tx_gatherin_4mbe0vh9srnz-fill" data-item-order="0" transform="translate(236, 344)"><g id="tx_gatherin_4mbe0vh9srnz-fill-merged" stroke="none" fill="#ffffff" fill-opacity="1"><g><text style="font: 15px Montserrat, sans-serif; white-space: pre;" transform="translate(76, 40)" font-size="15px" font-family="Montserrat, sans-serif"><tspan x="-59.49" y="-9" dominant-baseline="ideographic">Gather insights </tspan><tspan x="-40.57" y="9" dominant-baseline="ideographic">from shop </tspan><tspan x="-42.83" y="27" dominant-baseline="ideographic">employees</tspan></text></g></g></g><g id="g-root-tx_dividesh_1ha36inh9u6fh-fill" data-item-order="0" transform="translate(596, 344)"><g id="tx_dividesh_1ha36inh9u6fh-fill-merged" stroke="none" fill="#ffffff" fill-opacity="1"><g><text style="font: 15px Montserrat, sans-serif; white-space: pre;" transform="translate(76, 34)" font-size="15px" font-family="Montserrat, sans-serif"><tspan x="-63.02" y="-0" dominant-baseline="ideographic">Divide shop into </tspan><tspan x="-45.75" y="18" dominant-baseline="ideographic">three zones</tspan></text></g></g></g><g id="g-root-tx_identify_142dinzh9sruz-fill" data-item-order="0" transform="translate(56, 386)"><g id="tx_identify_142dinzh9sruz-fill-merged" stroke="none" fill="#ffffff" fill-opacity="1"><g><text style="font: 15px Montserrat, sans-serif; white-space: pre;" transform="translate(76, 40)" font-size="15px" font-family="Montserrat, sans-serif"><tspan x="-30.53" y="-9" dominant-baseline="ideographic">Identify </tspan><tspan x="-59.91" y="9" dominant-baseline="ideographic">inefficiencies in </tspan><tspan x="-54.75" y="27" dominant-baseline="ideographic">current layout</tspan></text></g></g></g><g id="g-root-tx_followcy_8x53gfh9u5mv-fill" data-item-order="0" transform="translate(770, 386)"><g id="tx_followcy_8x53gfh9u5mv-fill-merged" stroke="none" fill="#ffffff" fill-opacity="1"><g><text style="font: 15px Montserrat, sans-serif; white-space: pre;" transform="translate(82, 34)" font-size="15px" font-family="Montserrat, sans-serif"><tspan x="-53.05" y="-0" dominant-baseline="ideographic">Follow cycling </tspan><tspan x="-66.3" y="18" dominant-baseline="ideographic">loop for efficiency</tspan></text></g></g></g><g id="g-root-tx_3_1d30blrh9sqh6-fill" data-item-order="0" transform="translate(470, 152)"><g id="tx_3_1d30blrh9sqh6-fill-merged" stroke="none" fill="#ffffff" fill-opacity="1"><g><text style="font: bold 25px Montserrat, sans-serif; white-space: pre;" transform="translate(22, 28)" font-weight="bold" font-size="25px" font-family="Montserrat, sans-serif"><tspan x="-7.4" y="15" dominant-baseline="ideographic">3</tspan></text></g></g></g><g id="g-root-tx_strategi_18i70sfh9u58r-fill" data-item-order="0" transform="translate(380, 518)"><g id="tx_strategi_18i70sfh9u58r-fill-merged" stroke="none" fill="#484848" fill-opacity="1"><g><text style="font: bold 20px Montserrat, sans-serif; white-space: pre;" transform="translate(112, 22)" font-weight="bold" font-size="20px" font-family="Montserrat, sans-serif"><tspan x="-99.18" y="12" dominant-baseline="ideographic">Strategic Redesign</tspan></text></g></g></g><g id="g-root-tx_clearzon_1qapzgfh9u51p-fill" data-item-order="0" transform="translate(674, 614)"><g id="tx_clearzon_1qapzgfh9u51p-fill-merged" stroke="none" fill="#ffffff" fill-opacity="1"><g><text style="font: 15px Montserrat, sans-serif; white-space: pre;" transform="translate(10, 34)" font-size="15px" font-family="Montserrat, sans-serif"><tspan x="2" y="-0" dominant-baseline="ideographic">Clear zoning, intuitive tool </tspan><tspan x="2" y="18" dominant-baseline="ideographic">placement</tspan></text></g></g></g><g id="g-root-tx_ineffici_qpo24fh9u5ft-fill" data-item-order="0" transform="translate(50, 542)"><g id="tx_ineffici_qpo24fh9u5ft-fill-merged" stroke="none" fill="#ffffff" fill-opacity="1"><g><text style="font: bold 20px Montserrat, sans-serif; white-space: pre;" transform="translate(250, 46)" font-weight="bold" font-size="20px" font-family="Montserrat, sans-serif"><tspan x="-168.77" y="-0" dominant-baseline="ideographic">Inefficient Shop </tspan><tspan x="-73.52" y="24" dominant-baseline="ideographic">Layout</tspan></text></g></g></g><g id="g-root-tx_efficien_hvwh4vh9u58s-fill" data-item-order="0" transform="translate(674, 542)"><g id="tx_efficien_hvwh4vh9u58s-fill-merged" stroke="none" fill="#ffffff" fill-opacity="1"><g><text style="font: bold 20px Montserrat, sans-serif; white-space: pre;" transform="translate(10, 40)" font-weight="bold" font-size="20px" font-family="Montserrat, sans-serif"><tspan x="2" y="-0" dominant-baseline="ideographic">Efficient, Inclusive </tspan><tspan x="2" y="24" dominant-baseline="ideographic">Shop</tspan></text></g></g></g><g id="g-root-tx_poorstor_3digvh9u5fu-fill" data-item-order="0" transform="translate(74, 626)"><g id="tx_poorstor_3digvh9u5fu-fill-merged" stroke="none" fill="#ffffff" fill-opacity="1"><g><text style="font: 15px Montserrat, sans-serif; white-space: pre;" transform="translate(226, 22)" font-size="15px" font-family="Montserrat, sans-serif"><tspan x="-213.81" y="9" dominant-baseline="ideographic">Poor storage and repair flow</tspan></text></g></g></g><g id="g-root-tx_redesign_18gblj3h9ssu9-fill" data-item-order="0" transform="translate(194, 38)"><g id="tx_redesign_18gblj3h9ssu9-fill-merged" stroke="none" fill="#484848" fill-opacity="1"><g><text style="font: bold 25px Montserrat, sans-serif; white-space: pre;" transform="translate(298, 28)" font-weight="bold" font-size="25px" font-family="Montserrat, sans-serif"><tspan x="-281.36" y="15" dominant-baseline="ideographic">Redesigning for Efficiency and Community</tspan></text></g></g></g><g id="g-root-cp_1_g-1_v3m4zjh9ss8y-stroke" data-item-order="-628980" transform="translate(38, 198)"><g id="cp_1_g-1_v3m4zjh9ss8y-stroke" fill="none" stroke-linecap="round" stroke-linejoin="round" stroke-miterlimit="4" stroke="#ffffff" stroke-width="2" stroke-opacity="1"><g><path d="M 10 126.0644L 10 35.2544C 10 32.2744 12.18 29.7444 15.13 29.3144L 171.13 10.0644C 174.75 9.5344 178 12.3444 178 16.0044L 178 126.0644M 10 126.065002L 10 258.065033M 178 126.065002L 178 258.065033M 178 258.06443L 178 312.06443C 178 315.37443 175.31 318.06443 172 318.06443L 16 318.06443C 12.69 318.06443 10 315.37443 10 312.06443L 10 258.06443"></path></g></g></g><g id="g-root-cp_2_g-2_hss3pbh9sqo3-stroke" data-item-order="-628954" transform="translate(218, 137)"><g id="cp_2_g-2_hss3pbh9sqo3-stroke" fill="none" stroke-linecap="round" stroke-linejoin="round" stroke-miterlimit="4" stroke="#ffffff" stroke-width="2" stroke-opacity="1"><g><path d="M 10 145L 10 70.5328C 10 68.2321 11.29 66.1223 13.35 65.1176C 69.42 37.6195 150.01 16.5313 170.23 10.2721C 174.09 9.0765 178 11.97 178 16.0289L 178 145M 10 145.000004L 10 277.000015M 178 145.000004L 178 277.000015M 178 277.000031L 178 286.400031C 178 287.700031 177.58 288.960031 176.8 290.000031L 107.8 376.490031C 106.68 378.060031 104.86 379.000031 102.92 379.000031L 16.01 379.000031C 12.7 379.000031 10.01 376.310031 10.01 373.000031L 10 373.000031L 10 277.000031"></path></g></g></g><g id="g-root-cp_3_g-3_8x53gfh9srgs-stroke" data-item-order="-628928" transform="translate(397.9951171875, 122)"><g id="cp_3_g-3_8x53gfh9srgs-stroke" fill="none" stroke-linecap="round" stroke-linejoin="round" stroke-miterlimit="4" stroke="#ffffff" stroke-width="2" stroke-opacity="1"><g><path d="M 10 118L 10 27.13C 10 24.19 11.46 21.69 13.46 21.21L 38.76 15.82C 75.18 8.06 112.83 8.06 149.25 15.82L 174.55 21.21C 176.55 21.7 178.01 24.2 178.01 27.13L 178 27.13L 178 118M 10.004883 118L 10.004883 250.000015M 178.004883 118L 178.004883 250.000015M 178.004883 250.000008L 178.004883 289.680008C 178.004883 293.770008 175.234883 296.660008 172.554883 295.370008L 148.744883 285.260008C 113.764883 270.400008 74.244883 270.400008 39.264883 285.260008L 15.454883 295.370008C 12.774883 296.670008 10.004883 293.770008 10.004883 289.680008L 10.004883 250.000008"></path></g></g></g><g id="g-root-cp_4_g-4_4hblbzh9ss91-stroke" data-item-order="-628902" transform="translate(578, 137)"><g id="cp_4_g-4_4hblbzh9ss91-stroke" fill="none" stroke-linecap="round" stroke-linejoin="round" stroke-miterlimit="4" stroke="#ffffff" stroke-width="2" stroke-opacity="1"><g><path d="M 178 145L 178 70.5328C 178 68.2321 176.71 66.1223 174.65 65.1176C 118.58 37.6195 37.99 16.5313 17.77 10.2721C 13.91 9.0765 10 11.97 10 16.0289L 10 145M 10 145.000004L 10 277.000015M 178 277.000015L 178 145.000004M 10 277.000031L 10 286.400031C 10 287.700031 10.42 288.960031 11.2 290.000031L 80.2 376.490031C 81.32 378.060031 83.14 379.000031 85.08 379.000031L 171.99 379.000031C 175.3 379.000031 177.99 376.310031 177.99 373.000031L 178 373.000031L 178 277.000031"></path></g></g></g><g id="g-root-cp_5_g-5_1umsn27h9ssum-stroke" data-item-order="-628876" transform="translate(758, 198)"><g id="cp_5_g-5_1umsn27h9ssum-stroke" fill="none" stroke-linecap="round" stroke-linejoin="round" stroke-miterlimit="4" stroke="#ffffff" stroke-width="2" stroke-opacity="1"><g><path d="M 178 126.0644L 178 35.2544C 178 32.2744 175.82 29.7444 172.87 29.3144L 16.87 10.0644C 13.25 9.5344 10 12.3444 10 16.0044L 10 126.0644M 10 125.999992L 10 258.065109M 178 258.065109L 178 125.999992M 10 258.06443L 10 312.06443C 10 315.37443 12.69 318.06443 16 318.06443L 172 318.06443C 175.31 318.06443 178 315.37443 178 312.06443L 178 258.06443"></path></g></g></g><g id="g-root-cp_-1_left_1hbylrzh9sr9r-stroke" data-item-order="-628848" transform="translate(38, 518)"><g id="cp_-1_left_1hbylrzh9sr9r-stroke" fill="none" stroke-linecap="round" stroke-linejoin="round" stroke-miterlimit="4" stroke="#ffffff" stroke-width="2" stroke-opacity="1"><g><path d="M 10 34L 10 16C 10 12.69 12.69 10 16 10L 280 10C 283.31 10 286 12.69 286 16L 286 34M 10 34L 10 154M 286 154L 286 34M 286 154L 286 172C 286 175.31 283.31 178 280 178L 16 178C 12.69 178 10 175.31 10 172L 10 154"></path></g></g></g><g id="g-root-cp_-1_right_1cw53njh9ss20-stroke" data-item-order="-628822" transform="translate(650, 518)"><g id="cp_-1_right_1cw53njh9ss20-stroke" fill="none" stroke-linecap="round" stroke-linejoin="round" stroke-miterlimit="4" stroke="#ffffff" stroke-width="2" stroke-opacity="1"><g><path d="M 10 34L 10 16C 10 12.69 12.69 10 16 10L 280 10C 283.31 10 286 12.69 286 16L 286 34M 10 34L 10 154M 286 154L 286 34M 286 154L 286 172C 286 175.31 283.31 178 280 178L 16 178C 12.69 178 10 175.31 10 172L 10 154"></path></g></g></g><g id="g-root-tx_4_mgpry7h9sqh7-stroke" data-item-order="0" transform="translate(650, 194)"></g><g id="g-root-tx_2_1luwhbzh9srnx-stroke" data-item-order="0" transform="translate(290, 194)"></g><g id="g-root-tx_1_909gvzh9ssn8-stroke" data-item-order="0" transform="translate(110, 236)"></g><g id="g-root-tx_spatialw_145hw3jh9st1c-stroke" data-item-order="0" transform="translate(422, 230)"></g><g id="g-root-tx_5_1hbylrzh9u5fs-stroke" data-item-order="0" transform="translate(830, 236)"></g><g id="g-root-tx_staffint_v8lxofh9srny-stroke" data-item-order="0" transform="translate(242, 272)"></g><g id="g-root-tx_function_9599kvh9ss24-stroke" data-item-order="0" transform="translate(596, 272)"></g><g id="g-root-tx_observat_8z0iprh9sqh6-stroke" data-item-order="0" transform="translate(44, 314)"></g><g id="g-root-tx_visualiz_4o6ta7h9sqo9-stroke" data-item-order="0" transform="translate(416, 314)"></g><g id="g-root-tx_intuitiv_qnsmv3h9u6fi-stroke" data-item-order="0" transform="translate(788, 314)"></g><g id="g-root-tx_gatherin_4mbe0vh9srnz-stroke" data-item-order="0" transform="translate(236, 344)"></g><g id="g-root-tx_dividesh_1ha36inh9u6fh-stroke" data-item-order="0" transform="translate(596, 344)"></g><g id="g-root-tx_identify_142dinzh9sruz-stroke" data-item-order="0" transform="translate(56, 386)"></g><g id="g-root-tx_followcy_8x53gfh9u5mv-stroke" data-item-order="0" transform="translate(770, 386)"></g><g id="g-root-tx_3_1d30blrh9sqh6-stroke" data-item-order="0" transform="translate(470, 152)"></g><g id="g-root-tx_strategi_18i70sfh9u58r-stroke" data-item-order="0" transform="translate(380, 518)"></g><g id="g-root-tx_clearzon_1qapzgfh9u51p-stroke" data-item-order="0" transform="translate(674, 614)"></g><g id="g-root-tx_ineffici_qpo24fh9u5ft-stroke" data-item-order="0" transform="translate(50, 542)"></g><g id="g-root-tx_efficien_hvwh4vh9u58s-stroke" data-item-order="0" transform="translate(674, 542)"></g><g id="g-root-tx_poorstor_3digvh9u5fu-stroke" data-item-order="0" transform="translate(74, 626)"></g><g id="g-root-tx_redesign_18gblj3h9ssu9-stroke" data-item-order="0" transform="translate(194, 38)"></g></g></g></svg>