<?xml version="1.0" encoding="utf-8" standalone="yes"?>
<!DOCTYPE svg PUBLIC "-//W3C//DTD SVG 1.1//EN" "http://www.w3.org/Graphics/SVG/1.1/DTD/svg11.dtd">
<svg style="fill:none;stroke:none;fill-rule:evenodd;clip-rule:evenodd;stroke-linecap:round;stroke-linejoin:round;stroke-miterlimit:1.5;" version="1.1" xmlns="http://www.w3.org/2000/svg" xmlns:xlink="http://www.w3.org/1999/xlink" width="984" height="708" viewBox="0 0 984 708"><style class="text-font-style fontImports" data-font-family="Roboto">@import url(https://fonts.googleapis.com/css2?family=Roboto:wght@400;700&amp;amp;display=block);</style><g id="items" style="isolation: isolate"><g id="blend" style="mix-blend-mode: normal"><g id="g-root-cp_1_g-1_v3m4zjh9ss8y-fill" data-item-order="-572820" transform="translate(38, 198)"><g id="cp_1_g-1_v3m4zjh9ss8y-fill-merged" stroke="none" fill="#e0cb15" fill-opacity="1"><g><path d="M10 300.064C10 303.374 12.69 306.064 16 306.064 H172C175.31 306.064 178 303.374 178 300.064 V16.004C178 12.344 174.75 9.534 171.13 10.064L15.13 29.314C12.18 29.744 10 32.274 10 35.254 V300.064"></path></g></g></g><g id="g-root-cp_2_g-2_hss3pbh9sqo3-fill" data-item-order="-572794" transform="translate(218, 137)"><g id="cp_2_g-2_hss3pbh9sqo3-fill-merged" stroke="none" fill="#de8431" fill-opacity="1"><g><path d="M10.01 361C10.01 364.31 12.7 367 16.01 367 H102.92C104.86 367 106.68 366.06 107.8 364.49L176.8 278C177.58 276.96 178 275.7 178 274.4 V16.029C178 11.97 174.09 9.076 170.23 10.272C150.01 16.531 69.42 37.619 13.35 65.118C11.29 66.122 10 68.232 10 70.533 V361"></path></g></g></g><g id="g-root-cp_3_g-3_8x53gfh9srgs-fill" data-item-order="-572768" transform="translate(397.9951171875, 122)"><g id="cp_3_g-3_8x53gfh9srgs-fill-merged" stroke="none" fill="#92bd39" fill-opacity="1"><g><path d="M10.005 277.68C10.005 281.77 12.775 284.67 15.455 283.37L39.265 273.26C74.245 258.4 113.765 258.4 148.745 273.26L172.555 283.37C175.235 284.66 178.005 281.77 178.005 277.68 V27.13C178.01 24.2 176.55 21.7 174.55 21.21L149.25 15.82C112.83 8.06 75.18 8.06 38.76 15.82L13.46 21.21C11.46 21.69 10 24.19 10 27.13 V277.68"></path></g></g></g><g id="g-root-cp_4_g-4_4hblbzh9ss91-fill" data-item-order="-572742" transform="translate(578, 137)"><g id="cp_4_g-4_4hblbzh9ss91-fill-merged" stroke="none" fill="#3cc583" fill-opacity="1"><g><path d="M177.99 361C177.99 364.31 175.3 367 171.99 367 H85.08C83.14 367 81.32 366.06 80.2 364.49L11.2 278C10.42 276.96 10 275.7 10 274.4 V16.029C10 11.97 13.91 9.076 17.77 10.272C37.99 16.531 118.58 37.619 174.65 65.118C176.71 66.122 178 68.232 178 70.533 V361"></path></g></g></g><g id="g-root-cp_5_g-5_1umsn27h9ssum-fill" data-item-order="-572716" transform="translate(758, 198)"><g id="cp_5_g-5_1umsn27h9ssum-fill-merged" stroke="none" fill="#1eabda" fill-opacity="1"><g><path d="M178 300.064C178 303.374 175.31 306.064 172 306.064 H16C12.69 306.064 10 303.374 10 300.064 V16.004C10 12.344 13.25 9.534 16.87 10.064L172.87 29.314C175.82 29.744 178 32.274 178 35.254 V126.064 H10 H178 V300.064"></path></g></g></g><g id="g-root-cp_-1_left_1hbylrzh9sr9r-fill" data-item-order="-572688" transform="translate(38, 506)"><g id="cp_-1_left_1hbylrzh9sr9r-fill-merged" stroke="none" fill="#969696" fill-opacity="1"><g><path d="M10 124C10 127.31 12.69 130 16 130 H280C283.31 130 286 127.31 286 124 V16C286 12.69 283.31 10 280 10 H16C12.69 10 10 12.69 10 16 V124"></path></g></g></g><g id="g-root-cp_-1_right_1cw53njh9ss20-fill" data-item-order="-572662" transform="translate(650, 506)"><g id="cp_-1_right_1cw53njh9ss20-fill-merged" stroke="none" fill="#4e88e7" fill-opacity="1"><g><path d="M10 124C10 127.31 12.69 130 16 130 H280C283.31 130 286 127.31 286 124 V16C286 12.69 283.31 10 280 10 H16C12.69 10 10 12.69 10 16 V124"></path></g></g></g><g id="g-root-tx_clearzon_1qapzgfh9u51p-fill" data-item-order="0" transform="translate(674, 566)"><g id="tx_clearzon_1qapzgfh9u51p-fill-merged" stroke="none" fill="#ffffff" fill-opacity="1"><g><text style="font: 15px Roboto, sans-serif; white-space: pre;" transform="translate(10, 28)" font-size="15px" font-family="Roboto, sans-serif"><tspan x="2" y="0" dominant-baseline="ideographic">Clear zoning, intuitive tool </tspan><tspan x="2" y="18" dominant-baseline="ideographic">placement</tspan></text></g></g></g><g id="g-root-tx_2_1luwhbzh9srnx-fill" data-item-order="0" transform="translate(290, 194)"><g id="tx_2_1luwhbzh9srnx-fill-merged" stroke="none" fill="#ffffff" fill-opacity="1"><g><text style="font: bold 25px Roboto, sans-serif; white-space: pre;" transform="translate(22, 28)" font-weight="bold" font-size="25px" font-family="Roboto, sans-serif"><tspan x="-7.17" y="15" dominant-baseline="ideographic">2</tspan></text></g></g></g><g id="g-root-tx_1_909gvzh9ssn8-fill" data-item-order="0" transform="translate(110, 236)"><g id="tx_1_909gvzh9ssn8-fill-merged" stroke="none" fill="#ffffff" fill-opacity="1"><g><text style="font: bold 25px Roboto, sans-serif; white-space: pre;" transform="translate(22, 28)" font-weight="bold" font-size="25px" font-family="Roboto, sans-serif"><tspan x="-7.17" y="15" dominant-baseline="ideographic">1</tspan></text></g></g></g><g id="g-root-tx_spatialw_145hw3jh9st1c-fill" data-item-order="0" transform="translate(434, 230)"><g id="tx_spatialw_145hw3jh9st1c-fill-merged" stroke="none" fill="#ffffff" fill-opacity="1"><g><text style="font: bold 20px Roboto, sans-serif; white-space: pre;" transform="translate(58, 46)" font-weight="bold" font-size="20px" font-family="Roboto, sans-serif"><tspan x="-33.66" y="-12" dominant-baseline="ideographic">Spatial </tspan><tspan x="-44.85" y="12" dominant-baseline="ideographic">Workflow </tspan><tspan x="-41.81" y="36" dominant-baseline="ideographic">Mapping</tspan></text></g></g></g><g id="g-root-tx_5_1hbylrzh9u5fs-fill" data-item-order="0" transform="translate(830, 236)"><g id="tx_5_1hbylrzh9u5fs-fill-merged" stroke="none" fill="#ffffff" fill-opacity="1"><g><text style="font: bold 25px Roboto, sans-serif; white-space: pre;" transform="translate(22, 28)" font-weight="bold" font-size="25px" font-family="Roboto, sans-serif"><tspan x="-7.17" y="15" dominant-baseline="ideographic">5</tspan></text></g></g></g><g id="g-root-tx_staffint_v8lxofh9srny-fill" data-item-order="0" transform="translate(248, 272)"><g id="tx_staffint_v8lxofh9srny-fill-merged" stroke="none" fill="#ffffff" fill-opacity="1"><g><text style="font: bold 20px Roboto, sans-serif; white-space: pre;" transform="translate(64, 34)" font-weight="bold" font-size="20px" font-family="Roboto, sans-serif"><tspan x="-22.05" y="-0" dominant-baseline="ideographic">Staff </tspan><tspan x="-46.66" y="24" dominant-baseline="ideographic">Interviews</tspan></text></g></g></g><g id="g-root-tx_function_9599kvh9ss24-fill" data-item-order="0" transform="translate(608, 272)"><g id="tx_function_9599kvh9ss24-fill-merged" stroke="none" fill="#ffffff" fill-opacity="1"><g><text style="font: bold 20px Roboto, sans-serif; white-space: pre;" transform="translate(64, 34)" font-weight="bold" font-size="20px" font-family="Roboto, sans-serif"><tspan x="-49.57" y="-0" dominant-baseline="ideographic">Functional </tspan><tspan x="-33.67" y="24" dominant-baseline="ideographic">Zoning</tspan></text></g></g></g><g id="g-root-tx_observat_8z0iprh9sqh6-fill" data-item-order="0" transform="translate(50, 314)"><g id="tx_observat_8z0iprh9sqh6-fill-merged" stroke="none" fill="#ffffff" fill-opacity="1"><g><text style="font: bold 20px Roboto, sans-serif; white-space: pre;" transform="translate(82, 34)" font-weight="bold" font-size="20px" font-family="Roboto, sans-serif"><tspan x="-64.92" y="-0" dominant-baseline="ideographic">Observational </tspan><tspan x="-36.45" y="24" dominant-baseline="ideographic">Studies</tspan></text></g></g></g><g id="g-root-tx_gatherin_4mbe0vh9srnz-fill" data-item-order="0" transform="translate(230, 332)"><g id="tx_gatherin_4mbe0vh9srnz-fill-merged" stroke="none" fill="#ffffff" fill-opacity="1"><g><text style="font: 15px Roboto, sans-serif; white-space: pre;" transform="translate(82, 28)" font-size="15px" font-family="Roboto, sans-serif"><tspan x="-69.39" y="0" dominant-baseline="ideographic">Gather insights from </tspan><tspan x="-55.6" y="18" dominant-baseline="ideographic">shop employees</tspan></text></g></g></g><g id="g-root-tx_visualiz_4o6ta7h9sqo9-fill" data-item-order="0" transform="translate(428, 314)"><g id="tx_visualiz_4o6ta7h9sqo9-fill-merged" stroke="none" fill="#ffffff" fill-opacity="1"><g><text style="font: 15px Roboto, sans-serif; white-space: pre;" transform="translate(64, 40)" font-size="15px" font-family="Roboto, sans-serif"><tspan x="-46.15" y="-9" dominant-baseline="ideographic">Visualize and </tspan><tspan x="-51.64" y="9" dominant-baseline="ideographic">optimize repair </tspan><tspan x="-28.46" y="27" dominant-baseline="ideographic">process</tspan></text></g></g></g><g id="g-root-tx_dividesh_1ha36inh9u6fh-fill" data-item-order="0" transform="translate(602, 332)"><g id="tx_dividesh_1ha36inh9u6fh-fill-merged" stroke="none" fill="#ffffff" fill-opacity="1"><g><text style="font: 15px Roboto, sans-serif; white-space: pre;" transform="translate(70, 28)" font-size="15px" font-family="Roboto, sans-serif"><tspan x="-55.11" y="0" dominant-baseline="ideographic">Divide shop into </tspan><tspan x="-40.66" y="18" dominant-baseline="ideographic">three zones</tspan></text></g></g></g><g id="g-root-tx_intuitiv_qnsmv3h9u6fi-fill" data-item-order="0" transform="translate(794, 314)"><g id="tx_intuitiv_qnsmv3h9u6fi-fill-merged" stroke="none" fill="#ffffff" fill-opacity="1"><g><text style="font: bold 20px Roboto, sans-serif; white-space: pre;" transform="translate(58, 34)" font-weight="bold" font-size="20px" font-family="Roboto, sans-serif"><tspan x="-36.59" y="-0" dominant-baseline="ideographic">Intuitive </tspan><tspan x="-42.36" y="24" dominant-baseline="ideographic">Workflow</tspan></text></g></g></g><g id="g-root-tx_identify_142dinzh9sruz-fill" data-item-order="0" transform="translate(62, 374)"><g id="tx_identify_142dinzh9sruz-fill-merged" stroke="none" fill="#ffffff" fill-opacity="1"><g><text style="font: 15px Roboto, sans-serif; white-space: pre;" transform="translate(70, 40)" font-size="15px" font-family="Roboto, sans-serif"><tspan x="-26.68" y="-9" dominant-baseline="ideographic">Identify </tspan><tspan x="-53.51" y="9" dominant-baseline="ideographic">inefficiencies in </tspan><tspan x="-47.58" y="27" dominant-baseline="ideographic">current layout</tspan></text></g></g></g><g id="g-root-tx_followcy_8x53gfh9u5mv-fill" data-item-order="0" transform="translate(770, 374)"><g id="tx_followcy_8x53gfh9u5mv-fill-merged" stroke="none" fill="#ffffff" fill-opacity="1"><g><text style="font: 15px Roboto, sans-serif; white-space: pre;" transform="translate(82, 28)" font-size="15px" font-family="Roboto, sans-serif"><tspan x="-65.44" y="0" dominant-baseline="ideographic">Follow cycling loop </tspan><tspan x="-44.88" y="18" dominant-baseline="ideographic">for efficiency</tspan></text></g></g></g><g id="g-root-tx_3_1d30blrh9sqh6-fill" data-item-order="0" transform="translate(470, 152)"><g id="tx_3_1d30blrh9sqh6-fill-merged" stroke="none" fill="#ffffff" fill-opacity="1"><g><text style="font: bold 25px Roboto, sans-serif; white-space: pre;" transform="translate(22, 28)" font-weight="bold" font-size="25px" font-family="Roboto, sans-serif"><tspan x="-7.17" y="15" dominant-baseline="ideographic">3</tspan></text></g></g></g><g id="g-root-tx_strategi_18i70sfh9u58r-fill" data-item-order="0" transform="translate(392, 506)"><g id="tx_strategi_18i70sfh9u58r-fill-merged" stroke="none" fill="#484848" fill-opacity="1"><g><text style="font: bold 20px Roboto, sans-serif; white-space: pre;" transform="translate(100, 22)" font-weight="bold" font-size="20px" font-family="Roboto, sans-serif"><tspan x="-85.17" y="12" dominant-baseline="ideographic">Strategic Redesign</tspan></text></g></g></g><g id="g-root-tx_redesign_18gblj3h9ssu9-fill" data-item-order="0" transform="translate(236, 38)"><g id="tx_redesign_18gblj3h9ssu9-fill-merged" stroke="none" fill="#484848" fill-opacity="1"><g><text style="font: bold 25px Roboto, sans-serif; white-space: pre;" transform="translate(256, 28)" font-weight="bold" font-size="25px" font-family="Roboto, sans-serif"><tspan x="-238.91" y="15" dominant-baseline="ideographic">Redesigning for Efficiency and Community</tspan></text></g></g></g><g id="g-root-tx_ineffici_qpo24fh9u5ft-fill" data-item-order="0" transform="translate(74, 530)"><g id="tx_ineffici_qpo24fh9u5ft-fill-merged" stroke="none" fill="#ffffff" fill-opacity="1"><g><text style="font: bold 20px Roboto, sans-serif; white-space: pre;" transform="translate(226, 22)" font-weight="bold" font-size="20px" font-family="Roboto, sans-serif"><tspan x="-209.5" y="12" dominant-baseline="ideographic">Inefficient Shop Layout</tspan></text></g></g></g><g id="g-root-tx_efficien_hvwh4vh9u58s-fill" data-item-order="0" transform="translate(674, 530)"><g id="tx_efficien_hvwh4vh9u58s-fill-merged" stroke="none" fill="#ffffff" fill-opacity="1"><g><text style="font: bold 20px Roboto, sans-serif; white-space: pre;" transform="translate(10, 22)" font-weight="bold" font-size="20px" font-family="Roboto, sans-serif"><tspan x="2" y="12" dominant-baseline="ideographic">Efficient, Inclusive Shop</tspan></text></g></g></g><g id="g-root-tx_poorstor_3digvh9u5fu-fill" data-item-order="0" transform="translate(98, 566)"><g id="tx_poorstor_3digvh9u5fu-fill-merged" stroke="none" fill="#ffffff" fill-opacity="1"><g><text style="font: 15px Roboto, sans-serif; white-space: pre;" transform="translate(202, 22)" font-size="15px" font-family="Roboto, sans-serif"><tspan x="-190.29" y="9" dominant-baseline="ideographic">Poor storage and repair flow</tspan></text></g></g></g><g id="g-root-tx_4_mgpry7h9sqh7-fill" data-item-order="0" transform="translate(650, 194)"><g id="tx_4_mgpry7h9sqh7-fill-merged" stroke="none" fill="#ffffff" fill-opacity="1"><g><text style="font: bold 25px Roboto, sans-serif; white-space: pre;" transform="translate(22, 28)" font-weight="bold" font-size="25px" font-family="Roboto, sans-serif"><tspan x="-7.17" y="15" dominant-baseline="ideographic">4</tspan></text></g></g></g><g id="g-root-cp_1_g-1_v3m4zjh9ss8y-stroke" data-item-order="-572820" transform="translate(38, 198)"><g id="cp_1_g-1_v3m4zjh9ss8y-stroke" fill="none" stroke-linecap="round" stroke-linejoin="round" stroke-miterlimit="4" stroke="#ffffff" stroke-width="2" stroke-opacity="1"><g><path d="M 10 126.0644L 10 35.2544C 10 32.2744 12.18 29.7444 15.13 29.3144L 171.13 10.0644C 174.75 9.5344 178 12.3444 178 16.0044L 178 126.0644M 10 126.064919L 10 246.064926M 178 126.064919L 178 246.064926M 178 246.064453L 178 300.064453C 178 303.374453 175.31 306.064453 172 306.064453L 16 306.064453C 12.69 306.064453 10 303.374453 10 300.064453L 10 246.064453"></path></g></g></g><g id="g-root-cp_2_g-2_hss3pbh9sqo3-stroke" data-item-order="-572794" transform="translate(218, 137)"><g id="cp_2_g-2_hss3pbh9sqo3-stroke" fill="none" stroke-linecap="round" stroke-linejoin="round" stroke-miterlimit="4" stroke="#ffffff" stroke-width="2" stroke-opacity="1"><g><path d="M 10 145L 10 70.5328C 10 68.2321 11.29 66.1223 13.35 65.1176C 69.42 37.6195 150.01 16.5313 170.23 10.2721C 174.09 9.0765 178 11.97 178 16.0289L 178 145M 10 145L 10 265M 178 145L 178 265M 178 265L 178 274.4C 178 275.7 177.58 276.96 176.8 278L 107.8 364.49C 106.68 366.06 104.86 367 102.92 367L 16.01 367C 12.7 367 10.01 364.31 10.01 361L 10 361L 10 265"></path></g></g></g><g id="g-root-cp_3_g-3_8x53gfh9srgs-stroke" data-item-order="-572768" transform="translate(397.9951171875, 122)"><g id="cp_3_g-3_8x53gfh9srgs-stroke" fill="none" stroke-linecap="round" stroke-linejoin="round" stroke-miterlimit="4" stroke="#ffffff" stroke-width="2" stroke-opacity="1"><g><path d="M 10 118L 10 27.13C 10 24.19 11.46 21.69 13.46 21.21L 38.76 15.82C 75.18 8.06 112.83 8.06 149.25 15.82L 174.55 21.21C 176.55 21.7 178.01 24.2 178.01 27.13L 178 27.13L 178 118M 10.004883 118L 10.004883 238M 178.004883 118L 178.004883 238M 178.004883 238.000011L 178.004883 277.680011C 178.004883 281.770011 175.234883 284.660011 172.554883 283.370011L 148.744883 273.260011C 113.764883 258.400011 74.244883 258.400011 39.264883 273.260011L 15.454883 283.370011C 12.774883 284.670011 10.004883 281.770011 10.004883 277.680011L 10.004883 238.000011"></path></g></g></g><g id="g-root-cp_4_g-4_4hblbzh9ss91-stroke" data-item-order="-572742" transform="translate(578, 137)"><g id="cp_4_g-4_4hblbzh9ss91-stroke" fill="none" stroke-linecap="round" stroke-linejoin="round" stroke-miterlimit="4" stroke="#ffffff" stroke-width="2" stroke-opacity="1"><g><path d="M 178 145L 178 70.5328C 178 68.2321 176.71 66.1223 174.65 65.1176C 118.58 37.6195 37.99 16.5313 17.77 10.2721C 13.91 9.0765 10 11.97 10 16.0289L 10 145M 10 145L 10 265M 178 265L 178 145M 10 265L 10 274.4C 10 275.7 10.42 276.96 11.2 278L 80.2 364.49C 81.32 366.06 83.14 367 85.08 367L 171.99 367C 175.3 367 177.99 364.31 177.99 361L 178 361L 178 265"></path></g></g></g><g id="g-root-cp_5_g-5_1umsn27h9ssum-stroke" data-item-order="-572716" transform="translate(758, 198)"><g id="cp_5_g-5_1umsn27h9ssum-stroke" fill="none" stroke-linecap="round" stroke-linejoin="round" stroke-miterlimit="4" stroke="#ffffff" stroke-width="2" stroke-opacity="1"><g><path d="M 178 126.0644L 178 35.2544C 178 32.2744 175.82 29.7444 172.87 29.3144L 16.87 10.0644C 13.25 9.5344 10 12.3444 10 16.0044L 10 126.0644M 10 126L 10 246.065002M 178 246.065002L 178 126M 10 246.064453L 10 300.064453C 10 303.374453 12.69 306.064453 16 306.064453L 172 306.064453C 175.31 306.064453 178 303.374453 178 300.064453L 178 246.064453"></path></g></g></g><g id="g-root-cp_-1_left_1hbylrzh9sr9r-stroke" data-item-order="-572688" transform="translate(38, 506)"><g id="cp_-1_left_1hbylrzh9sr9r-stroke" fill="none" stroke-linecap="round" stroke-linejoin="round" stroke-miterlimit="4" stroke="#ffffff" stroke-width="2" stroke-opacity="1"><g><path d="M 10 34L 10 16C 10 12.69 12.69 10 16 10L 280 10C 283.31 10 286 12.69 286 16L 286 34M 10 34L 10 106M 286 106L 286 34M 286 106L 286 124C 286 127.31 283.31 130 280 130L 16 130C 12.69 130 10 127.31 10 124L 10 106"></path></g></g></g><g id="g-root-cp_-1_right_1cw53njh9ss20-stroke" data-item-order="-572662" transform="translate(650, 506)"><g id="cp_-1_right_1cw53njh9ss20-stroke" fill="none" stroke-linecap="round" stroke-linejoin="round" stroke-miterlimit="4" stroke="#ffffff" stroke-width="2" stroke-opacity="1"><g><path d="M 10 34L 10 16C 10 12.69 12.69 10 16 10L 280 10C 283.31 10 286 12.69 286 16L 286 34M 10 34L 10 106M 286 106L 286 34M 286 106L 286 124C 286 127.31 283.31 130 280 130L 16 130C 12.69 130 10 127.31 10 124L 10 106"></path></g></g></g><g id="g-root-tx_clearzon_1qapzgfh9u51p-stroke" data-item-order="0" transform="translate(674, 566)"></g><g id="g-root-tx_2_1luwhbzh9srnx-stroke" data-item-order="0" transform="translate(290, 194)"></g><g id="g-root-tx_1_909gvzh9ssn8-stroke" data-item-order="0" transform="translate(110, 236)"></g><g id="g-root-tx_spatialw_145hw3jh9st1c-stroke" data-item-order="0" transform="translate(434, 230)"></g><g id="g-root-tx_5_1hbylrzh9u5fs-stroke" data-item-order="0" transform="translate(830, 236)"></g><g id="g-root-tx_staffint_v8lxofh9srny-stroke" data-item-order="0" transform="translate(248, 272)"></g><g id="g-root-tx_function_9599kvh9ss24-stroke" data-item-order="0" transform="translate(608, 272)"></g><g id="g-root-tx_observat_8z0iprh9sqh6-stroke" data-item-order="0" transform="translate(50, 314)"></g><g id="g-root-tx_gatherin_4mbe0vh9srnz-stroke" data-item-order="0" transform="translate(230, 332)"></g><g id="g-root-tx_visualiz_4o6ta7h9sqo9-stroke" data-item-order="0" transform="translate(428, 314)"></g><g id="g-root-tx_dividesh_1ha36inh9u6fh-stroke" data-item-order="0" transform="translate(602, 332)"></g><g id="g-root-tx_intuitiv_qnsmv3h9u6fi-stroke" data-item-order="0" transform="translate(794, 314)"></g><g id="g-root-tx_identify_142dinzh9sruz-stroke" data-item-order="0" transform="translate(62, 374)"></g><g id="g-root-tx_followcy_8x53gfh9u5mv-stroke" data-item-order="0" transform="translate(770, 374)"></g><g id="g-root-tx_3_1d30blrh9sqh6-stroke" data-item-order="0" transform="translate(470, 152)"></g><g id="g-root-tx_strategi_18i70sfh9u58r-stroke" data-item-order="0" transform="translate(392, 506)"></g><g id="g-root-tx_redesign_18gblj3h9ssu9-stroke" data-item-order="0" transform="translate(236, 38)"></g><g id="g-root-tx_ineffici_qpo24fh9u5ft-stroke" data-item-order="0" transform="translate(74, 530)"></g><g id="g-root-tx_efficien_hvwh4vh9u58s-stroke" data-item-order="0" transform="translate(674, 530)"></g><g id="g-root-tx_poorstor_3digvh9u5fu-stroke" data-item-order="0" transform="translate(98, 566)"></g><g id="g-root-tx_4_mgpry7h9sqh7-stroke" data-item-order="0" transform="translate(650, 194)"></g></g></g></svg>