<?xml version="1.0" encoding="utf-8" standalone="yes"?>
<!DOCTYPE svg PUBLIC "-//W3C//DTD SVG 1.1//EN" "http://www.w3.org/Graphics/SVG/1.1/DTD/svg11.dtd">
<svg style="fill:none;stroke:none;fill-rule:evenodd;clip-rule:evenodd;stroke-linecap:round;stroke-linejoin:round;stroke-miterlimit:1.5;" version="1.1" xmlns="http://www.w3.org/2000/svg" xmlns:xlink="http://www.w3.org/1999/xlink" width="720" height="828" viewBox="0 0 720 828"><style class="text-font-style fontImports" data-font-family="Roboto">@import url(https://fonts.googleapis.com/css2?family=Roboto:wght@400;700&amp;amp;display=block);</style><g id="items" style="isolation: isolate"><g id="blend" style="mix-blend-mode: normal"><g id="g-root-cp_4_g-4_dcbok319b0d8j-fill" data-item-order="-491894" transform="translate(26, 325.998046875)"><g id="cp_4_g-4_dcbok319b0d8j-fill-merged" stroke="none" fill="#de8431" fill-opacity="1"><g><path d="M143.441 13.064C201.396 27.114 236.988 85.486 222.938 143.441C208.888 201.396 150.516 236.988 92.561 222.937C34.606 208.887 -0.986 150.515 13.065 92.561C27.115 34.606 85.487 -0.986 143.441 13.064"></path></g></g></g><g id="g-root-sy_4_ar-4_4goob719b0e18-fill" data-item-order="-491885" transform="translate(167.464111328125, 251.3916015625)"></g><g id="g-root-cp_3_g-3_v66r19b0eth-fill" data-item-order="-491884" transform="translate(241.99969482421875, 542)"><g id="cp_3_g-3_v66r19b0eth-fill-merged" stroke="none" fill="#e0cb15" fill-opacity="1"><g><path d="M222.938 143.441C208.888 201.396 150.516 236.988 92.561 222.938C34.606 208.888 -0.985 150.516 13.065 92.561C27.115 34.606 85.487 -0.985 143.441 13.065C201.396 27.115 236.988 85.487 222.938 143.441"></path></g></g></g><g id="g-root-sy_3_ar-3_v66r19b0eti-fill" data-item-order="-491875" transform="translate(167.21713256835938, 548.9990234375)"></g><g id="g-root-cp_2_g-2_1q6c7wz19b0ff3-fill" data-item-order="-491874" transform="translate(458, 325.998046875)"><g id="cp_2_g-2_1q6c7wz19b0ff3-fill-merged" stroke="none" fill="#92bd39" fill-opacity="1"><g><path d="M143.441 13.064C201.396 27.114 236.988 85.486 222.938 143.441C208.888 201.396 150.516 236.988 92.561 222.937C34.606 208.887 -0.986 150.515 13.065 92.561C27.115 34.606 85.487 -0.986 143.441 13.064"></path></g></g></g><g id="g-root-sy_2_ar-2_1um5q1f19b0feo-fill" data-item-order="-491865" transform="translate(465.0001220703125, 549)"></g><g id="g-root-cp_1_g-1_1lr56vn19b0d1l-fill" data-item-order="-491864" transform="translate(242, 110)"><g id="cp_1_g-1_1lr56vn19b0d1l-fill-merged" stroke="none" fill="#3cc583" fill-opacity="1"><g><path d="M222.938 143.441C208.888 201.396 150.516 236.988 92.561 222.938C34.606 208.888 -0.985 150.516 13.065 92.561C27.115 34.606 85.487 -0.985 143.441 13.065C201.396 27.115 236.988 85.487 222.938 143.441"></path></g></g></g><g id="g-root-sy_1_ar-1_1hbbor719b0dtu-fill" data-item-order="-491855" transform="translate(465.5001220703125, 251.462890625)"></g><g id="g-root-tx_customer_v2z7yr19b4kjo-fill" data-item-order="0" transform="translate(278, 231)"><g id="tx_customer_v2z7yr19b4kjo-fill-merged" stroke="none" fill="#ffffff" fill-opacity="1"><g><text style="font: 15px Roboto, sans-serif; white-space: pre;" transform="translate(82, 28)" font-size="15px" font-family="Roboto, sans-serif"><tspan x="-69.75" y="0" dominant-baseline="ideographic">Customers enter the </tspan><tspan x="-18.36" y="18" dominant-baseline="ideographic">shop</tspan></text></g></g></g><g id="g-root-ic_arri_qp153n19b0dtw-fill" data-item-order="0" transform="translate(518, 206)"></g><g id="g-root-tx_customer_zk1o9f19b4lxm-fill" data-item-order="0" transform="translate(278, 663)"><g id="tx_customer_zk1o9f19b4lxm-fill-merged" stroke="none" fill="#ffffff" fill-opacity="1"><g><text style="font: 15px Roboto, sans-serif; white-space: pre;" transform="translate(82, 28)" font-size="15px" font-family="Roboto, sans-serif"><tspan x="-70.17" y="0" dominant-baseline="ideographic">Customers and staff </tspan><tspan x="-27.12" y="18" dominant-baseline="ideographic">interact</tspan></text></g></g></g><g id="g-root-tx_2_1lqipsj19b4mps-fill" data-item-order="0" transform="translate(548, 362.99609375)"><g id="tx_2_1lqipsj19b4mps-fill-merged" stroke="none" fill="#ffffff" fill-opacity="1"><g><text style="font: bold 25px Roboto, sans-serif; white-space: pre;" transform="translate(22, 28)" font-weight="bold" font-size="25px" font-family="Roboto, sans-serif"><tspan x="-7.17" y="15" dominant-baseline="ideographic">2</tspan></text></g></g></g><g id="g-root-tx_connecti_hte4ur19b4l50-fill" data-item-order="0" transform="translate(80, 411)"><g id="tx_connecti_hte4ur19b4l50-fill-merged" stroke="none" fill="#ffffff" fill-opacity="1"><g><text style="font: bold 20px Roboto, sans-serif; white-space: pre;" transform="translate(64, 22)" font-weight="bold" font-size="20px" font-family="Roboto, sans-serif"><tspan x="-51.29" y="12" dominant-baseline="ideographic">Connection</tspan></text></g></g></g><g id="g-root-tx_repair_4goob719b4kjq-fill" data-item-order="0" transform="translate(530, 411)"><g id="tx_repair_4goob719b4kjq-fill-merged" stroke="none" fill="#ffffff" fill-opacity="1"><g><text style="font: bold 20px Roboto, sans-serif; white-space: pre;" transform="translate(46, 22)" font-weight="bold" font-size="20px" font-family="Roboto, sans-serif"><tspan x="-29.09" y="12" dominant-baseline="ideographic">Repair</tspan></text></g></g></g><g id="g-root-tx_customer_8xr4lv19b4lxp-fill" data-item-order="0" transform="translate(68, 447)"><g id="tx_customer_8xr4lv19b4lxp-fill-merged" stroke="none" fill="#ffffff" fill-opacity="1"><g><text style="font: 15px Roboto, sans-serif; white-space: pre;" transform="translate(76, 28)" font-size="15px" font-family="Roboto, sans-serif"><tspan x="-54.38" y="0" dominant-baseline="ideographic">Customers form </tspan><tspan x="-60.05" y="18" dominant-baseline="ideographic">community bonds</tspan></text></g></g></g><g id="g-root-tx_bikesund_1um5q1f19b4l5b-fill" data-item-order="0" transform="translate(512, 447)"><g id="tx_bikesund_1um5q1f19b4l5b-fill-merged" stroke="none" fill="#ffffff" fill-opacity="1"><g><text style="font: 15px Roboto, sans-serif; white-space: pre;" transform="translate(64, 28)" font-size="15px" font-family="Roboto, sans-serif"><tspan x="-49.24" y="0" dominant-baseline="ideographic">Bikes undergo </tspan><tspan x="-45.18" y="18" dominant-baseline="ideographic">maintenance</tspan></text></g></g></g><g id="g-root-tx_arrival_18nsumr19b37k3-fill" data-item-order="0" transform="translate(314, 195)"><g id="tx_arrival_18nsumr19b37k3-fill-merged" stroke="none" fill="#ffffff" fill-opacity="1"><g><text style="font: bold 20px Roboto, sans-serif; white-space: pre;" transform="translate(46, 22)" font-weight="bold" font-size="20px" font-family="Roboto, sans-serif"><tspan x="-29.68" y="12" dominant-baseline="ideographic">Arrival</tspan></text></g></g></g><g id="g-root-ic_info_1hd740j19b0cua-fill" data-item-order="0" transform="translate(110, 206)"></g><g id="g-root-tx_1_hriplf19b4m4l-fill" data-item-order="0" transform="translate(332, 146.99609375)"><g id="tx_1_hriplf19b4m4l-fill-merged" stroke="none" fill="#ffffff" fill-opacity="1"><g><text style="font: bold 25px Roboto, sans-serif; white-space: pre;" transform="translate(22, 28)" font-weight="bold" font-size="25px" font-family="Roboto, sans-serif"><tspan x="-7.17" y="15" dominant-baseline="ideographic">1</tspan></text></g></g></g><g id="g-root-tx_thecycli_18fooib19b0emj-fill" data-item-order="0" transform="translate(212, 38)"><g id="tx_thecycli_18fooib19b0emj-fill-merged" stroke="none" fill="#484848" fill-opacity="1"><g><text style="font: bold 25px Roboto, sans-serif; white-space: pre;" transform="translate(148, 28)" font-weight="bold" font-size="25px" font-family="Roboto, sans-serif"><tspan x="-132.23" y="15" dominant-baseline="ideographic">The Cycling Shop Cycle</tspan></text></g></g></g><g id="g-root-ic_hand_1uu9w5v19b1tdw-fill" data-item-order="0" transform="translate(110, 590)"></g><g id="g-root-tx_3_v4864z19b4mpv-fill" data-item-order="0" transform="translate(332, 578.99609375)"><g id="tx_3_v4864z19b4mpv-fill-merged" stroke="none" fill="#ffffff" fill-opacity="1"><g><text style="font: bold 25px Roboto, sans-serif; white-space: pre;" transform="translate(22, 28)" font-weight="bold" font-size="25px" font-family="Roboto, sans-serif"><tspan x="-7.17" y="15" dominant-baseline="ideographic">3</tspan></text></g></g></g><g id="g-root-ic_1_zisq3719b1rf1-fill" data-item-order="0" transform="translate(518, 590)"></g><g id="g-root-tx_collabor_1cuvpjn19b4nih-fill" data-item-order="0" transform="translate(284, 627)"><g id="tx_collabor_1cuvpjn19b4nih-fill-merged" stroke="none" fill="#ffffff" fill-opacity="1"><g><text style="font: bold 20px Roboto, sans-serif; white-space: pre;" transform="translate(76, 22)" font-weight="bold" font-size="20px" font-family="Roboto, sans-serif"><tspan x="-60.23" y="12" dominant-baseline="ideographic">Collaboration</tspan></text></g></g></g><g id="g-root-tx_4_4hxmhf19b4mpy-fill" data-item-order="0" transform="translate(116, 362.99609375)"><g id="tx_4_4hxmhf19b4mpy-fill-merged" stroke="none" fill="#ffffff" fill-opacity="1"><g><text style="font: bold 25px Roboto, sans-serif; white-space: pre;" transform="translate(22, 28)" font-weight="bold" font-size="25px" font-family="Roboto, sans-serif"><tspan x="-7.17" y="15" dominant-baseline="ideographic">4</tspan></text></g></g></g><g id="g-root-cp_4_g-4_dcbok319b0d8j-stroke" data-item-order="-491894" transform="translate(26, 325.998046875)"><g id="cp_4_g-4_dcbok319b0d8j-stroke" fill="none" stroke-linecap="round" stroke-linejoin="round" stroke-miterlimit="4" stroke="#ffffff" stroke-width="2" stroke-opacity="1"><g><path d="M 143.441495 13.06411C 201.396295 27.11431 236.988095 85.48601 222.937895 143.44091C 208.887595 201.39571 150.515995 236.98751 92.561095 222.93731C 34.606195 208.88701 -0.985505 150.51541 13.064695 92.56051C 27.114895 34.60561 85.486595 -0.98609 143.441495 13.06411Z"></path></g></g></g><g id="g-root-sy_4_ar-4_4goob719b0e18-stroke" data-item-order="-491885" transform="translate(167.464111328125, 251.3916015625)"><g id="sy_4_ar-4_4goob719b0e18-stroke" fill="none" stroke-linecap="round" stroke-linejoin="round" stroke-miterlimit="4" stroke="#de8431" stroke-width="2" stroke-opacity="1"><g><path d="M 10 77.11C 26.97 50.28 49.5 27.86 75.62 11.05"></path><path d="M 74.2 19.9L 76 10.8L 67 9.1" stroke-dasharray="none"></path></g></g></g><g id="g-root-cp_3_g-3_v66r19b0eth-stroke" data-item-order="-491884" transform="translate(241.99969482421875, 542)"><g id="cp_3_g-3_v66r19b0eth-stroke" fill="none" stroke-linecap="round" stroke-linejoin="round" stroke-miterlimit="4" stroke="#ffffff" stroke-width="2" stroke-opacity="1"><g><path d="M 222.9379 143.4415C 208.8876 201.3963 150.516 236.9881 92.5611 222.9379C 34.6062 208.8876 -0.9855 150.516 13.0647 92.5611C 27.1149 34.6062 85.4866 -0.9855 143.4415 13.0647C 201.3963 27.1149 236.9881 85.4866 222.9379 143.4415Z"></path></g></g></g><g id="g-root-sy_3_ar-3_v66r19b0eti-stroke" data-item-order="-491875" transform="translate(167.21713256835938, 548.9990234375)"><g id="sy_3_ar-3_v66r19b0eti-stroke" fill="none" stroke-linecap="round" stroke-linejoin="round" stroke-miterlimit="4" stroke="#e0cb15" stroke-width="2" stroke-opacity="1"><g><path d="M 77.28 77.54C 50.36 60.51 27.88 37.88 11.05 11.65"></path><path d="M 19.9 13L 10.8 11.2L 9 20.3" stroke-dasharray="none"></path></g></g></g><g id="g-root-cp_2_g-2_1q6c7wz19b0ff3-stroke" data-item-order="-491874" transform="translate(458, 325.998046875)"><g id="cp_2_g-2_1q6c7wz19b0ff3-stroke" fill="none" stroke-linecap="round" stroke-linejoin="round" stroke-miterlimit="4" stroke="#ffffff" stroke-width="2" stroke-opacity="1"><g><path d="M 143.441495 13.064105C 201.396295 27.114305 236.988095 85.486005 222.937895 143.440905C 208.887595 201.395705 150.515995 236.987505 92.561095 222.937305C 34.606195 208.887005 -0.985505 150.515405 13.064695 92.560505C 27.114895 34.605605 85.486595 -0.986095 143.441495 13.064105Z"></path></g></g></g><g id="g-root-sy_2_ar-2_1um5q1f19b0feo-stroke" data-item-order="-491865" transform="translate(465.0001220703125, 549)"><g id="sy_2_ar-2_1um5q1f19b0feo-stroke" fill="none" stroke-linecap="round" stroke-linejoin="round" stroke-miterlimit="4" stroke="#92bd39" stroke-width="2" stroke-opacity="1"><g><path d="M 77.85 10C 60.79 37.14 38.05 59.79 11.66 76.73"></path><path d="M 13 67.9L 11.2 77L 20.3 78.8" stroke-dasharray="none"></path></g></g></g><g id="g-root-cp_1_g-1_1lr56vn19b0d1l-stroke" data-item-order="-491864" transform="translate(242, 110)"><g id="cp_1_g-1_1lr56vn19b0d1l-stroke" fill="none" stroke-linecap="round" stroke-linejoin="round" stroke-miterlimit="4" stroke="#ffffff" stroke-width="2" stroke-opacity="1"><g><path d="M 222.9379 143.4415C 208.8876 201.3963 150.516 236.9881 92.5611 222.9379C 34.6062 208.8876 -0.9855 150.516 13.0647 92.5611C 27.1149 34.6062 85.4866 -0.9855 143.4415 13.0647C 201.3963 27.1149 236.9881 85.4866 222.9379 143.4415Z"></path></g></g></g><g id="g-root-sy_1_ar-1_1hbbor719b0dtu-stroke" data-item-order="-491855" transform="translate(465.5001220703125, 251.462890625)"><g id="sy_1_ar-1_1hbbor719b0dtu-stroke" fill="none" stroke-linecap="round" stroke-linejoin="round" stroke-miterlimit="4" stroke="#3cc583" stroke-width="2" stroke-opacity="1"><g><path d="M 10 10C 36.92 27.03 59.4 49.66 76.23 75.88"></path><path d="M 67.4 74.5L 76.4 76.3L 78.2 67.3" stroke-dasharray="none"></path></g></g></g><g id="g-root-tx_customer_v2z7yr19b4kjo-stroke" data-item-order="0" transform="translate(278, 231)"></g><g id="g-root-ic_arri_qp153n19b0dtw-stroke" data-item-order="0" transform="translate(518, 206)"><g id="ic_arri_qp153n19b0dtw-stroke" fill="none" stroke-linecap="round" stroke-linejoin="round" stroke-miterlimit="4" stroke="#484848" stroke-width="2" stroke-opacity="1"><g><path d="M 64.530998 49.014999C 70.744209 49.014999 75.781006 54.0518 75.781006 60.265003L 75.780998 69.264999C 75.780998 71.750282 77.795723 73.764999 80.280998 73.764999L 48.780998 73.764999C 51.266281 73.764999 53.280998 71.750282 53.280998 69.264999L 53.280998 60.264999C 53.281002 54.0518 58.317795 49.014999 64.530998 49.015003ZM 26.632 37.588001L 26.632 44.238998M 70.300003 74.295998C 70.300003 77.487106 67.713104 80.073997 64.522003 80.073997C 61.330902 80.073997 58.744003 77.487106 58.744003 74.296005M 40.239998 74.073997L 17.719 74.073997L 17.719 14.926C 17.719 13.269146 19.062145 11.926 20.719 11.926L 56.719002 11.926C 58.375854 11.926 59.719002 13.269146 59.719002 14.926L 59.719002 41.5M 40.362999 80.073997L 13.219 80.073997C 12.390573 80.073997 11.719 79.402428 11.719 78.573997L 11.719 75.573997C 11.719 74.745575 12.390573 74.073997 13.219 74.073997L 17.719 74.073997"></path></g></g></g><g id="g-root-tx_customer_zk1o9f19b4lxm-stroke" data-item-order="0" transform="translate(278, 663)"></g><g id="g-root-tx_2_1lqipsj19b4mps-stroke" data-item-order="0" transform="translate(548, 362.99609375)"></g><g id="g-root-tx_connecti_hte4ur19b4l50-stroke" data-item-order="0" transform="translate(80, 411)"></g><g id="g-root-tx_repair_4goob719b4kjq-stroke" data-item-order="0" transform="translate(530, 411)"></g><g id="g-root-tx_customer_8xr4lv19b4lxp-stroke" data-item-order="0" transform="translate(68, 447)"></g><g id="g-root-tx_bikesund_1um5q1f19b4l5b-stroke" data-item-order="0" transform="translate(512, 447)"></g><g id="g-root-tx_arrival_18nsumr19b37k3-stroke" data-item-order="0" transform="translate(314, 195)"></g><g id="g-root-ic_info_1hd740j19b0cua-stroke" data-item-order="0" transform="translate(110, 206)"><g id="ic_info_1hd740j19b0cua-stroke" fill="none" stroke-linecap="round" stroke-linejoin="round" stroke-miterlimit="4" stroke="#484848" stroke-width="2" stroke-opacity="1"><g><path d="M 35.5 46C 35.5 47.656857 36.843143 49 38.5 49L 44.5 49L 44.5 59.5L 55 49L 77.5 49C 79.156853 49 80.5 47.656857 80.5 46L 80.5 14.5C 80.5 12.843145 79.156853 11.5 77.5 11.5L 38.5 11.5C 36.843143 11.5 35.5 12.843145 35.5 14.5ZM 13.75 40.75C 13.75 44.477921 16.772078 47.5 20.5 47.5C 24.227921 47.5 27.25 44.477921 27.25 40.75C 27.25 37.022079 24.227921 34 20.5 34C 16.772078 34 13.75 37.022079 13.75 40.75M 20.5 50.5C 15.529437 50.5 11.5 54.529438 11.5 59.5L 11.5 65.5L 16 65.5L 17.5 80.5L 23.5 80.5L 25 65.5L 29.5 65.5L 29.5 59.5C 29.500002 54.529438 25.470564 50.5 20.5 50.5ZM 58 40L 58 28M 57.25 21.25C 57.25 21.664213 57.585785 22 58 22C 58.414215 22 58.75 21.664213 58.75 21.25M 58 20.5C 57.585785 20.5 57.25 20.835787 57.25 21.25M 58.75 21.25C 58.75 20.835787 58.414215 20.5 58 20.5"></path></g></g></g><g id="g-root-tx_1_hriplf19b4m4l-stroke" data-item-order="0" transform="translate(332, 146.99609375)"></g><g id="g-root-tx_thecycli_18fooib19b0emj-stroke" data-item-order="0" transform="translate(212, 38)"></g><g id="g-root-ic_hand_1uu9w5v19b1tdw-stroke" data-item-order="0" transform="translate(110, 590)"><g id="ic_hand_1uu9w5v19b1tdw-stroke" fill="none" stroke-linecap="round" stroke-linejoin="round" stroke-miterlimit="4" stroke="#484848" stroke-width="2" stroke-opacity="1"><g><path d="M 26.362 36.43C 24.609655 28.946625 27.42362 21.132668 33.544716 16.484678C 39.66581 11.83669 47.948418 11.224578 54.686287 14.922249C 61.424152 18.619919 65.356224 25.935324 64.723 33.595001M 27.73 23.653L 31.417 23.653C 34.390915 23.877382 36.754616 26.241085 36.979 29.215L 36.979 34.396C 36.979 35.163998 37.662998 35.827 38.416 36.427002M 49.746998 13.036C 49.746998 13.036 46.500999 15.592 45.313 16.507C 43.310226 18.050123 42.919846 20.916481 44.436996 22.938999L 47.23 26.664999C 48.10313 27.8276 49.472046 28.512058 50.926003 28.513L 53.625999 28.513C 54.851528 28.511921 56.027073 28.998762 56.892998 29.865999L 59.025997 31.995998M 71.004997 67.326996L 56.028999 68.574997M 53.286999 49.645L 42.826 53.104C 41.149483 53.654926 39.326294 52.861393 38.587002 51.259003C 37.788742 49.542206 38.494583 47.50164 40.182999 46.645L 50.317001 41.545002C 52.062698 40.665474 54.094696 40.54818 55.93 41.221001L 70.93 46.708M 41.728001 45.868L 40.647999 44.968002C 38.881535 43.673641 36.571907 43.38324 34.540001 44.199997L 21.115 49.57M 12.064 44.433998L 18.1 44.433998C 19.695423 44.366211 21.045052 45.601803 21.118 47.196999L 21.118 66.553001C 21.045036 68.148636 19.69593 69.385086 18.1 69.319L 12.064 69.319M 79.936005 69.319L 73.899994 69.319C 72.30407 69.385086 70.954964 68.148636 70.882004 66.553001L 70.882004 47.199997C 70.954948 45.604805 72.304581 44.369209 73.899994 44.437L 79.932999 44.437M 49.144001 52L 56.944 62.707001C 57.92807 64.058311 58.01709 65.864548 57.170666 67.306076C 56.324238 68.747604 54.703537 69.549942 53.044003 69.348999C 52.638996 71.513153 50.617172 72.986435 48.432999 72.709C 48.026653 74.87265 46.006336 76.346146 43.821999 76.071999C 43.497826 77.70372 42.2411 78.990318 40.617439 79.352722C 38.993778 79.715118 37.309242 79.085014 36.321999 77.746002L 28.452999 67.858002C 27.288994 66.379333 25.533609 65.487381 23.653 65.418999L 21.115 65.329002M 43.834 76.065994L 41.728001 73.479996M 48.445 72.702995L 46.641998 70.309006M 53.056 69.343002L 51.084999 66.664001"></path></g></g></g><g id="g-root-tx_3_v4864z19b4mpv-stroke" data-item-order="0" transform="translate(332, 578.99609375)"></g><g id="g-root-ic_1_zisq3719b1rf1-stroke" data-item-order="0" transform="translate(518, 590)"><g id="ic_1_zisq3719b1rf1-stroke" fill="none" stroke-linecap="round" stroke-linejoin="round" stroke-miterlimit="4" stroke="#484848" stroke-width="2" stroke-opacity="1"><g><path d="M 68.295998 18.747999L 75.072998 18.747999C 73.867508 14.602384 70.149673 11.689373 65.836044 11.510629C 61.522415 11.331885 57.576332 13.927328 56.031998 17.959L 37.081001 17.959C 35.536671 13.927328 31.59058 11.331885 27.276953 11.510629C 22.963324 11.689373 19.245489 14.602384 18.040001 18.747999L 24.814001 18.747999C 25.583117 18.747204 26.321007 19.052177 26.865135 19.595743C 27.409264 20.139311 27.715 20.876883 27.715 21.646L 27.715 21.646C 27.715 22.415117 27.409264 23.152691 26.865135 23.696257C 26.321007 24.239822 25.583117 24.544796 24.814001 24.544001L 18.040001 24.544001C 19.245489 28.689617 22.963324 31.602627 27.276953 31.781372C 31.59058 31.960114 35.536671 29.364672 37.080997 25.333L 56.031998 25.333C 57.576332 29.364672 61.522415 31.960114 65.836044 31.781372C 70.149673 31.602627 73.867508 28.689617 75.072998 24.544001L 68.295998 24.544001C 66.69548 24.544001 65.397995 23.246521 65.397995 21.646L 65.397995 21.646C 65.397995 20.045479 66.69548 18.747999 68.295998 18.747999ZM 52.420002 67.959999C 52.419044 74.886322 58.033669 80.501724 64.959999 80.501724C 71.886322 80.501724 77.500954 74.886322 77.499992 67.959999C 77.500954 61.033669 71.886322 55.418266 64.959999 55.418266C 58.033669 55.418266 52.419044 61.033669 52.419998 67.959999M 14.5 67.959999C 14.499043 74.886322 20.113672 80.501724 27.039999 80.501724C 33.966324 80.501724 39.580956 74.886322 39.579998 67.959999C 39.580956 61.033669 33.966324 55.418266 27.039999 55.418266C 20.113672 55.418266 14.499043 61.033669 14.5 67.959999M 64.959999 67.959999L 57.993999 40.093002L 66.354996 40.093002M 59.896 47.755001L 39.880001 52.410999L 27.039999 67.959999M 39.880001 52.410999L 36.237999 41.485001L 43.521999 41.485001"></path></g></g></g><g id="g-root-tx_collabor_1cuvpjn19b4nih-stroke" data-item-order="0" transform="translate(284, 627)"></g><g id="g-root-tx_4_4hxmhf19b4mpy-stroke" data-item-order="0" transform="translate(116, 362.99609375)"></g></g></g></svg>