<?xml version="1.0" encoding="utf-8" standalone="yes"?>
<!DOCTYPE svg PUBLIC "-//W3C//DTD SVG 1.1//EN" "http://www.w3.org/Graphics/SVG/1.1/DTD/svg11.dtd">
<svg style="fill:none;stroke:none;fill-rule:evenodd;clip-rule:evenodd;stroke-linecap:round;stroke-linejoin:round;stroke-miterlimit:1.5;" version="1.1" xmlns="http://www.w3.org/2000/svg" xmlns:xlink="http://www.w3.org/1999/xlink" width="792" height="852" viewBox="0 0 792 852"><style class="text-font-style fontImports" data-font-family="Roboto">@import url(https://fonts.googleapis.com/css2?family=Roboto:wght@400;700&amp;amp;display=block);</style><g id="items" style="isolation: isolate"><g id="blend" style="mix-blend-mode: normal"><g id="g-root-cp_resolution_g-resolution_1hhk69bdxxmo7-fill" data-item-order="-562454" transform="translate(386, 542)"><g id="cp_resolution_g-resolution_1hhk69bdxxmo7-fill-merged" stroke="none" fill="#92bd39" fill-opacity="1"><g><path d="M10 94 H262 V106L298 58L262 10 V22 H154C139.419 41.441 121.005 57.79 99.817 69.99C72.496 85.721 41.524 94 10 94"></path></g></g></g><g id="g-root-cp_3_g-3_1d1qo4vdxxngg-fill" data-item-order="-562448" transform="translate(206, 356)"><g id="cp_3_g-3_1d1qo4vdxxngg-fill-merged" stroke="none" fill="#7f9a44" fill-opacity="1"><g><path d="M46 208C41.695 202.26 37.725 196.251 34.115 190C18.317 162.637 10 131.597 10 100C10 68.403 18.317 37.363 34.115 10L96.392 45.955C86.905 62.387 81.911 81.026 81.911 100C81.911 118.974 86.905 137.613 96.392 154.045C105.879 170.476 119.524 184.121 135.955 193.608C151.117 202.362 168.158 207.29 185.608 208 H46"></path></g></g></g><g id="g-root-cp_2_g-2_1d1qo4vdxxngh-fill" data-item-order="-562442" transform="translate(230.08602905273438, 266)"><g id="cp_2_g-2_1d1qo4vdxxngh-fill-merged" stroke="none" fill="#449a70" fill-opacity="1"><g><path d="M10 100.051C25.789 72.682 48.505 49.952 75.863 34.145C103.221 18.338 134.259 10.01 165.855 10C197.452 9.99 228.494 18.297 255.863 34.086C283.232 49.875 305.962 72.591 321.769 99.949L259.504 135.925C250.012 119.496 236.363 105.856 219.928 96.374C203.493 86.893 184.852 81.905 165.879 81.911C146.905 81.917 128.267 86.917 111.839 96.41C95.41 105.902 81.77 119.551 72.288 135.986L10 100.051"></path></g></g></g><g id="g-root-cp_1_g-1_1463nvzdxxo96-fill" data-item-order="-562436" transform="translate(385.78900146484375, 356.18310546875)"><g id="cp_1_g-1_1463nvzdxxo96-fill-merged" stroke="none" fill="#3cc583" fill-opacity="1"><g><path d="M166.202 10C181.968 37.382 190.248 68.432 190.211 100.028C190.174 131.625 181.821 162.655 165.99 190C150.16 217.345 127.41 240.041 100.028 255.807C72.646 271.573 41.597 279.854 10 279.817L10.084 207.906C29.058 207.928 47.703 202.956 64.146 193.488C80.589 184.021 94.25 170.392 103.756 153.971C113.262 137.551 118.278 118.918 118.301 99.944C118.323 80.97 113.35 62.325 103.883 45.882L166.202 10"></path></g></g></g><g id="g-root-cp_problem_g-problem_zqwmundxxlvn-fill" data-item-order="-562430" transform="translate(133, 554)"><g id="cp_problem_g-problem_zqwmundxxlvn-fill-merged" stroke="none" fill="#44e095" fill-opacity="1"><g><path d="M10 10 H263 V82 H10 V10"></path></g></g></g><g id="g-root-ic_way_1lvi94fdybpxr-fill" data-item-order="-2304" transform="translate(362, 278)"><g id="ic_way_1lvi94fdybpxr-fill-merged" stroke="none" fill="#ffffff" fill-opacity="1"><g><path d="M57.62 41.08C57.316 40.909 56.944 40.909 56.64 41.08L27.64 56C27.229 56.209 27.015 56.671 27.12 57.12C27.23 57.574 27.633 57.895 28.1 57.9 H57.1C57.648 57.889 58.089 57.448 58.1 56.9 V42C58.124 41.628 57.939 41.273 57.62 41.08 M31.46 47.7C30.836 46.789 29.591 46.556 28.68 47.18C24.72 49.936 19.291 49.079 16.373 45.238C13.454 41.396 14.083 35.936 17.8 32.86C18.645 32.148 18.752 30.885 18.04 30.04C17.327 29.195 16.065 29.088 15.22 29.8C9.938 34.264 9.075 42.082 13.257 47.59C17.439 53.098 25.201 54.368 30.92 50.48C31.361 50.183 31.665 49.724 31.767 49.202C31.868 48.68 31.758 48.14 31.46 47.7 M18.86 16.56C18.86 19.598 21.322 22.06 24.36 22.06C27.398 22.06 29.86 19.598 29.86 16.56C29.86 13.522 27.398 11.06 24.36 11.06C21.322 11.06 18.86 13.522 18.86 16.56 M22.8 24.78C22.32 25.001 21.927 25.373 21.68 25.84C21.366 26.337 21.199 26.912 21.2 27.5 V36.44C21.2 39.345 23.555 41.7 26.46 41.7 H30.74C31.056 41.698 31.357 41.837 31.56 42.08L34.52 45.76C35.114 46.512 36.022 46.948 36.98 46.94C38.195 46.949 39.307 46.256 39.833 45.16C40.36 44.064 40.206 42.763 39.44 41.82L36.5 38.14C35.101 36.402 32.992 35.387 30.76 35.38 H27.5 V30.54L32.38 31.58C32.559 31.6 32.741 31.6 32.92 31.58C34.303 31.643 35.496 30.62 35.645 29.243C35.793 27.867 34.845 26.613 33.48 26.38C30.522 25.373 27.465 24.689 24.36 24.34C23.809 24.339 23.269 24.491 22.8 24.78"></path></g></g></g><g id="g-root-ic_logo_1d3m3e7dyabcy-fill" data-item-order="-2304" transform="translate(218, 434)"><g id="ic_logo_1d3m3e7dyabcy-fill-merged" stroke="none" fill="#ffffff" fill-opacity="1"><g><path d="M38 50.5C37.582 50.506 37.174 50.372 36.84 50.12C36.316 49.747 36.003 49.144 36 48.5 V22.74L34 21.74L32 22.74 V48.5C31.997 49.144 31.684 49.747 31.16 50.12C30.64 50.497 29.97 50.601 29.36 50.4L23.36 48.4C22.545 48.125 21.998 47.36 22 46.5 V26.74L20 27.74 V44.5C19.997 45.144 19.684 45.747 19.16 46.12C18.64 46.497 17.97 46.601 17.36 46.4L11.36 44.4C10.545 44.125 9.998 43.36 10 42.5 V28.5C10 27.395 10.895 26.5 12 26.5C13.105 26.5 14 27.395 14 28.5 V41.06L16 41.72 V26.5C16.002 25.747 16.427 25.059 17.1 24.72L23.1 21.72C23.719 21.408 24.455 21.439 25.046 21.802C25.637 22.164 25.998 22.807 26 23.5 V45.06L28 45.72 V21.5C28.002 20.747 28.427 20.059 29.1 19.72L33.1 17.72C33.666 17.435 34.334 17.435 34.9 17.72L38.9 19.72C39.573 20.059 39.998 20.747 40 21.5 V45.72L42 45.06 V23.5C42.002 22.807 42.363 22.164 42.954 21.802C43.545 21.439 44.281 21.408 44.9 21.72L50.9 24.72C51.573 25.059 51.998 25.747 52 26.5 V41.72L54 41.06 V28.5C54 27.395 54.895 26.5 56 26.5C57.105 26.5 58 27.395 58 28.5 V42.5C58.002 43.36 57.455 44.125 56.64 44.4L50.64 46.4C50.03 46.601 49.36 46.497 48.84 46.12C48.316 45.747 48.003 45.144 48 44.5 V27.74L46 26.74 V46.5C46.002 47.36 45.455 48.125 44.64 48.4L38.64 50.4C38.432 50.462 38.217 50.496 38 50.5"></path></g></g></g><g id="g-root-ic_2_1d1qo4vdyehaf-fill" data-item-order="-2304" transform="translate(507, 434)"><g id="ic_2_1d1qo4vdyehaf-fill-merged" stroke="none" fill="#ffffff" fill-opacity="1"><g><path d="M54 10 H32.56C30.576 10.011 28.971 11.616 28.96 13.6 V19.6L32 22.38 V13.68C31.994 13.519 32.056 13.363 32.17 13.25C32.283 13.136 32.439 13.074 32.6 13.08 H54C54.331 13.08 54.6 13.349 54.6 13.68 V41.1C54.59 41.427 54.327 41.69 54 41.7 H39.46 V39.06C39.46 36.18 34.96 34.92 32.12 34.42C33.26 35.94 33.08 35.36 33.08 37.68C34.275 37.89 35.408 38.361 36.4 39.06L36.1 39.3C34.529 40.105 32.831 40.633 31.08 40.86 V36.36L30 34.86C29.74 34.502 29.74 34.018 30 33.66L31.14 32.14 V24.94L28 22.28L25.04 24.94 V32.14L26.18 33.66C26.461 34.011 26.461 34.509 26.18 34.86L25.04 36.36 V41.32 H23.04C23.04 35.32 23.32 38.42 21.68 26.84L20.48 25.54C20.202 25.227 20.139 24.778 20.32 24.4L21.12 22.84L20 15.5L16.72 13.28L14.1 16.34L15.12 23.48L16.46 24.8C16.771 25.122 16.835 25.608 16.62 26L15.7 27.64L17.48 40.62C16.68 40.44 16.02 40.26 15.48 40.08C14.747 39.911 14.063 39.575 13.48 39.1C13.959 38.695 14.518 38.395 15.12 38.22L14.7 35.22C12.7 35.86 10.4 37.02 10.4 39.1 V45.76C16.6 49.1 33.78 48.98 39.4 45.76 V44.82 H54C55.984 44.809 57.589 43.204 57.6 41.22 V13.68C57.616 12.713 57.244 11.78 56.568 11.089C55.892 10.397 54.967 10.005 54 10 M37.52 18.88 H45.88C46.708 18.88 47.38 18.208 47.38 17.38C47.38 16.552 46.708 15.88 45.88 15.88 H37.52C36.692 15.88 36.02 16.552 36.02 17.38C36.02 18.208 36.692 18.88 37.52 18.88 M37.52 26.86 H50.38C51.208 26.86 51.88 26.188 51.88 25.36C51.88 24.532 51.208 23.86 50.38 23.86 H37.52C36.692 23.86 36.02 24.532 36.02 25.36C36.02 26.188 36.692 26.86 37.52 26.86 M37.52 34.84 H50.38C51.208 34.84 51.88 34.168 51.88 33.34C51.88 32.512 51.208 31.84 50.38 31.84 H37.52C36.692 31.84 36.02 32.512 36.02 33.34C36.02 34.168 36.692 34.84 37.52 34.84 M10.46 49 V54.58C10.471 55.245 10.919 55.823 11.56 56C20.322 58.52 29.618 58.52 38.38 56C39.024 55.819 39.467 55.229 39.46 54.56 V48.96C32.3 52 17.56 51.88 10.46 49"></path></g></g></g><g id="g-root-ic_2_13ym20fdxxo23-fill" data-item-order="-2304" transform="translate(238, 566)"><g id="ic_2_13ym20fdxxo23-fill-merged" stroke="none" fill="#ffffff" fill-opacity="1"><g><path d="M10 15.5C10.007 12.465 12.465 10.007 15.5 10 H52.5C55.535 10.007 57.993 12.465 58 15.5 V52.5C57.993 55.535 55.535 57.993 52.5 58 H15.5C12.465 57.993 10.007 55.535 10 52.5 V15.5 M27.9 49.7C27.3 50.3 26.5 50.7 25.5 50.7C23.5 50.7 21.9 49.1 22.1 47.3 V40.4 H19.5C18.672 40.4 18 39.728 18 38.9C18 38.072 18.672 37.4 19.5 37.4 H22.1 V34.7C19.3 33.3 17.5 30.7 17.5 27.5C17.5 24.1 19.5 21.3 22.5 20.1 V25.5C22.5 27.1 23.9 28.5 25.5 28.5C27.1 28.5 28.5 27.1 28.5 25.5 V20.1C31.5 21.3 33.5 24.1 33.5 27.5C33.5 30.7 31.5 33.5 28.9 34.7 V37.4 H31.5C32.328 37.4 33 38.072 33 38.9C33 39.728 32.328 40.4 31.5 40.4 H28.9 V47.3C28.9 48.1 28.5 49.1 27.9 49.7 M44.1 50.3C45.9 50.3 47.5 48.9 47.5 46.9 V43.4 H50.5C51.328 43.4 52 42.728 52 41.9C52 41.072 51.328 40.4 50.5 40.4 H47.5 V33.9 H45.6 V20.1C45.6 19.272 44.928 18.6 44.1 18.6C43.272 18.6 42.6 19.272 42.6 20.1 V33.9 H40.7 V40.4 H37.5C36.672 40.4 36 41.072 36 41.9C36 42.728 36.672 43.4 37.5 43.4 H40.7 V46.9C40.7 48.7 42.1 50.3 44.1 50.3"></path></g></g></g><g id="g-root-ic_spac_1lymmjzdxxo25-fill" data-item-order="-2304" transform="translate(543, 566)"><g id="ic_spac_1lymmjzdxxo25-fill-merged" stroke="none" fill="#ffffff" fill-opacity="1"><g><path d="M46 28C42.703 27.981 39.625 29.648 37.84 32.42C37.229 29.4 34.938 26.999 31.949 26.247C28.961 25.496 25.807 26.528 23.84 28.9C23.163 25.975 20.429 24.001 17.44 24.279C14.451 24.557 12.127 27.001 12 30 V39C12 39.552 12.448 40 13 40 H22 V49C22 49.552 22.448 50 23 50 H36 V57C36 57.552 36.448 58 37 58 H55C55.552 58 56 57.552 56 57 V38.78C56.164 36.009 55.189 33.291 53.301 31.255C51.413 29.22 48.776 28.044 46 28 M38 18C38 22.418 41.582 26 46 26C50.418 26 54 22.418 54 18C54 13.582 50.418 10 46 10C41.582 10 38 13.582 38 18 M24 18C24 21.314 26.686 24 30 24C33.314 24 36 21.314 36 18C36 14.686 33.314 12 30 12C26.686 12 24 14.686 24 18 M14 18C14 20.209 15.791 22 18 22C20.209 22 22 20.209 22 18C22 15.791 20.209 14 18 14C15.791 14 14 15.791 14 18"></path></g></g></g><g id="g-root-tx_enhancin_qv9mlrdxxmoc-fill" data-item-order="0" transform="translate(152, 38)"><g id="tx_enhancin_qv9mlrdxxmoc-fill-merged" stroke="none" fill="#484848" fill-opacity="1"><g><text style="font: bold 25px Roboto, sans-serif; white-space: pre;" transform="translate(244, 40)" font-weight="bold" font-size="25px" font-family="Roboto, sans-serif"><tspan x="-211.24" y="15" dominant-baseline="ideographic">Overview of BikeWalk's Project Vision</tspan></text></g></g></g><g id="g-root-tx_enhancea_de6xm7dxz0g9-fill" data-item-order="0" transform="translate(326, 122)"><g id="tx_enhancea_de6xm7dxz0g9-fill-merged" stroke="none" fill="#e0cb15" fill-opacity="1"><g><text style="font: bold 20px Roboto, sans-serif; white-space: pre;" transform="translate(70, 34)" font-weight="bold" font-size="20px" font-family="Roboto, sans-serif"><tspan x="-38.4" y="-0" dominant-baseline="ideographic">Enhance </tspan><tspan x="-57.44" y="24" dominant-baseline="ideographic">Accessibility</tspan></text></g></g></g><g id="g-root-tx_createin_1lt0fxrdxz096-fill" data-item-order="0" transform="translate(326, 182)"><g id="tx_createin_1lt0fxrdxz096-fill-merged" stroke="none" fill="#484848" fill-opacity="1"><g><text style="font: 15px Roboto, sans-serif; white-space: pre;" transform="translate(70, 40)" font-size="15px" font-family="Roboto, sans-serif"><tspan x="-56.15" y="-9" dominant-baseline="ideographic">Create inclusive, </tspan><tspan x="-38.26" y="9" dominant-baseline="ideographic">welcoming </tspan><tspan x="-43.47" y="27" dominant-baseline="ideographic">environment</tspan></text></g></g></g><g id="g-root-tx_strength_v6pwa7dxz097-fill" data-item-order="0" transform="translate(74, 342)"><g id="tx_strength_v6pwa7dxz097-fill-merged" stroke="none" fill="#92bd39" fill-opacity="1"><g><text style="font: bold 20px Roboto, sans-serif; white-space: pre;" transform="translate(118, 34)" font-weight="bold" font-size="20px" font-family="Roboto, sans-serif"><tspan x="-101.65" y="-0" dominant-baseline="ideographic">Strengthen </tspan><tspan x="-54.94" y="24" dominant-baseline="ideographic">Brand</tspan></text></g></g></g><g id="g-root-tx_optimize_1lr50ofdxz18v-fill" data-item-order="0" transform="translate(590, 330)"><g id="tx_optimize_1lr50ofdxz18v-fill-merged" stroke="none" fill="#de8431" fill-opacity="1"><g><text style="font: bold 20px Roboto, sans-serif; white-space: pre;" transform="translate(10, 34)" font-weight="bold" font-size="20px" font-family="Roboto, sans-serif"><tspan x="2" y="-0" dominant-baseline="ideographic">Optimize </tspan><tspan x="2" y="24" dominant-baseline="ideographic">Workflow</tspan></text></g></g></g><g id="g-root-tx_developc_dffvsfdxz2mc-fill" data-item-order="0" transform="translate(50, 402)"><g id="tx_developc_dffvsfdxz2mc-fill-merged" stroke="none" fill="#484848" fill-opacity="1"><g><text style="font: 15px Roboto, sans-serif; white-space: pre;" transform="translate(142, 28)" font-size="15px" font-family="Roboto, sans-serif"><tspan x="-129.05" y="0" dominant-baseline="ideographic">Develop consistent </tspan><tspan x="-92.75" y="18" dominant-baseline="ideographic">brand identity</tspan></text></g></g></g><g id="g-root-tx_improves_140hh9rdxz0g8-fill" data-item-order="0" transform="translate(590, 390)"><g id="tx_improves_140hh9rdxz0g8-fill-merged" stroke="none" fill="#484848" fill-opacity="1"><g><text style="font: 15px Roboto, sans-serif; white-space: pre;" transform="translate(10, 40)" font-size="15px" font-family="Roboto, sans-serif"><tspan x="2" y="-9" dominant-baseline="ideographic">Improve spatial </tspan><tspan x="2" y="9" dominant-baseline="ideographic">arrangement, </tspan><tspan x="2" y="27" dominant-baseline="ideographic">storage</tspan></text></g></g></g><g id="g-root-tx_communit_i096lrdxxnus-fill" data-item-order="0" transform="translate(297, 422)"><g id="tx_communit_i096lrdxxnus-fill-merged" stroke="none" fill="#484848" fill-opacity="1"><g><text style="font: bold 20px Roboto, sans-serif; white-space: pre;" transform="translate(100, 34)" font-weight="bold" font-size="20px" font-family="Roboto, sans-serif"><tspan x="-55.72" y="-0" dominant-baseline="ideographic">Community-</tspan><tspan x="-85.36" y="24" dominant-baseline="ideographic">Centered Redesign</tspan></text></g></g></g><g id="g-root-tx_ineffici_1cu929bdxz0n9-fill" data-item-order="0" transform="translate(189, 650)"><g id="tx_ineffici_1cu929bdxz0n9-fill-merged" stroke="none" fill="#484848" fill-opacity="1"><g><text style="font: bold 20px Roboto, sans-serif; white-space: pre;" transform="translate(82, 34)" font-weight="bold" font-size="20px" font-family="Roboto, sans-serif"><tspan x="-45.47" y="-0" dominant-baseline="ideographic">Inefficient </tspan><tspan x="-66.08" y="24" dominant-baseline="ideographic">Existing Space</tspan></text></g></g></g><g id="g-root-tx_optimize_1qa2w8fdxz1n1-fill" data-item-order="0" transform="translate(506, 650)"><g id="tx_optimize_1qa2w8fdxz1n1-fill-merged" stroke="none" fill="#7f9a44" fill-opacity="1"><g><text style="font: bold 20px Roboto, sans-serif; white-space: pre;" transform="translate(70, 46)" font-weight="bold" font-size="20px" font-family="Roboto, sans-serif"><tspan x="-48.39" y="-12" dominant-baseline="ideographic">Optimized </tspan><tspan x="-54.28" y="12" dominant-baseline="ideographic">Community </tspan><tspan x="-30.23" y="36" dominant-baseline="ideographic">Space</tspan></text></g></g></g><g id="g-root-tx_limitedw_dcbicvdxz1fy-fill" data-item-order="0" transform="translate(189, 710)"><g id="tx_limitedw_dcbicvdxz1fy-fill-merged" stroke="none" fill="#484848" fill-opacity="1"><g><text style="font: 15px Roboto, sans-serif; white-space: pre;" transform="translate(82, 28)" font-size="15px" font-family="Roboto, sans-serif"><tspan x="-58.24" y="0" dominant-baseline="ideographic">Limited workflow, </tspan><tspan x="-69.69" y="18" dominant-baseline="ideographic">storage, accessibility</tspan></text></g></g></g><g id="g-root-tx_efficien_18jfctrdxz0ue-fill" data-item-order="0" transform="translate(494, 734)"><g id="tx_efficien_18jfctrdxz0ue-fill-merged" stroke="none" fill="#484848" fill-opacity="1"><g><text style="font: 15px Roboto, sans-serif; white-space: pre;" transform="translate(82, 40)" font-size="15px" font-family="Roboto, sans-serif"><tspan x="-69.35" y="-9" dominant-baseline="ideographic">Efficient, welcoming, </tspan><tspan x="-28.42" y="9" dominant-baseline="ideographic">branded </tspan><tspan x="-42.77" y="27" dominant-baseline="ideographic">environment</tspan></text></g></g></g><g id="g-root-cp_resolution_g-resolution_1hhk69bdxxmo7-stroke" data-item-order="-562454" transform="translate(386, 542)"><g id="cp_resolution_g-resolution_1hhk69bdxxmo7-stroke" fill="none" stroke-linecap="round" stroke-linejoin="round" stroke-miterlimit="4" stroke="#ffffff" stroke-width="2" stroke-opacity="1"><g><path d="M 10 94L 262 94L 262 106L 298 58L 262 10L 262 22L 154.0002 22"></path></g></g></g><g id="g-root-cp_3_g-3_1d1qo4vdxxngg-stroke" data-item-order="-562448" transform="translate(206, 356)"><g id="cp_3_g-3_1d1qo4vdxxngg-stroke" fill="none" stroke-linecap="round" stroke-linejoin="round" stroke-miterlimit="4" stroke="#ffffff" stroke-width="2" stroke-opacity="1"><g><path d="M 45.9999 208C 41.6952 202.2604 37.7246 196.2513 34.1154 190C 18.3171 162.6366 10 131.5966 10 100C 10 68.4034 18.3171 37.3635 34.1154 10M 96.392 45.9554C 86.9051 62.387 81.9107 81.0264 81.9107 100C 81.9107 118.9737 86.9051 137.613 96.3919 154.0447C 105.8787 170.4763 119.5237 184.1213 135.9554 193.6081C 151.1171 202.3617 168.1584 207.2905 185.6077 208"></path></g></g></g><g id="g-root-cp_2_g-2_1d1qo4vdxxngh-stroke" data-item-order="-562442" transform="translate(230.08602905273438, 266)"><g id="cp_2_g-2_1d1qo4vdxxngh-stroke" fill="none" stroke-linecap="round" stroke-linejoin="round" stroke-miterlimit="4" stroke="#ffffff" stroke-width="2" stroke-opacity="1"><g><path d="M 321.769069 99.9491C 305.961869 72.5908 283.231569 49.8754 255.862969 34.086C 228.494369 18.2967 197.451769 9.9897 165.855069 10C 134.258569 10.0103 103.221269 18.3376 75.862969 34.1449C 48.504669 49.9521 25.789369 72.6823 9.999969 100.051L 72.288269 135.986C 81.769669 119.5512 95.410169 105.9018 111.838769 96.4096C 128.267269 86.9174 146.904969 81.9169 165.878669 81.9107C 184.852269 81.9045 203.493269 86.8928 219.927969 96.3743C 236.362769 105.8557 250.012169 119.4962 259.504369 135.9248"></path></g></g></g><g id="g-root-cp_1_g-1_1463nvzdxxo96-stroke" data-item-order="-562436" transform="translate(385.78900146484375, 356.18310546875)"><g id="cp_1_g-1_1463nvzdxxo96-stroke" fill="none" stroke-linecap="round" stroke-linejoin="round" stroke-miterlimit="4" stroke="#ffffff" stroke-width="2" stroke-opacity="1"><g><path d="M 10 279.8168C 41.5966 279.8539 72.6463 271.5733 100.0283 255.8071C 127.4103 240.0409 150.1598 217.3448 165.9902 189.9999C 181.8206 162.655 190.1742 131.6249 190.2113 100.0283C 190.2483 68.4317 181.9677 37.382 166.2015 10L 103.8828 45.8822C 113.3503 62.325 118.3229 80.9702 118.3006 99.9439C 118.2783 118.9175 113.262 137.551 103.7559 153.9715C 94.2498 170.392 80.5889 184.0209 64.1461 193.4884C 47.7033 202.9559 29.0581 207.9284 10.0844 207.9062"></path></g></g></g><g id="g-root-cp_problem_g-problem_zqwmundxxlvn-stroke" data-item-order="-562430" transform="translate(133, 554)"><g id="cp_problem_g-problem_zqwmundxxlvn-stroke" fill="none" stroke-linecap="round" stroke-linejoin="round" stroke-miterlimit="4" stroke="#ffffff" stroke-width="2" stroke-opacity="1"><g><path d="M 10 10L 263 10L 263 82L 10 82L 10 10Z"></path></g></g></g><g id="g-root-ic_way_1lvi94fdybpxr-stroke" data-item-order="-2304" transform="translate(362, 278)"></g><g id="g-root-ic_logo_1d3m3e7dyabcy-stroke" data-item-order="-2304" transform="translate(218, 434)"></g><g id="g-root-ic_2_1d1qo4vdyehaf-stroke" data-item-order="-2304" transform="translate(507, 434)"></g><g id="g-root-ic_2_13ym20fdxxo23-stroke" data-item-order="-2304" transform="translate(238, 566)"></g><g id="g-root-ic_spac_1lymmjzdxxo25-stroke" data-item-order="-2304" transform="translate(543, 566)"></g><g id="g-root-tx_enhancin_qv9mlrdxxmoc-stroke" data-item-order="0" transform="translate(152, 38)"></g><g id="g-root-tx_enhancea_de6xm7dxz0g9-stroke" data-item-order="0" transform="translate(326, 122)"></g><g id="g-root-tx_createin_1lt0fxrdxz096-stroke" data-item-order="0" transform="translate(326, 182)"></g><g id="g-root-tx_strength_v6pwa7dxz097-stroke" data-item-order="0" transform="translate(74, 342)"></g><g id="g-root-tx_optimize_1lr50ofdxz18v-stroke" data-item-order="0" transform="translate(590, 330)"></g><g id="g-root-tx_developc_dffvsfdxz2mc-stroke" data-item-order="0" transform="translate(50, 402)"></g><g id="g-root-tx_improves_140hh9rdxz0g8-stroke" data-item-order="0" transform="translate(590, 390)"></g><g id="g-root-tx_communit_i096lrdxxnus-stroke" data-item-order="0" transform="translate(297, 422)"></g><g id="g-root-tx_ineffici_1cu929bdxz0n9-stroke" data-item-order="0" transform="translate(189, 650)"></g><g id="g-root-tx_optimize_1qa2w8fdxz1n1-stroke" data-item-order="0" transform="translate(506, 650)"></g><g id="g-root-tx_limitedw_dcbicvdxz1fy-stroke" data-item-order="0" transform="translate(189, 710)"></g><g id="g-root-tx_efficien_18jfctrdxz0ue-stroke" data-item-order="0" transform="translate(494, 734)"></g></g></g></svg>