<?xml version="1.0" encoding="utf-8" standalone="yes"?>
<!DOCTYPE svg PUBLIC "-//W3C//DTD SVG 1.1//EN" "http://www.w3.org/Graphics/SVG/1.1/DTD/svg11.dtd">
<svg style="fill:none;stroke:none;fill-rule:evenodd;clip-rule:evenodd;stroke-linecap:round;stroke-linejoin:round;stroke-miterlimit:1.5;" version="1.1" xmlns="http://www.w3.org/2000/svg" xmlns:xlink="http://www.w3.org/1999/xlink" width="888" height="564" viewBox="0 0 888 564"><style class="text-font-style fontImports" data-font-family="Montserrat">@import url(https://fonts.googleapis.com/css2?family=Montserrat:wght@400;700&amp;amp;display=block);</style><g id="items" style="isolation: isolate"><g id="blend" style="mix-blend-mode: normal"><g id="g-root-cp_3_g-3_1hd775w1a4tl3g-fill" data-item-order="-393110" transform="translate(434, 194.0009765625)"><g id="cp_3_g-3_1hd775w1a4tl3g-fill-merged" stroke="none" fill="#cbb694" fill-opacity="1"><g><path d="M70 10L190 79.282 V217.846L129.999 252.488L70 287.129L10.001 252.487L70.001 217.846 V79.281L10 44.641L70 10"></path></g></g></g><g id="g-root-cp_1_g-1_1cy064k1a4tipx-fill" data-item-order="-393106" transform="translate(254.00100708007812, 194)"><g id="cp_1_g-1_1cy064k1a4tipx-fill-merged" stroke="none" fill="#f7e0b5" fill-opacity="1"><g><path d="M10 217.846 V79.282L130 10L189.999 44.642L129.999 79.283 V217.848L190 252.488L130 287.129L70 252.487L10 217.846"></path></g></g></g><g id="g-root-cp_2_g-2_142d5vo1a4tjim-fill" data-item-order="-393102" transform="translate(374, 228.6419677734375)"><g id="cp_2_g-2_142d5vo1a4tjim-fill-merged" stroke="none" fill="#f7d087" fill-opacity="1"><g><path d="M10 44.641L70 10L130.001 44.64 V183.204L70.001 217.845L10.001 183.205 V44.641"></path></g></g></g><g id="g-root-ic_1_mbpmh01a4tiq0-fill" data-item-order="-3600" transform="translate(404, 303)"><g id="ic_1_mbpmh01a4tiq0-fill-merged" stroke="none" fill="#ffffff" fill-opacity="1"><g><path d="M63.025 60 H11.975C11.604 60.003 11.252 60.167 11.012 60.451C10.771 60.734 10.667 61.108 10.725 61.475C11.461 66.415 15.73 70.055 20.725 70 H54.475C59.47 70.055 63.739 66.415 64.475 61.475C64.544 61.071 64.415 60.659 64.127 60.366C63.84 60.074 63.43 59.938 63.025 60 M65.725 38.75C64.921 38.719 64.129 38.956 63.475 39.425C63.25 39.537 62.978 39.474 62.825 39.275C61.933 36.927 59.437 35.606 56.993 36.188C54.55 36.769 52.917 39.074 53.178 41.572C53.44 44.07 55.514 45.987 58.025 46.05C58.025 46.05 58.45 46.05 58.025 46.375C57.157 47.052 56.1 47.445 55 47.5 H48.8C48.602 47.498 48.417 47.398 48.307 47.233C48.197 47.068 48.176 46.859 48.25 46.675C50.75 39.175 44.4 33.925 41.6 31.2C41.269 31.076 41.101 30.706 41.225 30.375C41.349 30.044 41.719 29.876 42.05 30 H59.375C61.34 30.045 62.992 28.536 63.125 26.575C63.213 24.199 62.331 21.889 60.68 20.177C59.029 18.465 56.753 17.498 54.375 17.5C52.694 17.497 51.049 17.993 49.65 18.925C49.487 19.037 49.28 19.066 49.093 19.002C48.906 18.938 48.76 18.789 48.7 18.6C46.991 13.509 42.22 10.078 36.85 10.078C31.48 10.078 26.709 13.509 25 18.6C24.94 18.789 24.794 18.938 24.607 19.002C24.42 19.066 24.213 19.037 24.05 18.925C22.665 18.003 21.039 17.507 19.375 17.5C16.997 17.498 14.721 18.465 13.07 20.177C11.419 21.889 10.537 24.199 10.625 26.575C10.758 28.536 12.41 30.045 14.375 30 H31.025C31.21 29.994 31.387 30.078 31.5 30.225L37 36.975C37.904 38.088 38.286 39.536 38.05 40.95C37.818 42.365 36.989 43.612 35.775 44.375C31.792 46.805 29.153 50.939 28.625 55.575C28.61 55.754 28.673 55.93 28.798 56.059C28.922 56.188 29.096 56.258 29.275 56.25 H40.95C41.136 56.26 41.315 56.176 41.425 56.025C42 55.3 43.925 53.525 44.7 52.5C44.824 52.371 44.996 52.298 45.175 52.3L55 52.5C58.078 52.497 60.982 51.077 62.875 48.65C62.875 48.65 64 47.1 64.375 46.45C64.474 46.299 64.645 46.214 64.825 46.225 H65.525C67.596 46.28 69.32 44.646 69.375 42.575C69.43 40.504 67.796 38.78 65.725 38.725"></path></g></g></g><g id="g-root-ic_chai_4kflz81a4wbut-fill" data-item-order="-2304" transform="translate(302, 309)"><g id="ic_chai_4kflz81a4wbut-fill-merged" stroke="none" fill="#ffffff" fill-opacity="1"><g><path d="M23.774 10.688C23.074 10.222 22.142 9.83 21.114 10.168L12.122 12.968C12.07 12.984 12.02 13.004 11.972 13.028C10.932 13.548 10.02 14.644 10.02 15.92 V26.92C10.02 28.294 10.85 29.544 12.146 29.884L21.122 32.676C21.218 32.706 21.319 32.722 21.42 32.722C22.054 32.722 22.92 32.722 23.774 32.152C23.829 32.116 23.88 32.074 23.926 32.028C24.392 31.564 25.02 30.72 25.02 29.72 V13.12C25.02 12.29 24.73 11.326 23.774 10.688 M41.762 34.692C42.266 32.202 44.558 30.598 46.946 31.122C49.44 31.626 51.046 33.924 50.516 36.318L48.51 45.342C48.01 47.334 46.25 48.9 44.14 48.9 H38.812L36.466 54.676C36.46 54.69 36.453 54.704 36.446 54.718C36.004 55.682 35.138 56.498 34.126 56.962C33.102 57.432 31.838 57.574 30.626 57.036C29.482 56.526 28.71 55.664 28.342 54.616C27.982 53.588 28.034 52.452 28.39 51.384C28.397 51.364 28.404 51.344 28.412 51.324L31.82 42.906C32.568 41.162 34.114 40.1 35.94 40.1 H40.54L41.76 34.69 M54.494 58 H37.048C37.79 57.34 38.381 56.527 38.78 55.618L40.494 51.4 H44.138C47.528 51.4 50.19 48.92 50.932 45.948C50.94 45.918 50.948 45.888 50.952 45.86L52.952 36.86C53.245 35.574 53.148 34.23 52.672 33 H54.496C55.436 33 56.336 33.32 57.006 33.99C57.674 34.658 57.994 35.56 57.994 36.5 V54.5C57.994 55.44 57.674 56.34 57.006 57.01C56.336 57.68 55.436 58 54.494 58 M14.868 35.76C15.332 35.724 15.808 35.792 16.22 35.928L18.188 36.518C19.432 36.866 20.299 37.991 20.32 39.282 V44.082C20.32 45.112 19.804 46.428 18.47 46.822C17.264 47.376 16.05 47.028 15.212 46.188L13.212 44.188C12.938 43.923 12.715 43.609 12.556 43.262C12.395 42.89 12.314 42.488 12.32 42.082 V38.682C12.32 37.682 12.948 36.84 13.412 36.374C13.844 35.942 14.412 35.794 14.868 35.76 M29.728 24.076C29.984 23.888 30.315 23.833 30.618 23.928 H30.746L31.126 24.074C31.454 24.164 31.922 24.284 32.476 24.404C33.596 24.648 35.016 24.882 36.32 24.882C36.872 24.882 37.32 25.33 37.32 25.882 V33.882C37.32 34.205 37.164 34.508 36.901 34.696C36.639 34.883 36.301 34.933 35.996 34.828L36.32 33.882L35.996 34.828C35.708 34.727 35.478 34.644 35.248 34.558C34.66 34.338 34.078 34.103 33.502 33.854C32.21 33.296 30.55 32.486 29.628 31.604C29.431 31.415 29.32 31.155 29.32 30.882 V24.882C29.32 24.564 29.471 24.264 29.728 24.076 M48.496 15.4C44.906 15.4 41.996 18.31 41.996 21.9C41.996 25.49 44.906 28.4 48.496 28.4C52.086 28.4 54.996 25.49 54.996 21.9C54.996 18.31 52.086 15.4 48.496 15.4"></path></g></g></g><g id="g-root-ic_1_mb35dw1a4wcnf-fill" data-item-order="-2304" transform="translate(518, 309)"><g id="ic_1_mb35dw1a4wcnf-fill-merged" stroke="none" fill="#ffffff" fill-opacity="1"><g><path d="M58 56.5C57.989 55.676 57.324 55.011 56.5 55 H52.5C52.205 55 51.926 54.868 51.74 54.64C51.559 54.415 51.479 54.126 51.52 53.84L52 51.16C52.058 50.874 51.976 50.577 51.78 50.36C51.595 50.119 51.304 49.984 51 50 H49C48.724 50 48.5 49.776 48.5 49.5 V47.24C48.495 47.01 48.654 46.808 48.88 46.76C53.211 45.524 56.145 41.501 56 37C56.261 31.759 52.24 27.291 47 27C41.76 27.291 37.739 31.759 38 37C37.855 41.501 40.789 45.524 45.12 46.76C45.346 46.808 45.505 47.01 45.5 47.24 V49.5C45.5 49.776 45.276 50 45 50 H43C42.703 49.99 42.42 50.124 42.24 50.36C42.044 50.577 41.962 50.874 42.02 51.16L42.46 53.84C42.501 54.126 42.421 54.415 42.24 54.64C42.054 54.868 41.775 55 41.48 55 H33C32.448 55 32 54.552 32 54 V37C31.997 36.432 31.83 35.876 31.52 35.4C31.254 34.967 31.348 34.404 31.74 34.08L34.62 31.78C34.861 31.593 35.002 31.305 35 31C34.995 30.77 35.154 30.568 35.38 30.52C36.03 30.332 36.477 29.737 36.477 29.06C36.477 28.383 36.03 27.788 35.38 27.6C35.154 27.552 34.995 27.35 35 27.12 V24.94C34.995 24.71 35.154 24.508 35.38 24.46C36.03 24.272 36.477 23.677 36.477 23C36.477 22.323 36.03 21.728 35.38 21.54C35.154 21.492 34.995 21.29 35 21.06 V18.94C34.995 18.71 35.154 18.508 35.38 18.46C36.03 18.272 36.477 17.677 36.477 17C36.477 16.323 36.03 15.728 35.38 15.54C35.154 15.492 34.995 15.29 35 15.06C35.016 13.724 34.496 12.436 33.557 11.486C32.617 10.535 31.337 10 30 10 H18C15.239 10 13 12.239 13 15C13.005 15.23 12.846 15.432 12.62 15.48C11.97 15.668 11.523 16.263 11.523 16.94C11.523 17.617 11.97 18.212 12.62 18.4C12.846 18.448 13.005 18.65 13 18.88 V21.06C13.005 21.29 12.846 21.492 12.62 21.54C11.97 21.728 11.523 22.323 11.523 23C11.523 23.677 11.97 24.272 12.62 24.46C12.846 24.508 13.005 24.71 13 24.94 V27.06C13.005 27.29 12.846 27.492 12.62 27.54C11.97 27.728 11.523 28.323 11.523 29C11.523 29.677 11.97 30.272 12.62 30.46C12.846 30.508 13.005 30.71 13 30.94C12.998 31.245 13.139 31.533 13.38 31.72L16.26 34C16.652 34.324 16.746 34.887 16.48 35.32C16.17 35.796 16.003 36.352 16 36.92 V54C16 54.552 15.552 55 15 55 H11.5C10.672 55 10 55.672 10 56.5C10 57.328 10.672 58 11.5 58 H56.5C57.324 57.989 57.989 57.324 58 56.5 M22 41.5 H21.42C20.592 41.5 19.92 40.828 19.92 40C19.92 39.172 20.592 38.5 21.42 38.5 H26.54C27.368 38.5 28.04 39.172 28.04 40C28.04 40.828 27.368 41.5 26.54 41.5 H26C25.724 41.5 25.5 41.724 25.5 42 V43C25.5 43.828 24.828 44.5 24 44.5C23.172 44.5 22.5 43.828 22.5 43 V42C22.5 41.724 22.276 41.5 22 41.5 M16.38 16.28C16.439 15.813 16.685 15.389 17.062 15.106C17.439 14.824 17.915 14.706 18.38 14.78 H30C30.465 14.706 30.941 14.824 31.318 15.106C31.695 15.389 31.941 15.813 32 16.28 V17.4C31.969 17.635 31.756 17.804 31.52 17.78 H16.86C16.624 17.804 16.411 17.635 16.38 17.4 V16.28 M16.38 21.32C16.38 21.1 16.58 20.94 16.86 20.94 H31.44C31.676 20.916 31.889 21.085 31.92 21.32 V23.56C31.889 23.795 31.676 23.964 31.44 23.94 H16.86C16.624 23.964 16.411 23.795 16.38 23.56 V21.32 M16.38 28.64 V27.52C16.38 27.3 16.58 27.14 16.86 27.14 H31.44C31.676 27.116 31.889 27.285 31.92 27.52 V28.64C31.856 29.105 31.608 29.525 31.233 29.807C30.857 30.088 30.384 30.208 29.92 30.14 H18.3C17.361 30.235 16.515 29.574 16.38 28.64"></path></g></g></g><g id="g-root-tx_wherelux_zmjnr81a4tkav-fill" data-item-order="0" transform="translate(134, 38)"><g id="tx_wherelux_zmjnr81a4tkav-fill-merged" stroke="none" fill="#484848" fill-opacity="1"><g><text style="font: bold 25px Montserrat, sans-serif; white-space: pre;" transform="translate(310, 28)" font-weight="bold" font-size="25px" font-family="Montserrat, sans-serif"><tspan x="-296.6" y="15" dominant-baseline="ideographic">Where Luxury Meets Sustainability in the Sky</tspan></text></g></g></g><g id="g-root-tx_immersiv_4osxl01a4wefc-fill" data-item-order="0" transform="translate(314, 98)"><g id="tx_immersiv_4osxl01a4wefc-fill-merged" stroke="none" fill="#f7d087" fill-opacity="1"><g><text style="font: bold 20px Montserrat, sans-serif; white-space: pre;" transform="translate(130, 22)" font-weight="bold" font-size="20px" font-family="Montserrat, sans-serif"><tspan x="-117.12" y="12" dominant-baseline="ideographic">Immersive Eco-Luxury</tspan></text></g></g></g><g id="g-root-tx_unforget_1lz9g5g1a4wdfl-fill" data-item-order="0" transform="translate(326, 134)"><g id="tx_unforget_1lz9g5g1a4wdfl-fill-merged" stroke="none" fill="#484848" fill-opacity="1"><g><text style="font: 15px Montserrat, sans-serif; white-space: pre;" transform="translate(118, 34)" font-size="15px" font-family="Montserrat, sans-serif"><tspan x="-101.46" y="-0" dominant-baseline="ideographic">Unforgettable, responsible </tspan><tspan x="-22.57" y="18" dominant-baseline="ideographic">travel</tspan></text></g></g></g><g id="g-root-tx_luxuryho_4gorgk1a4xs04-fill" data-item-order="0" transform="translate(110, 278)"><g id="tx_luxuryho_4gorgk1a4xs04-fill-merged" stroke="none" fill="#f7d087" fill-opacity="1"><g><text style="font: bold 20px Montserrat, sans-serif; white-space: pre;" transform="translate(130, 40)" font-weight="bold" font-size="20px" font-family="Montserrat, sans-serif"><tspan x="-73.77" y="-0" dominant-baseline="ideographic">Luxury </tspan><tspan x="-114.6" y="24" dominant-baseline="ideographic">Hospitality</tspan></text></g></g></g><g id="g-root-tx_sustaina_zist8k1a4xr7u-fill" data-item-order="0" transform="translate(638, 278)"><g id="tx_sustaina_zist8k1a4xr7u-fill-merged" stroke="none" fill="#cbb694" fill-opacity="1"><g><text style="font: bold 20px Montserrat, sans-serif; white-space: pre;" transform="translate(10, 40)" font-weight="bold" font-size="20px" font-family="Montserrat, sans-serif"><tspan x="2" y="-0" dominant-baseline="ideographic">Sustainable </tspan><tspan x="2" y="24" dominant-baseline="ideographic">Innovation</tspan></text></g></g></g><g id="g-root-tx_highendc_1q6cb2c1a4xtdx-fill" data-item-order="0" transform="translate(50, 350)"><g id="tx_highendc_1q6cb2c1a4xtdx-fill-merged" stroke="none" fill="#484848" fill-opacity="1"><g><text style="font: 15px Montserrat, sans-serif; white-space: pre;" transform="translate(190, 34)" font-size="15px" font-family="Montserrat, sans-serif"><tspan x="-171.24" y="-0" dominant-baseline="ideographic">High-end comfort and </tspan><tspan x="-54.17" y="18" dominant-baseline="ideographic">service</tspan></text></g></g></g><g id="g-root-tx_ecofrien_m7cav81a4xssr-fill" data-item-order="0" transform="translate(638, 350)"><g id="tx_ecofrien_m7cav81a4xssr-fill-merged" stroke="none" fill="#484848" fill-opacity="1"><g><text style="font: 15px Montserrat, sans-serif; white-space: pre;" transform="translate(10, 34)" font-size="15px" font-family="Montserrat, sans-serif"><tspan x="2" y="-0" dominant-baseline="ideographic">Eco-friendly design and </tspan><tspan x="2" y="18" dominant-baseline="ideographic">technology</tspan></text></g></g></g><g id="g-root-cp_3_g-3_1hd775w1a4tl3g-stroke" data-item-order="-393110" transform="translate(434, 194.0009765625)"><g id="cp_3_g-3_1hd775w1a4tl3g-stroke" fill="none" stroke-linecap="round" stroke-linejoin="round" stroke-miterlimit="4" stroke="#ffffff" stroke-width="2" stroke-opacity="1"><g><path d="M 70.0001 10L 190.0002 79.2821L 190.0002 217.8463L 129.9991 252.4885L 70.0004 287.1285L 10.001 252.4866L 70.001 217.8456L 70.0007 148.5633L 70.0007 79.2812L 10 44.641L 70.0001 10Z"></path></g></g></g><g id="g-root-cp_1_g-1_1cy064k1a4tipx-stroke" data-item-order="-393106" transform="translate(254.00100708007812, 194)"><g id="cp_1_g-1_1cy064k1a4tipx-stroke" fill="none" stroke-linecap="round" stroke-linejoin="round" stroke-miterlimit="4" stroke="#ffffff" stroke-width="2" stroke-opacity="1"><g><path d="M 10 217.8463L 10 79.2821L 130.0001 10L 189.9995 44.6419L 129.9995 79.283L 129.9995 148.5651L 129.9997 217.8475L 189.9998 252.4877L 129.9997 287.1288L 70.0001 252.4873L 10 217.8463Z"></path></g></g></g><g id="g-root-cp_2_g-2_142d5vo1a4tjim-stroke" data-item-order="-393102" transform="translate(374, 228.6419677734375)"><g id="cp_2_g-2_142d5vo1a4tjim-stroke" fill="none" stroke-linecap="round" stroke-linejoin="round" stroke-miterlimit="4" stroke="#ffffff" stroke-width="2" stroke-opacity="1"><g><path d="M 10 44.641L 70.0001 10L 130.0007 44.6402L 130.0007 113.9223L 130.0007 183.2043L 70.0007 217.8453L 10.0006 183.2052L 10 113.9231L 10 44.641Z"></path></g></g></g><g id="g-root-ic_1_mbpmh01a4tiq0-stroke" data-item-order="-3600" transform="translate(404, 303)"></g><g id="g-root-ic_chai_4kflz81a4wbut-stroke" data-item-order="-2304" transform="translate(302, 309)"></g><g id="g-root-ic_1_mb35dw1a4wcnf-stroke" data-item-order="-2304" transform="translate(518, 309)"></g><g id="g-root-tx_wherelux_zmjnr81a4tkav-stroke" data-item-order="0" transform="translate(134, 38)"></g><g id="g-root-tx_immersiv_4osxl01a4wefc-stroke" data-item-order="0" transform="translate(314, 98)"></g><g id="g-root-tx_unforget_1lz9g5g1a4wdfl-stroke" data-item-order="0" transform="translate(326, 134)"></g><g id="g-root-tx_luxuryho_4gorgk1a4xs04-stroke" data-item-order="0" transform="translate(110, 278)"></g><g id="g-root-tx_sustaina_zist8k1a4xr7u-stroke" data-item-order="0" transform="translate(638, 278)"></g><g id="g-root-tx_highendc_1q6cb2c1a4xtdx-stroke" data-item-order="0" transform="translate(50, 350)"></g><g id="g-root-tx_ecofrien_m7cav81a4xssr-stroke" data-item-order="0" transform="translate(638, 350)"></g></g></g></svg>