<?xml version="1.0" encoding="utf-8" standalone="yes"?>
<!DOCTYPE svg PUBLIC "-//W3C//DTD SVG 1.1//EN" "http://www.w3.org/Graphics/SVG/1.1/DTD/svg11.dtd">
<svg style="fill:none;stroke:none;fill-rule:evenodd;clip-rule:evenodd;stroke-linecap:round;stroke-linejoin:round;stroke-miterlimit:1.5;" version="1.1" xmlns="http://www.w3.org/2000/svg" xmlns:xlink="http://www.w3.org/1999/xlink" width="792" height="732" viewBox="0 0 792 732"><style class="text-font-style fontImports" data-font-family="Roboto">@import url(https://fonts.googleapis.com/css2?family=Roboto:wght@400;700&amp;amp;display=block);</style><g id="items" style="isolation: isolate"><g id="blend" style="mix-blend-mode: normal"><g id="g-root-cp_0_g-0_meu9ec19uwtfy-fill" data-item-order="-473174" transform="translate(278, 158)"><g id="cp_0_g-0_meu9ec19uwtfy-fill-merged" stroke="none" fill="#666666" fill-opacity="1"><g><path d="M226 118C226 177.647 177.647 226 118 226C58.353 226 10 177.647 10 118C10 58.353 58.353 10 118 10C177.647 10 226 58.353 226 118"></path></g></g></g><g id="g-root-cp_3_g-3_meu9ec19uwtfz-fill" data-item-order="-473170" transform="translate(177, 110)"><g id="cp_3_g-3_meu9ec19uwtfz-fill-merged" stroke="none" fill="#92bd39" fill-opacity="1"><g><path d="M111 166C111 122.47 136.753 84.956 173.853 67.86C162.863 34.267 131.266 10 94 10C47.608 10 10 47.608 10 94C10 140.392 47.608 178 94 178C99.992 178 105.837 177.373 111.474 176.18C111.16 172.829 111 169.433 111 166"></path></g></g></g><g id="g-root-cp_2_g-2_hzn8d019uwr2g-fill" data-item-order="-473164" transform="translate(302, 326)"><g id="cp_2_g-2_hzn8d019uwr2g-fill-merged" stroke="none" fill="#3cc583" fill-opacity="1"><g><path d="M94 58C117.342 58 138.954 50.595 156.616 38.006C169.914 52.866 178 72.489 178 94C178 140.392 140.392 178 94 178C47.608 178 10 140.392 10 94C10 72.489 18.086 52.866 31.384 38.006C49.046 50.595 70.658 58 94 58"></path></g></g></g><g id="g-root-cp_1_g-1_djtq8k19uwrup-fill" data-item-order="-473158" transform="translate(425, 110)"><g id="cp_1_g-1_djtq8k19uwrup-fill-merged" stroke="none" fill="#1eabda" fill-opacity="1"><g><path d="M79 166C79 121.793 52.44 83.79 14.407 67.077C25.629 33.89 57.025 10 94 10C140.392 10 178 47.608 178 94C178 140.392 140.392 178 94 178C88.701 178 83.516 177.509 78.489 176.571C78.827 173.093 79 169.567 79 166"></path></g></g></g><g id="g-root-ic_13_v3m1p019uzmkt-fill" data-item-order="-2304" transform="translate(218, 152)"><g id="ic_13_v3m1p019uzmkt-fill-merged" stroke="none" fill="#ffffff" fill-opacity="1"><g><path d="M24.64 24.66 H24.74C24.74 24.66 26.38 24.66 26.38 26.3 V29.62C26.38 29.62 26.38 31.26 24.74 31.26 H24.64C24.64 31.26 23 31.26 23 29.62 V26.3C23 26.3 23 24.66 24.64 24.66 M32.12 24.66 H32.22C32.22 24.66 33.86 24.66 33.86 26.3 V29.62C33.86 29.62 33.86 31.26 32.22 31.26 H32.12C32.12 31.26 30.48 31.26 30.48 29.62 V26.3C30.48 26.3 30.48 24.66 32.12 24.66 M30.7 41.62C30.208 41.08 29.815 40.457 29.54 39.78C29.174 39.8 28.806 39.8 28.44 39.78C22.354 39.78 17.42 34.846 17.42 28.76C17.42 22.674 22.354 17.74 28.44 17.74C34.526 17.74 39.46 22.674 39.46 28.76 V29.36C40.864 26.77 44.002 25.664 46.72 26.8 V12.8C46.687 11.137 45.324 9.809 43.66 9.82 H13.18C12.365 9.815 11.582 10.135 11.003 10.709C10.425 11.284 10.1 12.065 10.1 12.88 V44.7C10.111 46.393 11.487 47.76 13.18 47.76 H29.18C29.384 46.703 29.883 45.725 30.62 44.94L32.16 43.28L30.7 41.62 M54 44.68C53.238 43.902 53.238 42.658 54 41.88L56.12 39.58C56.949 38.696 57.104 37.374 56.502 36.322C55.9 35.27 54.682 34.734 53.5 35L50.46 35.72C49.945 35.86 49.396 35.789 48.934 35.523C48.472 35.256 48.136 34.816 48 34.3L47.1 31.32C46.759 30.152 45.687 29.349 44.47 29.349C43.253 29.349 42.181 30.152 41.84 31.32L40.92 34.3C40.636 35.355 39.559 35.987 38.5 35.72L35.48 35C34.294 34.721 33.065 35.253 32.457 36.308C31.849 37.364 32.004 38.694 32.84 39.58L34.96 41.88C35.722 42.658 35.722 43.902 34.96 44.68L32.84 46.96C32.004 47.846 31.849 49.176 32.457 50.232C33.065 51.287 34.294 51.819 35.48 51.54L38.5 50.84C39.553 50.572 40.628 51.193 40.92 52.24L41.84 55.24C42.181 56.408 43.253 57.211 44.47 57.211C45.687 57.211 46.759 56.408 47.1 55.24L48 52.24C48.292 51.193 49.367 50.572 50.42 50.84L53.46 51.54C54.642 51.806 55.86 51.27 56.462 50.218C57.064 49.166 56.909 47.844 56.08 46.96L54 44.68 M44.5 47.74C42.037 47.74 40.04 45.743 40.04 43.28C40.04 40.817 42.037 38.82 44.5 38.82C46.963 38.82 48.96 40.817 48.96 43.28C48.96 45.735 46.975 47.729 44.52 47.74"></path></g></g></g><g id="g-root-ic_plan_zs671019uwqvg-fill" data-item-order="-2304" transform="translate(506, 152)"><g id="ic_plan_zs671019uwqvg-fill-merged" stroke="none" fill="#ffffff" fill-opacity="1"><g><path d="M56 28C57.105 28 58 27.105 58 26 V19C58 17.343 56.657 16 55 16 H44C43.448 16 43 15.552 43 15 V13C43 11.343 41.657 10 40 10 H19C17.343 10 16 11.343 16 13 V28C16 28.552 15.552 29 15 29 H13C11.343 29 10 30.343 10 32 V55C10 56.657 11.343 58 13 58 H34C35.657 58 37 56.657 37 55 V52C37 51.448 37.448 51 38 51 H55C56.657 51 58 49.657 58 48 V34C58 32.895 57.105 32 56 32C54.216 32.001 52.568 31.047 51.68 29.5C51.488 29.193 51.48 28.806 51.66 28.492C51.84 28.178 52.178 27.989 52.54 28 H56 M21.5 47.5C21.5 48.052 21.052 48.5 20.5 48.5 H15C14.448 48.5 14 48.052 14 47.5 V46.5C14 45.948 14.448 45.5 15 45.5 H20.5C21.052 45.5 21.5 45.948 21.5 46.5 V47.5 M14 52.5C14 51.948 14.448 51.5 15 51.5 H20.5C21.052 51.5 21.5 51.948 21.5 52.5 V53C21.5 53.552 21.052 54 20.5 54 H15C14.448 54 14 53.552 14 53 V52.5 M33 53C33 53.552 32.552 54 32 54 H25.5C24.948 54 24.5 53.552 24.5 53 V44C24.489 43.176 23.824 42.511 23 42.5 H15C14.448 42.5 14 42.052 14 41.5 V34C14 33.448 14.448 33 15 33 H22.5C23.605 33 24.5 32.105 24.5 31C24.5 29.895 23.605 29 22.5 29 H21C20.448 29 20 28.552 20 28 V15C20 14.448 20.448 14 21 14 H38C38.552 14 39 14.448 39 15 V28C39 28.552 38.552 29 38 29 H29.5C28.395 29 27.5 29.895 27.5 31C27.5 32.105 28.395 33 29.5 33 H32C32.552 33 33 33.448 33 34 V36C33 37.105 33.895 38 35 38C36.139 38.002 37.223 38.489 37.98 39.34C38.239 39.63 38.302 40.046 38.14 40.4C37.983 40.759 37.632 40.994 37.24 41 H35C33.895 41 33 41.895 33 43 V53 M54 23C54 23.552 53.552 24 53 24 H49C47.895 24 47 24.895 47 26 V27C47.009 30.926 49.556 34.396 53.3 35.58C53.719 35.712 54.003 36.101 54 36.54 V46C54 46.552 53.552 47 53 47 H38C37.448 47 37 46.552 37 46C37 45.448 37.448 45 38 45 H41C42.105 45 43 44.105 43 43 V42C42.997 38.439 40.641 35.308 37.22 34.32C37.083 34.275 36.993 34.144 37 34C37 33.448 37.448 33 38 33 H41C42.105 33 43 32.105 43 31 V21C43 20.448 43.448 20 44 20 H53C53.552 20 54 20.448 54 21 V23"></path></g></g></g><g id="g-root-ic_3_1hgyb6c19uzls6-fill" data-item-order="-2304" transform="translate(362, 410)"><g id="ic_3_1hgyb6c19uzls6-fill-merged" stroke="none" fill="#ffffff" fill-opacity="1"><g><path d="M43.5 31.08L43.18 30.38 H24.82L21.8 37.2 H33.68C36.006 33.932 39.542 31.729 43.5 31.08 M26.22 19.88 H16.68L11.66 45C11.56 45.42 11.639 45.863 11.877 46.224C12.116 46.584 12.494 46.829 12.92 46.9 H13.18C13.345 46.93 13.515 46.93 13.68 46.9L14 46.7L14.18 46.56C14.58 46.22 13.8 47.78 26.22 19.88 M46.7 30.92C49.081 31.038 51.398 31.724 53.46 32.92L50.84 19.88 H41.78L46.7 30.92 M57.88 46C57.88 39.373 52.507 34 45.88 34C39.253 34 33.88 39.373 33.88 46C33.88 52.627 39.253 58 45.88 58C52.507 58 57.88 52.627 57.88 46 M41.88 51.12L38.94 48C38.369 47.511 38.121 46.744 38.296 46.013C38.472 45.283 39.043 44.712 39.773 44.536C40.504 44.361 41.271 44.609 41.76 45.18L44.36 47.76L49.82 40.48C50.483 39.596 51.736 39.417 52.62 40.08C53.504 40.743 53.683 41.996 53.02 42.88L47.22 50.62C46.615 51.417 45.698 51.917 44.7 51.993C43.702 52.07 42.719 51.715 42 51.02L41.88 51.12 M54.26 16.88C56.031 16.744 57.399 15.267 57.399 13.49C57.399 11.713 56.031 10.236 54.26 10.1 H13.5C11.729 10.236 10.361 11.713 10.361 13.49C10.361 15.267 11.729 16.744 13.5 16.88 H54.26"></path></g></g></g><g id="g-root-tx_interior_4o6pzo19uwsne-fill" data-item-order="0" transform="translate(242, 38)"><g id="tx_interior_4o6pzo19uwsne-fill-merged" stroke="none" fill="#484848" fill-opacity="1"><g><text style="font: bold 25px Roboto, sans-serif; white-space: pre;" transform="translate(154, 28)" font-weight="bold" font-size="25px" font-family="Roboto, sans-serif"><tspan x="-140.2" y="15" dominant-baseline="ideographic">Spatial Design Principles</tspan></text></g></g></g><g id="g-root-tx_technolo_meu9ec19uzmkj-fill" data-item-order="0" transform="translate(50, 98)"><g id="tx_technolo_meu9ec19uzmkj-fill-merged" stroke="none" fill="#92bd39" fill-opacity="1"><g><text style="font: bold 20px Roboto, sans-serif; white-space: pre;" transform="translate(118, 34)" font-weight="bold" font-size="20px" font-family="Roboto, sans-serif"><tspan x="-106.5" y="-0" dominant-baseline="ideographic">Technology </tspan><tspan x="-100.32" y="24" dominant-baseline="ideographic">Integration</tspan></text></g></g></g><g id="g-root-tx_spatiall_1lpwlck19v10qy-fill" data-item-order="0" transform="translate(614, 110)"><g id="tx_spatiall_1lpwlck19v10qy-fill-merged" stroke="none" fill="#1eabda" fill-opacity="1"><g><text style="font: bold 20px Roboto, sans-serif; white-space: pre;" transform="translate(10, 22)" font-weight="bold" font-size="20px" font-family="Roboto, sans-serif"><tspan x="2" y="12" dominant-baseline="ideographic">Spatial Layout</tspan></text></g></g></g><g id="g-root-tx_enhances_1hitqfo19uzksl-fill" data-item-order="0" transform="translate(14, 158)"><g id="tx_enhances_1hitqfo19uzksl-fill-merged" stroke="none" fill="#484848" fill-opacity="1"><g><text style="font: 15px Roboto, sans-serif; white-space: pre;" transform="translate(154, 58)" font-size="15px" font-family="Roboto, sans-serif"><tspan x="-91.91" y="-27" dominant-baseline="ideographic">Enhances the </tspan><tspan x="-124.1" y="-9" dominant-baseline="ideographic">interior with smart </tspan><tspan x="-79.86" y="9" dominant-baseline="ideographic">lighting and </tspan><tspan x="-134.48" y="27" dominant-baseline="ideographic">responsive systems </tspan><tspan x="-91.19" y="45" dominant-baseline="ideographic">for efficiency.</tspan></text></g></g></g><g id="g-root-tx_focuseso_18f2k2c19v0z63-fill" data-item-order="0" transform="translate(614, 146)"><g id="tx_focuseso_18f2k2c19v0z63-fill-merged" stroke="none" fill="#484848" fill-opacity="1"><g><text style="font: 15px Roboto, sans-serif; white-space: pre;" transform="translate(10, 58)" font-size="15px" font-family="Roboto, sans-serif"><tspan x="2" y="-27" dominant-baseline="ideographic">Focuses on the </tspan><tspan x="2" y="-9" dominant-baseline="ideographic">arrangement of </tspan><tspan x="2" y="9" dominant-baseline="ideographic">spaces to maximize </tspan><tspan x="2" y="27" dominant-baseline="ideographic">comfort and </tspan><tspan x="2" y="45" dominant-baseline="ideographic">functionality.</tspan></text></g></g></g><g id="g-root-tx_interior_1lyn8k419uwrnn-fill" data-item-order="0" transform="translate(314, 278)"><g id="tx_interior_1lyn8k419uwrnn-fill-merged" stroke="none" fill="#ffffff" fill-opacity="1"><g><text style="font: bold 20px Roboto, sans-serif; white-space: pre;" transform="translate(82, 22)" font-weight="bold" font-size="20px" font-family="Roboto, sans-serif"><tspan x="-66.42" y="12" dominant-baseline="ideographic">Interior Design</tspan></text></g></g></g><g id="g-root-tx_furnitur_mgpono19uzlkw-fill" data-item-order="0" transform="translate(338, 518)"><g id="tx_furnitur_mgpono19uzlkw-fill-merged" stroke="none" fill="#3cc583" fill-opacity="1"><g><text style="font: bold 20px Roboto, sans-serif; white-space: pre;" transform="translate(58, 34)" font-weight="bold" font-size="20px" font-family="Roboto, sans-serif"><tspan x="-40.85" y="-0" dominant-baseline="ideographic">Furniture </tspan><tspan x="-46.25" y="24" dominant-baseline="ideographic">Anchoring</tspan></text></g></g></g><g id="g-root-tx_ensuress_91qs19v0zd5-fill" data-item-order="0" transform="translate(314, 578)"><g id="tx_ensuress_91qs19v0zd5-fill-merged" stroke="none" fill="#484848" fill-opacity="1"><g><text style="font: 15px Roboto, sans-serif; white-space: pre;" transform="translate(82, 58)" font-size="15px" font-family="Roboto, sans-serif"><tspan x="-59.98" y="-27" dominant-baseline="ideographic">Ensures safety by </tspan><tspan x="-68.65" y="-9" dominant-baseline="ideographic">securing furniture to </tspan><tspan x="-66.97" y="9" dominant-baseline="ideographic">the floor, preventing </tspan><tspan x="-59.81" y="27" dominant-baseline="ideographic">movement during </tspan><tspan x="-20.22" y="45" dominant-baseline="ideographic">flight.</tspan></text></g></g></g><g id="g-root-cp_0_g-0_meu9ec19uwtfy-stroke" data-item-order="-473174" transform="translate(278, 158)"><g id="cp_0_g-0_meu9ec19uwtfy-stroke" fill="none" stroke-linecap="round" stroke-linejoin="round" stroke-miterlimit="4" stroke="#ffffff" stroke-width="2" stroke-opacity="1"><g><path d="M 226 118C 226 177.6468 177.6468 226 118 226C 58.3532 226 10 177.6468 10 118C 10 58.3532 58.3532 10 118 10C 177.6468 10 226 58.3532 226 118Z"></path></g></g></g><g id="g-root-cp_3_g-3_meu9ec19uwtfz-stroke" data-item-order="-473170" transform="translate(177, 110)"><g id="cp_3_g-3_meu9ec19uwtfz-stroke" fill="none" stroke-linecap="round" stroke-linejoin="round" stroke-miterlimit="4" stroke="#ffffff" stroke-width="2" stroke-opacity="1"><g><path d="M 111 166C 111 122.4705 136.7525 84.9558 173.8532 67.8603C 162.8634 34.2668 131.2656 10 94 10C 47.6081 10 10 47.6081 10 94C 10 140.3919 47.6081 178 94 178C 99.9917 178 105.8369 177.3727 111.4735 176.1801C 111.1602 172.8289 111 169.4331 111 166ZM 111 165.999075C 111 122.469575 136.7525 84.954875 173.8532 67.859375C 176.5446 76.086375 178 84.872775 178 93.999075C 178 134.399275 149.4791 168.138075 111.4735 176.179175C 111.1602 172.827975 111 169.432275 111 165.999075Z"></path></g></g></g><g id="g-root-cp_2_g-2_hzn8d019uwr2g-stroke" data-item-order="-473164" transform="translate(302, 326)"><g id="cp_2_g-2_hzn8d019uwr2g-stroke" fill="none" stroke-linecap="round" stroke-linejoin="round" stroke-miterlimit="4" stroke="#ffffff" stroke-width="2" stroke-opacity="1"><g><path d="M 94 58.00002C 117.342 58.00002 138.9544 50.59492 156.6163 38.00592C 169.9142 52.86642 178 72.48892 178 94.00002C 178 140.39192 140.3919 178.00002 94 178.00002C 47.6081 178.00002 10 140.39192 10 94.00002C 10 72.48892 18.0858 52.86642 31.3837 38.00592C 49.0456 50.59492 70.658 58.00002 94 58.00002ZM 94.000028 58C 117.341928 58 138.954428 50.595 156.616228 38.0059C 141.235128 20.8175 118.880828 10 94.000028 10C 69.119128 10 46.764828 20.8175 31.383728 38.0059C 49.045628 50.595 70.658028 58 94.000028 58Z"></path></g></g></g><g id="g-root-cp_1_g-1_djtq8k19uwrup-stroke" data-item-order="-473158" transform="translate(425, 110)"><g id="cp_1_g-1_djtq8k19uwrup-stroke" fill="none" stroke-linecap="round" stroke-linejoin="round" stroke-miterlimit="4" stroke="#ffffff" stroke-width="2" stroke-opacity="1"><g><path d="M 79.000042 166C 79.000042 121.7934 52.440042 83.7901 14.407242 67.0773C 25.628942 33.8904 57.024542 10 94.000042 10C 140.391942 10 178.000042 47.6081 178.000042 94C 178.000042 140.3919 140.391942 178 94.000042 178C 88.700842 178 83.516242 177.5093 78.489242 176.5709C 78.827142 173.0929 79.000042 169.5666 79.000042 166ZM 79 166.000825C 79 121.794125 52.4401 83.790925 14.4072 67.078125C 11.5494 75.529725 10 84.584325 10 94.000825C 10 135.093525 39.5071 169.294525 78.4893 176.571625C 78.8271 173.093725 79 169.567425 79 166.000825Z"></path></g></g></g><g id="g-root-ic_13_v3m1p019uzmkt-stroke" data-item-order="-2304" transform="translate(218, 152)"></g><g id="g-root-ic_plan_zs671019uwqvg-stroke" data-item-order="-2304" transform="translate(506, 152)"></g><g id="g-root-ic_3_1hgyb6c19uzls6-stroke" data-item-order="-2304" transform="translate(362, 410)"></g><g id="g-root-tx_interior_4o6pzo19uwsne-stroke" data-item-order="0" transform="translate(242, 38)"></g><g id="g-root-tx_technolo_meu9ec19uzmkj-stroke" data-item-order="0" transform="translate(50, 98)"></g><g id="g-root-tx_spatiall_1lpwlck19v10qy-stroke" data-item-order="0" transform="translate(614, 110)"></g><g id="g-root-tx_enhances_1hitqfo19uzksl-stroke" data-item-order="0" transform="translate(14, 158)"></g><g id="g-root-tx_focuseso_18f2k2c19v0z63-stroke" data-item-order="0" transform="translate(614, 146)"></g><g id="g-root-tx_interior_1lyn8k419uwrnn-stroke" data-item-order="0" transform="translate(314, 278)"></g><g id="g-root-tx_furnitur_mgpono19uzlkw-stroke" data-item-order="0" transform="translate(338, 518)"></g><g id="g-root-tx_ensuress_91qs19v0zd5-stroke" data-item-order="0" transform="translate(314, 578)"></g></g></g></svg>