<?xml version="1.0" encoding="utf-8" standalone="yes"?>
<!DOCTYPE svg PUBLIC "-//W3C//DTD SVG 1.1//EN" "http://www.w3.org/Graphics/SVG/1.1/DTD/svg11.dtd">
<svg style="fill:none;stroke:none;fill-rule:evenodd;clip-rule:evenodd;stroke-linecap:round;stroke-linejoin:round;stroke-miterlimit:1.5;" version="1.1" xmlns="http://www.w3.org/2000/svg" xmlns:xlink="http://www.w3.org/1999/xlink" width="914" height="828" viewBox="0 0 914 828"><style class="text-font-style fontImports" data-font-family="Roboto">@import url(https://fonts.googleapis.com/css2?family=Roboto:wght@400;700&amp;amp;display=block);</style><g id="items" style="isolation: isolate"><g id="blend" style="mix-blend-mode: normal"><g id="g-root-sy_4_cu_90979g1aozsi4-fill" data-item-order="-535956" transform="translate(14, 158)"></g><g id="g-root-sy_4_cu_1_4kfp501aoztad-fill" data-item-order="-535955" transform="translate(314, 152.00006103515625)"><g id="sy_4_cu_1_4kfp501aoztad-fill-merged" stroke="none" fill="#e0cb15" fill-opacity="1"><g><path d="M14.247 281.744C8.584 287.407 8.584 296.588 14.247 302.251L86.146 374.148C80.585 368.477 80.618 359.372 86.247 353.743L281.743 158.247C287.406 152.584 296.587 152.584 302.25 158.247L497.741 353.744C503.403 359.406 503.403 368.587 497.741 374.25L569.741 302.251C575.403 296.588 575.404 287.407 569.741 281.745L302.251 14.247C296.588 8.584 287.407 8.584 281.745 14.247L14.247 281.744"></path></g></g></g><g id="g-root-sy_3_cu_4kfp501aoztae-fill" data-item-order="-535950" transform="translate(14, 302)"></g><g id="g-root-sy_3_cu_1_1uqj7yc1aozqq7-fill" data-item-order="-535949" transform="translate(385.9999694824219, 296.00006103515625)"><g id="sy_3_cu_1_1uqj7yc1aozqq7-fill-merged" stroke="none" fill="#1eabda" fill-opacity="1"><g><path d="M14.247 209.743C8.584 215.406 8.584 224.587 14.247 230.25L86.147 302.148C80.585 296.477 80.618 287.372 86.247 281.742L209.743 158.247C215.405 152.584 224.586 152.584 230.249 158.247L353.741 281.743C359.404 287.405 359.403 296.586 353.741 302.249L425.741 230.25C431.403 224.587 431.403 215.406 425.741 209.744L230.25 14.247C224.587 8.584 215.406 8.584 209.744 14.247L14.247 209.743"></path></g></g></g><g id="g-root-sy_2_cu_1qapptw1aozrig-fill" data-item-order="-535944" transform="translate(14, 445.99993896484375)"></g><g id="g-root-sy_2_cu_1_1luw7pg1aozsap-fill" data-item-order="-535943" transform="translate(458.0000305175781, 440.00006103515625)"><g id="sy_2_cu_1_1luw7pg1aozsap-fill-merged" stroke="none" fill="#3cc583" fill-opacity="1"><g><path d="M14.247 137.742C8.584 143.405 8.584 152.586 14.247 158.249L86.236 230.236C80.584 224.572 80.588 215.399 86.247 209.741L137.741 158.247C143.403 152.584 152.584 152.584 158.247 158.247L209.739 209.741C215.401 215.403 215.401 224.584 209.739 230.247C100.076 339.91 237.619 202.37 281.741 158.249C287.403 152.586 287.403 143.405 281.741 137.743L158.249 14.247C152.586 8.584 143.405 8.584 137.742 14.247L14.247 137.742"></path></g></g></g><g id="g-root-sy_1_cu_1cz97gk1aozt3e-fill" data-item-order="-535938" transform="translate(14, 589.9999389648438)"></g><g id="g-root-sy_1_cu_1_18k26f81aozqpv-fill" data-item-order="-535937" transform="translate(530, 583.9999389648438)"><g id="sy_1_cu_1_18k26f81aozqpv-fill-merged" stroke="none" fill="#92bd39" fill-opacity="1"><g><path d="M14.247 86.247C8.584 80.584 8.584 71.403 14.247 65.741L65.741 14.247C71.403 8.584 80.584 8.584 86.247 14.247L137.739 65.741C143.402 71.403 143.402 80.584 137.739 86.247L86.247 137.739C80.584 143.401 71.403 143.402 65.741 137.739L14.247 86.247"></path></g></g></g><g id="g-root-ic_2_1htl01ap6rrc-fill" data-item-order="-2304" transform="translate(572, 206.00006103515625)"><g id="ic_2_1htl01ap6rrc-fill-merged" stroke="none" fill="#ffffff" fill-opacity="1"><g><path d="M17.139 18.639 V15.359C17.139 14.531 16.468 13.86 15.639 13.86C14.811 13.86 14.14 14.531 14.14 15.359 V18.639C12.32 19.279 11.62 21.279 11.62 24.498 H19.739C19.739 21.279 19.039 19.279 17.139 18.639 M11.62 26.858 H19.759 V58.055 H11.62 V26.858 M22.659 37.777 V57.995 H32.398 V50.976C32.398 45.536 39.517 42.797 39.517 42.797C39.517 42.797 46.636 45.536 46.636 50.976 V57.995 H56.375 V37.777 H22.659 M52.736 30.998 H26.298L25.298 35.657 H53.756L52.736 30.998 M52.696 28.878C52.706 28.672 52.706 28.465 52.696 28.258C52.696 22.259 45.656 20.119 41.637 18.639C43.116 17.854 44.04 16.314 44.037 14.639C44.037 13.811 43.365 13.14 42.537 13.14C41.708 13.14 41.037 13.811 41.037 14.639C41.105 15.235 40.825 15.817 40.317 16.136C39.81 16.455 39.164 16.455 38.657 16.136C38.149 15.817 37.869 15.235 37.937 14.639C37.937 13.789 38.627 13.1 39.477 13.1C40.305 13.1 40.977 12.428 40.977 11.6C40.982 11.2 40.826 10.816 40.544 10.533C40.261 10.251 39.876 10.094 39.477 10.1C37.392 10.084 35.566 11.496 35.058 13.518C34.55 15.541 35.492 17.648 37.337 18.619C33.338 20.099 26.258 22.279 26.258 28.238 V28.858 H52.696"></path></g></g></g><g id="g-root-ic_tech_140hts41ap5e69-fill" data-item-order="-2304" transform="translate(572, 350.00787353515625)"><g id="ic_tech_140hts41ap5e69-fill-merged" stroke="none" fill="#ffffff" fill-opacity="1"><g><path d="M47.996 47.996C47.756 47.949 47.581 47.741 47.576 47.496 V42.997C47.576 41.892 46.681 40.997 45.576 40.997C44.472 40.997 43.577 41.892 43.577 42.997 V47.496C43.577 47.772 43.353 47.996 43.077 47.996 H25.998C25.722 47.996 25.498 47.772 25.498 47.496 V42.997C25.498 41.892 24.603 40.997 23.499 40.997C22.394 40.997 21.499 41.892 21.499 42.997 V47.536C21.494 47.781 21.319 47.989 21.079 48.036C19.603 48.245 18.504 49.505 18.499 50.996 V54.995C18.499 56.652 19.842 57.995 21.499 57.995 H47.496C49.153 57.995 50.496 56.652 50.496 54.995 V50.996C50.517 49.516 49.455 48.243 47.996 47.996 M34.498 52.996C34.498 54.1 33.602 54.995 32.498 54.995C31.393 54.995 30.498 54.1 30.498 52.996C30.498 51.891 31.393 50.996 32.498 50.996C33.602 50.996 34.498 51.891 34.498 52.996 M25.498 50.996C26.603 50.996 27.498 51.891 27.498 52.996C27.498 54.1 26.603 54.995 25.498 54.995C24.394 54.995 23.499 54.1 23.499 52.996C23.499 51.891 24.394 50.996 25.498 50.996 M25.618 36.237C25.912 36.681 26.37 36.99 26.892 37.095C27.414 37.2 27.956 37.093 28.398 36.797C32.105 34.378 36.891 34.378 40.597 36.797C41.039 37.093 41.581 37.2 42.103 37.095C42.625 36.99 43.083 36.681 43.377 36.237C43.979 35.32 43.729 34.088 42.817 33.478C37.762 30.177 31.234 30.177 26.178 33.478C25.266 34.088 25.016 35.32 25.618 36.237 M28.398 39.477C27.476 40.09 27.225 41.335 27.838 42.257C28.451 43.179 29.696 43.43 30.618 42.817C32.976 41.278 36.02 41.278 38.377 42.817C38.71 43.032 39.1 43.143 39.497 43.137C40.162 43.138 40.784 42.808 41.157 42.257C41.453 41.814 41.56 41.272 41.455 40.75C41.35 40.229 41.041 39.77 40.597 39.477C36.891 37.058 32.105 37.058 28.398 39.477 M57.495 14C57.495 11.791 55.705 10 53.496 10 H47.496C45.287 10 43.497 11.791 43.497 14 V26.998C43.497 29.207 45.287 30.998 47.496 30.998 H53.496C55.705 30.998 57.495 29.207 57.495 26.998 V14 M52.996 14C53.272 14 53.496 14.223 53.496 14.499 V26.498C53.496 26.774 53.272 26.998 52.996 26.998 H47.996C47.72 26.998 47.496 26.774 47.496 26.498 V14.499C47.496 14.223 47.72 14 47.996 14 H52.996 M10.5 14 V20.999C10.5 23.208 12.291 24.998 14.5 24.998 H17.999C18.275 24.998 18.499 25.222 18.499 25.498 V26.498C18.499 26.774 18.275 26.998 17.999 26.998 H15.999C14.895 26.998 14 27.894 14 28.998C14 30.102 14.895 30.998 15.999 30.998 H24.998C26.103 30.998 26.998 30.102 26.998 28.998C26.998 27.894 26.103 26.998 24.998 26.998 H22.999C22.723 26.998 22.499 26.774 22.499 26.498 V25.498C22.499 25.222 22.723 24.998 22.999 24.998 H26.498C28.707 24.998 30.498 23.208 30.498 20.999 V14C30.498 11.791 28.707 10 26.498 10 H14.5C12.291 10 10.5 11.791 10.5 14 M26.498 20.499C26.504 20.633 26.453 20.764 26.358 20.859C26.258 20.945 26.131 20.995 25.998 20.999 H14.999C14.723 20.999 14.5 20.775 14.5 20.499 V14.499C14.5 14.223 14.723 14 14.999 14 H25.998C26.275 14 26.498 14.223 26.498 14.499 V20.499"></path></g></g></g><g id="g-root-ic_1_1uonsp01ap3z0i-fill" data-item-order="-2304" transform="translate(572, 494.00775146484375)"><g id="ic_1_1uonsp01ap3z0i-fill-merged" stroke="none" fill="#ffffff" fill-opacity="1"><g><path d="M53.872 30.47C52.644 32.764 50.746 34.73 48.5 36.265C44.501 39.001 39.145 40.597 33.374 40.597C27.6 40.597 22.243 39.001 18.245 36.265C15.885 34.65 13.91 32.562 12.692 30.116C12.58 30.666 12.608 31.332 12.774 31.998C13.14 33.092 13.8 34.868 14.968 36.811C17.799 40.873 23.363 46.12 32.248 46.12C33.076 46.12 33.748 46.792 33.748 47.62C33.748 48.449 33.076 49.12 32.248 49.12C24.099 49.12 18.405 45.268 14.83 41.405L14.372 43.597C14.372 50.796 22.971 56.595 33.37 56.595C43.769 56.595 52.368 50.796 52.368 43.597 V43.211C49.944 45.516 46.378 47.622 41.495 47.622C40.666 47.622 39.995 46.951 39.995 46.122C39.995 45.294 40.666 44.623 41.495 44.623C45.95 44.623 49.044 42.473 51.074 40.249C52.18 39.029 53.106 37.657 53.826 36.175 V30.47 M52.372 24.599C52.372 31.778 43.865 37.597 33.374 37.597C22.881 37.597 14.376 31.778 14.376 24.599C14.376 17.419 22.879 11.6 33.374 11.6C43.865 11.6 52.372 17.419 52.372 24.599 M27.374 21.099C25.402 21.099 23.875 22.627 23.875 24.599C23.875 26.57 25.402 28.098 27.374 28.098C28.472 28.098 29.954 27.64 31.342 26.906C31.027 26.178 30.867 25.392 30.872 24.599C30.872 23.739 31.072 22.927 31.426 22.201C30.054 21.453 28.44 21.099 27.372 21.099 M27.374 31.098C29.294 31.098 31.514 30.294 33.336 29.23C34.212 29.79 35.261 30.098 36.371 30.098 H40.371C43.405 30.091 45.864 27.633 45.87 24.599C45.864 21.564 43.405 19.106 40.371 19.099 H36.371C35.347 19.098 34.343 19.386 33.474 19.929C31.476 18.655 29.042 18.099 27.374 18.099C25.647 18.086 23.986 18.767 22.764 19.989C21.543 21.21 20.862 22.871 20.875 24.599C20.862 26.326 21.543 27.987 22.764 29.209C23.986 30.43 25.647 31.111 27.374 31.098 M36.373 22.099C35.001 22.099 33.874 23.227 33.874 24.599C33.874 26.12 34.951 27.098 36.373 27.098 H40.373C41.743 27.098 42.873 25.97 42.873 24.599C42.873 23.227 41.743 22.099 40.373 22.099 H36.373"></path></g></g></g><g id="g-root-ic_imme_dl2i2s1aozrwt-fill" data-item-order="-2304" transform="translate(572, 625.9999389648438)"><g id="ic_imme_dl2i2s1aozrwt-fill-merged" stroke="none" fill="#ffffff" fill-opacity="1"><g><path d="M47.436 11.472C38.535 12.566 29.533 12.566 20.631 11.472C19.917 11.375 19.205 11.669 18.769 12.243C18.333 12.817 18.239 13.581 18.524 14.244C18.809 14.906 19.428 15.364 20.145 15.441C29.369 16.575 38.698 16.575 47.922 15.441C49.006 15.294 49.77 14.303 49.637 13.217C49.505 12.131 48.524 11.354 47.436 11.472 M52.75 10.718C51.659 10.89 50.914 11.914 51.086 13.006C51.258 14.097 52.282 14.842 53.374 14.67C54.294 14.524 55.213 14.368 56.133 14.2C57.22 14.001 57.94 12.959 57.741 11.872C57.542 10.785 56.5 10.065 55.413 10.264C54.527 10.426 53.639 10.577 52.75 10.718 M14.622 14.652C15.335 14.781 16.063 14.514 16.523 13.953C16.984 13.393 17.104 12.627 16.839 11.952C16.574 11.277 15.964 10.799 15.245 10.702C14.355 10.56 13.467 10.409 12.58 10.248C11.516 10.096 10.522 10.811 10.329 11.868C10.136 12.925 10.813 13.946 11.862 14.18C12.782 14.348 13.702 14.504 14.622 14.65 M22.693 56.275C23.792 56.16 24.589 55.177 24.475 54.078C24.36 52.979 23.376 52.181 22.277 52.296C21.583 52.369 20.889 52.448 20.197 52.534C19.48 52.612 18.861 53.069 18.576 53.731C18.291 54.394 18.385 55.158 18.821 55.732C19.257 56.306 19.969 56.601 20.683 56.503C21.353 56.421 22.023 56.343 22.693 56.275 M45.816 52.296C44.717 52.181 43.733 52.979 43.619 54.078C43.504 55.177 44.302 56.16 45.4 56.275C46.07 56.345 46.74 56.421 47.41 56.503C48.122 56.596 48.83 56.301 49.263 55.728C49.697 55.156 49.791 54.395 49.508 53.735C49.226 53.074 48.612 52.616 47.898 52.534C47.205 52.449 46.511 52.37 45.816 52.298 M53.384 53.324C52.304 53.173 51.303 53.915 51.133 54.991C50.962 56.068 51.685 57.083 52.758 57.273C53.642 57.413 54.528 57.565 55.413 57.727C56.489 57.904 57.509 57.186 57.705 56.114C57.901 55.041 57.202 54.009 56.133 53.794C55.219 53.626 54.302 53.469 53.384 53.324 M15.253 57.293C16.326 57.103 17.049 56.088 16.879 55.011C16.708 53.935 15.707 53.193 14.628 53.344C13.708 53.49 12.792 53.646 11.876 53.814C10.807 54.029 10.108 55.061 10.304 56.134C10.501 57.206 11.52 57.924 12.596 57.747C13.482 57.587 14.368 57.435 15.253 57.293 M38.497 26.088C38.531 27.706 37.688 29.215 36.293 30.034C34.897 30.853 33.168 30.853 31.773 30.034C30.377 29.215 29.534 27.706 29.568 26.088C29.619 23.659 31.603 21.717 34.033 21.717C36.462 21.717 38.446 23.659 38.497 26.088 M39.115 37.979 V43.661C39.115 43.819 39.101 43.971 39.075 44.121L40.757 52.746C40.999 54.004 40.175 55.221 38.916 55.462C37.658 55.704 36.441 54.88 36.199 53.622L34.828 46.372 H33.24L31.866 53.622C31.624 54.88 30.408 55.704 29.149 55.462C27.891 55.221 27.066 54.004 27.308 52.746L28.988 44.121C28.962 43.969 28.95 43.815 28.95 43.661 V37.981C28.742 37.967 28.53 37.957 28.318 37.945C26.22 37.831 24.011 37.711 21.927 37.265C20.647 36.993 20.021 35.617 20.481 34.392C20.941 33.166 22.311 32.552 23.593 32.82C26.472 33.422 29.696 33.4 32.59 33.382C33.552 33.375 34.515 33.375 35.477 33.382C38.369 33.402 41.593 33.422 44.473 32.822C45.754 32.552 47.124 33.166 47.584 34.392C48.044 35.617 47.42 36.991 46.14 37.267C44.055 37.711 41.845 37.831 39.747 37.947 H39.115"></path></g></g></g><g id="g-root-tx_nimbusho_18k26f81aozqpw-fill" data-item-order="0" transform="translate(277.4999694824219, 38)"><g id="tx_nimbusho_18k26f81aozqpw-fill-merged" stroke="none" fill="#484848" fill-opacity="1"><g><text style="font: bold 25px Roboto, sans-serif; white-space: pre;" transform="translate(178, 28)" font-weight="bold" font-size="25px" font-family="Roboto, sans-serif"><tspan x="-161.02" y="15" dominant-baseline="ideographic">NIMBUS Hospitality Concept</tspan></text></g></g></g><g id="g-root-tx_uniquelo_1hgy4uc1aozrbi-fill" data-item-order="0" transform="translate(38, 182)"><g id="tx_uniquelo_1hgy4uc1aozrbi-fill-merged" stroke="none" fill="#e0cb15" fill-opacity="1"><g><text style="font: bold 20px Roboto, sans-serif; white-space: pre;" transform="translate(10, 22)" font-weight="bold" font-size="20px" font-family="Roboto, sans-serif"><tspan x="2" y="12" dominant-baseline="ideographic">Unique Location</tspan></text></g></g></g><g id="g-root-tx_skiesofn_924mis1aozril-fill" data-item-order="0" transform="translate(38, 218)"><g id="tx_skiesofn_924mis1aozril-fill-merged" stroke="none" fill="#484848" fill-opacity="1"><g><text style="font: 15px Roboto, sans-serif; white-space: pre;" transform="translate(10, 22)" font-size="15px" font-family="Roboto, sans-serif"><tspan x="2" y="9" dominant-baseline="ideographic">Skies of NEOM, Saudi Arabia</tspan></text></g></g></g><g id="g-root-tx_technolo_meu32c1aozs3s-fill" data-item-order="0" transform="translate(38, 326)"><g id="tx_technolo_meu32c1aozs3s-fill-merged" stroke="none" fill="#1eabda" fill-opacity="1"><g><text style="font: bold 20px Roboto, sans-serif; white-space: pre;" transform="translate(10, 22)" font-weight="bold" font-size="20px" font-family="Roboto, sans-serif"><tspan x="2" y="12" dominant-baseline="ideographic">Technological Innovation</tspan></text></g></g></g><g id="g-root-tx_3dprinte_145hmh01aozswf-fill" data-item-order="0" transform="translate(38, 362)"><g id="tx_3dprinte_145hmh01aozswf-fill-merged" stroke="none" fill="#484848" fill-opacity="1"><g><text style="font: 15px Roboto, sans-serif; white-space: pre;" transform="translate(10, 22)" font-size="15px" font-family="Roboto, sans-serif"><tspan x="2" y="9" dominant-baseline="ideographic">3D-printed and anchored furniture</tspan></text></g></g></g><g id="g-root-tx_sustaina_1qdu39g1aozsoy-fill" data-item-order="0" transform="translate(38, 469.99993896484375)"><g id="tx_sustaina_1qdu39g1aozsoy-fill-merged" stroke="none" fill="#3cc583" fill-opacity="1"><g><text style="font: bold 20px Roboto, sans-serif; white-space: pre;" transform="translate(10, 22)" font-weight="bold" font-size="20px" font-family="Roboto, sans-serif"><tspan x="2" y="12" dominant-baseline="ideographic">Sustainable Design</tspan></text></g></g></g><g id="g-root-tx_carbonne_9401s41aozqix-fill" data-item-order="0" transform="translate(38, 505.99993896484375)"><g id="tx_carbonne_9401s41aozqix-fill-merged" stroke="none" fill="#484848" fill-opacity="1"><g><text style="font: 15px Roboto, sans-serif; white-space: pre;" transform="translate(10, 22)" font-size="15px" font-family="Roboto, sans-serif"><tspan x="2" y="9" dominant-baseline="ideographic">Carbon-neutral and lightweight structure</tspan></text></g></g></g><g id="g-root-tx_immersiv_qwj0g41aozqbw-fill" data-item-order="0" transform="translate(38, 613.9999389648438)"><g id="tx_immersiv_qwj0g41aozqbw-fill-merged" stroke="none" fill="#92bd39" fill-opacity="1"><g><text style="font: bold 20px Roboto, sans-serif; white-space: pre;" transform="translate(10, 22)" font-weight="bold" font-size="20px" font-family="Roboto, sans-serif"><tspan x="2" y="12" dominant-baseline="ideographic">Immersive Hospitality</tspan></text></g></g></g><g id="g-root-tx_coreexpe_1d301z81aozr43-fill" data-item-order="0" transform="translate(38, 649.9999389648438)"><g id="tx_coreexpe_1d301z81aozr43-fill-merged" stroke="none" fill="#484848" fill-opacity="1"><g><text style="font: 15px Roboto, sans-serif; white-space: pre;" transform="translate(10, 28)" font-size="15px" font-family="Roboto, sans-serif"><tspan x="2" y="0" dominant-baseline="ideographic">Core experience of luxury and </tspan><tspan x="2" y="18" dominant-baseline="ideographic">sustainability</tspan></text></g></g></g><g id="g-root-sy_4_cu_90979g1aozsi4-stroke" data-item-order="-535956" transform="translate(14, 158)"><g id="sy_4_cu_90979g1aozsi4-stroke" fill="none" stroke-linecap="round" stroke-linejoin="round" stroke-miterlimit="4" stroke="#e0cb15" stroke-width="2" stroke-opacity="1"><g><path d="M 579.9915 10L 24.5 10C 16.4919 10 10 16.4919 10 24.5L 10 115.5C 10 123.5081 16.4919 130 24.5 130L 459.9915 130"></path></g></g></g><g id="g-root-sy_4_cu_1_4kfp501aoztad-stroke" data-item-order="-535955" transform="translate(314, 152.00006103515625)"><g id="sy_4_cu_1_4kfp501aoztad-stroke" fill="none" stroke-linecap="round" stroke-linejoin="round" stroke-miterlimit="4" stroke="#ffffff" stroke-width="2" stroke-opacity="1"><g><path d="M 14.247 281.744424C 8.5843 287.407124 8.5843 296.588024 14.2471 302.250624L 86.1461 374.147724C 80.5846 368.477424 80.6182 359.372224 86.2469 353.743424L 281.7435 158.246824C 287.4062 152.584224 296.5872 152.584324 302.2498 158.247024L 497.741 353.743624C 503.4034 359.406224 503.4034 368.587024 497.7409 374.249524L 569.7409 302.250524C 575.4034 296.587924 575.4035 287.407224 569.741 281.744524L 302.2507 14.247024C 296.5882 8.584324 287.4072 8.584224 281.7445 14.246824L 14.247 281.744424Z"></path></g></g></g><g id="g-root-sy_3_cu_4kfp501aoztae-stroke" data-item-order="-535950" transform="translate(14, 302)"><g id="sy_3_cu_4kfp501aoztae-stroke" fill="none" stroke-linecap="round" stroke-linejoin="round" stroke-miterlimit="4" stroke="#1eabda" stroke-width="2" stroke-opacity="1"><g><path d="M 316 130L 24.5 130C 16.4919 130 10 123.5081 10 115.5L 10 24.5C 10 16.4919 16.4919 10 24.5 10L 436 10"></path></g></g></g><g id="g-root-sy_3_cu_1_1uqj7yc1aozqq7-stroke" data-item-order="-535949" transform="translate(385.9999694824219, 296.00006103515625)"><g id="sy_3_cu_1_1uqj7yc1aozqq7-stroke" fill="none" stroke-linecap="round" stroke-linejoin="round" stroke-miterlimit="4" stroke="#ffffff" stroke-width="2" stroke-opacity="1"><g><path d="M 14.246931 209.743424C 8.584331 215.406124 8.584431 224.587124 14.247131 230.249724L 86.146831 302.147524C 80.584531 296.477224 80.617931 287.371524 86.247031 281.742424L 209.742531 158.246824C 215.405231 152.584224 224.586231 152.584324 230.248831 158.247024L 353.741031 281.742624C 359.403531 287.405224 359.403431 296.586024 353.740931 302.248524L 425.740931 230.249524C 431.403431 224.587024 431.403431 215.406224 425.741031 209.743524L 230.249731 14.247024C 224.587231 8.584324 215.406231 8.584224 209.743531 14.246824L 14.246931 209.743424Z"></path></g></g></g><g id="g-root-sy_2_cu_1qapptw1aozrig-stroke" data-item-order="-535944" transform="translate(14, 445.99993896484375)"><g id="sy_2_cu_1qapptw1aozrig-stroke" fill="none" stroke-linecap="round" stroke-linejoin="round" stroke-miterlimit="4" stroke="#3cc583" stroke-width="2" stroke-opacity="1"><g><path d="M 315.5 10L 24.5 10C 16.4919 10 10 16.4919 10 24.5L 10 115.5C 10 123.5081 16.4919 130 24.5 130L 435.5 130"></path></g></g></g><g id="g-root-sy_2_cu_1_1luw7pg1aozsap-stroke" data-item-order="-535943" transform="translate(458.0000305175781, 440.00006103515625)"><g id="sy_2_cu_1_1luw7pg1aozsap-stroke" fill="none" stroke-linecap="round" stroke-linejoin="round" stroke-miterlimit="4" stroke="#ffffff" stroke-width="2" stroke-opacity="1"><g><path d="M 14.246969 137.742469C 8.584269 143.405169 8.584369 152.586169 14.247069 158.248769L 86.235869 230.235569C 80.584369 224.572069 80.587969 215.399469 86.246969 209.740569L 137.740569 158.246869C 143.403169 152.584269 152.584169 152.584369 158.246769 158.247069L 209.738969 209.740669C 215.401469 215.403369 215.401469 224.584069 209.738869 230.246669C 100.075669 339.909869 237.619269 202.370169 281.740869 158.248569C 287.403369 152.586069 287.403469 143.405269 281.740969 137.742669L 158.248769 14.247069C 152.586169 8.584369 143.405169 8.584269 137.742469 14.246969L 14.246969 137.742469Z"></path></g></g></g><g id="g-root-sy_1_cu_1cz97gk1aozt3e-stroke" data-item-order="-535938" transform="translate(14, 589.9999389648438)"><g id="sy_1_cu_1cz97gk1aozt3e-stroke" fill="none" stroke-linecap="round" stroke-linejoin="round" stroke-miterlimit="4" stroke="#92bd39" stroke-width="2" stroke-opacity="1"><g><path d="M 580.0016 130L 24.5 130C 16.4919 130 10 123.5081 10 115.5L 10 24.5C 10 16.4919 16.4919 10 24.5 10L 460 10"></path></g></g></g><g id="g-root-sy_1_cu_1_18k26f81aozqpv-stroke" data-item-order="-535937" transform="translate(530, 583.9999389648438)"><g id="sy_1_cu_1_18k26f81aozqpv-stroke" fill="none" stroke-linecap="round" stroke-linejoin="round" stroke-miterlimit="4" stroke="#ffffff" stroke-width="2" stroke-opacity="1"><g><path d="M 14.2471 86.2468C 8.5844 80.5842 8.5843 71.4032 14.247 65.7406L 65.7406 14.2469C 71.4032 8.5843 80.5842 8.5844 86.2468 14.2471L 137.739 65.7407C 143.4015 71.4033 143.4015 80.5841 137.7389 86.2467L 86.2467 137.7389C 80.5841 143.4014 71.4033 143.4015 65.7407 137.739L 14.2471 86.2468Z"></path></g></g></g><g id="g-root-ic_2_1htl01ap6rrc-stroke" data-item-order="-2304" transform="translate(572, 206.00006103515625)"></g><g id="g-root-ic_tech_140hts41ap5e69-stroke" data-item-order="-2304" transform="translate(572, 350.00787353515625)"></g><g id="g-root-ic_1_1uonsp01ap3z0i-stroke" data-item-order="-2304" transform="translate(572, 494.00775146484375)"></g><g id="g-root-ic_imme_dl2i2s1aozrwt-stroke" data-item-order="-2304" transform="translate(572, 625.9999389648438)"></g><g id="g-root-tx_nimbusho_18k26f81aozqpw-stroke" data-item-order="0" transform="translate(277.4999694824219, 38)"></g><g id="g-root-tx_uniquelo_1hgy4uc1aozrbi-stroke" data-item-order="0" transform="translate(38, 182)"></g><g id="g-root-tx_skiesofn_924mis1aozril-stroke" data-item-order="0" transform="translate(38, 218)"></g><g id="g-root-tx_technolo_meu32c1aozs3s-stroke" data-item-order="0" transform="translate(38, 326)"></g><g id="g-root-tx_3dprinte_145hmh01aozswf-stroke" data-item-order="0" transform="translate(38, 362)"></g><g id="g-root-tx_sustaina_1qdu39g1aozsoy-stroke" data-item-order="0" transform="translate(38, 469.99993896484375)"></g><g id="g-root-tx_carbonne_9401s41aozqix-stroke" data-item-order="0" transform="translate(38, 505.99993896484375)"></g><g id="g-root-tx_immersiv_qwj0g41aozqbw-stroke" data-item-order="0" transform="translate(38, 613.9999389648438)"></g><g id="g-root-tx_coreexpe_1d301z81aozr43-stroke" data-item-order="0" transform="translate(38, 649.9999389648438)"></g></g></g></svg>