<?xml version="1.0" encoding="utf-8" standalone="yes"?>
<!DOCTYPE svg PUBLIC "-//W3C//DTD SVG 1.1//EN" "http://www.w3.org/Graphics/SVG/1.1/DTD/svg11.dtd">
<svg style="fill:none;stroke:none;fill-rule:evenodd;clip-rule:evenodd;stroke-linecap:round;stroke-linejoin:round;stroke-miterlimit:1.5;" version="1.1" xmlns="http://www.w3.org/2000/svg" xmlns:xlink="http://www.w3.org/1999/xlink" width="605" height="393" viewBox="0 0 605 393"><style class="text-font-style fontImports" data-font-family="Roboto">@import url(https://fonts.googleapis.com/css2?family=Roboto:wght@400;700&amp;amp;display=block);</style><g id="items" style="isolation: isolate"><g id="blend" style="mix-blend-mode: normal"><g id="g-root-cp_4_g-4_924w041cmvjeu-fill" data-item-order="-165419" transform="translate(320.281005859375, 269)"><g id="cp_4_g-4_924w041cmvjeu-fill-merged" stroke="none" fill="#e0cb15" fill-opacity="1"><g><path d="M225.495 10 H33.944L10 52 H249.439L225.495 10"></path></g></g></g><g id="g-root-cp_3_g-3_1usewp01cmvhmv-fill" data-item-order="-165415" transform="translate(351.0660400390625, 215)"><g id="cp_3_g-3_1usewp01cmvhmv-fill-merged" stroke="none" fill="#4e88e7" fill-opacity="1"><g><path d="M163.925 10 H33.944L10 52 H187.869L163.925 10"></path></g></g></g><g id="g-root-cp_2_g-2_1usewp01cmvhmw-fill" data-item-order="-165411" transform="translate(381.8499755859375, 161)"><g id="cp_2_g-2_1usewp01cmvhmw-fill-merged" stroke="none" fill="#3cc583" fill-opacity="1"><g><path d="M102.355 10 H33.944L10 52 H126.299L102.355 10"></path></g></g></g><g id="g-root-cp_1_g-1_1qclekk1cmvif5-fill" data-item-order="-165407" transform="translate(412.636962890625, 101)"><g id="cp_1_g-1_1qclekk1cmvif5-fill-merged" stroke="none" fill="#92bd39" fill-opacity="1"><g><path d="M64.729 58L37.364 10L10 58 H64.729"></path></g></g></g><g id="g-root-sy_-1_Line_1hgyebo1cmvj7u-fill" data-item-order="-165350" transform="translate(284, 287)"></g><g id="g-root-sy_-1_Line_1_1d14w781cmvk03-fill" data-item-order="-165346" transform="translate(284, 233)"></g><g id="g-root-sy_-1_Line_2_1464d1g1cmvhn0-fill" data-item-order="-165342" transform="translate(284, 179)"></g><g id="g-root-sy_-1_Line_3_1464d1g1cmvhn1-fill" data-item-order="-165338" transform="translate(284, 125)"></g><g id="g-root-ic_floa_zlb2841cmwwen-fill" data-item-order="-900" transform="translate(242, 110)"><g id="ic_floa_zlb2841cmwwen-fill-merged" stroke="none" fill="#484848" fill-opacity="1"><g><path d="M25 10C16.716 10 10 16.716 10 25C10 33.284 16.716 40 25 40C33.284 40 40 33.284 40 25C40 16.716 33.284 10 25 10 M25 37.5C18.096 37.5 12.5 31.904 12.5 25C12.5 18.096 18.096 12.5 25 12.5C31.904 12.5 37.5 18.096 37.5 25C37.5 31.904 31.904 37.5 25 37.5 M20 25C20 27.761 22.239 30 25 30C27.761 30 30 27.761 30 25C30 22.239 27.761 20 25 20C22.239 20 20 22.239 20 25 M15 23.275 H17.862C18.132 23.275 18.373 23.104 18.462 22.85C19.153 20.779 20.779 19.153 22.85 18.462C23.1 18.374 23.269 18.14 23.275 17.875 V15C23.276 14.806 23.189 14.622 23.037 14.5C22.886 14.38 22.687 14.338 22.5 14.387C18.476 15.335 15.335 18.476 14.387 22.5C14.342 22.683 14.384 22.877 14.5 23.025C14.619 23.181 14.804 23.273 15 23.275 M27.15 18.462C29.229 19.141 30.859 20.771 31.537 22.85C31.627 23.104 31.868 23.275 32.137 23.275 H35C35.191 23.278 35.372 23.19 35.487 23.037C35.609 22.887 35.655 22.689 35.612 22.5C34.665 18.476 31.524 15.335 27.5 14.387C27.311 14.345 27.113 14.391 26.962 14.512C26.81 14.628 26.722 14.809 26.725 15 V17.862C26.725 18.132 26.896 18.373 27.15 18.462 M22.85 31.537C20.771 30.859 19.141 29.229 18.462 27.15C18.373 26.896 18.132 26.725 17.862 26.725 H15C14.809 26.722 14.628 26.81 14.512 26.962C14.391 27.113 14.345 27.311 14.387 27.5C15.335 31.524 18.476 34.665 22.5 35.612C22.685 35.654 22.879 35.608 23.025 35.487C23.177 35.372 23.265 35.191 23.262 35 V32.137C23.264 31.871 23.099 31.632 22.85 31.537 M35.5 26.962C35.378 26.811 35.194 26.724 35 26.725 H32.137C31.868 26.725 31.627 26.896 31.537 27.15C30.853 29.221 29.231 30.847 27.162 31.537C26.912 31.626 26.743 31.86 26.737 32.125 V35C26.737 35.191 26.824 35.371 26.975 35.487C27.119 35.612 27.315 35.658 27.5 35.612C31.532 34.667 34.68 31.519 35.625 27.487C35.667 27.303 35.621 27.109 35.5 26.962"></path></g></g></g><g id="g-root-ic_sun_m9ujus1cmyc5j-fill" data-item-order="-900" transform="translate(242, 164)"><g id="ic_sun_m9ujus1cmyc5j-fill-merged" stroke="none" fill="#484848" fill-opacity="1"><g><path d="M28.125 13.75C28.815 13.75 29.375 13.19 29.375 12.5 V11.25C29.375 10.56 28.815 10 28.125 10C27.435 10 26.875 10.56 26.875 11.25 V12.5C26.875 13.19 27.435 13.75 28.125 13.75 M36.525 13.475C36.29 13.238 35.971 13.105 35.638 13.105C35.304 13.105 34.985 13.238 34.75 13.475L33.875 14.363C33.518 14.668 33.363 15.148 33.473 15.604C33.583 16.061 33.939 16.417 34.396 16.527C34.852 16.637 35.332 16.482 35.638 16.125L36.525 15.25C36.762 15.015 36.895 14.696 36.895 14.363C36.895 14.029 36.762 13.71 36.525 13.475 M20.612 16.125C21.108 16.55 21.848 16.521 22.309 16.059C22.771 15.598 22.8 14.858 22.375 14.363L21.5 13.475C21.01 12.985 20.215 12.985 19.725 13.475C19.235 13.965 19.235 14.76 19.725 15.25L20.612 16.125 M38.75 20.625 H37.5C36.81 20.625 36.25 21.185 36.25 21.875C36.25 22.565 36.81 23.125 37.5 23.125 H38.75C39.44 23.125 40 22.565 40 21.875C40 21.185 39.44 20.625 38.75 20.625 M28.125 15C26.3 14.994 24.549 15.719 23.263 17.013C22.923 17.509 22.985 18.177 23.41 18.602C23.836 19.028 24.504 19.09 25 18.75C26.726 17.024 29.524 17.024 31.25 18.75C32.976 20.476 32.976 23.274 31.25 25C30.765 25.488 30.765 26.275 31.25 26.763C31.738 27.247 32.525 27.247 33.013 26.763C35.001 24.795 35.6 21.82 34.526 19.237C33.453 16.654 30.922 14.979 28.125 15 M28.5 24.5L19.75 18.063C19.526 17.9 19.224 17.9 19 18.063L10.25 24.5C10.094 24.619 10.002 24.804 10 25 V39.375C10 39.72 10.28 40 10.625 40 H28.125C28.47 40 28.75 39.72 28.75 39.375 V25C28.748 24.804 28.656 24.619 28.5 24.5 M21.35 33.625C20.382 34.548 19.02 34.932 17.712 34.65C17.403 34.55 17.115 34.393 16.862 34.188C16.598 33.978 16.548 33.596 16.75 33.325C17.624 31.986 18.853 30.917 20.3 30.237C20.529 30.179 20.705 29.996 20.755 29.765C20.806 29.535 20.722 29.295 20.538 29.146C20.355 28.998 20.103 28.965 19.888 29.063C17.25 30 14.85 33.5 13.75 36.025C13.608 36.37 13.214 36.535 12.869 36.394C12.524 36.252 12.359 35.858 12.5 35.513C13.111 34.194 13.847 32.939 14.7 31.763C14.843 31.551 14.843 31.274 14.7 31.063C14.357 30.538 14.206 29.911 14.275 29.288C14.49 28.168 15.25 27.23 16.3 26.788C17.226 26.361 18.221 26.103 19.237 26.025C20.399 25.94 21.528 25.608 22.55 25.05C22.72 24.971 22.917 24.971 23.087 25.05C23.267 25.118 23.406 25.266 23.463 25.45C24.139 28.357 23.35 31.41 21.35 33.625"></path></g></g></g><g id="g-root-ic_turb_zpodtw1cmyd55-fill" data-item-order="-900" transform="translate(242, 218)"><g id="ic_turb_zpodtw1cmyd55-fill-merged" stroke="none" fill="#484848" fill-opacity="1"><g><path d="M22.288 23.288C22.499 23.486 22.817 23.516 23.063 23.362C23.778 22.877 24.623 22.62 25.487 22.625C25.977 22.619 26.463 22.7 26.925 22.862C27.11 22.927 27.314 22.899 27.475 22.788C27.64 22.684 27.742 22.507 27.75 22.313L28.525 12.313C28.595 11.753 28.433 11.189 28.076 10.752C27.72 10.315 27.2 10.043 26.638 10C25.716 9.936 24.862 10.485 24.537 11.35L21.025 21.063C20.853 21.531 20.976 22.056 21.337 22.4L22.288 23.288 M23.55 32.95L23.85 31.7C23.922 31.416 23.787 31.119 23.525 30.988C22.745 30.607 22.097 30.002 21.663 29.25C21.419 28.828 21.25 28.367 21.162 27.887C21.111 27.716 20.988 27.575 20.825 27.5C20.652 27.413 20.448 27.413 20.275 27.5L11.175 31.8C10.252 32.249 9.8 33.309 10.114 34.286C10.428 35.263 11.413 35.86 12.425 35.688L22.5 33.888C23.009 33.82 23.426 33.449 23.55 32.95 M39.525 34.037L32.9 26.163C32.581 25.78 32.066 25.622 31.588 25.762L30.338 26.138C30.057 26.219 29.87 26.483 29.888 26.775C29.949 27.647 29.749 28.518 29.313 29.275C29.067 29.697 28.754 30.077 28.388 30.4C28.241 30.523 28.162 30.709 28.175 30.9C28.184 31.091 28.281 31.266 28.438 31.375L36.775 37.088C37.625 37.654 38.762 37.512 39.447 36.755C40.133 35.997 40.16 34.852 39.513 34.063 M13.813 28.288C14.503 28.288 15.063 27.728 15.063 27.038C15.069 23.618 16.744 20.417 19.55 18.462C20.119 18.072 20.265 17.295 19.875 16.725C19.686 16.45 19.394 16.262 19.065 16.203C18.736 16.145 18.398 16.22 18.125 16.413C14.645 18.832 12.568 22.799 12.563 27.038C12.563 27.728 13.122 28.288 13.813 28.288 M30.413 36.25C27.482 37.81 23.985 37.889 20.987 36.463C20.356 36.166 19.603 36.437 19.306 37.069C19.009 37.7 19.281 38.453 19.913 38.75C23.63 40.518 27.965 40.421 31.6 38.487C32.208 38.142 32.42 37.37 32.075 36.762C31.73 36.155 30.958 35.942 30.35 36.287 H30.413 M31.35 18.413C33.863 20.117 35.506 22.833 35.85 25.85C35.926 26.54 36.547 27.038 37.237 26.962C37.928 26.887 38.426 26.265 38.35 25.575C37.918 21.827 35.873 18.454 32.75 16.337C32.177 15.951 31.399 16.102 31.012 16.675C30.626 17.248 30.777 18.026 31.35 18.413 M25.488 24.512C24.107 24.512 22.988 25.632 22.988 27.012C22.988 28.393 24.107 29.512 25.488 29.512C26.868 29.512 27.988 28.393 27.988 27.012C27.988 25.632 26.868 24.512 25.488 24.512"></path></g></g></g><g id="g-root-ic_roof_1lxedj81cn2k92-fill" data-item-order="-900" transform="translate(242, 272)"><g id="ic_roof_1lxedj81cn2k92-fill-merged" stroke="none" fill="#484848" fill-opacity="1"><g><path d="M21.738 16.8C21.733 17.017 21.836 17.223 22.012 17.35C22.203 17.455 22.434 17.455 22.625 17.35C24.135 16.65 25.877 16.65 27.388 17.35C27.578 17.455 27.809 17.455 28 17.35C28.177 17.23 28.277 17.026 28.262 16.813L27.988 10.563C27.974 10.227 27.698 9.962 27.363 9.962 H22.65C22.314 9.962 22.038 10.227 22.025 10.563L21.738 16.8 M27.75 26.25C27.943 26.362 28.182 26.362 28.375 26.25C28.568 26.136 28.683 25.924 28.675 25.7L28.45 20.9C28.446 20.777 28.403 20.658 28.325 20.563C27.573 19.458 26.335 18.784 25 18.75C23.665 18.773 22.424 19.444 21.675 20.55C21.599 20.646 21.56 20.765 21.563 20.888L21.337 25.638C21.328 25.863 21.44 26.076 21.632 26.195C21.824 26.314 22.065 26.321 22.263 26.212C23.102 25.751 24.042 25.506 25 25.5C25.966 25.512 26.912 25.77 27.75 26.25 M12.5 26.625C13.489 25.897 14.684 25.503 15.913 25.5C16.85 25.501 17.773 25.733 18.6 26.175C18.789 26.273 19.015 26.268 19.2 26.162C19.385 26.056 19.502 25.863 19.513 25.65L19.763 20.3C19.765 20.111 19.688 19.93 19.55 19.8C18.817 19.119 17.851 18.743 16.85 18.75C14.225 18.75 13.175 21.038 11.85 23.025L11.512 26.05C11.491 26.297 11.613 26.535 11.825 26.662C12.038 26.783 12.302 26.769 12.5 26.625 M37.563 26.625C37.765 26.759 38.025 26.766 38.235 26.644C38.444 26.522 38.566 26.292 38.55 26.05L38.138 22.375C38.116 22.233 38.051 22.102 37.95 22C35.45 19.5 34.975 18.75 33.163 18.75C32.179 18.756 31.233 19.13 30.513 19.8C30.375 19.93 30.298 20.111 30.3 20.3L30.55 25.65C30.56 25.863 30.678 26.056 30.863 26.162C31.047 26.268 31.273 26.273 31.462 26.175C32.289 25.733 33.212 25.501 34.15 25.5C35.378 25.503 36.573 25.897 37.563 26.625 M37.4 29.037C36.638 28.003 35.434 27.388 34.15 27.375C32.748 27.4 31.454 28.134 30.712 29.325L31.1 37.688C31.102 37.923 31.245 38.135 31.462 38.225C31.678 38.324 31.931 38.29 32.112 38.138C32.881 37.495 33.848 37.137 34.85 37.125C36.531 37.162 38.055 38.123 38.813 39.625C38.953 39.884 39.253 40.014 39.537 39.938C39.823 39.855 40.011 39.584 39.987 39.287C39.9 37.787 39.6 35.612 39.2 31.987L37.4 29.037 M28.875 30.238C28.893 30.164 28.893 30.086 28.875 30.013C28.229 28.436 26.704 27.398 25 27.375C23.329 27.452 21.86 28.505 21.25 30.063C21.239 30.137 21.239 30.213 21.25 30.287L20.9 38.087C20.887 38.35 21.043 38.591 21.288 38.688C21.53 38.786 21.807 38.726 21.987 38.537C22.74 37.653 23.839 37.138 25 37.125C26.209 37.099 27.365 37.617 28.15 38.537C28.331 38.726 28.608 38.786 28.85 38.688C29.094 38.591 29.25 38.35 29.238 38.087L28.875 30.238 M30.138 16.75C30.154 16.951 30.259 17.135 30.425 17.25C30.605 17.343 30.82 17.343 31 17.25C32.853 16.493 34.967 16.758 36.575 17.95C36.784 18.087 37.054 18.087 37.263 17.95C37.477 17.826 37.596 17.584 37.563 17.337C37.287 14.913 37.037 12.887 36.875 11.675C36.727 10.742 35.944 10.042 35 10 H30.487C30.307 9.996 30.132 10.063 30 10.188C29.888 10.316 29.826 10.48 29.825 10.65L30.138 16.75 M19.288 29.538C19.294 29.394 19.25 29.252 19.163 29.138C18.413 28.05 17.183 27.393 15.863 27.375C14.549 27.395 13.323 28.041 12.563 29.112L10.95 31.4C10.887 31.489 10.848 31.592 10.837 31.7C10.462 35.138 10.15 37.95 10.025 39.2C9.945 39.389 9.982 39.593 10.1 39.75C10.218 39.907 10.403 40 10.6 40C10.867 40.04 11.129 39.903 11.25 39.662C12.009 38.157 13.539 37.195 15.225 37.163C16.227 37.175 17.194 37.532 17.962 38.175C18.144 38.327 18.397 38.362 18.612 38.263C18.83 38.172 18.973 37.961 18.975 37.725L19.288 29.538 M16.85 16.875C17.591 16.877 18.325 17.021 19.012 17.3C19.193 17.393 19.407 17.393 19.587 17.3C19.753 17.185 19.859 17.001 19.875 16.8L20.15 10.65C20.156 10.483 20.103 10.319 20 10.188C19.872 10.066 19.702 9.999 19.525 10 H15C14.026 10.039 13.23 10.792 13.137 11.762C12.975 12.988 12.725 15 12.5 17.425C12.476 17.673 12.598 17.912 12.813 18.038C13.023 18.169 13.29 18.169 13.5 18.037C14.465 17.304 15.638 16.897 16.85 16.875"></path></g></g></g><g id="g-root-tx_nimbusar_zqaux01cmvifa-fill" data-item-order="0" transform="translate(148.5, 38)"><g id="tx_nimbusar_zqaux01cmvifa-fill-merged" stroke="none" fill="#484848" fill-opacity="1"><g><text style="font: bold 20px Roboto, sans-serif; white-space: pre;" transform="translate(154, 22)" font-weight="bold" font-size="20px" font-family="Roboto, sans-serif"><tspan x="-141.91" y="12" dominant-baseline="ideographic">NIMBUS Architecture Hierarchy</tspan></text></g></g></g><g id="g-root-tx_aestheti_940b9g1cmvifb-fill" data-item-order="0" transform="translate(110, 104)"><g id="tx_aestheti_940b9g1cmvifb-fill-merged" stroke="none" fill="#92bd39" fill-opacity="1"><g><text style="font: bold 11.7px Roboto, sans-serif; white-space: pre;" transform="translate(130, 22)" font-weight="bold" font-size="11.7px" font-family="Roboto, sans-serif"><tspan x="-112.54" y="7" dominant-baseline="ideographic">Aesthetic Integration</tspan></text></g></g></g><g id="g-root-tx_cubelike_1hittl01cmvi88-fill" data-item-order="0" transform="translate(74, 134)"><g id="tx_cubelike_1hittl01cmvi88-fill-merged" stroke="none" fill="#484848" fill-opacity="1"><g><text style="font: 10px Roboto, sans-serif; white-space: pre;" transform="translate(166, 16)" font-size="10px" font-family="Roboto, sans-serif"><tspan x="-144.97" y="6" dominant-baseline="ideographic">Cube-like form with organic flow</tspan></text></g></g></g><g id="g-root-tx_function_mgprt01cmvj0h-fill" data-item-order="0" transform="translate(110, 158)"><g id="tx_function_mgprt01cmvj0h-fill-merged" stroke="none" fill="#3cc583" fill-opacity="1"><g><text style="font: bold 11.7px Roboto, sans-serif; white-space: pre;" transform="translate(130, 22)" font-weight="bold" font-size="11.7px" font-family="Roboto, sans-serif"><tspan x="-108.91" y="7" dominant-baseline="ideographic">Functional Elements</tspan></text></g></g></g><g id="g-root-tx_perforat_1uljoqs1cmwxdu-fill" data-item-order="0" transform="translate(50, 188)"><g id="tx_perforat_1uljoqs1cmwxdu-fill-merged" stroke="none" fill="#484848" fill-opacity="1"><g><text style="font: 10px Roboto, sans-serif; white-space: pre;" transform="translate(190, 16)" font-size="10px" font-family="Roboto, sans-serif"><tspan x="-177.57" y="6" dominant-baseline="ideographic">Perforations for sunlight and ventilation</tspan></text></g></g></g><g id="g-root-tx_aerodyna_18f2n7o1cmwwln-fill" data-item-order="0" transform="translate(110, 212)"><g id="tx_aerodyna_18f2n7o1cmwwln-fill-merged" stroke="none" fill="#4e88e7" fill-opacity="1"><g><text style="font: bold 11.7px Roboto, sans-serif; white-space: pre;" transform="translate(130, 22)" font-weight="bold" font-size="11.7px" font-family="Roboto, sans-serif"><tspan x="-110.64" y="7" dominant-baseline="ideographic">Aerodynamic Design</tspan></text></g></g></g><g id="g-root-tx_optimize_qnsmpw1cmwyys-fill" data-item-order="0" transform="translate(38, 242)"><g id="tx_optimize_qnsmpw1cmwyys-fill-merged" stroke="none" fill="#484848" fill-opacity="1"><g><text style="font: 10px Roboto, sans-serif; white-space: pre;" transform="translate(202, 16)" font-size="10px" font-family="Roboto, sans-serif"><tspan x="-186.83" y="6" dominant-baseline="ideographic">Optimized for stability and easy assembly</tspan></text></g></g></g><g id="g-root-tx_structur_4hbl6s1cmwy6l-fill" data-item-order="0" transform="translate(110, 260)"><g id="tx_structur_4hbl6s1cmwy6l-fill-merged" stroke="none" fill="#e0cb15" fill-opacity="1"><g><text style="font: bold 11.7px Roboto, sans-serif; white-space: pre;" transform="translate(130, 22)" font-weight="bold" font-size="11.7px" font-family="Roboto, sans-serif"><tspan x="-115.99" y="7" dominant-baseline="ideographic">Structural Foundation</tspan></text></g></g></g><g id="g-root-tx_lightwei_1lrs3r81cmwx6u-fill" data-item-order="0" transform="translate(50, 290)"><g id="tx_lightwei_1lrs3r81cmwx6u-fill-merged" stroke="none" fill="#484848" fill-opacity="1"><g><text style="font: 10px Roboto, sans-serif; white-space: pre;" transform="translate(190, 22)" font-size="10px" font-family="Roboto, sans-serif"><tspan x="-172.15" y="0" dominant-baseline="ideographic">Lightweight polycarbonate and carbon </tspan><tspan x="-45.17" y="12" dominant-baseline="ideographic">fiber shell</tspan></text></g></g></g><g id="g-root-cp_4_g-4_924w041cmvjeu-stroke" data-item-order="-165419" transform="translate(320.281005859375, 269)"><g id="cp_4_g-4_924w041cmvjeu-stroke" fill="none" stroke-linecap="round" stroke-linejoin="round" stroke-miterlimit="4" stroke="#ffffff" stroke-width="2" stroke-opacity="1"><g><path d="M 225.4953 10L 33.9439 10L 10 52L 249.4393 52L 225.4953 10Z"></path></g></g></g><g id="g-root-cp_3_g-3_1usewp01cmvhmv-stroke" data-item-order="-165415" transform="translate(351.0660400390625, 215)"><g id="cp_3_g-3_1usewp01cmvhmv-stroke" fill="none" stroke-linecap="round" stroke-linejoin="round" stroke-miterlimit="4" stroke="#ffffff" stroke-width="2" stroke-opacity="1"><g><path d="M 163.9252 10L 33.9439 10L 10 52L 187.8691 52L 163.9252 10Z"></path></g></g></g><g id="g-root-cp_2_g-2_1usewp01cmvhmw-stroke" data-item-order="-165411" transform="translate(381.8499755859375, 161)"><g id="cp_2_g-2_1usewp01cmvhmw-stroke" fill="none" stroke-linecap="round" stroke-linejoin="round" stroke-miterlimit="4" stroke="#ffffff" stroke-width="2" stroke-opacity="1"><g><path d="M 102.3551 10L 33.9439 10L 10 52L 126.2991 52L 102.3551 10Z"></path></g></g></g><g id="g-root-cp_1_g-1_1qclekk1cmvif5-stroke" data-item-order="-165407" transform="translate(412.636962890625, 101)"><g id="cp_1_g-1_1qclekk1cmvif5-stroke" fill="none" stroke-linecap="round" stroke-linejoin="round" stroke-miterlimit="4" stroke="#ffffff" stroke-width="2" stroke-opacity="1"><g><path d="M 64.7289 58L 37.3645 10L 10 58L 64.7289 58Z"></path></g></g></g><g id="g-root-sy_-1_Line_1hgyebo1cmvj7u-stroke" data-item-order="-165350" transform="translate(284, 287)"><g id="sy_-1_Line_1hgyebo1cmvj7u-stroke" fill="none" stroke-linecap="round" stroke-linejoin="round" stroke-miterlimit="4" stroke="#484848" stroke-width="2" stroke-opacity="1"><g><path d="M 10 10L 43 10"></path><path d="M 37 16.5L 43.5 10L 37 3.5" stroke-dasharray="none"></path></g></g></g><g id="g-root-sy_-1_Line_1_1d14w781cmvk03-stroke" data-item-order="-165346" transform="translate(284, 233)"><g id="sy_-1_Line_1_1d14w781cmvk03-stroke" fill="none" stroke-linecap="round" stroke-linejoin="round" stroke-miterlimit="4" stroke="#484848" stroke-width="2" stroke-opacity="1"><g><path d="M 10 10L 74 10"></path><path d="M 68 16.5L 74.5 10L 68 3.5" stroke-dasharray="none"></path></g></g></g><g id="g-root-sy_-1_Line_2_1464d1g1cmvhn0-stroke" data-item-order="-165342" transform="translate(284, 179)"><g id="sy_-1_Line_2_1464d1g1cmvhn0-stroke" fill="none" stroke-linecap="round" stroke-linejoin="round" stroke-miterlimit="4" stroke="#484848" stroke-width="2" stroke-opacity="1"><g><path d="M 10 10L 105 10"></path><path d="M 99 16.5L 105.5 10L 99 3.5" stroke-dasharray="none"></path></g></g></g><g id="g-root-sy_-1_Line_3_1464d1g1cmvhn1-stroke" data-item-order="-165338" transform="translate(284, 125)"><g id="sy_-1_Line_3_1464d1g1cmvhn1-stroke" fill="none" stroke-linecap="round" stroke-linejoin="round" stroke-miterlimit="4" stroke="#484848" stroke-width="2" stroke-opacity="1"><g><path d="M 10 10L 136 10"></path><path d="M 130 16.5L 136.5 10L 130 3.5" stroke-dasharray="none"></path></g></g></g><g id="g-root-ic_floa_zlb2841cmwwen-stroke" data-item-order="-900" transform="translate(242, 110)"></g><g id="g-root-ic_sun_m9ujus1cmyc5j-stroke" data-item-order="-900" transform="translate(242, 164)"></g><g id="g-root-ic_turb_zpodtw1cmyd55-stroke" data-item-order="-900" transform="translate(242, 218)"></g><g id="g-root-ic_roof_1lxedj81cn2k92-stroke" data-item-order="-900" transform="translate(242, 272)"></g><g id="g-root-tx_nimbusar_zqaux01cmvifa-stroke" data-item-order="0" transform="translate(148.5, 38)"></g><g id="g-root-tx_aestheti_940b9g1cmvifb-stroke" data-item-order="0" transform="translate(110, 104)"></g><g id="g-root-tx_cubelike_1hittl01cmvi88-stroke" data-item-order="0" transform="translate(74, 134)"></g><g id="g-root-tx_function_mgprt01cmvj0h-stroke" data-item-order="0" transform="translate(110, 158)"></g><g id="g-root-tx_perforat_1uljoqs1cmwxdu-stroke" data-item-order="0" transform="translate(50, 188)"></g><g id="g-root-tx_aerodyna_18f2n7o1cmwwln-stroke" data-item-order="0" transform="translate(110, 212)"></g><g id="g-root-tx_optimize_qnsmpw1cmwyys-stroke" data-item-order="0" transform="translate(38, 242)"></g><g id="g-root-tx_structur_4hbl6s1cmwy6l-stroke" data-item-order="0" transform="translate(110, 260)"></g><g id="g-root-tx_lightwei_1lrs3r81cmwx6u-stroke" data-item-order="0" transform="translate(50, 290)"></g></g></g></svg>