<?xml version="1.0" encoding="utf-8" standalone="yes"?>
<!DOCTYPE svg PUBLIC "-//W3C//DTD SVG 1.1//EN" "http://www.w3.org/Graphics/SVG/1.1/DTD/svg11.dtd">
<svg style="fill:none;stroke:none;fill-rule:evenodd;clip-rule:evenodd;stroke-linecap:round;stroke-linejoin:round;stroke-miterlimit:1.5;" version="1.1" xmlns="http://www.w3.org/2000/svg" xmlns:xlink="http://www.w3.org/1999/xlink" width="792" height="840" viewBox="0 0 792 840"><style class="text-font-style fontImports" data-font-family="Roboto">@import url(https://fonts.googleapis.com/css2?family=Roboto:wght@400;700&amp;amp;display=block);</style><g id="items" style="isolation: isolate"><g id="blend" style="mix-blend-mode: normal"><g id="g-root-cp_resolution_g-resolution_1qclo2s19l47ib-fill" data-item-order="-553526" transform="translate(386, 554)"><g id="cp_resolution_g-resolution_1qclo2s19l47ib-fill-merged" stroke="none" fill="#3cc583" fill-opacity="1"><g><path d="M10 94 H262 V106L298 58L262 10 V22 H154C139.419 41.441 121.005 57.79 99.817 69.99C72.496 85.721 41.524 94 10 94"></path></g></g></g><g id="g-root-cp_3_g-3_1hgyntw19l48b0-fill" data-item-order="-553520" transform="translate(206, 368)"><g id="cp_3_g-3_1hgyntw19l48b0-fill-merged" stroke="none" fill="#92bd39" fill-opacity="1"><g><path d="M46 208C41.695 202.26 37.725 196.251 34.115 190C18.317 162.637 10 131.597 10 100C10 68.403 18.317 37.363 34.115 10L96.392 45.955C86.905 62.387 81.911 81.026 81.911 100C81.911 118.974 86.905 137.613 96.392 154.045C105.879 170.476 119.524 184.121 135.955 193.608C151.117 202.362 168.158 207.29 185.608 208 H46"></path></g></g></g><g id="g-root-cp_2_g-2_1d1rmsk19l45xh-fill" data-item-order="-553514" transform="translate(230.08602905273438, 278)"><g id="cp_2_g-2_1d1rmsk19l45xh-fill-merged" stroke="none" fill="#e0cb15" fill-opacity="1"><g><path d="M10 100.051C25.789 72.682 48.505 49.952 75.863 34.145C103.221 18.338 134.259 10.01 165.855 10C197.452 9.99 228.494 18.297 255.863 34.086C283.232 49.875 305.962 72.591 321.769 99.949L259.504 135.925C250.012 119.496 236.363 105.856 219.928 96.374C203.493 86.893 184.852 81.905 165.879 81.911C146.905 81.917 128.267 86.917 111.839 96.41C95.41 105.902 81.77 119.551 72.288 135.986L10 100.051"></path></g></g></g><g id="g-root-cp_1_g-1_1d1rmsk19l45xi-fill" data-item-order="-553508" transform="translate(385.78900146484375, 368.18310546875)"><g id="cp_1_g-1_1d1rmsk19l45xi-fill-merged" stroke="none" fill="#de8431" fill-opacity="1"><g><path d="M166.202 10C181.968 37.382 190.248 68.432 190.211 100.028C190.174 131.625 181.821 162.655 165.99 190C150.16 217.345 127.41 240.041 100.028 255.807C72.646 271.573 41.597 279.854 10 279.817L10.084 207.906C29.058 207.928 47.703 202.956 64.146 193.488C80.589 184.021 94.25 170.392 103.756 153.971C113.262 137.551 118.278 118.918 118.301 99.944C118.323 80.97 113.35 62.325 103.883 45.882L166.202 10"></path></g></g></g><g id="g-root-cp_problem_g-problem_1464mjo19l46q7-fill" data-item-order="-553502" transform="translate(133, 566)"><g id="cp_problem_g-problem_1464mjo19l46q7-fill-merged" stroke="none" fill="#e55753" fill-opacity="1"><g><path d="M10 10 H263 V82 H10 V10"></path></g></g></g><g id="g-root-ic_2_zkoxt019korgh-fill" data-item-order="-2304" transform="translate(238, 578)"><g id="ic_2_zkoxt019korgh-fill-merged" stroke="none" fill="#ffffff" fill-opacity="1"><g><path d="M10 34C10 35.657 11.343 37 13 37 H16.86C17.101 36.995 17.312 37.163 17.36 37.4C17.785 39.54 18.62 41.578 19.82 43.4C19.983 43.582 19.983 43.858 19.82 44.04L17.02 46.74C15.861 47.916 15.861 49.804 17.02 50.98C18.198 52.152 20.102 52.152 21.28 50.98L24 48.24C24.182 48.077 24.458 48.077 24.64 48.24C26.462 49.44 28.5 50.275 30.64 50.7C30.872 50.755 31.037 50.961 31.04 51.2 V55C31.04 56.657 32.383 58 34.04 58C35.697 58 37.04 56.657 37.04 55 V51.14C37.043 50.901 37.208 50.695 37.44 50.64C39.58 50.215 41.618 49.38 43.44 48.18C43.622 48.017 43.898 48.017 44.08 48.18L46.8 50.92C47.978 52.092 49.882 52.092 51.06 50.92C52.219 49.744 52.219 47.856 51.06 46.68L48.24 44C48.077 43.818 48.077 43.542 48.24 43.36C49.44 41.538 50.275 39.5 50.7 37.36C50.748 37.123 50.959 36.955 51.2 36.96 H55C56.657 36.96 58 35.617 58 33.96C58 32.303 56.657 30.96 55 30.96 H51.14C50.899 30.965 50.688 30.797 50.64 30.56C50.215 28.42 49.38 26.382 48.18 24.56C48.017 24.378 48.017 24.102 48.18 23.92L50.92 21.2C52.091 20.024 52.086 18.121 50.91 16.95C49.733 15.78 47.831 15.784 46.66 16.96L44 19.76C43.812 19.907 43.548 19.907 43.36 19.76C41.539 18.553 39.501 17.711 37.36 17.28C37.131 17.233 36.965 17.034 36.96 16.8 V13C36.96 11.343 35.617 10 33.96 10C32.303 10 30.96 11.343 30.96 13 V16.88C30.955 17.114 30.789 17.313 30.56 17.36C28.419 17.791 26.381 18.633 24.56 19.84C24.372 19.987 24.108 19.987 23.92 19.84L21.28 17.04C20.109 15.864 18.207 15.86 17.03 17.03C15.854 18.201 15.849 20.104 17.02 21.28L19.76 24C19.923 24.182 19.923 24.458 19.76 24.64C18.56 26.462 17.725 28.5 17.3 30.64C17.252 30.877 17.041 31.045 16.8 31.04 H13C11.359 31.04 10.022 32.359 10 34 M34 23C40.075 23 45 27.925 45 34C45 40.075 40.075 45 34 45C27.925 45 23 40.075 23 34C23 27.925 27.925 23 34 23 M28 34C28 37.314 30.686 40 34 40C37.314 40 40 37.314 40 34C40 30.686 37.314 28 34 28C30.686 28 28 30.686 28 34"></path></g></g></g><g id="g-root-ic_scoo_1q8uwpw19kncas-fill" data-item-order="-2304" transform="translate(362, 290)"><g id="ic_scoo_1q8uwpw19kncas-fill-merged" stroke="none" fill="#ffffff" fill-opacity="1"><g><path d="M13.38 28.6L17.08 30.32C17.218 30.35 17.362 30.35 17.5 30.32 H30.5C32.32 30.32 33.5 28.12 33.5 26.62 V26.4C33.5 25.295 32.605 24.4 31.5 24.4 H14.5C13.395 24.4 12.5 25.295 12.5 26.4 V26.98C12.497 27.512 12.706 28.023 13.08 28.4C13.163 28.489 13.266 28.557 13.38 28.6 M54.7 44.9 H42.3C42.046 44.898 41.831 45.088 41.8 45.34C41.779 45.613 41.779 45.887 41.8 46.16C41.995 49.745 44.959 52.552 48.55 52.552C52.141 52.552 55.105 49.745 55.3 46.16 V45.34C55.28 45.201 55.206 45.076 55.093 44.994C54.98 44.911 54.838 44.877 54.7 44.9 M27.38 46.9 H15.62C15.466 46.895 15.318 46.962 15.22 47.08C15.173 47.209 15.173 47.351 15.22 47.48C15.718 50.617 18.424 52.926 21.6 52.926C24.776 52.926 27.482 50.617 27.98 47.48C28 47.336 27.956 47.189 27.86 47.08C27.745 46.936 27.561 46.867 27.38 46.9 M48.5 32.9 H46.92C46.777 32.899 46.641 32.841 46.54 32.74C46.441 32.632 46.397 32.485 46.42 32.34 V26.24C46.419 26.051 46.528 25.879 46.7 25.8C46.857 25.693 47.063 25.693 47.22 25.8C48.464 26.66 49.913 27.177 51.42 27.3C52.525 27.3 53.42 26.405 53.42 25.3 V19.48C53.434 18.925 53.217 18.389 52.82 18C52.387 17.62 51.811 17.445 51.24 17.52C49.743 17.68 48.318 18.247 47.12 19.16C46.97 19.238 46.79 19.238 46.64 19.16C46.484 19.106 46.364 18.979 46.32 18.82C45.756 16.616 43.775 15.071 41.5 15.06 H38.5C37.395 15.06 36.5 15.955 36.5 17.06C36.5 18.165 37.395 19.06 38.5 19.06 H41.5C42.052 19.06 42.5 19.508 42.5 20.06 V31.06C42.494 34.764 40.417 38.153 37.12 39.84C36.982 39.911 36.818 39.911 36.68 39.84C36.544 39.78 36.441 39.663 36.4 39.52C35.198 35.051 31.128 31.96 26.5 32 H21.5C15.192 32.011 10.066 37.092 10 43.4C10 44.228 10.672 44.9 11.5 44.9 H32.5C35.057 44.952 37.573 44.257 39.74 42.9C39.824 42.871 39.916 42.871 40 42.9 H56.5C57.328 42.9 58 42.228 58 41.4C57.699 36.441 53.461 32.65 48.5 32.9"></path></g></g></g><g id="g-root-ic_batt_qwjjfo19l6znt-fill" data-item-order="-2304" transform="translate(218, 446)"><g id="ic_batt_qwjjfo19l6znt-fill-merged" stroke="none" fill="#ffffff" fill-opacity="1"><g><path d="M23.6 10.014C24.705 10.014 25.6 10.909 25.6 12.014 V14.014C25.6 15.119 24.705 16.014 23.6 16.014C22.495 16.014 21.6 15.119 21.6 14.014 V12.014C21.6 10.909 22.495 10.014 23.6 10.014 M18.6 23.614C18.6 20.814 20.8 18.414 23.8 18.414C26.8 18.414 29 20.814 29 23.614C29 26.438 26.656 28.71 23.8 28.714C20.944 28.71 18.6 26.438 18.6 23.614 M42.12 23.05 H35.772C34.972 23.05 34.172 23.65 33.972 24.45L32.332 29.198 H42.122 V23.05 M30.172 35.45L31.466 31.7 H42.122 V38.05 H31.972C31.372 38.05 30.772 37.85 30.372 37.25C29.972 36.65 29.972 36.05 30.172 35.45 M44.622 31.7 H55.144L56.372 35.45C56.572 36.05 56.572 36.65 56.172 37.25C55.772 37.65 55.172 38.05 54.572 38.05 H48.64 V50.2C48.64 52.904 46.344 55.2 43.64 55.2 H38.84C37.735 55.2 36.84 54.305 36.84 53.2C36.84 52.095 37.735 51.2 38.84 51.2 H43.64C44.136 51.2 44.64 50.696 44.64 50.2 V31.7 M52.772 24.45L54.326 29.198 H44.622 V23.05 H50.972C51.772 23.05 52.572 23.65 52.772 24.45 M28.5 46.5 V45.5C28.5 44.3 27.7 43.5 26.5 43.5 H13.5C12.3 43.5 11.5 44.3 11.5 45.5 V54.5C11.5 55.7 12.3 56.5 13.5 56.5 H26.5C27.7 56.5 28.5 55.7 28.5 54.5 V53.5 H29.9C31.1 53.5 31.9 52.7 31.9 51.5 V48.5C31.9 47.3 31.1 46.5 29.9 46.5 H28.5 M16.814 13.8C16.033 13.019 14.766 13.02 13.985 13.801C13.204 14.582 13.205 15.849 13.986 16.63L15.386 18.03C16.167 18.811 17.434 18.81 18.215 18.029C18.996 17.248 18.995 15.981 18.214 15.2L16.814 13.8 M10 23.414C10 22.309 10.895 21.414 12 21.414 H14C15.105 21.414 16 22.309 16 23.414C16 24.519 15.105 25.414 14 25.414 H12C10.895 25.414 10 24.519 10 23.414 M18.214 31.63C18.995 30.849 18.996 29.582 18.215 28.801C17.434 28.02 16.167 28.019 15.386 28.8L13.986 30.2C13.205 30.981 13.204 32.248 13.985 33.029C14.766 33.81 16.033 33.811 16.814 33.03L18.214 31.63 M23.6 30.816C24.705 30.816 25.6 31.711 25.6 32.816 V34.816C25.6 35.921 24.705 36.816 23.6 36.816C22.495 36.816 21.6 35.921 21.6 34.816 V32.816C21.6 31.711 22.495 30.816 23.6 30.816 M33.014 16.63C33.795 15.849 33.796 14.582 33.015 13.801C32.234 13.02 30.967 13.019 30.186 13.8L28.786 15.2C28.005 15.981 28.004 17.248 28.785 18.029C29.566 18.81 30.833 18.811 31.614 18.03L33.014 16.63"></path></g></g></g><g id="g-root-ic_hous_940kro19l47ih-fill" data-item-order="-2304" transform="translate(543, 578)"><g id="ic_hous_940kro19l47ih-fill-merged" stroke="none" fill="#ffffff" fill-opacity="1"><g><path d="M57.64 45.24L44.64 34.24C44.272 33.923 43.728 33.923 43.36 34.24L30.36 45.24C30.043 45.511 29.928 45.95 30.07 46.342C30.213 46.734 30.583 46.996 31 47 H33C33.552 47 34 47.448 34 48 V57C34 57.552 34.448 58 35 58 H40C40.552 58 41 57.552 41 57 V52.5C41 50.843 42.343 49.5 44 49.5C45.657 49.5 47 50.843 47 52.5 V57C47 57.552 47.448 58 48 58 H53C53.552 58 54 57.552 54 57 V48C54 47.448 54.448 47 55 47 H57C57.417 46.996 57.787 46.734 57.93 46.342C58.072 45.95 57.957 45.511 57.64 45.24 M31 49C29.735 49.021 28.592 48.247 28.144 47.063C27.696 45.88 28.038 44.542 29 43.72L33.58 39.84C33.811 39.647 33.943 39.361 33.94 39.06 V22.6C33.942 21.867 33.543 21.192 32.9 20.84L30.9 19.76C30.578 19.594 30.377 19.262 30.38 18.9 V12C30.38 10.895 29.485 10 28.38 10C27.275 10 26.38 10.895 26.38 12 V15.6C26.386 15.955 26.2 16.286 25.893 16.465C25.585 16.643 25.206 16.641 24.9 16.46L13.84 10.32C13.035 9.883 12.06 9.902 11.273 10.37C10.485 10.837 10.002 11.684 10 12.6 V20C10 20.552 10.448 21 11 21 H18.5C19.328 21 20 21.672 20 22.5C20 23.328 19.328 24 18.5 24 H11C10.448 24 10 24.448 10 25 V27C10 27.552 10.448 28 11 28 H20.5C21.328 28 22 28.672 22 29.5C22 30.328 21.328 31 20.5 31 H11C10.448 31 10 31.448 10 32 V34C10 34.552 10.448 35 11 35 H24.5C25.328 35 26 35.672 26 36.5C26 37.328 25.328 38 24.5 38 H11C10.448 38 10 38.448 10 39 V57C10 57.552 10.448 58 11 58 H17C17.552 58 18 57.552 18 57 V51C18 49.895 18.895 49 20 49 H24C25.105 49 26 49.895 26 51 V57C26 57.552 26.448 58 27 58 H31C31.552 58 32 57.552 32 57 V50C32 49.448 31.552 49 31 49"></path></g></g></g><g id="g-root-ic_1_1umszl019koqo8-fill" data-item-order="-2304" transform="translate(507, 446)"><g id="ic_1_1umszl019koqo8-fill-merged" stroke="none" fill="#ffffff" fill-opacity="1"><g><path d="M42.86 39.1C42.86 41.861 45.099 44.1 47.86 44.1C50.621 44.1 52.86 41.861 52.86 39.1C52.86 36.339 50.621 34.1 47.86 34.1C45.099 34.1 42.86 36.339 42.86 39.1 M16.38 39C16.379 41.53 18.43 43.581 20.96 43.581C23.49 43.581 25.541 41.53 25.54 39C25.541 36.47 23.49 34.419 20.96 34.419C18.43 34.419 16.379 36.47 16.38 39 M28.52 51.18C27.414 47.989 24.423 45.837 21.046 45.801C17.669 45.765 14.634 47.853 13.46 51.02 M56.44 53.54 H56.3C55.581 49.432 52.011 46.436 47.84 46.44C47.431 46.443 47.024 46.476 46.62 46.54L49.24 53.54 H46L43.18 46C42.975 45.439 42.437 45.069 41.84 45.08 H30.1C29.866 45.08 29.647 45.193 29.511 45.384C29.376 45.575 29.342 45.819 29.42 46.04L32.26 53.6 H11.56C10.732 53.6 10.06 54.272 10.06 55.1C10.06 55.928 10.732 56.6 11.56 56.6 H56.44C57.268 56.6 57.94 55.928 57.94 55.1C57.94 54.272 57.268 53.6 56.44 53.6 V53.54 M37.3 48.36C38.217 48.36 38.96 49.103 38.96 50.02C38.96 50.937 38.217 51.68 37.3 51.68C36.383 51.68 35.64 50.937 35.64 50.02C35.64 49.103 36.383 48.36 37.3 48.36 M38 27.08L36.98 20.96C36.902 20.478 36.488 20.123 36 20.12 H34.44 V12.96C34.44 12.132 33.768 11.46 32.94 11.46C32.112 11.46 31.44 12.132 31.44 12.96 V20.12 H30C29.512 20.123 29.098 20.478 29.02 20.96L28 27.08C27.885 27.39 27.938 27.738 28.14 28C28.33 28.221 28.609 28.345 28.9 28.34 H37.06C37.351 28.345 37.63 28.221 37.82 28C38.036 27.745 38.104 27.397 38 27.08"></path></g></g></g><g id="g-root-tx_responsi_dil7vo19krksj-fill" data-item-order="0" transform="translate(74, 342)"><g id="tx_responsi_dil7vo19krksj-fill-merged" stroke="none" fill="#92bd39" fill-opacity="1"><g><text style="font: bold 20px Roboto, sans-serif; white-space: pre;" transform="translate(118, 46)" font-weight="bold" font-size="20px" font-family="Roboto, sans-serif"><tspan x="-106.01" y="-12" dominant-baseline="ideographic">Responsive </tspan><tspan x="-63.9" y="12" dominant-baseline="ideographic">Energy </tspan><tspan x="-79.82" y="36" dominant-baseline="ideographic">Systems</tspan></text></g></g></g><g id="g-root-tx_designin_v98rac19krll6-fill" data-item-order="0" transform="translate(296, 182)"><g id="tx_designin_v98rac19krll6-fill-merged" stroke="none" fill="#484848" fill-opacity="1"><g><text style="font: 15px Roboto, sans-serif; white-space: pre;" transform="translate(100, 46)" font-size="15px" font-family="Roboto, sans-serif"><tspan x="-86.18" y="0" dominant-baseline="ideographic">Designing for lightweight, </tspan><tspan x="-75.44" y="18" dominant-baseline="ideographic">sustainable, simplicity</tspan></text></g></g></g><g id="g-root-tx_interdis_qs6azo19krk7b-fill" data-item-order="0" transform="translate(590, 342)"><g id="tx_interdis_qs6azo19krk7b-fill-merged" stroke="none" fill="#de8431" fill-opacity="1"><g><text style="font: bold 20px Roboto, sans-serif; white-space: pre;" transform="translate(10, 34)" font-weight="bold" font-size="20px" font-family="Roboto, sans-serif"><tspan x="2" y="-0" dominant-baseline="ideographic">Adaptable User </tspan><tspan x="2" y="24" dominant-baseline="ideographic">Interfaces</tspan></text></g></g></g><g id="g-root-tx_explorin_1qd88bo19krjt8-fill" data-item-order="0" transform="translate(38, 426)"><g id="tx_explorin_1qd88bo19krjt8-fill-merged" stroke="none" fill="#484848" fill-opacity="1"><g><text style="font: 15px Roboto, sans-serif; white-space: pre;" transform="translate(154, 28)" font-size="15px" font-family="Roboto, sans-serif"><tspan x="-134.04" y="0" dominant-baseline="ideographic">Exploring adaptable </tspan><tspan x="-101.68" y="18" dominant-baseline="ideographic">user interfaces</tspan></text></g></g></g><g id="g-root-tx_workingw_5vrc419krk7c-fill" data-item-order="0" transform="translate(590, 402)"><g id="tx_workingw_5vrc419krk7c-fill-merged" stroke="none" fill="#484848" fill-opacity="1"><g><text style="font: 15px Roboto, sans-serif; white-space: pre;" transform="translate(10, 40)" font-size="15px" font-family="Roboto, sans-serif"><tspan x="2" y="-9" dominant-baseline="ideographic">Integrating </tspan><tspan x="2" y="9" dominant-baseline="ideographic">immersive user </tspan><tspan x="2" y="27" dominant-baseline="ideographic">experience</tspan></text></g></g></g><g id="g-root-tx_innovati_mb3up019kritg-fill" data-item-order="0" transform="translate(303, 446)"><g id="tx_innovati_mb3up019kritg-fill-merged" stroke="none" fill="#484848" fill-opacity="1"><g><text style="font: bold 20px Roboto, sans-serif; white-space: pre;" transform="translate(94, 22)" font-weight="bold" font-size="20px" font-family="Roboto, sans-serif"><tspan x="-79.97" y="12" dominant-baseline="ideographic">Innovative Design</tspan></text></g></g></g><g id="g-root-tx_mobility_18kp9no19krk09-fill" data-item-order="0" transform="translate(326, 98)"><g id="tx_mobility_18kp9no19krk09-fill-merged" stroke="none" fill="#e0cb15" fill-opacity="1"><g><text style="font: bold 20px Roboto, sans-serif; white-space: pre;" transform="translate(70, 46)" font-weight="bold" font-size="20px" font-family="Roboto, sans-serif"><tspan x="-55.33" y="-12" dominant-baseline="ideographic">Lightweight </tspan><tspan x="-52.95" y="12" dominant-baseline="ideographic">Fabrication </tspan><tspan x="-42.04" y="36" dominant-baseline="ideographic">Methods</tspan></text></g></g></g><g id="g-root-tx_designin_zqb4f819l47ig-fill" data-item-order="0" transform="translate(146, 38)"><g id="tx_designin_zqb4f819l47ig-fill-merged" stroke="none" fill="#484848" fill-opacity="1"><g><text style="font: bold 25px Roboto, sans-serif; white-space: pre;" transform="translate(250, 28)" font-weight="bold" font-size="25px" font-family="Roboto, sans-serif"><tspan x="-235.62" y="15" dominant-baseline="ideographic">Designing Meaningful Luxury Experiences</tspan></text></g></g></g><g id="g-root-tx_circular_mfh6as19krle6-fill" data-item-order="0" transform="translate(488, 746)"><g id="tx_circular_mfh6as19krle6-fill-merged" stroke="none" fill="#484848" fill-opacity="1"><g><text style="font: 15px Roboto, sans-serif; white-space: pre;" transform="translate(88, 28)" font-size="15px" font-family="Roboto, sans-serif"><tspan x="-70.82" y="0" dominant-baseline="ideographic">Circular, regenerative </tspan><tspan x="-57.65" y="18" dominant-baseline="ideographic">design principles</tspan></text></g></g></g><g id="g-root-tx_designco_1luacro19krjf1-fill" data-item-order="0" transform="translate(207, 662)"><g id="tx_designco_1luacro19krjf1-fill-merged" stroke="none" fill="#484848" fill-opacity="1"><g><text style="font: bold 20px Roboto, sans-serif; white-space: pre;" transform="translate(64, 34)" font-weight="bold" font-size="20px" font-family="Roboto, sans-serif"><tspan x="-31.01" y="-0" dominant-baseline="ideographic">Design </tspan><tspan x="-51.94" y="24" dominant-baseline="ideographic">Constraints</tspan></text></g></g></g><g id="g-root-tx_meaningf_18mkox019krj0l-fill" data-item-order="0" transform="translate(506, 662)"><g id="tx_meaningf_18mkox019krj0l-fill-merged" stroke="none" fill="#484848" fill-opacity="1"><g><text style="font: bold 20px Roboto, sans-serif; white-space: pre;" transform="translate(70, 46)" font-weight="bold" font-size="20px" font-family="Roboto, sans-serif"><tspan x="-51.45" y="-12" dominant-baseline="ideographic">Meaningful </tspan><tspan x="-30.92" y="12" dominant-baseline="ideographic">Luxury </tspan><tspan x="-55.34" y="36" dominant-baseline="ideographic">Experiences</tspan></text></g></g></g><g id="g-root-tx_balancin_1430c9w19krls6-fill" data-item-order="0" transform="translate(195, 722)"><g id="tx_balancin_1430c9w19krls6-fill-merged" stroke="none" fill="#484848" fill-opacity="1"><g><text style="font: 15px Roboto, sans-serif; white-space: pre;" transform="translate(76, 40)" font-size="15px" font-family="Roboto, sans-serif"><tspan x="-34.77" y="-9" dominant-baseline="ideographic">Balancing </tspan><tspan x="-61.61" y="9" dominant-baseline="ideographic">aerospace, space, </tspan><tspan x="-38.14" y="27" dominant-baseline="ideographic">experience</tspan></text></g></g></g><g id="g-root-cp_resolution_g-resolution_1qclo2s19l47ib-stroke" data-item-order="-553526" transform="translate(386, 554)"><g id="cp_resolution_g-resolution_1qclo2s19l47ib-stroke" fill="none" stroke-linecap="round" stroke-linejoin="round" stroke-miterlimit="4" stroke="#ffffff" stroke-width="2" stroke-opacity="1"><g><path d="M 10 94L 262 94L 262 106L 298 58L 262 10L 262 22L 154.0002 22"></path></g></g></g><g id="g-root-cp_3_g-3_1hgyntw19l48b0-stroke" data-item-order="-553520" transform="translate(206, 368)"><g id="cp_3_g-3_1hgyntw19l48b0-stroke" fill="none" stroke-linecap="round" stroke-linejoin="round" stroke-miterlimit="4" stroke="#ffffff" stroke-width="2" stroke-opacity="1"><g><path d="M 45.9999 208C 41.6952 202.2604 37.7246 196.2513 34.1154 190C 18.3171 162.6366 10 131.5966 10 100C 10 68.4034 18.3171 37.3635 34.1154 10M 96.392 45.9554C 86.9051 62.387 81.9107 81.0264 81.9107 100C 81.9107 118.9737 86.9051 137.613 96.3919 154.0447C 105.8787 170.4763 119.5237 184.1213 135.9554 193.6081C 151.1171 202.3617 168.1584 207.2905 185.6077 208"></path></g></g></g><g id="g-root-cp_2_g-2_1d1rmsk19l45xh-stroke" data-item-order="-553514" transform="translate(230.08602905273438, 278)"><g id="cp_2_g-2_1d1rmsk19l45xh-stroke" fill="none" stroke-linecap="round" stroke-linejoin="round" stroke-miterlimit="4" stroke="#ffffff" stroke-width="2" stroke-opacity="1"><g><path d="M 321.769069 99.9491C 305.961869 72.5908 283.231569 49.8754 255.862969 34.086C 228.494369 18.2967 197.451769 9.9897 165.855069 10C 134.258569 10.0103 103.221269 18.3376 75.862969 34.1449C 48.504669 49.9521 25.789369 72.6823 9.999969 100.051L 72.288269 135.986C 81.769669 119.5512 95.410169 105.9018 111.838769 96.4096C 128.267269 86.9174 146.904969 81.9169 165.878669 81.9107C 184.852269 81.9045 203.493269 86.8928 219.927969 96.3743C 236.362769 105.8557 250.012169 119.4962 259.504369 135.9248"></path></g></g></g><g id="g-root-cp_1_g-1_1d1rmsk19l45xi-stroke" data-item-order="-553508" transform="translate(385.78900146484375, 368.18310546875)"><g id="cp_1_g-1_1d1rmsk19l45xi-stroke" fill="none" stroke-linecap="round" stroke-linejoin="round" stroke-miterlimit="4" stroke="#ffffff" stroke-width="2" stroke-opacity="1"><g><path d="M 10 279.8168C 41.5966 279.8539 72.6463 271.5733 100.0283 255.8071C 127.4103 240.0409 150.1598 217.3448 165.9902 189.9999C 181.8206 162.655 190.1742 131.6249 190.2113 100.0283C 190.2483 68.4317 181.9677 37.382 166.2015 10L 103.8828 45.8822C 113.3503 62.325 118.3229 80.9702 118.3006 99.9439C 118.2783 118.9175 113.262 137.551 103.7559 153.9715C 94.2498 170.392 80.5889 184.0209 64.1461 193.4884C 47.7033 202.9559 29.0581 207.9284 10.0844 207.9062"></path></g></g></g><g id="g-root-cp_problem_g-problem_1464mjo19l46q7-stroke" data-item-order="-553502" transform="translate(133, 566)"><g id="cp_problem_g-problem_1464mjo19l46q7-stroke" fill="none" stroke-linecap="round" stroke-linejoin="round" stroke-miterlimit="4" stroke="#ffffff" stroke-width="2" stroke-opacity="1"><g><path d="M 10 10L 263 10L 263 82L 10 82L 10 10Z"></path></g></g></g><g id="g-root-ic_2_zkoxt019korgh-stroke" data-item-order="-2304" transform="translate(238, 578)"></g><g id="g-root-ic_scoo_1q8uwpw19kncas-stroke" data-item-order="-2304" transform="translate(362, 290)"></g><g id="g-root-ic_batt_qwjjfo19l6znt-stroke" data-item-order="-2304" transform="translate(218, 446)"></g><g id="g-root-ic_hous_940kro19l47ih-stroke" data-item-order="-2304" transform="translate(543, 578)"></g><g id="g-root-ic_1_1umszl019koqo8-stroke" data-item-order="-2304" transform="translate(507, 446)"></g><g id="g-root-tx_responsi_dil7vo19krksj-stroke" data-item-order="0" transform="translate(74, 342)"></g><g id="g-root-tx_designin_v98rac19krll6-stroke" data-item-order="0" transform="translate(296, 182)"></g><g id="g-root-tx_interdis_qs6azo19krk7b-stroke" data-item-order="0" transform="translate(590, 342)"></g><g id="g-root-tx_explorin_1qd88bo19krjt8-stroke" data-item-order="0" transform="translate(38, 426)"></g><g id="g-root-tx_workingw_5vrc419krk7c-stroke" data-item-order="0" transform="translate(590, 402)"></g><g id="g-root-tx_innovati_mb3up019kritg-stroke" data-item-order="0" transform="translate(303, 446)"></g><g id="g-root-tx_mobility_18kp9no19krk09-stroke" data-item-order="0" transform="translate(326, 98)"></g><g id="g-root-tx_designin_zqb4f819l47ig-stroke" data-item-order="0" transform="translate(146, 38)"></g><g id="g-root-tx_circular_mfh6as19krle6-stroke" data-item-order="0" transform="translate(488, 746)"></g><g id="g-root-tx_designco_1luacro19krjf1-stroke" data-item-order="0" transform="translate(207, 662)"></g><g id="g-root-tx_meaningf_18mkox019krj0l-stroke" data-item-order="0" transform="translate(506, 662)"></g><g id="g-root-tx_balancin_1430c9w19krls6-stroke" data-item-order="0" transform="translate(195, 722)"></g></g></g></svg>