<?xml version="1.0" encoding="utf-8" standalone="yes"?>
<!DOCTYPE svg PUBLIC "-//W3C//DTD SVG 1.1//EN" "http://www.w3.org/Graphics/SVG/1.1/DTD/svg11.dtd">
<svg style="fill:none;stroke:none;fill-rule:evenodd;clip-rule:evenodd;stroke-linecap:round;stroke-linejoin:round;stroke-miterlimit:1.5;" version="1.1" xmlns="http://www.w3.org/2000/svg" xmlns:xlink="http://www.w3.org/1999/xlink" width="888" height="576" viewBox="0 0 888 576"><style class="text-font-style fontImports" data-font-family="Roboto">@import url(https://fonts.googleapis.com/css2?family=Roboto:wght@400;700&amp;amp;display=block);</style><g id="items" style="isolation: isolate"><g id="blend" style="mix-blend-mode: normal"><g id="g-root-cp_3_g-3_1ha2k9g1bsljid-fill" data-item-order="-403190" transform="translate(434, 206.0009765625)"><g id="cp_3_g-3_1ha2k9g1bsljid-fill-merged" stroke="none" fill="#92bd39" fill-opacity="1"><g><path d="M70 10L190 79.282 V217.846L129.999 252.488L70 287.129L10.001 252.487L70.001 217.846 V79.281L10 44.641L70 10"></path></g></g></g><g id="g-root-cp_1_g-1_1ha2k9g1bsljie-fill" data-item-order="-403186" transform="translate(254.00100708007812, 206)"><g id="cp_1_g-1_1ha2k9g1bsljie-fill-merged" stroke="none" fill="#e0cb15" fill-opacity="1"><g><path d="M10 217.846 V79.282L130 10L189.999 44.642L129.999 79.283 V217.848L190 252.488L130 287.129L70 252.487L10 217.846"></path></g></g></g><g id="g-root-cp_2_g-2_18f213o1bslh5b-fill" data-item-order="-403182" transform="translate(374, 240.64208984375)"><g id="cp_2_g-2_18f213o1bslh5b-fill-merged" stroke="none" fill="#de8431" fill-opacity="1"><g><path d="M10 44.641L70 10L130.001 44.64 V183.204L70.001 217.845L10.001 183.205 V44.641"></path></g></g></g><g id="g-root-ic_boat_dcxzbo1bslhxl-fill" data-item-order="-3600" transform="translate(404, 315)"><g id="ic_boat_dcxzbo1bslhxl-fill-merged" stroke="none" fill="#ffffff" fill-opacity="1"><g><path d="M17.5 46.25C17.5 49.011 19.739 51.25 22.5 51.25C25.261 51.25 27.5 49.011 27.5 46.25C27.5 43.489 25.261 41.25 22.5 41.25C19.739 41.25 17.5 43.489 17.5 46.25 M52.5 27.15C52.709 27.37 52.997 27.496 53.3 27.5C53.612 27.503 53.91 27.376 54.125 27.15L62.175 18.85C63.768 17.286 64.172 14.873 63.175 12.875C62.401 11.388 60.969 10.354 59.314 10.088C57.659 9.822 55.976 10.355 54.775 11.525L54.175 12.075C53.699 12.504 52.976 12.504 52.5 12.075L51.875 11.525C50.679 10.345 48.992 9.805 47.333 10.072C45.674 10.338 44.241 11.379 43.475 12.875C42.471 14.868 42.865 17.28 44.45 18.85L52.5 27.15 M37.75 37.35C37.89 37.489 38.078 37.57 38.275 37.575C38.464 37.563 38.641 37.483 38.775 37.35L44 31.975C45.046 30.967 45.31 29.394 44.65 28.1C44.144 27.139 43.216 26.472 42.144 26.3C41.072 26.128 39.981 26.471 39.2 27.225C38.677 27.73 37.848 27.73 37.325 27.225C36.549 26.471 35.461 26.128 34.393 26.3C33.324 26.472 32.4 27.14 31.9 28.1C31.228 29.383 31.471 30.955 32.5 31.975L37.75 37.35 M59.775 51.25C59.979 51.253 60.169 51.149 60.275 50.975C60.373 50.796 60.373 50.579 60.275 50.4C58.401 45.665 53.842 42.54 48.75 42.5 H33.75C32.369 42.5 31.25 43.619 31.25 45 V50.625C31.25 50.97 31.53 51.25 31.875 51.25 H59.775 M67.5 48.75C66.119 48.75 65 49.869 65 51.25 V53.75C65 54.44 64.44 55 63.75 55 H16.25C15.56 55 15 54.44 15 53.75 V37.5C15 36.119 13.881 35 12.5 35C11.119 35 10 36.119 10 37.5 V67.5C10 68.881 11.119 70 12.5 70C13.881 70 15 68.881 15 67.5 V63.75C15 63.06 15.56 62.5 16.25 62.5 H63.75C64.44 62.5 65 63.06 65 63.75 V67.5C65 68.881 66.119 70 67.5 70C68.881 70 70 68.881 70 67.5 V51.25C70 49.869 68.881 48.75 67.5 48.75"></path></g></g></g><g id="g-root-ic_hote_v63f2s1bssirs-fill" data-item-order="-2304" transform="translate(302, 321)"><g id="ic_hote_v63f2s1bssirs-fill-merged" stroke="none" fill="#ffffff" fill-opacity="1"><g><path d="M29.52 18.48C29.827 18.73 29.953 19.141 29.84 19.52L29.1 22.2C28.983 22.722 29.193 23.263 29.631 23.57C30.069 23.877 30.649 23.889 31.1 23.6L33.38 22C33.746 21.72 34.254 21.72 34.62 22L36.8 23.72C37.251 24.009 37.831 23.997 38.269 23.69C38.707 23.383 38.917 22.842 38.8 22.32L38.06 19.6C37.956 19.227 38.081 18.827 38.38 18.58L40.38 16.84C40.816 16.483 40.976 15.888 40.78 15.36C40.583 14.846 40.091 14.505 39.54 14.5 H37.34C36.926 14.497 36.554 14.244 36.4 13.86L35.24 10.84C35.032 10.337 34.544 10.007 34 10C33.46 10.004 32.976 10.337 32.78 10.84L31.6 13.76C31.446 14.144 31.074 14.397 30.66 14.4 H28.32C27.758 14.39 27.252 14.737 27.059 15.264C26.865 15.792 27.026 16.384 27.46 16.74L29.52 18.48 M24.68 22.48 H22.34C21.929 22.486 21.556 22.24 21.4 21.86L20.24 18.92C20.03 18.421 19.541 18.098 19 18.1C18.463 18.095 17.978 18.421 17.78 18.92L16.6 21.86C16.444 22.24 16.071 22.486 15.66 22.48 H13.32C12.737 22.46 12.206 22.814 12 23.36C11.802 23.878 11.955 24.464 12.38 24.82L14.38 26.58C14.688 26.82 14.816 27.227 14.7 27.6L13.96 30.28C13.797 30.833 14.016 31.427 14.5 31.74C14.968 32.068 15.592 32.068 16.06 31.74L18.38 30C18.746 29.72 19.254 29.72 19.62 30L21.8 31.72C22.251 32.009 22.831 31.997 23.269 31.69C23.707 31.383 23.917 30.842 23.8 30.32L23.16 27.6C23.057 27.221 23.182 26.816 23.48 26.56L25.48 24.82C25.962 24.505 26.174 23.908 26 23.36C25.794 22.814 25.263 22.46 24.68 22.48 M22.68 38.4 H20.34C19.926 38.397 19.554 38.144 19.4 37.76L18.24 34.84C18.032 34.337 17.544 34.007 17 34C16.46 34.004 15.976 34.337 15.78 34.84L14.6 37.76C14.446 38.144 14.074 38.397 13.66 38.4 H11.32C10.758 38.39 10.252 38.737 10.059 39.264C9.865 39.792 10.026 40.384 10.46 40.74L12.46 42.48C12.767 42.73 12.893 43.141 12.78 43.52L12.1 46.2C11.934 46.756 12.15 47.355 12.633 47.676C13.115 47.998 13.751 47.967 14.2 47.6L16.38 46C16.746 45.72 17.254 45.72 17.62 46L19.8 47.72C20.251 48.009 20.831 47.997 21.269 47.69C21.707 47.383 21.917 46.842 21.8 46.32L21.06 43.6C20.956 43.227 21.081 42.827 21.38 42.58L23.38 40.84C23.816 40.483 23.976 39.888 23.78 39.36C23.635 38.851 23.204 38.475 22.68 38.4 M44.84 27.6L44.1 30.32C43.934 30.876 44.15 31.475 44.633 31.796C45.115 32.118 45.751 32.087 46.2 31.72L48.38 30C48.746 29.72 49.254 29.72 49.62 30L51.8 31.7C52.268 32.028 52.892 32.028 53.36 31.7C53.844 31.387 54.063 30.793 53.9 30.24L53.16 27.6C53.044 27.227 53.172 26.82 53.48 26.58L55.48 24.82C55.956 24.501 56.167 23.908 56 23.36C55.805 22.841 55.314 22.493 54.76 22.48 H52.34C51.929 22.486 51.556 22.24 51.4 21.86L50.22 18.92C50.022 18.421 49.537 18.095 49 18.1C48.459 18.098 47.97 18.421 47.76 18.92L46.6 21.86C46.444 22.24 46.071 22.486 45.66 22.48 H43.32C42.766 22.493 42.275 22.841 42.08 23.36C41.88 23.882 42.042 24.473 42.48 24.82L44.48 26.56C44.793 26.807 44.933 27.213 44.84 27.6 M57.54 40.74C57.974 40.384 58.135 39.792 57.941 39.264C57.748 38.737 57.242 38.39 56.68 38.4 H54.34C53.926 38.397 53.554 38.144 53.4 37.76L52.22 34.84C52.024 34.337 51.54 34.004 51 34C50.456 34.007 49.968 34.337 49.76 34.84L48.6 37.76C48.446 38.144 48.074 38.397 47.66 38.4 H45.32C44.769 38.405 44.277 38.746 44.08 39.26C43.884 39.788 44.044 40.383 44.48 40.74L46.48 42.48C46.779 42.727 46.904 43.127 46.8 43.5L46.06 46.22C45.894 46.776 46.11 47.375 46.593 47.696C47.075 48.018 47.711 47.987 48.16 47.62L50.38 46C50.746 45.72 51.254 45.72 51.62 46L53.8 47.7C54.214 48.307 55.042 48.464 55.65 48.05C56.257 47.636 56.414 46.808 56 46.2L55.26 43.52C55.147 43.141 55.273 42.73 55.58 42.48L57.54 40.74 M39.82 28.58 H28C26.895 28.58 26 29.475 26 30.58 V57C26 57.552 26.448 58 27 58 H30C30.552 58 31 57.552 31 57 V53C31 52.448 31.448 52 32 52 H36C36.552 52 37 52.448 37 53 V57C37 57.552 37.448 58 38 58 H41C41.552 58 42 57.552 42 57 V30.58C42 29.475 41.105 28.58 40 28.58 M32 46.9C32 47.452 31.552 47.9 31 47.9 H30C29.448 47.9 29 47.452 29 46.9 V46C29 45.448 29.448 45 30 45 H31C31.552 45 32 45.448 32 46 V46.9 M32 40.9C32 41.452 31.552 41.9 31 41.9 H30C29.448 41.9 29 41.452 29 40.9 V40C29 39.448 29.448 39 30 39 H31C31.552 39 32 39.448 32 40 V40.9 M39 46.9C39 47.452 38.552 47.9 38 47.9 H37C36.448 47.9 36 47.452 36 46.9 V46C36 45.448 36.448 45 37 45 H38C38.552 45 39 45.448 39 46 V46.9 M39 40.9C39 41.452 38.552 41.9 38 41.9 H37C36.448 41.9 36 41.452 36 40.9 V40C36 39.448 36.448 39 37 39 H38C38.552 39 39 39.448 39 40 V40.9 M32 34.52C32 35.072 31.552 35.52 31 35.52 H30C29.448 35.52 29 35.072 29 34.52 V33.52C29 32.968 29.448 32.52 30 32.52 H31C31.548 32.531 31.989 32.972 32 33.52 V34.52 M39 34.52C39 35.072 38.552 35.52 38 35.52 H37C36.448 35.52 36 35.072 36 34.52 V33.52C36 32.968 36.448 32.52 37 32.52 H38C38.548 32.531 38.989 32.972 39 33.52 V34.52"></path></g></g></g><g id="g-root-ic_scoo_4hxg5w1bssjri-fill" data-item-order="-2304" transform="translate(518, 321)"><g id="ic_scoo_4hxg5w1bssjri-fill-merged" stroke="none" fill="#ffffff" fill-opacity="1"><g><path d="M13.38 28.6L17.08 30.32C17.218 30.35 17.362 30.35 17.5 30.32 H30.5C32.32 30.32 33.5 28.12 33.5 26.62 V26.4C33.5 25.295 32.605 24.4 31.5 24.4 H14.5C13.395 24.4 12.5 25.295 12.5 26.4 V26.98C12.497 27.512 12.706 28.023 13.08 28.4C13.163 28.489 13.266 28.557 13.38 28.6 M54.7 44.9 H42.3C42.046 44.898 41.831 45.088 41.8 45.34C41.779 45.613 41.779 45.887 41.8 46.16C41.995 49.745 44.959 52.552 48.55 52.552C52.141 52.552 55.105 49.745 55.3 46.16 V45.34C55.28 45.201 55.206 45.076 55.093 44.994C54.98 44.911 54.838 44.877 54.7 44.9 M27.38 46.9 H15.62C15.466 46.895 15.318 46.962 15.22 47.08C15.173 47.209 15.173 47.351 15.22 47.48C15.718 50.617 18.424 52.926 21.6 52.926C24.776 52.926 27.482 50.617 27.98 47.48C28 47.336 27.956 47.189 27.86 47.08C27.745 46.936 27.561 46.867 27.38 46.9 M48.5 32.9 H46.92C46.777 32.899 46.641 32.841 46.54 32.74C46.441 32.632 46.397 32.485 46.42 32.34 V26.24C46.419 26.051 46.528 25.879 46.7 25.8C46.857 25.693 47.063 25.693 47.22 25.8C48.464 26.66 49.913 27.177 51.42 27.3C52.525 27.3 53.42 26.405 53.42 25.3 V19.48C53.434 18.925 53.217 18.389 52.82 18C52.387 17.62 51.811 17.445 51.24 17.52C49.743 17.68 48.318 18.247 47.12 19.16C46.97 19.238 46.79 19.238 46.64 19.16C46.484 19.106 46.364 18.979 46.32 18.82C45.756 16.616 43.775 15.071 41.5 15.06 H38.5C37.395 15.06 36.5 15.955 36.5 17.06C36.5 18.165 37.395 19.06 38.5 19.06 H41.5C42.052 19.06 42.5 19.508 42.5 20.06 V31.06C42.494 34.764 40.417 38.153 37.12 39.84C36.982 39.911 36.818 39.911 36.68 39.84C36.544 39.78 36.441 39.663 36.4 39.52C35.198 35.051 31.128 31.96 26.5 32 H21.5C15.192 32.011 10.066 37.092 10 43.4C10 44.228 10.672 44.9 11.5 44.9 H32.5C35.057 44.952 37.573 44.257 39.74 42.9C39.824 42.871 39.916 42.871 40 42.9 H56.5C57.328 42.9 58 42.228 58 41.4C57.699 36.441 53.461 32.65 48.5 32.9"></path></g></g></g><g id="g-root-tx_wherelux_13z8iz81bslhxk-fill" data-item-order="0" transform="translate(170, 38)"><g id="tx_wherelux_13z8iz81bslhxk-fill-merged" stroke="none" fill="#484848" fill-opacity="1"><g><text style="font: bold 25px Roboto, sans-serif; white-space: pre;" transform="translate(274, 28)" font-weight="bold" font-size="25px" font-family="Roboto, sans-serif"><tspan x="-256.8" y="15" dominant-baseline="ideographic">Where Luxury Meets Sustainability in Mobility</tspan></text></g></g></g><g id="g-root-tx_responsi_zoetjo1bsvd3b-fill" data-item-order="0" transform="translate(326, 98)"><g id="tx_responsi_zoetjo1bsvd3b-fill-merged" stroke="none" fill="#de8431" fill-opacity="1"><g><text style="font: bold 20px Roboto, sans-serif; white-space: pre;" transform="translate(118, 34)" font-weight="bold" font-size="20px" font-family="Roboto, sans-serif"><tspan x="-101.67" y="-0" dominant-baseline="ideographic">Responsive, Transient </tspan><tspan x="-32.86" y="24" dominant-baseline="ideographic">Luxury</tspan></text></g></g></g><g id="g-root-tx_innovati_4mx8us1bsvaps-fill" data-item-order="0" transform="translate(326, 158)"><g id="tx_innovati_4mx8us1bsvaps-fill-merged" stroke="none" fill="#484848" fill-opacity="1"><g><text style="font: 15px Roboto, sans-serif; white-space: pre;" transform="translate(118, 28)" font-size="15px" font-family="Roboto, sans-serif"><tspan x="-101.8" y="0" dominant-baseline="ideographic">Innovative, ethical, and mobile </tspan><tspan x="-36.36" y="18" dominant-baseline="ideographic">hospitality</tspan></text></g></g></g><g id="g-root-tx_luxuryho_1utn8r81bsvdhf-fill" data-item-order="0" transform="translate(62, 314)"><g id="tx_luxuryho_1utn8r81bsvdhf-fill-merged" stroke="none" fill="#969696" fill-opacity="1"><g><text style="font: bold 20px Roboto, sans-serif; white-space: pre;" transform="translate(178, 22)" font-weight="bold" font-size="20px" font-family="Roboto, sans-serif"><tspan x="-164.83" y="12" dominant-baseline="ideographic">Luxury Hospitality</tspan></text></g></g></g><g id="g-root-tx_sustaina_1d14a381bsvdoh-fill" data-item-order="0" transform="translate(638, 314)"><g id="tx_sustaina_1d14a381bsvdoh-fill-merged" stroke="none" fill="#92bd39" fill-opacity="1"><g><text style="font: bold 20px Roboto, sans-serif; white-space: pre;" transform="translate(10, 22)" font-weight="bold" font-size="20px" font-family="Roboto, sans-serif"><tspan x="2" y="12" dominant-baseline="ideographic">Sustainable Mobility</tspan></text></g></g></g><g id="g-root-tx_highendc_18n67841bsvcp8-fill" data-item-order="0" transform="translate(74, 350)"><g id="tx_highendc_18n67841bsvcp8-fill-merged" stroke="none" fill="#484848" fill-opacity="1"><g><text style="font: 15px Roboto, sans-serif; white-space: pre;" transform="translate(166, 28)" font-size="15px" font-family="Roboto, sans-serif"><tspan x="-147.91" y="0" dominant-baseline="ideographic">High-end comfort and </tspan><tspan x="-49.64" y="18" dominant-baseline="ideographic">service</tspan></text></g></g></g><g id="g-root-tx_ecofrien_metqfo1bsvdoi-fill" data-item-order="0" transform="translate(638, 350)"><g id="tx_ecofrien_metqfo1bsvdoi-fill-merged" stroke="none" fill="#484848" fill-opacity="1"><g><text style="font: 15px Roboto, sans-serif; white-space: pre;" transform="translate(10, 28)" font-size="15px" font-family="Roboto, sans-serif"><tspan x="2" y="0" dominant-baseline="ideographic">Eco-friendly, adaptable </tspan><tspan x="2" y="18" dominant-baseline="ideographic">architecture</tspan></text></g></g></g><g id="g-root-cp_3_g-3_1ha2k9g1bsljid-stroke" data-item-order="-403190" transform="translate(434, 206.0009765625)"><g id="cp_3_g-3_1ha2k9g1bsljid-stroke" fill="none" stroke-linecap="round" stroke-linejoin="round" stroke-miterlimit="4" stroke="#ffffff" stroke-width="2" stroke-opacity="1"><g><path d="M 70.0001 10L 190.0002 79.2821L 190.0002 217.8463L 129.9991 252.4885L 70.0004 287.1285L 10.001 252.4866L 70.001 217.8456L 70.0007 148.5633L 70.0007 79.2812L 10 44.641L 70.0001 10Z"></path></g></g></g><g id="g-root-cp_1_g-1_1ha2k9g1bsljie-stroke" data-item-order="-403186" transform="translate(254.00100708007812, 206)"><g id="cp_1_g-1_1ha2k9g1bsljie-stroke" fill="none" stroke-linecap="round" stroke-linejoin="round" stroke-miterlimit="4" stroke="#ffffff" stroke-width="2" stroke-opacity="1"><g><path d="M 10 217.8463L 10 79.2821L 130.0001 10L 189.9995 44.6419L 129.9995 79.283L 129.9995 148.5651L 129.9997 217.8475L 189.9998 252.4877L 129.9997 287.1288L 70.0001 252.4873L 10 217.8463Z"></path></g></g></g><g id="g-root-cp_2_g-2_18f213o1bslh5b-stroke" data-item-order="-403182" transform="translate(374, 240.64208984375)"><g id="cp_2_g-2_18f213o1bslh5b-stroke" fill="none" stroke-linecap="round" stroke-linejoin="round" stroke-miterlimit="4" stroke="#ffffff" stroke-width="2" stroke-opacity="1"><g><path d="M 10 44.641L 70.0001 10L 130.0007 44.6402L 130.0007 113.9223L 130.0007 183.2043L 70.0007 217.8453L 10.0006 183.2052L 10 113.9231L 10 44.641Z"></path></g></g></g><g id="g-root-ic_boat_dcxzbo1bslhxl-stroke" data-item-order="-3600" transform="translate(404, 315)"></g><g id="g-root-ic_hote_v63f2s1bssirs-stroke" data-item-order="-2304" transform="translate(302, 321)"></g><g id="g-root-ic_scoo_4hxg5w1bssjri-stroke" data-item-order="-2304" transform="translate(518, 321)"></g><g id="g-root-tx_wherelux_13z8iz81bslhxk-stroke" data-item-order="0" transform="translate(170, 38)"></g><g id="g-root-tx_responsi_zoetjo1bsvd3b-stroke" data-item-order="0" transform="translate(326, 98)"></g><g id="g-root-tx_innovati_4mx8us1bsvaps-stroke" data-item-order="0" transform="translate(326, 158)"></g><g id="g-root-tx_luxuryho_1utn8r81bsvdhf-stroke" data-item-order="0" transform="translate(62, 314)"></g><g id="g-root-tx_sustaina_1d14a381bsvdoh-stroke" data-item-order="0" transform="translate(638, 314)"></g><g id="g-root-tx_highendc_18n67841bsvcp8-stroke" data-item-order="0" transform="translate(74, 350)"></g><g id="g-root-tx_ecofrien_metqfo1bsvdoi-stroke" data-item-order="0" transform="translate(638, 350)"></g></g></g></svg>