<?xml version="1.0" encoding="utf-8" standalone="yes"?>
<!DOCTYPE svg PUBLIC "-//W3C//DTD SVG 1.1//EN" "http://www.w3.org/Graphics/SVG/1.1/DTD/svg11.dtd">
<svg style="fill:none;stroke:none;fill-rule:evenodd;clip-rule:evenodd;stroke-linecap:round;stroke-linejoin:round;stroke-miterlimit:1.5;" version="1.1" xmlns="http://www.w3.org/2000/svg" xmlns:xlink="http://www.w3.org/1999/xlink" width="816" height="780" viewBox="0 0 816 780"><style class="text-font-style fontImports" data-font-family="Roboto">@import url(https://fonts.googleapis.com/css2?family=Roboto:wght@400;700&amp;amp;display=block);</style><g id="items" style="isolation: isolate"><g id="blend" style="mix-blend-mode: normal"><g id="g-root-cp_0_g-0_1lwrtcu13r74zu-fill" data-item-order="-525277" transform="translate(230, 242)"></g><g id="g-root-cp_1_g-1_18lxs2m13r73ez-fill" data-item-order="-525274" transform="translate(230, 242)"><g id="cp_1_g-1_18lxs2m13r73ez-fill-merged" stroke="none" fill="#4e88e7" fill-opacity="1"><g><path d="M141.78 122.142C149.497 110.673 154 96.862 154 82C154 42.236 121.765 10 82 10C42.236 10 10 42.236 10 82C10 121.765 42.236 154 82 154C96.301 154 109.628 149.831 120.832 142.641L154 154L141.78 122.142"></path></g></g></g><g id="g-root-cp_3_g-3_18lxs2m13r73f0-fill" data-item-order="-525270" transform="translate(230, 434)"><g id="cp_3_g-3_18lxs2m13r73f0-fill-merged" stroke="none" fill="#e0cb15" fill-opacity="1"><g><path d="M141.78 41.858C149.497 53.327 154 67.138 154 82C154 121.765 121.765 154 82 154C42.236 154 10 121.765 10 82C10 42.236 42.236 10 82 10C96.301 10 109.628 14.169 120.832 21.359L154 10L141.78 41.858"></path></g></g></g><g id="g-root-cp_2_g-2_14649y613r7479-fill" data-item-order="-525266" transform="translate(422, 242)"><g id="cp_2_g-2_14649y613r7479-fill-merged" stroke="none" fill="#3cc583" fill-opacity="1"><g><path d="M22.22 122.142C14.503 110.673 10 96.862 10 82C10 42.236 42.236 10 82 10C121.765 10 154 42.236 154 82C154 121.765 121.765 154 82 154C67.699 154 54.372 149.831 43.168 142.641L10 154L22.22 122.142"></path></g></g></g><g id="g-root-cp_4_g-4_vah9pa13r74zy-fill" data-item-order="-525262" transform="translate(422, 434)"><g id="cp_4_g-4_vah9pa13r74zy-fill-merged" stroke="none" fill="#92bd39" fill-opacity="1"><g><path d="M22.22 41.858C14.503 53.327 10 67.138 10 82C10 121.765 42.236 154 82 154C121.765 154 154 121.765 154 82C154 42.236 121.765 10 82 10C67.699 10 54.372 14.169 43.168 21.359L10 10L22.22 41.858"></path></g></g></g><g id="g-root-ic_2_znsyn213qvvv1-fill" data-item-order="-5184" transform="translate(458, 470)"><g id="ic_2_znsyn213qvvv1-fill-merged" stroke="none" fill="#ffffff" fill-opacity="1"><g><path d="M21.955 41.707C21.955 28.591 32.83 17.716 45.946 17.716C52.936 17.716 59.29 20.806 63.7 25.675L61.438 27.937C60.267 29.109 60.267 31.009 61.44 32.181C62.612 33.352 64.512 33.351 65.683 32.179L67.195 30.667C68.995 34.069 69.936 37.859 69.937 41.707C69.937 43.364 71.28 44.707 72.937 44.707C74.594 44.707 75.937 43.364 75.937 41.707C75.937 36.079 74.347 30.79 71.596 26.266L73.636 24.226C74.808 23.055 74.809 21.155 73.638 19.983C72.466 18.81 70.566 18.81 69.394 19.981L67.948 21.43C62.449 15.472 54.595 11.716 45.946 11.716C29.515 11.716 15.955 25.276 15.955 41.707C15.955 43.364 17.298 44.707 18.955 44.707C20.612 44.707 21.955 43.364 21.955 41.707 M38.416 38.188C36.37 38.188 34.609 39.469 34.183 41.602L30.79 58.57C30.379 59.914 30.82 61.222 31.63 62.098C32.533 63.364 33.862 63.754 35.008 63.754 H43.087 V74.263 H38.275C36.618 74.263 35.275 75.606 35.275 77.263C35.275 78.92 36.618 80.263 38.275 80.263 H53.902C55.559 80.263 56.902 78.92 56.902 77.263C56.902 75.606 55.559 74.263 53.902 74.263 H49.087 V63.754 H57.169C58.588 63.754 59.785 62.863 60.445 62.2C61.408 61.258 61.771 59.861 61.387 58.57L57.994 41.599C57.565 39.466 55.804 38.185 53.758 38.185 H38.416 M71.515 53.656C70.033 53.656 68.832 54.856 68.832 56.338C68.832 57.82 70.033 59.02 71.515 59.02C72.996 59.02 74.196 57.819 74.196 56.338C74.196 54.857 72.996 53.656 71.515 53.656 M62.833 56.338C62.832 51.542 66.719 47.654 71.515 47.654C76.311 47.654 80.198 51.542 80.197 56.338C80.196 61.132 76.309 65.018 71.515 65.018C66.721 65.018 62.834 61.132 62.833 56.338 M18.955 60.016C20.308 60.071 21.582 59.38 22.274 58.217C22.967 57.054 22.967 55.604 22.274 54.441C21.582 53.278 20.308 52.587 18.955 52.642C16.977 52.722 15.414 54.349 15.414 56.329C15.414 58.309 16.977 59.936 18.955 60.016"></path></g></g></g><g id="g-root-ic_1_8wij4u13rgzd1-fill" data-item-order="-5184" transform="translate(266, 470)"><g id="ic_1_8wij4u13rgzd1-fill-merged" stroke="none" fill="#ffffff" fill-opacity="1"><g><path d="M22 41.29C22.097 41.829 22.474 42.275 22.99 42.46C27.923 44.216 31.737 48.197 33.28 53.2C33.496 53.923 34.216 54.372 34.96 54.25C38.617 53.733 42.307 53.483 46 53.5C49.703 53.483 53.403 53.733 57.07 54.25C57.795 54.359 58.493 53.928 58.72 53.23C60.234 48.23 64.03 44.245 68.95 42.49C69.474 42.3 69.853 41.84 69.94 41.29L71.29 32.47C72.157 26.843 70.522 21.118 66.813 16.798C63.105 12.478 57.693 9.995 52 10 H40C34.307 9.995 28.895 12.478 25.187 16.798C21.478 21.118 19.843 26.843 20.71 32.47L22 41.29 M74.5 46C71.291 46 68.216 47.285 65.961 49.568C63.706 51.851 62.46 54.941 62.5 58.15C62.497 58.615 62.279 59.053 61.909 59.335C61.539 59.617 61.059 59.711 60.61 59.59C55.83 58.428 50.918 57.894 46 58C41.082 57.894 36.17 58.428 31.39 59.59C30.946 59.712 30.47 59.624 30.1 59.35C29.695 59.023 29.471 58.52 29.5 58C29.5 51.373 24.127 46 17.5 46C13.896 45.935 10.756 48.443 10.022 51.972C9.288 55.501 11.169 59.053 14.5 60.43C15.387 60.734 15.987 61.562 16 62.5 V65.5C16.025 70.516 19.594 74.814 24.52 75.76C25.23 75.89 25.747 76.508 25.75 77.23 V78.25C25.75 80.321 27.429 82 29.5 82C31.571 82 33.25 80.321 33.25 78.25 V77.5C33.25 76.672 33.922 76 34.75 76 H57.25C58.078 76 58.75 76.672 58.75 77.5 V78.25C58.75 80.321 60.429 82 62.5 82C64.571 82 66.25 80.321 66.25 78.25 V77.23C66.253 76.508 66.77 75.89 67.48 75.76C72.406 74.814 75.975 70.516 76 65.5 V62.5C75.994 61.593 76.54 60.773 77.38 60.43C80.711 59.053 82.592 55.501 81.858 51.972C81.124 48.443 77.984 45.935 74.38 46 H74.5"></path></g></g></g><g id="g-root-ic_peop_8x507y13re3v1-fill" data-item-order="-5184" transform="translate(458, 278)"><g id="ic_peop_8x507y13re3v1-fill-merged" stroke="none" fill="#ffffff" fill-opacity="1"><g><path d="M62.5 40.75C62.5 38.265 60.485 36.25 58 36.25C55.515 36.25 53.5 38.265 53.5 40.75 V46C53.5 46.414 53.836 46.75 54.25 46.75 H61.75C62.164 46.75 62.5 46.414 62.5 46 V40.75 M50.5 24.25C50.5 28.392 53.858 31.75 58 31.75C62.142 31.75 65.5 28.392 65.5 24.25C65.5 20.108 62.142 16.75 58 16.75C53.858 16.75 50.5 20.108 50.5 24.25 M38.5 40.75C38.5 38.265 36.485 36.25 34 36.25C31.515 36.25 29.5 38.265 29.5 40.75 V46C29.5 46.414 29.836 46.75 30.25 46.75 H37.75C38.164 46.75 38.5 46.414 38.5 46 V40.75 M26.5 24.25C26.5 28.392 29.858 31.75 34 31.75C38.142 31.75 41.5 28.392 41.5 24.25C41.5 20.108 38.142 16.75 34 16.75C29.858 16.75 26.5 20.108 26.5 24.25 M80.5 51.25 H22C15.373 51.25 10 56.623 10 63.25C10 69.877 15.373 75.25 22 75.25 H80.5C81.328 75.25 82 74.578 82 73.75 V52.75C82 51.922 81.328 51.25 80.5 51.25"></path></g></g></g><g id="g-root-ic_1_3df8e13r8jri-fill" data-item-order="-5184" transform="translate(266, 278)"><g id="ic_1_3df8e13r8jri-fill-merged" stroke="none" fill="#ffffff" fill-opacity="1"><g><path d="M14.485 10.291C13.025 9.65 11.318 10.262 10.6 11.686C10.307 12.075 10.149 12.549 10.15 13.036 V55.036C10.15 56.279 11.157 57.286 12.4 57.286C13.643 57.286 14.65 56.279 14.65 55.036 V36.709L32.125 29.011C34.633 28.021 35.779 25.657 35.779 23.536C35.779 21.415 34.633 19.048 32.125 18.061L14.485 10.291 M50.371 10.807C49.14 10.634 48.002 11.492 47.829 12.723C47.656 13.953 48.513 15.092 49.744 15.265C50.836 15.415 52.714 15.961 54.832 16.921C55.964 17.433 57.297 16.93 57.809 15.797C58.321 14.665 57.818 13.332 56.686 12.82C54.319 11.749 52.018 11.038 50.371 10.81 M67.033 20.878C66.601 20.182 65.824 19.776 65.005 19.818C64.187 19.861 63.456 20.345 63.098 21.082C62.74 21.819 62.811 22.692 63.283 23.362C64.195 24.739 64.651 26.161 64.567 27.655C64.565 27.698 64.564 27.741 64.564 27.784C64.564 28.609 64.204 29.548 63.193 30.679C62.366 31.607 62.448 33.029 63.376 33.856C64.304 34.683 65.726 34.601 66.553 33.673C67.999 32.053 69.043 30.112 69.064 27.853C69.196 25.219 68.353 22.873 67.033 20.878 M57.949 39.802C58.671 39.428 59.135 38.694 59.163 37.882C59.192 37.069 58.779 36.305 58.085 35.882C57.39 35.459 56.522 35.444 55.813 35.842C53.302 37.198 50.464 38.551 47.464 39.985L47.098 40.159C45.976 40.695 45.501 42.039 46.037 43.161C46.573 44.282 47.917 44.757 49.039 44.221L49.444 44.026C52.411 42.61 55.336 41.212 57.949 39.802 M40.321 48.547C41.418 47.963 41.834 46.6 41.25 45.503C40.666 44.406 39.303 43.991 38.206 44.575C35.167 46.195 32.2 47.95 29.566 49.894C28.597 50.641 28.403 52.026 29.129 53.011C29.855 53.996 31.236 54.22 32.236 53.515C34.627 51.751 37.387 50.113 40.321 48.547 M25.951 59.875C26.39 59.194 26.429 58.33 26.053 57.612C25.677 56.895 24.945 56.435 24.135 56.407C23.326 56.38 22.564 56.79 22.141 57.481C21.124 59.076 20.38 60.83 19.942 62.671C19.573 64.351 19.48 66.079 19.666 67.789C19.824 68.993 20.909 69.855 22.118 69.736C23.326 69.617 24.222 68.56 24.142 67.348C24.005 66.127 24.067 64.892 24.325 63.691C24.634 62.371 25.183 61.102 25.954 59.875 M26.671 74.596C25.992 73.555 24.597 73.261 23.556 73.941C22.514 74.62 22.221 76.015 22.9 77.056C23.881 78.556 25.084 79.906 26.485 80.881C27.504 81.561 28.879 81.302 29.58 80.297C30.28 79.293 30.049 77.912 29.059 77.191C28.243 76.621 27.418 75.742 26.668 74.596 M61.3 47.164C58.152 47.164 55.6 49.716 55.6 52.864C55.6 56.012 58.152 58.564 61.3 58.564C64.448 58.564 67 56.012 67 52.864C67 49.716 64.448 47.164 61.3 47.164 M46.45 55.564C43.302 55.564 40.75 58.116 40.75 61.264C40.75 64.412 43.302 66.964 46.45 66.964C49.598 66.964 52.15 64.412 52.15 61.264C52.15 58.116 49.598 55.564 46.45 55.564 M76.15 55.564C73.002 55.564 70.45 58.116 70.45 61.264C70.45 64.412 73.002 66.964 76.15 66.964C79.298 66.964 81.85 64.412 81.85 61.264C81.85 58.116 79.298 55.564 76.15 55.564 M61.411 63.364C62.473 63.364 63.607 63.862 64.222 64.963L72.556 76.273C73.323 77.403 73.411 78.862 72.787 80.077C72.184 81.217 70.99 81.967 69.547 81.967 H53.047C51.502 81.967 50.347 81.043 49.795 79.936C49.261 78.865 49.189 77.416 50.044 76.27L58.45 64.864C59.191 63.874 60.316 63.364 61.411 63.364"></path></g></g></g><g id="g-root-tx_positive_1hitqhq13r74sg-fill" data-item-order="0" transform="translate(74, 206)"><g id="tx_positive_1hitqhq13r74sg-fill-merged" stroke="none" fill="#4e88e7" fill-opacity="1"><g><text style="font: bold 20px Roboto, sans-serif; white-space: pre;" transform="translate(118, 46)" font-weight="bold" font-size="20px" font-family="Roboto, sans-serif"><tspan x="-74.49" y="-12" dominant-baseline="ideographic">Positive </tspan><tspan x="-98.28" y="12" dominant-baseline="ideographic">distraction </tspan><tspan x="-48.25" y="36" dominant-baseline="ideographic">walls</tspan></text></g></g></g><g id="g-root-tx_mobileta_1unf0wu13r8i6k-fill" data-item-order="0" transform="translate(614, 242)"><g id="tx_mobileta_1unf0wu13r8i6k-fill-merged" stroke="none" fill="#484848" fill-opacity="1"><g><text style="font: 15px Roboto, sans-serif; white-space: pre;" transform="translate(10, 46)" font-size="15px" font-family="Roboto, sans-serif"><tspan x="2" y="-18" dominant-baseline="ideographic">Mobile tables </tspan><tspan x="2" y="0" dominant-baseline="ideographic">enhance adaptability </tspan><tspan x="2" y="18" dominant-baseline="ideographic">and engagement in </tspan><tspan x="2" y="36" dominant-baseline="ideographic">classroom layouts.</tspan></text></g></g></g><g id="g-root-tx_positive_i0w6la13r75l5-fill" data-item-order="0" transform="translate(38, 290)"><g id="tx_positive_i0w6la13r75l5-fill-merged" stroke="none" fill="#484848" fill-opacity="1"><g><text style="font: 15px Roboto, sans-serif; white-space: pre;" transform="translate(154, 46)" font-size="15px" font-family="Roboto, sans-serif"><tspan x="-129.67" y="-18" dominant-baseline="ideographic">Positive distraction </tspan><tspan x="-104.35" y="0" dominant-baseline="ideographic">walls offer high </tspan><tspan x="-117.31" y="18" dominant-baseline="ideographic">engagement with </tspan><tspan x="-131.95" y="36" dominant-baseline="ideographic">limited adaptability.</tspan></text></g></g></g><g id="g-root-tx_mobileta_v48iu613r8hkz-fill" data-item-order="0" transform="translate(614, 206)"><g id="tx_mobileta_v48iu613r8hkz-fill-merged" stroke="none" fill="#3cc583" fill-opacity="1"><g><text style="font: bold 20px Roboto, sans-serif; white-space: pre;" transform="translate(10, 22)" font-weight="bold" font-size="20px" font-family="Roboto, sans-serif"><tspan x="2" y="12" dominant-baseline="ideographic">Mobile tables</tspan></text></g></g></g><g id="g-root-tx_2_qpnyvy13r8jrh-fill" data-item-order="0" transform="translate(614, 146)"><g id="tx_2_qpnyvy13r8jrh-fill-merged" stroke="none" fill="#3cc583" fill-opacity="1"><g><text style="font: bold 25px Roboto, sans-serif; white-space: pre;" transform="translate(22, 28)" font-weight="bold" font-size="25px" font-family="Roboto, sans-serif"><tspan x="-7.17" y="15" dominant-baseline="ideographic">2</tspan></text></g></g></g><g id="g-root-tx_3_1ut1dum13qx9my-fill" data-item-order="0" transform="translate(134, 446)"><g id="tx_3_1ut1dum13qx9my-fill-merged" stroke="none" fill="#e0cb15" fill-opacity="1"><g><text style="font: bold 25px Roboto, sans-serif; white-space: pre;" transform="translate(22, 28)" font-weight="bold" font-size="25px" font-family="Roboto, sans-serif"><tspan x="-7.17" y="15" dominant-baseline="ideographic">3</tspan></text></g></g></g><g id="g-root-tx_1_1cuw28u13r8idm-fill" data-item-order="0" transform="translate(134, 146)"><g id="tx_1_1cuw28u13r8idm-fill-merged" stroke="none" fill="#4e88e7" fill-opacity="1"><g><text style="font: bold 25px Roboto, sans-serif; white-space: pre;" transform="translate(22, 28)" font-weight="bold" font-size="25px" font-family="Roboto, sans-serif"><tspan x="-7.17" y="15" dominant-baseline="ideographic">1</tspan></text></g></g></g><g id="g-root-tx_classroo_qva8ny13r72mf-fill" data-item-order="0" transform="translate(206, 38)"><g id="tx_classroo_qva8ny13r72mf-fill-merged" stroke="none" fill="#484848" fill-opacity="1"><g><text style="font: bold 25px Roboto, sans-serif; white-space: pre;" transform="translate(202, 28)" font-weight="bold" font-size="25px" font-family="Roboto, sans-serif"><tspan x="-186.43" y="15" dominant-baseline="ideographic">Rockefeller Hall Design Elements</tspan></text></g></g></g><g id="g-root-tx_4_1lz9sv213qx9fx-fill" data-item-order="0" transform="translate(614, 446)"><g id="tx_4_1lz9sv213qx9fx-fill-merged" stroke="none" fill="#92bd39" fill-opacity="1"><g><text style="font: bold 25px Roboto, sans-serif; white-space: pre;" transform="translate(22, 28)" font-weight="bold" font-size="25px" font-family="Roboto, sans-serif"><tspan x="-7.17" y="15" dominant-baseline="ideographic">4</tspan></text></g></g></g><g id="g-root-tx_upholste_1qbcggu13qxbew-fill" data-item-order="0" transform="translate(62, 506)"><g id="tx_upholste_1qbcggu13qxbew-fill-merged" stroke="none" fill="#e0cb15" fill-opacity="1"><g><text style="font: bold 20px Roboto, sans-serif; white-space: pre;" transform="translate(130, 34)" font-weight="bold" font-size="20px" font-family="Roboto, sans-serif"><tspan x="-111.26" y="-0" dominant-baseline="ideographic">Upholstered </tspan><tspan x="-80.1" y="24" dominant-baseline="ideographic">furniture</tspan></text></g></g></g><g id="g-root-tx_adaptabl_zqxc2m13qxaf7-fill" data-item-order="0" transform="translate(614, 506)"><g id="tx_adaptabl_zqxc2m13qxaf7-fill-merged" stroke="none" fill="#92bd39" fill-opacity="1"><g><text style="font: bold 20px Roboto, sans-serif; white-space: pre;" transform="translate(10, 34)" font-weight="bold" font-size="20px" font-family="Roboto, sans-serif"><tspan x="2" y="-0" dominant-baseline="ideographic">Adaptable </tspan><tspan x="2" y="24" dominant-baseline="ideographic">lighting</tspan></text></g></g></g><g id="g-root-tx_adaptabl_dkgaji13qx9n0-fill" data-item-order="0" transform="translate(614, 566)"><g id="tx_adaptabl_dkgaji13qx9n0-fill-merged" stroke="none" fill="#484848" fill-opacity="1"><g><text style="font: 15px Roboto, sans-serif; white-space: pre;" transform="translate(10, 58)" font-size="15px" font-family="Roboto, sans-serif"><tspan x="2" y="-27" dominant-baseline="ideographic">Adaptable lighting </tspan><tspan x="2" y="-9" dominant-baseline="ideographic">supports </tspan><tspan x="2" y="9" dominant-baseline="ideographic">adaptability with </tspan><tspan x="2" y="27" dominant-baseline="ideographic">minimal </tspan><tspan x="2" y="45" dominant-baseline="ideographic">engagement.</tspan></text></g></g></g><g id="g-root-tx_upholste_v9uvry13qx91d-fill" data-item-order="0" transform="translate(38, 566)"><g id="tx_upholste_v9uvry13qx91d-fill-merged" stroke="none" fill="#484848" fill-opacity="1"><g><text style="font: 15px Roboto, sans-serif; white-space: pre;" transform="translate(154, 46)" font-size="15px" font-family="Roboto, sans-serif"><tspan x="-82.58" y="-18" dominant-baseline="ideographic">Upholstered </tspan><tspan x="-119.17" y="0" dominant-baseline="ideographic">furniture provides </tspan><tspan x="-135.46" y="18" dominant-baseline="ideographic">low adaptability and </tspan><tspan x="-89.46" y="36" dominant-baseline="ideographic">engagement.</tspan></text></g></g></g><g id="g-root-cp_0_g-0_1lwrtcu13r74zu-stroke" data-item-order="-525277" transform="translate(230, 242)"><g id="cp_0_g-0_1lwrtcu13r74zu-stroke" fill="none" stroke-linecap="round" stroke-linejoin="round" stroke-miterlimit="4" stroke="#484848" stroke-width="2" stroke-opacity="1"><g><path d="M 178 10L 178 346M 10 177.9999L 346 178"></path></g></g></g><g id="g-root-cp_1_g-1_18lxs2m13r73ez-stroke" data-item-order="-525274" transform="translate(230, 242)"><g id="cp_1_g-1_18lxs2m13r73ez-stroke" fill="none" stroke-linecap="round" stroke-linejoin="round" stroke-miterlimit="4" stroke="#ffffff" stroke-width="2" stroke-opacity="1"><g><path d="M 141.7804 122.1418C 149.4968 110.673 154 96.8624 154 82C 154 42.2355 121.7645 10 82 10C 42.2355 10 10 42.2355 10 82C 10 121.7645 42.2355 154 82 154C 96.3009 154 109.628 149.8306 120.8321 142.6411L 154 154L 141.7804 122.1418Z"></path></g></g></g><g id="g-root-cp_3_g-3_18lxs2m13r73f0-stroke" data-item-order="-525270" transform="translate(230, 434)"><g id="cp_3_g-3_18lxs2m13r73f0-stroke" fill="none" stroke-linecap="round" stroke-linejoin="round" stroke-miterlimit="4" stroke="#ffffff" stroke-width="2" stroke-opacity="1"><g><path d="M 141.7804 41.8582C 149.4968 53.327 154 67.1376 154 82C 154 121.7645 121.7645 154 82 154C 42.2355 154 10 121.7645 10 82C 10 42.2355 42.2355 10 82 10C 96.3009 10 109.628 14.1694 120.8321 21.3589L 154 10L 141.7804 41.8582Z"></path></g></g></g><g id="g-root-cp_2_g-2_14649y613r7479-stroke" data-item-order="-525266" transform="translate(422, 242)"><g id="cp_2_g-2_14649y613r7479-stroke" fill="none" stroke-linecap="round" stroke-linejoin="round" stroke-miterlimit="4" stroke="#ffffff" stroke-width="2" stroke-opacity="1"><g><path d="M 22.2196 122.1418C 14.5032 110.673 10 96.8624 10 82C 10 42.2355 42.2355 10 82 10C 121.7645 10 154 42.2355 154 82C 154 121.7645 121.7645 154 82 154C 67.6991 154 54.372 149.8306 43.1679 142.6411L 10 154L 22.2196 122.1418Z"></path></g></g></g><g id="g-root-cp_4_g-4_vah9pa13r74zy-stroke" data-item-order="-525262" transform="translate(422, 434)"><g id="cp_4_g-4_vah9pa13r74zy-stroke" fill="none" stroke-linecap="round" stroke-linejoin="round" stroke-miterlimit="4" stroke="#ffffff" stroke-width="2" stroke-opacity="1"><g><path d="M 22.2196 41.8582C 14.5032 53.327 10 67.1376 10 82C 10 121.7645 42.2355 154 82 154C 121.7645 154 154 121.7645 154 82C 154 42.2355 121.7645 10 82 10C 67.6991 10 54.372 14.1694 43.1679 21.3589L 10 10L 22.2196 41.8582Z"></path></g></g></g><g id="g-root-ic_2_znsyn213qvvv1-stroke" data-item-order="-5184" transform="translate(458, 470)"></g><g id="g-root-ic_1_8wij4u13rgzd1-stroke" data-item-order="-5184" transform="translate(266, 470)"></g><g id="g-root-ic_peop_8x507y13re3v1-stroke" data-item-order="-5184" transform="translate(458, 278)"></g><g id="g-root-ic_1_3df8e13r8jri-stroke" data-item-order="-5184" transform="translate(266, 278)"></g><g id="g-root-tx_positive_1hitqhq13r74sg-stroke" data-item-order="0" transform="translate(74, 206)"></g><g id="g-root-tx_mobileta_1unf0wu13r8i6k-stroke" data-item-order="0" transform="translate(614, 242)"></g><g id="g-root-tx_positive_i0w6la13r75l5-stroke" data-item-order="0" transform="translate(38, 290)"></g><g id="g-root-tx_mobileta_v48iu613r8hkz-stroke" data-item-order="0" transform="translate(614, 206)"></g><g id="g-root-tx_2_qpnyvy13r8jrh-stroke" data-item-order="0" transform="translate(614, 146)"></g><g id="g-root-tx_3_1ut1dum13qx9my-stroke" data-item-order="0" transform="translate(134, 446)"></g><g id="g-root-tx_1_1cuw28u13r8idm-stroke" data-item-order="0" transform="translate(134, 146)"></g><g id="g-root-tx_classroo_qva8ny13r72mf-stroke" data-item-order="0" transform="translate(206, 38)"></g><g id="g-root-tx_4_1lz9sv213qx9fx-stroke" data-item-order="0" transform="translate(614, 446)"></g><g id="g-root-tx_upholste_1qbcggu13qxbew-stroke" data-item-order="0" transform="translate(62, 506)"></g><g id="g-root-tx_adaptabl_zqxc2m13qxaf7-stroke" data-item-order="0" transform="translate(614, 506)"></g><g id="g-root-tx_adaptabl_dkgaji13qx9n0-stroke" data-item-order="0" transform="translate(614, 566)"></g><g id="g-root-tx_upholste_v9uvry13qx91d-stroke" data-item-order="0" transform="translate(38, 566)"></g></g></g></svg>