<?xml version="1.0" encoding="utf-8" standalone="yes"?>
<!DOCTYPE svg PUBLIC "-//W3C//DTD SVG 1.1//EN" "http://www.w3.org/Graphics/SVG/1.1/DTD/svg11.dtd">
<svg style="fill:none;stroke:none;fill-rule:evenodd;clip-rule:evenodd;stroke-linecap:round;stroke-linejoin:round;stroke-miterlimit:1.5;" version="1.1" xmlns="http://www.w3.org/2000/svg" xmlns:xlink="http://www.w3.org/1999/xlink" width="1080" height="924" viewBox="0 0 1080 924"><style class="text-font-style fontImports" data-font-family="Roboto">@import url(https://fonts.googleapis.com/css2?family=Roboto:wght@400;700&amp;amp;display=block);</style><g id="items" style="isolation: isolate"><g id="blend" style="mix-blend-mode: normal"><g id="g-root-cp_-1_row-top_18issi6105i0w1-fill" data-item-order="-854486" transform="translate(74, 122)"><g id="cp_-1_row-top_18issi6105i0w1-fill-merged" stroke="none" fill="#969696" fill-opacity="1"><g><path d="M502 190L460 172L466 154L442 130L457.429 118L496 88L481.957 27.133L534.6 65.114C541.356 77.002 559 106 559 106L577.162 118L587 124.5L602.884 165.536C602.884 165.536 613.3 182.244 618.271 190 H632.372L614.086 161.233L598 118L566.5 96.5L543.742 56.912L478.719 10L455.764 45.635L424.679 63.546L404.889 106L398.984 118L377.714 161.233L330.283 179.6L324.32 190L317.438 214 H639.997L632.37 190 H618.271 M365.55 118 H10 V190 H283.606C284.389 189.274 285.217 188.585 286.088 187.937L294.519 181.662L304.258 164.678C307.677 158.715 313.04 154.107 319.45 151.624L355.964 137.485L365.55 118 M668.285 190L640.982 147.591L629.614 118 H922 V190 H668.285"></path></g></g></g><g id="g-root-cp_0_g-0_zn5s9a105i1oq-fill" data-item-order="-854459" transform="translate(50, 326)"></g><g id="g-root-cp_1_row-1_v7yr7y105hzb7-fill" data-item-order="-854454" transform="translate(74, 326)"><g id="cp_1_row-1_v7yr7y105hzb7-fill-merged" stroke="none" fill="#969696" fill-opacity="1"><g><path d="M303.898 34L317.22 10 H639.999L647.825 34L665.92 61.746L626.866 106L615.898 118 H333.279L329.082 106L303.899 34 M274.065 34 H10 V106 H296.195L275.429 41.152C274.674 38.794 274.224 36.394 274.065 34 M666.971 106L688.456 81.548C697.3 71.483 698.398 56.773 691.144 45.507L683.736 34 H922 V106 H666.971"></path></g></g></g><g id="g-root-cp_2_row-2_mcbqz2105i03w-fill" data-item-order="-854426" transform="translate(74, 434)"><g id="cp_2_row-2_mcbqz2105i03w-fill-merged" stroke="none" fill="#e0cb15" fill-opacity="1"><g><path d="M577.354 94L572.863 106 H360.061L357.91 94L351.808 59.946L337.687 22L333.223 10 H616.107L605.501 22L585.243 72.919L577.355 94 M305.734 22 H10 V94 H327.413L322.747 67.862L305.734 22 M609.386 94L613.34 83.433C613.375 83.34 613.409 83.247 613.443 83.154L627.76 43.707L638.878 29.326L645.573 22 H922 V94 H609.386"></path></g></g></g><g id="g-root-cp_3_row-3_hwi8um105i0w5-fill" data-item-order="-854398" transform="translate(74, 530)"><g id="cp_3_row-3_hwi8um105i0w5-fill-merged" stroke="none" fill="#de8431" fill-opacity="1"><g><path d="M573.119 10L571.344 22.12L362.002 22L360.031 10 H573.119 M559.88 93.75L571.342 22.12L362 22L382 81.5 V106 H557.92L559.88 93.75 M335.801 38.215C334.023 35.035 332.823 31.529 332.293 27.856L331.449 22 H10 V94 H352 V86.407L335.801 38.215 M590.222 94 H922 V22 H601.68L601.026 26.467C601.007 26.598 600.987 26.729 600.966 26.861L590.222 94"></path></g></g></g><g id="g-root-cp_4_row-4_90v8lq105i1ou-fill" data-item-order="-854370" transform="translate(74, 626)"><g id="cp_4_row-4_90v8lq105i1ou-fill-merged" stroke="none" fill="#4e88e7" fill-opacity="1"><g><path d="M410.801 94L415.601 106 H514.001 V94L556 22L557.92 10 H382 V22L410.8 94 M352 22 H10 V94 H378.489L354.146 33.142C352.728 29.598 352 25.817 352 22 M548.731 94 H922 V22 H586.382L585.623 26.74C585.038 30.398 583.78 33.916 581.914 37.116L548.731 94"></path></g></g></g><g id="g-root-cp_5_row-5_4lo7ke105hzbb-fill" data-item-order="-854342" transform="translate(74, 722)"><g id="cp_5_row-5_4lo7ke105hzbb-fill-merged" stroke="none" fill="#de8431" fill-opacity="1"><g><path d="M448 94L466 118L490 94L514 34 V10 H415.602L420.402 22L430 46 V70L448 94 M388.089 22 H10 V94 H410.5L406 88C402.106 82.807 400 76.491 400 70 V51.778L388.089 22 M522.311 94 H922 V22 H544 V34C544 37.817 543.272 41.598 541.854 45.142L522.311 94"></path></g></g><g id="cp_5_row-5_4lo7ke105hzbb-fill-merged" stroke="none" fill="#de8431" fill-opacity="1"><g><path d="M388.089 22 H10 V94 H410.5L406 88C402.106 82.807 400 76.491 400 70 V51.778L388.089 22 M522.311 94 H922 V22 H544 V34C544 37.817 543.272 41.598 541.854 45.142L522.311 94 M490 94L514 34 V22 M420.4 22L430 46 V70L448 94"></path></g></g></g><g id="g-root-ic_audi_1luvv4e1059m30-fill" data-item-order="-2304" transform="translate(506, 746)"><g id="ic_audi_1luvv4e1059m30-fill-merged" stroke="none" fill="#ffffff" fill-opacity="1"><g><path d="M45.988 28.988C45.616 29.602 44.944 29.97 44.227 29.952C43.509 29.934 42.857 29.532 42.516 28.901C42.176 28.269 42.2 27.503 42.58 26.894C43.632 25.182 44.28 22.994 44.28 20.578C44.28 18.162 43.632 15.974 42.58 14.26C42.2 13.651 42.176 12.885 42.516 12.253C42.857 11.622 43.509 11.22 44.227 11.202C44.944 11.184 45.616 11.552 45.988 12.166C47.442 14.536 48.282 17.454 48.282 20.578C48.282 23.702 47.442 26.618 45.988 28.988 M33.58 11.688C32.964 11.381 32.228 11.448 31.678 11.862L23.688 16.946 H20.056C19.053 16.946 18.24 17.759 18.24 18.762 V22.394C18.24 23.397 19.053 24.21 20.056 24.21 H23.688L31.678 29.294C32.228 29.707 32.964 29.773 33.58 29.466C34.195 29.159 34.584 28.53 34.584 27.842 V13.314C34.583 12.626 34.195 11.998 33.58 11.69 M38.632 25.43C39.637 25.887 40.823 25.443 41.28 24.438C41.816 23.222 42.087 21.907 42.076 20.578C42.076 19.184 41.796 17.85 41.28 16.718C40.808 15.739 39.64 15.316 38.65 15.766C37.661 16.217 37.212 17.375 37.64 18.374C37.938 19.07 38.087 19.821 38.076 20.578C38.086 21.335 37.937 22.086 37.638 22.782C37.181 23.787 37.625 24.973 38.63 25.43 M20.266 31.85C20.743 32.846 20.322 34.041 19.326 34.518C17.464 35.412 16.092 36.422 15.214 37.44C13.954 38.898 13.788 40.226 14.296 41.45C14.876 42.848 16.468 44.436 19.328 45.806C22.142 47.156 25.818 48.112 29.904 48.502 H30.204 V46.102C30.205 45.496 30.57 44.949 31.13 44.717C31.69 44.485 32.335 44.614 32.764 45.042L37.358 49.634C37.943 50.22 37.943 51.168 37.358 51.754L32.766 56.348C32.337 56.776 31.692 56.905 31.132 56.673C30.572 56.441 30.207 55.894 30.206 55.288 V52.544 H29.524C25.084 52.06 20.93 51.01 17.598 49.414C14.312 47.838 11.718 45.674 10.602 42.984C9.414 40.122 10.12 37.216 12.186 34.824C13.526 33.274 15.402 31.964 17.598 30.912C18.594 30.435 19.789 30.856 20.266 31.852 M47.734 31.85C48.211 30.854 49.406 30.433 50.402 30.91C54.74 32.99 57.974 36.184 57.974 40.162C57.974 43.136 56.136 45.702 53.436 47.64C50.72 49.588 46.996 51.02 42.798 51.854C42.088 52.016 41.347 51.779 40.862 51.236C40.377 50.693 40.226 49.929 40.466 49.242C40.707 48.555 41.302 48.054 42.02 47.932C45.854 47.17 48.992 45.904 51.106 44.388C53.234 42.862 53.974 41.356 53.974 40.162C53.974 38.556 52.578 36.39 48.674 34.518C47.678 34.041 47.257 32.846 47.734 31.85"></path></g></g></g><g id="g-root-ic_lapt_hydo3y105hzwj-fill" data-item-order="-2304" transform="translate(86, 242)"><g id="ic_lapt_hydo3y105hzwj-fill-merged" stroke="none" fill="#ffffff" fill-opacity="1"><g><path d="M43 10C44.105 10 45 10.895 45 12 V20C45 21.105 44.105 22 43 22C41.895 22 41 21.105 41 20 V12C41 10.895 41.895 10 43 10 M13.93 15.474C13.639 14.408 12.54 13.779 11.474 14.07C10.408 14.361 9.779 15.46 10.07 16.526L13.07 27.526C13.307 28.396 14.098 29 15 29 H24C25.105 29 26 28.105 26 27C26 25.895 25.105 25 24 25 H16.528L13.928 15.474 M53.18 42.48L55.57 25.656C55.58 25.623 55.593 25.59 55.61 25.56C55.621 25.538 55.634 25.517 55.65 25.498 H56C57.105 25.498 58 24.603 58 23.498C58 22.393 57.105 21.498 56 21.498 H55.6C53.442 21.498 51.982 23.188 51.64 24.906C51.632 24.942 51.626 24.979 51.62 25.016L49.232 41.84C49.222 41.873 49.209 41.906 49.192 41.936C49.18 41.958 49.165 41.979 49.148 41.998 H37C36.47 41.998 35.961 42.209 35.586 42.584L32.586 45.584C31.828 46.369 31.839 47.616 32.61 48.388C33.382 49.159 34.629 49.17 35.414 48.412L37.828 46 H43 V54 H38C36.895 54 36 54.895 36 56C36 57.105 36.895 58 38 58 H52C53.105 58 54 57.105 54 56C54 54.895 53.105 54 52 54 H47 V46 H49.2C51.358 46 52.818 44.31 53.16 42.592C53.168 42.556 53.174 42.519 53.18 42.482 M24 36 H36C37.105 36 38 35.105 38 34C38 32.895 37.105 32 36 32 H12C10.895 32 10 32.895 10 34 V56C10 57.105 10.895 58 12 58 H22C23.105 58 24 57.105 24 56 V36 M43 29.5C44.381 29.5 45.5 28.381 45.5 27C45.5 25.619 44.381 24.5 43 24.5C41.619 24.5 40.5 25.619 40.5 27C40.5 28.381 41.619 29.5 43 29.5"></path></g></g></g><g id="g-root-ic_forw_dbp1721059jph-fill" data-item-order="-2304" transform="translate(506, 650)"><g id="ic_forw_dbp1721059jph-fill-merged" stroke="none" fill="#ffffff" fill-opacity="1"><g><path d="M34.452 10.854C37.859 10.125 41.212 12.296 41.941 15.703C42.67 19.11 40.499 22.463 37.092 23.192C33.685 23.92 30.332 21.749 29.603 18.342C28.875 14.935 31.045 11.582 34.452 10.852 M57.94 27.418C57.94 27.818 57.78 28.198 57.5 28.478L51.412 34.558C50.983 34.987 50.338 35.115 49.777 34.882C49.217 34.65 48.852 34.103 48.852 33.496 V29.418 H42.628C41.523 29.418 40.628 28.523 40.628 27.418C40.628 26.313 41.523 25.418 42.628 25.418 H48.852 V21.34C48.853 20.734 49.218 20.187 49.778 19.955C50.338 19.723 50.983 19.852 51.412 20.28L57.5 26.356C57.78 26.638 57.94 27.02 57.94 27.418 M19.92 22.772C20.689 22.58 21.49 22.56 22.268 22.712L33.716 25.152C35.585 25.522 36.856 27.266 36.636 29.158L35.284 38.362 H40.73C42.382 38.362 43.988 39.146 45.004 40.448C46.012 41.738 46.384 43.468 46.002 45.058L44.502 54.016C44.271 55.407 43.311 56.567 41.987 57.054C40.663 57.54 39.181 57.278 38.104 56.368C37.027 55.457 36.522 54.038 36.782 52.652L37.896 46.672 H37.158C37.138 46.672 37.116 46.672 37.094 46.668L35.772 46.582C35.385 40.687 31.211 35.728 25.468 34.342L25.798 32.472L26.008 31.394L21.722 30.554L16.69 34.568C15.89 35.214 14.858 35.438 13.914 35.342C12.968 35.244 12 34.814 11.35 34.01C10.69 33.194 10.482 32.132 10.586 31.176C10.69 30.222 11.122 29.232 11.928 28.58L17.82 23.824C18.434 23.324 19.152 22.964 19.92 22.772 M22.234 36.966C18.455 36.948 14.959 38.964 13.08 42.242C11.201 45.521 11.23 49.556 13.156 52.807C15.081 56.059 18.606 58.024 22.384 57.952C28.13 57.843 32.72 53.132 32.679 47.385C32.638 41.638 27.981 36.993 22.234 36.966"></path></g></g></g><g id="g-root-ic_doub_73qry1053zsy-fill" data-item-order="-2304" transform="translate(506, 362)"><g id="ic_doub_73qry1053zsy-fill-merged" stroke="none" fill="#ffffff" fill-opacity="1"><g><path d="M51.64 45.52C52.181 45.52 52.62 45.081 52.62 44.54 V28.86C52.62 26.651 50.829 24.86 48.62 24.86 H44.62C42.411 24.86 40.62 26.651 40.62 28.86 V44.54C40.62 45.081 41.059 45.52 41.6 45.52 H51.64 M46.74 50.4C45.635 50.4 44.74 51.295 44.74 52.4 V54.4C44.74 55.505 45.635 56.4 46.74 56.4C47.845 56.4 48.74 55.505 48.74 54.4 V52.4C48.74 51.295 47.845 50.4 46.74 50.4 M53.66 48.68C53.211 48.003 52.397 47.665 51.601 47.824C50.804 47.983 50.183 48.609 50.029 49.407C49.875 50.205 50.22 51.016 50.9 51.46L52.2 52.78C52.576 53.142 53.078 53.343 53.6 53.34C54.115 53.338 54.609 53.137 54.98 52.78C55.729 52.005 55.729 50.775 54.98 50L53.66 48.68 M39.8 48.68L38.5 50C37.976 50.791 38.079 51.841 38.748 52.514C39.416 53.187 40.466 53.298 41.26 52.78L42.58 51.46C43.124 50.666 43.024 49.597 42.344 48.916C41.663 48.236 40.594 48.136 39.8 48.68 M26.16 45.52C26.701 45.52 27.14 45.081 27.14 44.54 V28.86C27.14 26.651 25.349 24.86 23.14 24.86 H19.14C16.931 24.86 15.14 26.651 15.14 28.86 V44.54C15.14 45.081 15.579 45.52 16.12 45.52 H26.16 M21.26 50.4C20.155 50.4 19.26 51.295 19.26 52.4 V54.4C19.26 55.505 20.155 56.4 21.26 56.4C22.365 56.4 23.26 55.505 23.26 54.4 V52.4C23.26 51.295 22.365 50.4 21.26 50.4 M14.34 48.68L13.02 50C12.271 50.775 12.271 52.005 13.02 52.78C13.391 53.137 13.885 53.338 14.4 53.34C14.922 53.343 15.424 53.142 15.8 52.78L17.1 51.46C17.78 51.016 18.125 50.205 17.971 49.407C17.817 48.609 17.196 47.983 16.399 47.824C15.603 47.665 14.789 48.003 14.34 48.68 M28.2 48.68C27.746 48.017 26.94 47.69 26.152 47.849C25.364 48.009 24.749 48.624 24.589 49.412C24.43 50.2 24.757 51.006 25.42 51.46L26.74 52.78C27.534 53.298 28.584 53.187 29.252 52.514C29.921 51.841 30.024 50.791 29.5 50L28.2 48.68 M58 13.68C58 12.575 57.105 11.68 56 11.68 H12C10.895 11.68 10 12.575 10 13.68C10 14.785 10.895 15.68 12 15.68 H18.32C18.861 15.68 19.3 16.119 19.3 16.66 V21.06C19.3 21.451 19.457 21.825 19.735 22.1C20.013 22.374 20.389 22.525 20.78 22.52 H21.76C22.566 22.52 23.22 21.866 23.22 21.06 V16.62C23.22 16.079 23.659 15.64 24.2 15.64 H43.8C44.341 15.64 44.78 16.079 44.78 16.62 V21.02C44.78 21.826 45.434 22.48 46.24 22.48 H47.22C47.611 22.485 47.987 22.334 48.265 22.06C48.543 21.785 48.7 21.411 48.7 21.02 V16.62C48.7 16.079 49.139 15.64 49.68 15.64 H56C57.089 15.64 57.978 14.769 58 13.68"></path></g></g></g><g id="g-root-ic_retr_144ussu1055cea-fill" data-item-order="-2304" transform="translate(506, 554)"><g id="ic_retr_144ussu1055cea-fill-merged" stroke="none" fill="#ffffff" fill-opacity="1"><g><path d="M49.5 47C49.505 45.611 49.183 44.241 48.56 43C48.459 42.834 48.459 42.626 48.56 42.46C49.49 41.268 49.669 39.653 49.022 38.287C48.374 36.92 47.012 36.035 45.5 36 H22.5C20.97 36.007 19.578 36.886 18.914 38.265C18.251 39.643 18.431 41.28 19.38 42.48C19.481 42.646 19.481 42.854 19.38 43.02C18.757 44.261 18.435 45.631 18.44 47.02C18.549 48.496 18.886 49.947 19.44 51.32C19.778 52.192 20.052 53.088 20.26 54C19.156 54.066 18.314 55.016 18.38 56.12C18.447 57.224 19.396 58.066 20.5 58C21.714 58.088 22.889 57.553 23.62 56.58C24.88 54.82 24.08 52.4 23.28 50.04C22.903 49.06 22.641 48.04 22.5 47C22.518 46.135 22.737 45.286 23.14 44.52C23.315 44.208 23.642 44.01 24 44 H44C44.378 43.995 44.726 44.204 44.9 44.54C45.305 45.298 45.525 46.141 45.54 47C45.383 48.028 45.107 49.035 44.72 50C43.92 52.36 43.12 54.78 44.38 56.54C45.111 57.513 46.286 58.048 47.5 57.96C48.604 58.026 49.553 57.184 49.62 56.08C49.686 54.976 48.844 54.026 47.74 53.96C47.926 53.036 48.18 52.127 48.5 51.24C49.048 49.886 49.385 48.456 49.5 47 M23.5 30C23.533 30.626 23.533 31.254 23.5 31.88C23.457 32.163 23.545 32.45 23.74 32.66C23.924 32.878 24.195 33.002 24.48 33 H43.72C44.005 33.002 44.276 32.878 44.46 32.66C44.655 32.45 44.743 32.163 44.7 31.88C44.634 31.256 44.6 30.628 44.6 30C44.679 27.967 45.377 26.006 46.6 24.38C47.778 22.821 48.473 20.95 48.6 19C48.622 16.589 47.667 14.272 45.953 12.576C44.238 10.881 41.911 9.951 39.5 10 H28.5C26.106 9.978 23.805 10.92 22.112 12.612C20.42 14.305 19.478 16.607 19.5 19C19.627 20.95 20.322 22.821 21.5 24.38C22.723 26.006 23.421 27.967 23.5 30"></path></g></g></g><g id="g-root-ic_nigh_1up9x721055ddv-fill" data-item-order="-2304" transform="translate(506, 458)"><g id="ic_nigh_1up9x721055ddv-fill-merged" stroke="none" fill="#ffffff" fill-opacity="1"><g><path d="M31.668 10.75C29.03 10.74 26.496 11.784 24.631 13.65C22.765 15.516 21.722 18.05 21.732 20.688C21.722 23.326 22.766 25.859 24.632 27.724C26.497 29.59 29.03 30.634 31.668 30.624C33.648 30.624 35.504 30 37.094 28.99C37.489 28.742 37.659 28.253 37.505 27.813C37.351 27.373 36.913 27.098 36.45 27.15C34.68 27.339 32.914 26.765 31.593 25.572C30.273 24.379 29.523 22.68 29.532 20.9C29.525 19.232 30.185 17.63 31.365 16.45C32.545 15.271 34.148 14.612 35.816 14.62C36.31 14.62 36.786 14.672 37.236 14.77C37.687 14.868 38.147 14.645 38.348 14.23C38.55 13.815 38.442 13.316 38.086 13.022C36.277 11.539 34.007 10.735 31.668 10.75 M24.248 41.812C24.249 45.161 21.535 47.876 18.186 47.876C14.837 47.876 12.123 45.161 12.124 41.812C12.125 38.465 14.839 35.752 18.186 35.752C21.533 35.752 24.247 38.465 24.248 41.812 M40.174 41.812C40.175 45.161 37.461 47.876 34.112 47.876C30.763 47.876 28.049 45.161 28.05 41.812C28.051 38.465 30.765 35.752 34.112 35.752C37.459 35.752 40.173 38.465 40.174 41.812 M50.038 47.874C53.387 47.875 56.102 45.161 56.102 41.812C56.102 38.463 53.387 35.749 50.038 35.75C46.691 35.751 43.978 38.465 43.978 41.812C43.978 45.159 46.691 47.873 50.038 47.874 M18.186 50.04C13.787 50.037 10.22 53.601 10.22 58 H58C58.001 53.602 54.436 50.037 50.038 50.038C45.64 50.036 42.074 53.6 42.074 57.998C42.074 53.601 38.509 50.037 34.112 50.038C29.713 50.036 26.147 53.601 26.148 58C26.149 53.602 22.584 50.037 18.186 50.038 M44.34 19.21C44.754 18.492 44.508 17.574 43.79 17.16C43.072 16.746 42.154 16.992 41.74 17.71L41.22 18.61L40.42 17.63C40.085 17.204 39.546 16.992 39.011 17.075C38.475 17.159 38.026 17.524 37.836 18.032C37.646 18.539 37.745 19.11 38.094 19.524L39.022 20.664L37.518 21.32C36.759 21.651 36.412 22.536 36.743 23.295C37.074 24.054 37.959 24.401 38.718 24.07L40.168 23.436L40.344 25.006C40.46 25.807 41.19 26.372 41.995 26.283C42.799 26.193 43.388 25.481 43.324 24.674L43.144 23.042L44.592 23.274C45.13 23.379 45.682 23.183 46.032 22.762C46.383 22.341 46.477 21.763 46.276 21.253C46.076 20.743 45.613 20.383 45.07 20.314L43.82 20.112L44.34 19.21"></path></g></g></g><g id="g-root-tx_inadequa_18isvny1055clp-fill" data-item-order="0" transform="translate(842, 464)"><g id="tx_inadequa_18isvny1055clp-fill-merged" stroke="none" fill="#ffffff" fill-opacity="1"><g><text style="font: 15px Roboto, sans-serif; white-space: pre;" transform="translate(142, 28)" font-size="15px" font-family="Roboto, sans-serif"><tspan x="-129.72" y="0" dominant-baseline="ideographic">Inadequate lighting </tspan><tspan x="-110.24" y="18" dominant-baseline="ideographic">affects comfort.</tspan></text></g></g></g><g id="g-root-tx_poorligh_detemm1055edm-fill" data-item-order="0" transform="translate(86, 470)"><g id="tx_poorligh_detemm1055edm-fill-merged" stroke="none" fill="#ffffff" fill-opacity="1"><g><text style="font: bold 20px Roboto, sans-serif; white-space: pre;" transform="translate(10, 22)" font-weight="bold" font-size="20px" font-family="Roboto, sans-serif"><tspan x="2" y="12" dominant-baseline="ideographic">Poor Lighting</tspan></text></g></g></g><g id="g-root-tx_exposedb_zlwx8u1055c01-fill" data-item-order="0" transform="translate(818, 368)"><g id="tx_exposedb_zlwx8u1055c01-fill-merged" stroke="none" fill="#ffffff" fill-opacity="1"><g><text style="font: 15px Roboto, sans-serif; white-space: pre;" transform="translate(166, 28)" font-size="15px" font-family="Roboto, sans-serif"><tspan x="-153.75" y="0" dominant-baseline="ideographic">Exposed beams create </tspan><tspan x="-119.36" y="18" dominant-baseline="ideographic">visual distraction.</tspan></text></g></g></g><g id="g-root-tx_fixedfur_1lvic7i1055d6w-fill" data-item-order="0" transform="translate(86, 566)"><g id="tx_fixedfur_1lvic7i1055d6w-fill-merged" stroke="none" fill="#ffffff" fill-opacity="1"><g><text style="font: bold 20px Roboto, sans-serif; white-space: pre;" transform="translate(10, 22)" font-weight="bold" font-size="20px" font-family="Roboto, sans-serif"><tspan x="2" y="12" dominant-baseline="ideographic">Fixed Furniture</tspan></text></g></g></g><g id="g-root-tx_outdated_djt7bi105864o-fill" data-item-order="0" transform="translate(806, 560)"><g id="tx_outdated_djt7bi105864o-fill-merged" stroke="none" fill="#ffffff" fill-opacity="1"><g><text style="font: 15px Roboto, sans-serif; white-space: pre;" transform="translate(178, 28)" font-size="15px" font-family="Roboto, sans-serif"><tspan x="-164.2" y="0" dominant-baseline="ideographic">Outdated furniture limits </tspan><tspan x="-119.98" y="18" dominant-baseline="ideographic">teaching formats.</tspan></text></g></g></g><g id="g-root-tx_visualcl_dik95a1053y81-fill" data-item-order="0" transform="translate(86, 374)"><g id="tx_visualcl_dik95a1053y81-fill-merged" stroke="none" fill="#ffffff" fill-opacity="1"><g><text style="font: bold 20px Roboto, sans-serif; white-space: pre;" transform="translate(10, 22)" font-weight="bold" font-size="20px" font-family="Roboto, sans-serif"><tspan x="2" y="12" dominant-baseline="ideographic">Visual Clutter</tspan></text></g></g></g><g id="g-root-tx_obviousc_v97pe6105i1he-fill" data-item-order="0" transform="translate(842, 248)"><g id="tx_obviousc_v97pe6105i1he-fill-merged" stroke="none" fill="#ffffff" fill-opacity="1"><g><text style="font: 15px Roboto, sans-serif; white-space: pre;" transform="translate(142, 28)" font-size="15px" font-family="Roboto, sans-serif"><tspan x="-130.21" y="0" dominant-baseline="ideographic">Obvious classroom </tspan><tspan x="-97.28" y="18" dominant-baseline="ideographic">design issues.</tspan></text></g></g></g><g id="g-root-tx_limiteda_qwinv210586pv-fill" data-item-order="0" transform="translate(86, 650)"><g id="tx_limiteda_qwinv210586pv-fill-merged" stroke="none" fill="#ffffff" fill-opacity="1"><g><text style="font: bold 20px Roboto, sans-serif; white-space: pre;" transform="translate(10, 34)" font-weight="bold" font-size="20px" font-family="Roboto, sans-serif"><tspan x="2" y="-0" dominant-baseline="ideographic">Limited </tspan><tspan x="2" y="24" dominant-baseline="ideographic">Accessibility</tspan></text></g></g></g><g id="g-root-tx_narrowai_1ltmwy61059jwv-fill" data-item-order="0" transform="translate(818, 656)"><g id="tx_narrowai_1ltmwy61059jwv-fill-merged" stroke="none" fill="#ffffff" fill-opacity="1"><g><text style="font: 15px Roboto, sans-serif; white-space: pre;" transform="translate(166, 28)" font-size="15px" font-family="Roboto, sans-serif"><tspan x="-144.08" y="0" dominant-baseline="ideographic">Narrow aisles restrict </tspan><tspan x="-76.98" y="18" dominant-baseline="ideographic">movement.</tspan></text></g></g></g><g id="g-root-tx_classroo_1d0hpvy105hz49-fill" data-item-order="0" transform="translate(146, 242)"><g id="tx_classroo_1d0hpvy105hz49-fill-merged" stroke="none" fill="#ffffff" fill-opacity="1"><g><text style="font: bold 20px Roboto, sans-serif; white-space: pre;" transform="translate(10, 34)" font-weight="bold" font-size="20px" font-family="Roboto, sans-serif"><tspan x="2" y="-0" dominant-baseline="ideographic">Classroom Design </tspan><tspan x="2" y="24" dominant-baseline="ideographic">Flaws</tspan></text></g></g></g><g id="g-root-tx_classroo_5upfy105i03k-fill" data-item-order="0" transform="translate(290, 38)"><g id="tx_classroo_5upfy105i03k-fill-merged" stroke="none" fill="#484848" fill-opacity="1"><g><text style="font: bold 25px Roboto, sans-serif; white-space: pre;" transform="translate(250, 28)" font-weight="bold" font-size="25px" font-family="Roboto, sans-serif"><tspan x="-234.36" y="15" dominant-baseline="ideographic">Classroom Design Flaws Hinder Learning.</tspan></text></g></g></g><g id="g-root-tx_echoredu_1qdtqoe1059mh5-fill" data-item-order="0" transform="translate(818, 752)"><g id="tx_echoredu_1qdtqoe1059mh5-fill-merged" stroke="none" fill="#ffffff" fill-opacity="1"><g><text style="font: 15px Roboto, sans-serif; white-space: pre;" transform="translate(166, 28)" font-size="15px" font-family="Roboto, sans-serif"><tspan x="-143.86" y="0" dominant-baseline="ideographic">Echo reduces speech </tspan><tspan x="-84.35" y="18" dominant-baseline="ideographic">intelligibility.</tspan></text></g></g></g><g id="g-root-tx_acoustic_58bim1059kp6-fill" data-item-order="0" transform="translate(86, 746)"><g id="tx_acoustic_58bim1059kp6-fill-merged" stroke="none" fill="#ffffff" fill-opacity="1"><g><text style="font: bold 20px Roboto, sans-serif; white-space: pre;" transform="translate(10, 34)" font-weight="bold" font-size="20px" font-family="Roboto, sans-serif"><tspan x="2" y="-0" dominant-baseline="ideographic">Acoustic </tspan><tspan x="2" y="24" dominant-baseline="ideographic">Problems</tspan></text></g></g></g><g id="g-root-cp_-1_row-top_18issi6105i0w1-stroke" data-item-order="-854486" transform="translate(74, 122)"><g id="cp_-1_row-top_18issi6105i0w1-stroke" fill="none" stroke-linecap="round" stroke-linejoin="round" stroke-miterlimit="4" stroke="#ffffff" stroke-width="2" stroke-opacity="1"><g><path d="M 597.999775 118L 566.499775 96.5L 543.741875 56.9121L 478.719375 10L 455.764375 45.6352L 424.678875 63.5456L 404.889375 106L 404.888275 106L 398.984375 118M 457.428275 118L 495.999775 88L 481.957075 27.1328L 534.600275 65.1136C 541.355575 77.0021 558.999775 106 558.999775 106L 577.161875 118M 365.5504 118L 10 118L 10 190L 283.6058 190C 284.3893 189.2743 285.2171 188.5854 286.088 187.9371L 294.5194 181.6618L 304.2577 164.6777C 307.6768 158.7147 313.0399 154.1066 319.4499 151.6244L 355.9641 137.4848L 365.5504 118ZM 668.2852 190L 640.9822 147.5906L 629.6135 118L 922 118L 922 190L 668.2852 190ZM 598 118L 614.0857 161.2329L 632.3716 190M 324.32 190L 330.2831 179.6L 377.7144 161.2329L 398.9846 118M 457.4286 118L 442 130L 466 154L 460 172L 502 190L 618.2715 190C 613.3 182.2438 602.884 165.5363 602.884 165.5363L 587 124.5L 577.1622 118M 501.998 190L 618.2696 190M 324.3181 190L 317.4375 214L 639.9975 214L 632.3696 190"></path></g></g></g><g id="g-root-cp_0_g-0_zn5s9a105i1oq-stroke" data-item-order="-854459" transform="translate(50, 326)"><g id="cp_0_g-0_zn5s9a105i1oq-stroke" fill="none" stroke-linecap="round" stroke-linejoin="round" stroke-miterlimit="4" stroke="#484848" stroke-width="2" stroke-dasharray="5.0, 7.0" stroke-opacity="1"><g><path d="M 342 10L 10 10M 970 10L 664 10"></path></g></g></g><g id="g-root-cp_1_row-1_v7yr7y105hzb7-stroke" data-item-order="-854454" transform="translate(74, 326)"><g id="cp_1_row-1_v7yr7y105hzb7-stroke" fill="none" stroke-linecap="round" stroke-linejoin="round" stroke-miterlimit="4" stroke="#ffffff" stroke-width="2" stroke-opacity="1"><g><path d="M 626.865231 106L 615.897931 118.0002L 333.279331 118.0002L 329.082031 106M 303.898438 34L 317.219638 10L 639.999338 10L 647.824938 34M 274.0645 34L 10 34L 10 106L 296.1955 106L 275.4291 41.1523C 274.674 38.7941 274.2244 36.3937 274.0645 34ZM 666.9711 106L 688.4561 81.5484C 697.3004 71.4829 698.3976 56.773 691.1445 45.5069L 683.7364 34L 922 34L 922 106L 666.9711 106ZM 303.8991 34.0002L 329.0827 106M 647.8256 34.0002L 665.92 61.7464L 626.8658 106"></path></g></g></g><g id="g-root-cp_2_row-2_mcbqz2105i03w-stroke" data-item-order="-854426" transform="translate(74, 434)"><g id="cp_2_row-2_mcbqz2105i03w-stroke" fill="none" stroke-linecap="round" stroke-linejoin="round" stroke-miterlimit="4" stroke="#ffffff" stroke-width="2" stroke-opacity="1"><g><path d="M 605.500856 21.9997L 616.106856 10L 333.222656 10L 337.688156 21.9997M 305.7337 22L 10 22L 10 94L 327.4129 94L 322.7471 67.8616L 305.7337 22ZM 609.386 94L 613.3403 83.4328C 613.3751 83.3399 613.4094 83.2469 613.4432 83.1536L 627.7603 43.7068L 638.8775 29.3261L 645.5731 22L 922 22L 922 94L 609.386 94ZM 605.5 22L 585.2432 72.9192L 577.3546 94M 337.6873 22L 351.8083 59.9462L 357.9107 94M 357.910156 94L 360.060556 106.0003L 572.863456 106.0003L 577.354056 94"></path></g></g></g><g id="g-root-cp_3_row-3_hwi8um105i0w5-stroke" data-item-order="-854398" transform="translate(74, 530)"><g id="cp_3_row-3_hwi8um105i0w5-stroke" fill="none" stroke-linecap="round" stroke-linejoin="round" stroke-miterlimit="4" stroke="#ffffff" stroke-width="2" stroke-opacity="1"><g><path d="M 362.00195 22L 360.03125 10L 573.11905 10L 571.34425 22.1203M 335.8012 38.214931C 334.0231 35.034731 332.823 31.528531 332.2935 27.856031L 331.4492 22.000031L 10 22.000031L 10 94.000031L 352.0002 94.000031L 352.0002 86.407131L 335.8012 38.214931ZM 590.2223 94.000031L 922 94.000031L 922 22.000031L 601.6801 22.000031L 601.026 26.466731C 601.0068 26.598131 600.9867 26.729431 600.9657 26.860531L 590.2223 94.000031ZM 362 22.000031L 382 81.500031L 382 93.750031M 559.8804 93.750031L 571.3423 22.120331M 382 93.75L 382 106L 557.9202 106L 559.8804 93.75"></path></g></g></g><g id="g-root-cp_4_row-4_90v8lq105i1ou-stroke" data-item-order="-854370" transform="translate(74, 626)"><g id="cp_4_row-4_90v8lq105i1ou-stroke" fill="none" stroke-linecap="round" stroke-linejoin="round" stroke-miterlimit="4" stroke="#ffffff" stroke-width="2" stroke-opacity="1"><g><path d="M 382 22L 382 10L 557.9202 10L 556 22M 352.0002 22.000031L 10 22.000031L 10 94.000031L 378.4893 94.000031L 354.1459 33.141731C 352.7285 29.598131 352.0002 25.816631 352.0002 22.000031ZM 548.7313 94.000031L 922 94.000031L 922 22.000031L 586.3818 22.000031L 585.6234 26.740231C 585.038 30.398231 583.7802 33.916231 581.9136 37.116131L 548.7313 94.000031ZM 514 94.000031L 556 22.000031M 382 22.000031L 410.8 94.000031M 514.000781 94L 514.000781 106L 415.600781 106L 410.800781 94"></path></g></g></g><g id="g-root-cp_5_row-5_4lo7ke105hzbb-stroke" data-item-order="-854342" transform="translate(74, 722)"><g id="cp_5_row-5_4lo7ke105hzbb-stroke" fill="none" stroke-linecap="round" stroke-linejoin="round" stroke-miterlimit="4" stroke="#ffffff" stroke-width="2" stroke-opacity="1"><g><path d="M 420.401563 22L 415.601563 10L 514.001563 10L 514.001563 22"></path></g></g><g id="cp_5_row-5_4lo7ke105hzbb-stroke" fill="none" stroke-linecap="round" stroke-linejoin="round" stroke-miterlimit="4" stroke="#ffffff" stroke-width="2" stroke-opacity="1"><g><path d="M 388.0893 22.000031L 10 22.000031L 10 94.000031L 410.5002 94.000031L 406.0002 88.000031C 402.1056 82.807131 400.0002 76.491131 400.0002 70.000031L 400.0002 51.777531L 388.0893 22.000031ZM 522.3112 94.000031L 922 94.000031L 922 22.000031L 544.0002 22.000031L 544.0002 34.000031C 544.0002 37.816631 543.272 41.598131 541.8545 45.141731L 522.3112 94.000031ZM 490.0001 94.000031L 514.0001 34.000031L 514.0001 22.000031M 420.4001 22.000031L 430.0001 46.000031L 430.0001 70.000031L 448.0001 94.000031M 490 94L 466 118L 448 94"></path></g></g></g><g id="g-root-ic_audi_1luvv4e1059m30-stroke" data-item-order="-2304" transform="translate(506, 746)"></g><g id="g-root-ic_lapt_hydo3y105hzwj-stroke" data-item-order="-2304" transform="translate(86, 242)"></g><g id="g-root-ic_forw_dbp1721059jph-stroke" data-item-order="-2304" transform="translate(506, 650)"></g><g id="g-root-ic_doub_73qry1053zsy-stroke" data-item-order="-2304" transform="translate(506, 362)"></g><g id="g-root-ic_retr_144ussu1055cea-stroke" data-item-order="-2304" transform="translate(506, 554)"></g><g id="g-root-ic_nigh_1up9x721055ddv-stroke" data-item-order="-2304" transform="translate(506, 458)"></g><g id="g-root-tx_inadequa_18isvny1055clp-stroke" data-item-order="0" transform="translate(842, 464)"></g><g id="g-root-tx_poorligh_detemm1055edm-stroke" data-item-order="0" transform="translate(86, 470)"></g><g id="g-root-tx_exposedb_zlwx8u1055c01-stroke" data-item-order="0" transform="translate(818, 368)"></g><g id="g-root-tx_fixedfur_1lvic7i1055d6w-stroke" data-item-order="0" transform="translate(86, 566)"></g><g id="g-root-tx_outdated_djt7bi105864o-stroke" data-item-order="0" transform="translate(806, 560)"></g><g id="g-root-tx_visualcl_dik95a1053y81-stroke" data-item-order="0" transform="translate(86, 374)"></g><g id="g-root-tx_obviousc_v97pe6105i1he-stroke" data-item-order="0" transform="translate(842, 248)"></g><g id="g-root-tx_limiteda_qwinv210586pv-stroke" data-item-order="0" transform="translate(86, 650)"></g><g id="g-root-tx_narrowai_1ltmwy61059jwv-stroke" data-item-order="0" transform="translate(818, 656)"></g><g id="g-root-tx_classroo_1d0hpvy105hz49-stroke" data-item-order="0" transform="translate(146, 242)"></g><g id="g-root-tx_classroo_5upfy105i03k-stroke" data-item-order="0" transform="translate(290, 38)"></g><g id="g-root-tx_echoredu_1qdtqoe1059mh5-stroke" data-item-order="0" transform="translate(818, 752)"></g><g id="g-root-tx_acoustic_58bim1059kp6-stroke" data-item-order="0" transform="translate(86, 746)"></g></g></g></svg>