<?xml version="1.0" encoding="utf-8" standalone="yes"?>
<!DOCTYPE svg PUBLIC "-//W3C//DTD SVG 1.1//EN" "http://www.w3.org/Graphics/SVG/1.1/DTD/svg11.dtd">
<svg style="fill:none;stroke:none;fill-rule:evenodd;clip-rule:evenodd;stroke-linecap:round;stroke-linejoin:round;stroke-miterlimit:1.5;" version="1.1" xmlns="http://www.w3.org/2000/svg" xmlns:xlink="http://www.w3.org/1999/xlink" width="900" height="906" viewBox="0 0 900 906"><style class="text-font-style fontImports" data-font-family="Montserrat">@import url(https://fonts.googleapis.com/css2?family=Montserrat:wght@400;700&amp;amp;display=block);</style><g id="items" style="isolation: isolate"><g id="blend" style="mix-blend-mode: normal"><g id="g-root-cp_0_g-0_zrj71q12cxx52-fill" data-item-order="-690110" transform="translate(356, 356)"><g id="cp_0_g-0_zrj71q12cxx52-fill-merged" stroke="none" fill="#666666" fill-opacity="1"><g><path d="M54.353 19.927C66.162 13.593 79.661 10 94 10C111.195 10 127.183 15.166 140.496 24.031L141.5 32.5L149.859 31.263C167.126 46.648 178 69.054 178 94C178 100.729 177.209 107.273 175.714 113.545L168 117.499L172.063 125.08C160.387 154.379 132.695 175.559 99.803 177.803L94 172L88.197 177.803C54.905 175.531 26.94 153.861 15.519 124.009L19.5 116.501L12.055 112.549C10.71 106.582 10 100.374 10 94C10 65.502 24.191 40.319 45.892 25.132L53 26.5L54.353 19.927"></path></g></g></g><g id="g-root-cp_5_g-5_qvw6su12cxxxr-fill" data-item-order="-690106" transform="translate(210.24099731445312, 200)"><g id="cp_5_g-5_qvw6su12cxxxr-fill-merged" stroke="none" fill="#5ea9a1" fill-opacity="1"><g><path d="M96.662 57.326C138.041 26.594 188.215 10 239.758 10 V93.885C218.089 93.885 196.791 98.394 177.169 106.981L199.031 139.483L208.988 132.786L198.758 182.5L149.246 172.97L159.203 166.273L136.665 132.766C114.849 151.95 98.75 176.907 90.305 204.882L10 180.638C24.896 131.295 55.283 88.058 96.662 57.326"></path></g></g></g><g id="g-root-cp_4_g-4_mgp5ri12cxvk8-fill" data-item-order="-690098" transform="translate(200, 369.8994140625)"><g id="cp_4_g-4_mgp5ri12cxvk8-fill-merged" stroke="none" fill="#92c2bd" fill-opacity="1"><g><path d="M22.075 155.269C37.606 202.363 67.344 243.489 107.199 272.995L157.111 205.574C136.671 190.443 120.322 170.612 109.368 147.885L147.84 137.106L151.077 148.662L175.5 102.601L131.654 79.331L134.891 90.886L95.42 101.944C92.243 79.458 93.995 56.434 100.693 34.502L20.466 10C5.982 57.426 6.544 108.175 22.075 155.269"></path></g></g></g><g id="g-root-cp_3_g-3_mgp5ri12cxvk9-fill" data-item-order="-690090" transform="translate(296.87200927734375, 518)"><g id="cp_3_g-3_mgp5ri12cxvk9-fill-merged" stroke="none" fill="#b5cac8" fill-opacity="1"><g><path d="M177.128 86.259C198.336 82.96 218.745 75.305 237.024 63.656L282.104 134.399C241.1 160.528 193.127 173.587 144.536 171.846C95.945 170.105 49.029 153.647 10 124.651L60.026 57.316C80.443 72.484 104.177 82.378 129.128 86.259 V46 H117.128L153.128 10L189.128 46 H177.128 V86.259"></path></g></g></g><g id="g-root-cp_2_g-2_i0vnn212cxwci-fill" data-item-order="-690082" transform="translate(514, 373.0048828125)"><g id="cp_2_g-2_i0vnn212cxwci-fill-merged" stroke="none" fill="#aecaac" fill-opacity="1"><g><path d="M160.614 161.543C178.891 112.988 180.942 59.818 166.46 10L85.909 33.416C92.275 55.314 93.73 78.207 90.336 100.497L52.632 88.125L56.374 76.723L10 100.495L33.924 145.133L37.666 133.732L75.899 146.278C63.323 171.673 44.02 193.261 19.965 208.607L65.081 279.326C108.819 251.423 142.337 210.098 160.614 161.543"></path></g></g></g><g id="g-root-cp_1_g-1_i0vnn212cxwcj-fill" data-item-order="-690074" transform="translate(440, 200)"><g id="cp_1_g-1_i0vnn212cxwcj-fill-merged" stroke="none" fill="#8ebb8a" fill-opacity="1"><g><path d="M153.887 57.916C112.365 26.812 61.881 10 10 10 V93.885C36.273 93.885 61.995 100.513 84.845 112.996L61.353 145.743L51.603 138.748L57.5 188.5L110.106 180.716L100.356 173.722L122.948 142.228C140.079 160.182 152.773 182.059 159.819 206.112L240.321 182.53C225.736 132.742 195.41 89.02 153.887 57.916"></path></g></g></g><g id="g-root-ic_2_v7yuem12d6bd6-fill" data-item-order="-2304" transform="translate(416, 608)"><g id="ic_2_v7yuem12d6bd6-fill-merged" stroke="none" fill="#ffffff" fill-opacity="1"><g><path d="M10.43 11.75C10.43 10.922 11.102 10.25 11.93 10.25 H21.578C21.64 10.25 21.702 10.254 21.764 10.262 H46.498C46.56 10.254 46.622 10.25 46.684 10.25 H56.332C57.16 10.25 57.832 10.922 57.832 11.75 V37.25C57.832 38.078 57.16 38.75 56.332 38.75 H49.838C49.01 38.75 48.338 38.078 48.338 37.25C48.338 32.586 49.93 29.83 51.84 28.262C51.016 27.766 50.272 27.147 49.636 26.426C48.072 24.676 47.086 22.414 46.452 20.282C45.901 18.37 45.529 16.411 45.342 14.43 V14.262 H22.936 V14.43C22.732 16.411 22.36 18.37 21.808 20.282C21.174 22.414 20.188 24.676 18.626 26.426C17.988 27.14 17.256 27.766 16.422 28.262C18.33 29.828 19.922 32.586 19.922 37.25C19.922 38.078 19.25 38.75 18.422 38.75 H11.932C11.104 38.75 10.432 38.078 10.432 37.25 V11.75 M35.258 16.046C35.298 16.076 35.334 16.108 35.368 16.142L38.364 18.938C38.964 19.498 39.161 20.369 38.86 21.133C38.559 21.897 37.821 22.4 37 22.4 H36 V23.14C38.62 23.501 41.049 24.711 42.914 26.586C43.488 27.16 43.95 27.734 44.314 28.248L44.884 27.812C45.761 27.14 47.017 27.307 47.688 28.184C48.36 29.061 48.193 30.316 47.316 30.988L41.316 35.588C40.439 36.259 39.184 36.093 38.512 35.216C37.841 34.339 38.007 33.084 38.884 32.412L41.138 30.684C40.828 30.229 40.476 29.804 40.086 29.414C38.972 28.289 37.551 27.519 36 27.2 V36.594C36 37.699 35.105 38.594 34 38.594C32.895 38.594 32 37.699 32 36.594 V27.2C30.449 27.519 29.028 28.289 27.914 29.414C27.525 29.804 27.172 30.229 26.862 30.684L29.116 32.412C29.993 33.084 30.159 34.339 29.488 35.216C28.816 36.093 27.561 36.259 26.684 35.588L20.684 30.988C19.807 30.316 19.64 29.061 20.312 28.184C20.983 27.307 22.239 27.14 23.116 27.812L23.686 28.248C24.105 27.656 24.573 27.1 25.086 26.586C26.951 24.711 29.38 23.501 32 23.14 V22.4 H31C30.179 22.4 29.441 21.897 29.14 21.133C28.839 20.369 29.036 19.498 29.636 18.938L32.632 16.142C33.001 15.795 33.488 15.601 33.994 15.6C34.462 15.601 34.904 15.758 35.258 16.046 M15.818 51.306C18.132 51.306 20.009 49.43 20.009 47.116C20.009 44.802 18.132 42.926 15.818 42.926C13.504 42.926 11.629 44.802 11.629 47.116C11.629 49.43 13.504 51.306 15.818 51.306 M38.19 47.116C38.19 49.43 36.314 51.307 34 51.307C31.686 51.307 29.81 49.43 29.81 47.116C29.81 44.802 31.686 42.927 34 42.927C36.314 42.927 38.19 44.802 38.19 47.116 M52.18 51.306C54.494 51.306 56.371 49.43 56.371 47.116C56.371 44.802 54.494 42.926 52.18 42.926C49.866 42.926 47.991 44.802 47.991 47.116C47.991 49.43 49.866 51.306 52.18 51.306 M15.82 52.18C12.56 52.18 10 54.74 10 58 H21.64C21.64 54.74 19.08 52.18 15.82 52.18 M28.18 58C28.18 54.74 30.74 52.18 34 52.18C37.26 52.18 39.82 54.74 39.82 58 H28.18 M52.18 52.18C48.92 52.18 46.36 54.74 46.36 58 H58C58 54.74 55.44 52.18 52.18 52.18"></path></g></g></g><g id="g-root-ic_1_1ltmwz212dajgk-fill" data-item-order="-2304" transform="translate(602, 482)"><g id="ic_1_1ltmwz212dajgk-fill-merged" stroke="none" fill="#ffffff" fill-opacity="1"><g><path d="M26.5 10 H11.5C10.672 10 10 10.672 10 11.5 V25.5 H16.634C16.928 23.37 17.702 21.368 19.002 19.714C20.702 17.55 23.208 16.106 26.356 15.726C26.408 15.709 26.457 15.683 26.5 15.648 V10 M10 29.5 V37.5C10 38.328 10.672 39 11.5 39 H16.494 V29.5 H10 M20.494 39 V27.66C20.498 27.607 20.5 27.553 20.5 27.5C20.5 25.362 21.1 23.52 22.148 22.186C23.174 20.878 24.728 19.932 26.92 19.686C26.978 19.68 27.035 19.672 27.092 19.662C28.812 19.318 30.5 17.858 30.5 15.7 V10 H37.5 V15.7C37.5 17.858 39.19 19.318 40.908 19.66C40.964 19.672 41.022 19.68 41.08 19.688C43.272 19.932 44.826 20.878 45.852 22.186C46.89 23.506 47.486 25.32 47.5 27.426 V39 H41 V28.5C41 26.3 39.2 24.5 37 24.5 H31C28.8 24.5 27 26.3 27 28.5 V39 H20.494 M51.498 39 H56.5C57.328 39 58 38.328 58 37.5 V29.5 H51.5 V39 M58 25.5 V11.5C58 10.672 57.328 10 56.5 10 H41.5 V15.648C41.543 15.683 41.592 15.709 41.644 15.726C44.792 16.106 47.296 17.55 48.998 19.714C50.298 21.368 51.072 23.37 51.366 25.5 H58 M15.82 51.306C18.134 51.306 20.011 49.43 20.011 47.116C20.011 44.802 18.134 42.926 15.82 42.926C13.506 42.926 11.631 44.802 11.631 47.116C11.631 49.43 13.506 51.306 15.82 51.306 M38.19 47.116C38.19 49.43 36.314 51.307 34 51.307C31.686 51.307 29.81 49.43 29.81 47.116C29.81 44.802 31.686 42.927 34 42.927C36.314 42.927 38.19 44.802 38.19 47.116 M52.18 51.306C54.494 51.306 56.371 49.43 56.371 47.116C56.371 44.802 54.494 42.926 52.18 42.926C49.866 42.926 47.991 44.802 47.991 47.116C47.991 49.43 49.866 51.306 52.18 51.306 M15.82 52.18C12.56 52.18 10 54.74 10 58 H21.64C21.64 54.74 19.08 52.18 15.82 52.18 M28.18 58C28.18 54.74 30.74 52.18 34 52.18C37.26 52.18 39.82 54.74 39.82 58 H28.18 M52.18 52.18C48.92 52.18 46.36 54.74 46.36 58 H58C58 54.74 55.44 52.18 52.18 52.18"></path></g></g></g><g id="g-root-ic_reha_1hgbb7212d3jlx-fill" data-item-order="-2304" transform="translate(230, 477)"><g id="ic_reha_1hgbb7212d3jlx-fill-merged" stroke="none" fill="#ffffff" fill-opacity="1"><g><path d="M21.76 52.28C21.297 53.263 21.402 54.42 22.035 55.304C22.667 56.188 23.729 56.66 24.809 56.539C25.889 56.418 26.819 55.722 27.24 54.72L32.2 43.56C33.92 44.644 34.974 46.527 35 48.56 V53.5C35 55.157 36.343 56.5 38 56.5C39.657 56.5 41 55.157 41 53.5 V48.56C40.98 44.495 38.882 40.723 35.44 38.56 H28L21.76 52.28 M41 22C43.129 22.008 45.053 20.732 45.874 18.767C46.694 16.802 46.249 14.536 44.746 13.028C43.244 11.519 40.98 11.066 39.012 11.879C37.044 12.691 35.76 14.611 35.76 16.74C35.76 19.637 38.103 21.989 41 22 M51.5 32.5C51.5 30.843 50.157 29.5 48.5 29.5C41.6 29.5 39.26 25.3 39.18 25.16C38.642 24.144 37.589 23.506 36.44 23.5C35.277 23.524 34.233 24.217 33.76 25.28L30.56 32.5 H11.5C10.672 32.5 10 33.172 10 34C10 34.828 10.672 35.5 11.5 35.5 H14.16 V56.5C14.16 57.328 14.832 58 15.66 58C16.488 58 17.16 57.328 17.16 56.5 V35.5 H48.5C48.862 35.495 49.221 35.428 49.56 35.3 V56.5C49.56 57.328 50.232 58 51.06 58C51.888 58 52.56 57.328 52.56 56.5 V35.5 H56.56C57.388 35.5 58.06 34.828 58.06 34C58.06 33.172 57.388 32.5 56.56 32.5 H51.5 M37.12 32.5L37.38 31.92L38.2 32.5 H37.12"></path></g></g></g><g id="g-root-ic_vert_1cu927i12czcat-fill" data-item-order="-2304" transform="translate(314, 254)"><g id="ic_vert_1cu927i12czcat-fill-merged" stroke="none" fill="#ffffff" fill-opacity="1"><g><path d="M26.56 55C26.411 55.004 26.27 55.072 26.174 55.187C26.079 55.302 26.037 55.452 26.06 55.6C26.352 56.993 27.577 57.993 29 58 H39C40.446 58.021 41.703 57.015 42 55.6C42.03 55.451 41.992 55.297 41.894 55.18C41.797 55.063 41.652 54.997 41.5 55 H26.56 M24.5 43C24.224 43 24 43.224 24 43.5 V51C23.997 51.65 24.208 52.282 24.6 52.8C24.696 52.924 24.843 52.997 25 53 H43C43.157 52.997 43.304 52.924 43.4 52.8C43.792 52.282 44.003 51.65 44 51 V43.5C44 43.224 43.776 43 43.5 43 H24.5 M20.5 19C20.224 19 20 19.224 20 19.5 V30.18C19.994 32.044 20.662 33.848 21.88 35.26C21.956 35.349 21.999 35.463 22 35.58 V38C22.001 38.907 22.361 39.777 23 40.42L23.44 40.86C23.54 40.946 23.668 40.996 23.8 41 H44.2C44.332 40.996 44.46 40.946 44.56 40.86L45 40.42C45.639 39.777 45.999 38.907 46 38 V35.58C46.001 35.463 46.044 35.349 46.12 35.26C47.338 33.848 48.006 32.044 48 30.18 V19.5C48 19.224 47.776 19 47.5 19 H20.5 M28.5 31C28.5 31.828 27.828 32.5 27 32.5C26.172 32.5 25.5 31.828 25.5 31 V23C25.5 22.172 26.172 21.5 27 21.5C27.828 21.5 28.5 22.172 28.5 23 V31 M35.5 31C35.5 31.828 34.828 32.5 34 32.5C33.172 32.5 32.5 31.828 32.5 31 V23C32.5 22.172 33.172 21.5 34 21.5C34.828 21.5 35.5 22.172 35.5 23 V31 M41 32.5C40.176 32.489 39.511 31.824 39.5 31 V23C39.5 22.172 40.172 21.5 41 21.5C41.828 21.5 42.5 22.172 42.5 23 V31C42.489 31.824 41.824 32.489 41 32.5 M50 15.5C49.989 14.676 49.324 14.011 48.5 14 H48.3C48.075 14.007 47.876 13.858 47.82 13.64C47.205 11.488 45.239 10.003 43 10 H25C22.761 10.003 20.795 11.488 20.18 13.64C20.124 13.858 19.925 14.007 19.7 14 H19.5C18.672 14 18 14.672 18 15.5C18 16.328 18.672 17 19.5 17 H48.5C49.324 16.989 49.989 16.324 50 15.5"></path></g></g></g><g id="g-root-ic_soun_dj6q9a12ddds6-fill" data-item-order="-2304" transform="translate(536, 260)"><g id="ic_soun_dj6q9a12ddds6-fill-merged" stroke="none" fill="#ffffff" fill-opacity="1"><g><path d="M34 10C32.895 10 32 10.895 32 12 V56C32 57.105 32.895 58 34 58C35.105 58 36 57.105 36 56 V12C36 10.895 35.105 10 34 10 M26 14C24.895 14 24 14.895 24 16 V52C24 53.105 24.895 54 26 54C27.105 54 28 53.105 28 52 V16C28 14.895 27.105 14 26 14 M18 22C16.895 22 16 22.895 16 24 V44C16 45.105 16.895 46 18 46C19.105 46 20 45.105 20 44 V24C20 22.895 19.105 22 18 22 M12 30C10.895 30 10 30.895 10 32 V36C10 37.105 10.895 38 12 38C13.105 38 14 37.105 14 36 V32C14 30.895 13.105 30 12 30 M42 14C40.895 14 40 14.895 40 16 V52C40 53.105 40.895 54 42 54C43.105 54 44 53.105 44 52 V16C44 14.895 43.105 14 42 14 M50 22C48.895 22 48 22.895 48 24 V44C48 45.105 48.895 46 50 46C51.105 46 52 45.105 52 44 V24C52 22.895 51.105 22 50 22 M56 30C54.895 30 54 30.895 54 32 V36C54 37.105 54.895 38 56 38C57.105 38 58 37.105 58 36 V32C58 30.895 57.105 30 56 30"></path></g></g></g><g id="g-root-tx_quickrec_1ha2kby12dg5c2-fill" data-item-order="0" transform="translate(368, 776)"><g id="tx_quickrec_1ha2kby12dg5c2-fill-merged" stroke="none" fill="#484848" fill-opacity="1"><g><text style="font: 15px Montserrat, sans-serif; white-space: pre;" transform="translate(82, 46)" font-size="15px" font-family="Montserrat, sans-serif"><tspan x="-23.96" y="-18" dominant-baseline="ideographic">Quick </tspan><tspan x="-60.05" y="0" dominant-baseline="ideographic">reconfiguration </tspan><tspan x="-66.11" y="18" dominant-baseline="ideographic">allows for diverse </tspan><tspan x="-60.06" y="36" dominant-baseline="ideographic">learning setups</tspan></text></g></g></g><g id="g-root-tx_activele_hvvuy612depzc-fill" data-item-order="0" transform="translate(374, 404)"><g id="tx_activele_hvvuy612depzc-fill-merged" stroke="none" fill="#ffffff" fill-opacity="1"><g><text style="font: bold 20px Montserrat, sans-serif; white-space: pre;" transform="translate(76, 46)" font-weight="bold" font-size="20px" font-family="Montserrat, sans-serif"><tspan x="-33.1" y="-12" dominant-baseline="ideographic">Active </tspan><tspan x="-46.47" y="12" dominant-baseline="ideographic">Learning </tspan><tspan x="-61.88" y="36" dominant-baseline="ideographic">Ecosystems</tspan></text></g></g></g><g id="g-root-tx_greatera_1urrtke12der63-fill" data-item-order="0" transform="translate(38, 434)"><g id="tx_greatera_1urrtke12der63-fill-merged" stroke="none" fill="#92c2bd" fill-opacity="1"><g><text style="font: bold 20px Montserrat, sans-serif; white-space: pre;" transform="translate(154, 40)" font-weight="bold" font-size="20px" font-family="Montserrat, sans-serif"><tspan x="-80.14" y="-0" dominant-baseline="ideographic">Greater </tspan><tspan x="-132.51" y="24" dominant-baseline="ideographic">Accessibility</tspan></text></g></g></g><g id="g-root-tx_enhanced_147cp6612deq6f-fill" data-item-order="0" transform="translate(698, 434)"><g id="tx_enhanced_147cp6612deq6f-fill-merged" stroke="none" fill="#aecaac" fill-opacity="1"><g><text style="font: bold 20px Montserrat, sans-serif; white-space: pre;" transform="translate(10, 40)" font-weight="bold" font-size="20px" font-family="Montserrat, sans-serif"><tspan x="2" y="-0" dominant-baseline="ideographic">Enhanced </tspan><tspan x="2" y="24" dominant-baseline="ideographic">Visibility</tspan></text></g></g></g><g id="g-root-tx_lighting_mcyb8u12derd6-fill" data-item-order="0" transform="translate(86, 182)"><g id="tx_lighting_mcyb8u12derd6-fill-merged" stroke="none" fill="#484848" fill-opacity="1"><g><text style="font: 15px Montserrat, sans-serif; white-space: pre;" transform="translate(190, 46)" font-size="15px" font-family="Montserrat, sans-serif"><tspan x="-142.84" y="-9" dominant-baseline="ideographic">Lighting adjusts to </tspan><tspan x="-149.75" y="9" dominant-baseline="ideographic">match instructional </tspan><tspan x="-53.88" y="27" dominant-baseline="ideographic">modes</tspan></text></g></g></g><g id="g-root-tx_improved_dj6q9a12der65-fill" data-item-order="0" transform="translate(614, 110)"><g id="tx_improved_dj6q9a12der65-fill-merged" stroke="none" fill="#8ebb8a" fill-opacity="1"><g><text style="font: bold 20px Montserrat, sans-serif; white-space: pre;" transform="translate(10, 40)" font-weight="bold" font-size="20px" font-family="Montserrat, sans-serif"><tspan x="2" y="-0" dominant-baseline="ideographic">Improved </tspan><tspan x="2" y="24" dominant-baseline="ideographic">Audibility</tspan></text></g></g></g><g id="g-root-tx_presetli_1luvv5a12deqkh-fill" data-item-order="0" transform="translate(74, 98)"><g id="tx_presetli_1luvv5a12deqkh-fill-merged" stroke="none" fill="#5ea9a1" fill-opacity="1"><g><text style="font: bold 20px Montserrat, sans-serif; white-space: pre;" transform="translate(202, 46)" font-weight="bold" font-size="20px" font-family="Montserrat, sans-serif"><tspan x="-75.1" y="-0" dominant-baseline="ideographic">Preset </tspan><tspan x="-170.41" y="24" dominant-baseline="ideographic">Lighting Scenes</tspan></text></g></g></g><g id="g-root-tx_ergonomi_145h9wu12der64-fill" data-item-order="0" transform="translate(14, 506)"><g id="tx_ergonomi_145h9wu12der64-fill-merged" stroke="none" fill="#484848" fill-opacity="1"><g><text style="font: 15px Montserrat, sans-serif; white-space: pre;" transform="translate(178, 46)" font-size="15px" font-family="Montserrat, sans-serif"><tspan x="-155.57" y="-9" dominant-baseline="ideographic">Ergonomic furniture </tspan><tspan x="-130.94" y="9" dominant-baseline="ideographic">and clear routing </tspan><tspan x="-131.11" y="27" dominant-baseline="ideographic">ensure inclusivity</tspan></text></g></g></g><g id="g-root-tx_curvedla_mg2ooe12desjk-fill" data-item-order="0" transform="translate(698, 506)"><g id="tx_curvedla_mg2ooe12desjk-fill-merged" stroke="none" fill="#484848" fill-opacity="1"><g><text style="font: 15px Montserrat, sans-serif; white-space: pre;" transform="translate(10, 46)" font-size="15px" font-family="Montserrat, sans-serif"><tspan x="2" y="-18" dominant-baseline="ideographic">Curved layouts </tspan><tspan x="2" y="0" dominant-baseline="ideographic">and multiple </tspan><tspan x="2" y="18" dominant-baseline="ideographic">teaching points </tspan><tspan x="2" y="36" dominant-baseline="ideographic">improve sightlines</tspan></text></g></g></g><g id="g-root-tx_transfor_958ne612cxx58-fill" data-item-order="0" transform="translate(122, 38)"><g id="tx_transfor_958ne612cxx58-fill-merged" stroke="none" fill="#484848" fill-opacity="1"><g><text style="font: bold 25px Montserrat, sans-serif; white-space: pre;" transform="translate(328, 28)" font-weight="bold" font-size="25px" font-family="Montserrat, sans-serif"><tspan x="-310.32" y="15" dominant-baseline="ideographic">Impact of Creating Active Learning Ecosystems</tspan></text></g></g></g><g id="g-root-tx_flexible_9ln5a12derrd-fill" data-item-order="0" transform="translate(374, 704)"><g id="tx_flexible_9ln5a12derrd-fill-merged" stroke="none" fill="#b5cac8" fill-opacity="1"><g><text style="font: bold 20px Montserrat, sans-serif; white-space: pre;" transform="translate(76, 40)" font-weight="bold" font-size="20px" font-family="Montserrat, sans-serif"><tspan x="-40.74" y="-0" dominant-baseline="ideographic">Flexible </tspan><tspan x="-63.96" y="24" dominant-baseline="ideographic">Adaptability</tspan></text></g></g></g><g id="g-root-tx_acoustic_1ly08ku12deqz2-fill" data-item-order="0" transform="translate(614, 182)"><g id="tx_acoustic_1ly08ku12deqz2-fill-merged" stroke="none" fill="#484848" fill-opacity="1"><g><text style="font: 15px Montserrat, sans-serif; white-space: pre;" transform="translate(10, 46)" font-size="15px" font-family="Montserrat, sans-serif"><tspan x="2" y="-9" dominant-baseline="ideographic">Acoustic zones reduce </tspan><tspan x="2" y="9" dominant-baseline="ideographic">echo and enhance </tspan><tspan x="2" y="27" dominant-baseline="ideographic">sound clarity</tspan></text></g></g></g><g id="g-root-cp_0_g-0_zrj71q12cxx52-stroke" data-item-order="-690110" transform="translate(356, 356)"><g id="cp_0_g-0_zrj71q12cxx52-stroke" fill="none" stroke-linecap="round" stroke-linejoin="round" stroke-miterlimit="4" stroke="#ffffff" stroke-width="2" stroke-opacity="1"><g><path d="M 54.3525 19.9268C 66.1619 13.5926 79.6614 10 94 10C 111.1946 10 127.1825 15.1663 140.4962 24.0313L 141.5 32.5L 149.8591 31.2632C 167.1259 46.648 178 69.0541 178 94C 178 100.7292 177.2088 107.2735 175.7142 113.5451L 168 117.4995L 172.0628 125.08C 160.3875 154.3788 132.6953 175.5585 99.8026 177.8027L 93.9999 172L 88.1972 177.8027C 54.9051 175.5312 26.9404 153.8613 15.5189 124.0087L 19.5 116.5005L 12.0549 112.5492C 10.7099 106.5818 10 100.3738 10 94C 10 65.5024 24.191 40.3193 45.8918 25.1319L 52.9999 26.5L 54.3525 19.9268Z"></path></g></g></g><g id="g-root-cp_5_g-5_qvw6su12cxxxr-stroke" data-item-order="-690106" transform="translate(210.24099731445312, 200)"><g id="cp_5_g-5_qvw6su12cxxxr-stroke" fill="none" stroke-linecap="round" stroke-linejoin="round" stroke-miterlimit="4" stroke="#ffffff" stroke-width="2" stroke-opacity="1"><g><path d="M 96.662 57.3257C 138.0414 26.5938 188.2153 10 239.7585 10L 239.7585 93.8849C 218.0886 93.8849 196.7909 98.3939 177.1693 106.9806L 199.0313 139.483L 208.9884 132.7856L 198.7585 182.5L 149.2457 172.9702L 159.2028 166.2728L 136.6653 132.7661C 114.8493 151.9503 98.7504 176.9073 90.3052 204.8816L 10 180.6383C 24.8964 131.2946 55.2826 88.0575 96.662 57.3257Z"></path></g></g></g><g id="g-root-cp_4_g-4_mgp5ri12cxvk8-stroke" data-item-order="-690098" transform="translate(200, 369.8994140625)"><g id="cp_4_g-4_mgp5ri12cxvk8-stroke" fill="none" stroke-linecap="round" stroke-linejoin="round" stroke-miterlimit="4" stroke="#ffffff" stroke-width="2" stroke-opacity="1"><g><path d="M 22.075 155.2687C 37.6061 202.3626 67.3437 243.4893 107.1994 272.9948L 157.1111 205.5745C 136.6711 190.4427 120.3223 170.6118 109.3679 147.8846L 147.8398 137.1064L 151.077 148.6616L 175.5 102.601L 131.6537 79.3309L 134.8909 90.886L 95.4204 101.9439C 92.2431 79.4581 93.9946 56.4338 100.6928 34.5017L 20.466 10C 5.9818 57.4263 6.5438 108.1749 22.075 155.2687Z"></path></g></g></g><g id="g-root-cp_3_g-3_mgp5ri12cxvk9-stroke" data-item-order="-690090" transform="translate(296.87200927734375, 518)"><g id="cp_3_g-3_mgp5ri12cxvk9-stroke" fill="none" stroke-linecap="round" stroke-linejoin="round" stroke-miterlimit="4" stroke="#ffffff" stroke-width="2" stroke-opacity="1"><g><path d="M 177.1278 86.2594C 198.3358 82.9597 218.7447 75.3046 237.0242 63.6562L 282.1039 134.3986C 241.0999 160.5279 193.1266 173.5868 144.5359 171.8461C 95.9453 170.1055 49.0293 153.6474 10 124.6511L 60.0261 57.3156C 80.4428 72.4839 104.1772 82.3776 129.1278 86.2595L 129.1278 46L 117.1278 46L 153.1278 10L 189.1278 46L 177.1278 46L 177.1278 86.2594Z"></path></g></g></g><g id="g-root-cp_2_g-2_i0vnn212cxwci-stroke" data-item-order="-690082" transform="translate(514, 373.0048828125)"><g id="cp_2_g-2_i0vnn212cxwci-stroke" fill="none" stroke-linecap="round" stroke-linejoin="round" stroke-miterlimit="4" stroke="#ffffff" stroke-width="2" stroke-opacity="1"><g><path d="M 160.6143 161.5431C 178.8911 112.9883 180.942 59.8184 166.4598 10L 85.9094 33.416C 92.2752 55.314 93.7302 78.2075 90.336 100.4974L 52.632 88.1246L 56.3735 76.7228L 10 100.4947L 33.9241 145.1335L 37.6657 133.7317L 75.8992 146.2783C 63.323 171.6729 44.0199 193.2608 19.9645 208.6073L 65.081 279.3263C 108.8189 251.4229 142.3375 210.0979 160.6143 161.5431Z"></path></g></g></g><g id="g-root-cp_1_g-1_i0vnn212cxwcj-stroke" data-item-order="-690074" transform="translate(440, 200)"><g id="cp_1_g-1_i0vnn212cxwcj-stroke" fill="none" stroke-linecap="round" stroke-linejoin="round" stroke-miterlimit="4" stroke="#ffffff" stroke-width="2" stroke-opacity="1"><g><path d="M 153.8874 57.9156C 112.3646 26.8115 61.8807 10 10 10L 10 93.8849C 36.273 93.8849 61.9952 100.5128 84.8451 112.9956L 61.3533 145.7427L 51.6028 138.7479L 57.5 188.5L 110.1062 180.7164L 100.3556 173.7217L 122.948 142.2283C 140.079 160.1823 152.773 182.0588 159.8192 206.112L 240.321 182.5299C 225.736 132.7415 195.4102 89.0197 153.8874 57.9156Z"></path></g></g></g><g id="g-root-ic_2_v7yuem12d6bd6-stroke" data-item-order="-2304" transform="translate(416, 608)"></g><g id="g-root-ic_1_1ltmwz212dajgk-stroke" data-item-order="-2304" transform="translate(602, 482)"></g><g id="g-root-ic_reha_1hgbb7212d3jlx-stroke" data-item-order="-2304" transform="translate(230, 477)"></g><g id="g-root-ic_vert_1cu927i12czcat-stroke" data-item-order="-2304" transform="translate(314, 254)"></g><g id="g-root-ic_soun_dj6q9a12ddds6-stroke" data-item-order="-2304" transform="translate(536, 260)"></g><g id="g-root-tx_quickrec_1ha2kby12dg5c2-stroke" data-item-order="0" transform="translate(368, 776)"></g><g id="g-root-tx_activele_hvvuy612depzc-stroke" data-item-order="0" transform="translate(374, 404)"></g><g id="g-root-tx_greatera_1urrtke12der63-stroke" data-item-order="0" transform="translate(38, 434)"></g><g id="g-root-tx_enhanced_147cp6612deq6f-stroke" data-item-order="0" transform="translate(698, 434)"></g><g id="g-root-tx_lighting_mcyb8u12derd6-stroke" data-item-order="0" transform="translate(86, 182)"></g><g id="g-root-tx_improved_dj6q9a12der65-stroke" data-item-order="0" transform="translate(614, 110)"></g><g id="g-root-tx_presetli_1luvv5a12deqkh-stroke" data-item-order="0" transform="translate(74, 98)"></g><g id="g-root-tx_ergonomi_145h9wu12der64-stroke" data-item-order="0" transform="translate(14, 506)"></g><g id="g-root-tx_curvedla_mg2ooe12desjk-stroke" data-item-order="0" transform="translate(698, 506)"></g><g id="g-root-tx_transfor_958ne612cxx58-stroke" data-item-order="0" transform="translate(122, 38)"></g><g id="g-root-tx_flexible_9ln5a12derrd-stroke" data-item-order="0" transform="translate(374, 704)"></g><g id="g-root-tx_acoustic_1ly08ku12deqz2-stroke" data-item-order="0" transform="translate(614, 182)"></g></g></g></svg>