<?xml version="1.0" encoding="utf-8" standalone="yes"?>
<!DOCTYPE svg PUBLIC "-//W3C//DTD SVG 1.1//EN" "http://www.w3.org/Graphics/SVG/1.1/DTD/svg11.dtd">
<svg style="fill:none;stroke:none;fill-rule:evenodd;clip-rule:evenodd;stroke-linecap:round;stroke-linejoin:round;stroke-miterlimit:1.5;" version="1.1" xmlns="http://www.w3.org/2000/svg" xmlns:xlink="http://www.w3.org/1999/xlink" width="816" height="756" viewBox="0 0 816 756"><style class="text-font-style fontImports" data-font-family="Roboto">@import url(https://fonts.googleapis.com/css2?family=Roboto:wght@400;700&amp;amp;display=block);</style><g id="items" style="isolation: isolate"><g id="blend" style="mix-blend-mode: normal"><g id="g-root-cp_0_g-0_1hhl4wu13rfj7u-fill" data-item-order="-506845" transform="translate(230, 218)"></g><g id="g-root-cp_1_g-1_1hhl4wu13rfj7v-fill" data-item-order="-506842" transform="translate(230, 218)"><g id="cp_1_g-1_1hhl4wu13rfj7v-fill-merged" stroke="none" fill="#4e88e7" fill-opacity="1"><g><path d="M141.78 122.142C149.497 110.673 154 96.862 154 82C154 42.236 121.765 10 82 10C42.236 10 10 42.236 10 82C10 121.765 42.236 154 82 154C96.301 154 109.628 149.831 120.832 142.641L154 154L141.78 122.142"></path></g></g></g><g id="g-root-cp_3_g-3_1d1rmse13rfk04-fill" data-item-order="-506838" transform="translate(230, 410)"><g id="cp_3_g-3_1d1rmse13rfk04-fill-merged" stroke="none" fill="#e0cb15" fill-opacity="1"><g><path d="M141.78 41.858C149.497 53.327 154 67.138 154 82C154 121.765 121.765 154 82 154C42.236 154 10 121.765 10 82C10 42.236 42.236 10 82 10C96.301 10 109.628 14.169 120.832 21.359L154 10L141.78 41.858"></path></g></g></g><g id="g-root-cp_2_g-2_1464mji13rfkst-fill" data-item-order="-506834" transform="translate(422, 218)"><g id="cp_2_g-2_1464mji13rfkst-fill-merged" stroke="none" fill="#3cc583" fill-opacity="1"><g><path d="M22.22 122.142C14.503 110.673 10 96.862 10 82C10 42.236 42.236 10 82 10C121.765 10 154 42.236 154 82C154 121.765 121.765 154 82 154C67.699 154 54.372 149.831 43.168 142.641L10 154L22.22 122.142"></path></g></g></g><g id="g-root-cp_4_g-4_1464mji13rfksu-fill" data-item-order="-506830" transform="translate(422, 410)"><g id="cp_4_g-4_1464mji13rfksu-fill-merged" stroke="none" fill="#92bd39" fill-opacity="1"><g><path d="M22.22 41.858C14.503 53.327 10 67.138 10 82C10 121.765 42.236 154 82 154C121.765 154 154 121.765 154 82C154 42.236 121.765 10 82 10C67.699 10 54.372 14.169 43.168 21.359L10 10L22.22 41.858"></path></g></g></g><g id="g-root-ic_1_qn6f4u13rgwsu-fill" data-item-order="-5184" transform="translate(266, 254)"><g id="ic_1_qn6f4u13rgwsu-fill-merged" stroke="none" fill="#ffffff" fill-opacity="1"><g><path d="M34.75 10 H12.25C11.007 10 10 11.007 10 12.25 V33.25 H19.951C20.392 30.055 21.553 27.052 23.503 24.571C26.053 21.325 29.812 19.159 34.534 18.589C34.613 18.564 34.686 18.524 34.75 18.472 V10 M10 39.25 V51.25C10 52.492 11.008 53.5 12.25 53.5 H19.741 V39.25 H10 M25.741 53.5 V36.49C25.747 36.41 25.75 36.33 25.75 36.25C25.75 33.043 26.65 30.28 28.222 28.279C29.761 26.317 32.092 24.898 35.38 24.529C35.466 24.521 35.553 24.509 35.638 24.493C38.218 23.977 40.75 21.787 40.75 18.55 V10 H51.25 V18.55C51.25 21.787 53.785 23.977 56.362 24.49C56.446 24.508 56.533 24.52 56.62 24.532C59.908 24.898 62.239 26.317 63.778 28.279C65.335 30.259 66.229 32.98 66.25 36.139 V53.5 H56.5 V37.75C56.5 34.45 53.8 31.75 50.5 31.75 H41.5C38.2 31.75 35.5 34.45 35.5 37.75 V53.5 H25.741 M72.247 53.5 H79.75C80.993 53.5 82 52.493 82 51.25 V39.25 H72.25 V53.5 M82 33.25 V12.25C82 11.007 80.993 10 79.75 10 H57.25 V18.472C57.314 18.524 57.387 18.564 57.466 18.589C62.188 19.159 65.944 21.325 68.497 24.571C70.447 27.052 71.608 30.055 72.049 33.25 H82 M18.73 71.959C22.202 71.96 25.016 69.146 25.016 65.674C25.016 62.202 22.202 59.388 18.73 59.389C15.259 59.39 12.446 62.203 12.446 65.674C12.446 69.145 15.259 71.958 18.73 71.959 M52.285 65.674C52.286 69.146 49.472 71.96 46 71.96C42.528 71.96 39.714 69.146 39.715 65.674C39.716 62.203 42.529 59.39 46 59.39C49.471 59.39 52.284 62.203 52.285 65.674 M73.27 71.959C76.742 71.96 79.556 69.146 79.556 65.674C79.556 62.202 76.742 59.388 73.27 59.389C69.799 59.39 66.986 62.203 66.986 65.674C66.986 69.145 69.799 71.958 73.27 71.959 M18.73 73.27C13.84 73.27 10 77.11 10 82 H27.46C27.46 77.11 23.62 73.27 18.73 73.27 M37.27 82C37.27 77.11 41.11 73.27 46 73.27C50.89 73.27 54.73 77.11 54.73 82 H37.27 M73.27 73.27C68.38 73.27 64.54 77.11 64.54 82 H82C82 77.11 78.16 73.27 73.27 73.27"></path></g></g></g><g id="g-root-ic_cabi_1449afy13qxb7w-fill" data-item-order="-5184" transform="translate(458, 254)"><g id="ic_cabi_1449afy13qxb7w-fill-merged" stroke="none" fill="#ffffff" fill-opacity="1"><g><path d="M30.25 10.75C30.25 10.336 29.914 10 29.5 10 H14.5C12.015 10 10 12.015 10 14.5 V29.5C10 31.985 12.015 34 14.5 34 H29.5C29.914 34 30.25 33.664 30.25 33.25 V10.75 M16 20.5 V17.5C16 16.672 16.672 16 17.5 16C18.328 16 19 16.672 19 17.5 V20.5C19 21.328 18.328 22 17.5 22C16.672 22 16 21.328 16 20.5 M58.75 58C58.336 58 58 58.336 58 58.75 V79C58 80.38 60.43 82 62.5 82 H77.5C79.57 82 82 80.38 82 79 V58.75C82 58.336 81.664 58 81.25 58 H58.75 M64 64C64 63.172 64.672 62.5 65.5 62.5C66.328 62.5 67 63.172 67 64 V67C67 67.828 66.328 68.5 65.5 68.5C64.672 68.5 64 67.828 64 67 V64 M55 10.75C55 10.336 54.664 10 54.25 10 H34C33.586 10 33.25 10.336 33.25 10.75 V33.25C33.25 33.664 33.586 34 34 34 H54.25C54.664 34 55 33.664 55 33.25 V10.75 M40.75 22C39.922 22 39.25 21.328 39.25 20.5 V17.5C39.25 16.672 39.922 16 40.75 16C41.578 16 42.25 16.672 42.25 17.5 V20.5C42.25 21.328 41.578 22 40.75 22 M33.25 50.5C33.25 48.843 31.907 47.5 30.25 47.5 H16C12.686 47.5 10 50.186 10 53.5 V79C10 80.657 11.343 82 13 82C14.657 82 16 80.657 16 79 V55C16 54.172 16.672 53.5 17.5 53.5 H30.25C31.907 53.5 33.25 52.157 33.25 50.5 M41.5 41.5C39.843 41.5 38.5 42.843 38.5 44.5 V59.5C38.5 61.157 37.157 62.5 35.5 62.5 H23.5C21.843 62.5 20.5 63.843 20.5 65.5C20.5 67.157 21.843 68.5 23.5 68.5 H28.75C29.164 68.5 29.5 68.836 29.5 69.25 V72.25C29.496 72.516 29.361 72.762 29.14 72.91L23.47 76.42C22.426 76.892 21.742 77.916 21.707 79.061C21.671 80.205 22.291 81.27 23.303 81.806C24.315 82.341 25.544 82.254 26.47 81.58L32.05 78.22C32.296 78.101 32.584 78.101 32.83 78.22L38.41 81.58C39.336 82.254 40.565 82.341 41.577 81.806C42.589 81.27 43.209 80.205 43.173 79.061C43.138 77.916 42.454 76.892 41.41 76.42L35.86 73C35.639 72.852 35.504 72.606 35.5 72.34 V69.22C35.499 68.828 35.799 68.501 36.19 68.47C40.889 68.109 44.514 64.183 44.5 59.47 V44.47C44.484 42.825 43.145 41.5 41.5 41.5 M81.25 53.5C81.664 53.5 82 53.164 82 52.75 V16C82 11.56 79.69 10 77.5 10 H58.75C58.336 10 58 10.336 58 10.75 V46.75C58 47.164 57.664 47.5 57.25 47.5 H50.5C48.843 47.5 47.5 48.843 47.5 50.5C47.5 52.157 48.843 53.5 50.5 53.5 H81.25 M67 20.5C67 21.328 66.328 22 65.5 22C64.672 22 64 21.328 64 20.5 V17.5C64 16.672 64.672 16 65.5 16C66.328 16 67 16.672 67 17.5 V20.5"></path></g></g></g><g id="g-root-ic_chai_1ulk1em13r045e-fill" data-item-order="-5184" transform="translate(266, 446)"><g id="ic_chai_1ulk1em13r045e-fill-merged" stroke="none" fill="#ffffff" fill-opacity="1"><g><path d="M30.661 11.032C29.611 10.333 28.213 9.745 26.671 10.252L13.183 14.452C13.106 14.476 13.03 14.506 12.958 14.542C11.398 15.322 10.03 16.966 10.03 18.88 V35.38C10.03 37.441 11.275 39.316 13.219 39.826L26.683 44.014C26.828 44.06 26.978 44.083 27.13 44.083 H27.211C28.081 44.083 29.38 44.083 30.661 43.228C30.743 43.174 30.819 43.111 30.889 43.042C31.588 42.346 32.53 41.08 32.53 39.58 V14.68C32.53 13.435 32.095 11.989 30.661 11.032 M57.643 47.038C58.399 43.303 61.837 40.897 65.419 41.683C69.16 42.439 71.569 45.886 70.774 49.477L67.765 63.013C67.015 66.001 64.375 68.35 61.21 68.35 H53.218L49.699 77.014C49.689 77.035 49.679 77.056 49.669 77.077C49.006 78.523 47.707 79.747 46.189 80.443C44.653 81.148 42.757 81.361 40.939 80.554C39.223 79.789 38.065 78.496 37.513 76.924C36.973 75.382 37.051 73.678 37.585 72.076C37.595 72.046 37.606 72.016 37.618 71.986L42.73 59.359C43.852 56.743 46.171 55.15 48.91 55.15 H55.81L57.64 47.035 M76.741 82 H50.572C51.685 81.01 52.571 79.791 53.17 78.427L55.741 72.1 H61.207C66.292 72.1 70.285 68.38 71.398 63.922C71.41 63.877 71.422 63.832 71.428 63.79L74.428 50.29C74.868 48.361 74.722 46.345 74.008 44.5 H76.744C78.154 44.5 79.504 44.98 80.509 45.985C81.511 46.987 81.991 48.34 81.991 49.75 V76.75C81.991 78.16 81.511 79.51 80.509 80.515C79.504 81.52 78.154 82 76.741 82 M17.302 48.64C17.998 48.586 18.712 48.688 19.33 48.892L22.282 49.777C24.148 50.3 25.448 51.986 25.48 53.923 V61.123C25.48 62.668 24.706 64.642 22.705 65.233C20.896 66.064 19.075 65.542 17.818 64.282L14.818 61.282C14.407 60.884 14.073 60.413 13.834 59.893C13.592 59.335 13.471 58.731 13.48 58.123 V53.023C13.48 51.523 14.422 50.26 15.118 49.561C15.766 48.913 16.618 48.691 17.302 48.64 M39.592 31.114C39.976 30.832 40.472 30.75 40.927 30.892 H41.119L41.689 31.111C42.181 31.246 42.883 31.426 43.714 31.606C45.394 31.972 47.524 32.323 49.48 32.323C50.308 32.323 50.98 32.995 50.98 33.823 V45.823C50.98 46.307 50.746 46.762 50.352 47.043C49.958 47.325 49.452 47.399 48.994 47.242L49.48 45.823L48.994 47.242 H48.91C48.563 47.091 48.217 46.966 47.872 46.837C46.991 46.506 46.117 46.154 45.253 45.781C43.315 44.944 40.825 43.729 39.442 42.406C39.147 42.123 38.98 41.732 38.98 41.323 V32.323C38.98 31.846 39.207 31.397 39.592 31.114 M67.744 18.1C62.359 18.1 57.994 22.465 57.994 27.85C57.994 33.235 62.359 37.6 67.744 37.6C73.129 37.6 77.494 33.235 77.494 27.85C77.494 22.465 73.129 18.1 67.744 18.1"></path></g></g></g><g id="g-root-ic_doub_143mtcu13r4bnq-fill" data-item-order="-5184" transform="translate(458, 446)"><g id="ic_doub_143mtcu13r4bnq-fill-merged" stroke="none" fill="#ffffff" fill-opacity="1"><g><path d="M59.11 34.15L63.79 45.1C63.982 45.552 64.387 45.879 64.87 45.97C65.362 46.064 65.868 45.907 66.22 45.55L80.05 31.72C80.407 31.368 80.564 30.862 80.47 30.37C80.379 29.887 80.052 29.482 79.6 29.29L68.65 24.58C67.519 24.104 66.211 24.366 65.35 25.24L59.74 31C58.938 31.84 58.693 33.067 59.11 34.15 M79 76 H50.5C49.672 76 49 75.328 49 74.5 V20.5 H50.95C51.359 20.512 51.747 20.685 52.03 20.98L57.49 26.68C57.769 26.981 58.159 27.155 58.57 27.16C58.975 27.159 59.364 26.997 59.65 26.71L61.78 24.58C62.348 24.007 62.348 23.083 61.78 22.51L55.78 16.33C54.65 15.177 53.104 14.529 51.49 14.53 H49.63C49.252 14.469 48.98 14.133 49 13.75 V13C49 11.343 47.657 10 46 10C44.343 10 43 11.343 43 13 V22.75C43 23.164 42.664 23.5 42.25 23.5 H39.52C37.594 23.502 35.787 24.428 34.66 25.99L30.28 32.56C29.842 33.206 29.972 34.08 30.58 34.57L32.95 36.43C33.287 36.677 33.706 36.785 34.12 36.73C34.539 36.667 34.911 36.427 35.14 36.07L39.07 30.07C39.356 29.656 39.827 29.41 40.33 29.41 H43 V74.41C43 75.238 42.328 75.91 41.5 75.91 H13C11.343 75.91 10 77.253 10 78.91C10 80.567 11.343 81.91 13 81.91 H79C80.657 81.91 82 80.567 82 78.91C82 77.253 80.657 75.91 79 75.91 V76 M28.96 56.17C29.342 56.494 29.864 56.596 30.34 56.44C30.817 56.283 31.188 55.902 31.33 55.42L34.69 43.99C35.033 42.806 34.616 41.533 33.64 40.78L27.4 35.89C26.441 35.143 25.126 35.048 24.07 35.65L13.75 41.65C13.315 41.9 13.034 42.35 13 42.85C12.968 43.339 13.182 43.811 13.57 44.11L28.96 56.17"></path></g></g></g><g id="g-root-tx_classroo_zqxli613rfifb-fill" data-item-order="0" transform="translate(230, 38)"><g id="tx_classroo_zqxli613rfifb-fill-merged" stroke="none" fill="#484848" fill-opacity="1"><g><text style="font: bold 25px Roboto, sans-serif; white-space: pre;" transform="translate(178, 28)" font-weight="bold" font-size="25px" font-family="Roboto, sans-serif"><tspan x="-162.91" y="15" dominant-baseline="ideographic">Classroom Design Strategies</tspan></text></g></g></g><g id="g-root-tx_1_1uualge13rfjt6-fill" data-item-order="0" transform="translate(134, 146)"><g id="tx_1_1uualge13rfjt6-fill-merged" stroke="none" fill="#4e88e7" fill-opacity="1"><g><text style="font: bold 25px Roboto, sans-serif; white-space: pre;" transform="translate(22, 28)" font-weight="bold" font-size="25px" font-family="Roboto, sans-serif"><tspan x="-7.17" y="15" dominant-baseline="ideographic">1</tspan></text></g></g></g><g id="g-root-tx_2_zs6joe13rfklh-fill" data-item-order="0" transform="translate(614, 146)"><g id="tx_2_zs6joe13rfklh-fill-merged" stroke="none" fill="#3cc583" fill-opacity="1"><g><text style="font: bold 25px Roboto, sans-serif; white-space: pre;" transform="translate(22, 28)" font-weight="bold" font-size="25px" font-family="Roboto, sans-serif"><tspan x="-7.17" y="15" dominant-baseline="ideographic">2</tspan></text></g></g></g><g id="g-root-tx_horsesho_mfh34u13rfk08-fill" data-item-order="0" transform="translate(50, 206)"><g id="tx_horsesho_mfh34u13rfk08-fill-merged" stroke="none" fill="#4e88e7" fill-opacity="1"><g><text style="font: bold 20px Roboto, sans-serif; white-space: pre;" transform="translate(142, 34)" font-weight="bold" font-size="20px" font-family="Roboto, sans-serif"><tspan x="-99.38" y="-0" dominant-baseline="ideographic">Horseshoe </tspan><tspan x="-122.01" y="24" dominant-baseline="ideographic">configuration</tspan></text></g></g></g><g id="g-root-tx_adaptsli_hrji1q13rbabk-fill" data-item-order="0" transform="translate(614, 566)"><g id="tx_adaptsli_hrji1q13rbabk-fill-merged" stroke="none" fill="#484848" fill-opacity="1"><g><text style="font: 15px Roboto, sans-serif; white-space: pre;" transform="translate(10, 46)" font-size="15px" font-family="Roboto, sans-serif"><tspan x="2" y="-18" dominant-baseline="ideographic">Adapts lighting to </tspan><tspan x="2" y="0" dominant-baseline="ideographic">support various </tspan><tspan x="2" y="18" dominant-baseline="ideographic">learning </tspan><tspan x="2" y="36" dominant-baseline="ideographic">environments.</tspan></text></g></g></g><g id="g-root-tx_reconfig_1qeh3by13rfklf-fill" data-item-order="0" transform="translate(614, 206)"><g id="tx_reconfig_1qeh3by13rfklf-fill-merged" stroke="none" fill="#3cc583" fill-opacity="1"><g><text style="font: bold 20px Roboto, sans-serif; white-space: pre;" transform="translate(10, 34)" font-weight="bold" font-size="20px" font-family="Roboto, sans-serif"><tspan x="2" y="-0" dominant-baseline="ideographic">Reconfigurable </tspan><tspan x="2" y="24" dominant-baseline="ideographic">furnishings</tspan></text></g></g></g><g id="g-root-tx_improves_94n1um13rfifd-fill" data-item-order="0" transform="translate(38, 266)"><g id="tx_improves_94n1um13rfifd-fill-merged" stroke="none" fill="#484848" fill-opacity="1"><g><text style="font: 15px Roboto, sans-serif; white-space: pre;" transform="translate(154, 40)" font-size="15px" font-family="Roboto, sans-serif"><tspan x="-121.3" y="-9" dominant-baseline="ideographic">Improves visibility </tspan><tspan x="-134.95" y="9" dominant-baseline="ideographic">and communication </tspan><tspan x="-125.8" y="27" dominant-baseline="ideographic">with a fixed layout.</tspan></text></g></g></g><g id="g-root-tx_enhances_1d3n21q13rfj0k-fill" data-item-order="0" transform="translate(614, 266)"><g id="tx_enhances_1d3n21q13rfj0k-fill-merged" stroke="none" fill="#484848" fill-opacity="1"><g><text style="font: 15px Roboto, sans-serif; white-space: pre;" transform="translate(10, 46)" font-size="15px" font-family="Roboto, sans-serif"><tspan x="2" y="-18" dominant-baseline="ideographic">Enhances </tspan><tspan x="2" y="0" dominant-baseline="ideographic">adaptability and </tspan><tspan x="2" y="18" dominant-baseline="ideographic">interaction in multi-</tspan><tspan x="2" y="36" dominant-baseline="ideographic">modal learning.</tspan></text></g></g></g><g id="g-root-tx_3_1d30o4e13r9y4m-fill" data-item-order="0" transform="translate(134, 422)"><g id="tx_3_1d30o4e13r9y4m-fill-merged" stroke="none" fill="#e0cb15" fill-opacity="1"><g><text style="font: bold 25px Roboto, sans-serif; white-space: pre;" transform="translate(22, 28)" font-weight="bold" font-size="25px" font-family="Roboto, sans-serif"><tspan x="-7.17" y="15" dominant-baseline="ideographic">3</tspan></text></g></g></g><g id="g-root-tx_4_1ulk1em13rbci1-fill" data-item-order="0" transform="translate(614, 422)"><g id="tx_4_1ulk1em13rbci1-fill-merged" stroke="none" fill="#92bd39" fill-opacity="1"><g><text style="font: bold 25px Roboto, sans-serif; white-space: pre;" transform="translate(22, 28)" font-weight="bold" font-size="25px" font-family="Roboto, sans-serif"><tspan x="-7.17" y="15" dominant-baseline="ideographic">4</tspan></text></g></g></g><g id="g-root-tx_targeted_vahpge13r9ybo-fill" data-item-order="0" transform="translate(74, 482)"><g id="tx_targeted_vahpge13r9ybo-fill-merged" stroke="none" fill="#e0cb15" fill-opacity="1"><g><text style="font: bold 20px Roboto, sans-serif; white-space: pre;" transform="translate(118, 46)" font-weight="bold" font-size="20px" font-family="Roboto, sans-serif"><tspan x="-81.82" y="-12" dominant-baseline="ideographic">Targeted </tspan><tspan x="-78.38" y="12" dominant-baseline="ideographic">acoustic </tspan><tspan x="-100.56" y="36" dominant-baseline="ideographic">treatments</tspan></text></g></g></g><g id="g-root-tx_layeredl_zs6mu613r9wjr-fill" data-item-order="0" transform="translate(614, 482)"><g id="tx_layeredl_zs6mu613r9wjr-fill-merged" stroke="none" fill="#92bd39" fill-opacity="1"><g><text style="font: bold 20px Roboto, sans-serif; white-space: pre;" transform="translate(10, 46)" font-weight="bold" font-size="20px" font-family="Roboto, sans-serif"><tspan x="2" y="-12" dominant-baseline="ideographic">Layered </tspan><tspan x="2" y="12" dominant-baseline="ideographic">lighting </tspan><tspan x="2" y="36" dominant-baseline="ideographic">strategies</tspan></text></g></g></g><g id="g-root-tx_reducesd_4o75su13r9ybp-fill" data-item-order="0" transform="translate(38, 566)"><g id="tx_reducesd_4o75su13r9ybp-fill-merged" stroke="none" fill="#484848" fill-opacity="1"><g><text style="font: 15px Roboto, sans-serif; white-space: pre;" transform="translate(154, 46)" font-size="15px" font-family="Roboto, sans-serif"><tspan x="-141.89" y="-18" dominant-baseline="ideographic">Reduces distractions </tspan><tspan x="-87.51" y="0" dominant-baseline="ideographic">with minimal </tspan><tspan x="-108.26" y="18" dominant-baseline="ideographic">adaptability and </tspan><tspan x="-76.95" y="36" dominant-baseline="ideographic">interaction.</tspan></text></g></g></g><g id="g-root-cp_0_g-0_1hhl4wu13rfj7u-stroke" data-item-order="-506845" transform="translate(230, 218)"><g id="cp_0_g-0_1hhl4wu13rfj7u-stroke" fill="none" stroke-linecap="round" stroke-linejoin="round" stroke-miterlimit="4" stroke="#484848" stroke-width="2" stroke-opacity="1"><g><path d="M 178 10L 178 346M 10 177.9999L 346 178"></path></g></g></g><g id="g-root-cp_1_g-1_1hhl4wu13rfj7v-stroke" data-item-order="-506842" transform="translate(230, 218)"><g id="cp_1_g-1_1hhl4wu13rfj7v-stroke" fill="none" stroke-linecap="round" stroke-linejoin="round" stroke-miterlimit="4" stroke="#ffffff" stroke-width="2" stroke-opacity="1"><g><path d="M 141.7804 122.1418C 149.4968 110.673 154 96.8624 154 82C 154 42.2355 121.7645 10 82 10C 42.2355 10 10 42.2355 10 82C 10 121.7645 42.2355 154 82 154C 96.3009 154 109.628 149.8306 120.8321 142.6411L 154 154L 141.7804 122.1418Z"></path></g></g></g><g id="g-root-cp_3_g-3_1d1rmse13rfk04-stroke" data-item-order="-506838" transform="translate(230, 410)"><g id="cp_3_g-3_1d1rmse13rfk04-stroke" fill="none" stroke-linecap="round" stroke-linejoin="round" stroke-miterlimit="4" stroke="#ffffff" stroke-width="2" stroke-opacity="1"><g><path d="M 141.7804 41.8582C 149.4968 53.327 154 67.1376 154 82C 154 121.7645 121.7645 154 82 154C 42.2355 154 10 121.7645 10 82C 10 42.2355 42.2355 10 82 10C 96.3009 10 109.628 14.1694 120.8321 21.3589L 154 10L 141.7804 41.8582Z"></path></g></g></g><g id="g-root-cp_2_g-2_1464mji13rfkst-stroke" data-item-order="-506834" transform="translate(422, 218)"><g id="cp_2_g-2_1464mji13rfkst-stroke" fill="none" stroke-linecap="round" stroke-linejoin="round" stroke-miterlimit="4" stroke="#ffffff" stroke-width="2" stroke-opacity="1"><g><path d="M 22.2196 122.1418C 14.5032 110.673 10 96.8624 10 82C 10 42.2355 42.2355 10 82 10C 121.7645 10 154 42.2355 154 82C 154 121.7645 121.7645 154 82 154C 67.6991 154 54.372 149.8306 43.1679 142.6411L 10 154L 22.2196 122.1418Z"></path></g></g></g><g id="g-root-cp_4_g-4_1464mji13rfksu-stroke" data-item-order="-506830" transform="translate(422, 410)"><g id="cp_4_g-4_1464mji13rfksu-stroke" fill="none" stroke-linecap="round" stroke-linejoin="round" stroke-miterlimit="4" stroke="#ffffff" stroke-width="2" stroke-opacity="1"><g><path d="M 22.2196 41.8582C 14.5032 53.327 10 67.1376 10 82C 10 121.7645 42.2355 154 82 154C 121.7645 154 154 121.7645 154 82C 154 42.2355 121.7645 10 82 10C 67.6991 10 54.372 14.1694 43.1679 21.3589L 10 10L 22.2196 41.8582Z"></path></g></g></g><g id="g-root-ic_1_qn6f4u13rgwsu-stroke" data-item-order="-5184" transform="translate(266, 254)"></g><g id="g-root-ic_cabi_1449afy13qxb7w-stroke" data-item-order="-5184" transform="translate(458, 254)"></g><g id="g-root-ic_chai_1ulk1em13r045e-stroke" data-item-order="-5184" transform="translate(266, 446)"></g><g id="g-root-ic_doub_143mtcu13r4bnq-stroke" data-item-order="-5184" transform="translate(458, 446)"></g><g id="g-root-tx_classroo_zqxli613rfifb-stroke" data-item-order="0" transform="translate(230, 38)"></g><g id="g-root-tx_1_1uualge13rfjt6-stroke" data-item-order="0" transform="translate(134, 146)"></g><g id="g-root-tx_2_zs6joe13rfklh-stroke" data-item-order="0" transform="translate(614, 146)"></g><g id="g-root-tx_horsesho_mfh34u13rfk08-stroke" data-item-order="0" transform="translate(50, 206)"></g><g id="g-root-tx_adaptsli_hrji1q13rbabk-stroke" data-item-order="0" transform="translate(614, 566)"></g><g id="g-root-tx_reconfig_1qeh3by13rfklf-stroke" data-item-order="0" transform="translate(614, 206)"></g><g id="g-root-tx_improves_94n1um13rfifd-stroke" data-item-order="0" transform="translate(38, 266)"></g><g id="g-root-tx_enhances_1d3n21q13rfj0k-stroke" data-item-order="0" transform="translate(614, 266)"></g><g id="g-root-tx_3_1d30o4e13r9y4m-stroke" data-item-order="0" transform="translate(134, 422)"></g><g id="g-root-tx_4_1ulk1em13rbci1-stroke" data-item-order="0" transform="translate(614, 422)"></g><g id="g-root-tx_targeted_vahpge13r9ybo-stroke" data-item-order="0" transform="translate(74, 482)"></g><g id="g-root-tx_layeredl_zs6mu613r9wjr-stroke" data-item-order="0" transform="translate(614, 482)"></g><g id="g-root-tx_reducesd_4o75su13r9ybp-stroke" data-item-order="0" transform="translate(38, 566)"></g></g></g></svg>