<?xml version="1.0" encoding="utf-8" standalone="yes"?>
<!DOCTYPE svg PUBLIC "-//W3C//DTD SVG 1.1//EN" "http://www.w3.org/Graphics/SVG/1.1/DTD/svg11.dtd">
<svg style="fill:none;stroke:none;fill-rule:evenodd;clip-rule:evenodd;stroke-linecap:round;stroke-linejoin:round;stroke-miterlimit:1.5;" version="1.1" xmlns="http://www.w3.org/2000/svg" xmlns:xlink="http://www.w3.org/1999/xlink" width="792" height="660" viewBox="0 0 792 660"><style class="text-font-style fontImports" data-font-family="Roboto">@import url(https://fonts.googleapis.com/css2?family=Roboto:wght@400;700&amp;amp;display=block);</style><g id="items" style="isolation: isolate"><g id="blend" style="mix-blend-mode: normal"><g id="g-root-cp_4_g-4_1lynuou12x8b9g-fill" data-item-order="-419606" transform="translate(258.90997314453125, 410.81005859375)"><g id="cp_4_g-4_1lynuou12x8b9g-fill-merged" stroke="none" fill="#ffe60a" fill-opacity="1"><g><path d="M199.622 89.183C179.392 75.785 152.742 79.704 137.143 97.392C135.683 99.032 134.333 100.792 133.083 102.671C132.083 104.181 131.183 105.721 130.373 107.301C119.343 128.768 125.983 155.544 146.573 169.192C168.662 183.84 198.452 177.801 213.091 155.704C227.741 133.607 221.701 103.831 199.602 89.183"></path></g></g></g><g id="g-root-cp_3_g-3_1d30ufy12x8c25-fill" data-item-order="-419600" transform="translate(276.780029296875, 362.0001220703125)"><g id="cp_3_g-3_1d30ufy12x8c25-fill-merged" stroke="none" fill="#a8dd38" fill-opacity="1"><g><path d="M194.037 105.105C220.051 110.174 245.256 93.198 250.325 67.183C255.394 41.169 238.418 15.964 212.403 10.895C186.389 5.826 161.184 22.802 156.115 48.817C151.046 74.831 168.022 100.036 194.037 105.105"></path></g></g></g><g id="g-root-cp_2_g-2_18n7cbi12x8cue-fill" data-item-order="-419594" transform="translate(276.780029296875, 241.9996337890625)"><g id="cp_2_g-2_18n7cbi12x8cue-fill-merged" stroke="none" fill="#44e095" fill-opacity="1"><g><path d="M212.382 105.112C188.565 109.731 165.447 95.903 157.828 73.585C157.108 71.505 156.538 69.366 156.108 67.156C155.768 65.386 155.528 63.606 155.378 61.846C153.419 37.799 169.817 15.601 194.064 10.892C220.082 5.832 245.279 22.82 250.328 48.838C255.388 74.865 238.4 100.052 212.382 105.112"></path></g></g></g><g id="g-root-cp_1_g-1_18n7cbi12x8cuf-fill" data-item-order="-419588" transform="translate(259, 122.00003051757812)"><g id="cp_1_g-1_18n7cbi12x8cuf-fill-merged" stroke="none" fill="#1ac6ff" fill-opacity="1"><g><path d="M199.481 98.023C179.086 111.531 152.122 107.401 136.596 89.284C135.307 87.784 134.107 86.184 132.977 84.484C131.857 82.785 130.848 81.055 129.978 79.285C119.37 57.918 126.099 31.482 146.514 17.983C168.608 3.345 198.391 9.405 213.017 31.512C227.654 53.609 221.595 83.395 199.491 98.023"></path></g></g></g><g id="g-root-cp_0_g-0_1480ba612x8agw-fill" data-item-order="-419582" transform="translate(38, 224)"><g id="cp_0_g-0_1480ba612x8agw-fill-merged" stroke="none" fill="#666666" fill-opacity="1"><g><path d="M250 130C250 132.01 249.95 134.01 249.85 136C249.26 147.99 246.91 159.52 243.05 170.33C241.7 174.12 240.17 177.82 238.46 181.42C233.4 192.07 226.81 201.86 218.98 210.5C216.3 213.47 213.47 216.3 210.5 218.98C189.22 238.26 160.98 250 130 250C63.73 250 10 196.27 10 130C10 63.73 63.73 10 130 10C160.98 10 189.22 21.74 210.5 41.02C213.47 43.7 216.3 46.53 218.98 49.5C226.81 58.14 233.4 67.93 238.46 78.58C240.17 82.18 241.7 85.88 243.05 89.67C246.91 100.48 249.26 112.01 249.85 124C249.95 125.99 250 127.99 250 130"></path></g></g></g><g id="g-root-ic_inde_4g35zy12x9pu3-fill" data-item-order="-2304" transform="translate(398, 146.00003051757812)"><g id="ic_inde_4g35zy12x9pu3-fill-merged" stroke="none" fill="#ffffff" fill-opacity="1"><g><path d="M36 37.4C36 38.263 36.344 39.09 36.956 39.698C37.568 40.306 38.397 40.645 39.26 40.64 H40.94 V34.16 H39.26C37.467 34.16 36.011 35.607 36 37.4 M55 10 H13C11.343 10 10 11.343 10 13 V55C10 56.657 11.343 58 13 58 H55C56.657 58 58 56.657 58 55 V13C58 11.343 56.657 10 55 10 M46 22.52 V44.4C46.004 44.595 45.895 44.774 45.72 44.86C44.102 45.606 42.342 45.995 40.56 46C38.51 46.014 36.499 45.445 34.76 44.36C32.5 43.024 31.081 40.624 31 38C30.908 34.945 32.33 32.041 34.8 30.24C36.617 29.001 38.898 28.656 41 29.3 V22.52C40.995 22.384 41.045 22.252 41.139 22.153C41.234 22.055 41.364 22 41.5 22 H45.5C45.636 22 45.766 22.055 45.861 22.153C45.955 22.252 46.005 22.384 46 22.52 M28 22.52 V45.52C28 45.796 27.776 46.02 27.5 46.02 H22.5C22.364 46.02 22.234 45.965 22.139 45.867C22.045 45.768 21.995 45.636 22 45.5 V22.5C22 22.224 22.224 22 22.5 22 H27.5C27.776 22 28 22.224 28 22.5"></path></g></g></g><g id="g-root-ic_spac_1hiucke12xdxjf-fill" data-item-order="-2304" transform="translate(446, 266)"><g id="ic_spac_1hiucke12xdxjf-fill-merged" stroke="none" fill="#ffffff" fill-opacity="1"><g><path d="M46 28C42.703 27.981 39.625 29.648 37.84 32.42C37.229 29.4 34.938 26.999 31.949 26.247C28.961 25.496 25.807 26.528 23.84 28.9C23.163 25.975 20.429 24.001 17.44 24.279C14.451 24.557 12.127 27.001 12 30 V39C12 39.552 12.448 40 13 40 H22 V49C22 49.552 22.448 50 23 50 H36 V57C36 57.552 36.448 58 37 58 H55C55.552 58 56 57.552 56 57 V38.78C56.164 36.009 55.189 33.291 53.301 31.255C51.413 29.22 48.776 28.044 46 28 M38 18C38 22.418 41.582 26 46 26C50.418 26 54 22.418 54 18C54 13.582 50.418 10 46 10C41.582 10 38 13.582 38 18 M24 18C24 21.314 26.686 24 30 24C33.314 24 36 21.314 36 18C36 14.686 33.314 12 30 12C26.686 12 24 14.686 24 18 M14 18C14 20.209 15.791 22 18 22C20.209 22 22 20.209 22 18C22 15.791 20.209 14 18 14C15.791 14 14 15.791 14 18"></path></g></g></g><g id="g-root-ic_cabi_mczg9q12xgrv1-fill" data-item-order="-2304" transform="translate(446, 386)"><g id="ic_cabi_mczg9q12xgrv1-fill-merged" stroke="none" fill="#ffffff" fill-opacity="1"><g><path d="M23.5 10.5C23.5 10.224 23.276 10 23 10 H13C11.343 10 10 11.343 10 13 V23C10 24.657 11.343 26 13 26 H23C23.276 26 23.5 25.776 23.5 25.5 V10.5 M14 17 V15C14 14.448 14.448 14 15 14C15.552 14 16 14.448 16 15 V17C16 17.552 15.552 18 15 18C14.448 18 14 17.552 14 17 M42.5 42C42.224 42 42 42.224 42 42.5 V56C42 56.92 43.62 58 45 58 H55C56.38 58 58 56.92 58 56 V42.5C58 42.224 57.776 42 57.5 42 H42.5 M46 46C46 45.448 46.448 45 47 45C47.552 45 48 45.448 48 46 V48C48 48.552 47.552 49 47 49C46.448 49 46 48.552 46 48 V46 M40 10.5C40 10.224 39.776 10 39.5 10 H26C25.724 10 25.5 10.224 25.5 10.5 V25.5C25.5 25.776 25.724 26 26 26 H39.5C39.776 26 40 25.776 40 25.5 V10.5 M30.5 18C29.948 18 29.5 17.552 29.5 17 V15C29.5 14.448 29.948 14 30.5 14C31.052 14 31.5 14.448 31.5 15 V17C31.5 17.552 31.052 18 30.5 18 M25.5 37C25.5 35.895 24.605 35 23.5 35 H14C11.791 35 10 36.791 10 39 V56C10 57.105 10.895 58 12 58C13.105 58 14 57.105 14 56 V40C14 39.448 14.448 39 15 39 H23.5C24.605 39 25.5 38.105 25.5 37 M31 31C29.895 31 29 31.895 29 33 V43C29 44.105 28.105 45 27 45 H19C17.895 45 17 45.895 17 47C17 48.105 17.895 49 19 49 H22.5C22.776 49 23 49.224 23 49.5 V51.5C22.997 51.677 22.907 51.842 22.76 51.94L18.98 54.28C18.284 54.594 17.828 55.277 17.805 56.04C17.781 56.804 18.194 57.514 18.869 57.87C19.543 58.227 20.363 58.169 20.98 57.72L24.7 55.48C24.864 55.401 25.056 55.401 25.22 55.48L28.94 57.72C29.557 58.169 30.377 58.227 31.051 57.87C31.726 57.514 32.139 56.804 32.115 56.04C32.092 55.277 31.636 54.594 30.94 54.28L27.24 52C27.093 51.902 27.003 51.737 27 51.56 V49.48C26.999 49.219 27.2 49.001 27.46 48.98C30.593 48.739 33.009 46.122 33 42.98 V32.98C32.989 31.883 32.097 31 31 31 M57.5 39C57.776 39 58 38.776 58 38.5 V14C58 11.04 56.46 10 55 10 H42.5C42.224 10 42 10.224 42 10.5 V34.5C42 34.776 41.776 35 41.5 35 H37C35.895 35 35 35.895 35 37C35 38.105 35.895 39 37 39 H57.5 M48 17C48 17.552 47.552 18 47 18C46.448 18 46 17.552 46 17 V15C46 14.448 46.448 14 47 14C47.552 14 48 14.448 48 15 V17"></path></g></g></g><g id="g-root-ic_infr_8wj8da12wzv9j-fill" data-item-order="-2304" transform="translate(398, 506)"><g id="ic_infr_8wj8da12wzv9j-fill-merged" stroke="none" fill="#ffffff" fill-opacity="1"><g><path d="M22.616 10.484C30.906 8.68 39.12 13.827 41.112 22.074C45.734 18.897 52.032 19.883 55.462 24.321C58.892 28.758 58.259 35.102 54.02 38.774 V37.41C54.02 35.882 53.31 34.654 52.486 33.79C51.678 32.942 50.65 32.316 49.61 31.854C47.522 30.928 44.846 30.434 42.05 30.434C41.066 30.434 40.096 30.494 39.16 30.614 V29.66C39.16 29.592 39.16 29.526 39.16 29.458C39.16 27.93 38.45 26.702 37.626 25.838C36.818 24.99 35.79 24.364 34.75 23.902C32.662 22.976 29.986 22.482 27.19 22.482C24.396 22.482 21.722 22.976 19.634 23.902C18.594 24.364 17.566 24.99 16.756 25.838C15.934 26.702 15.222 27.93 15.222 29.458 V37.098C11.007 33.124 9.34 27.142 10.891 21.561C12.441 15.979 16.955 11.715 22.616 10.484 M27.192 33.432C30.906 33.432 34.094 32.432 35.456 31.004C35.854 30.586 36.096 30.132 36.15 29.658C36.157 29.591 36.16 29.523 36.16 29.456C36.16 27.26 32.146 25.478 27.192 25.478C22.238 25.478 18.22 27.26 18.22 29.456C18.22 29.523 18.224 29.59 18.232 29.656C18.47 31.76 22.39 33.432 27.19 33.432 M42.052 41.386C47.006 41.386 51.02 39.606 51.02 37.408C51.02 35.212 47.004 33.432 42.052 33.432C37.098 33.432 33.082 35.212 33.082 37.41C33.082 39.606 37.098 41.386 42.052 41.386 M30.084 41.182 V37.41C30.084 36.994 30.136 36.6 30.228 36.23C29.248 36.364 28.228 36.432 27.192 36.432C24.396 36.432 21.722 35.936 19.632 35.01C19.144 34.795 18.673 34.544 18.222 34.26 V38.04C18.226 38.08 18.228 38.122 18.228 38.164C18.228 38.542 18.616 39.35 20.398 40.144C22.054 40.884 24.45 41.372 27.192 41.372C28.21 41.372 29.18 41.304 30.082 41.182 M30.082 49.842 V44.206C29.154 44.314 28.182 44.372 27.192 44.372C24.14 44.372 21.306 43.836 19.176 42.884C18.85 42.74 18.532 42.58 18.222 42.404 V46.07C18.222 48.318 22.226 50.046 27.192 50.046C28.204 50.046 29.176 49.974 30.082 49.842 M49.61 42.962C47.522 43.89 44.846 44.386 42.05 44.386C39.256 44.386 36.582 43.89 34.494 42.964C34.005 42.749 33.533 42.499 33.082 42.214 V45.994C33.086 46.034 33.088 46.074 33.088 46.116C33.088 46.496 33.476 47.304 35.258 48.1C36.914 48.838 39.31 49.326 42.052 49.326C44.792 49.326 47.19 48.838 48.844 48.1C50.628 47.304 51.016 46.496 51.016 46.116C51.016 46.076 51.016 46.036 51.02 45.996 V42.216C50.569 42.5 50.098 42.75 49.61 42.964 M33.082 50.356 V54.024C33.082 56.27 37.086 58 42.052 58C47.016 58 51.02 56.272 51.02 54.024 V50.356C50.711 50.532 50.393 50.693 50.068 50.838C47.938 51.79 45.104 52.326 42.052 52.326C39 52.326 36.166 51.79 34.036 50.838C33.71 50.694 33.392 50.534 33.082 50.358"></path></g></g></g><g id="g-root-tx_unveilin_vcdb1a12x8b9l-fill" data-item-order="0" transform="translate(164, 38.000030517578125)"><g id="tx_unveilin_vcdb1a12x8b9l-fill-merged" stroke="none" fill="#484848" fill-opacity="1"><g><text style="font: bold 25px Roboto, sans-serif; white-space: pre;" transform="translate(232, 28)" font-weight="bold" font-size="25px" font-family="Roboto, sans-serif"><tspan x="-218.53" y="15" dominant-baseline="ideographic">Unveiling the Cornell Classroom Vision</tspan></text></g></g></g><g id="g-root-tx_evidence_dbq68u12x9p1e-fill" data-item-order="0" transform="translate(494, 146.00003051757812)"><g id="tx_evidence_dbq68u12x9p1e-fill-merged" stroke="none" fill="#1eabda" fill-opacity="1"><g><text style="font: bold 20px Roboto, sans-serif; white-space: pre;" transform="translate(10, 34)" font-weight="bold" font-size="20px" font-family="Roboto, sans-serif"><tspan x="2" y="-0" dominant-baseline="ideographic">Evidence-Based </tspan><tspan x="2" y="24" dominant-baseline="ideographic">Interior Design</tspan></text></g></g></g><g id="g-root-tx_inclusiv_4o7c4e12xdyiq-fill" data-item-order="0" transform="translate(542, 266)"><g id="tx_inclusiv_4o7c4e12xdyiq-fill-merged" stroke="none" fill="#3cc583" fill-opacity="1"><g><text style="font: bold 20px Roboto, sans-serif; white-space: pre;" transform="translate(10, 34)" font-weight="bold" font-size="20px" font-family="Roboto, sans-serif"><tspan x="2" y="-0" dominant-baseline="ideographic">Inclusive Learning </tspan><tspan x="2" y="24" dominant-baseline="ideographic">Environments</tspan></text></g></g></g><g id="g-root-tx_projectv_zqxy5a12wzvur-fill" data-item-order="0" transform="translate(92, 296)"><g id="tx_projectv_zqxy5a12wzvur-fill-merged" stroke="none" fill="#ffffff" fill-opacity="1"><g><text style="font: bold 20px Roboto, sans-serif; white-space: pre;" transform="translate(76, 22)" font-weight="bold" font-size="20px" font-family="Roboto, sans-serif"><tspan x="-62.9" y="12" dominant-baseline="ideographic">Project Vision</tspan></text></g></g></g><g id="g-root-tx_reimagin_qvaxwe12wzwng-fill" data-item-order="0" transform="translate(80, 332)"><g id="tx_reimagin_qvaxwe12wzwng-fill-merged" stroke="none" fill="#ffffff" fill-opacity="1"><g><text style="font: 15px Roboto, sans-serif; white-space: pre;" transform="translate(88, 40)" font-size="15px" font-family="Roboto, sans-serif"><tspan x="-67.41" y="-9" dominant-baseline="ideographic">Reimagining lecture </tspan><tspan x="-71.03" y="9" dominant-baseline="ideographic">spaces for enhanced </tspan><tspan x="-72.07" y="27" dominant-baseline="ideographic">learning experiences.</tspan></text></g></g></g><g id="g-root-tx_flexible_18i7jmm12xgqh8-fill" data-item-order="0" transform="translate(542, 386)"><g id="tx_flexible_18i7jmm12xgqh8-fill-merged" stroke="none" fill="#92bd39" fill-opacity="1"><g><text style="font: bold 20px Roboto, sans-serif; white-space: pre;" transform="translate(10, 34)" font-weight="bold" font-size="20px" font-family="Roboto, sans-serif"><tspan x="2" y="-0" dominant-baseline="ideographic">Flexible Learning </tspan><tspan x="2" y="24" dominant-baseline="ideographic">Spaces</tspan></text></g></g></g><g id="g-root-tx_engaging_m7d9ni12wzwue-fill" data-item-order="0" transform="translate(494, 506)"><g id="tx_engaging_m7d9ni12wzwue-fill-merged" stroke="none" fill="#e0cb15" fill-opacity="1"><g><text style="font: bold 20px Roboto, sans-serif; white-space: pre;" transform="translate(10, 34)" font-weight="bold" font-size="20px" font-family="Roboto, sans-serif"><tspan x="2" y="-0" dominant-baseline="ideographic">Engaging Learning </tspan><tspan x="2" y="24" dominant-baseline="ideographic">Experiences</tspan></text></g></g></g><g id="g-root-cp_4_g-4_1lynuou12x8b9g-stroke" data-item-order="-419606" transform="translate(258.90997314453125, 410.81005859375)"><g id="cp_4_g-4_1lynuou12x8b9g-stroke" fill="none" stroke-linecap="round" stroke-linejoin="round" stroke-miterlimit="4" stroke="#ffe60a" stroke-width="2" stroke-opacity="1"><g><path d="M 199.621697 89.183041C 179.391997 75.784841 152.742497 79.704341 137.142697 97.391941C 135.682797 99.031741 134.332797 100.791541 133.082797 102.671241C 132.082797 104.181041 131.182797 105.720841 130.372897 107.300641C 119.342997 128.767741 125.982897 155.544141 146.572597 169.192341C 168.662197 183.840341 198.451697 177.801241 213.091497 155.704141C 227.741197 133.607141 221.701297 103.831141 199.601697 89.183041L 199.621697 89.183041ZM 137.590031 96.6899L 10.000031 10"></path></g></g></g><g id="g-root-cp_3_g-3_1d30ufy12x8c25-stroke" data-item-order="-419600" transform="translate(276.780029296875, 362.0001220703125)"><g id="cp_3_g-3_1d30ufy12x8c25-stroke" fill="none" stroke-linecap="round" stroke-linejoin="round" stroke-miterlimit="4" stroke="#a8dd38" stroke-width="2" stroke-opacity="1"><g><path d="M 194.03684 105.105C 220.05134 110.174 245.25604 93.1976 250.32494 67.1831C 255.39394 41.1686 238.41754 15.9639 212.40304 10.895C 186.38854 5.826 161.18384 22.8024 156.11494 48.8169C 151.04594 74.8314 168.02234 100.0361 194.03684 105.105ZM 157.219969 44.50001C 101.874869 33.66681 65.345069 26.09311 9.999969 15.26001"></path></g></g></g><g id="g-root-cp_2_g-2_18n7cbi12x8cue-stroke" data-item-order="-419594" transform="translate(276.780029296875, 241.9996337890625)"><g id="cp_2_g-2_18n7cbi12x8cue-stroke" fill="none" stroke-linecap="round" stroke-linejoin="round" stroke-miterlimit="4" stroke="#44e095" stroke-width="2" stroke-opacity="1"><g><path d="M 212.38244 105.1118C 188.56494 109.7313 165.44744 95.9028 157.82824 73.5851C 157.10834 71.5053 156.53834 69.3655 156.10844 67.1557C 155.76844 65.3859 155.52844 63.6061 155.37844 61.8463C 153.41874 37.7987 169.81694 15.601 194.06444 10.8915C 220.08164 5.832 245.27894 22.8203 250.32844 48.8376C 255.38784 74.8649 238.39974 100.0523 212.38244 105.1118ZM 155.219969 61.5L 9.999969 89.1499"></path></g></g></g><g id="g-root-cp_1_g-1_18n7cbi12x8cuf-stroke" data-item-order="-419588" transform="translate(259, 122.00003051757812)"><g id="cp_1_g-1_18n7cbi12x8cuf-stroke" fill="none" stroke-linecap="round" stroke-linejoin="round" stroke-miterlimit="4" stroke="#1ac6ff" stroke-width="2" stroke-opacity="1"><g><path d="M 199.4808 98.0227C 179.0858 111.5308 152.1223 107.4014 136.5961 89.2838C 135.3065 87.784 134.1067 86.1843 132.977 84.4845C 131.8573 82.7847 130.8475 81.0549 129.9777 79.2852C 119.3703 57.9181 126.0987 31.4816 146.5137 17.9834C 168.6083 3.3454 198.391 9.4046 213.0174 31.5116C 227.6539 53.6086 221.5953 83.3946 199.4907 98.0227L 199.4808 98.0227ZM 132.9299 84.504395L 10 166.064395"></path></g></g></g><g id="g-root-cp_0_g-0_1480ba612x8agw-stroke" data-item-order="-419582" transform="translate(38, 224)"><g id="cp_0_g-0_1480ba612x8agw-stroke" fill="none" stroke-linecap="round" stroke-linejoin="round" stroke-miterlimit="4" stroke="#ffffff" stroke-width="2" stroke-opacity="1"><g><path d="M 250 130C 250 132.01 249.95 134.01 249.85 136C 249.26 147.99 246.91 159.52 243.05 170.33C 241.7 174.12 240.17 177.82 238.46 181.42C 233.4 192.07 226.81 201.86 218.98 210.5C 216.3 213.47 213.47 216.3 210.5 218.98C 189.22 238.26 160.98 250 130 250C 63.73 250 10 196.27 10 130C 10 63.73 63.73 10 130 10C 160.98 10 189.22 21.74 210.5 41.02C 213.47 43.7 216.3 46.53 218.98 49.5C 226.81 58.14 233.4 67.93 238.46 78.58C 240.17 82.18 241.7 85.88 243.05 89.67C 246.91 100.48 249.26 112.01 249.85 124C 249.95 125.99 250 127.99 250 130Z"></path></g></g></g><g id="g-root-ic_inde_4g35zy12x9pu3-stroke" data-item-order="-2304" transform="translate(398, 146.00003051757812)"></g><g id="g-root-ic_spac_1hiucke12xdxjf-stroke" data-item-order="-2304" transform="translate(446, 266)"></g><g id="g-root-ic_cabi_mczg9q12xgrv1-stroke" data-item-order="-2304" transform="translate(446, 386)"></g><g id="g-root-ic_infr_8wj8da12wzv9j-stroke" data-item-order="-2304" transform="translate(398, 506)"></g><g id="g-root-tx_unveilin_vcdb1a12x8b9l-stroke" data-item-order="0" transform="translate(164, 38.000030517578125)"></g><g id="g-root-tx_evidence_dbq68u12x9p1e-stroke" data-item-order="0" transform="translate(494, 146.00003051757812)"></g><g id="g-root-tx_inclusiv_4o7c4e12xdyiq-stroke" data-item-order="0" transform="translate(542, 266)"></g><g id="g-root-tx_projectv_zqxy5a12wzvur-stroke" data-item-order="0" transform="translate(92, 296)"></g><g id="g-root-tx_reimagin_qvaxwe12wzwng-stroke" data-item-order="0" transform="translate(80, 332)"></g><g id="g-root-tx_flexible_18i7jmm12xgqh8-stroke" data-item-order="0" transform="translate(542, 386)"></g><g id="g-root-tx_engaging_m7d9ni12wzwue-stroke" data-item-order="0" transform="translate(494, 506)"></g></g></g></svg>