<?xml version="1.0" encoding="utf-8" standalone="yes"?>
<!DOCTYPE svg PUBLIC "-//W3C//DTD SVG 1.1//EN" "http://www.w3.org/Graphics/SVG/1.1/DTD/svg11.dtd">
<svg style="fill:none;stroke:none;fill-rule:evenodd;clip-rule:evenodd;stroke-linecap:round;stroke-linejoin:round;stroke-miterlimit:1.5;" version="1.1" xmlns="http://www.w3.org/2000/svg" xmlns:xlink="http://www.w3.org/1999/xlink" width="865" height="804" viewBox="0 0 865 804"><style class="text-font-style fontImports" data-font-family="Roboto">@import url(https://fonts.googleapis.com/css2?family=Roboto:wght@400;700&amp;amp;display=block);</style><g id="items" style="isolation: isolate"><g id="blend" style="mix-blend-mode: normal"><g id="g-root-cp_0_g-0_4kfvim11t75e3-fill" data-item-order="999421574" transform="translate(290, 220.0009765625)"><g id="cp_0_g-0_4kfvim11t75e3-fill-merged" stroke="none" fill="#666666" fill-opacity="1"><g><path d="M274 142C274 69.098 214.902 10 142 10C69.098 10 10 69.098 10 142C10 214.902 69.098 274 142 274C214.902 274 274 214.902 274 142"></path></g></g></g><g id="g-root-cp_5_g-5_4kfvim11t75e4-fill" data-item-order="999421578" transform="translate(241, 134)"><g id="cp_5_g-5_4kfvim11t75e4-fill-merged" stroke="none" fill="#de8431" fill-opacity="1"><g><path d="M94 10C140.392 10 178 47.608 178 94C178 94.882 177.986 95.761 177.959 96.636C129.709 101.368 89.081 132.079 70.25 174.595C35.424 164.349 10 132.143 10 94C10 47.608 47.608 10 94 10"></path></g></g></g><g id="g-root-cp_4_g-4_4mde611t766d-fill" data-item-order="999421584" transform="translate(182, 319.0009765625)"><g id="cp_4_g-4_4mde611t766d-fill-merged" stroke="none" fill="#e0cb15" fill-opacity="1"><g><path d="M10 94C10 47.608 47.608 10 94 10C103.479 10 112.592 11.57 121.092 14.465C119.067 23.654 118 33.202 118 43C118 82.501 135.35 117.949 162.846 142.14C147.656 163.823 122.484 178 94 178C47.608 178 10 140.392 10 94"></path></g></g></g><g id="g-root-cp_3_g-3_4mde611t766e-fill" data-item-order="999421590" transform="translate(338, 433.0009765625)"><g id="cp_3_g-3_4mde611t766e-fill-merged" stroke="none" fill="#92bd39" fill-opacity="1"><g><path d="M94 178C47.608 178 10 140.392 10 94C10 74.789 16.449 57.084 27.3 42.933C46.873 54.416 69.668 61 94 61C118.332 61 141.127 54.416 160.7 42.933C171.551 57.084 178 74.789 178 94C178 140.392 140.392 178 94 178"></path></g></g></g><g id="g-root-cp_2_g-2_1qa3f4e11t76rz-fill" data-item-order="999421596" transform="translate(494, 319.0009765625)"><g id="cp_2_g-2_1qa3f4e11t76rz-fill-merged" stroke="none" fill="#3cc583" fill-opacity="1"><g><path d="M94 10C140.392 10 178.001 47.608 178.001 94C178.001 140.392 140.392 178 94 178C65.517 178 40.344 163.823 25.154 142.139C52.65 117.949 70 82.501 70 43C70 33.202 68.933 23.654 66.908 14.465C75.408 11.57 84.521 10 94 10"></path></g></g></g><g id="g-root-cp_1_g-1_1luwe3211t74eg-fill" data-item-order="999421602" transform="translate(435, 134)"><g id="cp_1_g-1_1luwe3211t74eg-fill-merged" stroke="none" fill="#1eabda" fill-opacity="1"><g><path d="M94 10C140.392 10 178 47.608 178 94C178 132.143 152.577 164.349 117.75 174.595C98.919 132.079 58.291 101.368 10.041 96.636C10.014 95.761 10 94.882 10 94C10 47.608 47.608 10 94 10"></path></g></g></g><g id="g-root-ic_bloc_dhbtxq11te77p-fill" data-item-order="999997696" transform="translate(398, 518)"><g id="ic_bloc_dhbtxq11te77p-fill-merged" stroke="none" fill="#ffffff" fill-opacity="1"><g><path d="M18.5 26 H19.5C20.106 25.999 20.653 25.634 20.885 25.074C21.117 24.514 20.988 23.869 20.56 23.44L16.56 19.44C15.974 18.855 15.026 18.855 14.44 19.44L10.44 23.44C10.012 23.869 9.883 24.514 10.115 25.074C10.347 25.634 10.894 25.999 11.5 26 H12.5C13.052 26 13.5 26.448 13.5 27 V50C13.5 50.552 13.052 51 12.5 51 H11.5C10.894 51.001 10.347 51.366 10.115 51.926C9.883 52.486 10.012 53.131 10.44 53.56L14.44 57.56C15.026 58.145 15.974 58.145 16.56 57.56L20.56 53.56C20.988 53.131 21.117 52.486 20.885 51.926C20.653 51.366 20.106 51.001 19.5 51 H18.5C17.948 51 17.5 50.552 17.5 50 V27C17.5 26.448 17.948 26 18.5 26 M26 19.5 V18.5C26 17.948 26.448 17.5 27 17.5 H50C50.552 17.5 51 17.948 51 18.5 V19.5C51.001 20.106 51.366 20.653 51.926 20.885C52.486 21.117 53.131 20.988 53.56 20.56L57.56 16.56C58.145 15.974 58.145 15.026 57.56 14.44L53.56 10.44C53.131 10.012 52.486 9.883 51.926 10.115C51.366 10.347 51.001 10.894 51 11.5 V12.5C51 13.052 50.552 13.5 50 13.5 H27C26.448 13.5 26 13.052 26 12.5 V11.5C25.999 10.894 25.634 10.347 25.074 10.115C24.514 9.883 23.869 10.012 23.44 10.44L19.44 14.44C18.855 15.026 18.855 15.974 19.44 16.56L23.44 20.56C23.869 20.988 24.514 21.117 25.074 20.885C25.634 20.653 25.999 20.106 26 19.5 M55 24 H27C25.343 24 24 25.343 24 27 V39C24 39.552 24.448 40 25 40 H28.5C30.433 40 32 41.567 32 43.5 V48.5C32 49.328 31.328 50 30.5 50C29.672 50 29 49.328 29 48.5 V43.5C29 43.224 28.776 43 28.5 43 H25C24.448 43 24 43.448 24 44 V55C24 56.657 25.343 58 27 58 H36C36.552 58 37 57.552 37 57 V45.5C37 44.672 37.672 44 38.5 44C39.328 44 40 44.672 40 45.5 V57C40 57.552 40.448 58 41 58 H44C44.552 58 45 57.552 45 57 V50.5C45.011 48.572 46.572 47.011 48.5 47 H51.5C52.328 47 53 47.672 53 48.5C53 49.328 52.328 50 51.5 50 H48.5C48.224 50 48 50.224 48 50.5 V57C48 57.552 48.448 58 49 58 H55C56.657 58 58 56.657 58 55 V43C58 42.448 57.552 42 57 42 H49.5C48.672 42 48 41.328 48 40.5C48 39.672 48.672 39 49.5 39 H57C57.552 39 58 38.552 58 38 V35C58 34.448 57.552 34 57 34 H49.5C48.672 34 48 33.328 48 32.5C48 31.672 48.672 31 49.5 31 H57C57.552 31 58 30.552 58 30 V27C58 25.343 56.657 24 55 24 M43 35C43 36.105 42.105 37 41 37 H35C33.895 37 33 36.105 33 35 V29C33 27.895 33.895 27 35 27 H41C42.105 27 43 27.895 43 29 V35"></path></g></g></g><g id="g-root-ic_find_zrjt5a11t4d1c-fill" data-item-order="999997696" transform="translate(572, 392)"><g id="ic_find_zrjt5a11t4d1c-fill-merged" stroke="none" fill="#ffffff" fill-opacity="1"><g><path d="M17.04 15C17.04 17.761 19.279 20 22.04 20C24.801 20 27.04 17.761 27.04 15C27.04 12.239 24.801 10 22.04 10C19.279 10 17.04 12.239 17.04 15 M40.86 15.34C40.574 15.06 40.149 14.977 39.779 15.129C39.409 15.282 39.166 15.64 39.16 16.04 V18.54C39.16 18.816 38.936 19.04 38.66 19.04 H34C32.895 19.04 32 19.935 32 21.04C32 22.145 32.895 23.04 34 23.04 H38.76C39.036 23.04 39.26 23.264 39.26 23.54 V26C39.262 26.404 39.507 26.767 39.88 26.92C40.006 26.941 40.134 26.941 40.26 26.92C40.524 26.918 40.777 26.81 40.96 26.62L45.96 21.62C46.341 21.231 46.341 20.609 45.96 20.22L40.86 15.34 M48.52 42 H42C40.895 42 40 42.895 40 44 V46C40 47.105 40.895 48 42 48 H51.2C53.752 48.004 55.894 46.078 56.16 43.54L58 27.12C58.103 26.128 57.994 25.126 57.68 24.18L55.5 18C55.331 17.495 54.969 17.079 54.492 16.842C54.015 16.606 53.464 16.569 52.96 16.74L51.06 17.38C50.07 17.731 49.519 18.788 49.8 19.8L52 26 V26.42L50.56 40.06C50.527 41.157 49.617 42.022 48.52 42 M42.02 50 H54C54 50 57 50 57 53 V55C57 55 57 58 54 58 H42.02C42.02 58 39.02 58 39.02 55 V53C39.02 53 39.02 50 42.02 50 M10 33.74 V36.52C10 38.177 11.343 39.52 13 39.52C14.657 39.52 16 38.177 16 36.52 V33.74C16.002 32.74 16.496 31.806 17.32 31.24L18.22 30.66C18.372 30.562 18.568 30.562 18.72 30.66C18.878 30.751 18.976 30.918 18.98 31.1 V39.38C18.99 39.446 18.99 39.514 18.98 39.58L13.28 54C12.979 54.734 12.985 55.558 13.297 56.288C13.609 57.017 14.201 57.591 14.94 57.88C15.282 57.99 15.642 58.03 16 58C17.222 57.993 18.319 57.251 18.78 56.12L21.76 48.62C21.84 48.437 22.021 48.319 22.22 48.32C22.416 48.31 22.598 48.421 22.68 48.6L26.26 56.28C26.769 57.349 27.856 58.021 29.04 58C29.476 58.005 29.907 57.909 30.3 57.72C31.026 57.385 31.589 56.775 31.863 56.024C32.137 55.273 32.1 54.444 31.76 53.72L25.1 39.46C25.082 39.388 25.082 39.312 25.1 39.24 V32C25.094 31.803 25.204 31.621 25.381 31.535C25.558 31.448 25.769 31.474 25.92 31.6L31.2 35.92C32.485 36.911 34.325 36.701 35.354 35.446C36.382 34.19 36.225 32.344 35 31.28L27.38 25.02C24.325 22.509 19.985 22.297 16.7 24.5L14 26.26C11.496 27.924 9.994 30.733 10 33.74"></path></g></g></g><g id="g-root-ic_tabl_9596by11tgydd-fill" data-item-order="999997696" transform="translate(224, 392)"><g id="ic_tabl_9596by11tgydd-fill-merged" stroke="none" fill="#ffffff" fill-opacity="1"><g><path d="M18 17C18 19.761 20.239 22 23 22C25.761 22 28 19.761 28 17C28 14.239 25.761 12 23 12C20.239 12 18 14.239 18 17 M44.96 12.4C45.181 11.295 44.465 10.221 43.36 10C42.255 9.779 41.181 10.495 40.96 11.6L36.76 32.52L31 26.76C29.876 25.634 28.351 25.001 26.76 25 H18C13.582 25 10 28.582 10 33 V40.22C10 41.601 11.119 42.72 12.5 42.72C13.881 42.72 15 41.601 15 40.22 V32.5C15 31.948 15.448 31.5 16 31.5C16.552 31.5 17 31.948 17 32.5 V55.5C17 56.881 18.119 58 19.5 58C20.881 58 22 56.881 22 55.5 V43.22C22 42.668 22.448 42.22 23 42.22C23.552 42.22 24 42.668 24 43.22 V55.5C24 56.881 25.119 58 26.5 58C27.881 58 29 56.881 29 55.5 V33.24L35.32 39.56L32 55.6C31.779 56.705 32.495 57.779 33.6 58C34.705 58.221 35.779 57.505 36 56.4L39.2 40.76C39.555 40.604 39.879 40.387 40.16 40.12C40.719 39.564 41.034 38.808 41.034 38.02C41.034 37.232 40.719 36.476 40.16 35.92L44.96 12.4 M57 34 H46C44.895 34 44 34.895 44 36 V39C44 40.105 44.895 41 46 41 H57C57.552 41 58 40.552 58 40 V35C58 34.448 57.552 34 57 34 M57 43 H49C48.706 42.995 48.425 43.123 48.235 43.347C48.045 43.572 47.966 43.871 48.02 44.16L50.02 57.16C50.09 57.646 50.509 58.005 51 58 H57C57.552 58 58 57.552 58 57 V44C58 43.448 57.552 43 57 43"></path></g></g></g><g id="g-root-ic_doub_18hkgge11th0jp-fill" data-item-order="999997696" transform="translate(284, 177)"><g id="ic_doub_18hkgge11th0jp-fill-merged" stroke="none" fill="#ffffff" fill-opacity="1"><g><path d="M42.74 26.1L45.86 33.4C45.988 33.702 46.258 33.919 46.58 33.98C46.908 34.043 47.246 33.938 47.48 33.7L56.7 24.48C56.938 24.246 57.043 23.908 56.98 23.58C56.919 23.258 56.702 22.988 56.4 22.86L49.1 19.72C48.346 19.403 47.474 19.577 46.9 20.16L43.16 24C42.625 24.56 42.462 25.378 42.74 26.1 M56 54 H37C36.448 54 36 53.552 36 53 V17 H37.3C37.573 17.008 37.831 17.123 38.02 17.32L41.66 21.12C41.846 21.321 42.106 21.436 42.38 21.44C42.65 21.439 42.909 21.331 43.1 21.14L44.52 19.72C44.899 19.338 44.899 18.722 44.52 18.34L40.52 14.22C39.767 13.452 38.736 13.019 37.66 13.02 H36.42C36.168 12.979 35.987 12.755 36 12.5 V12C36 10.895 35.105 10 34 10C32.895 10 32 10.895 32 12 V18.5C32 18.776 31.776 19 31.5 19 H29.68C28.396 19.001 27.191 19.619 26.44 20.66L23.52 25.04C23.228 25.471 23.315 26.053 23.72 26.38L25.3 27.62C25.524 27.785 25.804 27.856 26.08 27.82C26.36 27.778 26.607 27.618 26.76 27.38L29.38 23.38C29.571 23.104 29.885 22.94 30.22 22.94 H32 V52.94C32 53.492 31.552 53.94 31 53.94 H12C10.895 53.94 10 54.835 10 55.94C10 57.045 10.895 57.94 12 57.94 H56C57.105 57.94 58 57.045 58 55.94C58 54.835 57.105 53.94 56 53.94 V54 M22.64 40.78C22.895 40.996 23.243 41.064 23.56 40.96C23.878 40.855 24.125 40.601 24.22 40.28L26.46 32.66C26.688 31.871 26.411 31.022 25.76 30.52L21.6 27.26C20.961 26.762 20.084 26.699 19.38 27.1L12.5 31.1C12.21 31.266 12.023 31.567 12 31.9C11.979 32.226 12.121 32.541 12.38 32.74L22.64 40.78"></path></g></g></g><g id="g-root-ic_audi_4mbary11t74ej-fill" data-item-order="999997696" transform="translate(512, 177)"><g id="ic_audi_4mbary11t74ej-fill-merged" stroke="none" fill="#ffffff" fill-opacity="1"><g><path d="M57.48 29.62C57.167 29.429 56.773 29.429 56.46 29.62L34 44.3L11.54 29.66C11.227 29.469 10.833 29.469 10.52 29.66C10.202 29.839 10.003 30.175 10 30.54 V37.54C10.001 37.88 10.174 38.196 10.46 38.38L33.46 53.38C33.789 53.591 34.211 53.591 34.54 53.38L57.54 38.38C57.826 38.196 57.999 37.88 58 37.54 V30.54C58.011 30.16 57.811 29.806 57.48 29.62 M13.88 27.78C18.015 22.406 24.38 19.216 31.16 19.12C44 19.12 50.14 30.12 50.2 30.24C50.269 30.361 50.385 30.448 50.52 30.48 H50.64C50.724 30.509 50.816 30.509 50.9 30.48L54.78 28C55.007 27.862 55.078 27.566 54.94 27.34C54.94 27.22 48.14 15.1 34 15.1C19.86 15.1 13.12 27.12 13.06 27.24C12.972 27.359 12.939 27.511 12.97 27.656C13 27.801 13.091 27.926 13.22 28C13.463 28.117 13.755 28.019 13.88 27.78 M43.6 34.6C43.752 34.822 44.053 34.884 44.28 34.74L47.88 32.4C47.992 32.327 48.071 32.211 48.097 32.079C48.123 31.948 48.096 31.811 48.02 31.7C44.965 26.925 39.688 24.037 34.02 24.037C28.352 24.037 23.075 26.925 20.02 31.7C19.854 31.889 19.854 32.171 20.02 32.36C20.215 32.529 20.505 32.529 20.7 32.36C23.416 29.456 27.224 27.824 31.2 27.86C36.216 27.831 40.897 30.375 43.6 34.6 M26.86 36C26.709 36.179 26.709 36.441 26.86 36.62C26.987 36.821 27.238 36.904 27.46 36.82C28.388 36.511 29.362 36.362 30.34 36.38C32.778 36.387 35.109 37.383 36.8 39.14C36.889 39.232 37.012 39.283 37.14 39.28C37.231 39.309 37.329 39.309 37.42 39.28L41.14 36.86C41.276 36.778 41.365 36.638 41.38 36.48C41.387 36.33 41.329 36.184 41.22 36.08C39.359 34.126 36.778 33.02 34.08 33.02C31.382 33.02 28.801 34.126 26.94 36.08L26.86 36"></path></g></g></g><g id="g-root-tx_minimize_924w2611t747h-fill" data-item-order="1000000000" transform="translate(626, 158)"><g id="tx_minimize_924w2611t747h-fill-merged" stroke="none" fill="#484848" fill-opacity="1"><g><text style="font: 15px Roboto, sans-serif; white-space: pre;" transform="translate(10, 40)" font-size="15px" font-family="Roboto, sans-serif"><tspan x="2" y="-9" dominant-baseline="ideographic">Minimizes echo and </tspan><tspan x="2" y="9" dominant-baseline="ideographic">cross-talk for clear </tspan><tspan x="2" y="27" dominant-baseline="ideographic">speech.</tspan></text></g></g></g><g id="g-root-tx_cornellc_qsscb211t756q-fill" data-item-order="1000000000" transform="translate(368, 314)"><g id="tx_cornellc_qsscb211t756q-fill-merged" stroke="none" fill="#ffffff" fill-opacity="1"><g><text style="font: bold 20px Roboto, sans-serif; white-space: pre;" transform="translate(64, 46)" font-weight="bold" font-size="20px" font-family="Roboto, sans-serif"><tspan x="-34.65" y="-12" dominant-baseline="ideographic">Cornell </tspan><tspan x="-50.77" y="12" dominant-baseline="ideographic">Classroom </tspan><tspan x="-33.5" y="36" dominant-baseline="ideographic">Design</tspan></text></g></g></g><g id="g-root-tx_accessib_hvwh1q11t74ee-fill" data-item-order="1000000000" transform="translate(26, 374)"><g id="tx_accessib_hvwh1q11t74ee-fill-merged" stroke="none" fill="#e0cb15" fill-opacity="1"><g><text style="font: bold 20px Roboto, sans-serif; white-space: pre;" transform="translate(142, 34)" font-weight="bold" font-size="20px" font-family="Roboto, sans-serif"><tspan x="-116.89" y="-0" dominant-baseline="ideographic">Accessibility </tspan><tspan x="-122.19" y="24" dominant-baseline="ideographic">and Inclusion</tspan></text></g></g></g><g id="g-root-tx_allowsqu_1cz9gzy11t75s9-fill" data-item-order="1000000000" transform="translate(356, 686)"><g id="tx_allowsqu_1cz9gzy11t75s9-fill-merged" stroke="none" fill="#484848" fill-opacity="1"><g><text style="font: 15px Roboto, sans-serif; white-space: pre;" transform="translate(76, 40)" font-size="15px" font-family="Roboto, sans-serif"><tspan x="-42.13" y="-9" dominant-baseline="ideographic">Allows quick </tspan><tspan x="-50.46" y="9" dominant-baseline="ideographic">reconfiguration </tspan><tspan x="-61.12" y="27" dominant-baseline="ideographic">within 15 minutes.</tspan></text></g></g></g><g id="g-root-tx_acoustic_mcyxce11t75sc-fill" data-item-order="1000000000" transform="translate(626, 98)"><g id="tx_acoustic_mcyxce11t75sc-fill-merged" stroke="none" fill="#1eabda" fill-opacity="1"><g><text style="font: bold 20px Roboto, sans-serif; white-space: pre;" transform="translate(10, 34)" font-weight="bold" font-size="20px" font-family="Roboto, sans-serif"><tspan x="2" y="-0" dominant-baseline="ideographic">Acoustic </tspan><tspan x="2" y="24" dominant-baseline="ideographic">Intelligibility</tspan></text></g></g></g><g id="g-root-tx_ergonomi_18jfyvi11t76ki-fill" data-item-order="1000000000" transform="translate(686, 374)"><g id="tx_ergonomi_18jfyvi11t76ki-fill-merged" stroke="none" fill="#3cc583" fill-opacity="1"><g><text style="font: bold 20px Roboto, sans-serif; white-space: pre;" transform="translate(10, 34)" font-weight="bold" font-size="20px" font-family="Roboto, sans-serif"><tspan x="2" y="-0" dominant-baseline="ideographic">Ergonomic </tspan><tspan x="2" y="24" dominant-baseline="ideographic">Support</tspan></text></g></g></g><g id="g-root-tx_lighting_18i70pa11t74ec-fill" data-item-order="1000000000" transform="translate(134, 98)"><g id="tx_lighting_18i70pa11t74ec-fill-merged" stroke="none" fill="#de8431" fill-opacity="1"><g><text style="font: bold 20px Roboto, sans-serif; white-space: pre;" transform="translate(94, 34)" font-weight="bold" font-size="20px" font-family="Roboto, sans-serif"><tspan x="-75.44" y="-0" dominant-baseline="ideographic">Lighting </tspan><tspan x="-65.13" y="24" dominant-baseline="ideographic">Quality</tspan></text></g></g></g><g id="g-root-tx_ensuresc_4kfyoe11t75zb-fill" data-item-order="1000000000" transform="translate(38, 434)"><g id="tx_ensuresc_4kfyoe11t75zb-fill-merged" stroke="none" fill="#484848" fill-opacity="1"><g><text style="font: 15px Roboto, sans-serif; white-space: pre;" transform="translate(130, 40)" font-size="15px" font-family="Roboto, sans-serif"><tspan x="-91.89" y="-9" dominant-baseline="ideographic">Ensures clear </tspan><tspan x="-100.4" y="9" dominant-baseline="ideographic">circulation and </tspan><tspan x="-111.97" y="27" dominant-baseline="ideographic">sightlines for all.</tspan></text></g></g></g><g id="g-root-tx_provides_v8lxla11t74zn-fill" data-item-order="1000000000" transform="translate(686, 434)"><g id="tx_provides_v8lxla11t74zn-fill-merged" stroke="none" fill="#484848" fill-opacity="1"><g><text style="font: 15px Roboto, sans-serif; white-space: pre;" transform="translate(10, 40)" font-size="15px" font-family="Roboto, sans-serif"><tspan x="2" y="-9" dominant-baseline="ideographic">Provides adaptable </tspan><tspan x="2" y="9" dominant-baseline="ideographic">furniture for comfort </tspan><tspan x="2" y="27" dominant-baseline="ideographic">and posture.</tspan></text></g></g></g><g id="g-root-tx_cornellc_1hf2vym11t756p-fill" data-item-order="1000000000" transform="translate(272.5, 38)"><g id="tx_cornellc_1hf2vym11t756p-fill-merged" stroke="none" fill="#484848" fill-opacity="1"><g><text style="font: bold 25px Roboto, sans-serif; white-space: pre;" transform="translate(160, 28)" font-weight="bold" font-size="25px" font-family="Roboto, sans-serif"><tspan x="-145.5" y="15" dominant-baseline="ideographic">Cornell Classroom Design</tspan></text></g></g></g><g id="g-root-tx_spatialf_1qapzda11t747c-fill" data-item-order="1000000000" transform="translate(374, 626)"><g id="tx_spatialf_1qapzda11t747c-fill-merged" stroke="none" fill="#92bd39" fill-opacity="1"><g><text style="font: bold 20px Roboto, sans-serif; white-space: pre;" transform="translate(58, 34)" font-weight="bold" font-size="20px" font-family="Roboto, sans-serif"><tspan x="-31.16" y="-0" dominant-baseline="ideographic">Spatial </tspan><tspan x="-43.26" y="24" dominant-baseline="ideographic">Flexibility</tspan></text></g></g></g><g id="g-root-tx_delivers_mb3i3211t76rx-fill" data-item-order="1000000000" transform="translate(74, 158)"><g id="tx_delivers_mb3i3211t76rx-fill-merged" stroke="none" fill="#484848" fill-opacity="1"><g><text style="font: 15px Roboto, sans-serif; white-space: pre;" transform="translate(154, 40)" font-size="15px" font-family="Roboto, sans-serif"><tspan x="-139.39" y="-9" dominant-baseline="ideographic">Delivers layered light </tspan><tspan x="-114.06" y="9" dominant-baseline="ideographic">modes to reduce </tspan><tspan x="-39.08" y="27" dominant-baseline="ideographic">glare.</tspan></text></g></g></g><g id="g-root-cp_0_g-0_4kfvim11t75e3-stroke" data-item-order="999421574" transform="translate(290, 220.0009765625)"><g id="cp_0_g-0_4kfvim11t75e3-stroke" fill="none" stroke-linecap="round" stroke-linejoin="round" stroke-miterlimit="4" stroke="#ffffff" stroke-width="2" stroke-opacity="1"><g><path d="M 274 142C 274 69.0984 214.9016 10 142 10C 69.0984 10 10 69.0984 10 142C 10 214.9016 69.0984 274 142 274C 214.9016 274 274 214.9016 274 142Z"></path></g></g></g><g id="g-root-cp_5_g-5_4kfvim11t75e4-stroke" data-item-order="999421578" transform="translate(241, 134)"><g id="cp_5_g-5_4kfvim11t75e4-stroke" fill="none" stroke-linecap="round" stroke-linejoin="round" stroke-miterlimit="4" stroke="#ffffff" stroke-width="2" stroke-opacity="1"><g><path d="M 94 10C 140.3919 10 178 47.6081 178 94C 178 94.8819 177.9864 95.7607 177.9594 96.636C 129.7092 101.3677 89.0813 132.0788 70.2496 174.5953C 35.4235 164.3489 10 132.1434 10 94C 10 47.6081 47.6081 10 94 10ZM 94.0009 178.0007C 85.7524 178.0007 77.7811 176.8111 70.25 174.5953C 89.0817 132.0788 129.7096 101.3677 177.9598 96.636C 176.5674 141.8082 139.5109 178.0007 94.0009 178.0007ZM 178.0004 94C 178.0004 94.8819 177.9868 95.7607 177.9598 96.636"></path></g></g></g><g id="g-root-cp_4_g-4_4mde611t766d-stroke" data-item-order="999421584" transform="translate(182, 319.0009765625)"><g id="cp_4_g-4_4mde611t766d-stroke" fill="none" stroke-linecap="round" stroke-linejoin="round" stroke-miterlimit="4" stroke="#ffffff" stroke-width="2" stroke-opacity="1"><g><path d="M 10 94C 10 47.6081 47.6081 10 94 10C 103.4795 10 112.5923 11.5703 121.0924 14.4648C 119.0675 23.6539 118 33.2023 118 43C 118 82.5007 135.3505 117.9491 162.8462 142.1396C 147.6564 163.8227 122.4839 178 94 178C 47.6081 178 10 140.3919 10 94ZM 162.8462 142.139544C 135.3505 117.949044 118 82.500744 118 43.000044C 118 33.202344 119.0675 23.653944 121.0924 14.464844C 154.191 25.736144 178 57.087644 178 94.000044C 178 111.908044 172.3961 128.507244 162.8462 142.139544Z"></path></g></g></g><g id="g-root-cp_3_g-3_4mde611t766e-stroke" data-item-order="999421590" transform="translate(338, 433.0009765625)"><g id="cp_3_g-3_4mde611t766e-stroke" fill="none" stroke-linecap="round" stroke-linejoin="round" stroke-miterlimit="4" stroke="#ffffff" stroke-width="2" stroke-opacity="1"><g><path d="M 94 177.999617C 47.6081 177.999617 10 140.391617 10 93.999617C 10 74.788817 16.4489 57.084217 27.3001 42.932617C 46.8728 54.415917 69.6676 60.999617 94 60.999617C 118.3324 60.999617 141.1271 54.415917 160.6999 42.932617C 171.5511 57.084217 178 74.788817 178 93.999617C 178 140.391617 140.3919 177.999617 94 177.999617ZM 160.700681 42.933C 141.127881 54.4162 118.333181 61 94.000681 61C 69.668281 61 46.873581 54.4163 27.300781 42.933C 42.653881 22.9101 66.819581 10 94.000681 10C 121.181781 10 145.347581 22.9101 160.700681 42.933Z"></path></g></g></g><g id="g-root-cp_2_g-2_1qa3f4e11t76rz-stroke" data-item-order="999421596" transform="translate(494, 319.0009765625)"><g id="cp_2_g-2_1qa3f4e11t76rz-stroke" fill="none" stroke-linecap="round" stroke-linejoin="round" stroke-miterlimit="4" stroke="#ffffff" stroke-width="2" stroke-opacity="1"><g><path d="M 94.000497 10C 140.392397 10 178.000497 47.6081 178.000497 94C 178.000497 140.3919 140.392397 178 94.000497 178C 65.516597 178 40.343997 163.8226 25.154297 142.1395C 52.649897 117.949 70.000497 82.5007 70.000497 43C 70.000497 33.2023 68.932997 23.6539 66.908097 14.4648C 75.408197 11.5703 84.520997 10 94.000497 10ZM 66.9076 14.464844C 68.9325 23.653944 70 33.202344 70 43.000044C 70 82.500744 52.6495 117.949044 25.1538 142.139544C 15.6039 128.507144 10 111.908044 10 94.000044C 10 57.087644 33.809 25.736144 66.9076 14.464844Z"></path></g></g></g><g id="g-root-cp_1_g-1_1luwe3211t74eg-stroke" data-item-order="999421602" transform="translate(435, 134)"><g id="cp_1_g-1_1luwe3211t74eg-stroke" fill="none" stroke-linecap="round" stroke-linejoin="round" stroke-miterlimit="4" stroke="#ffffff" stroke-width="2" stroke-opacity="1"><g><path d="M 94 10C 140.3919 10 178 47.6081 178 94C 178 132.1434 152.5765 164.3488 117.7504 174.5953C 98.9187 132.0788 58.2908 101.3677 10.0406 96.636C 10.0136 95.7607 10 94.8819 10 94C 10 47.6081 47.6081 10 94 10ZM 94.000416 178.000719C 48.490416 178.000719 11.433516 141.808919 10.041016 96.636719C 58.291216 101.368419 98.919216 132.079419 117.750916 174.596019C 110.219716 176.811719 102.248916 178.000719 94.000416 178.000719Z"></path></g></g></g><g id="g-root-ic_bloc_dhbtxq11te77p-stroke" data-item-order="999997696" transform="translate(398, 518)"></g><g id="g-root-ic_find_zrjt5a11t4d1c-stroke" data-item-order="999997696" transform="translate(572, 392)"></g><g id="g-root-ic_tabl_9596by11tgydd-stroke" data-item-order="999997696" transform="translate(224, 392)"></g><g id="g-root-ic_doub_18hkgge11th0jp-stroke" data-item-order="999997696" transform="translate(284, 177)"></g><g id="g-root-ic_audi_4mbary11t74ej-stroke" data-item-order="999997696" transform="translate(512, 177)"></g><g id="g-root-tx_minimize_924w2611t747h-stroke" data-item-order="1000000000" transform="translate(626, 158)"></g><g id="g-root-tx_cornellc_qsscb211t756q-stroke" data-item-order="1000000000" transform="translate(368, 314)"></g><g id="g-root-tx_accessib_hvwh1q11t74ee-stroke" data-item-order="1000000000" transform="translate(26, 374)"></g><g id="g-root-tx_allowsqu_1cz9gzy11t75s9-stroke" data-item-order="1000000000" transform="translate(356, 686)"></g><g id="g-root-tx_acoustic_mcyxce11t75sc-stroke" data-item-order="1000000000" transform="translate(626, 98)"></g><g id="g-root-tx_ergonomi_18jfyvi11t76ki-stroke" data-item-order="1000000000" transform="translate(686, 374)"></g><g id="g-root-tx_lighting_18i70pa11t74ec-stroke" data-item-order="1000000000" transform="translate(134, 98)"></g><g id="g-root-tx_ensuresc_4kfyoe11t75zb-stroke" data-item-order="1000000000" transform="translate(38, 434)"></g><g id="g-root-tx_provides_v8lxla11t74zn-stroke" data-item-order="1000000000" transform="translate(686, 434)"></g><g id="g-root-tx_cornellc_1hf2vym11t756p-stroke" data-item-order="1000000000" transform="translate(272.5, 38)"></g><g id="g-root-tx_spatialf_1qapzda11t747c-stroke" data-item-order="1000000000" transform="translate(374, 626)"></g><g id="g-root-tx_delivers_mb3i3211t76rx-stroke" data-item-order="1000000000" transform="translate(74, 158)"></g></g></g></svg>