<?xml version="1.0" encoding="utf-8" standalone="yes"?>
<!DOCTYPE svg PUBLIC "-//W3C//DTD SVG 1.1//EN" "http://www.w3.org/Graphics/SVG/1.1/DTD/svg11.dtd">
<svg style="fill:none;stroke:none;fill-rule:evenodd;clip-rule:evenodd;stroke-linecap:round;stroke-linejoin:round;stroke-miterlimit:1.5;" version="1.1" xmlns="http://www.w3.org/2000/svg" xmlns:xlink="http://www.w3.org/1999/xlink" width="984" height="744" viewBox="0 0 984 744"><style class="text-font-style fontImports" data-font-family="Roboto">@import url(https://fonts.googleapis.com/css2?family=Roboto:wght@400;700&amp;amp;display=block);</style><g id="items" style="isolation: isolate"><g id="blend" style="mix-blend-mode: normal"><g id="g-root-cp_resolution_g-resolution_18lx5ym13qvuvi-fill" data-item-order="-606518" transform="translate(458.02301025390625, 482)"><g id="cp_resolution_g-resolution_18lx5ym13qvuvi-fill-merged" stroke="none" fill="#4e88e7" fill-opacity="1"><g><path d="M10 94 H237.977 V106L285.977 58L237.977 10 V22 H153.975C140.952 39.363 124.835 54.311 106.333 66.037C77.519 84.298 44.111 93.995 10 94"></path></g></g></g><g id="g-root-cp_5_g-5_1463nu613qvvnr-fill" data-item-order="-606512" transform="translate(278, 352.248046875)"><g id="cp_5_g-5_1463nu613qvvnr-fill-merged" stroke="none" fill="#1eabda" fill-opacity="1"><g><path d="M15.651 88.499C21.527 111.397 31.85 132.885 46 151.752 H185.607C171.203 151.166 157.046 147.704 143.975 141.553C129.577 134.777 116.853 124.906 106.711 112.645C96.569 100.384 89.259 86.035 85.304 70.622C81.348 55.21 80.844 39.114 83.828 23.484L13.193 10C8.224 36.028 9.063 62.833 15.651 88.499"></path></g></g></g><g id="g-root-cp_4_g-4_1463nu613qvvns-fill" data-item-order="-606506" transform="translate(281.18798828125, 211.6572265625)"><g id="cp_4_g-4_1463nu613qvvns-fill-merged" stroke="none" fill="#3cc583" fill-opacity="1"><g><path d="M10 150.624C16.399 117.071 32.212 86.032 55.593 61.131C78.974 36.23 108.957 18.496 142.04 10L159.927 79.651C140.061 84.753 122.056 95.402 108.016 110.355C93.976 125.307 84.48 143.946 80.638 164.094L10 150.624"></path></g></g></g><g id="g-root-cp_3_g-3_zqa5pq13qvwg1-fill" data-item-order="-606500" transform="translate(413.2769775390625, 206)"><g id="cp_3_g-3_zqa5pq13qvwg1-fill-merged" stroke="none" fill="#92bd39" fill-opacity="1"><g><path d="M10 15.644C43.086 7.158 77.904 8.26 110.386 18.823C142.869 29.387 171.676 48.974 193.442 75.298L138.023 121.122C124.952 105.314 107.654 93.552 88.148 87.209C68.642 80.866 47.734 80.204 27.866 85.3L10 15.644"></path></g></g></g><g id="g-root-cp_2_g-2_qv9mjy13qvu2y-fill" data-item-order="-606494" transform="translate(541.2969970703125, 271.29296875)"><g id="cp_2_g-2_qv9mjy13qvu2y-fill-merged" stroke="none" fill="#de8431" fill-opacity="1"><g><path d="M65.418 10C87.185 36.323 101.013 68.296 105.287 102.185C109.561 136.073 104.104 170.478 89.554 201.382L24.494 170.75C33.231 152.193 36.508 131.533 33.941 111.183C31.375 90.833 23.071 71.633 10 55.826L65.418 10"></path></g></g></g><g id="g-root-cp_1_g-1_qv9mjy13qvu2z-fill" data-item-order="-606488" transform="translate(457.8909912109375, 432.0810546875)"><g id="cp_1_g-1_qv9mjy13qvu2z-fill-merged" stroke="none" fill="#e0cb15" fill-opacity="1"><g><path d="M172.931 40.657C158.369 71.555 135.316 97.671 106.466 115.956C77.615 134.241 44.157 143.94 10 143.919 V72.008C30.554 72.021 50.646 66.197 67.97 55.217C85.295 44.237 99.138 28.554 107.882 10L172.931 40.657"></path></g></g></g><g id="g-root-cp_problem_g-problem_mfg4fi13qvuv8-fill" data-item-order="-606482" transform="translate(205, 494)"><g id="cp_problem_g-problem_mfg4fi13qvuv8-fill-merged" stroke="none" fill="#e55753" fill-opacity="1"><g><path d="M10 10 H263 V82 H10 V10"></path></g></g></g><g id="g-root-ic_view_1qckpda13r026d-fill" data-item-order="-2304" transform="translate(513, 482)"><g id="ic_view_1qckpda13r026d-fill-merged" stroke="none" fill="#ffffff" fill-opacity="1"><g><path d="M57.42 54.58L52.44 49.62C52.303 49.436 52.303 49.184 52.44 49C55.482 44.234 54.446 37.942 50.038 34.401C45.63 30.861 39.263 31.207 35.265 35.205C31.267 39.203 30.921 45.57 34.461 49.978C38.002 54.386 44.294 55.422 49.06 52.38C49.244 52.243 49.496 52.243 49.68 52.38L54.64 57.36C55.424 58.144 56.696 58.144 57.48 57.36C58.264 56.576 58.264 55.304 57.48 54.52L57.42 54.58 M43.06 50.12C39.161 50.12 36 46.959 36 43.06C36 39.161 39.161 36 43.06 36C46.959 36 50.12 39.161 50.12 43.06C50.12 46.959 46.959 50.12 43.06 50.12 M29 43.06C29.001 42.12 29.095 41.182 29.28 40.26 H27.28 V35.12 H31.52C32.297 33.991 33.233 32.98 34.3 32.12 H27.22 V27 H35.32 V31.32C36.261 30.71 37.267 30.206 38.32 29.82 V27 H45.32 V29.18C46.347 29.354 47.352 29.635 48.32 30.02 V14.78C48.32 12.148 46.192 10.011 43.56 10 H14.78C12.14 10 10 12.14 10 14.78 V38.5C10.011 41.132 12.148 43.26 14.78 43.26 H29 V43.06 M38.32 18.86 H45.32 V24 H38.32 V18.86 M27.22 18.86 H35.32 V24 H27.22 V18.86 M24.22 40.26 H14.78C13.805 40.26 13.011 39.475 13 38.5 V35.12 H24.22 V40.26 M24.22 32.12 H13 V27 H24.22 V32.12 M24.22 24 H13 V18.86 H24.22 V24"></path></g></g></g><g id="g-root-ic_2_v7yr8u13r2xvu-fill" data-item-order="-2304" transform="translate(340, 254)"><g id="ic_2_v7yr8u13r2xvu-fill-merged" stroke="none" fill="#ffffff" fill-opacity="1"><g><path d="M17.97 31.138C17.97 22.394 25.22 15.144 33.964 15.144C38.624 15.144 42.86 17.204 45.8 20.45L44.292 21.958C43.511 22.739 43.512 24.006 44.293 24.787C45.074 25.568 46.341 25.567 47.122 24.786L48.13 23.778C49.33 26.046 49.957 28.572 49.958 31.138C49.958 32.243 50.853 33.138 51.958 33.138C53.063 33.138 53.958 32.243 53.958 31.138C53.958 27.386 52.898 23.86 51.064 20.844L52.424 19.484C53.205 18.703 53.206 17.436 52.425 16.655C51.644 15.874 50.377 15.873 49.596 16.654L48.632 17.62C44.966 13.648 39.73 11.144 33.964 11.144C23.01 11.144 13.97 20.184 13.97 31.138C13.97 32.243 14.865 33.138 15.97 33.138C17.075 33.138 17.97 32.243 17.97 31.138 M28.944 28.792C27.58 28.792 26.406 29.646 26.122 31.068L23.86 42.38C23.586 43.276 23.88 44.148 24.42 44.732C25.022 45.576 25.908 45.836 26.672 45.836 H32.058 V52.842 H28.85C27.745 52.842 26.85 53.737 26.85 54.842C26.85 55.947 27.745 56.842 28.85 56.842 H39.268C40.373 56.842 41.268 55.947 41.268 54.842C41.268 53.737 40.373 52.842 39.268 52.842 H36.058 V45.836 H41.446C42.392 45.836 43.19 45.242 43.63 44.8C44.272 44.172 44.514 43.241 44.258 42.38L41.996 31.066C41.71 29.644 40.536 28.79 39.172 28.79 H28.944 M51.01 39.104C50.022 39.104 49.221 39.904 49.221 40.892C49.221 41.88 50.022 42.68 51.01 42.68C51.997 42.68 52.797 41.879 52.797 40.892C52.797 39.905 51.997 39.104 51.01 39.104 M45.222 40.892C45.221 37.695 47.813 35.103 51.01 35.103C54.207 35.103 56.799 37.695 56.798 40.892C56.797 44.088 54.206 46.679 51.01 46.679C47.814 46.679 45.223 44.088 45.222 40.892 M15.97 43.344C16.872 43.38 17.721 42.92 18.183 42.145C18.645 41.369 18.645 40.403 18.183 39.627C17.721 38.852 16.872 38.392 15.97 38.428C14.651 38.481 13.609 39.566 13.609 40.886C13.609 42.206 14.651 43.291 15.97 43.344"></path></g></g></g><g id="g-root-ic_1_4havzi13r2vbd-fill" data-item-order="-2304" transform="translate(481, 223)"><g id="ic_1_4havzi13r2vbd-fill-merged" stroke="none" fill="#ffffff" fill-opacity="1"><g><path d="M34 32C40.075 32 45 27.075 45 21C45 14.925 40.075 10 34 10C27.925 10 23 14.925 23 21C23 27.075 27.925 32 34 32 M14 55C14 43.954 22.954 35 34 35C45.046 35 54 43.954 54 55 V56C54 57.105 53.105 58 52 58 H49 V53C49 50.791 47.209 49 45 49 V43C45 40.791 43.209 39 41 39 H36.5C34.618 38.999 32.99 40.311 32.59 42.15C32.235 42.05 31.869 42 31.5 42 H25C22.791 42 21 43.791 21 46 V49.536C19.762 50.251 19 51.571 19 53 V58 H16C14.895 58 14 57.105 14 56 V55 M22 58 H46 V53C46 52.448 45.552 52 45 52 H23C22.448 52 22 52.448 22 53 V58 M35.74 26.26C34.726 25.246 33.276 25.246 32.26 26.26C31.886 26.661 31.323 26.826 30.791 26.691C30.26 26.555 29.845 26.14 29.709 25.609C29.574 25.077 29.739 24.514 30.14 24.14C32.326 21.954 35.676 21.954 37.86 24.14C38.411 24.731 38.394 25.652 37.823 26.223C37.252 26.794 36.331 26.811 35.74 26.26 M42 49.5 V43C42 42.448 41.552 42 41 42 H36.5C35.948 42 35.5 42.448 35.5 43 V49.5 H42 M32.5 49.5 H24 V46C24 45.448 24.448 45 25 45 H31.5C32.052 45 32.5 45.448 32.5 46 V49.5"></path></g></g></g><g id="g-root-ic_grou_8fou13qxatj-fill" data-item-order="-2304" transform="translate(310, 506)"><g id="ic_grou_8fou13qxatj-fill-merged" stroke="none" fill="#ffffff" fill-opacity="1"><g><path d="M27.414 10.586C26.629 9.828 25.382 9.839 24.61 10.61C23.839 11.382 23.828 12.629 24.586 13.414L31.172 20L24.586 26.586C23.828 27.371 23.839 28.618 24.61 29.39C25.382 30.161 26.629 30.172 27.414 29.414L34 22.828L40.586 29.414C41.371 30.172 42.618 30.161 43.39 29.39C44.161 28.618 44.172 27.371 43.414 26.586L36.828 20L43.414 13.414C44.172 12.629 44.161 11.382 43.39 10.61C42.618 9.839 41.371 9.828 40.586 10.586L34 17.172L27.414 10.586 M22 43C22 45.761 19.761 48 17 48C14.239 48 12 45.761 12 43C12 40.239 14.239 38 17 38C19.761 38 22 40.239 22 43 M17 50C14.382 49.997 11.867 51.024 10 52.86 V57C10 57.552 10.448 58 11 58 H20.224C20.009 57.114 20.122 56.18 20.542 55.37C21.162 54.11 21.958 52.95 22.892 51.92C21.182 50.67 19.118 49.997 17 50 M47.724 58C47.938 57.156 47.856 56.208 47.352 55.26C46.719 54.073 45.94 52.969 45.032 51.976C46.756 50.69 48.849 49.997 51 50C53.619 49.996 56.133 51.024 58 52.86 V57C58 57.552 57.552 58 57 58 H47.724 M56 43C56 45.761 53.761 48 51 48C48.239 48 46 45.761 46 43C46 40.239 48.239 38 51 38C53.761 38 56 40.239 56 43 M34 50C29.428 49.999 25.252 52.596 23.232 56.698C22.926 57.318 23.406 58 24.096 58 H43.902C44.594 58 45.074 57.316 44.768 56.698C42.748 52.596 38.572 49.999 34 50 M34 48C37.59 48 40.5 45.09 40.5 41.5C40.5 37.91 37.59 35 34 35C30.41 35 27.5 37.91 27.5 41.5C27.5 45.09 30.41 48 34 48"></path></g></g></g><g id="g-root-ic_inte_v4udta13r4av8-fill" data-item-order="-2304" transform="translate(614, 506)"><g id="ic_inte_v4udta13r4av8-fill-merged" stroke="none" fill="#ffffff" fill-opacity="1"><g><path d="M31.76 52 H12.18 V58 H30.48C30.491 55.933 30.927 53.891 31.76 52 M39.26 44.22C37.207 42.799 35.681 40.739 34.92 38.36 H15.68C14.855 38.362 14.117 38.871 13.82 39.64L10.2 48C10.04 48.336 10.057 48.729 10.245 49.05C10.434 49.37 10.769 49.576 11.14 49.6 H33.14C34.656 47.286 36.771 45.427 39.26 44.22 M35.46 30C33.492 28.289 30.967 27.357 28.36 27.38C23.485 27.394 19.224 30.672 17.96 35.38 H34.38C34.296 33.525 34.667 31.678 35.46 30 M29.86 32.7C29.86 33.528 29.188 34.2 28.36 34.2C27.532 34.2 26.86 33.528 26.86 32.7 V30.7C26.86 29.872 27.532 29.2 28.36 29.2C29.188 29.2 29.86 29.872 29.86 30.7 V32.7 M45.7 26.32C40.953 26.331 37.113 30.186 37.12 34.933C37.127 39.68 40.98 43.524 45.727 43.52C50.474 43.516 54.32 39.667 54.32 34.92C54.309 30.167 50.453 26.32 45.7 26.32 M45.7 40.52C42.612 40.509 40.111 38.008 40.1 34.92C40.098 33.773 40.455 32.654 41.12 31.72C43.586 34.692 47.259 36.396 51.12 36.36C50.467 38.816 48.241 40.524 45.7 40.52 M45.7 45.8C38.959 45.8 33.491 51.259 33.48 58 H58C58 54.747 56.701 51.629 54.391 49.338C52.082 47.047 48.953 45.773 45.7 45.8 M47.2 52C47.2 52.828 46.528 53.5 45.7 53.5C44.872 53.5 44.2 52.828 44.2 52 V49.62C44.2 48.792 44.872 48.12 45.7 48.12C46.528 48.12 47.2 48.792 47.2 49.62 V52 M28.36 10C24.063 10 20.58 13.483 20.58 17.78C20.58 22.077 24.063 25.56 28.36 25.56C32.657 25.56 36.14 22.077 36.14 17.78C36.14 13.483 32.657 10 28.36 10 M28.36 22.56C26.635 22.53 25.06 21.576 24.233 20.062C23.406 18.549 23.454 16.708 24.36 15.24C26.521 17.744 29.653 19.201 32.96 19.24C32.315 21.231 30.453 22.575 28.36 22.56"></path></g></g></g><g id="g-root-ic_trai_4lo7la13r2xvv-fill" data-item-order="-2304" transform="translate(302, 412)"><g id="ic_trai_4lo7la13r2xvv-fill-merged" stroke="none" fill="#ffffff" fill-opacity="1"><g><path d="M28.9 10.5C26.249 10.499 24.099 12.649 24.099 15.3C24.099 17.951 26.249 20.101 28.9 20.1C31.551 20.099 33.699 17.951 33.699 15.3C33.699 12.649 31.551 10.501 28.9 10.5 M15.3 18.3C12.649 18.299 10.499 20.449 10.499 23.1C10.499 25.751 12.649 27.901 15.3 27.9C17.951 27.899 20.099 25.751 20.099 23.1C20.099 20.449 17.951 18.301 15.3 18.3 M42.5 18.3C39.849 18.299 37.699 20.449 37.699 23.1C37.699 25.751 39.849 27.901 42.5 27.9C45.151 27.899 47.299 25.751 47.299 23.1C47.299 20.449 45.151 18.301 42.5 18.3 M31.28 26.476C30.08 24.976 27.72 24.976 26.52 26.476L18.7 36.9C18.015 37.831 17.913 39.042 18.423 40.052C18.933 41.063 19.968 41.7 21.1 41.7 H27.56C27.907 40.886 28.555 40.237 29.368 39.888L38.364 35.918L31.3 26.5 M34.83 48.702L41.31 51.562C42.993 52.304 44.912 52.298 46.59 51.546L52.83 48.752 V53.49C52.83 53.888 52.671 54.269 52.39 54.55L51.33 53.49L52.39 54.55C52.137 54.791 51.936 54.964 51.73 55.13C51.334 55.45 50.758 55.87 50.03 56.29C48.582 57.124 46.472 57.99 43.93 57.99C41.394 57.99 39.24 57.128 37.752 56.3C36.957 55.858 36.204 55.342 35.504 54.76C35.458 54.721 35.412 54.681 35.366 54.64C35.308 54.586 35.304 54.586 36.33 53.49L35.304 54.584C35.002 54.3 34.83 53.904 34.83 53.49 V48.7 M30.376 42.176C30.013 42.336 29.779 42.695 29.779 43.091C29.779 43.487 30.013 43.846 30.376 44.006L42.32 49.274C43.355 49.73 44.535 49.727 45.568 49.264L54.928 45.074 V48.652C54.928 49.48 55.6 50.152 56.428 50.152C57.256 50.152 57.928 49.48 57.928 48.652 V43.592C57.929 43.485 57.918 43.377 57.896 43.272C57.982 42.818 57.743 42.364 57.32 42.178L45.568 36.916C44.535 36.453 43.355 36.45 42.32 36.906L30.376 42.176"></path></g></g></g><g id="g-root-ic_buil_de6uem13r1ij3-fill" data-item-order="-2304" transform="translate(578, 350)"><g id="ic_buil_de6uem13r1ij3-fill-merged" stroke="none" fill="#ffffff" fill-opacity="1"><g><path d="M56 16C54.895 16 54 16.895 54 18 V52C54 53.105 53.105 54 52 54 H18C16.895 54 16 54.895 16 56C16 57.105 16.895 58 18 58 H52C55.314 58 58 55.314 58 52 V18C58 16.895 57.105 16 56 16 M26 30.5 H20C19.172 30.5 18.5 31.172 18.5 32C18.5 32.828 19.172 33.5 20 33.5 H26C26.828 33.5 27.5 32.828 27.5 32C27.5 31.172 26.828 30.5 26 30.5 M26 35.5 H20C19.172 35.5 18.5 36.172 18.5 37C18.5 37.828 19.172 38.5 20 38.5 H26C26.828 38.5 27.5 37.828 27.5 37C27.5 36.172 26.828 35.5 26 35.5 M48 51C49.657 51 51 49.657 51 48 V13C51 11.343 49.657 10 48 10 H13C11.343 10 10 11.343 10 13 V48C10 49.657 11.343 51 13 51 H48 M30 45C30 45.552 29.552 46 29 46 H26C25.448 46 25 45.552 25 45 V43C25 42.448 24.552 42 24 42 H22C21.448 42 21 42.448 21 43 V45C21 45.552 20.552 46 20 46 H17C16.448 46 16 45.552 16 45 V30C16.004 29.619 16.22 29.272 16.56 29.1L22.56 26.1C22.837 25.961 23.163 25.961 23.44 26.1L29.44 29.1C29.78 29.272 29.996 29.619 30 30 V45 M46 45C46 45.552 45.552 46 45 46 H34C33.448 46 33 45.552 33 45 V18C33.001 17.66 33.174 17.344 33.46 17.16C33.76 17 34.12 17 34.42 17.16L45.42 22C45.802 22.181 46.032 22.579 46 23 V45 M42 30.5 H37C36.172 30.5 35.5 31.172 35.5 32C35.5 32.828 36.172 33.5 37 33.5 H42C42.828 33.5 43.5 32.828 43.5 32C43.5 31.172 42.828 30.5 42 30.5 M42 25.5 H37C36.172 25.5 35.5 26.172 35.5 27C35.5 27.828 36.172 28.5 37 28.5 H42C42.828 28.5 43.5 27.828 43.5 27C43.5 26.172 42.828 25.5 42 25.5 M42 35.5 H37C36.172 35.5 35.5 36.172 35.5 37C35.5 37.828 36.172 38.5 37 38.5 H42C42.828 38.5 43.5 37.828 43.5 37C43.5 36.172 42.828 35.5 42 35.5"></path></g></g></g><g id="g-root-tx_optimize_18ko7se13r5p8u-fill" data-item-order="0" transform="translate(146, 236)"><g id="tx_optimize_18ko7se13r5p8u-fill-merged" stroke="none" fill="#484848" fill-opacity="1"><g><text style="font: 15px Roboto, sans-serif; white-space: pre;" transform="translate(166, 28)" font-size="15px" font-family="Roboto, sans-serif"><tspan x="-150.3" y="0" dominant-baseline="ideographic">Optimize furniture and </tspan><tspan x="-51.25" y="18" dominant-baseline="ideographic">lighting</tspan></text></g></g></g><g id="g-root-tx_architec_8zmage13r5pmx-fill" data-item-order="0" transform="translate(662, 272)"><g id="tx_architec_8zmage13r5pmx-fill-merged" stroke="none" fill="#de8431" fill-opacity="1"><g><text style="font: bold 20px Roboto, sans-serif; white-space: pre;" transform="translate(10, 34)" font-weight="bold" font-size="20px" font-family="Roboto, sans-serif"><tspan x="2" y="-0" dominant-baseline="ideographic">Architectural </tspan><tspan x="2" y="24" dominant-baseline="ideographic">Feasibility</tspan></text></g></g></g><g id="g-root-tx_evolvest_hydo4u13r5p8v-fill" data-item-order="0" transform="translate(86, 350)"><g id="tx_evolvest_hydo4u13r5p8v-fill-merged" stroke="none" fill="#1eabda" fill-opacity="1"><g><text style="font: bold 20px Roboto, sans-serif; white-space: pre;" transform="translate(178, 22)" font-weight="bold" font-size="20px" font-family="Roboto, sans-serif"><tspan x="-156.97" y="12" dominant-baseline="ideographic">Evolve Standards</tspan></text></g></g></g><g id="g-root-tx_refinepr_1ur59bi13r5q11-fill" data-item-order="0" transform="translate(158, 200)"><g id="tx_refinepr_1ur59bi13r5q11-fill-merged" stroke="none" fill="#3cc583" fill-opacity="1"><g><text style="font: bold 20px Roboto, sans-serif; white-space: pre;" transform="translate(154, 22)" font-weight="bold" font-size="20px" font-family="Roboto, sans-serif"><tspan x="-133.74" y="12" dominant-baseline="ideographic">Refine Presets</tspan></text></g></g></g><g id="g-root-tx_balancer_1qa2t0u13r5on6-fill" data-item-order="0" transform="translate(662, 332)"><g id="tx_balancer_1qa2t0u13r5on6-fill-merged" stroke="none" fill="#484848" fill-opacity="1"><g><text style="font: 15px Roboto, sans-serif; white-space: pre;" transform="translate(10, 28)" font-size="15px" font-family="Roboto, sans-serif"><tspan x="2" y="0" dominant-baseline="ideographic">Balance research with </tspan><tspan x="2" y="18" dominant-baseline="ideographic">practicality</tspan></text></g></g></g><g id="g-root-tx_implemen_vcc2um13qvvgu-fill" data-item-order="0" transform="translate(368, 362)"><g id="tx_implemen_vcc2um13qvvgu-fill-merged" stroke="none" fill="#484848" fill-opacity="1"><g><text style="font: bold 20px Roboto, sans-serif; white-space: pre;" transform="translate(100, 34)" font-weight="bold" font-size="20px" font-family="Roboto, sans-serif"><tspan x="-87.02" y="-0" dominant-baseline="ideographic">Implement Human-</tspan><tspan x="-74.43" y="24" dominant-baseline="ideographic">Centered Design</tspan></text></g></g></g><g id="g-root-tx_createin_7q4q613r5og8-fill" data-item-order="0" transform="translate(86, 386)"><g id="tx_createin_7q4q613r5og8-fill-merged" stroke="none" fill="#484848" fill-opacity="1"><g><text style="font: 15px Roboto, sans-serif; white-space: pre;" transform="translate(178, 28)" font-size="15px" font-family="Roboto, sans-serif"><tspan x="-164.82" y="0" dominant-baseline="ideographic">Create inclusive learning </tspan><tspan x="-49.88" y="18" dominant-baseline="ideographic">spaces</tspan></text></g></g></g><g id="g-root-tx_trackeng_dgoqr213r5r0s-fill" data-item-order="0" transform="translate(494, 158)"><g id="tx_trackeng_dgoqr213r5r0s-fill-merged" stroke="none" fill="#484848" fill-opacity="1"><g><text style="font: 15px Roboto, sans-serif; white-space: pre;" transform="translate(94, 28)" font-size="15px" font-family="Roboto, sans-serif"><tspan x="-78.19" y="0" dominant-baseline="ideographic">Track engagement and </tspan><tspan x="-44.78" y="18" dominant-baseline="ideographic">performance</tspan></text></g></g></g><g id="g-root-tx_postoccu_zns9da13r5on7-fill" data-item-order="0" transform="translate(494, 98)"><g id="tx_postoccu_zns9da13r5on7-fill-merged" stroke="none" fill="#92bd39" fill-opacity="1"><g><text style="font: bold 20px Roboto, sans-serif; white-space: pre;" transform="translate(94, 34)" font-weight="bold" font-size="20px" font-family="Roboto, sans-serif"><tspan x="-76.72" y="-0" dominant-baseline="ideographic">Post-Occupancy </tspan><tspan x="-36.45" y="24" dominant-baseline="ideographic">Studies</tspan></text></g></g></g><g id="g-root-tx_optimizi_93zm2613qvwg5-fill" data-item-order="0" transform="translate(230, 38)"><g id="tx_optimizi_93zm2613qvwg5-fill-merged" stroke="none" fill="#484848" fill-opacity="1"><g><text style="font: bold 25px Roboto, sans-serif; white-space: pre;" transform="translate(262, 28)" font-weight="bold" font-size="25px" font-family="Roboto, sans-serif"><tspan x="-244.86" y="15" dominant-baseline="ideographic">Optimizing Classroom Design for Pedagogy</tspan></text></g></g></g><g id="g-root-tx_promotes_qv9mjy13r5qma-fill" data-item-order="0" transform="translate(614, 650)"><g id="tx_promotes_qv9mjy13r5qma-fill-merged" stroke="none" fill="#484848" fill-opacity="1"><g><text style="font: 15px Roboto, sans-serif; white-space: pre;" transform="translate(94, 28)" font-size="15px" font-family="Roboto, sans-serif"><tspan x="-79.95" y="0" dominant-baseline="ideographic">Promotes collaboration </tspan><tspan x="-57.92" y="18" dominant-baseline="ideographic">and engagement</tspan></text></g></g></g><g id="g-root-tx_ineffect_1lr4xgu13r5o91-fill" data-item-order="0" transform="translate(159, 590)"><g id="tx_ineffect_1lr4xgu13r5o91-fill-merged" stroke="none" fill="#484848" fill-opacity="1"><g><text style="font: bold 20px Roboto, sans-serif; white-space: pre;" transform="translate(94, 34)" font-weight="bold" font-size="20px" font-family="Roboto, sans-serif"><tspan x="-48.02" y="-0" dominant-baseline="ideographic">Ineffective </tspan><tspan x="-81.77" y="24" dominant-baseline="ideographic">Classroom Design</tspan></text></g></g></g><g id="g-root-tx_datadriv_1q87dri13r5pmv-fill" data-item-order="0" transform="translate(410.5, 590)"><g id="tx_datadriv_1q87dri13r5pmv-fill-merged" stroke="none" fill="#e0cb15" fill-opacity="1"><g><text style="font: bold 20px Roboto, sans-serif; white-space: pre;" transform="translate(70, 34)" font-weight="bold" font-size="20px" font-family="Roboto, sans-serif"><tspan x="-55.83" y="-0" dominant-baseline="ideographic">Data-Driven </tspan><tspan x="-38.65" y="24" dominant-baseline="ideographic">Insights</tspan></text></g></g></g><g id="g-root-tx_optimize_18mjn1q13r5o95-fill" data-item-order="0" transform="translate(620, 590)"><g id="tx_optimize_18mjn1q13r5o95-fill-merged" stroke="none" fill="#484848" fill-opacity="1"><g><text style="font: bold 20px Roboto, sans-serif; white-space: pre;" transform="translate(88, 34)" font-weight="bold" font-size="20px" font-family="Roboto, sans-serif"><tspan x="-45.9" y="-0" dominant-baseline="ideographic">Optimized </tspan><tspan x="-74.77" y="24" dominant-baseline="ideographic">Learning Spaces</tspan></text></g></g></g><g id="g-root-tx_hindersc_m97dke13r5p1q-fill" data-item-order="0" transform="translate(165, 650)"><g id="tx_hindersc_m97dke13r5p1q-fill-merged" stroke="none" fill="#484848" fill-opacity="1"><g><text style="font: 15px Roboto, sans-serif; white-space: pre;" transform="translate(88, 28)" font-size="15px" font-family="Roboto, sans-serif"><tspan x="-73.26" y="0" dominant-baseline="ideographic">Hinders collaboration </tspan><tspan x="-57.92" y="18" dominant-baseline="ideographic">and engagement</tspan></text></g></g></g><g id="g-root-tx_analyzeh_zlwu3y13r5pmw-fill" data-item-order="0" transform="translate(380.5, 650)"><g id="tx_analyzeh_zlwu3y13r5pmw-fill-merged" stroke="none" fill="#484848" fill-opacity="1"><g><text style="font: 15px Roboto, sans-serif; white-space: pre;" transform="translate(100, 28)" font-size="15px" font-family="Roboto, sans-serif"><tspan x="-82.52" y="0" dominant-baseline="ideographic">Analyze human behavior </tspan><tspan x="-28.72" y="18" dominant-baseline="ideographic">patterns</tspan></text></g></g></g><g id="g-root-cp_resolution_g-resolution_18lx5ym13qvuvi-stroke" data-item-order="-606518" transform="translate(458.02301025390625, 482)"><g id="cp_resolution_g-resolution_18lx5ym13qvuvi-stroke" fill="none" stroke-linecap="round" stroke-linejoin="round" stroke-miterlimit="4" stroke="#ffffff" stroke-width="2" stroke-opacity="1"><g><path d="M 10 94L 237.9766 94L 237.9766 106L 285.9766 58L 237.9766 10L 237.9766 22L 153.975 22"></path></g></g></g><g id="g-root-cp_5_g-5_1463nu613qvvnr-stroke" data-item-order="-606512" transform="translate(278, 352.248046875)"><g id="cp_5_g-5_1463nu613qvvnr-stroke" fill="none" stroke-linecap="round" stroke-linejoin="round" stroke-miterlimit="4" stroke="#ffffff" stroke-width="2" stroke-opacity="1"><g><path d="M 15.6506 88.4989C 21.5273 111.3966 31.8495 132.8847 46 151.752L 185.6075 151.752C 171.203 151.1662 157.0455 147.7038 143.9746 141.5526C 129.5771 134.7771 116.8532 124.9064 106.7112 112.6452C 96.5693 100.3841 89.2595 86.0349 85.3039 70.6223C 81.3482 55.2098 80.8443 39.1139 83.828 23.4841L 13.1928 10C 8.224 36.0282 9.0633 62.8325 15.6506 88.4989ZM 46 151.752C 31.8495 132.8847 21.5273 111.3966 15.6506 88.4989C 9.0633 62.8325 8.224 36.0282 13.1928 10M 185.6075 151.752C 171.203 151.1662 157.0455 147.7038 143.9746 141.5526C 129.5771 134.7771 116.8532 124.9064 106.7112 112.6452C 96.5693 100.3841 89.2595 86.0349 85.3039 70.6223C 81.3482 55.2098 80.8443 39.1139 83.828 23.4841"></path></g></g></g><g id="g-root-cp_4_g-4_1463nu613qvvns-stroke" data-item-order="-606506" transform="translate(281.18798828125, 211.6572265625)"><g id="cp_4_g-4_1463nu613qvvns-stroke" fill="none" stroke-linecap="round" stroke-linejoin="round" stroke-miterlimit="4" stroke="#ffffff" stroke-width="2" stroke-opacity="1"><g><path d="M 142.0403 10C 108.9567 18.4963 78.9735 36.2304 55.5926 61.1311C 32.2118 86.0318 16.3986 117.0711 10 150.6235L 80.6377 164.0944C 84.48 143.9463 93.9758 125.3074 108.0159 110.3546C 122.056 95.4018 140.0608 84.7525 159.9274 79.6506"></path></g></g></g><g id="g-root-cp_3_g-3_zqa5pq13qvwg1-stroke" data-item-order="-606500" transform="translate(413.2769775390625, 206)"><g id="cp_3_g-3_zqa5pq13qvwg1-stroke" fill="none" stroke-linecap="round" stroke-linejoin="round" stroke-miterlimit="4" stroke="#ffffff" stroke-width="2" stroke-opacity="1"><g><path d="M 193.4419 75.2978C 171.6758 48.974 142.8692 29.3866 110.3865 18.8235C 77.9038 8.2604 43.086 7.1577 10 15.644L 27.8663 85.2999C 47.7344 80.2039 68.6423 80.8661 88.148 87.2092C 107.6537 93.5523 124.952 105.3144 138.0225 121.1218"></path></g></g></g><g id="g-root-cp_2_g-2_qv9mjy13qvu2y-stroke" data-item-order="-606494" transform="translate(541.2969970703125, 271.29296875)"><g id="cp_2_g-2_qv9mjy13qvu2y-stroke" fill="none" stroke-linecap="round" stroke-linejoin="round" stroke-miterlimit="4" stroke="#ffffff" stroke-width="2" stroke-opacity="1"><g><path d="M 89.5544 201.3816C 104.1042 170.4784 109.5608 136.0732 105.2868 102.1846C 101.0128 68.296 87.1847 36.323 65.4177 10L 10 55.8261C 23.071 71.633 31.3747 90.8326 33.9412 111.1826C 36.5077 131.5326 33.2311 152.1927 24.494 170.75"></path></g></g></g><g id="g-root-cp_1_g-1_qv9mjy13qvu2z-stroke" data-item-order="-606488" transform="translate(457.8909912109375, 432.0810546875)"><g id="cp_1_g-1_qv9mjy13qvu2z-stroke" fill="none" stroke-linecap="round" stroke-linejoin="round" stroke-miterlimit="4" stroke="#ffffff" stroke-width="2" stroke-opacity="1"><g><path d="M 10 143.9193C 44.1571 143.9397 77.6149 134.241 106.4656 115.956C 135.3163 97.671 158.3689 71.5546 172.9307 40.657L 107.8823 10C 99.138 28.5538 85.295 44.2367 67.9702 55.2167C 50.6455 66.1968 30.5542 72.0208 10.0431 72.0085"></path></g></g></g><g id="g-root-cp_problem_g-problem_mfg4fi13qvuv8-stroke" data-item-order="-606482" transform="translate(205, 494)"><g id="cp_problem_g-problem_mfg4fi13qvuv8-stroke" fill="none" stroke-linecap="round" stroke-linejoin="round" stroke-miterlimit="4" stroke="#ffffff" stroke-width="2" stroke-opacity="1"><g><path d="M 10 10L 263 10L 263 82L 10 82L 10 10Z"></path></g></g></g><g id="g-root-ic_view_1qckpda13r026d-stroke" data-item-order="-2304" transform="translate(513, 482)"></g><g id="g-root-ic_2_v7yr8u13r2xvu-stroke" data-item-order="-2304" transform="translate(340, 254)"></g><g id="g-root-ic_1_4havzi13r2vbd-stroke" data-item-order="-2304" transform="translate(481, 223)"></g><g id="g-root-ic_grou_8fou13qxatj-stroke" data-item-order="-2304" transform="translate(310, 506)"></g><g id="g-root-ic_inte_v4udta13r4av8-stroke" data-item-order="-2304" transform="translate(614, 506)"></g><g id="g-root-ic_trai_4lo7la13r2xvv-stroke" data-item-order="-2304" transform="translate(302, 412)"></g><g id="g-root-ic_buil_de6uem13r1ij3-stroke" data-item-order="-2304" transform="translate(578, 350)"></g><g id="g-root-tx_optimize_18ko7se13r5p8u-stroke" data-item-order="0" transform="translate(146, 236)"></g><g id="g-root-tx_architec_8zmage13r5pmx-stroke" data-item-order="0" transform="translate(662, 272)"></g><g id="g-root-tx_evolvest_hydo4u13r5p8v-stroke" data-item-order="0" transform="translate(86, 350)"></g><g id="g-root-tx_refinepr_1ur59bi13r5q11-stroke" data-item-order="0" transform="translate(158, 200)"></g><g id="g-root-tx_balancer_1qa2t0u13r5on6-stroke" data-item-order="0" transform="translate(662, 332)"></g><g id="g-root-tx_implemen_vcc2um13qvvgu-stroke" data-item-order="0" transform="translate(368, 362)"></g><g id="g-root-tx_createin_7q4q613r5og8-stroke" data-item-order="0" transform="translate(86, 386)"></g><g id="g-root-tx_trackeng_dgoqr213r5r0s-stroke" data-item-order="0" transform="translate(494, 158)"></g><g id="g-root-tx_postoccu_zns9da13r5on7-stroke" data-item-order="0" transform="translate(494, 98)"></g><g id="g-root-tx_optimizi_93zm2613qvwg5-stroke" data-item-order="0" transform="translate(230, 38)"></g><g id="g-root-tx_promotes_qv9mjy13r5qma-stroke" data-item-order="0" transform="translate(614, 650)"></g><g id="g-root-tx_ineffect_1lr4xgu13r5o91-stroke" data-item-order="0" transform="translate(159, 590)"></g><g id="g-root-tx_datadriv_1q87dri13r5pmv-stroke" data-item-order="0" transform="translate(410.5, 590)"></g><g id="g-root-tx_optimize_18mjn1q13r5o95-stroke" data-item-order="0" transform="translate(620, 590)"></g><g id="g-root-tx_hindersc_m97dke13r5p1q-stroke" data-item-order="0" transform="translate(165, 650)"></g><g id="g-root-tx_analyzeh_zlwu3y13r5pmw-stroke" data-item-order="0" transform="translate(380.5, 650)"></g></g></g></svg>