<?xml version="1.0" encoding="utf-8" standalone="yes"?>
<!DOCTYPE svg PUBLIC "-//W3C//DTD SVG 1.1//EN" "http://www.w3.org/Graphics/SVG/1.1/DTD/svg11.dtd">
<svg style="fill:none;stroke:none;fill-rule:evenodd;clip-rule:evenodd;stroke-linecap:round;stroke-linejoin:round;stroke-miterlimit:1.5;" version="1.1" xmlns="http://www.w3.org/2000/svg" xmlns:xlink="http://www.w3.org/1999/xlink" width="708" height="540" viewBox="0 0 708 540"><style class="text-font-style fontImports" data-font-family="Roboto">@import url(https://fonts.googleapis.com/css2?family=Roboto:wght@400;700&amp;amp;display=block);</style><g id="items" style="isolation: isolate"><g id="blend" style="mix-blend-mode: normal"><g id="g-root-cp_0b_g-0b_1ulj5su12d0p35-fill" data-item-order="-293010" transform="translate(194, 158)"><g id="cp_0b_g-0b_1ulj5su12d0p35-fill-merged" stroke="none" fill="#666666" fill-opacity="1"><g><path d="M154 10 H166 V35.057C187.874 35.476 207.951 38.158 226 42.122 V22 H238 V45.014C262.48 51.445 282.705 60.04 298 67.927 V58 H310 V142 H297.945C297.982 141.338 298 140.671 298 140C298 120.118 281.882 104 262 104C242.118 104 226 120.118 226 140C226 140.671 226.018 141.338 226.055 142 H202C202 118.804 183.196 100 160 100C136.804 100 118 118.804 118 142 H93.945C93.982 141.338 94 140.671 94 140C94 120.118 77.882 104 58 104C38.118 104 22 120.118 22 140C22 140.671 22.018 141.338 22.055 142 H10 V58 H22 V67.764C36.614 60.008 57.113 51.407 82 44.965 V22 H94 V42.11C112.171 38.165 132.337 35.482 154 35.059 V10 M94 52.352C112.059 48.295 132.242 45.5 154 45.061 V67.06C132.291 67.491 112.117 70.229 94 74.229 V52.352 M166 45.059 V67.058C187.918 67.485 207.998 70.221 226 74.243 V52.369C208.048 48.286 187.964 45.494 166 45.059 M238 77.187 V55.366C263.043 62.185 283.313 71.286 298 79.237 V100.567C282.989 92.641 262.744 83.803 238 77.187 M22 79.173C35.617 71.42 56.247 62.21 82 55.306 V77.132C56.717 83.792 36.16 92.677 22 100.445 V79.173"></path></g></g></g><g id="g-root-cp_0a_g-0a_1lpw5jy12d0pvu-fill" data-item-order="-293005" transform="translate(194, 134)"></g><g id="g-root-ic_grap_13z8m5a12d239n-fill" data-item-order="-5184" transform="translate(62, 170)"><g id="ic_grap_13z8m5a12d239n-fill-merged" stroke="none" fill="#484848" fill-opacity="1"><g><path d="M40 10C41.657 10 43 11.343 43 13 V79C43 80.657 41.657 82 40 82C38.343 82 37 80.657 37 79 V13C37 11.343 38.343 10 40 10 M34 22C34 20.343 32.657 19 31 19C29.343 19 28 20.343 28 22 V70C28 71.657 29.343 73 31 73C32.657 73 34 71.657 34 70 V22 M22 28C23.657 28 25 29.343 25 31 V61C25 62.657 23.657 64 22 64C20.343 64 19 62.657 19 61 V31C19 29.343 20.343 28 22 28 M13 37C14.657 37 16 38.343 16 40 V52C16 53.657 14.657 55 13 55C11.343 55 10 53.657 10 52 V40C10 38.343 11.343 37 13 37 M52 22C52 20.343 50.657 19 49 19C47.343 19 46 20.343 46 22 V70C46 71.657 47.343 73 49 73C50.657 73 52 71.657 52 70 V22 M58 34C59.657 34 61 35.343 61 37 V43C61 44.657 59.657 46 58 46C56.343 46 55 44.657 55 43 V37C55 35.343 56.343 34 58 34 M82 61L58.558 58.987C53.815 58.579 53.815 51.421 58.558 51.013L82 49 V61"></path></g></g></g><g id="g-root-ic_inte_dcy2hq12d0p3c-fill" data-item-order="-5184" transform="translate(554, 170)"><g id="ic_inte_dcy2hq12d0p3c-fill-merged" stroke="none" fill="#484848" fill-opacity="1"><g><path d="M42.64 73 H13.27 V82 H40.72C40.737 78.9 41.39 75.837 42.64 73 M53.89 61.33C50.81 59.198 48.521 56.108 47.38 52.54 H18.52C17.283 52.544 16.175 53.306 15.73 54.46L10.3 67C10.06 67.503 10.085 68.093 10.368 68.574C10.65 69.055 11.153 69.365 11.71 69.4 H44.71C46.984 65.93 50.157 63.141 53.89 61.33 M48.19 40C45.239 37.434 41.451 36.036 37.54 36.07C30.228 36.091 23.836 41.008 21.94 48.07 H46.57C46.444 45.288 47 42.518 48.19 40 M39.79 44.05C39.79 45.293 38.783 46.3 37.54 46.3C36.297 46.3 35.29 45.293 35.29 44.05 V41.05C35.29 39.807 36.297 38.8 37.54 38.8C38.783 38.8 39.79 39.807 39.79 41.05 V44.05 M63.55 34.48C56.429 34.497 50.669 40.279 50.68 47.4C50.691 54.521 56.469 60.285 63.59 60.28C70.711 60.274 76.48 54.501 76.48 47.38C76.463 40.251 70.679 34.48 63.55 34.48 M63.55 55.78C58.918 55.764 55.166 52.012 55.15 47.38C55.147 45.66 55.682 43.981 56.68 42.58C60.379 47.038 65.888 49.594 71.68 49.54C70.7 53.224 67.362 55.786 63.55 55.78 M63.55 63.7C53.438 63.7 45.237 71.888 45.22 82 H82C82 77.12 80.052 72.443 76.587 69.007C73.123 65.57 68.429 63.66 63.55 63.7 M65.8 73C65.8 74.243 64.793 75.25 63.55 75.25C62.307 75.25 61.3 74.243 61.3 73 V69.43C61.3 68.187 62.307 67.18 63.55 67.18C64.793 67.18 65.8 68.187 65.8 69.43 V73 M37.54 10C31.095 10 25.87 15.225 25.87 21.67C25.87 28.115 31.095 33.34 37.54 33.34C43.985 33.34 49.21 28.115 49.21 21.67C49.21 15.225 43.985 10 37.54 10 M37.54 28.84C34.953 28.794 32.59 27.364 31.349 25.094C30.108 22.823 30.181 20.062 31.54 17.86C34.781 21.616 39.479 23.801 44.44 23.86C43.472 26.847 40.68 28.862 37.54 28.84"></path></g></g></g><g id="g-root-tx_cornellc_1lpw5jy12d0pvv-fill" data-item-order="0" transform="translate(14, 38)"><g id="tx_cornellc_1lpw5jy12d0pvv-fill-merged" stroke="none" fill="#484848" fill-opacity="1"><g><text style="font: bold 25px Roboto, sans-serif; white-space: pre;" transform="translate(340, 40)" font-weight="bold" font-size="25px" font-family="Roboto, sans-serif"><tspan x="-322.39" y="0" dominant-baseline="ideographic">Cornell Classroom Redesign: From Outdated to Engaging </tspan><tspan x="-96.56" y="30" dominant-baseline="ideographic">Learning Spaces</tspan></text></g></g></g><g id="g-root-tx_ineffect_18f249q12d0ob0-fill" data-item-order="0" transform="translate(38, 314)"><g id="tx_ineffect_18f249q12d0ob0-fill-merged" stroke="none" fill="#e0cb15" fill-opacity="1"><g><text style="font: bold 20px Roboto, sans-serif; white-space: pre;" transform="translate(70, 34)" font-weight="bold" font-size="20px" font-family="Roboto, sans-serif"><tspan x="-48.02" y="-0" dominant-baseline="ideographic">Ineffective </tspan><tspan x="-53.42" y="24" dominant-baseline="ideographic">Classrooms</tspan></text></g></g></g><g id="g-root-tx_enhanced_v3llwe12d0pvy-fill" data-item-order="0" transform="translate(536, 314)"><g id="tx_enhanced_v3llwe12d0pvy-fill-merged" stroke="none" fill="#3cc583" fill-opacity="1"><g><text style="font: bold 20px Roboto, sans-serif; white-space: pre;" transform="translate(64, 34)" font-weight="bold" font-size="20px" font-family="Roboto, sans-serif"><tspan x="-46.52" y="-0" dominant-baseline="ideographic">Enhanced </tspan><tspan x="-41.89" y="24" dominant-baseline="ideographic">Learning</tspan></text></g></g></g><g id="g-root-tx_acoustic_13z8m5a12d0p39-fill" data-item-order="0" transform="translate(32, 374)"><g id="tx_acoustic_13z8m5a12d0p39-fill-merged" stroke="none" fill="#484848" fill-opacity="1"><g><text style="font: 15px Roboto, sans-serif; white-space: pre;" transform="translate(76, 46)" font-size="15px" font-family="Roboto, sans-serif"><tspan x="-58.33" y="-18" dominant-baseline="ideographic">Acoustic, spatial, </tspan><tspan x="-51.86" y="0" dominant-baseline="ideographic">and ergonomic </tspan><tspan x="-60.54" y="18" dominant-baseline="ideographic">challenges hinder </tspan><tspan x="-30.58" y="36" dominant-baseline="ideographic">learning.</tspan></text></g></g></g><g id="g-root-tx_improved_hsrkm612d0ob3-fill" data-item-order="0" transform="translate(530, 374)"><g id="tx_improved_hsrkm612d0ob3-fill-merged" stroke="none" fill="#484848" fill-opacity="1"><g><text style="font: 15px Roboto, sans-serif; white-space: pre;" transform="translate(70, 64)" font-size="15px" font-family="Roboto, sans-serif"><tspan x="-33.17" y="-36" dominant-baseline="ideographic">Improved </tspan><tspan x="-44.18" y="-18" dominant-baseline="ideographic">functionality, </tspan><tspan x="-44.49" y="0" dominant-baseline="ideographic">comfort, and </tspan><tspan x="-46.15" y="18" dominant-baseline="ideographic">inclusivity for </tspan><tspan x="-56.47" y="36" dominant-baseline="ideographic">diverse teaching </tspan><tspan x="-23.39" y="54" dominant-baseline="ideographic">styles.</tspan></text></g></g></g><g id="g-root-cp_0b_g-0b_1ulj5su12d0p35-stroke" data-item-order="-293010" transform="translate(194, 158)"><g id="cp_0b_g-0b_1ulj5su12d0p35-stroke" fill="none" stroke-linecap="round" stroke-linejoin="round" stroke-miterlimit="4" stroke="#ffffff" stroke-width="2" stroke-opacity="1"><g><path d="M 154 10L 166 10L 166 35.0574C 187.8738 35.4763 207.9506 38.1584 226 42.122L 226 22L 238 22L 238 45.0143C 262.4798 51.4447 282.7046 60.0398 298 67.9273L 298 58L 310 58L 310 142L 297.9454 142C 297.9816 141.338 298 140.6711 298 140C 298 120.1178 281.8823 104 262 104C 242.1177 104 226 120.1178 226 140C 226 140.6711 226.0184 141.338 226.0546 142L 202 142C 202 118.804 183.196 100 160 100C 136.804 100 118 118.804 118 142L 93.9454 142C 93.9816 141.338 94 140.6711 94 140C 94 120.1178 77.8823 104 58 104C 38.1178 104 22 120.1178 22 140C 22 140.6711 22.0184 141.338 22.0546 142L 10 142L 10 58L 22 58L 22 67.7642C 36.6144 60.0078 57.1128 51.4073 82 44.9648L 82 22L 94 22L 94 42.1104C 112.1709 38.1653 132.3367 35.4818 154 35.0586L 154 10ZM 94 52.3516C 112.0591 48.2951 132.2422 45.5 154 45.0606L 154 67.0596C 132.2907 67.4907 112.1165 70.2288 94 74.229L 94 52.3516ZM 166 45.0593L 166 67.0583C 187.918 67.485 207.9982 70.2209 226 74.2434L 226 52.369C 208.0482 48.286 187.9644 45.494 166 45.0593ZM 238 77.1869L 238 55.3658C 263.0431 62.185 283.3128 71.2859 298 79.2367L 298 100.567C 282.9894 92.6405 262.7439 83.8034 238 77.1869ZM 22 79.1727C 35.6173 71.4195 56.2469 62.2099 82 55.3061L 82 77.1325C 56.717 83.7917 36.1597 92.6772 22 100.4453L 22 79.1727Z"></path></g></g></g><g id="g-root-cp_0a_g-0a_1lpw5jy12d0pvu-stroke" data-item-order="-293005" transform="translate(194, 134)"><g id="cp_0a_g-0a_1lpw5jy12d0pvu-stroke" fill="none" stroke-linecap="round" stroke-linejoin="round" stroke-miterlimit="4" stroke="#484848" stroke-width="2" stroke-dasharray="5.0, 7.0" stroke-opacity="1"><g><path d="M 10 46C 113.1562 -6.1345 219.8007 2.3203 310 46"></path></g></g></g><g id="g-root-ic_grap_13z8m5a12d239n-stroke" data-item-order="-5184" transform="translate(62, 170)"></g><g id="g-root-ic_inte_dcy2hq12d0p3c-stroke" data-item-order="-5184" transform="translate(554, 170)"></g><g id="g-root-tx_cornellc_1lpw5jy12d0pvv-stroke" data-item-order="0" transform="translate(14, 38)"></g><g id="g-root-tx_ineffect_18f249q12d0ob0-stroke" data-item-order="0" transform="translate(38, 314)"></g><g id="g-root-tx_enhanced_v3llwe12d0pvy-stroke" data-item-order="0" transform="translate(536, 314)"></g><g id="g-root-tx_acoustic_13z8m5a12d0p39-stroke" data-item-order="0" transform="translate(32, 374)"></g><g id="g-root-tx_improved_hsrkm612d0ob3-stroke" data-item-order="0" transform="translate(530, 374)"></g></g></g></svg>