<?xml version="1.0" encoding="utf-8" standalone="yes"?>
<!DOCTYPE svg PUBLIC "-//W3C//DTD SVG 1.1//EN" "http://www.w3.org/Graphics/SVG/1.1/DTD/svg11.dtd">
<svg style="fill:none;stroke:none;fill-rule:evenodd;clip-rule:evenodd;stroke-linecap:round;stroke-linejoin:round;stroke-miterlimit:1.5;" version="1.1" xmlns="http://www.w3.org/2000/svg" xmlns:xlink="http://www.w3.org/1999/xlink" width="816" height="732" viewBox="0 0 816 732"><style class="text-font-style fontImports" data-font-family="Roboto">@import url(https://fonts.googleapis.com/css2?family=Roboto:wght@400;700&amp;amp;display=block);</style><g id="items" style="isolation: isolate"><g id="blend" style="mix-blend-mode: normal"><g id="g-root-cp_0_g-0_13zvcq611tflze-fill" data-item-order="-479197" transform="translate(230, 206)"></g><g id="g-root-cp_1_g-1_zkobou11tfjlv-fill" data-item-order="-479194" transform="translate(230, 206)"><g id="cp_1_g-1_zkobou11tfjlv-fill-merged" stroke="none" fill="#92bd39" fill-opacity="1"><g><path d="M141.78 122.142C149.497 110.673 154 96.862 154 82C154 42.236 121.765 10 82 10C42.236 10 10 42.236 10 82C10 121.765 42.236 154 82 154C96.301 154 109.628 149.831 120.832 142.641L154 154L141.78 122.142"></path></g></g></g><g id="g-root-cp_3_g-3_zkobou11tfjlw-fill" data-item-order="-479190" transform="translate(230, 398)"><g id="cp_3_g-3_zkobou11tfjlw-fill-merged" stroke="none" fill="#e0cb15" fill-opacity="1"><g><path d="M141.78 41.858C149.497 53.327 154 67.138 154 82C154 121.765 121.765 154 82 154C42.236 154 10 121.765 10 82C10 42.236 42.236 10 82 10C96.301 10 109.628 14.169 120.832 21.359L154 10L141.78 41.858"></path></g></g></g><g id="g-root-cp_2_g-2_qp1bfy11tfkel-fill" data-item-order="-479186" transform="translate(422, 206)"><g id="cp_2_g-2_qp1bfy11tfkel-fill-merged" stroke="none" fill="#3cc583" fill-opacity="1"><g><path d="M22.22 122.142C14.503 110.673 10 96.862 10 82C10 42.236 42.236 10 82 10C121.765 10 154 42.236 154 82C154 121.765 121.765 154 82 154C67.699 154 54.372 149.831 43.168 142.641L10 154L22.22 122.142"></path></g></g></g><g id="g-root-cp_4_g-4_m97tbi11tfl6u-fill" data-item-order="-479182" transform="translate(422, 398)"><g id="cp_4_g-4_m97tbi11tfl6u-fill-merged" stroke="none" fill="#de8431" fill-opacity="1"><g><path d="M22.22 41.858C14.503 53.327 10 67.138 10 82C10 121.765 42.236 154 82 154C121.765 154 154 121.765 154 82C154 42.236 121.765 10 82 10C67.699 10 54.372 14.169 43.168 21.359L10 10L22.22 41.858"></path></g></g></g><g id="g-root-ic_lear_1lu9qni11tfksu-fill" data-item-order="-5184" transform="translate(266, 242)"><g id="ic_lear_1lu9qni11tfksu-fill-merged" stroke="none" fill="#ffffff" fill-opacity="1"><g><path d="M58 10 H76C76 10 80.5 10 80.5 14.5 V17.5C80.5 17.5 80.5 22 76 22 H58C58 22 53.5 22 53.5 17.5 V14.5C53.5 14.5 53.5 10 58 10 M22.75 25.63C22.75 30.186 26.444 33.88 31 33.88C35.556 33.88 39.25 30.186 39.25 25.63C39.25 21.074 35.556 17.38 31 17.38C26.444 17.38 22.75 21.074 22.75 25.63 M44.68 31.93L42.52 33.64C39.873 35.792 36.571 36.977 33.16 37 H25.69C22.276 36.999 18.963 38.163 16.3 40.3L11.68 43.93C9.742 45.488 9.433 48.321 10.99 50.26C12.548 52.198 15.381 52.507 17.32 50.95L23.59 46 H26.59 V56.95L21.31 67.27L14.56 74.02C12.806 75.694 12.587 78.417 14.05 80.35C14.908 81.372 16.166 81.974 17.5 82C18.692 81.996 19.835 81.521 20.68 80.68L28.18 73C28.529 72.664 28.813 72.268 29.02 71.83L33.01 64L38.8 67L40 77.95C40.232 80.258 42.18 82.012 44.5 82 H45.31C47.718 81.601 49.36 79.344 49 76.93L47.5 63.43C47.336 61.915 46.408 60.591 45.04 59.92L35.5 55.15 V46 H36.31C39.724 46.001 43.037 44.837 45.7 42.7L50.32 39.01C52.259 37.453 52.568 34.618 51.01 32.68C49.453 30.741 46.618 30.432 44.68 31.99 V31.93 M81.34 53.59C80.591 52.119 78.795 51.529 77.32 52.27C70.821 55.51 63.179 55.51 56.68 52.27C55.205 51.529 53.409 52.119 52.66 53.59C51.924 55.073 52.528 56.872 54.01 57.61C62.189 61.69 71.811 61.69 79.99 57.61C81.472 56.872 82.076 55.073 81.34 53.59 M56.29 41.53C55.52 42.996 56.084 44.809 57.55 45.58C63.454 48.737 70.546 48.737 76.45 45.58C77.874 44.788 78.406 43.005 77.648 41.562C76.891 40.12 75.12 39.546 73.66 40.27C69.497 42.489 64.503 42.489 60.34 40.27C58.874 39.5 57.061 40.064 56.29 41.53 M67 35.23C69.12 35.2 71.193 34.599 73 33.49C74.113 33.064 74.869 32.02 74.925 30.83C74.982 29.64 74.328 28.529 73.26 28C72.193 27.471 70.913 27.624 70 28.39C68.168 29.549 65.832 29.549 64 28.39C63.087 27.624 61.807 27.471 60.74 28C59.672 28.529 59.018 29.64 59.075 30.83C59.131 32.02 59.887 33.064 61 33.49C62.807 34.599 64.88 35.2 67 35.23"></path></g></g></g><g id="g-root-ic_lock_18hka3y11tgydk-fill" data-item-order="-5184" transform="translate(458, 242)"><g id="ic_lock_18hka3y11tgydk-fill-merged" stroke="none" fill="#ffffff" fill-opacity="1"><g><path d="M81.34 13.99C80.921 13.717 80.397 13.661 79.93 13.84L70.57 16.27C70.232 16.342 69.992 16.644 70 16.99 V46.51C70.014 46.848 70.244 47.139 70.57 47.23L79.78 49.72C80.267 49.981 80.853 49.981 81.34 49.72C81.754 49.434 82 48.963 82 48.46 V15.46C82.077 14.884 81.821 14.315 81.34 13.99 M65.5 15.25 H41.5C41.086 15.25 40.75 15.586 40.75 16 V43.75C40.75 44.164 41.086 44.5 41.5 44.5 H66.25C66.664 44.5 67 44.164 67 43.75 V16.75C67 15.922 66.328 15.25 65.5 15.25 M49.75 39.25C49.75 40.493 48.743 41.5 47.5 41.5C46.257 41.5 45.25 40.493 45.25 39.25 V27.25C45.25 26.007 46.257 25 47.5 25C48.743 25 49.75 26.007 49.75 27.25 V39.25 M62.11 41.11C61.041 41.619 59.76 41.26 59.11 40.27L53.11 29.77C52.605 28.706 53.006 27.432 54.03 26.85C55.053 26.267 56.353 26.572 57.01 27.55L63.01 38.05C63.306 38.573 63.378 39.194 63.208 39.771C63.039 40.347 62.642 40.831 62.11 41.11 M35.5 49 H10.75C10.336 49 10 49.336 10 49.75 V73.75C10 76.235 12.015 78.25 14.5 78.25 H35.5C35.914 78.25 36.25 77.914 36.25 77.5 V49.75C36.25 49.336 35.914 49 35.5 49 M29.5 73.75C27.843 73.75 26.5 72.407 26.5 70.75C26.5 69.093 27.843 67.75 29.5 67.75C31.157 67.75 32.5 69.093 32.5 70.75C32.5 72.407 31.157 73.75 29.5 73.75 M35.5 15.25 H14.5C12.015 15.25 10 17.265 10 19.75 V43.75C10 44.164 10.336 44.5 10.75 44.5 H35.5C35.914 44.5 36.25 44.164 36.25 43.75 V16C36.25 15.586 35.914 15.25 35.5 15.25 M29.5 40.75C27.843 40.75 26.5 39.407 26.5 37.75C26.5 36.093 27.843 34.75 29.5 34.75C31.157 34.75 32.5 36.093 32.5 37.75C32.5 39.407 31.157 40.75 29.5 40.75 M66.25 49 H41.5C41.086 49 40.75 49.336 40.75 49.75 V77.5C40.75 77.914 41.086 78.25 41.5 78.25 H62.5C64.985 78.25 67 76.235 67 73.75 V49.75C67 49.336 66.664 49 66.25 49 M59.5 73.75C57.843 73.75 56.5 72.407 56.5 70.75C56.5 69.093 57.843 67.75 59.5 67.75C61.157 67.75 62.5 69.093 62.5 70.75C62.5 72.407 61.157 73.75 59.5 73.75"></path></g></g></g><g id="g-root-ic_blin_mg319q11tgxs2-fill" data-item-order="-5184" transform="translate(266, 434)"><g id="ic_blin_mg319q11tgxs2-fill-merged" stroke="none" fill="#ffffff" fill-opacity="1"><g><path d="M39.19 41.38C42.978 46.828 49.118 50.165 55.75 50.38C62.382 50.165 68.522 46.828 72.31 41.38C73.24 40.112 73.24 38.388 72.31 37.12C68.522 31.672 62.382 28.335 55.75 28.12C49.14 28.308 43.004 31.598 39.19 37C38.2 38.292 38.2 40.088 39.19 41.38 M64.33 35.38C65.478 36.216 66.534 37.171 67.48 38.23C67.977 38.796 67.977 39.644 67.48 40.21C64.592 43.746 60.314 45.858 55.75 46C55.221 46.046 54.689 46.046 54.16 46C53.873 45.98 53.625 45.792 53.53 45.52C53.435 45.247 53.505 44.944 53.71 44.74L62.38 35.74C62.855 35.156 63.689 35.015 64.33 35.41 M44.02 38.23C46.92 34.716 51.196 32.627 55.75 32.5C56.279 32.454 56.811 32.454 57.34 32.5C57.672 32.523 57.945 32.771 58 33.1C58.095 33.373 58.025 33.676 57.82 33.88L49 43C48.484 43.535 47.655 43.611 47.05 43.18C45.902 42.344 44.846 41.389 43.9 40.33C43.38 39.719 43.433 38.807 44.02 38.26 M73 10 H47.5C45.843 10 44.5 11.343 44.5 13C44.5 14.657 45.843 16 47.5 16 H73C74.657 16 76 17.343 76 19 V58C76 59.657 74.657 61 73 61 H55C53.343 61 52 62.343 52 64C52 65.657 53.343 67 55 67 H73C77.971 67 82 62.971 82 58 V19C82 14.029 77.971 10 73 10 M43 50.5C41.343 50.5 40 51.843 40 53.5 V57.25C40 58.078 39.328 58.75 38.5 58.75 H17.5C16.672 58.75 16 58.078 16 57.25 V51.25C16.028 46.185 19.233 41.684 24.01 40C24.214 39.882 24.466 39.882 24.67 40C24.874 40.132 24.998 40.357 25 40.6 V51.22C25 52.877 26.343 54.22 28 54.22C29.657 54.22 31 52.877 31 51.22 V37.78C30.996 37.122 31.422 36.538 32.05 36.34C37.967 34.518 41.88 28.897 41.535 22.715C41.189 16.534 36.675 11.383 30.591 10.232C24.508 9.08 18.423 12.223 15.842 17.851C13.261 23.479 14.848 30.141 19.69 34C19.888 34.148 20 34.383 19.99 34.63C19.964 34.889 19.805 35.117 19.57 35.23C13.645 38.37 9.957 44.544 10 51.25 V61.75C10 63.407 11.343 64.75 13 64.75 H16.36C17.144 64.747 17.797 65.349 17.86 66.13L19 79.93C19.108 81.095 20.08 81.99 21.25 82 H34.75C35.92 81.99 36.892 81.095 37 79.93L38.14 66.13C38.203 65.349 38.856 64.747 39.64 64.75 H43C44.657 64.75 46 63.407 46 61.75 V53.5C46 51.843 44.657 50.5 43 50.5 M20.8 21.46C20.849 21.232 21.006 21.042 21.22 20.95C21.431 20.86 21.669 20.86 21.88 20.95C24.633 22.61 27.785 23.491 31 23.5C32.198 23.487 33.393 23.367 34.57 23.14C34.768 23.039 35.002 23.039 35.2 23.14C35.378 23.288 35.477 23.509 35.47 23.74C35.362 27.882 31.917 31.153 27.775 31.045C23.633 30.937 20.362 27.492 20.47 23.35C20.485 22.707 20.596 22.07 20.8 21.46"></path></g></g></g><g id="g-root-ic_high_1heg8j211tid59-fill" data-item-order="-5184" transform="translate(458, 434)"><g id="ic_high_1heg8j211tid59-fill-merged" stroke="none" fill="#ffffff" fill-opacity="1"><g><path d="M37.57 35.02L32.5 39.07 H29.5C27.843 39.07 26.5 40.413 26.5 42.07 V48.07C26.5 49.727 27.843 51.07 29.5 51.07 H32.5L37.57 55C38.02 55.356 38.634 55.424 39.151 55.175C39.668 54.926 39.997 54.404 40 53.83 V36.19C39.997 35.616 39.668 35.094 39.151 34.845C38.634 34.596 38.02 34.664 37.57 35.02 M48.4 38.2C47.839 37.598 46.994 37.35 46.197 37.554C45.4 37.757 44.777 38.38 44.574 39.177C44.37 39.974 44.618 40.819 45.22 41.38C47.261 43.429 47.261 46.741 45.22 48.79C44.791 49.208 44.549 49.781 44.549 50.38C44.549 50.979 44.791 51.552 45.22 51.97C46.098 52.847 47.522 52.847 48.4 51.97C52.195 48.165 52.195 42.005 48.4 38.2 M55 32.89C54.582 32.461 54.009 32.219 53.41 32.219C52.811 32.219 52.238 32.461 51.82 32.89C50.943 33.768 50.943 35.192 51.82 36.07C56.778 41.046 56.778 49.094 51.82 54.07C50.933 54.948 50.926 56.379 51.805 57.265C52.683 58.152 54.114 58.158 55 57.28C61.717 50.537 61.717 39.633 55 32.89 M58.81 27.58C57.933 28.458 57.933 29.882 58.81 30.76C66.726 38.67 66.726 51.5 58.81 59.41C58.208 59.971 57.96 60.816 58.164 61.613C58.367 62.41 58.99 63.033 59.787 63.236C60.584 63.44 61.429 63.192 61.99 62.59C71.644 52.917 71.644 37.253 61.99 27.58C61.112 26.703 59.688 26.703 58.81 27.58 M80.14 11.68C78.983 10.564 77.427 9.959 75.82 10C61 10.57 52.39 14.98 47.83 18.46C46.757 19.275 45.273 19.275 44.2 18.46C39.61 14.98 31 10.57 16.18 10C14.573 9.959 13.017 10.564 11.86 11.68C10.678 12.807 10.006 14.367 10 16 V64.66C10 67.974 12.686 70.66 16 70.66C25.69 70.99 37.42 73.42 43.66 80.83C44.276 81.569 45.188 81.997 46.15 81.997C47.112 81.997 48.024 81.569 48.64 80.83C54.88 73.42 66.64 70.99 76.3 70.66C79.555 70.579 82.151 67.916 82.15 64.66 V16C82.105 14.344 81.378 12.781 80.14 11.68 M76 63.22C75.987 64.009 75.376 64.658 74.59 64.72C60.58 65.47 52.3 69.73 47.89 73.09C46.817 73.905 45.333 73.905 44.26 73.09C39.82 69.73 31.54 65.47 17.53 64.72C16.744 64.658 16.133 64.009 16.12 63.22L16 17.59C16.004 17.171 16.177 16.77 16.48 16.48C16.766 16.171 17.169 15.997 17.59 16C32.59 16.87 39.64 22 42.28 24.61C43.78 26.02 44.11 27.28 46 27.28C47.89 27.28 48.22 26.02 49.72 24.61C52.36 22.09 59.56 16.87 74.41 16C74.818 15.973 75.219 16.114 75.52 16.39C75.823 16.68 75.996 17.081 76 17.5 V63.22"></path></g></g></g><g id="g-root-tx_2_4m71q11tfjf1-fill" data-item-order="0" transform="translate(614, 146)"><g id="tx_2_4m71q11tfjf1-fill-merged" stroke="none" fill="#3cc583" fill-opacity="1"><g><text style="font: bold 25px Roboto, sans-serif; white-space: pre;" transform="translate(22, 28)" font-weight="bold" font-size="25px" font-family="Roboto, sans-serif"><tspan x="-7.17" y="15" dominant-baseline="ideographic">2</tspan></text></g></g></g><g id="g-root-tx_1_141qrzi11tfkzu-fill" data-item-order="0" transform="translate(134, 146)"><g id="tx_1_141qrzi11tfkzu-fill-merged" stroke="none" fill="#92bd39" fill-opacity="1"><g><text style="font: bold 25px Roboto, sans-serif; white-space: pre;" transform="translate(22, 28)" font-weight="bold" font-size="25px" font-family="Roboto, sans-serif"><tspan x="-7.17" y="15" dominant-baseline="ideographic">1</tspan></text></g></g></g><g id="g-root-tx_signific_1ltn9ke11tjtos-fill" data-item-order="0" transform="translate(614, 530)"><g id="tx_signific_1ltn9ke11tjtos-fill-merged" stroke="none" fill="#484848" fill-opacity="1"><g><text style="font: 15px Roboto, sans-serif; white-space: pre;" transform="translate(10, 46)" font-size="15px" font-family="Roboto, sans-serif"><tspan x="2" y="-9" dominant-baseline="ideographic">Bad acoustics </tspan><tspan x="2" y="9" dominant-baseline="ideographic">Significantly impacts </tspan><tspan x="2" y="27" dominant-baseline="ideographic">instruction negatively .</tspan></text></g></g></g><g id="g-root-tx_adequate_1uo1bn211tfkzs-fill" data-item-order="0" transform="translate(74, 206)"><g id="tx_adequate_1uo1bn211tfkzs-fill-merged" stroke="none" fill="#92bd39" fill-opacity="1"><g><text style="font: bold 20px Roboto, sans-serif; white-space: pre;" transform="translate(118, 34)" font-weight="bold" font-size="20px" font-family="Roboto, sans-serif"><tspan x="-102.58" y="-0" dominant-baseline="ideographic">Inadequate </tspan><tspan x="-76.73" y="24" dominant-baseline="ideographic">Comfort</tspan></text></g></g></g><g id="g-root-tx_optimall_qqwqpa11tfjez-fill" data-item-order="0" transform="translate(614, 206)"><g id="tx_optimall_qqwqpa11tfjez-fill-merged" stroke="none" fill="#3cc583" fill-opacity="1"><g><text style="font: bold 20px Roboto, sans-serif; white-space: pre;" transform="translate(10, 22)" font-weight="bold" font-size="20px" font-family="Roboto, sans-serif"><tspan x="2" y="12" dominant-baseline="ideographic">Dim Lighting</tspan></text></g></g></g><g id="g-root-tx_enhances_dfg8by11tfkzw-fill" data-item-order="0" transform="translate(614, 242)"><g id="tx_enhances_dfg8by11tfkzw-fill-merged" stroke="none" fill="#484848" fill-opacity="1"><g><text style="font: 15px Roboto, sans-serif; white-space: pre;" transform="translate(10, 46)" font-size="15px" font-family="Roboto, sans-serif"><tspan x="2" y="-18" dominant-baseline="ideographic">Current lighting do </tspan><tspan x="2" y="0" dominant-baseline="ideographic">not support clear </tspan><tspan x="2" y="18" dominant-baseline="ideographic">visibility to see front </tspan><tspan x="2" y="36" dominant-baseline="ideographic">of classroom.</tspan></text></g></g></g><g id="g-root-tx_provides_1hd7acu11tfjex-fill" data-item-order="0" transform="translate(38, 266)"><g id="tx_provides_1hd7acu11tfjex-fill-merged" stroke="none" fill="#484848" fill-opacity="1"><g><text style="font: 15px Roboto, sans-serif; white-space: pre;" transform="translate(154, 40)" font-size="15px" font-family="Roboto, sans-serif"><tspan x="-118.72" y="-9" dominant-baseline="ideographic">Classroom chairs </tspan><tspan x="-136.92" y="9" dominant-baseline="ideographic">provides inadequate </tspan><tspan x="-55.69" y="27" dominant-baseline="ideographic">comfort</tspan></text></g></g></g><g id="g-root-tx_classroo_ddkt2m11tflzj-fill" data-item-order="0" transform="translate(152, 38)"><g id="tx_classroo_ddkt2m11tflzj-fill-merged" stroke="none" fill="#484848" fill-opacity="1"><g><text style="font: bold 25px Roboto, sans-serif; white-space: pre;" transform="translate(256, 28)" font-weight="bold" font-size="25px" font-family="Roboto, sans-serif"><tspan x="-240.97" y="15" dominant-baseline="ideographic">Classroom Condition Impact on Instruction</tspan></text></g></g></g><g id="g-root-tx_3_magrhq11tjt36-fill" data-item-order="0" transform="translate(134, 410)"><g id="tx_3_magrhq11tjt36-fill-merged" stroke="none" fill="#e0cb15" fill-opacity="1"><g><text style="font: bold 25px Roboto, sans-serif; white-space: pre;" transform="translate(22, 28)" font-weight="bold" font-size="25px" font-family="Roboto, sans-serif"><tspan x="-7.17" y="15" dominant-baseline="ideographic">3</tspan></text></g></g></g><g id="g-root-tx_4_18it8a611tjs3x-fill" data-item-order="0" transform="translate(614, 410)"><g id="tx_4_18it8a611tjs3x-fill-merged" stroke="none" fill="#de8431" fill-opacity="1"><g><text style="font: bold 25px Roboto, sans-serif; white-space: pre;" transform="translate(22, 28)" font-weight="bold" font-size="25px" font-family="Roboto, sans-serif"><tspan x="-7.17" y="15" dominant-baseline="ideographic">4</tspan></text></g></g></g><g id="g-root-tx_poorvisi_1hckt9q11tjsaw-fill" data-item-order="0" transform="translate(50, 470)"><g id="tx_poorvisi_1hckt9q11tjsaw-fill-merged" stroke="none" fill="#e0cb15" fill-opacity="1"><g><text style="font: bold 20px Roboto, sans-serif; white-space: pre;" transform="translate(142, 22)" font-weight="bold" font-size="20px" font-family="Roboto, sans-serif"><tspan x="-127.53" y="12" dominant-baseline="ideographic">Poor Visibility</tspan></text></g></g></g><g id="g-root-tx_suboptim_8zmq7i11tjrib-fill" data-item-order="0" transform="translate(614, 470)"><g id="tx_suboptim_8zmq7i11tjrib-fill-merged" stroke="none" fill="#de8431" fill-opacity="1"><g><text style="font: bold 20px Roboto, sans-serif; white-space: pre;" transform="translate(10, 34)" font-weight="bold" font-size="20px" font-family="Roboto, sans-serif"><tspan x="2" y="-0" dominant-baseline="ideographic">Unclear </tspan><tspan x="2" y="24" dominant-baseline="ideographic">Acoustics</tspan></text></g></g></g><g id="g-root-tx_hindersi_zlx9v211tjri9-fill" data-item-order="0" transform="translate(38, 506)"><g id="tx_hindersi_zlx9v211tjri9-fill-merged" stroke="none" fill="#484848" fill-opacity="1"><g><text style="font: 15px Roboto, sans-serif; white-space: pre;" transform="translate(154, 58)" font-size="15px" font-family="Roboto, sans-serif"><tspan x="-128.77" y="-27" dominant-baseline="ideographic">Hinders instruction </tspan><tspan x="-139.82" y="-9" dominant-baseline="ideographic">with low satisfaction </tspan><tspan x="-135.45" y="9" dominant-baseline="ideographic">due to poor visibility </tspan><tspan x="-135.28" y="27" dominant-baseline="ideographic">to see the professor </tspan><tspan x="-113.8" y="45" dominant-baseline="ideographic">from back seats.</tspan></text></g></g></g><g id="g-root-cp_0_g-0_13zvcq611tflze-stroke" data-item-order="-479197" transform="translate(230, 206)"><g id="cp_0_g-0_13zvcq611tflze-stroke" fill="none" stroke-linecap="round" stroke-linejoin="round" stroke-miterlimit="4" stroke="#484848" stroke-width="2" stroke-opacity="1"><g><path d="M 178 10L 178 346M 10 177.9999L 346 178"></path></g></g></g><g id="g-root-cp_1_g-1_zkobou11tfjlv-stroke" data-item-order="-479194" transform="translate(230, 206)"><g id="cp_1_g-1_zkobou11tfjlv-stroke" fill="none" stroke-linecap="round" stroke-linejoin="round" stroke-miterlimit="4" stroke="#ffffff" stroke-width="2" stroke-opacity="1"><g><path d="M 141.7804 122.1418C 149.4968 110.673 154 96.8624 154 82C 154 42.2355 121.7645 10 82 10C 42.2355 10 10 42.2355 10 82C 10 121.7645 42.2355 154 82 154C 96.3009 154 109.628 149.8306 120.8321 142.6411L 154 154L 141.7804 122.1418Z"></path></g></g></g><g id="g-root-cp_3_g-3_zkobou11tfjlw-stroke" data-item-order="-479190" transform="translate(230, 398)"><g id="cp_3_g-3_zkobou11tfjlw-stroke" fill="none" stroke-linecap="round" stroke-linejoin="round" stroke-miterlimit="4" stroke="#ffffff" stroke-width="2" stroke-opacity="1"><g><path d="M 141.7804 41.8582C 149.4968 53.327 154 67.1376 154 82C 154 121.7645 121.7645 154 82 154C 42.2355 154 10 121.7645 10 82C 10 42.2355 42.2355 10 82 10C 96.3009 10 109.628 14.1694 120.8321 21.3589L 154 10L 141.7804 41.8582Z"></path></g></g></g><g id="g-root-cp_2_g-2_qp1bfy11tfkel-stroke" data-item-order="-479186" transform="translate(422, 206)"><g id="cp_2_g-2_qp1bfy11tfkel-stroke" fill="none" stroke-linecap="round" stroke-linejoin="round" stroke-miterlimit="4" stroke="#ffffff" stroke-width="2" stroke-opacity="1"><g><path d="M 22.2196 122.1418C 14.5032 110.673 10 96.8624 10 82C 10 42.2355 42.2355 10 82 10C 121.7645 10 154 42.2355 154 82C 154 121.7645 121.7645 154 82 154C 67.6991 154 54.372 149.8306 43.1679 142.6411L 10 154L 22.2196 122.1418Z"></path></g></g></g><g id="g-root-cp_4_g-4_m97tbi11tfl6u-stroke" data-item-order="-479182" transform="translate(422, 398)"><g id="cp_4_g-4_m97tbi11tfl6u-stroke" fill="none" stroke-linecap="round" stroke-linejoin="round" stroke-miterlimit="4" stroke="#ffffff" stroke-width="2" stroke-opacity="1"><g><path d="M 22.2196 41.8582C 14.5032 53.327 10 67.1376 10 82C 10 121.7645 42.2355 154 82 154C 121.7645 154 154 121.7645 154 82C 154 42.2355 121.7645 10 82 10C 67.6991 10 54.372 14.1694 43.1679 21.3589L 10 10L 22.2196 41.8582Z"></path></g></g></g><g id="g-root-ic_lear_1lu9qni11tfksu-stroke" data-item-order="-5184" transform="translate(266, 242)"></g><g id="g-root-ic_lock_18hka3y11tgydk-stroke" data-item-order="-5184" transform="translate(458, 242)"></g><g id="g-root-ic_blin_mg319q11tgxs2-stroke" data-item-order="-5184" transform="translate(266, 434)"></g><g id="g-root-ic_high_1heg8j211tid59-stroke" data-item-order="-5184" transform="translate(458, 434)"></g><g id="g-root-tx_2_4m71q11tfjf1-stroke" data-item-order="0" transform="translate(614, 146)"></g><g id="g-root-tx_1_141qrzi11tfkzu-stroke" data-item-order="0" transform="translate(134, 146)"></g><g id="g-root-tx_signific_1ltn9ke11tjtos-stroke" data-item-order="0" transform="translate(614, 530)"></g><g id="g-root-tx_adequate_1uo1bn211tfkzs-stroke" data-item-order="0" transform="translate(74, 206)"></g><g id="g-root-tx_optimall_qqwqpa11tfjez-stroke" data-item-order="0" transform="translate(614, 206)"></g><g id="g-root-tx_enhances_dfg8by11tfkzw-stroke" data-item-order="0" transform="translate(614, 242)"></g><g id="g-root-tx_provides_1hd7acu11tfjex-stroke" data-item-order="0" transform="translate(38, 266)"></g><g id="g-root-tx_classroo_ddkt2m11tflzj-stroke" data-item-order="0" transform="translate(152, 38)"></g><g id="g-root-tx_3_magrhq11tjt36-stroke" data-item-order="0" transform="translate(134, 410)"></g><g id="g-root-tx_4_18it8a611tjs3x-stroke" data-item-order="0" transform="translate(614, 410)"></g><g id="g-root-tx_poorvisi_1hckt9q11tjsaw-stroke" data-item-order="0" transform="translate(50, 470)"></g><g id="g-root-tx_suboptim_8zmq7i11tjrib-stroke" data-item-order="0" transform="translate(614, 470)"></g><g id="g-root-tx_hindersi_zlx9v211tjri9-stroke" data-item-order="0" transform="translate(38, 506)"></g></g></g></svg>