<?xml version="1.0" encoding="utf-8" standalone="yes"?>
<!DOCTYPE svg PUBLIC "-//W3C//DTD SVG 1.1//EN" "http://www.w3.org/Graphics/SVG/1.1/DTD/svg11.dtd">
<svg style="fill:none;stroke:none;fill-rule:evenodd;clip-rule:evenodd;stroke-linecap:round;stroke-linejoin:round;stroke-miterlimit:1.5;" version="1.1" xmlns="http://www.w3.org/2000/svg" xmlns:xlink="http://www.w3.org/1999/xlink" width="642" height="768" viewBox="0 0 642 768"><style class="text-font-style fontImports" data-font-family="Roboto">@import url(https://fonts.googleapis.com/css2?family=Roboto:wght@400;700&amp;amp;display=block);</style><g id="items" style="isolation: isolate"><g id="blend" style="mix-blend-mode: normal"><g id="g-root-cp_1_shape-1_1qbyo32119ar5z-fill" data-item-order="-399156" transform="translate(31.999969482421875, 139.81640625)"><g id="cp_1_shape-1_1qbyo32119ar5z-fill-merged" stroke="none" fill="#3cc583" fill-opacity="1"><g><path d="M10 160.184C10 140.302 26.118 124.505 46 124.505 H172C213.07 124.505 238 94.374 238 55.034 V28.374 H233.32C232.54 28.374 232.05 27.524 232.44 26.844L243.163 10.632C243.559 10.033 244.439 10.034 244.833 10.635L255.48 26.844C255.88 27.525 255.39 28.375 254.6 28.375 H250 V316.184C250 336.066 233.882 352.184 214 352.184 H46C26.118 352.184 10 336.081 10 316.199 V160.184"></path></g></g></g><g id="g-root-cp_3_shape-3_1lw55ym119ary8-fill" data-item-order="-399142" transform="translate(284.302734375, 140)"><g id="cp_3_shape-3_1lw55ym119ary8-fill-merged" stroke="none" fill="#1eabda" fill-opacity="1"><g><path d="M15.697 28.191 H11.017C10.237 28.191 9.747 27.341 10.137 26.661L20.86 10.448C21.256 9.849 22.136 9.851 22.53 10.451L33.177 26.661C33.577 27.341 33.087 28.191 32.297 28.191 H27.697 V316 H15.697 V28.191"></path></g></g></g><g id="g-root-cp_3_shape-3_1_1d0i5pq119asqx-fill" data-item-order="-399132" transform="translate(32, 446)"><g id="cp_3_shape-3_1_1d0i5pq119asqx-fill-merged" stroke="none" fill="#1eabda" fill-opacity="1"><g><path d="M214 64.321C244 64.321 268 46 268 10 H280 V100.305 H10C10 80.423 26.118 64.321 46 64.321 H214"></path></g></g></g><g id="g-root-cp_3_shape-3_2_1d0i5pq119asqy-fill" data-item-order="-399114" transform="translate(32, 536)"><g id="cp_3_shape-3_2_1d0i5pq119asqy-fill-merged" stroke="none" fill="#1eabda" fill-opacity="1"><g><path d="M280 118.008C280 137.89 263.882 154.008 244 154.008 H46C26.118 154.008 10 137.906 10 118.023 V10 H280 V117.982"></path></g></g></g><g id="g-root-cp_2_shape-2_18lb4oe119aqdf-fill" data-item-order="-399088" transform="translate(344.3775634765625, 139.81640625)"><g id="cp_2_shape-2_18lb4oe119aqdf-fill-merged" stroke="none" fill="#92bd39" fill-opacity="1"><g><path d="M255.622 160.184C255.622 140.302 239.505 124.505 219.623 124.505 H93.622C52.552 124.505 27.622 94.374 27.622 55.034 V28.374 H32.302C33.082 28.374 33.572 27.524 33.182 26.844L22.459 10.632C22.063 10.033 21.184 10.034 20.79 10.635L10.142 26.844C9.742 27.525 10.232 28.375 11.022 28.375 H15.622 V292.184C15.622 312.066 31.74 328.184 51.622 328.184 H219.622C239.504 328.184 255.622 312.081 255.622 292.199 V160.184"></path></g></g></g><g id="g-root-cp_4_shape-4_zpo4fi119ar64-fill" data-item-order="-399074" transform="translate(314.382568359375, 140)"><g id="cp_4_shape-4_zpo4fi119ar64-fill-merged" stroke="none" fill="#e0cb15" fill-opacity="1"><g><path d="M27.622 28.191 H32.302C33.082 28.191 33.572 27.341 33.182 26.661L22.459 10.448C22.063 9.849 21.184 9.851 20.789 10.451L10.142 26.661C9.742 27.341 10.232 28.191 11.022 28.191 H15.622 V292 H27.623 V28.191"></path></g></g></g><g id="g-root-cp_4_shape-4_1_zpo4fi119ar65-fill" data-item-order="-399064" transform="translate(320, 422)"><g id="cp_4_shape-4_1_zpo4fi119ar65-fill-merged" stroke="none" fill="#e0cb15" fill-opacity="1"><g><path d="M76 64.321C46 64.321 22 46 22 10 H10 V100.305 H280C280 80.423 263.882 64.321 244 64.321 H76"></path></g></g></g><g id="g-root-cp_4_shape-4_2_v9umb2119arye-fill" data-item-order="-399046" transform="translate(320, 512)"><g id="cp_4_shape-4_2_v9umb2119arye-fill-merged" stroke="none" fill="#e0cb15" fill-opacity="1"><g><path d="M10 142C10 161.882 26.118 178 46 178 H244C263.882 178 280 161.898 280 142.016 V10 H10 V142"></path></g></g></g><g id="g-root-ic_1_4pfhwu119aqyq-fill" data-item-order="-2304" transform="translate(128, 278)"><g id="ic_1_4pfhwu119aqyq-fill-merged" stroke="none" fill="#ffffff" fill-opacity="1"><g><path d="M26.5 10 H11.5C10.672 10 10 10.672 10 11.5 V25.5 H16.634C16.928 23.37 17.702 21.368 19.002 19.714C20.702 17.55 23.208 16.106 26.356 15.726C26.408 15.709 26.457 15.683 26.5 15.648 V10 M10 29.5 V37.5C10 38.328 10.672 39 11.5 39 H16.494 V29.5 H10 M20.494 39 V27.66C20.498 27.607 20.5 27.553 20.5 27.5C20.5 25.362 21.1 23.52 22.148 22.186C23.174 20.878 24.728 19.932 26.92 19.686C26.978 19.68 27.035 19.672 27.092 19.662C28.812 19.318 30.5 17.858 30.5 15.7 V10 H37.5 V15.7C37.5 17.858 39.19 19.318 40.908 19.66C40.964 19.672 41.022 19.68 41.08 19.688C43.272 19.932 44.826 20.878 45.852 22.186C46.89 23.506 47.486 25.32 47.5 27.426 V39 H41 V28.5C41 26.3 39.2 24.5 37 24.5 H31C28.8 24.5 27 26.3 27 28.5 V39 H20.494 M51.498 39 H56.5C57.328 39 58 38.328 58 37.5 V29.5 H51.5 V39 M58 25.5 V11.5C58 10.672 57.328 10 56.5 10 H41.5 V15.648C41.543 15.683 41.592 15.709 41.644 15.726C44.792 16.106 47.296 17.55 48.998 19.714C50.298 21.368 51.072 23.37 51.366 25.5 H58 M15.82 51.306C18.134 51.306 20.011 49.43 20.011 47.116C20.011 44.802 18.134 42.926 15.82 42.926C13.506 42.926 11.631 44.802 11.631 47.116C11.631 49.43 13.506 51.306 15.82 51.306 M38.19 47.116C38.19 49.43 36.314 51.307 34 51.307C31.686 51.307 29.81 49.43 29.81 47.116C29.81 44.802 31.686 42.927 34 42.927C36.314 42.927 38.19 44.802 38.19 47.116 M52.18 51.306C54.494 51.306 56.371 49.43 56.371 47.116C56.371 44.802 54.494 42.926 52.18 42.926C49.866 42.926 47.991 44.802 47.991 47.116C47.991 49.43 49.866 51.306 52.18 51.306 M15.82 52.18C12.56 52.18 10 54.74 10 58 H21.64C21.64 54.74 19.08 52.18 15.82 52.18 M28.18 58C28.18 54.74 30.74 52.18 34 52.18C37.26 52.18 39.82 54.74 39.82 58 H28.18 M52.18 52.18C48.92 52.18 46.36 54.74 46.36 58 H58C58 54.74 55.44 52.18 52.18 52.18"></path></g></g></g><g id="g-root-ic_man_hriz5a1197zeu-fill" data-item-order="-2304" transform="translate(446, 278)"><g id="ic_man_hriz5a1197zeu-fill-merged" stroke="none" fill="#ffffff" fill-opacity="1"><g><path d="M11.7 10.126C10.872 10.126 10.2 10.798 10.2 11.626 V35.32C10.2 36.148 10.872 36.82 11.7 36.82 H22.39C23.218 36.82 23.89 36.148 23.89 35.32C23.89 32.126 23.166 29.668 21.988 27.8C20.996 26.23 19.592 24.962 17.928 24.136C18.236 23.942 18.53 23.732 18.81 23.51C20.57 22.118 21.702 20.294 22.436 18.552C23.15 16.818 23.608 14.988 23.794 13.122 H42.5C43.328 13.122 44 12.45 44 11.622C44 10.794 43.328 10.122 42.5 10.122 H11.7 M44.7 15.966C41.827 15.966 39.498 18.295 39.498 21.168C39.498 24.041 41.827 26.37 44.7 26.37C47.572 26.369 49.9 24.041 49.9 21.169C49.9 18.297 47.572 15.969 44.7 15.968 M34.886 34.822C36.278 30.874 40.01 27.822 44.7 27.822C49.17 27.822 53.114 30.854 54.514 34.822C54.676 35.281 54.606 35.79 54.325 36.188C54.044 36.586 53.587 36.822 53.1 36.822 H36.3C35.813 36.822 35.356 36.586 35.075 36.188C34.794 35.79 34.724 35.281 34.886 34.822 M10.2 56.5C10.2 57.328 10.872 58 11.7 58 H56.3C57.128 58 57.8 57.328 57.8 56.5 V41.5C57.8 40.672 57.128 40 56.3 40 H11.7C10.872 40 10.2 40.672 10.2 41.5 V56.5 M20.1 43C20.928 43 21.6 43.672 21.6 44.5 V53.5C21.6 54.328 20.928 55 20.1 55C19.272 55 18.6 54.328 18.6 53.5 V44.5C18.6 43.672 19.272 43 20.1 43 M31.2 44.5C31.2 43.672 30.528 43 29.7 43C28.872 43 28.2 43.672 28.2 44.5 V53.5C28.2 54.328 28.872 55 29.7 55C30.528 55 31.2 54.328 31.2 53.5 V44.5 M38.7 43C39.528 43 40.2 43.672 40.2 44.5 V53.5C40.2 54.328 39.528 55 38.7 55C37.872 55 37.2 54.328 37.2 53.5 V44.5C37.2 43.672 37.872 43 38.7 43 M49.2 44.5C49.2 43.672 48.528 43 47.7 43C46.872 43 46.2 43.672 46.2 44.5 V53.5C46.2 54.328 46.872 55 47.7 55C48.528 55 49.2 54.328 49.2 53.5 V44.5"></path></g></g></g><g id="g-root-ic_3_1unexri119c5ji-fill" data-item-order="-2304" transform="translate(431, 500)"><g id="ic_3_1unexri119c5ji-fill-merged" stroke="none" fill="#ffffff" fill-opacity="1"><g><path d="M26 30C26.635 30.377 27.362 30.571 28.1 30.56C29.112 30.563 30.094 30.217 30.88 29.58C32.424 30.621 33.677 32.039 34.52 33.7L37.54 34.44C37.141 31.108 38.291 27.777 40.66 25.4C41.419 25.742 42.231 25.951 43.06 26.02C50.94 26.64 53.7 16.74 54.56 11.82C54.64 11.566 54.64 11.294 54.56 11.04C54.425 10.646 54.136 10.324 53.759 10.147C53.382 9.97 52.95 9.953 52.56 10.1C49.895 11.123 47.053 11.605 44.2 11.52C41.738 11.315 39.342 12.38 37.844 14.344C36.346 16.308 35.952 18.9 36.8 21.22C39.383 18.436 43.002 16.844 46.8 16.82C48.54 16.82 49.06 19.58 46.98 19.64C41.316 19.85 36.45 23.726 34.98 29.2C34.21 28.394 33.359 27.671 32.44 27.04C32.806 25.141 31.889 23.226 30.18 22.32 H30C27.702 21.731 25.329 21.495 22.96 21.62C22.562 21.627 22.177 21.76 21.86 22C20.987 22.634 20.775 23.847 21.38 24.74C22.649 26.714 24.206 28.487 26 30 M55.54 42L14 31.76C13.084 31.502 12.1 31.69 11.344 32.269C10.588 32.847 10.149 33.748 10.16 34.7 V56.98C10.16 57.532 10.608 57.98 11.16 57.98 H18.26C18.812 57.98 19.26 57.532 19.26 56.98 V47.84C19.26 47.566 19.37 47.303 19.566 47.112C19.761 46.92 20.026 46.815 20.3 46.82 H26.3C26.574 46.815 26.839 46.92 27.034 47.112C27.23 47.303 27.34 47.566 27.34 47.84 V56.98C27.34 57.532 27.788 57.98 28.34 57.98 H56.84C57.392 57.98 57.84 57.532 57.84 56.98 V44.98C57.862 43.572 56.908 42.336 55.54 42 M38.56 50.42 H35.52C34.692 50.42 34.02 49.748 34.02 48.92C34.02 48.092 34.692 47.42 35.52 47.42 H38.56C39.388 47.42 40.06 48.092 40.06 48.92C40.06 49.748 39.388 50.42 38.56 50.42 M48.72 50.42 H45.68C44.852 50.42 44.18 49.748 44.18 48.92C44.18 48.092 44.852 47.42 45.68 47.42 H48.72C49.548 47.42 50.22 48.092 50.22 48.92C50.22 49.748 49.548 50.42 48.72 50.42"></path></g></g></g><g id="g-root-ic_tabl_1qegkfi119gfeq-fill" data-item-order="-2304" transform="translate(143, 524)"><g id="ic_tabl_1qegkfi119gfeq-fill-merged" stroke="none" fill="#ffffff" fill-opacity="1"><g><path d="M58 47C58 45.343 56.657 44 55 44 H13C11.343 44 10 45.343 10 47 V49C10 50.657 11.343 52 13 52 H14C14.172 52.002 14.331 52.093 14.42 52.24C14.51 52.387 14.51 52.573 14.42 52.72L13.24 55.1C12.746 56.083 13.139 57.281 14.12 57.78C14.391 57.925 14.693 58 15 58C15.753 57.998 16.441 57.573 16.78 56.9L18.96 52.56C19.128 52.217 19.478 51.999 19.86 52 H48.14C48.522 51.999 48.872 52.217 49.04 52.56L51.22 56.9C51.559 57.573 52.247 57.998 53 58C53.314 58.004 53.623 57.928 53.9 57.78C54.881 57.281 55.274 56.083 54.78 55.1L53.6 52.72C53.51 52.573 53.51 52.387 53.6 52.24C53.686 52.099 53.835 52.009 54 52 H54.96C55.763 52.011 56.536 51.699 57.107 51.136C57.679 50.572 58 49.803 58 49 V47 M25.64 20C25.883 20.473 26.305 20.829 26.811 20.991C27.318 21.152 27.868 21.105 28.34 20.86C30.893 19.565 33.944 19.732 36.34 21.3C38.31 22.609 39.776 24.548 40.5 26.8C40.577 27.032 40.476 27.286 40.26 27.4C39.597 27.772 39.098 28.378 38.86 29.1C37.625 32.601 36.996 36.287 37 40C37 41.105 37.895 42 39 42 H47C48.105 42 49 41.105 49 40C49.004 36.287 48.375 32.601 47.14 29.1C46.94 28.48 46.539 27.945 46 27.58C45.824 27.471 45.742 27.259 45.8 27.06L46.6 23.86C46.754 23.18 46.955 22.512 47.2 21.86C47.257 21.718 47.374 21.608 47.52 21.56C47.654 21.501 47.806 21.501 47.94 21.56L50.84 23.56C51.166 23.834 51.575 23.989 52 24C52.665 24.001 53.287 23.671 53.66 23.12C53.958 22.68 54.068 22.14 53.967 21.618C53.865 21.096 53.561 20.637 53.12 20.34L49.82 18.14C49.707 18.067 49.627 17.952 49.6 17.82C49.583 17.679 49.619 17.537 49.7 17.42C50.194 16.712 50.742 16.043 51.34 15.42L53.34 13.42C53.972 12.959 54.278 12.172 54.122 11.406C53.966 10.639 53.378 10.034 52.616 9.856C51.854 9.679 51.059 9.961 50.58 10.58L49.14 12C49.036 12.109 48.89 12.167 48.74 12.16C48.604 12.154 48.476 12.097 48.38 12L47.66 10.9C47.301 10.231 46.595 9.823 45.836 9.846C45.078 9.87 44.398 10.32 44.08 11.01C43.763 11.699 43.864 12.509 44.34 13.1L45.86 15.38C45.968 15.558 45.968 15.782 45.86 15.96C44.672 17.638 43.761 19.494 43.16 21.46C43.102 21.639 42.949 21.77 42.763 21.8C42.577 21.829 42.391 21.752 42.28 21.6C40.955 19.618 39.097 18.051 36.92 17.08C36.818 17.035 36.733 16.958 36.68 16.86L33.78 11.1C33.24 10.202 32.099 9.874 31.164 10.346C30.229 10.819 29.817 11.933 30.22 12.9L31.44 15.34C31.522 15.49 31.522 15.67 31.44 15.82C31.357 15.966 31.208 16.063 31.04 16.08C29.474 16.198 27.945 16.619 26.54 17.32C25.552 17.812 25.149 19.011 25.64 20"></path></g></g></g><g id="g-root-tx_designin_me7m26119asr3-fill" data-item-order="0" transform="translate(179, 38)"><g id="tx_designin_me7m26119asr3-fill-merged" stroke="none" fill="#484848" fill-opacity="1"><g><text style="font: bold 25px Roboto, sans-serif; white-space: pre;" transform="translate(142, 40)" font-weight="bold" font-size="25px" font-family="Roboto, sans-serif"><tspan x="-130.03" y="0" dominant-baseline="ideographic">Riley Robb Hall Design </tspan><tspan x="-55.44" y="30" dominant-baseline="ideographic">Elements</tspan></text></g></g></g><g id="g-root-tx_tieredho_1qdu3ce119aq6g-fill" data-item-order="0" transform="translate(62, 338)"><g id="tx_tieredho_1qdu3ce119aq6g-fill-merged" stroke="none" fill="#ffffff" fill-opacity="1"><g><text style="font: bold 20px Roboto, sans-serif; white-space: pre;" transform="translate(100, 34)" font-weight="bold" font-size="20px" font-family="Roboto, sans-serif"><tspan x="-82.51" y="-0" dominant-baseline="ideographic">Tiered Horseshoe </tspan><tspan x="-63.83" y="24" dominant-baseline="ideographic">Configuration</tspan></text></g></g></g><g id="g-root-tx_accessib_i09mcu1196ioc-fill" data-item-order="0" transform="translate(386, 338)"><g id="tx_accessib_i09mcu1196ioc-fill-merged" stroke="none" fill="#ffffff" fill-opacity="1"><g><text style="font: bold 20px Roboto, sans-serif; white-space: pre;" transform="translate(94, 22)" font-weight="bold" font-size="20px" font-family="Roboto, sans-serif"><tspan x="-81.9" y="12" dominant-baseline="ideographic">Accessible Layout</tspan></text></g></g></g><g id="g-root-tx_ensuresi_1lz9mjy1196j9h-fill" data-item-order="0" transform="translate(386, 374)"><g id="tx_ensuresi_1lz9mjy1196j9h-fill-merged" stroke="none" fill="#ffffff" fill-opacity="1"><g><text style="font: 15px Roboto, sans-serif; white-space: pre;" transform="translate(94, 40)" font-size="15px" font-family="Roboto, sans-serif"><tspan x="-79.36" y="-9" dominant-baseline="ideographic">Ensures inclusivity with </tspan><tspan x="-81.04" y="9" dominant-baseline="ideographic">varied seating and clear </tspan><tspan x="-35.8" y="27" dominant-baseline="ideographic">pathways.</tspan></text></g></g></g><g id="g-root-tx_improves_zrjjou119aq6h-fill" data-item-order="0" transform="translate(62, 398)"><g id="tx_improves_zrjjou119aq6h-fill-merged" stroke="none" fill="#ffffff" fill-opacity="1"><g><text style="font: 15px Roboto, sans-serif; white-space: pre;" transform="translate(100, 40)" font-size="15px" font-family="Roboto, sans-serif"><tspan x="-86.49" y="-9" dominant-baseline="ideographic">Improves communication </tspan><tspan x="-68.05" y="9" dominant-baseline="ideographic">and spatial clarity in </tspan><tspan x="-42.53" y="27" dominant-baseline="ideographic">classrooms.</tspan></text></g></g></g><g id="g-root-tx_biophili_8yni119c6pw-fill" data-item-order="0" transform="translate(371, 560)"><g id="tx_biophili_8yni119c6pw-fill-merged" stroke="none" fill="#ffffff" fill-opacity="1"><g><text style="font: bold 20px Roboto, sans-serif; white-space: pre;" transform="translate(94, 22)" font-weight="bold" font-size="20px" font-family="Roboto, sans-serif"><tspan x="-80.6" y="12" dominant-baseline="ideographic">Biophilic Textures</tspan></text></g></g></g><g id="g-root-tx_neutralt_1qd7m9a119gd8o-fill" data-item-order="0" transform="translate(101, 584)"><g id="tx_neutralt_1qd7m9a119gd8o-fill-merged" stroke="none" fill="#ffffff" fill-opacity="1"><g><text style="font: bold 20px Roboto, sans-serif; white-space: pre;" transform="translate(76, 22)" font-weight="bold" font-size="20px" font-family="Roboto, sans-serif"><tspan x="-62.3" y="12" dominant-baseline="ideographic">Neutral Tones</tspan></text></g></g></g><g id="g-root-tx_reducesc_vb3kha119ge0x-fill" data-item-order="0" transform="translate(65, 620)"><g id="tx_reducesc_vb3kha119ge0x-fill-merged" stroke="none" fill="#ffffff" fill-opacity="1"><g><text style="font: 15px Roboto, sans-serif; white-space: pre;" transform="translate(112, 28)" font-size="15px" font-family="Roboto, sans-serif"><tspan x="-94.86" y="0" dominant-baseline="ideographic">Reduces cognitive load with </tspan><tspan x="-81.32" y="18" dominant-baseline="ideographic">calming color schemes.</tspan></text></g></g></g><g id="g-root-tx_enhances_v48fou119c4xx-fill" data-item-order="0" transform="translate(371, 596)"><g id="tx_enhances_v48fou119c4xx-fill-merged" stroke="none" fill="#ffffff" fill-opacity="1"><g><text style="font: 15px Roboto, sans-serif; white-space: pre;" transform="translate(94, 40)" font-size="15px" font-family="Roboto, sans-serif"><tspan x="-79.54" y="-9" dominant-baseline="ideographic">Enhances well-being by </tspan><tspan x="-71.14" y="9" dominant-baseline="ideographic">incorporating natural </tspan><tspan x="-34.64" y="27" dominant-baseline="ideographic">elements.</tspan></text></g></g></g><g id="g-root-cp_1_shape-1_1qbyo32119ar5z-stroke" data-item-order="-399156" transform="translate(31.999969482421875, 139.81640625)"><g id="cp_1_shape-1_1qbyo32119ar5z-stroke" fill="none" stroke-linecap="round" stroke-linejoin="round" stroke-miterlimit="4" stroke="#ffffff" stroke-width="2" stroke-opacity="1"><g><path d="M 10.000031 160.1836C 10.000031 140.3014 26.117731 124.3209 45.999931 124.3209L 172.000031 124.3209C 213.070031 124.3209 238.000031 94.1909 238.000031 54.8509L 238.000031 28.1909L 233.320031 28.1909C 232.540031 28.1909 232.050031 27.3409 232.440031 26.6609L 243.163131 10.4483C 243.559231 9.8494 244.438731 9.8508 244.833031 10.451L 255.480031 26.6609C 255.880031 27.341 255.390031 28.191 254.600031 28.191L 250.000031 28.191L 250.000031 160.1836M 250.000131 316.183594C 250.000131 336.065794 233.882331 352.191394 214.000131 352.191394L 45.999931 352.191294C 26.117731 352.191294 10.000031 336.081294 10.000031 316.199194L 10.000031 316.183594M 250.000138 316.183594L 250.000138 160.183594M 10.000031 160.183594L 10.000031 316.183594"></path></g></g></g><g id="g-root-cp_3_shape-3_1lw55ym119ary8-stroke" data-item-order="-399142" transform="translate(284.302734375, 140)"><g id="cp_3_shape-3_1lw55ym119ary8-stroke" fill="none" stroke-linecap="round" stroke-linejoin="round" stroke-miterlimit="4" stroke="#ffffff" stroke-width="2" stroke-opacity="1"><g><path d="M 15.697266 160L 15.697266 316M 27.697266 316L 27.697266 160M 15.6969 160L 15.6969 28.1909L 11.0169 28.1909C 10.2369 28.1909 9.7469 27.3409 10.1369 26.6609L 20.8599 10.4483C 21.2561 9.8494 22.1356 9.8508 22.5298 10.451L 33.1769 26.6609C 33.5769 27.341 33.0869 28.191 32.2969 28.191L 27.6969 28.191L 27.6969 160"></path></g></g></g><g id="g-root-cp_3_shape-3_1_1d0i5pq119asqx-stroke" data-item-order="-399132" transform="translate(32, 446)"><g id="cp_3_shape-3_1_1d0i5pq119asqx-stroke" fill="none" stroke-linecap="round" stroke-linejoin="round" stroke-miterlimit="4" stroke="#ffffff" stroke-width="2" stroke-opacity="1"><g><path d="M 268 10C 268 46 244 64.3209 214 64.3209L 45.9999 64.3209C 26.1177 64.3209 10 80.4233 10 100.3055M 280 100.3055L 280 10"></path></g></g></g><g id="g-root-cp_3_shape-3_2_1d0i5pq119asqy-stroke" data-item-order="-399114" transform="translate(32, 536)"><g id="cp_3_shape-3_2_1d0i5pq119asqy-stroke" fill="none" stroke-linecap="round" stroke-linejoin="round" stroke-miterlimit="4" stroke="#ffffff" stroke-width="2" stroke-opacity="1"><g><path d="M 280 117.982445L 280 10M 10 10L 10 118M 280.0001 118.007813C 280.0001 137.890013 263.8823 154.007813 244.0001 154.007813L 45.9999 154.007713C 26.1177 154.007713 10 137.905513 10 118.023413L 10 118.007813"></path></g></g></g><g id="g-root-cp_2_shape-2_18lb4oe119aqdf-stroke" data-item-order="-399088" transform="translate(344.3775634765625, 139.81640625)"><g id="cp_2_shape-2_18lb4oe119aqdf-stroke" fill="none" stroke-linecap="round" stroke-linejoin="round" stroke-miterlimit="4" stroke="#ffffff" stroke-width="2" stroke-opacity="1"><g><path d="M 255.622416 160.1836C 255.622416 140.3014 239.504716 124.3209 219.622616 124.3209L 93.622416 124.3209C 52.552416 124.3209 27.622416 94.1909 27.622416 54.8509L 27.622416 28.1909L 32.302416 28.1909C 33.082416 28.1909 33.572416 27.3409 33.182416 26.6609L 22.459416 10.4483C 22.063216 9.8494 21.183716 9.8508 20.789516 10.451L 10.142416 26.6609C 9.742416 27.341 10.232416 28.191 11.022416 28.191L 15.622416 28.191L 15.622416 160.1836M 15.622437 292.183594C 15.622437 312.065794 31.740137 328.183594 51.622437 328.183594L 219.622637 328.183494C 239.504737 328.183494 255.622437 312.081294 255.622437 292.199194L 255.622437 292.183594M 15.62233 292.183594L 15.62233 160.183594M 255.62233 160.183594L 255.62233 292.183594"></path></g></g></g><g id="g-root-cp_4_shape-4_zpo4fi119ar64-stroke" data-item-order="-399074" transform="translate(314.382568359375, 140)"><g id="cp_4_shape-4_zpo4fi119ar64-stroke" fill="none" stroke-linecap="round" stroke-linejoin="round" stroke-miterlimit="4" stroke="#ffffff" stroke-width="2" stroke-opacity="1"><g><path d="M 27.622071 160L 27.622071 292M 15.622071 292L 15.622071 160M 27.6224 160L 27.6224 28.1909L 32.3024 28.1909C 33.0824 28.1909 33.5724 27.3409 33.1824 26.6609L 22.4594 10.4483C 22.0632 9.8494 21.1837 9.8508 20.7895 10.451L 10.1424 26.6609C 9.7424 27.341 10.2324 28.191 11.0224 28.191L 15.6224 28.191L 15.6224 160"></path></g></g></g><g id="g-root-cp_4_shape-4_1_zpo4fi119ar65-stroke" data-item-order="-399064" transform="translate(320, 422)"><g id="cp_4_shape-4_1_zpo4fi119ar65-stroke" fill="none" stroke-linecap="round" stroke-linejoin="round" stroke-miterlimit="4" stroke="#ffffff" stroke-width="2" stroke-opacity="1"><g><path d="M 22 10C 22 46 46 64.3209 76 64.3209L 244.0002 64.3209C 263.8824 64.3209 280 80.4233 280 100.3055M 10 100.3055L 10 10"></path></g></g></g><g id="g-root-cp_4_shape-4_2_v9umb2119arye-stroke" data-item-order="-399046" transform="translate(320, 512)"><g id="cp_4_shape-4_2_v9umb2119arye-stroke" fill="none" stroke-linecap="round" stroke-linejoin="round" stroke-miterlimit="4" stroke="#ffffff" stroke-width="2" stroke-opacity="1"><g><path d="M 10 142L 10 10M 280 10L 280 142M 10 142C 10 161.8822 26.1177 178.0078 45.9999 178.0078L 244.0001 178.0077C 263.8823 178.0077 280 161.8977 280.0001 142.0156L 280.0001 142"></path></g></g></g><g id="g-root-ic_1_4pfhwu119aqyq-stroke" data-item-order="-2304" transform="translate(128, 278)"></g><g id="g-root-ic_man_hriz5a1197zeu-stroke" data-item-order="-2304" transform="translate(446, 278)"></g><g id="g-root-ic_3_1unexri119c5ji-stroke" data-item-order="-2304" transform="translate(431, 500)"></g><g id="g-root-ic_tabl_1qegkfi119gfeq-stroke" data-item-order="-2304" transform="translate(143, 524)"></g><g id="g-root-tx_designin_me7m26119asr3-stroke" data-item-order="0" transform="translate(179, 38)"></g><g id="g-root-tx_tieredho_1qdu3ce119aq6g-stroke" data-item-order="0" transform="translate(62, 338)"></g><g id="g-root-tx_accessib_i09mcu1196ioc-stroke" data-item-order="0" transform="translate(386, 338)"></g><g id="g-root-tx_ensuresi_1lz9mjy1196j9h-stroke" data-item-order="0" transform="translate(386, 374)"></g><g id="g-root-tx_improves_zrjjou119aq6h-stroke" data-item-order="0" transform="translate(62, 398)"></g><g id="g-root-tx_biophili_8yni119c6pw-stroke" data-item-order="0" transform="translate(371, 560)"></g><g id="g-root-tx_neutralt_1qd7m9a119gd8o-stroke" data-item-order="0" transform="translate(101, 584)"></g><g id="g-root-tx_reducesc_vb3kha119ge0x-stroke" data-item-order="0" transform="translate(65, 620)"></g><g id="g-root-tx_enhances_v48fou119c4xx-stroke" data-item-order="0" transform="translate(371, 596)"></g></g></g></svg>